<?xml version="1.0" encoding="utf-8"?>
<!-- Generator: Adobe Illustrator 18.0.0, SVG Export Plug-In . SVG Version: 6.00 Build 0)  -->
<!DOCTYPE svg PUBLIC "-//W3C//DTD SVG 1.1//EN" "http://www.w3.org/Graphics/SVG/1.1/DTD/svg11.dtd">
<svg version="1.1" xmlns="http://www.w3.org/2000/svg" xmlns:xlink="http://www.w3.org/1999/xlink" x="0px" y="0px" width="512px"
	 height="512px" viewBox="0 0 512 512" enable-background="new 0 0 512 512" xml:space="preserve">
<g id="white_block">
	<rect opacity="0" fill="#FFFFFF" width="512" height="512"/>
</g>
<g id="Logos">
	<g>
		<path fill="#2E2A25" d="M144.3,434.5c-0.8-0.7-2.1-1.6-4.2-2.3c2.4-1.3,4.1-3.2,4.9-5.9c0.7-2,0.6-4.5,0.6-5.5V409
			c-0.1-3.2-0.4-6.8-3-9.7c-2.2-2.5-5.5-3.7-9.8-3.7l-15.9,0c-0.7,0-1.2,0.5-1.2,1.2v77.6c0,0.7,0.5,1.2,1.2,1.2h16.1
			c1.7,0,6.8,0,11-3.6c3.7-3.4,4.1-7.4,4.2-12v-13.3C148.4,442.8,148.4,437.9,144.3,434.5 M123.7,436.3h4.3c5.5,0.2,10.3,0.8,12,5.6
			c0.5,1.6,0.6,3.3,0.6,4.9v11c0,5.2-0.4,7.7-2.5,9.3c-1.3,0.9-2.7,1.4-6.5,1.5h-7.9V436.3z M137.9,420.1c0,2.4-0.1,6.9-5.3,8.4
			c-1.4,0.4-2.1,0.5-4.9,0.6h-4.1v-26.4h5.6l0.3,0c3.3,0.1,6.7,0.2,7.9,3.2c0.2,0.7,0.4,2,0.5,4.2v9.3L137.9,420.1"/>
		<path fill="#2E2A25" d="M175.1,437.3c0.7-0.2,1.1-0.3,1.7-0.6c4.2-1.6,7.1-4.7,8.2-8.9c0.5-1.8,0.5-4.7,0.5-5.2v-12.2l0-0.6
			c-0.1-2.3-0.3-7.6-4.7-11.1c-3.6-2.8-7.6-2.9-11.7-3h-15.1c-0.7,0-1.2,0.5-1.2,1.2v77.6c0,0.7,0.5,1.2,1.2,1.2h5.4
			c0.7,0,1.2-0.5,1.2-1.2v-36.6h6.4l13.9,37c0.2,0.5,0.6,0.8,1.1,0.8h5.7h0c0.7,0,1.2-0.5,1.2-1.2l-0.2-0.7L175.1,437.3z
			 M177.4,411.9v12.1c0,1.6,0,5-3.9,6.4c-0.8,0.3-2.1,0.6-4.2,0.6h-8.7v-28.1h8.9c1.8,0,3.4,0.1,5,0.9
			C177.1,405.2,177.3,408.6,177.4,411.9"/>
		<path fill="#2E2A25" d="M218,397.9c-2.8-2.1-6.4-3.1-10.6-3.1H207c-7.6,0-13.5,3.8-15.6,10.2c-1,3-1.2,6.3-1.2,8.2l0,0.1l0,0.8v0
			V458c0.1,4.3,0.2,9.3,3.7,13.6c3.9,4.7,10.4,5.2,13,5.2c9.4,0,13.4-5.1,14.7-7.3c2.1-3.4,2.4-6.9,2.5-10.7v-42.9
			C224,409.6,224,402.5,218,397.9 M197.8,412.9c0-4.5,1.3-7.6,3.9-9.4c1.6-1,3.3-1.5,5.3-1.5c2.5,0,4.2,0.8,4.6,1.1
			c1.9,1,2.6,2.4,3,3.1c1.5,2.8,1.7,6.4,1.7,12.5v37.8c-0.1,4.2-0.2,8.6-3.9,11.2c-1.4,1.1-3.2,1.6-5.3,1.6c-6.4,0-8.3-4.7-8.5-5.2
			c-0.6-1.8-0.8-4.1-0.8-8.4V412.9z"/>
		<path fill="#2E2A25" d="M256.5,397.9c-2.8-2.1-6.4-3.1-10.6-3.1h-0.4c-7.6,0-13.5,3.8-15.6,10.2c-1,3-1.1,6.3-1.2,8.2l0,0.1
			l-0.1,0.9v0.1v43.8c0.1,4.4,0.2,9.3,3.7,13.6c3.9,4.7,10.4,5.2,13,5.2c9.4,0,13.4-5.1,14.7-7.3c2.1-3.4,2.4-6.9,2.5-10.7v-42.9
			C262.5,409.6,262.5,402.5,256.5,397.9 M236.4,412.9c0-4.5,1.3-7.6,3.9-9.4c1.6-1,3.3-1.5,5.3-1.5c2.6,0,4.3,0.9,4.6,1.1
			c1.9,1,2.6,2.4,3,3.1c1.5,2.8,1.7,6.4,1.7,12.5v37.8c-0.1,4.2-0.2,8.6-3.9,11.2c-1.5,1.1-3.2,1.6-5.3,1.6c-6.4,0-8.3-4.7-8.5-5.2
			c-0.6-1.8-0.8-4.1-0.8-8.4V412.9z"/>
		<path fill="#2E2A25" d="M283.7,427.4l16.2-30.4l0-1.2l-1-0.6h-6l-1.1,0.7l-17.1,33.5v-33c0-0.7-0.5-1.2-1.2-1.2H268
			c-0.7,0-1.2,0.5-1.2,1.2V474c0,0.7,0.6,1.2,1.2,1.2h5.3c0.6,0,1.2-0.5,1.2-1.2v-29.2l4.3-8.1l13.3,37.6c0.2,0.5,0.6,0.8,1.1,0.8
			h5.8h0c0.7,0,1.2-0.5,1.2-1.2l-0.2-0.7L283.7,427.4z"/>
		<path fill="#2E2A25" d="M330.3,468.5h-19v-71.6c0-0.7-0.5-1.2-1.2-1.2h-5.4c-0.7,0-1.2,0.6-1.2,1.2v77.6c0,0.7,0.5,1.2,1.2,1.2
			h25.6c0.6,0,1.2-0.5,1.2-1.2v-4.8C331.5,469,330.9,468.5,330.3,468.5"/>
		<path fill="#2E2A25" d="M359.3,395.7h-5.9c-0.5,0-1,0.3-1.1,0.8L341,429.6l-11.3-33.1c-0.2-0.5-0.6-0.8-1.1-0.8h-5.7l-1,0.5
			l-0.1,1.1l15.2,43.1v34.1c0,0.7,0.5,1.2,1.2,1.2h5.3c0.7,0,1.2-0.5,1.2-1.2v-34.1l15.8-43.1l-0.2-1.1L359.3,395.7"/>
		<path fill="#2E2A25" d="M395,395.7h-5.3l-0.9,0.4l-0.4,0.8l0.5,56.7c0,1.5,0.1,2.9,0.1,4.6c0,0.9,0,1.7,0,2.7l-16-64.2
			c-0.1-0.5-0.6-0.9-1.2-0.9H364c-0.7,0-1.2,0.6-1.2,1.2v77.6c0,0.7,0.5,1.2,1.2,1.2h5.2l0.9-0.3l0.3-0.9l-0.3-55.2V412l15.5,62.8
			c0.1,0.5,0.6,0.9,1.2,0.9h8.2c0.7,0,1.2-0.5,1.2-1.2v-77.6C396.2,396.2,395.6,395.7,395,395.7"/>
		<path fill="#2E2A25" d="M422.8,81.5c0-3.6,0-5.6,0-5.6v-4.3l-4-2c-2.8-1.4-68.9-34.3-160.7-34.3h-4.3c-91.8,0-158,32.9-160.7,34.3
			l-3.9,2v4.3c0,0,0,2,0,5.3c-0.7,39.1,4.1,138.3,64.8,215.5c49.2,62.6,95.4,77.1,100.5,78.5l2,0.6l2-0.5c2-0.6,49-14.3,99.6-78.6
			C418.8,219.6,423.5,120.4,422.8,81.5"/>
		<path fill="#FFFFFF" d="M353.6,293.3c59.4-75.5,64.1-172.7,63.4-211.1c0-3.6,0-5.5,0-5.5v-1.5l-1.3-0.6
			C413,73.2,348.3,41,258.1,41h-4.2C163.8,41,99,73.2,96.3,74.6L95,75.2v1.4c0,0,0,2,0,5.3c-0.7,38.4,4,135.8,63.4,211.3
			c48,61,92.5,75.1,97.4,76.4l0.6,0.2l0.7-0.2C259,369.2,304.3,355.9,353.6,293.3 M256.5,365.2c-3.7-1.1-47.7-14.6-94.9-74.6
			c-62.2-79-62.5-182.4-62-206.8c0-3.4,0-5.3,0-5.3l0.2-0.1v-0.2l1.4-0.6c3.3-1.5,10.7-4.7,21.3-8.6c26.5-9.7,74-23.3,131.4-23.3
			h4.2c57.3,0,104.7,13.5,131.2,23.2c10.8,3.9,18.2,7.1,21.6,8.6l1.4,0.6v0.2l0.2,0.1c0,0,0,1.9,0,5.3c0.5,24.4,0.2,127.8-62,206.8
			C303.1,350.7,260.1,364.2,256.5,365.2"/>
		<path fill="#FFFFFF" d="M183,66.7c-4.1,0.8-6.1,1.3-10.2,2.2c-0.8,0.2-1.3,0.9-1.3,1.7l0.8,75.6c0,5,0.1,9.6,0.3,13.8
			c-10.2-26.1-20.9-53.2-31.7-80.5c-0.3-0.9-1.3-1.3-2.2-1c-6,2-8.9,3-14.9,5.3c-0.7,0.3-1.1,0.9-1.1,1.6v104c0,0.6,0.3,1.1,0.8,1.4
			l1,0.3l0.6-0.1c3.7-1.4,5.5-2.1,9.4-3.4c0.7-0.2,1.2-0.9,1.2-1.7c-0.2-24.6-0.3-49.2-0.4-73.8c0-6.5-0.1-10.1-0.3-14.7
			c10.7,27.2,21.1,53.7,30.9,79.1c0.3,0.8,1.2,1.3,2,1.1c6.3-1.5,9.4-2.2,15.8-3.5c0.8-0.2,1.4-0.9,1.4-1.7v-104
			c0-0.5-0.2-1-0.6-1.3C184,66.7,183.5,66.6,183,66.7 M251.8,59.3c-18,0.3-36.1,1.9-53.8,4.7c-0.8,0.1-1.5,0.9-1.5,1.7v103.9
			c0,0.5,0.2,1,0.6,1.3l1.1,0.4l0.3,0c17.5-2.8,35.4-4.4,53.1-4.7c0.9,0,1.7-0.8,1.7-1.7v-6.5l-0.5-1.2l-1.2-0.5
			c-16.6,0.3-25.5,0.9-41.4,3v-41.1c13.2-1.7,20.1-2.3,33.9-2.8c0.9,0,1.7-0.8,1.7-1.7v-6.3l-0.5-1.2L244,106
			c-13.5,0.5-20.8,1.1-33.6,2.7V72.2c16.2-2.1,24.6-2.7,41.4-3c0.9,0,1.7-0.8,1.7-1.7V61l-0.5-1.2L251.8,59.3z M326.5,65.3
			c-21.1-3.9-42.7-6-64.1-6.2l-1.2,0.5l-0.5,1.2v6.6c0,1,0.8,1.7,1.7,1.7c10,0.1,15.2,0.3,24.7,1.1v95.9c0,0.9,0.7,1.6,1.6,1.7
			c4.2,0.3,6.2,0.5,10.5,1l0.2,0l1.2-0.4c0.4-0.3,0.6-0.8,0.6-1.3V71.6c9.5,1.1,14.8,1.8,24.8,3.7c0.5,0.1,1,0,1.4-0.4
			c0.4-0.4,0.6-0.8,0.6-1.3V67C327.9,66.1,327.3,65.4,326.5,65.3 M371,127.3c-22.1-22.9-24.6-26.6-24.6-36c0-9.3,4.1-10.6,8.1-10.6
			c2.1,0,4.6,0.4,7.6,1.3c16,4.6,16,13.3,16,19.8v9.3c0,0.7,0.5,1.4,1.2,1.7c3.9,1.3,5.8,2,9.8,3.5c0.5,0.2,1.1,0.1,1.6-0.2
			c0.5-0.3,0.8-0.9,0.8-1.4v-7.8c0-9.8,0-26.2-28.6-34.4c-20-5.7-30.2,0.4-30.2,17.8c0,14.4,8.8,23,23.5,37.3l3,2.9
			c17.4,17,20.9,22.7,20.9,33.4c0,3.9-0.6,6.6-1.8,8.3c-1.2,1.7-3.2,2.5-6.2,2.5c-2.3,0-5.3-0.5-8.7-1.5c-7.6-2.2-13.1-5.2-16.4-8.9
			c-4-4.5-4-8.3-4-15.9v-8.2c0-0.8-0.5-1.5-1.3-1.7c-4.3-1-6.3-1.4-10.4-2.2c-0.5-0.1-1,0.1-1.4,0.4c-0.4,0.3-0.6,0.8-0.6,1.3v14.6
			c0,13.7,11.2,24.1,32.4,30.2c6,1.7,11.2,2.6,15.4,2.6c16.6,0,16.6-13.4,16.6-19.1C393.4,151.1,385.7,142.5,371,127.3"/>
		<path fill="#FFFFFF" d="M320.8,250.6c1.2-1.2,2.1-2.5,2.8-4c5.5-10.5,0.6-22.2-1.5-26.3c-15.2-25.1-43.9-39.8-73.8-37
			C279.3,185.1,309.3,212.8,320.8,250.6 M219.6,219.9c7.5,3.1,17.3,8.4,27.6,14c16.3,8.8,33.2,17.9,44.7,20.7
			c10.2,2.5,18.6,2.3,24.4-0.6l-0.1-0.3l-0.3-1.3c-5-20.8-31-66.4-76.2-66.4c-1.9,0-3.8,0.1-5.8,0.3c-17.5,5.1-31.8,15.8-41.6,29.7
			c1.6-0.5,3.8-1,6.7-1C204.7,214.8,211.5,216.5,219.6,219.9 M208.3,282.8c18.3,6,28.5,8,41.9,8c4.9,0,10.4-0.3,17.5-0.9
			c19.6-1.7,40.2-8.2,51.3-13.5c0-5.4-0.5-10.8-1.5-16.3c-3.3,2-7,2.9-11.6,2.9c-4.6,0-10.2-0.9-19.2-3.1
			c-10.7-2.5-25.9-11.6-39.4-19.6c-7.4-4.4-14.4-8.6-20.1-11.4c-22-10.9-34.5-9.4-37.8-8.6c-7.8,13-11.8,28.4-10.8,44.2
			C180.2,266.6,187.7,276,208.3,282.8 M324.2,273.4l0.5-0.4c6.5-4.5,8.2-11.9,8.4-13.1c0-6.1-0.8-12.4-2.4-18.6l-0.2-0.7
			c-0.6,5.7-3.4,11-8.4,15.8C323.6,262,324.2,267.8,324.2,273.4 M326.1,277.6l-0.8,0.6l-1.3,0.9c-0.4,4.9-1.3,9.8-2.7,14.5
			c2.4-0.8,3.3,0.1,3.5,0.7l0.1,0.3c4-7.9,6.6-16.4,7.7-25.3C331.4,272.2,329.4,275.3,326.1,277.6 M323.2,296.8l-0.3-0.3
			c-0.2,0-0.8,0.1-1.9,0.8l-0.6,0.4l-0.5,0.4c-2,5.1-4.5,10-7.4,14.2c4.3-4.5,7.9-9.5,11-14.9h-0.1L323.2,296.8z M243.9,329.4
			c8.8-1,16.1-3.3,24.5-7.4c1.2-0.6,2.4-1.2,3.6-1.8c1-0.5,2-1.1,3-1.6c7.1-3.7,14.6-7.7,23.8-12.6c3.2-1.7,6.5-3.6,9.6-5.4l3.6-2
			c1.4-0.8,2.8-1.5,4.1-2.3l0.4-0.3c1.2-4.3,1.9-8.9,2.3-13.9c-9,4.5-22.5,8.5-42.4,12.5c-25.4,5.1-50.3,2.8-72.5-6.6
			c-14.9-6.3-22-15-24.9-19.8c0.4,3.4,1,6.8,1.8,10.2c4.9,19.4,16.8,35.2,32.3,45.4l-0.1-0.1l2.2,1.3c1.8,1,4,1.9,6.5,2.7
			c4.8,1.4,9.6,2.2,14.6,2.2C238.9,329.9,241.3,329.7,243.9,329.4 M314.3,302c-1,0.7-2,1.4-3.1,2.2c-2.9,2-5.8,3.7-8.8,5.5
			c-1.4,0.9-2.9,1.7-4.4,2.7c-10.3,6.4-22.7,13.5-36,17.6c-3.9,1.2-7.4,2.1-10.9,2.6c-3.2,0.5-6.2,0.7-9.2,0.7l-0.6,0
			c-3.9,0-7.7-0.4-11.4-1.1c13.9,4.9,29.3,6,44.7,2.2c8.8-2.2,16.9-5.8,24-10.5c6.9-5.4,12.4-13,16-22.2L314.3,302z"/>
		<path fill="#FFFFFF" d="M286.5,275.6c0-5.6,0-14-6.7-20.5c0.7-1.3,1.3-2.6,1.8-4.1c1.1-3.4,1.2-7,1.2-9.4l0-15.5v-0.2
			c-0.2-5.8-1.1-11.9-5.8-17.1c-4.2-4.8-10.6-7.3-18.4-7.3l-21,0c-2.3,0-4.6,0.9-6.2,2.6c-1.6,1.6-2.6,3.9-2.6,6.2l0.2,101.8
			c0,3,1.5,5.8,4.1,7.4c1.4,0.9,3.1,1.3,4.8,1.3l21.4,0c7.7,0,14.2-2.2,19.3-6.6l0.1,0c7.1-6.3,7.8-13.8,8-21v-0.1L286.5,275.6z"/>
		<path fill="#2E2A25" d="M281,276.3c0-5.7,0-12.7-5.9-17.6c-1.2-1-2.7-1.9-4.5-2.6c2.8-1.8,4.6-4.4,5.7-7.6c1-2.9,0.9-6.4,0.9-7.8
			l0-16.2c-0.2-4.5-0.6-9.6-4.3-13.7c-3.2-3.5-8-5.4-14.2-5.4l-21.9,0.1c-0.6,0-1.3,0.3-1.8,0.7c-0.5,0.5-0.7,1.1-0.7,1.7l0.2,106.3
			c0,0.9,0.4,1.7,1.2,2.1c0.4,0.2,0.9,0.4,1.4,0.4l22.3-0.1c2.4,0,9.6,0,15.7-5.2c5.4-4.9,5.9-10.6,6.1-17.1L281,276.3z
			 M265.5,303.3c-1.6,1.1-3.5,1.8-8.4,2c0,0-8.4,0-9.1,0c-0.8,0-1.1-0.4-1.1-1.2c0-6.2-0.1-40.4-0.1-40.6c0-0.3,0.1-0.8,0.7-0.8
			c0.6,0,4.2,0,4.2,0c4.5,0.2,9.1,0.5,12.2,2.5c1.7,1,2.9,2.5,3.7,4.5c0.7,2.1,0.8,4.3,0.8,6.4l0,15.1
			C268.6,298,268.1,301.3,265.5,303.3 M258.1,250.4c-1.8,0.5-2.7,0.7-6.6,0.8h-3.9c-0.7,0-0.8-0.3-0.8-0.8l-0.1-32.7
			c0-0.5,0.2-0.8,0.7-0.9h6h0.5c2.9,0.1,6.1,0.2,8.2,1.5c1,0.6,1.5,1.3,1.9,2.2c0.3,1,0.6,2.7,0.7,5.5l0,12.7l0,1
			C264.7,242.9,264.6,248.5,258.1,250.4"/>
	</g>
</g>
</svg>
