<?xml version="1.0" encoding="utf-8"?>
<!-- Generator: Adobe Illustrator 18.0.0, SVG Export Plug-In . SVG Version: 6.00 Build 0)  -->
<!DOCTYPE svg PUBLIC "-//W3C//DTD SVG 1.1//EN" "http://www.w3.org/Graphics/SVG/1.1/DTD/svg11.dtd">
<svg version="1.1" xmlns="http://www.w3.org/2000/svg" xmlns:xlink="http://www.w3.org/1999/xlink" x="0px" y="0px" width="512px"
	 height="512px" viewBox="0 0 512 512" enable-background="new 0 0 512 512" xml:space="preserve">
<g id="white_block">
	<rect opacity="0" fill="#FFFFFF" width="512" height="512"/>
</g>
<g id="Logos">
	<g>
		<path fill="#FFFFFF" d="M431.1,206.8c-1.5-25.9-13-49.1-20-62.9l-0.8-1.7l-3-6l0.6,6.7c0.8,9.3,2.9,40.9-6.5,58.9
			c-11.7,24.3-46.1,22-57.4,21.2l-0.9-0.1c-18.6-1.2-79-3.3-97.5-3.3c-24.5,0.1-51.5,2.1-73.2,3.7c-10.6,0.8-19.8,1.5-26,1.7
			c-0.5,0-1.2,0.1-2.2,0.2C113.7,228,94.5,219,87,198.5c-4.6-12.6-4.5-37.5-4.4-49.5l0-3.6v-5l-2.4,4.4
			c-5.7,10.6-16.4,30.3-19.9,62.9c-2,38.5,18,52.3,33.2,59.3c15.9,7.4,32.1,8.4,37.5,8.7l0.4,0h-0.2c1.1,0.2,2.4,0.3,3.7,0.3
			c1.6,0.1,3.4,0.2,5.2,0.5c-2.9,0.6-6.7,1.2-10,1.8c-3.5,0.6-6.9,1.2-8.6,1.6c-3.6,0.8-18.9,4.3-27.2,7.1c-7,2.4-14.6,6-14.7,6
			l-1.4,0.6l0.9,1.2c0.1,0.2,2.6,3.7,5.3,6.3c5.4,5.3,20.4,14.8,38.5,12.5c14.5-1.8,22.3-5.2,25.2-6.8c0.9,3.1,3.2,10.3,5.4,16
			c6.5,16.2,21.4,47.1,27,57.9c4.5,8.7,9,16.4,12,21.5l1.1,1.8c-1,3.3-3.3,5.4-5,6.9l-1.2,1.1l-0.3,0.3l0,0.5
			c-0.1,3-0.8,29.9,17.4,49.6l0.2,0.2l0.3,0.1c9.1,3.5,21,7,40.2,7c19.5,0,36-4.6,41.7-7.5l0.3-0.1l0.1-0.2
			c12.8-15.1,18.5-37.8,18.7-46l0-0.5l-0.4-0.4l-1-0.9c-2-1.9-4.4-4.3-5.8-9.9c1.5-2.7,4.6-9,7.1-14.2c1.4-2.9,2.6-5.4,3.3-6.7
			c5.4-10.5,21.1-44.3,27.4-60.2c4-10.1,6.2-15.2,7.1-17.3c2.7,1.5,10.2,4.8,24.3,6.3c18.3,1.9,35.7-10.4,40.5-17
			c0.8-1.1,2.2-2.7,2.2-2.7l1.1-1.3l-1.5-0.7c-0.1,0-0.7-0.3-3.4-1.2l-10.1-3.4l-10.1-3.4c-2.7-0.9-15-3.6-24.1-5.5l-6.8-1.5
			l2.2-0.4C378.8,271.5,434.2,261.6,431.1,206.8"/>
		<path fill="none" stroke="#FFFFFF" stroke-width="0.427" stroke-miterlimit="40" d="M431.1,206.8c-1.5-25.9-13-49.1-20-62.9
			l-0.8-1.7l-3-6l0.6,6.7c0.8,9.3,2.9,40.9-6.5,58.9c-11.7,24.3-46.1,22-57.4,21.2l-0.9-0.1c-18.6-1.2-79-3.3-97.5-3.3
			c-24.5,0.1-51.5,2.1-73.2,3.7c-10.6,0.8-19.8,1.5-26,1.7c-0.5,0-1.2,0.1-2.2,0.2C113.7,228,94.5,219,87,198.5
			c-4.6-12.6-4.5-37.5-4.4-49.5l0-3.6v-5l-2.4,4.4c-5.7,10.6-16.4,30.3-19.9,62.9c-2,38.5,18,52.3,33.2,59.3
			c15.9,7.4,32.1,8.4,37.5,8.7l0.4,0h-0.2c1.1,0.2,2.4,0.3,3.7,0.3c1.6,0.1,3.4,0.2,5.2,0.5c-2.9,0.6-6.7,1.2-10,1.8
			c-3.5,0.6-6.9,1.2-8.6,1.6c-3.6,0.8-18.9,4.3-27.2,7.1c-7,2.4-14.6,6-14.7,6l-1.4,0.6l0.9,1.2c0.1,0.2,2.6,3.7,5.3,6.3
			c5.4,5.3,20.4,14.8,38.5,12.5c14.5-1.8,22.3-5.2,25.2-6.8c0.9,3.1,3.2,10.3,5.4,16c6.5,16.2,21.4,47.1,27,57.9
			c4.5,8.7,9,16.4,12,21.5l1.1,1.8c-1,3.3-3.3,5.4-5,6.9l-1.2,1.1l-0.3,0.3l0,0.5c-0.1,3-0.8,29.9,17.4,49.6l0.2,0.2l0.3,0.1
			c9.1,3.5,21,7,40.2,7c19.5,0,36-4.6,41.7-7.5l0.3-0.1l0.1-0.2c12.8-15.1,18.5-37.8,18.7-46l0-0.5l-0.4-0.4l-1-0.9
			c-2-1.9-4.4-4.3-5.8-9.9c1.5-2.7,4.6-9,7.1-14.2c1.4-2.9,2.6-5.4,3.3-6.7c5.4-10.5,21.1-44.3,27.4-60.2c4-10.1,6.2-15.2,7.1-17.3
			c2.7,1.5,10.2,4.8,24.3,6.3c18.3,1.9,35.7-10.4,40.5-17c0.8-1.1,2.2-2.7,2.2-2.7l1.1-1.3l-1.5-0.7c-0.1,0-0.7-0.3-3.4-1.2
			l-10.1-3.4l-10.1-3.4c-2.7-0.9-15-3.6-24.1-5.5l-6.8-1.5l2.2-0.4C378.8,271.5,434.2,261.6,431.1,206.8z"/>
		<path d="M431.1,206.8c-1.5-25.9-13-49.1-20-62.9l-0.8-1.7l-3-6l0.6,6.7c0.8,9.3,2.9,40.9-6.5,58.9c-11.7,24.3-46.1,22-57.4,21.2
			l-0.9-0.1c-18.6-1.2-79-3.3-97.5-3.3c-24.5,0.1-51.5,2.1-73.2,3.7c-10.6,0.8-19.8,1.5-26,1.7c-0.5,0-1.2,0.1-2.2,0.2
			C113.7,228,94.5,219,87,198.5c-4.6-12.6-4.5-37.5-4.4-49.5l0-3.6v-5l-2.4,4.4c-5.7,10.6-16.4,30.3-19.9,62.9
			c-2,38.5,18,52.3,33.2,59.3c15.9,7.4,32.1,8.4,37.5,8.7l0.4,0h-0.2c1.1,0.2,2.4,0.3,3.7,0.3c1.6,0.1,3.4,0.2,5.2,0.5
			c-2.9,0.6-6.7,1.2-10,1.8c-3.5,0.6-6.9,1.2-8.6,1.6c-3.6,0.8-18.9,4.3-27.2,7.1c-7,2.4-14.6,6-14.7,6l-1.4,0.6l0.9,1.2
			c0.1,0.2,2.6,3.7,5.3,6.3c5.4,5.3,20.4,14.8,38.5,12.5c14.5-1.8,22.3-5.2,25.2-6.8c0.9,3.1,3.2,10.3,5.4,16
			c6.5,16.2,21.4,47.1,27,57.9c4.5,8.7,9,16.4,12,21.5l1.1,1.8c-1,3.3-3.3,5.4-5,6.9l-1.2,1.1l-0.3,0.3l0,0.5
			c-0.1,3-0.8,29.9,17.4,49.6l0.2,0.2l0.3,0.1c9.1,3.5,21,7,40.2,7c19.5,0,36-4.6,41.7-7.5l0.3-0.1l0.1-0.2
			c12.8-15.1,18.5-37.8,18.7-46l0-0.5l-0.4-0.4l-1-0.9c-2-1.9-4.4-4.3-5.8-9.9c1.5-2.7,4.6-9,7.1-14.2c1.4-2.9,2.6-5.4,3.3-6.7
			c5.4-10.5,21.1-44.3,27.4-60.2c4-10.1,6.2-15.2,7.1-17.3c2.7,1.5,10.2,4.8,24.3,6.3c18.3,1.9,35.7-10.4,40.5-17
			c0.8-1.1,2.2-2.7,2.2-2.7l1.1-1.3l-1.5-0.7c-0.1,0-0.7-0.3-3.4-1.2l-10.1-3.4l-10.1-3.4c-2.7-0.9-15-3.6-24.1-5.5l-6.8-1.5
			l2.2-0.4C378.8,271.5,434.2,261.6,431.1,206.8"/>
		<path fill="#CE1141" d="M80.3,151.3c-0.6,14.3-0.5,30,2.8,43.5c-3.1-2.7-6.2-5.9-9.4-8.7c-2.8,3.2-5.6,6.6-8.4,9.6
			c3-15.7,8-30.4,14.9-44.5"/>
		<path fill="#CE1141" d="M425.4,189.3l1,3.9l-7.5-5.4c-3.3,1.4-6.5,3.6-9.7,5.2c2.3-13.7,2.9-28,2-42.5
			C417.8,162.5,421.4,176,425.4,189.3"/>
		<path fill="#CE1141" d="M245.8,324.7c7.9,12,22.1,15.4,35.2,12c4.9-1,9.6-3,14.1-5c-4.2,12.5-7,26.5-6.7,40.6
			c-0.1,12.4,2.1,24.3,5.9,35.4c-1.8-0.6-3.8-2-5.9-2.9c-26.2-13.3-63.1-12.8-89,1c1.1-4.2,2.6-8.7,3.4-13c4-19.9,1.1-40.8-5.8-58.9
			c14.1,5.8,34.4,7.1,45.6-5.8C244,327,244.7,325.7,245.8,324.7"/>
		<path fill="#CE1141" d="M187.3,334.6c-0.6,5.6-2.6,12-8.4,14.1c-5,1.3-9.3-1.3-12.5-4.8c-1.4-1.8-2.5-3.6-2.9-5.8
			c7.4,4.8,17.2,0.9,23.7-3.6"/>
		<path fill="#CE1141" d="M328.3,335.2c-1.7,5.1-6.1,10.2-11.3,11.4c-4,0.5-7.6-1.4-9.9-4.8c-1.3-1.9-1.9-3.9-2.4-6.2
			C311.4,340.8,321.7,339.5,328.3,335.2"/>
		<path fill="#CE1141" d="M313.7,349.7c2.8,0.6,5.6-0.1,8.3-1c-7.5,18.6-16.4,36.5-25.7,54.4c-3.2-8.8-2.4-18.7-1.8-28.4
			c1.3-12,4.2-23.5,7.8-34.5C304.6,344.5,308.8,349,313.7,349.7"/>
		<path fill="#CE1141" d="M196.8,403l-0.1,0.2c-11.2-17.1-19.7-35.2-27.9-53.5c3.8,2,9.7,3.3,13.6,0.6c3.7-2.6,5.8-6.6,7.3-10.6
			C198.7,358.1,200.9,382.2,196.8,403"/>
		<path fill="#CE1141" d="M302.2,417.6c-1.9,16-7.7,30.3-17.7,42.6c-23.3,9.1-54.8,10.1-78.1,0.1c-11.4-12.4-15.7-28.5-16.3-45.5
			c24.8-18,63.4-22,91.7-9C289,409,295.9,412.5,302.2,417.6"/>
		<path fill="#CE1141" d="M398.2,289c-19.4-7.3-44.4-11.8-65.6-12.2c-2-23.7-4.7-38.4-9.4-51.8c-10.9-0.6-59.3-2.6-77.9-2.6
			s-66.2,3-77.1,3.6c-4.4,12.7-9.4,28.5-11.7,52c-21.3,1.2-50.3,7.4-69.7,14.7c-3,1.1-4.2,2.1-4.2,2c3,3.3,13.8,16.3,33.9,16.8
			c6.4,0.2,18.4-1.1,26.3-4.6c2.1-0.9,6.5-2.8,6.5-2.8s1.4,2.7,2.1,4.5c2.2,6.1,4.8,14.7,6.6,18.5c2.8,5.6,7.3,10,14.6,10.2
			c6.7,0.1,11.4-5.3,12.2-6.4c-18.8-0.9-26.7-11-27.9-26.1c-4.4-0.8-5.7-1.2-6.3-3.7c-0.5-2.3,0.2-4.9,2-7.9
			c2.1-2.8,5.7-5.6,14.6-2.8c5.9,1.9,10.6,5.7,13.8,8.5c3.9,3.4,15.2,15.2,22,19.3c7.2,4.3,21.1,8.1,30.1-0.7
			c8.7-8.5,9.7-15.7,10.8-20.3c-15.1-0.4-29.3-1.9-42.4-3.7c-3.8-0.5-2.2-4.1,0.9-3.3c0,0,24.7,3.3,42,3.3c0.1-2,0.2-5.5,0.3-9.5
			c-10.3-0.2-27.6-1.3-43.9-4.6c-3.3-0.7-2.7-4.5,0.4-3.6c2.4,0.6,29.2,4.4,43.6,4.4c0.1-3.1,0.1-7.5,0.1-11.7
			c-9.4,0.1-23.2-0.8-43.2-3.9c-3.5-0.5-2.9-3.7,0.1-3.4c0,0,24.7,3.7,43.1,3.5c0-2.9,0-6.2,0-9.5c0-3.7,3.2-3.8,3.2-0.3
			c0,1.3,0.1,5,0.1,9.6c17.7-0.5,33.3-2.6,40.6-3.9c4.3-0.8,3.8,2.7,1.8,3c-2.4,0.4-23,4.4-42.6,4.9c0,3.4,0.1,7.9,0.2,11.6
			c13.2-0.5,28.4-0.9,41.4-3.8c4.9-1.1,5.4,2.6,1.1,3.3c-12.8,2.1-31.3,4.4-42.4,4.4c0,3.2,0.1,7.1,0.3,9.6
			c20.9-0.5,40.8-3.5,44.2-4c3.4-0.6,4.2,3,0.5,3.5c-3.7,0.5-28.3,3.7-44.1,4.1c1.6,5.4,1.9,13.1,9.5,19.6
			c7.4,6.4,19.9,5.8,28.7,0.7c6.8-4,17.8-15.9,21.7-19.3c3.3-2.9,10.9-9.9,21-9.7c10.2,0.2,10.3,5.4,10.9,7c0.6,1.6,0.9,4.5-1.4,5.8
			c-1.8,1.1-3.5,0.8-5.2,1.6c-1.3,8.2-3.9,17.6-10.4,22.6c-7.1,5.4-18.1,6-18.1,6l2,2.1c1.2,1.1,5,2.9,9.8,2.5
			c4.5-0.4,9.9-3.9,12.1-6.1c3.4-4.4,6.6-13.7,8.9-19.7c0.9-2.3,2.9-6.3,3.6-8.1c2.1,1,3.1,1.6,6.9,3.1c7.9,3.2,18.2,4.5,24.6,4.3
			c10.4-0.3,22.3-6.6,29.4-13.2c1.2-1.1,3.6-4,3.6-4S400,289.7,398.2,289"/>
		<path d="M285.6,420.1c1.8,3.6,0.4,7.8-1.7,10.8c-4,4.9-10.1,7-16.3,5.4c-3.5-1.2-6.9-3.4-9-6.8c-1,3,1.2,5.2,1.1,8.1
			c-0.4,0.6-1.3,0.7-1.7,0.2c-3.4-4.4-4.8-11.3-1.8-16.3c3.6-6.8,10.8-9.6,18.1-8.8C278.8,413.3,283.3,415.8,285.6,420.1"/>
		<path d="M233.9,422.4c2.9,4.9,1.6,11.6-1.2,16c-0.4,0.7-1.1,1.4-2,0.8c-1.3-1.6,0.6-2.9,0.7-4.5c0.1-1.1,0.6-2.6,0.2-3.7
			c-4,5.5-9.9,8.2-16.6,7c-4.7-0.9-9-4.5-10.7-9.2c-1-2.9-0.5-6.4,1.3-8.8c4.4-5.9,12.4-7.3,19.2-5.1
			C228.5,416.2,232.1,418.9,233.9,422.4"/>
		<path d="M285.1,454.9c-0.6,1-0.9,1.1-1.6,2.1c-2.4-0.7-4.9-1.5-7.3-2.6c-21.4-8.2-48.6-5.9-68.9,2.6c-0.6-0.6-1-1-1.2-1.9
			C229.6,444.5,261.6,443.2,285.1,454.9"/>
		<path d="M288.9,341.3c-3.6,16.8-14.3,36.2-32,41.2c-14.1,3.7-30,0.9-39.6-11c-7-8.6-10.3-18.5-11.4-29.6c0.7-0.6,1.4-0.6,2.2-0.6
			c1.5,16,9.8,33.7,25.8,38.6c13.8,4.4,30.3,0.4,40.2-11.8c6.3-8.2,10.5-18,12.6-27.9C287.6,340.6,288.3,340.6,288.9,341.3"/>
		<path d="M78.7,46.3c-3.1-2.6-7.6-4.5-12.1-4.3c-4.9,0.2-23.1,6.3-23.1,33.4c0,27.1,16.4,35.8,26.3,35.8c9.9,0,19.9-7.5,23.1-20.7
			c0.5-1.9,0.2-2.1-1.7-3L84.7,85c-1.5-0.5-1.6-0.5-2.5,2.1c-0.6,1.8-3.5,9.6-10.1,9.6c-6.6,0-9.4-9.8-9.4-19.9
			c0-10.1,1.7-19.7,9.9-19.7c8.2,0,9.8,8.7,10.4,11.9c0.2,1.4,0.4,1.4,2,1.4h6c1.2,0,1.3-0.1,1.3-2.9v-22c0-1.4-0.3-1.4-2.7-1.4
			h-5.4c-1.1,0-1,0.2-1.9,1.8C81.8,46.7,80.6,47.9,78.7,46.3"/>
		<path d="M322.6,57.3l12.4,39.1c0.6,1.8,0.7,1.8,1.6,1.8h1.9c2,0,2,0.2,2,1.8v7.4c0,2.5-0.1,2.5-1.4,2.5h-24.5c-2,0-2.1,0-2.1-1.6
			v-7.7c-0.1-2.3,0.2-2.4,1.7-2.4h2.4c1.3,0,1.3-0.2,0.8-1.8l-1.9-5.8c-0.5-1.2-0.9-1.2-2.3-1.2h-14.9l3.2-8.9h9
			c1.7,0,1.8-0.2,1.3-1.4l-5.5-17.2c-0.3-1.1-0.6-1-1-0.2L299.9,79c-0.4,1.4-0.3,1.4,1.7,1.4l-3.2,8.9c-1.7,0-1.8,0.1-2.2,1.3
			l-1.9,5.8c-0.5,1.8-0.5,1.8,0.6,1.8h2.6c1.7,0,1.7,0.3,1.7,2.4v7.7c0,1.4-0.1,1.6-2.1,1.6h-17c-1.4,0-1.4,0-1.4-2.5V100
			c0-1.6,0.1-1.8,2-1.8h1.6c1.1,0,1.5-0.6,1.8-1.3l12.7-39.6c0.4-1,0.4-1.4-1.6-1.4H293c-1.9,0-2-0.1-2-1.8v-7.8
			c0-2.3,0.2-2.3,2.9-2.3h32.7c1.9,0,2,0.3,2,2.4v7.4c0,1.8-0.1,1.8-2.5,1.8h-2.6C322.2,55.6,322.3,56,322.6,57.3"/>
		<path d="M381.8,86.8h4.2c2,0,2,0.3,2,1.5c0,3.7-2.9,8.5-9.9,8.5c-6.6,0-9.4-9.8-9.4-19.9c0-10.1,1.7-19.7,9.9-19.7
			c6.8,0,9.7,4.9,10.4,8c0.3,1.4,0.3,1.5,2,1.5h6c1.2,0,1.2-0.1,1.2-2.9V45.5c0-1.4-0.1-1.4-2.6-1.4h-5.4c-1.1,0-1.3,0.2-1.9,1.8
			c-0.3,0.9-1.7,2.1-3.6,0.5c-3.1-2.6-7.5-4.5-12.1-4.3c-4.8,0.2-23.1,6.3-23.1,33.4c0,27.1,16.3,35.8,26.2,35.8
			c15,0,26.6-11.1,26.6-32.7c0-2.1-0.2-2.3-3.1-2.3h-17.8c-1.7,0-1.9,0.1-1.9,2.1v7.1C379.6,86.8,379.7,86.8,381.8,86.8"/>
		<path d="M439.2,43.8C423.1,43.8,410,59,410,77.7c0,18.7,13.1,33.9,29.2,33.9c16.2,0,29.3-15.2,29.3-33.9
			C468.5,59,455.4,43.8,439.2,43.8L439.1,56c6,0,10.9,9.7,10.9,21.7c0,12-4.9,21.7-10.9,21.7c-6,0-10.9-9.7-10.9-21.7
			c0-12,4.8-21.7,10.9-21.7"/>
		<path d="M111.2,96.7V57.5c0-1.4-0.1-1.6-1.6-1.6h-1.9c-2,0-2-0.2-2-1.5v-8.7c0-1.5,0.1-1.7,2.5-1.7h23c1.7,0,2.1,0.1,2.1,1.9v7.9
			c0,1.8-0.3,1.8-2.1,1.8h-1.2c-1,0-1.2,0-1.1,1.5v11.2c0,2.8,0,3,2.3,3h12.3c2.3,0,2.3-0.1,2.3-3V57.2c0-1.5,0-1.5-1-1.5h-1.2
			c-2,0-2.1-0.2-2.1-1.8V46c0-1.7,0.3-1.9,2.1-1.9h23c2.4,0,2.4,0.1,2.4,1.7v8.7c0,1.3-0.1,1.5-2,1.5h-2c-1.4,0-1.5,0.1-1.5,1.6
			v39.2c0,1.4,0.1,1.5,1.8,1.5h2c1.7,0,1.7,0.1,1.7,2.4v7.7c0,1.4,0,1.6-2,1.6h-24.3c-1.6,0-1.7,0-1.7-2.5V100c-0.1-1.7,0-1.8,2-1.8
			h1.3c1.4,0,1.4-0.1,1.4-1.7v-12c0-3-0.2-3-2.2-3h-12.3c-2.1,0-2.2,0.2-2.2,3v12c0,1.7,0,1.7,1.4,1.7h1.3c2.1,0,2.1,0.1,2.1,1.8
			v7.4c0,2.5,0,2.5-1.7,2.5h-24.3c-2,0-2,0-2-1.6v-7.7c0-2.3,0.1-2.4,1.6-2.4h2.1C111.2,98.2,111.2,98.2,111.2,96.7"/>
		<path d="M186.2,57.2c0-1.5-0.1-1.5-1.1-1.5h-2.3c-2,0-2.1-0.2-2.1-1.8v-7.9c0-1.7,0.3-1.9,2.1-1.9h23c2.4,0,2.4,0.1,2.4,1.7v8.7
			c0,1.3-0.1,1.5-2,1.5h-1.1c-1.4,0-1.5,0.1-1.5,1.6v39.2c0,1.4,0.1,1.5,1.8,1.5h1.6c1.7,0,1.7,0.1,1.7,2.4v7.7c0,1.4,0,1.6-2,1.6
			h-24.3c-1.6,0-1.7,0-1.7-2.5V100c-0.1-1.7,0-1.8,2.1-1.8h1.9c1.4,0,1.6,0,1.6-1.6"/>
		<path d="M252.9,46.3c-3.1-2.6-7.6-4.5-12.1-4.3c-4.9,0.2-23.1,6.3-23.1,33.4c0,27.1,16.4,35.8,26.3,35.8c9.9,0,19.9-7.5,23.1-20.7
			c0.5-1.9,0.1-2.1-1.7-3l-6.5-2.4c-1.5-0.5-1.6-0.5-2.5,2.1c-0.6,1.8-3.4,9.6-10,9.6c-6.6,0-9.4-9.8-9.4-19.9
			c0-10.1,1.7-19.7,9.9-19.7c8.2,0,9.8,8.7,10.4,11.9c0.2,1.4,0.4,1.4,2,1.4h5.9c1.2,0,1.3-0.1,1.3-2.9v-22c0-1.4-0.3-1.4-2.7-1.4
			h-5.4c-1.1,0-1,0.2-1.9,1.8C256,46.7,254.8,47.9,252.9,46.3"/>
		<path d="M107.5,141.1v38.7c0,1.4-0.3,1.5-1.7,1.5h-2.1c-1.6,0-1.8,0.3-1.7,2.1v8c0,1.5,0.3,1.6,2.1,1.6h35.8l-12.1-12.4
			c-2.5,0-2.7,0-2.7-2.6v-11.2c0-2.2,0.2-2.3,2.7-2.3v-10.1c-2.7,0-2.7-0.2-2.7-2.3v-11.3c0-2.3,0.1-2.4,2.4-2.4
			c2.3,0,11.8,0.3,11.8,8.3c0,8-8.6,7.7-11.5,7.7v10.1c2.4,0,11.5,0.3,11.5,8.3c0,8.1-8.6,7.7-11.5,7.7l12.1,12.4
			c9,0,15.6-8,15.6-17.2c0-9.2-5.8-12.9-10.6-16.2c3.3-2.7,9.3-6.4,9.3-15.8c0-10.1-10.2-16.7-16.4-16.7h-33c-2.7,0-2.8,0.2-2.8,2.1
			v8.4c0,1.3,0.1,1.4,2.1,1.4h2.2C107.5,139,107.5,139.3,107.5,141.1"/>
		<path d="M216.6,140.5v33.6c0,8.5-4.4,21-21.4,21c-16.9,0-25.1-12.5-25.1-21v-33.5c0-1.5-0.2-1.5-1.5-1.5h-2c-2,0-2-0.1-2-1.8v-7.6
			c0-2.5,0.3-2.5,2.6-2.5H190c1.7,0,2,0.1,2,2.2v7.6c0,1.7-0.1,1.8-2.5,1.8h-1.8c-1.1,0-1.2,0.2-1.2,1.5v32.5c0,3.7,2.8,9.6,9.9,9.6
			c8.2,0,9.9-6.3,9.9-9.6v-32.4c0-1.7-0.2-1.7-1.7-1.7h-1.6c-1.9,0-2.2-0.1-2.2-1.8v-7.6c0-1.9,0-2.2,2-2.2h17c2.8,0,2.8,0,2.8,2.3
			v7.9c0,1.7,0,1.8-2.1,1.8h-2.6C216.7,139,216.6,139,216.6,140.5"/>
		<path d="M296.3,181.3h-2.3c-1.6,0-1.8,0.3-1.8,2.4v7.7c0,1.6,0.2,1.6,2,1.6h42.2c1.9,0,2,0,2-2.5v-19c0-1.7-0.1-1.8-2-1.8h-6.2
			c-1.9,0-1.9,0.1-1.9,2.4v6.6c0,2.6-0.2,2.7-1.9,2.7h-9.4c-2.8,0-2.9-0.3-2.9-2v-38c0-2.5,0-2.7,1.6-2.7h2.2c1.8,0,1.9-0.2,1.9-1.8
			v-7.4c0-2.4,0-2.4-2.1-2.4h-22.6c-2.8,0-2.9,0.2-2.9,2.3v7.9c0,1.6,0.2,1.8,2,1.8h1.8c1.6,0,1.7,0.1,1.7,2.4v38.1
			C297.8,181.1,297.7,181.3,296.3,181.3"/>
		<path d="M394,174.7c0,14-13.1,19.9-18.7,19.9c-4.2,0-9-1.7-12.1-4.3c-1.9-1.6-3.7,0.2-4.2,1.1c-0.9,1.6-1,1.8-1.9,1.8h-2.8
			c-2.7,0-2.7,0-2.7-1.4v-18.2c0-2.9,0.1-2.9,1.3-2.9h4.1c1.6,0,1.6,0.1,2,1.5c1.1,3.6,5.1,9,11.9,9c3.1,0,5.9-0.8,5.9-3.7
			c0-6.1-3.6-7.5-10-10.9c-6.5-3.4-16.2-7.3-16.2-21.2c0-14,12.7-19.7,18.4-19.7c4.2,0,8.6,1.7,11.7,4.3c1.9,1.6,3.7-0.2,4.2-1.1
			c1-1.7,1-1.7,1.9-1.7h2.8c2.6,0,2.7,0,2.7,1.4v18.2c0,2.8,0,2.9-1.3,2.9h-4.1c-1.6,0-1.6-0.2-2-1.4c-1.1-3.7-5.8-9-12.6-9
			c-2.9,0-4.4,1.8-4.4,4.4c0,3.8,4.3,7.2,11.7,10.7C386.8,157.6,394,163.1,394,174.7"/>
		<path d="M237.8,181.3h-2.2c-1.6,0-1.8,0.3-1.8,2.4v7.7c0,1.6,0.2,1.6,2,1.6h42.1c1.9,0,2.1,0,2.1-2.5v-19c0-1.7-0.1-1.8-2.1-1.8
			h-6.1c-1.9,0-2,0.1-2,2.4v6.6c0,2.6-0.3,2.7-2,2.7h-9.4c-2.8,0-2.9-0.3-2.9-2v-38c0-2.5,0-2.7,1.5-2.7h2.3c1.8,0,1.9-0.2,1.9-1.8
			v-7.4c0-2.4,0-2.4-2-2.4h-22.6c-2.8,0-2.9,0.2-2.9,2.3v7.9c0,1.6,0.2,1.8,2,1.8h1.8c1.6,0,1.7,0.1,1.7,2.4v38.1
			C239.3,181.1,239.2,181.3,237.8,181.3"/>
		<path fill="#FFFFFF" d="M86.8,205.8c9.2,17.8,27.8,23.5,46.7,22.6c10.6-0.1,20.8-1.2,31.2-1.9v0.7c-5.3,15-8.8,30.2-11,45.9
			c-27.4,1-55.4-1.2-75.6-19.4c-13.7-14-17.2-33.1-14.2-51.9c3.3-3.9,6.6-7.1,10-11C78.4,195.5,85.6,199.3,86.8,205.8"/>
		<path fill="#FFFFFF" d="M427.2,197.8c0.7,2.8,0.8,5.3,1.1,8.3c1.3,21-7.8,40.5-25.8,51.2c-19.7,11.9-42.4,15.9-66.5,16.5
			c-0.5-2.1-0.7-4.9-1-7.3c-1.9-13.9-4.5-27.9-8.4-41.2c25.8-0.3,57.2,6.5,74.2-17.2c2.3-3.3,4.5-6.3,6.6-9.9
			c3.8-1.7,7.5-4.2,11.2-6.2C421.7,193.6,424.1,196,427.2,197.8"/>
		<path fill="#FFFFFF" d="M329.1,304.4c0.1,8.1-2.5,16.4-9.8,20.3c-3.3,1.9-7.3,2.6-11.1,2.4c-0.1-0.7-0.4-1.6-0.1-2.5
			c5.9,0.2,11.6-2,14.7-6.9c2.1-3.6,3-7.6,3-12.1C326.8,305.1,327.9,304.7,329.1,304.4"/>
		<path fill="#FFFFFF" d="M183.3,326.3c-1.1,0.2-1.6,0.5-3.6,0c-9.5,0-19.5-7.6-18.9-20.5c1.1-0.4,2.4-0.3,3.6,0.1
			c0,7.3,2.9,17.3,18.5,17.3C184,325,183,325.1,183.3,326.3"/>
	</g>
</g>
</svg>
