<?xml version="1.0" encoding="utf-8"?>
<!-- Generator: Adobe Illustrator 18.0.0, SVG Export Plug-In . SVG Version: 6.00 Build 0)  -->
<!DOCTYPE svg PUBLIC "-//W3C//DTD SVG 1.1//EN" "http://www.w3.org/Graphics/SVG/1.1/DTD/svg11.dtd">
<svg version="1.1" xmlns="http://www.w3.org/2000/svg" xmlns:xlink="http://www.w3.org/1999/xlink" x="0px" y="0px" width="512px"
	 height="512px" viewBox="0 0 512 512" enable-background="new 0 0 512 512" xml:space="preserve">
<g id="white_block">
	<rect opacity="0" fill="#FFFFFF" width="512" height="512"/>
</g>
<g id="Logos">
	<g>
		<path fill="#211646" d="M137.1,244.7h-32.9v35.7L84.5,290l19.8,10.3V332l21.8,13.4c8-1.1,18.3-2.3,30.2-3.5l84.4,48.6l15.4,70.7
			c0.1-0.2,15.5-70.7,15.5-70.7l84.2-48.6c11.9,1.2,22.1,2.4,30.2,3.5l21.8-13.4v-31.7l19.8-10.1l-19.8-9.9v-35.7h-32.8
			c0,0,5.1-4.9,11.5-16c2.7-4.6,5.2-10.4,8.4-17.3c23.9-7.3,41.6-22.6,49.2-37.5c20.5-37.5,35.9-83.5,35.9-83.5s-8.9,4.3-19.5,9.5
			c8.7-26.5,13.9-48.9,13.9-48.9S379.6,113.7,306,172.5l-6.4-3.8c0-0.6,0.2-6,0.2-6.4c0,0,0.7-6.2-10.3-10c-0.7-0.2-1.3-0.4-2-0.7
			c5.3-4,13.6-10.1,19.7-14.3c9.6-6.6,8.5-13.9,8.5-13.9l-35,26c-27-8.8-49.5,0-49.5,0l-34.9-26c0,0-1.1,7.3,8.5,13.9
			c6.1,4.1,14.3,10.3,19.7,14.3c-0.6,0.2-1.3,0.4-2,0.7c-11,3.7-10.3,10-10.3,10c0,0.4,0.2,5.8,0.2,6.4l-6.4,3.8
			C132.4,113.7,37.8,51.1,37.8,51.1S43,73.5,51.7,100c-11.4-5.7-19.5-9.5-19.5-9.5s15.4,45.9,36,83.5c7.6,14.9,25.2,30.2,49.2,37.5
			c0,0,4.1,9.3,7.5,15.9C129.1,235.6,137.1,244.7,137.1,244.7z"/>
		<g>
			<path fill="#00758D" d="M295.7,191.2c-0.3,1-0.7,2-1,3c33.1-21.6,91-59.4,155.8-101.5c0,0,0.1,1.4,5.8-15.3
				C387.8,118.9,327.1,165.7,295.7,191.2z"/>
			<path fill="#00758D" d="M216.3,191.2c-31.4-25.5-92.1-72.4-160.6-113.7c5.7,16.7,5.8,15.3,5.8,15.3
				c64.8,42.1,122.7,79.9,155.8,101.5C217,193.2,216.7,192.2,216.3,191.2z"/>
			<path fill="#00758D" d="M256,224.7c-5.7-2.2-19.9-9.3-28.5-27.9c7,6,16,8,23.2,1c-8.8-3.8-9.9-19.4-11.6-23.5
				c-3.4-8.3-8.9-12.5-13.2-14.3c2.1-0.7,4.1-1.4,6-1.9c4.1,2.2,11,7.4,13.1,17.5c0,0,0.9-11.6-4.9-19.8c11.2-2.7,22.5-2.3,31.7,0
				c-5.8,8.2-4.9,19.8-4.9,19.8c2.2-10.2,9-15.3,13.1-17.5c1.9,0.6,3.8,1.2,6,1.9c-4.3,1.8-9.7,6-13.1,14.3
				c-1.7,4.1-2.8,19.8-11.5,23.5C263.4,209.7,260.9,220.8,256,224.7z M156.2,246.5c0,0-16.3-11.6-25.4-32.9l6.5,1.9
				c21.2,5.6,61.7,11.2,61.7,11.2c-19.5,0.4-36,2-45.4,3c-2-2.4-4.2-5.5-5.1-7.8c0,0,0.7,7.4,2.4,12.1l0,0
				C153,240.8,156.2,246.5,156.2,246.5z"/>
			<path fill="#00758D" d="M361.1,234L361.1,234c1.7-4.6,2.4-12.1,2.4-12.1c-0.9,2.3-3.1,5.4-5.1,7.8c-9.4-1-25.9-2.6-45.4-3
				c0,0,40.5-5.6,61.7-11.2l6.5-1.9c-9.2,21.3-25.4,32.9-25.4,32.9C355.8,246.5,359,240.8,361.1,234z"/>
			<path fill="#00758D" d="M205.5,347.1l-41.3-23.8c-3,0.3-5.9,0.6-8.7,0.9l57.3,33.1C210.1,354.1,207.6,350.7,205.5,347.1z"/>
			<path fill="#00758D" d="M306.5,347.1l41.3-23.8c3,0.3,5.9,0.6,8.7,0.9l-57.3,33.1C301.9,354.1,304.4,350.7,306.5,347.1z"/>
			<g>
				<path fill="#00758D" d="M237.6,352.7c-18.2-4-25.8-12.9-25.8-12.9c3.7,7.6,9.4,14.1,16.3,18.9
					C228.2,358.6,235.8,356.4,237.6,352.7z"/>
				<path fill="#00758D" d="M226.5,333.2c-1.3-1.3-2.6-2.6-3.9-3.9c-5.8,2-9.1,4.3-10.9,5.8c4,3.8,11.7,8.9,25.5,11.8
					C235.6,342.2,231.3,338,226.5,333.2z"/>
				<path fill="#00758D" d="M255.6,376.2c-6,0.1-10.4,2.4-11.8,3c-1.5-2.9-3.3-5.7-4.9-8.3c5.2,0.6,9.8-0.3,9.8-0.3
					c-2.2-0.7-7.8-2.6-15.2-7.5l0,0c0.6-0.3,1.3-0.6,1.9-0.9l0,0c1.9-1,3.9-2.2,5.4-3.8c1.8-1.9,3.1-4.3,3.1-7.2
					c0-9.1-6.1-12.1-12.9-18.9c-1.4-1.4-2.9-2.8-4.4-4.2c6.3-1.7,14.8-3,26.3-3.2l2.8,38.4h0.4l2.8-38.4c11.5,0.2,20,1.5,26.3,3.2
					c-1.5,1.5-3,2.9-4.4,4.2c-6.8,6.8-12.9,9.8-12.9,18.9c0,2.9,1.3,5.3,3.1,7.2c1.5,1.6,3.5,2.9,5.4,3.8l0,0
					c0.7,0.3,1.3,0.6,1.9,0.9l0,0c-7.4,4.9-13,6.8-15.2,7.5c0,0,4.6,1,9.8,0.3c-1.7,2.6-3.4,5.4-4.9,8.3c-1.4-0.5-5.7-2.9-11.8-3
					H255.6z"/>
				<path fill="#00758D" d="M283.8,358.6c6.9-4.8,12.5-11.3,16.3-18.9c0,0-7.5,9-25.8,12.9C276.1,356.4,283.8,358.6,283.8,358.6z"/>
				<path fill="#00758D" d="M274.7,346.9c13.8-2.9,21.5-8,25.5-11.8c-1.7-1.5-5.1-3.8-10.9-5.8c-1.3,1.3-2.6,2.6-3.9,3.9
					C280.7,338,276.4,342.2,274.7,346.9z"/>
			</g>
		</g>
		<g>
			<path fill="#FFFFFF" d="M243.6,198.8c0,0-6.7-4.4-7.8-13.8C235.9,185,227.2,199.5,243.6,198.8z"/>
			<path fill="#FFFFFF" d="M268.8,198.8c0,0,6.7-4.4,7.8-13.8C276.6,185,285.3,199.5,268.8,198.8z"/>
			<path fill="#FFFFFF" d="M263.9,390.2c-1.2-1.2-2.9-2.7-8.3-2.7c-5,0-6.8,1.3-8.2,2.5l8.6,34L263.9,390.2z"/>
			<path fill="#FFFFFF" d="M320.7,241v12.4h-4.2V241h-3.5v-3.6h11.1v3.6H320.7z"/>
			<path fill="#FFFFFF" d="M301.3,241v12.4h-4.2V241h-3.5v-3.6h11.1v3.6H301.3z"/>
			<path fill="#FFFFFF" d="M242.5,247.8h1.5v-8.6l-1.7-1.7h-10.6v16h3.9v-5.7h3l2.3,5.7h3.9L242.5,247.8z M240.1,244.2h-4.5V241h4.5
				V244.2z"/>
			<polygon fill="#FFFFFF" points="344.8,241 344.8,237.5 333.1,237.5 333.1,253.5 344.8,253.5 344.8,249.9 337.2,249.9 
				337.2,247.2 344.8,247.2 344.8,243.6 337.2,243.6 337.2,241 			"/>
			<polygon fill="#FFFFFF" points="258.2,249.9 258.2,237.5 254,237.5 254,253.5 264.1,253.5 264.1,249.9 			"/>
			<path fill="#FFFFFF" d="M282.5,237.5h-10.6v14.2l1.8,1.8h10.6v-14.2L282.5,237.5z M280.3,249.9h-4.5V241h4.5V249.9z"/>
			<path fill="#FFFFFF" d="M222.2,253.5l0-14.2l-1.8-1.8h-10.8v16h4v-5.2h4.5v5.2H222.2z M213.6,244.7V241h4.5v3.6H213.6z"/>
			<polygon fill="#FFFFFF" points="196.9,237.5 196.9,244.7 192.3,244.7 192.3,237.5 188.3,237.5 188.3,253.5 192.3,253.5 
				192.3,248.3 196.9,248.3 196.9,253.5 200.9,253.5 200.9,237.5 			"/>
			<path fill="#FFFFFF" d="M436.8,123.9c7.8-18.3,13.6-31.2,13.6-31.2c-64.8,42.1-122.7,79.9-155.8,101.5c-1.3,3.5-2.7,6.7-4.3,9.7
				L421,132.8L319,206.4l4.7-0.8l53.9-5.2c0,0,36.4-3.5,56.7-30.8c9.5-14.6,25.8-57.4,25.8-57.4L436.8,123.9z"/>
			<g>
				<path fill="#FFFFFF" d="M124.8,294.3l12.6-5.4v28.5c3.6-0.5,7.3-0.9,11.1-1.4l0-62.6c-0.1,0-11,0-11,0c0-0.1,0,22.4,0,22.5
					l-12.6,5.3l0-27.8h-11.1v32.4l-9.1,4.5l9.1,4.5v26.3c3.6-0.6,7.3-1.3,11.1-1.9V294.3z"/>
				<path fill="#FFFFFF" d="M210.9,294.1c2.8-0.1,5.5-0.2,8.2-0.2c2,5.3,4.1,11.3,6.2,16.6c3.7-0.1,7.3-0.2,11-0.3
					c-2-5.3-4.1-11.3-6.1-16.6c1.4,0,2.8-0.1,4.2-0.1l0-25.6l-4.9-4.8h-33.9l4.2,5v43.4c3.7-0.2,7.3-0.4,11.1-0.6V294.1z
					 M210.9,273.4h12.5c0,3.1,0,7,0,9.8c-4.2,0.1-8.3,0.1-12.5,0.2L210.9,273.4z"/>
				<path fill="#FFFFFF" d="M254.1,273.4h12.7v36.8c3.8,0,7.8,0.1,11.5,0.2v-42.1l-5-5h-34.7l4.2,5l0,42c3.8,0,7.5-0.1,11.3-0.1
					C254.1,310,254.1,273.4,254.1,273.4z"/>
				<path fill="#FFFFFF" d="M319.7,301.3c-7.2-0.4-14.2-0.7-21.4-0.9c0-2.6,0-5.2,0-7.9c7.2,0.2,14.3,0.4,21.4,0.8v-11
					c-7.2-0.2-14.3-0.4-21.4-0.5c0-2.1,0-5.7,0-8.4h21.4v-10.1h-37.2l4.1,5v42.3c11.3,0.3,22.4,0.8,33.1,1.5V301.3z"/>
				<path fill="#FFFFFF" d="M347.6,273.4h9.5c0,0,0-10.3,0-10.1c-10.4,0-20.9,0-31.3,0v10.1h9.7v39.8c4,0.3,8.1,0.7,12,1V273.4z"/>
				<path fill="#FFFFFF" d="M191.7,268.2l-5-5h-34l4,4.8l0,41.3l4.4,5.2c9.8-1,20.1-1.8,30.6-2.5L191.7,268.2z M180.5,301.9
					c-4.3,0.3-8.4,0.5-12.7,0.8v-29.4h12.7L180.5,301.9z"/>
				<path fill="#FFFFFF" d="M397.1,294.6c3.4-1.5,6.9-3.1,10.3-4.7c-11-5.1-22.1-9.7-33.1-14l0-12.6H386v4.6h11.1v-14.5H359l4.2,4.9
					v25.9l22.7,9.9v14.5c0,0-5.3-0.7-11.7-1.5v-4.6l-11-1.3v14.8c12.1,1.4,23.4,3.1,33.9,4.9C397.1,312.9,397.1,300.5,397.1,294.6z"
					/>
			</g>
			<g>
				<polygon fill="#FFFFFF" points="175.3,248.5 175.3,249.9 171.7,249.9 171.7,241 175.3,241 175.3,242.3 179.3,242.3 179.3,237.5 
					167.8,237.5 167.8,251.7 169.6,253.5 179.3,253.5 179.3,248.5 				"/>
			</g>
			<path fill="#FFFFFF" d="M75.2,123.9c-7.8-18.3-13.6-31.2-13.6-31.2c64.8,42.1,122.7,79.9,155.8,101.5c1.3,3.5,2.7,6.7,4.3,9.7
				L91,132.8L193,206.4l-4.7-0.8l-53.9-5.2c0,0-36.4-3.5-56.7-30.8C68.2,155,52,112.2,52,112.2L75.2,123.9z"/>
		</g>
		<path fill="#8A8A8D" d="M477.4,111.3c-10.4,27.7-24.1,56.2-31,68c-11.6,19.8-34.7,31.6-48.2,36c0,0-6.6,15.9-13.3,24.6h27.6v37.5
			l26.2,12.6l-26.3,13.2l0,31.5l-25.5,15.6c0,0-20.3-2.5-30.2-3.5L276,393.4c-16.2,73.1-20,94.4-20,94.4s-3.8-20.1-20-94.4
			l-80.7-46.6c-9.9,1-30.2,3.5-30.2,3.5l-25.5-15.6l0-31.5L73.3,290l26.2-12.6v-37.5h27.6c-6.7-8.3-13.3-24.6-13.3-24.6
			c-8.1-2.7-15.8-6.3-22.7-10.8c-10.9-6.9-19.8-15.7-25.5-25.2c-11-19.4-23.9-48.6-31-68C30,99.5,24.1,81.4,24.1,81.4
			s15,7.2,19.6,9.4c-7.2-21.6-13.3-50.3-13.3-50.3l0,0v0c0,0,103.4,68,175.9,126.1l1.1-0.7c0-1.2-0.1-2.4-0.1-3.7
			c0-0.7,0-2.2,0.6-3.9c0.8-2.4,2.7-5.4,6.9-8c-5.3-3.9-14.9-10.5-15.8-11.5c-7-6.1-8.2-12.9-7.7-16.3l1.2-7.7l39.3,29.3
			c21.4-6.1,36.5-3.1,47.7,0l39.3-29.3l1.2,7.7c0.5,3.4-0.7,10.2-7.7,16.3c-0.8,0.9-10.5,7.6-15.8,11.5c4.2,2.6,6.1,5.6,6.9,8
			c0.6,1.8,0.7,3.2,0.6,3.9c0,1.3,0,2.5-0.1,3.7l1.2,0.7c74.2-59.5,175.9-126.1,175.9-126.1v0l0,0c0,0-5.1,23.6-13.3,50.3
			c3.9-1.9,19.6-9.4,19.6-9.4C483.4,95.8,477.4,111.3,477.4,111.3z M137.1,244.7h-32.9v35.7L84.5,290l19.8,10.3V332l21.8,13.4
			c8-1.1,18.3-2.3,30.2-3.5l84.4,48.6l15.4,70.7c0.1-0.2,15.5-70.7,15.5-70.7l84.2-48.6c11.9,1.2,22.1,2.4,30.2,3.5l21.8-13.4v-31.7
			l19.8-10.1l-19.8-9.9v-35.7h-32.8c0,0,5.1-4.9,11.5-16c2.7-4.6,5.2-10.4,8.4-17.3c23.9-7.3,41.6-22.6,49.2-37.5
			c20.5-37.5,35.9-83.5,35.9-83.5s-8.9,4.3-19.5,9.5c8.7-26.5,13.9-48.9,13.9-48.9S379.6,113.7,306,172.5l-6.4-3.8
			c0-0.6,0.2-6,0.2-6.4c0,0,0.7-6.2-10.3-10c-0.7-0.2-1.3-0.4-2-0.7c5.3-4,13.6-10.1,19.7-14.3c9.6-6.6,8.5-13.9,8.5-13.9l-35,26
			c-27-8.8-49.5,0-49.5,0l-34.9-26c0,0-1.1,7.3,8.5,13.9c6.1,4.1,14.3,10.3,19.7,14.3c-0.6,0.2-1.3,0.4-2,0.7
			c-11,3.7-10.3,10-10.3,10c0,0.4,0.2,5.8,0.2,6.4l-6.4,3.8C132.4,113.7,37.8,51.1,37.8,51.1S43,73.5,51.7,100
			c-11.4-5.7-19.5-9.5-19.5-9.5s15.4,45.9,36,83.5c7.6,14.9,25.2,30.2,49.2,37.5c0,0,4.1,9.3,7.5,15.9
			C129.1,235.6,137.1,244.7,137.1,244.7z"/>
	</g>
</g>
</svg>
