<?xml version="1.0" encoding="utf-8"?>
<!-- Generator: Adobe Illustrator 18.0.0, SVG Export Plug-In . SVG Version: 6.00 Build 0)  -->
<!DOCTYPE svg PUBLIC "-//W3C//DTD SVG 1.1//EN" "http://www.w3.org/Graphics/SVG/1.1/DTD/svg11.dtd">
<svg version="1.1" xmlns="http://www.w3.org/2000/svg" xmlns:xlink="http://www.w3.org/1999/xlink" x="0px" y="0px" width="512px"
	 height="512px" viewBox="0 0 512 512" enable-background="new 0 0 512 512" xml:space="preserve">
<g id="white_block">
	<rect opacity="0" fill="#FFFFFF" width="512" height="512"/>
</g>
<g id="Logos">
	<g>
		<path fill-rule="evenodd" clip-rule="evenodd" fill="#FFB819" d="M152.8,245.3c-4.1-71.6,50.6-133,122.2-137.1
			c71.6-4.1,133,50.6,137.1,122.2c4.1,71.6-50.6,133-122.2,137.1C218.3,371.7,157,316.9,152.8,245.3"/>
		<path fill-rule="evenodd" clip-rule="evenodd" fill="#041E41" d="M406,230.8c3.9,68.2-48.2,126.7-116.4,130.7
			c-68.2,3.9-126.7-48.2-130.7-116.4c-3.9-68.2,48.2-126.8,116.4-130.7C343.6,110.4,402.1,162.5,406,230.8"/>
		<path fill-rule="evenodd" clip-rule="evenodd" fill="#860038" d="M297.9,124.5c43.6,5.9,80,36.6,93.4,78.1
			c-33-32.1-74.8-51-118-49.7C275.1,138.5,286.5,129.1,297.9,124.5 M256.5,126.5c6.3-1.5,12.8-2.4,19.4-2.8c2.8-0.2,5.6-0.2,8.3-0.2
			c-9.6,6-18.2,16.2-19.8,30c-5.9,0.5-11.8,1.5-17.7,2.8C249,143.2,252.5,132.8,256.5,126.5 M214.6,145.8
			c9.9-7.3,21.1-13.1,33.1-16.9c-3.5,7-6.7,17.1-8.9,29.4c-6.2,1.8-12.5,4-18.7,6.7C220.1,159.4,218.6,153.5,214.6,145.8
			 M177.8,191.7c7-15.7,17.4-29.7,30.4-40.8c3.9,3.7,4.4,11.2,3.8,18C200.4,174.7,189,182.3,177.8,191.7 M172.9,204.9
			c0.3-0.8,0.5-1.7,0.8-2.5C173.6,203.3,173.4,204.1,172.9,204.9 M185.4,298.4c-9.8-15.7-16-34.1-17.1-53.9
			c-0.8-13.2,0.8-26.1,4.2-38.1c12.1-11.6,24.8-20.8,37.8-27.8l-0.1,0.5c-4.2,16-14.8,29.4-20.9,44.4
			C179.6,247.3,179.9,275,185.4,298.4 M304.4,350.1c-5,1-10.1,1.6-15.4,1.9c-34.3,1.9-65.9-11.4-88.2-34.1
			c-12-23.7-14.3-61-6.2-85.8c4.3-13.3,17-31.4,20.9-44.9c1.4-4.9,2.7-9.2,3.6-13.1c6.1-2.8,12.2-5.1,18.4-7
			C230.4,220.4,240.7,304.2,304.4,350.1 M371.6,309.6c-14.5,18-34.5,31.6-57.5,38.2C250.2,301,238.9,217,245.4,165
			c6.3-1.5,12.6-2.5,18.9-3.2c1.4,15.6,11.3,35,36.4,57.8C328.2,245.8,362.1,280.3,371.6,309.6 M396.7,231.3
			c1.5,25.5-5.5,49.6-18.6,69.4c-9.9-28.4-42-59.9-69-85.6c-24.2-21.9-34.1-39.8-35.8-53.8c45.6-1.4,90,20.3,122.2,59.2
			C396.1,224.1,396.4,227.7,396.7,231.3"/>
		<path fill-rule="evenodd" clip-rule="evenodd" fill="#FFB819" d="M467.6,312l-47.8-12.8c8.8-6.6,38-13.8,38.4-29.3l0-0.7
			c15.7-12.5,21.2-30,15.8-54l20.1-50.2c0,0-52,12.5-60.4,14.5l7.8-23.5l-185.7,45.7c-44.1-19.2-97.6-4.1-139.7,20.7l-32.4-8.2
			c-29.4-7.6-55.3-14-80.8-8.2c19.5,17.4,45.3,24.3,74.7,31.9l11.4,3c-11.3,8.9-20.9,18.2-28.2,27.1l-7.3,8.9l26.5-4.2
			c-61.3,96.8,39.5,132.8,107.4,48.2l70.4-18.5c-9.8,13-9.8,32.3-9.8,32.3l4.2-3.3c21.3-17.9,45.9-26.9,65-30.8l45.2,11.8l-0.1,0.8
			c-1.6,24.9,9.9,41.8,35.6,45.9c1.5,0.3,2.6,0.5,4.5,0.8c-0.4-5.4-0.5-9.4-0.2-14.8c19.4,13.9,40.8,11.4,58.5-4l1.3,3.2
			c19,4.7,28.5-27.4,27-34.6C489,309.7,478.9,308.2,467.6,312"/>
		<g>
			<defs>
				<path id="SVGID_1_" d="M172.9,204.9c0.4-0.8,0.7-1.6,0.8-2.5C173.4,203.2,173.2,204.1,172.9,204.9 M172.5,206.3
					c-3.5,12.1-5,24.9-4.2,38.1c1.2,19.8,7.3,38.2,17.1,53.9c-5.5-23.3-5.8-51.1,4-75.1c6.1-15,16.7-28.3,20.9-44.3l0.1-0.5
					C197.3,185.5,184.6,194.7,172.5,206.3 M219.1,174.2c-0.9,3.9-2.2,8.1-3.6,13.1c-3.9,13.5-16.5,31.6-20.9,44.9
					c-8.1,24.9-5.8,62.1,6.2,85.8c22.3,22.7,53.9,36.1,88.2,34.1c5.2-0.3,10.4-1,15.4-1.9c-63.7-45.9-74-129.7-67-182.9
					C231.3,169.1,225.1,171.4,219.1,174.2 M245.4,165c-6.5,52,4.8,136,68.6,182.8c23-6.6,43-20.2,57.5-38.2
					c-9.5-29.3-43.4-63.8-70.9-90c-25.1-22.7-35-42.1-36.4-57.8C258,162.5,251.7,163.5,245.4,165 M273.3,161.3
					c1.7,14,11.6,31.9,35.8,53.8c27,25.7,59.1,57.1,69,85.6c13-19.8,20.1-43.9,18.6-69.4c-0.2-3.6-0.6-7.2-1.1-10.7
					c-31.2-37.8-74-59.3-118.2-59.3C276,161.3,274.6,161.3,273.3,161.3 M177.8,191.7c11.2-9.4,22.6-16.9,34.2-22.8
					c0.6-6.8,0.1-14.3-3.8-18C195.2,162,184.8,175.9,177.8,191.7 M214.6,145.8c4,7.7,5.5,13.6,5.5,19.2c6.2-2.7,12.4-4.9,18.7-6.7
					c2.2-12.3,5.4-22.5,8.9-29.4C235.7,132.7,224.5,138.5,214.6,145.8 M273.3,153c43.2-1.3,85,17.6,118,49.7
					c-13.4-41.5-49.8-72.2-93.4-78.1C286.5,129.1,275.1,138.5,273.3,153 M275.9,123.7c-6.7,0.4-13.1,1.3-19.4,2.8
					c-4,6.3-7.5,16.7-9.8,29.8c5.9-1.3,11.8-2.2,17.7-2.8c1.6-13.8,10.2-24,19.8-30c-0.5,0-1,0-1.5,0
					C280.4,123.5,278.2,123.5,275.9,123.7"/>
			</defs>
			<clipPath id="SVGID_2_">
				<use xlink:href="#SVGID_1_"  overflow="visible"/>
			</clipPath>
			<path clip-path="url(#SVGID_2_)" fill-rule="evenodd" clip-rule="evenodd" fill="#FFB819" d="M467.6,312l-47.8-12.8
				c8.8-6.6,38-13.8,38.4-29.3l0-0.7c15.7-12.5,21.2-30,15.8-54l20.1-50.2c0,0-52,12.5-60.4,14.5l7.8-23.5l-185.7,45.7
				c-44.1-19.2-97.6-4.1-139.7,20.7l-32.4-8.2c-29.4-7.6-55.3-14-80.8-8.2c19.5,17.4,45.3,24.3,74.7,31.9l11.4,3
				c-11.3,8.9-20.9,18.2-28.2,27.1l-7.3,8.9l26.5-4.2c-61.3,96.8,39.5,132.8,107.4,48.2l70.4-18.5c-9.8,13-9.8,32.3-9.8,32.3
				l4.2-3.3c21.3-17.9,45.9-26.9,65-30.8l45.2,11.8l-0.1,0.8c-1.6,24.9,9.9,41.8,35.6,45.9c1.5,0.3,2.6,0.5,4.5,0.8
				c-0.4-5.4-0.5-9.4-0.2-14.8c19.4,13.9,40.8,11.4,58.5-4l1.3,3.2c19,4.7,28.5-27.4,27-34.6C489,309.7,478.9,308.2,467.6,312"/>
		</g>
		<g>
			<defs>
				<path id="SVGID_3_" d="M173.7,202.4c-0.1,0.9-0.4,1.7-0.8,2.5C173.2,204.1,173.4,203.2,173.7,202.4 M168.3,244.5
					c-0.8-13.2,0.8-26.1,4.2-38.1c12.1-11.6,24.8-20.8,37.8-27.8l-0.1,0.5c-4.2,16-14.8,29.4-20.9,44.3c-9.8,24-9.5,51.7-4,75.1
					C175.6,282.6,169.4,264.3,168.3,244.5 M200.8,318c-12-23.7-14.3-61-6.2-85.8c4.3-13.3,17-31.4,20.9-44.9c1.4-5,2.7-9.2,3.6-13.1
					c6.1-2.8,12.2-5.1,18.4-7c-7,53.2,3.3,137.1,67,182.9c-5,1-10.1,1.6-15.4,1.9c-2.2,0.1-4.4,0.2-6.6,0.2
					C250.7,352.3,221.7,339.2,200.8,318 M245.4,165c6.3-1.5,12.6-2.5,18.9-3.2c1.4,15.6,11.3,35,36.4,57.8
					c27.5,26.1,61.4,60.7,70.9,90c-14.5,18-34.5,31.6-57.5,38.2C250.2,301,238.9,217,245.4,165 M309.1,215.1
					c-24.2-21.9-34.1-39.8-35.8-53.8c45.6-1.4,90.1,20.3,122.2,59.3c0.5,3.5,0.9,7.1,1.1,10.7c1.5,25.5-5.5,49.6-18.6,69.4
					C368.2,272.2,336.1,240.8,309.1,215.1 M208.2,150.9c3.9,3.7,4.4,11.2,3.8,18c-11.6,5.8-23,13.4-34.2,22.8
					C184.8,175.9,195.2,162,208.2,150.9 M214.6,145.8c9.9-7.3,21.1-13.1,33.1-16.9c-3.5,7-6.7,17.1-8.9,29.4
					c-6.2,1.8-12.5,4-18.7,6.7C220.1,159.4,218.6,153.5,214.6,145.8 M297.9,124.5c43.6,5.9,80,36.6,93.4,78.1
					c-33-32.1-74.8-51-118-49.7C275.1,138.5,286.5,129.1,297.9,124.5 M256.5,126.5c6.3-1.5,12.7-2.4,19.4-2.8
					c2.8-0.2,5.5-0.2,8.3-0.2c-9.6,6-18.2,16.2-19.8,30c-5.9,0.5-11.8,1.5-17.7,2.8C249,143.2,252.5,132.8,256.5,126.5 M275.4,114.3
					C207.1,118.2,155,176.7,158.9,245c3.9,68.2,62.4,120.4,130.7,116.4C357.8,357.5,410,299,406,230.8
					c-3.8-65.8-58.4-116.7-123.5-116.7C280.2,114.1,277.8,114.2,275.4,114.3"/>
			</defs>
			<clipPath id="SVGID_4_">
				<use xlink:href="#SVGID_3_"  overflow="visible"/>
			</clipPath>
			<path clip-path="url(#SVGID_4_)" fill-rule="evenodd" clip-rule="evenodd" fill="#FFB819" d="M467.6,312l-47.8-12.8
				c8.8-6.6,38-13.8,38.4-29.3l0-0.7c15.7-12.5,21.2-30,15.8-54l20.1-50.2c0,0-52,12.5-60.4,14.5l7.8-23.5l-185.7,45.7
				c-44.1-19.2-97.6-4.1-139.7,20.7l-32.4-8.2c-29.4-7.6-55.3-14-80.8-8.2c19.5,17.4,45.3,24.3,74.7,31.9l11.4,3
				c-11.3,8.9-20.9,18.2-28.2,27.1l-7.3,8.9l26.5-4.2c-61.3,96.8,39.5,132.8,107.4,48.2l70.4-18.5c-9.8,13-9.8,32.3-9.8,32.3
				l4.2-3.3c21.3-17.9,45.9-26.9,65-30.8l45.2,11.8l-0.1,0.8c-1.6,24.9,9.9,41.8,35.6,45.9c1.5,0.3,2.6,0.5,4.5,0.8
				c-0.4-5.4-0.5-9.4-0.2-14.8c19.4,13.9,40.8,11.4,58.5-4l1.3,3.2c19,4.7,28.5-27.4,27-34.6C489,309.7,478.9,308.2,467.6,312"/>
		</g>
		<g>
			<path fill="#041E41" d="M485.9,313.8c-10.5-1.9-17.5,2.5-17.7,2.5c-0.2,0-36.6-9.8-50-13.4l-7.1-1.9c4.5-6.2,13.3-8.8,22.1-12.7
				c3.8-1.7,9-3.7,12.9-6.4c7-4.9,8-8.2,8.1-8.2c-12.8,0.4-25-3.1-27.1-3.5c-5.7-1.2-11.3-1.4-16.7-0.8l-0.6,0.1
				c-14.6,1.8-27.7,9.5-35.5,20.9l-1.3,1.6c-1,1.1-2.5,2.9-2.5,2.9l4.3,1.1c2.9,0.5,1.3,6.9-2.6,5.9l-18.8-4.9
				c-7.3,0.6-15,1.2-20.2,1.6c-2.7,0.2-5.6,0.5-8.8,1l41.6,11c-3,27.2,11.6,43.9,32.2,45.6c-0.1-2.8-0.1-8.6,0-19
				c0,0,29.6,31.8,63.6-2.4l2.9,6.5C479.9,342.7,486.5,313.9,485.9,313.8"/>
		</g>
		<g>
			<defs>
				<path id="SVGID_5_" d="M395.9,275.5c-7.8,4.4-18.6,15.7-18.6,15.7s-0.7,1.7,0.9,4.4c0.8,1.5,1.6,2.4,2.1,3.2
					c0.1-1.1,0.5-2.4,1.4-3.5c7.3-9.4,20.1-19.5,37-18.8c-16.7,2.9-28,13.7-35.1,23.4c-1.1,1.2-1.9,1.4-2.5,1
					c-0.2,2-1.5,4.5-3.2,4.8c-1.9,0.3-9.2,6.3-9.2,6.3v3.6l0.7,11.2c0,0,1.4,8,3.9,11.2c2.6,3.3,10,14,21.8,15.2
					c0,0,0.9-28.6,4.4-37.1c3.6-8.5,8.4-18.4,16-22.5c7.7-4.1,19.4-8.2,25.5-11.4c6.1-3.2,8.9-6.8,8.9-6.8s-12.6-0.5-22.8-2.2
					c-4.4-0.7-9.3-1.2-14-1.2C406.7,272,400.4,272.9,395.9,275.5"/>
			</defs>
			<clipPath id="SVGID_6_">
				<use xlink:href="#SVGID_5_"  overflow="visible"/>
			</clipPath>
			<path clip-path="url(#SVGID_6_)" fill="#FFB819" d="M424.6,275.3c-17.3-3.1-33.2,2.4-44.6,18.6c2.2,1.4,3.6,4.7,3.4,8.5
				c-0.3,4.7-3,8.3-6.2,8.4l0.1,0.3l0,0c0.4,7,2.8,13.8,6.3,17.4c1.3-12.1,7.8-28.7,26.1-38.9c-18.2,15.8-21.8,38.6-20.5,54.2
				c-8.5-1.7-15.6-16-18.1-23.6c1.9,12.9,10,28.3,22.3,29.2c-2.5-24.8,7.1-50.5,23.3-59c6.7-3.5,16-5.8,26.4-12.5
				C432,277,428.6,276,424.6,275.3"/>
		</g>
		<g>
			<path fill="#041E41" d="M485.7,171.5c-0.1,0.1-41.1,10-58.7,14.2l7.8-23.5l-179.4,44.5c-41.2-18.7-92-5.7-133,17.3l79.5,20
				c-0.3,1-0.7,2.1-1.2,2.9L80.1,216.6c-24.5-6.3-46.7-12.3-67.8-8.2c16.5,13.9,38.8,19.2,63.3,25.6l90.2,23.7
				c-1.6,0.7-3.2,1.4-4.5,2.1l-66.7-17.5c-12.1,9.3-22.5,19-30.2,28.5l23.8-3.1c-68.1,109.2,42.1,123,94.3,49.6l86.6-21.7
				c-7.9,7.8-12.6,19.1-15.1,28.9c25.6-22.1,59.1-29,79.1-30.5c12.2-0.9,25.6-2.2,36-3.4l2.9-3.7c9.5-13,23.3-19.4,37.9-20.8
				c11.4-1.1,15.4,0.6,20.1,1.4c2.2,0.6,10.2,2.7,18.3,3.1c21-12.2,27.2-30,21.1-55.7L485.7,171.5z M182.8,252.3l-89.6-23.4
				c-25.6-7.1-32.2-12.8-33.9-14.3l52.1,13.4l84.6,21.7C192.1,250.7,186.3,251.7,182.8,252.3"/>
		</g>
		<g>
			<defs>
				<path id="SVGID_7_" d="M86.2,259.6c7.1-5.7,14.2-10.9,21.4-15.7l34.6,9.5c-0.6,0.5-1.1,1.1-1.7,1.7
					c-76.9,80.3-26.3,93.7,29.7,62.8c1.2-0.6-7.9,7.9-7.9,7.9C100,386.9,32.1,340.9,115,253c-8.9,2.5-26.7,6.6-28.7,6.6
					C86.2,259.7,86.2,259.6,86.2,259.6 M134.5,228.3c51.6-26,99.7-27.3,120.3-7.2c0,0,0,0,0,0c0,0,0,0,0,0
					c-0.7-0.3-40.7,23.3-44.8,26.4c19.8-38.7-15.8-29.9-45.5-11.3L134.5,228.3z M366.1,270.6c44.8-6.7,92.7-17.8,75.7-43.4
					c-3.2-3-4.9-3.8-7.5-7.3c-11.1-14.9,7.9-31.9,29.2-30.5c1.5,0.1,5.3,0.7,5.2,0.8l-5.2,13.3c-4.3-6.8-18.2-8.4-20-0.2
					c-1.4,6.2,8.4,8.4,14.2,19.3c7.8,14.7-0.3,29.6-14.5,36.9c-5.5,2.8-11.1,5.2-16.9,7.3c-4.7,1.2-9.6,2.6-15.8,4.3
					c-5.6,1.6-7.3,2.6-28.8,6c-36.5,5.5-75,7.2-107.1,22.3C288.5,285,325.4,276.8,366.1,270.6 M255.9,201.7
					c-44.1-19.2-97.6-4.1-139.7,20.7l-32.4-8.2c-29.4-7.6-55.3-14-80.8-8.2c19.5,17.4,45.3,24.3,74.7,31.9l11.4,3
					c-11.3,8.9-20.9,18.2-28.2,27.1l-7.3,8.9l26.5-4.2c-61.3,96.8,39.5,132.8,107.4,48.2l70.4-18.5c-9.8,13-9.8,32.3-9.8,32.3
					l4.2-3.3c21.3-17.9,45.9-26.9,65-30.8l45.2,11.8l-0.1,0.8c-1.6,24.9,9.9,41.8,35.6,45.9c1.5,0.3,2.6,0.5,4.5,0.8
					c-0.4-5.4-0.5-9.4-0.2-14.8c19.4,13.9,40.8,11.4,58.5-4l1.3,3.2c19,4.7,28.5-27.4,27-34.6c0-0.2-10.2-1.7-21.5,2.2l-47.8-12.8
					c8.8-6.6,38-13.8,38.4-29.3l0-0.7c15.7-12.5,21.2-30,15.8-54l20.1-50.2c0,0-52,12.5-60.4,14.5l7.8-23.5L255.9,201.7z"/>
			</defs>
			<clipPath id="SVGID_8_">
				<use xlink:href="#SVGID_7_"  overflow="visible"/>
			</clipPath>
			<path clip-path="url(#SVGID_8_)" fill="#041E41" d="M485.7,171.5c-0.1,0.1-41.1,10-58.7,14.2l7.8-23.5l-179.4,44.5
				c-41.2-18.7-92-5.7-133,17.3l79.5,20c-0.3,1-0.7,2.1-1.2,2.9L80.1,216.6c-24.5-6.3-46.7-12.3-67.8-8.2
				c16.5,13.9,38.8,19.2,63.3,25.6l90.2,23.7c-1.6,0.7-3.2,1.4-4.5,2.1l-66.7-17.5c-12.1,9.3-22.5,19-30.2,28.5l23.8-3.1
				c-68.1,109.2,42.1,123,94.3,49.6l86.6-21.7c-7.9,7.8-12.6,19.1-15.1,28.9c25.6-22.1,59.1-29,79.1-30.5c12.2-0.9,25.6-2.2,36-3.4
				l2.9-3.7c9.5-13,23.3-19.4,37.9-20.8c11.4-1.1,15.4,0.6,20.1,1.4c2.2,0.6,10.2,2.7,18.3,3.1c21-12.2,27.2-30,21.1-55.7
				L485.7,171.5z M182.8,252.3l-89.6-23.4c-25.6-7.1-32.2-12.8-33.9-14.3l52.1,13.4l84.6,21.7C192.1,250.7,186.3,251.7,182.8,252.3"
				/>
		</g>
		<g>
			<path fill-rule="evenodd" clip-rule="evenodd" fill="#FFB819" d="M470.2,319.9c3.6-1.8,7.7-2.5,11.7-3.1
				c-5.6,2.1-8.3,5.3-8.7,5.2c-1.2,3.1-1.2,6.3-8.3,9.8C467.2,328.3,470.4,324.3,470.2,319.9"/>
			<path fill-rule="evenodd" clip-rule="evenodd" fill="#FFB819" d="M400.2,325.8c7.6,16.7,29.7,20.6,43,17.7
				c-5.9,5.2-34.9,4.1-43.7-12.9L400.2,325.8z"/>
			<path fill="#FFB819" d="M408.3,304.6l57.3,14.8c1.9,0.5,1.1,5.7-1.4,5.1l-58.9-15C405.7,308.1,407.8,304.9,408.3,304.6"/>
			<path fill="#FFB819" d="M457.1,329.9c-20.7,20.4-53.1,6.4-53-10.2C404.6,319.7,425.3,334.9,457.1,329.9"/>
		</g>
		<g>
			<defs>
				<path id="SVGID_9_" d="M380,293.9c2.2,1.4,3.6,4.7,3.4,8.5c-0.3,4.7-3,8.3-6.2,8.4l0.1,0.3l0,0c0.4,7,2.8,13.8,6.3,17.4
					c1.3-12.1,7.8-28.7,26.1-38.9c-18.2,15.8-21.8,38.6-20.5,54.2c-8.5-1.7-15.6-16-18.1-23.6c1.9,12.9,10,28.3,22.3,29.2
					c-2.5-24.8,7.1-50.5,23.3-59c6.7-3.5,16-5.9,26.3-12.5c-11-0.9-14.5-1.9-18.4-2.6c-3-0.5-6-0.8-9-0.8
					C401.9,274.5,389.4,280.6,380,293.9"/>
			</defs>
			<clipPath id="SVGID_10_">
				<use xlink:href="#SVGID_9_"  overflow="visible"/>
			</clipPath>
			<path clip-path="url(#SVGID_10_)" fill="#FFFFFF" d="M381.7,295.3c-2.6,3.1-1.3,8.1,1.8,4.7c7.1-9.8,18.4-20.5,35.1-23.4
				C401.8,275.8,389,285.9,381.7,295.3"/>
		</g>
		<g>
			<path fill-rule="evenodd" clip-rule="evenodd" fill="#FFFFFF" d="M317.6,200.8l3.8-0.8l0.4,9.7l7.6-11.5l5.1-1.4l-14.9,20
				L317.6,200.8z M416,177.8l-0.6-0.1l-3,0.7l-5.6,14.2l2.4-0.6c0.1,0,0.5-0.2,1.2-0.5l0.9-0.4l5.2-13.1L416,177.8z M408.9,193.9
				l-7.6,1.9l7.1-18.2l7.7-1.9c1.3-0.3,2.5-0.3,3.7-0.2c1.2,0.1,1.9,0.4,1.6,1l-5.2,13.4c-0.2,0.6-1.3,1.4-2.9,2.2
				C411.7,192.9,410.2,193.6,408.9,193.9 M269.3,228.8c-1.2,0.3-2.4,0.4-3.7,0.4c-1.7,0-2.6-0.3-2.3-1.1l5.4-13.7
				c0.2-0.6,1.4-1.3,2.9-2.1c1.6-0.8,3-1.4,4.3-1.7l7.6-1.9l-1.3,3.2l-4.7,1.1l0.5-1.2l-1.3,0.3c-1.3,0.3-2.2,0.6-2.8,0.9
				c-0.5,0.2-0.7,0.4-0.7,0.5l-5.2,13.4c0,0,0,0.2,0.8,0.1c0.6,0,1-0.1,1.2-0.1c0.6-0.2,1.2-0.4,1.8-0.7c0.6-0.4,0.9-0.7,1-0.9
				l-0.3-0.6l5.1-1.2l-0.6,1.5c-0.3,0.7-1.6,1.6-3.5,2.4C272.1,227.9,270.6,228.5,269.3,228.8 M288.9,207.7l4.7-1.1l-6.3,16.1
				l7.7-1.9l-0.8,2l-12.4,3L288.9,207.7z M304.9,203.6l10.7-2.6l-0.8,1.9l-6,1.5l-2.2,5.5l6-1.5l-0.8,2l-6,1.5l-2.6,6.7l6-1.5
				l-0.8,2l-10.7,2.6L304.9,203.6z M338.3,195.4l10.7-2.6l-0.8,2l-6,1.5l-2.2,5.5l6-1.5l-0.8,2l-6,1.5l-2.6,6.7l6-1.5l-0.8,2
				l-10.7,2.6L338.3,195.4z M353.4,191.5l4.7-1.1l-6.3,16.1l7.7-1.9l-0.8,2l-12.4,3L353.4,191.5z M374.4,196.2l-4.4,1.1l-2.7,6.8
				l-4.8,1.2l6.3-15.9c0.3-0.8,1.6-1.6,3.4-2.5c1.6-0.7,3.1-1.3,4.6-1.7c1.4-0.3,2.7-0.5,4-0.4c1.4,0.1,2.1,0.4,1.9,1.1l-6.3,16
				l-4.7,1.2L374.4,196.2z M377.8,187.3l-0.6-0.1c-0.6,0-1.1,0-1.2,0.1c-0.3,0.1-0.8,0.3-1.7,0.7l-0.7,0.4l-2.9,7l4.4-1.1
				L377.8,187.3L377.8,187.3z M393.1,192.7l-1.9-7.1l-4.7,14l-4.7,1.2l7.1-18.1l4.7-1.2l1.5,6.3l2.9-7.4l4.7-1.1l-7.1,18.1l-4.7,1.2
				L393.1,192.7z"/>
			<path fill="#FFFFFF" d="M219.5,251.7l7.4,4.5c-3.8,10.8-20.3,33.7-29.7,40.7l16.5-43.8l-12.6,3.4l-20.7,52.8l26.6-6.8
				c0.6-0.2,23.9-18.7,37.2-56.9L219.5,251.7z"/>
			<path fill="#FFFFFF" d="M142.4,298c-0.1,0-9.7,19.7-11.6,23.7l13.1-3.4l8.9-18.4l10.6-3.1l-7.3,18.5l14-3.6l21.5-53.3
				C184.4,260.8,158.8,261.2,142.4,298 M166.9,289.5l-10.4,3c0,0,8.7-17,17.6-19.7L166.9,289.5z"/>
			<path fill="#FFFFFF" d="M408.2,231.7c-0.7-1-1.3-3.2-1.3-3.3c0.4-0.2,0.9-0.4,1.3-0.7c8.5-4.9,17.9-19.4,17.6-29.3
				c-12,3.2-32.1,8.4-32.2,8.6l-19.2,52.9l12.5-3.2l8.3-22.7c1,2.1,6.5,15.2,17.2,16.3c12.4,1.3,19.6-11,19.6-11
				C428.7,242.1,413.9,243.1,408.2,231.7 M398.1,226.7l6.1-16.9l9.5-2.5C412.3,210.9,409.8,220.7,398.1,226.7"/>
			<path fill="#FFFFFF" d="M237.3,274c-0.2,0-9.6,19.3-11.5,23.4l13.3-3.4l8.6-18.1l10.6-3.1l-7.3,18.3l13.9-3.5l21.6-53
				C280.1,236.2,253.7,237.2,237.3,274 M261.9,265.4l-10.4,3c0,0,8.7-17,17.6-19.6L261.9,265.4z"/>
			<polygon fill="#FFFFFF" points="334.4,221.7 313.7,274.8 326.8,271.5 347.5,218.4 			"/>
			<path fill="#FFFFFF" d="M348.5,259.7l6.6-15.5l18.1-9.8l-14.5,1.1l6.3-16.9c7.9-2.5,11.9-0.1,15.3,4.9l6-14.9l-31.9,8.1l-20.5,53
				l32.5-8.5l7-16.4C366.2,252.9,358.1,258.1,348.5,259.7"/>
			<path fill="#FFFFFF" d="M290.1,274.6l17.3-46l-13.8,3.5l-20.4,53.1l35-9l7.7-18.8C306.6,268.5,301.7,272.7,290.1,274.6"/>
		</g>
		<g>
			<defs>
				<path id="SVGID_11_" d="M255.5,206.7c-41.2-18.7-92-5.7-133,17.3l79.5,20c-0.3,1-0.7,2.1-1.2,2.9l-35.1,10.7
					c-1.7,0.7-3.2,1.4-4.5,2.1l-66.7-17.5c-12.2,9.3-22.5,19-30.2,28.5l23.8-3.1c-68.1,109.2,42.1,123,94.3,49.6l86.6-21.7
					c-7.9,7.8-12.6,19.1-15.1,28.9c25.6-22.1,59.1-29,79.1-30.5c12.2-0.9,25.6-2.2,36-3.4l2.9-3.7c9.5-13,23.3-19.4,37.9-20.8
					c11.4-1.1,15.4,0.6,20.1,1.4c2.2,0.6,10.2,2.7,18.3,3.1c21-12.2,27.2-30,21.1-55.7l16.3-43.4c-0.1,0.1-41.1,10-58.6,14.2
					l7.8-23.5L255.5,206.7z"/>
			</defs>
			<clipPath id="SVGID_12_">
				<use xlink:href="#SVGID_11_"  overflow="visible"/>
			</clipPath>
			<path clip-path="url(#SVGID_12_)" fill="#FFFFFF" d="M468.7,190.3l-5.2,13.3c-4.3-6.8-18.2-8.4-20-0.2
				c-1.4,6.2,8.4,8.4,14.2,19.3c7.8,14.7-0.3,29.6-14.5,36.9c-5.5,2.8-11.1,5.2-16.9,7.3c-4.7,1.2-9.6,2.6-15.8,4.3
				c-5.6,1.6-7.3,2.6-28.8,6c-36.5,5.5-75,7.2-107.1,22.3c14-14.3,50.8-22.5,91.5-28.8c44.8-6.7,92.7-17.8,75.7-43.4
				c-3.2-3-4.9-3.8-7.5-7.3c-11.1-14.9,7.9-31.9,29.2-30.5C464.9,189.5,468.8,190.1,468.7,190.3"/>
			<path clip-path="url(#SVGID_12_)" fill="#FFFFFF" d="M254.8,221.1c-0.2-0.7-40.7,23.3-44.8,26.4c25.9-50.6-43.1-19.9-69.5,7.6
				c-76.9,80.3-26.3,93.7,29.7,62.8c1.2-0.6-7.9,7.9-7.9,7.9C100,386.9,32.1,340.9,115,253c-9.4,2.7-28.8,7.1-28.9,6.6
				C153.7,205.1,227.8,194.7,254.8,221.1"/>
		</g>
	</g>
</g>
</svg>
