<?xml version="1.0" encoding="utf-8"?>
<!-- Generator: Adobe Illustrator 18.0.0, SVG Export Plug-In . SVG Version: 6.00 Build 0)  -->
<!DOCTYPE svg PUBLIC "-//W3C//DTD SVG 1.1//EN" "http://www.w3.org/Graphics/SVG/1.1/DTD/svg11.dtd">
<svg version="1.1" xmlns="http://www.w3.org/2000/svg" xmlns:xlink="http://www.w3.org/1999/xlink" x="0px" y="0px" width="512px"
	 height="512px" viewBox="0 0 512 512" enable-background="new 0 0 512 512" xml:space="preserve">
<g id="white_block">
	<rect opacity="0" fill="#FFFFFF" width="512" height="512"/>
</g>
<g id="Logos">
	<g>
		<path fill="#FFFFFF" d="M448,261.6c2.3-5.8,11.4-28.2,11.4-28.2l-38.1,21.3c-0.1,0.1-11.2,6.2-27.4,13.2
			c8.1-20.3,15.2-40.9,22.3-67.8c13.4-51.4,20.7-107.9,20.9-110.3l2.9-22.9c0,0-71.7,19.9-78.6,21.8
			c-25.4-30.8-64.6-49.1-105.8-49.1c-41.3,0-80.6,18.4-106.1,49.4c-7.1-2-78.9-22.1-78.9-22.1l2.9,23c0.1,0.6,7.7,58.6,21.8,110.9
			c6.8,25.4,14.5,46,22.4,65.5c-17.2-7.3-31.6-14.1-31.7-14.2l-35.3-16.9c0,0,8.5,21.3,10.8,27.3l-12.8-4.9l11.8,31.8l0,0
			c0.8,2.3,5.8,15.8,44,118.7l5.3,14.1c0,0,8.5-2.7,11.1-3.5c2.1,5.7,7.6,20.6,7.6,20.6l15.3-8c11.8-6,36.9-16.2,57.3-19.5
			c24.2,33.2,43.2,50.5,44,51.2l10.4,9.4l10.3-9.6c0.8-0.7,20-18.8,43.7-50.9c22.7,3,42.1,12.2,51.9,17.6l15,8.3l6.6-15.8
			c0,0,0.8-1.9,1.7-4.1c1.2,0.4,8.5,2.9,8.5,2.9l5.5-14.1c1-2.7,25.4-59.8,48.9-114.9l15.7-36.7L448,261.6"/>
		<path fill="#231F20" d="M424.4,260.2c-0.2,0.1-18.2,10.1-42,19.2c10.7-25.6,19.2-48.4,27.7-81c13.5-51.4,20.7-108.9,20.8-109.5
			l1.7-13.4l-13,3.6c0,0-160.4,44.5-165.1,45.8c-4.7-1.3-176.4-49.4-176.4-49.4l1.7,13.5c0.1,0.6,7.6,58.1,21.6,110
			c8.5,31.4,18.3,55.7,27.9,78.8c-22.9-9-45.8-20-46.1-20.1l-20.8-9.9l8.5,21.3c20.4,51.4,30.7,79.6,43.9,115.3l17,45.8l9-4.6
			c13.5-6.9,41.5-18,63-20.7c24.8,34.7,44.5,52.5,45.3,53.3l6.1,5.5l6-5.7c0.9-0.8,20.8-19.6,45.1-53.1
			c25.2,2.6,46.8,12.8,57.9,18.9l8.8,4.9l3.9-9.3c10.1-24.2,59.6-146.7,60.1-148l9.6-23.7"/>
		<path fill="#FFFFFF" d="M442.5,266.2c-0.4,0.2-40.1,17.1-72.6,25.1c12.7-29.2,23.7-55.5,33.9-94.5c13.3-51,20.6-108.1,20.6-108.7
			l0.5-3.9l-3.9,1.1c0,0-165.4,45.8-166.8,46.2c-1.4-0.4-168.8-47.2-168.8-47.2l0.5,3.9c0.1,0.6,7.5,57.6,21.4,109.2
			c9.1,33.8,19.8,59.2,30.2,84c0,0,1.8,4.3,3.4,8.1c-28.1-7.1-66.1-20.4-66.5-20.6l-5.4-1.9l2,5.3c16.7,44.4,25.2,68.2,34.2,93.4
			l18.3,50.8l2.4-0.7c25.9-8.1,59.4-14.5,80.4-17.1c24.1,35,46.7,54.7,46.9,54.9l1.8,1.6l1.7-1.6c0.2-0.2,21.6-19.7,46.5-54.6
			c21.6,1.4,61.7,10.5,77,16.6l2.4,1l1-2.4c10-24.2,61.6-143.2,62.1-144.4l2.6-6.1"/>
		<path fill="#C4CED4" d="M360.9,298.9l2.1-4.8c14-32.3,25.1-57.8,35.7-98.6c11.3-42.9,18.1-90.3,20-104
			c-7.3,2.1-163.6,45.4-163.6,45.4l-0.7,0.2c0,0-155.1-43.4-162.5-45.5c1.9,13.8,9,61.1,20.7,104.5c9,33.4,19.6,58.8,29.9,83.3
			l7.5,17.8l59.1,95.9l0.9,1.3c20.3,29.7,39.5,48.3,45.2,53.6c5.5-5.3,24-23.8,44.9-53.3l0.8-1.2"/>
		<path fill="#231F20" d="M278.3,400.4l12.3-3l-12.6-1.2c-0.5,0-12.2-1.1-18-1.1c-0.7-2.3-5.7-17.4-5.7-17.4l-2.1,5.8
			c-0.1,0.4-2.7,7.6-4.1,11.6c-6.7,0-15.7,0.9-16.1,1l-13.1,1.4l12.9,2.8c3.9,0.8,11.9,3.6,12.7,7c-1,4-3.7,11-3.8,11.1l-2.6,6.6
			c0,0,14.1-9.9,16-11.3c1.9,1.3,15.7,11,15.7,11s-5.7-16.3-6.1-17.6C264.9,404.9,271.9,402,278.3,400.4"/>
		<path fill="none" stroke="#231F20" stroke-width="9.600000e-02" stroke-linejoin="round" d="M278.3,400.4l12.3-3l-12.6-1.2
			c-0.5,0-12.2-1.1-18-1.1c-0.7-2.3-5.7-17.4-5.7-17.4l-2.1,5.8c-0.1,0.4-2.7,7.6-4.1,11.6c-6.7,0-15.7,0.9-16.1,1l-13.1,1.4
			l12.9,2.8c3.9,0.8,11.9,3.6,12.7,7c-1,4-3.7,11-3.8,11.1l-2.6,6.6c0,0,14.1-9.9,16-11.3c1.9,1.3,15.7,11,15.7,11
			s-5.7-16.3-6.1-17.6C264.9,404.9,271.9,402,278.3,400.4z"/>
		<g>
			<defs>
				<path id="SVGID_13_" d="M255.1,136.9l-0.7,0.2c0,0-155.1-43.4-162.5-45.5c1.9,13.8,9,61.1,20.7,104.5
					c9,33.4,19.6,58.8,29.9,83.3l7.5,17.8l-5.1-1.2c-22.7-5.3-54.4-15.9-66.8-20.1c15.4,41,23.6,64,32.3,88.2c0,0,15,41.8,16.6,46
					c26.5-8,59.9-14.3,80.4-16.8l1.6-0.2l0.9,1.3c20.3,29.7,39.5,48.3,45.2,53.6c5.5-5.3,24-23.8,44.9-53.3l0.8-1.2l1.5,0
					c21.1,1.1,60,9.7,77.6,16.2c10.4-24.9,48.3-112.4,58.6-136.1c-13.3,5.4-46.2,18.3-72.6,24.2l-5.1,1.2l2.1-4.8
					c14-32.3,25-57.8,35.7-98.6c11.3-42.9,18.1-90.3,20-104C411.3,93.5,255.1,136.9,255.1,136.9"/>
			</defs>
			<clipPath id="SVGID_2_">
				<use xlink:href="#SVGID_13_"  overflow="visible"/>
			</clipPath>
			<path clip-path="url(#SVGID_2_)" fill="none" stroke="#231F20" stroke-width="9.600000e-02" d="M383.9,167.6
				c0-67.1-57.5-121.7-128.2-121.7c-70.7,0-128.2,54.6-128.2,121.7c0,14.1,2.6,27.7,7.3,40.3c-0.4,19.1,6.8,30.6,8.3,32.9
				c16,46.6,61.2,80.2,114.5,80.2c40.6,0,76.5-19.6,98.4-49.5c0.6-1,0.9-3,0.9-3c0-0.7,0.5-1,0.5-1c1.7-0.9,2.2-1.5,2.3-1.6
				c11.7-18.2,18.5-39.6,18.5-62.5C381.9,192,383.9,180,383.9,167.6z"/>
		</g>
		<g>
			<path fill="#0075BF" d="M429.1,276.7c-0.8,0.4-81.8,35.3-174.7,34.9c-81.7-0.3-174.4-35.4-175.4-35.8l-19.5-7.5l6.9,18.8
				c0.1,0.5,0.1,0.5,43.9,118.7l3.1,8.5l8.7-2.8c19.3-6.1,70.7-20.3,131.9-20.3c56.8,0,106.3,11.7,126.7,18.6l8.6,2.9l3.3-8.5
				c1.2-3.1,29.9-70.5,49-115l9.4-22.1"/>
			<path fill="#FFFFFF" d="M430.1,288.2l-8.3,3l-18.4,6.7c-0.9,0.2-7.5,2.4-12.7,6.7c-1.8,1.5-3.6,3.7-5.3,5.9
				c0.4-0.9,0.6-1.4,0.6-1.5l2.4-6.8l-7,1.9l-16.6,4.4c-1.6,0.3-12.9,2.8-16.3,3.6l-3.8,0.6l-19.5,3.3c-0.8,0.1-8.3,1.4-12.3,5.4
				c-0.9,0.9-1.6,1.9-2.3,2.8l1.1-6.5l-4.9,0.5l-15.8,1.5l-0.5,4.1c-0.4-0.5-0.9-1-1.5-1.4c-3-2.3-7.9-2.3-9.4-2.2l-23.1,0.6v0.1
				l-18.6-0.1c-0.7,0-6.6,0.3-10.6,4.1c-0.6,0.6-1.2,1.2-1.6,2c-0.1-2.2-0.1-3.5-0.1-3.5l-0.1-3.4c0,0-18.9-1.7-19.6-1.8l-22.7-3
				l1,5.2l0.2,1.4c-5.1-6.1-13.3-8.2-13.6-8.3l-23.5-5.3l1.5,6l1.1,4.4c-0.7-1.2-1.4-2.3-2.2-3.3c-3.4-4.3-6.3-7.6-12.9-10
				c-5.7-2.1-17.4-4.9-17.9-4.9l-6.6-1.6v0.1c-6-2.6-19.2-7-23.8-8.5l-7.4-2.4l2.7,7.3l38.6,104.3c0,0,15.1-4.2,15.9-4.4h0
				c0,0,15.8-3.7,17-4c0.8-0.1,16.6-3,16.6-3l0-0.1c4.4-0.6,13.3-2,14.2-2.2c0.7-0.1,8.4-1.2,12.6-1.8v0l16.1-1.6
				c1.7-0.2,6.9-0.6,9.6-2.8c1.1-0.8,1.9-1.7,2.5-2.6l0.2,4.4l18.9-0.6h0.1c0.6-0.1,5.8-0.7,9.1-3.9l1.1-1.2l-0.2,4.8
				c0,0,14.5,0.4,15.3,0.4v0l17.2,0.4l12.5,0.9l15.8,1.7c0.6,0,6.1,0.6,11.2-2.3l1.3-0.8l-1.3,4.5l16.1,2.8l0.1-0.1
				c0.5,0.1,11.6,2.1,14.3,2.6l1.8,0.5c0.3,0.1,8.2,2.2,14.4,1.4c7.4-0.9,15-6.9,18.4-14.7l16-37.1h-0.1
				C407.6,340.4,430.1,288.2,430.1,288.2"/>
			<polyline fill="#231F20" points="287.6,377.9 297.6,378.6 307.1,322.1 294.4,323.3 			"/>
			<path fill="#231F20" d="M329.1,326.2l-4.7,20.3l12.6-0.4l8.3-29.6l-19.3,3.3c0,0-7,1.2-10.2,4.4c-4.4,4.4-5.4,12.5-5.4,12.5
				l-7.7,42.3l12.6,1.3c0,0,5,0.6,9.2-1.5c3-1.5,4.9-4.7,5.9-7.8c1.1-3,3.9-15,3.9-15h-11.9l-2.5,12c0,0-0.3,2.4-2.1,4.7
				c-1.7,2.4-5.1,2.2-5.1,2.2l8.2-37.8c0,0,1.3-5.1,3.1-7.7C326.1,326.2,329.1,326.2,329.1,326.2"/>
			<path fill="#231F20" d="M350.7,347.5l10.8-34.2l-11,2.4l-19.4,66.8l8.6,1.4l9.1-28.6l2.6-0.1c0,0,1.7,0.6,1.7,2.3
				c0,1.7-0.8,3.6-0.8,3.6l-7.6,23.6l10.1,1.9l8.4-24.5c0,0,1.3-4.1,1.1-6.1c-0.5-3.4-2.1-5.4-2.1-5.4s2.1,0,4.9-2.7
				c2.8-2.7,2.8-4.7,3.5-6.8c0.7-2,11.9-32.9,11.9-32.9l-14.5,3.6l-8.5,27.6c0,0-0.6,2.8-2,4.9c-1.3,2-2.3,2.7-3.1,2.9
				C352.4,347.5,350.7,347.5,350.7,347.5"/>
			<path fill="#231F20" d="M401.1,313.8l-9.4,25.3l12.9-0.6l18.5-43.6l-18.5,6.8c0,0-6.6,2-11.5,6.1c-3.9,3.3-8.4,10.8-9.4,13.2
				c-1,2.4-5.2,11.8-5.9,14.8c-0.7,3-7,20-7,20h14.6l-6.2,16.5c0,0-0.7,3.7-3.2,6.7c-2.4,3.1-5.9,3.4-5.9,3.4l8.4-21.2h-9.1
				l-9.8,26.5c0,0,7.3,2.1,12.9,1.4c5.6-0.7,12.2-5.3,15.4-12.4c3.1-7.1,13.6-31.4,13.6-31.4L384,346l5.3-15.5c0,0,3.7-8.9,6.2-12
				C397.2,316.4,401.1,313.8,401.1,313.8"/>
			<path fill="#231F20" d="M85.4,294.1l37.4,101l11-3.1l-27.7-81.8c0,0,4.2,0.4,7.7,6.8c3.5,6.4,5.2,11.1,6.3,15.2
				c1.1,4.1,18.7,58.6,18.7,58.6l11.2-2.6l-21.5-71.9c0,0,2.8,0,5.6,4.7c2.8,4.8,3.8,8.8,3.8,8.8l16.5,57.4l10.8-2.2l-13.8-53.3
				c0,0-3.1-9.3-6.7-14.2c-2.8-3.7-6-6.8-11.1-8.5c-5.6-1.9-17.6-5-17.6-5l1.8,5.4c0,0-4.1-4.5-7.7-6.4
				C107,301.4,85.4,294.1,85.4,294.1"/>
			<path fill="#231F20" d="M173.1,349.5l-6-26.1c0,0,3.6,0.8,5.7,2.8c2,2,2.7,7.7,2.7,7.7l3.2,15.7 M185.6,381.8l9.5-1.2l-8.1-42
				c0,0-1.9-9.4-4.2-13.1c-4.1-6.5-13-8.7-13-8.7l-17.3-3.6l17.9,71l10.7-1.8l-6.6-26.6l6.2,0.1L185.6,381.8z"/>
			<path fill="#231F20" d="M188,319.7l11.9,60.4l12.8-1.3c0,0,5.8-0.2,7.5-1.5c3.5-2.8,3.5-6.7,3.5-6.7l-1.5-46.9l-12.3-1.2
				l4.5,44.4c0,0,0.3,4-1.8,6.1c-1.7,1.7-3.5,1.4-3.5,1.4l-6.4-52.6"/>
			<path fill="#231F20" d="M228.9,377.6L244,377c0,0,4.4-0.4,6.8-2.8c2.4-2.4,2.9-6.7,2.9-6.7l0.2-8.5l-10.1,0.1l0.1,8.4
				c0,0,0.1,2.8-1.2,4.1c-1,1-4.4,0.9-4.4,0.9l0-17H254l0.4-5.2l-16.4,0.2v-14.9c0,0-0.1-2.2,1.4-3.3c1.6-1.2,4.4-0.9,4.4-0.9v15.4
				h10.8l1.4-22l-18-0.4c0,0-4.9,0.2-8,3.1c-3.6,3.4-3.1,11.1-3.1,11.1"/>
			<path fill="#231F20" d="M276.6,332.6l-0.7,13.2c0,0,0,1.7-0.7,2.7c-0.7,1-1.7,1.1-1.7,1.1l-3.6-0.1l1.1-19.6l2.7-0.1
				c0,0,1.4-0.1,2.3,0.5C276.9,330.9,276.6,332.6,276.6,332.6 M286.8,326.2c-1.9-2.1-6.9-1.8-6.9-1.8l-19.6,0.5l-2,52l9.9,0.3
				l1.3-21.3c0,0,3.1-1.1,4.6,1.1c1,1.4,0.9,3.2,0.9,3.2l-1.3,17.2l9.7,0.4l1.7-17.3c0,0,0.5-3-0.5-5.3c-0.9-2-3-2.5-3-2.5
				s1.4,0,3.5-2.3c2.1-2.4,2.1-5.8,2.1-5.8l1.2-11.9C288.3,332.5,289,328.5,286.8,326.2"/>
			<path fill="#231F20" d="M278.3,400.4l12.3-3l-12.6-1.2c-0.5,0-12.2-1.1-18-1.1c-0.7-2.3-5.7-17.4-5.7-17.4l-2.1,5.8
				c-0.1,0.4-2.7,7.6-4.1,11.6c-6.7,0-15.7,0.9-16.1,1l-13.1,1.4l12.9,2.8c3.9,0.8,11.9,3.6,12.7,7c-1,4-3.7,11-3.8,11.1l-2.6,6.6
				c0,0,14.1-9.9,16-11.3c1.9,1.3,15.7,11,15.7,11s-5.7-16.3-6.1-17.6C264.9,404.9,271.9,402,278.3,400.4"/>
			<path fill="#FFFFFF" d="M260.4,406.8c0.9-3.5,6.7-6.1,11.4-7.7c-4.6-0.4-10.6-0.8-13.4-0.8h-0.8c0,0-2.3-6.7-3.5-10.1
				c-1,3-2.6,7.4-3.3,9.6l-0.3,0.8l-0.8,0c-3.3,0-7.7,0.3-11.2,0.5c4.1,1.6,8.8,4.2,9.4,8.2v0.2l0,0.2c-0.5,2.4-1.8,6-2.8,8.7
				c3.3-2.3,9.2-6.4,9.2-6.4s6.1,4.3,9.3,6.5c-1.2-3.5-3.2-9.2-3.2-9.2"/>
			<path fill="#231F20" d="M127.5,167.6c0,67.1,57.5,121.7,128.2,121.7c70.7,0,128.2-54.6,128.2-121.7
				c0-67.1-57.5-121.7-128.2-121.7C185,45.9,127.5,100.5,127.5,167.6"/>
			<path fill="#FFFFFF" d="M133.9,167.6c0-63.6,54.6-115.3,121.8-115.3c67.2,0,121.8,51.8,121.8,115.3
				c0,63.6-54.7,115.3-121.8,115.3C188.5,282.9,133.9,231.2,133.9,167.6"/>
			<path fill="#231F20" d="M182.1,99.1l5.2-4.2c3.3-2.7,4.4-6.1,2.5-8.5c-2.5-3-6.3-1.9-10.1,1.1l-4.2,3.4 M181.7,90.3l0.2-0.2
				c1.6-1.2,2.8-1.5,3.8-0.3c0.8,1.1,0.2,2.4-1.2,3.5l-0.2,0.2L181.7,90.3z"/>
			<path fill="#231F20" d="M212.4,78.4l3.7-1.5l0.9,1l5.2-2.1l-8.8-7.8l-5.4,2.2l-0.7,11.6l5.2-2.1 M212.3,75.7l-0.3-3.3l0.2-0.1
				l0.8,1.1l1.3,1.5L212.3,75.7z"/>
			<polyline fill="#231F20" points="237.8,61.6 243,61 243.8,68.1 248.2,67.6 248.6,70.9 239,72 			"/>
			<polyline fill="#231F20" points="267.8,61 273,61.7 271.9,68.8 276.4,69.4 275.8,72.8 266.3,71.4 			"/>
			<path fill="#231F20" d="M297.7,78.1l3.7,1.6l-0.1,1.4l5.1,2.2l-0.5-11.7l-5.4-2.3l-8.8,7.6l5.1,2.3 M299.6,76.2l2.2-2.6l0.2,0.1
				c-0.1,0.4-0.2,0.9-0.2,1.4l-0.2,1.9L299.6,76.2z"/>
			<path fill="#231F20" d="M323.9,90.3l0.1,0.3c0.4,1,1,2.1,1.9,2.8l1.5,0.4l-0.5-1.2l-0.7-0.8c-1.4-1.5-2.2-3.3-1.2-4.5
				c1.6-1.9,4.9-1,7.3,1c1.3,1,2.2,2.3,2.9,3.6l-2.8,1.2c-0.4-0.9-0.9-1.9-1.8-2.6l-1.2-0.3l0.5,1.1l0.8,0.9
				c1.5,1.7,2.2,3.4,1.1,4.8c-1.6,1.9-4.8,0.9-7.3-1.1c-1.4-1.2-2.8-2.8-3.7-4.3"/>
			<path fill="#231F20" d="M357.8,137.9c-0.7-0.8-2.4-1.7-2.4-1.7c-0.6-0.3-0.7-0.8-0.7-0.8c-0.3-2-0.8-2.8-0.8-2.8
				c-10.5-13.5-23.9-24.8-39.4-32.9c-2.7-1.2-5.2-1.4-5.2-1.4c-0.5,0.1-0.8-0.4-0.8-0.4c-0.9-1.3-3.7-2.7-4.7-3.2
				c-14.2-5.8-29.9-9-46.3-9c-5,0-9.9,0.3-14.7,0.9l6.4-8.6c-25.3-0.7-43.5,19-43.5,19h0.1c-6.1,2.9-11.9,6.1-17.4,9.9
				c-13.2,4.7-17,15.3-17,15.3c-3.4,2.8-10,11.6-10,11.6c-1.9,1.1-3.8,2.9-4.4,3.5c-3.1,3.2-8.6,10.3-11.6,22.6l-0.2,0.6
				c-0.1,0.7-0.2,1.5-0.4,2.3c-0.3,1.4-0.5,2.9-0.7,4.6l0.1-0.2l0,0.5l-2.2,7.8c-0.3,0.9-3.7,11.3-3.7,11.3H138v0.1
				c-9,31.7,3,50.9,5,53.9c16,46.6,61.2,80.2,114.5,80.2c40.6,0,76.5-19.6,98.4-49.5c0.6-1,0.9-3,0.9-3c0-0.7,0.5-1,0.5-1
				c1.7-0.9,2.2-1.5,2.3-1.6c11.7-18.2,18.5-39.6,18.5-62.5C378.2,179.1,370.7,156.6,357.8,137.9"/>
			<path fill="#FFFFFF" d="M206.9,115.1l0.9-0.9l0.6-0.5l0.1-0.1c0.1-6.1,1.5-10.9,1.5-10.9c11-15.3,29.1-19.4,29.1-19.4
				c2.2-0.6,0.7,0.4,0.7,0.4c-11.3,12.7-10.2,23.3-10.2,23.3l10.9,39.7c0,0-8.8-3.1-15.7-17.1c-3.1,27.8,23.1,50.4,23.1,50.4
				c1.2,1-0.7-0.1-0.7-0.1c-6.5-3.2-14.1-10.2-16.1-12.1c0.5,2.1,13.3,66.4,13.3,66.5l0.4,1.3l4.4-11l3.6,32.4
				c-16.7,15.5-34.4,9.3-35.4,9c0.4,0.7,0.7,1.2,0.7,1.2s14.4,28.3,73,25.3l1.2,0.2l-0.3,0.2c-1.1,0.4-2.8,0.7-2.8,0.7
				c-70.7,18.9-107.4-41.4-109-44.1c-0.5-0.6-3.9-5.5-5.8-10.3l0.2-0.3c0,0,7.5,7.8,28.8,9.7h0.2c-16.5-18.3-23.4-31.6-24.5-33.6
				c0,0-2-3-4.3-11.4h0.2c0.8,1.7,6.2,9.7,12.8,11.5c-5.6-9-9.1-23.4-9.5-25.4c7.6,10.7,21.2,11.5,21.2,11.5l-0.1-0.1l0.1,0
				c-22.3-22.2-17.5-46.4-8.5-63.9C196.5,126.9,203.3,118.9,206.9,115.1"/>
			<path fill="#C4CED4" d="M264.4,229.8l7.5-39c0.8-3.8,0.3,0.1,0.3,0.1l-4.3,40.7l9.4,32.3l-18.2,14c-1.9,1.4-0.4-0.3-0.4-0.3
				l14.6-15.3"/>
			<path fill="none" stroke="#231F20" stroke-width="9.600000e-02" d="M264.4,229.8l7.5-39c0.8-3.8,0.3,0.1,0.3,0.1l-4.3,40.7
				l9.4,32.3l-18.2,14c-1.9,1.4-0.4-0.3-0.4-0.3l14.6-15.3L264.4,229.8z"/>
			<path fill="#C4CED4" d="M269.1,184.5c-1.6,0.8-0.1-0.3-0.1-0.3c7.8-5.2,9.2-28.6,9.3-32.6h0.2C287,177.8,269.1,184.5,269.1,184.5
				"/>
			<path fill="none" stroke="#231F20" stroke-width="9.600000e-02" d="M269.1,184.5c-1.6,0.8-0.1-0.3-0.1-0.3
				c7.8-5.2,9.2-28.6,9.3-32.6h0.2C287,177.8,269.1,184.5,269.1,184.5z"/>
			<path fill="#C4CED4" d="M276.6,118.6c0,0-1.7-5.8-3.4-7.8c0,0,9.3-5.2,21.7-1l0,0.1C292.5,109.9,282.3,109.5,276.6,118.6"/>
			<path fill="none" stroke="#231F20" stroke-width="9.600000e-02" d="M276.6,118.6c0,0-1.7-5.8-3.4-7.8c0,0,9.3-5.2,21.7-1l0,0.1
				C292.5,109.9,282.3,109.5,276.6,118.6z"/>
			<path fill="#C4CED4" d="M263.9,138.4c0,0,5.1-6,6.5-19.3c0,0,8.4,28.3-6.7,60.9l-0.1-0.1c0,0,7.2-24.5,6.7-45.4
				c0,0-4.4,14.1-7.1,16.7c0,0-5-17.4-12.2-22.9c0,0,7.8,29.2,6.6,49.4c0,0-0.1,0.7-0.2,0c-0.7-5.8-4.4-32.4-20.8-67.7
				C236.4,109.8,253.4,119.1,263.9,138.4"/>
			<path fill="none" stroke="#231F20" stroke-width="9.600000e-02" stroke-linejoin="round" d="M263.9,138.4c0,0,5.1-6,6.5-19.3
				c0,0,8.4,28.3-6.7,60.9l-0.1-0.1c0,0,7.2-24.5,6.7-45.4c0,0-4.4,14.1-7.1,16.7c0,0-5-17.4-12.2-22.9c0,0,7.8,29.2,6.6,49.4
				c0,0-0.1,0.7-0.2,0c-0.7-5.8-4.4-32.4-20.8-67.7C236.4,109.8,253.4,119.1,263.9,138.4z"/>
			<path fill="#C4CED4" d="M327.9,289.6c0,0-50.2,42.6-114.9,12.1c0,0-35.4-13.4-52.1-48.5c-13.8-21.4-16.1-38-15.9-54
				c0,0-0.1-4,0.4-0.7c0,0,3,19.1,10.1,30c0,0,2,4,0.6-0.3c0,0-4.8-17.9-4.8-30.2c0,0-8.5-32.7,10.1-51.4c0,0-4.8,11-5.1,20.3
				c0,0-0.3,3.5,0.5,0.1c0,0,3.9-15.3,16.3-29.4c0,0,4.4-14,11.4-19.4c0,0-3.4,5.9-3.4,10.2c0,0,12.3-15.5,20.3-17.8
				c0,0-35.3,30.8-28.3,83.9c0,0-8.5-13.5-3.3-40.6c0,0-26.3,31.5,13.8,81.4c0,0-13-2.4-23-21.9c0,0,0.8,52.9,59,83.4
				c0,0,47.7,27.5,107.5-7.6C327.2,289.2,333.3,285.2,327.9,289.6"/>
			<path fill="none" stroke="#231F20" stroke-width="9.600000e-02" stroke-linejoin="round" d="M327.9,289.6
				c0,0-50.2,42.6-114.9,12.1c0,0-35.4-13.4-52.1-48.5c-13.8-21.4-16.1-38-15.9-54c0,0-0.1-4,0.4-0.7c0,0,3,19.1,10.1,30
				c0,0,2,4,0.6-0.3c0,0-4.8-17.9-4.8-30.2c0,0-8.5-32.7,10.1-51.4c0,0-4.8,11-5.1,20.3c0,0-0.3,3.5,0.5,0.1c0,0,3.9-15.3,16.3-29.4
				c0,0,4.4-14,11.4-19.4c0,0-3.4,5.9-3.4,10.2c0,0,12.3-15.5,20.3-17.8c0,0-35.3,30.8-28.3,83.9c0,0-8.5-13.5-3.3-40.6
				c0,0-26.3,31.5,13.8,81.4c0,0-13-2.4-23-21.9c0,0,0.8,52.9,59,83.4c0,0,47.7,27.5,107.5-7.6C327.2,289.2,333.3,285.2,327.9,289.6
				z"/>
			<path fill="#0075BF" d="M260.3,95.7c53.3,0,81.7,38.1,81.7,38.1c2.3,2.7-4.2,3.4-4.2,3.4c-37.4,5.2-55.4-11.2-55.4-11.2
				c3-8.3,19.1-15.8,19.1-15.8c-15.9-9.2-30.4-2.4-30.4-2.4c-4.7-5.8-12.1-11.5-12.1-11.5C257.4,95.4,260.3,95.7,260.3,95.7"/>
			<path fill="none" stroke="#0075BF" stroke-width="9.600000e-02" d="M260.3,95.7c53.3,0,81.7,38.1,81.7,38.1
				c2.3,2.7-4.2,3.4-4.2,3.4c-37.4,5.2-55.4-11.2-55.4-11.2c3-8.3,19.1-15.8,19.1-15.8c-15.9-9.2-30.4-2.4-30.4-2.4
				c-4.7-5.8-12.1-11.5-12.1-11.5C257.4,95.4,260.3,95.7,260.3,95.7z"/>
			<path fill="#0075BF" d="M284.5,187.3c35.6,33.8,23.6,90.3,23.6,90.3c-0.7,1.9-2.7,2.4-2.7,2.4c-25,5.5-41.4,0.3-41.4,0.3
				l18.1-14.5L273,232l2.5-22.6c7.8,2.3,7.8,21.8,7.8,21.8C297.8,200.7,284.5,187.3,284.5,187.3"/>
			<path fill="none" stroke="#0075BF" stroke-width="9.600000e-02" stroke-linejoin="round" d="M284.5,187.3
				c35.6,33.8,23.6,90.3,23.6,90.3c-0.7,1.9-2.7,2.4-2.7,2.4c-25,5.5-41.4,0.3-41.4,0.3l18.1-14.5L273,232l2.5-22.6
				c7.8,2.3,7.8,21.8,7.8,21.8C297.8,200.7,284.5,187.3,284.5,187.3z"/>
			<path fill="#0075BF" d="M350.3,254.2c0,0-13.6,17.3-33.8,23.8c0,0-3.2,1.2-2.5-2.1c0,0,15.1-58.3-24.9-97.2c0,0-1.8-1.2,0.5-0.6
				c0,0,6.5,2,10.6,7.1c0,0-0.7-11.5-8.4-20.4c0,0-2.2-2.3,0.1-0.6c0,0,58.2,27.5,60.1,83.7C352.2,248,352.6,252.2,350.3,254.2"/>
			<path fill="none" stroke="#0075BF" stroke-width="9.600000e-02" d="M350.3,254.2c0,0-13.6,17.3-33.8,23.8c0,0-3.2,1.2-2.5-2.1
				c0,0,15.1-58.3-24.9-97.2c0,0-1.8-1.2,0.5-0.6c0,0,6.5,2,10.6,7.1c0,0-0.7-11.5-8.4-20.4c0,0-2.2-2.3,0.1-0.6
				c0,0,58.2,27.5,60.1,83.7C352.2,248,352.6,252.2,350.3,254.2z"/>
			<path fill="#0075BF" d="M357,237.3c-1.5-61.4-78.1-96.6-78.1-96.6c9.2-0.1,14.2,6.6,14.2,6.6c0.2-3-1.1-6.6-1.1-6.6
				c18.2,6.9,51.4,0.2,51.4,0.2c3.9-0.4,4.8,1.9,4.8,1.9c7.3,8.1,16.4,27,17.9,49.8C368.3,224.8,357.3,246.5,357,237.3"/>
			<path fill="none" stroke="#0075BF" stroke-width="9.600000e-02" stroke-miterlimit="5" d="M357,237.3
				c-1.5-61.4-78.1-96.6-78.1-96.6c9.2-0.1,14.2,6.6,14.2,6.6c0.2-3-1.1-6.6-1.1-6.6c18.2,6.9,51.4,0.2,51.4,0.2
				c3.9-0.4,4.8,1.9,4.8,1.9c7.3,8.1,16.4,27,17.9,49.8C368.3,224.8,357.3,246.5,357,237.3z"/>
			<path fill="#231F20" d="M232.1,89l0.1-0.2l0,0c-0.7,0.2-12.3,3.6-15.8,21.4l0.2,0c1-1.7,4.7-7.3,8.1-5.6l0-0.3
				C224.8,102.8,226,96.6,232.1,89"/>
			<path fill="#231F20" d="M223.1,250.1c-2.5-5.1-18.7-40.5-18.7-40.5c-5.1,1.6-11.3-2.5-11.3-2.5h0c8,21.2,26.8,39.8,29.8,43.1
				l0,0.1c0.5,0.5,0.5,0.3,0.5,0.3L223.1,250.1"/>
			<path fill="#C4CED4" d="M244,258.8c0.2-1.7,3.4-21.7-6.7-24.5c0,0-6.9-1.8-6.5,12.7C240.3,225.3,244,258.7,244,258.8"/>
			<path fill="#231F20" d="M230.8,247l3.5,7.6c0,0,1.9-20.4,9.7,4.2C244,258.8,240.6,224,230.8,247"/>
			<path fill="#231F20" d="M207.1,134.7c-14.7,33.5,18.3,47.3,18.7,47.5h0l-1.7-7.7l-1-4.4c-0.8-0.2-1.6-0.6-2.3-0.9l-0.7-0.3
				l-0.9-0.5c-14.4-7.6-13-26-12.2-31.9l0.1-0.2l0.1-0.5c0.1-0.5,0.2-0.9,0.2-1.1l0-0.2L207.1,134.7"/>
			<path fill="#231F20" d="M214.6,153.6c0,0,2,6.5,10.4,6.8c0,0-0.4-0.4-0.9-1.4c-1.6-2.8-5.6-11.3-6.1-20.2
				C218,138.7,210.7,145.1,214.6,153.6"/>
			<path fill="#C4CED4" d="M228.7,229l-2.4-42.1l14.1,47C240.5,233.8,235.9,222.7,228.7,229"/>
			<path fill="#C4CED4" d="M218.1,128.3c-0.4,7-0.1,10.5-0.1,10.5s-8.4,6.4-2,17.3C206.9,146.3,214.5,133.7,218.1,128.3"/>
			<path fill="#C4CED4" d="M229.6,107.9l3.1,25.2c0,0,1.6,6.9-7.9-3.5c0,0,4.6,11.6,14,16.5c0.5,0.2,1.1,0.5,1.6,0.7l0.2,0.1
				L230,107.9l-0.3-0.5L229.6,107.9"/>
		</g>
		<g>
			<defs>
				<path id="SVGID_15_" d="M231.1,244.7c-0.1,0.7-0.1,1.3-0.3,2.3c9.4-21.7,13.3,11.7,13.3,11.8c0.1-0.8,0-3.1,0.2-6.3
					c0.2-6.7-0.1-16.3-6.9-18.2c0,0-0.2-0.1-0.7-0.1C235.1,234.2,231.3,235.2,231.1,244.7"/>
			</defs>
			<clipPath id="SVGID_4_">
				<use xlink:href="#SVGID_15_"  overflow="visible"/>
			</clipPath>
			<path clip-path="url(#SVGID_4_)" fill="none" stroke="#231F20" stroke-width="9.600000e-02" d="M230.8,247l3.5,7.6
				c0,0,1.9-20.4,9.7,4.2C244,258.8,240.6,224,230.8,247z"/>
		</g>
		<g>
			<defs>
				<path id="SVGID_17_" d="M213.6,152.5c0.7,1.2,1.3,2.2,2.4,3.7c-6.5-10.9,2-17.3,2-17.3s-0.4-0.8-0.4-2.3c0-1.7,0.3-4.4,0.5-8.2
					C214.9,133,208.9,143.3,213.6,152.5"/>
			</defs>
			<clipPath id="SVGID_6_">
				<use xlink:href="#SVGID_17_"  overflow="visible"/>
			</clipPath>
			<path clip-path="url(#SVGID_6_)" fill="none" stroke="#231F20" stroke-width="9.600000e-02" stroke-linecap="square" d="
				M218,138.9c0,0-8.4,6.4-2,17.3"/>
		</g>
		<g>
			<defs>
				<path id="SVGID_19_" d="M229.8,108.4l3,24.7c0,0,1.2,5.6-4.9,0c-0.8-0.8-2.4-2.6-3-3.4c0,0,4.6,11.5,14,16.4
					c0.5,0.3,1.1,0.5,1.6,0.8l0.2,0.1L230,107.9l-0.3-0.5C229.7,107.8,229.7,108.2,229.8,108.4"/>
			</defs>
			<clipPath id="SVGID_8_">
				<use xlink:href="#SVGID_19_"  overflow="visible"/>
			</clipPath>
			<path clip-path="url(#SVGID_8_)" fill="none" stroke="#231F20" stroke-width="9.600000e-02" stroke-linejoin="round" d="
				M224.8,129.7c0,0,4.6,11.6,14,16.5c0.5,0.2,1.1,0.5,1.7,0.7l0.2,0.1L230,107.9l-0.3-0.5"/>
		</g>
		<g>
			<defs>
				<path id="SVGID_21_" d="M253.4,377c-3.3,3.2-8.5,3.8-9.1,3.9h-0.2l-18.9,0.6l-0.2-4.4c-0.7,0.9-1.5,1.8-2.5,2.6
					c-2.7,2.2-8,2.7-9.6,2.9c-0.1,0-5.2,0.5-9.7,1l5.8,9.5l0.9,1.3c20.3,29.7,39.5,48.3,45.2,53.6c5.5-5.3,24-23.8,44.9-53.3
					l0.8-1.2l6.4-10.2l-8.1-0.9l-12.5-0.9l-17.2-0.5v0c-0.8,0-15.3-0.4-15.3-0.4l0.2-4.8L253.4,377z M255.1,136.9l-0.7,0.2
					c0,0-155.1-43.4-162.5-45.5c1.9,13.8,9,61.1,20.7,104.5c9,33.4,19.6,58.8,29.9,83.3l7.5,17.8l8.3,13.5
					c6.1,1.3,12.4,2.8,12.5,2.8c0.4,0.1,8.5,2.2,13.7,8.3l-0.2-1.4l-1-5.2l22.7,2.9c0.7,0,19.6,1.8,19.6,1.8l0.1,3.4
					c0,0,0,1.3,0.1,3.5c0.5-0.7,1-1.4,1.6-2c4.1-3.8,9.9-4.1,10.7-4.1l14.7,0.1l0-10.6h14.6l0,10.4c6.1-0.2,12.5-0.4,12.5-0.4
					c1.4-0.1,6.4-0.1,9.4,2.2c0.6,0.4,1,0.9,1.5,1.4l0.5-4.1l15.8-1.5l4.9-0.5l-1.1,6.5c0.7-1,1.4-2,2.3-2.8c4-4,11.5-5.3,12.3-5.4
					l19.5-3.3l3.8-0.6c1-0.2,2.6-0.6,4.5-1l7.8-12.3l2.1-4.8c14-32.3,25-57.8,35.7-98.6c11.3-42.9,18.1-90.3,20-104
					C411.3,93.5,255.1,136.9,255.1,136.9"/>
			</defs>
			<clipPath id="SVGID_10_">
				<use xlink:href="#SVGID_21_"  overflow="visible"/>
			</clipPath>
			<path clip-path="url(#SVGID_10_)" fill="none" stroke="#0075BF" stroke-width="9.600000e-02" d="M429.1,276.7
				c-0.6,0.3-49.8,21.5-115.4,30.7c-16.8,8.6-35.9,13.5-56.2,13.5c-20.5,0-39.7-4.9-56.6-13.7c-64-9.5-121.1-31.1-121.8-31.3
				l-19.5-7.5l6.9,18.8c0.1,0.5,0.1,0.5,43.9,118.7l3.1,8.5l8.7-2.8c18.8-6,68.2-19.7,127.3-20.3c1.3-3.6,2.7-7.4,2.7-7.7l2.1-5.8
				c0,0,2.7,8.3,4.4,13.5c54.8,0.6,102.3,11.9,122.1,18.6l8.6,2.9l3.3-8.5c1.2-3.1,29.9-70.5,49-115l9.4-22.1L429.1,276.7z"/>
		</g>
	</g>
</g>
</svg>
