<?xml version="1.0" encoding="utf-8"?>
<!-- Generator: Adobe Illustrator 18.0.0, SVG Export Plug-In . SVG Version: 6.00 Build 0)  -->
<!DOCTYPE svg PUBLIC "-//W3C//DTD SVG 1.1//EN" "http://www.w3.org/Graphics/SVG/1.1/DTD/svg11.dtd">
<svg version="1.1" xmlns="http://www.w3.org/2000/svg" xmlns:xlink="http://www.w3.org/1999/xlink" x="0px" y="0px" width="512px"
	 height="512px" viewBox="0 0 512 512" enable-background="new 0 0 512 512" xml:space="preserve">
<g id="white_block">
	<rect opacity="0" fill="#FFFFFF" width="512" height="512"/>
</g>
<g id="Logos">
	<g>
		<path fill="#FFFFFF" d="M478,208.3c0,0-10.2,3.4-11.1,3.7c-10.7-8.1-23.6-7.3-24.2-7.2c0,0-9.8,0-12.7,0l0.7-1.5
			c0,0-7.9-10-10.2-12.9c3.6,0,17.2-0.1,17.2-0.1l-2.2-2.1c-58.9-55.7-96.1-59.8-97.6-60l-0.7-0.1c0,0-1,1.2-1.5,1.8
			c-1.8-1.6-69.2-58.4-69.2-58.4s-70.7,58.1-72.8,59.7c-0.4-0.6-1.3-1.9-1.3-1.9l-0.8,0.1c-52.8,10.3-98.8,58.2-99.3,58.7l-1.9,2.1
			h14.7c-2.4,2.5-7.5,8-7.5,8s3.4,5.5,4.9,7.8H34v37.4l1.3-0.1c1.3,0,2.3,0.2,3,0.9c0.7,0.7,0.8,1.8,0.8,2.1v0.1
			c0,0.7,0.5,90.1,0.5,90.1l0,0.9c0,3.3-1,4.2-1.1,4.3l-4.1,1.2v36.7h36.8c0,0,1.7-0.9,2.8-1.5l0.5,1.6h27.4c0,0,12.4-7.3,13.7-8
			c10.1,8.9,21.8,8.2,22.3,8.2c9.1-0.1,16.6-4.8,16.9-5c0,0,11.5-7.5,14.9-9.7c10.5,15.6,27.6,14.7,27.8,14.7
			c10.5,0,16.9-4.6,17.2-4.8c-0.1,0,11.9-7.7,15.3-9.9c9.6,14.6,26.5,14.6,27.3,14.6c11.9,0.6,20.6-6.1,23.4-8.6
			c1.3,1.6,6.7,8.5,6.7,8.5h61.1v-8.3c2.8,2.1,11,8.3,11,8.3h44V371c2.7,1.5,12.3,6.7,12.3,6.7s4.9-3.8,6-4.7
			c8.9,6.9,20.8,6.9,21.4,6.8c23.7,0,31.2-16.7,31.2-16.9c3.6-6.5,3.8-15.3,3.8-15.7v-31.1c0-18.7-10.8-27.9-11.3-28.2
			c-1.9-2-7.7-6.1-11.5-8.6H478V208.3z M476.8,278h-25.6c0,0,11.8,7.8,14.7,10.8c0,0,10.8,8.9,10.8,27.3v31.1c0,0-0.1,8.9-3.7,15.3
			l-0.1,0.2c-0.8,1.8-8.3,16-30,16c0,0-12.7,0.2-21.4-7.2l-6.1,4.8l-13.4-7.3v9.4h-42.4l-12.6-9.6v9.6h-59.3l-7.2-9.1
			c0,0-9.5,9.9-23.5,9.2c0,0-17.7,0.3-26.9-15l-16.3,10.6c0,0-6.2,4.6-16.5,4.6c0,0-17.3,1.3-27.4-15.1c0,0-11.5,7.6-15.8,10.4
			c0,0-7.4,4.8-16.4,4.9c0,0-12.1,0.9-22.1-8.4l-14.2,8.3H75.3l-0.6-2.1l-3.9,2H35.6v-34.5l3.4-1l0.1,0c0.4-0.3,1.9-1.6,1.7-6.2
			l-0.5-90c0,0,0.4-4.7-5-4.4v-34.9h69.5l-5.5-8.9l8.8-9.4H93.3c0,0,45.6-48,98.6-58.3l1.6,2.4l73-60l69.4,58.6l1.9-2.3
			c0,0,37.6,3.6,96.9,59.6l-16.7,0.1l11.3,14.3l-1.2,2.6h14.7c0,0,13.4-1.1,23.9,7.3l10-3.3V278z"/>
		<path fill="#4D90CD" d="M438.5,268.8l0-1.2L438.5,268.8z"/>
		<path fill="#4D90CD" d="M223.8,355.4c-0.3,0.6-0.6,1.1-0.9,1.7C223.2,356.5,223.5,356,223.8,355.4"/>
		<path fill="#4D90CD" d="M155.3,365.9l-0.8,0.7L155.3,365.9z"/>
		<path fill="#4D90CD" d="M125.2,231.4l-0.1-0.2L125.2,231.4z"/>
		<path fill="#4D90CD" d="M438.4,267v-0.1V267z"/>
		<path fill="#4D90CD" d="M442.8,206h-14.7l1.2-2.6L418,189.2l16.7-0.1c-59.3-56-96.9-59.6-96.9-59.6l-1.9,2.3l-69.4-58.6l-73,60
			l-1.6-2.4C138.8,141,93.3,189,93.3,189H108l-8.8,9.4l5.5,8.9H35.2v34.9c5.4-0.3,5,4.4,5,4.4l0.5,90c0.2,4.6-1.3,5.9-1.7,6.2
			l-0.1,0l-3.4,1v34.5h35.2l3.9-2l0.6,2.2h26.1l14.2-8.3c10,9.3,22.1,8.4,22.1,8.4c9-0.1,16.4-4.9,16.4-4.9
			c4.3-2.8,15.8-10.4,15.8-10.4c10.1,16.4,27.4,15.1,27.4,15.1c10.4,0,16.5-4.6,16.5-4.6l16.3-10.6c9.2,15.3,26.9,15,26.9,15
			c14,0.7,23.5-9.2,23.5-9.2l7.2,9.1h59.3v-9.6l12.6,9.6H402v-9.4l13.4,7.3l6.1-4.8c8.7,7.3,21.4,7.2,21.4,7.2
			c21.7,0,29.2-14.2,30-16l0.1-0.2c3.5-6.4,3.7-15.3,3.7-15.3v-31.1c0-18.4-10.8-27.3-10.8-27.3c-2.9-3-14.7-10.8-14.7-10.8h25.6
			v-68l-10,3.3C456.2,204.9,442.8,206,442.8,206 M471.7,217.1v1.2v53.6v0.9h-0.8l-15.2,0l-6.6,0h-0.8c0,0-8.8-2.9-9.8-3.2l0-0.4
			c0.1,0.9,0.2,2.1,0.5,3.3c0.5,2,1.4,4.1,3,5.2c0,0.1,8,5.6,19.7,14.1c0.4,0.4,10.3,8.1,10,24.9v32.1c0,0.4-0.1,10.1-7.3,17.3
			c-5.1,5.1-12.5,7.7-21.9,7.6c-0.5,0-11.4,0.6-21.1-8.9l-5.2,4.3l-0.9,0.7l-0.4,0.3c0,0-14.7-7.8-17.8-9.5v12.8l-28,0l-8.3,0
			c0,0-14.9-11.1-18.2-13.6v13.6l-40.3,0h-12.6c0,0-7.8-9-9.5-11.1c-9.5,11.5-21.2,11.3-21.4,11.3c-9.2-0.3-16.5-3.3-21.5-8.8
			c-2.4-2.7-4.1-5.6-5.2-8.5c-2.5,1.7-14.3,9-17.6,11l-0.9,0.7c-7.8,5.8-15.2,5.6-15.3,5.6c-8.5-0.1-15.4-2.6-20.3-7.7
			c-2.9-3-4.8-6.5-6.1-9.9c-2.7,1.8-15.8,10.2-18.9,12.1c-1.1,0.8-2.1,1.6-3.2,2.2c-6.2,3.5-12.2,3.5-12.5,3.5
			c-7.9,0-14.3-2.6-18.9-7.7c-0.6-0.6-1.1-1.3-1.6-1.9c-3.6,2.1-16.4,9.3-16.4,9.3l-0.8,0h-0.8H80h-0.7l-0.1-0.7l-0.5-2.3
			c-2.4,0.9-9.1,2.9-9.1,2.9l-0.8,0h0H41.5h-0.8v-0.8l0-23.9v-0.5l0.4-0.2c0.2-0.1,4.7-2.8,4.6-10.3l-0.1-88c0-0.1,0.3-9.5-4.5-11.9
			l-0.5-0.2v-0.5l0.1-24v-0.8h0.1h0.8h23.7h0.7l11.7,0v0.8v-0.8h0.8h26.2h0.8v0h7.7l-0.1-0.2c-4-6.3-7.3-11.6-7.3-11.6l-0.7-1.1
			l0.8-0.9c0.2-0.2,3.9-5,13.8-13.6h-14.9l3.2-3c1.7-1.5,41.3-37.7,80.7-45.7l1.1-0.2l0.7,0.9c0,0,1.5,2.1,2.4,3.4l73.4-60.5
			l70.1,59.5c0.9-1.2,2.7-3.5,2.7-3.5l0.7-0.8l1,0.2c33.1,6.1,74.1,42.3,78.7,46.5l3.4,3h-16.6c9.4,9.5,16.2,17.5,16.9,18.4l0.3,0.2
			l-0.9,1.5l-4.6,7.3c7.6,0,19.8-0.8,23.5-0.8l-0.2,0c0.6-0.1,1.2-0.1,1.8-0.1c0.6-0.1,14.1-0.5,22.7,8.2l5-1.7L471.7,217.1z"/>
		<path fill="#4D90CD" d="M222,358.6l-0.1,0.1L222,358.6z"/>
		<path fill="#4D90CD" d="M438.4,267.6v-0.5V267.6z"/>
		<path fill="#4D90CD" d="M225.2,352.4c-0.4,0.9-0.8,1.7-1.2,2.6C224.4,354.2,224.8,353.3,225.2,352.4"/>
		<path fill="#041E41" d="M448.2,248.5c0,0,0.1-4.2-2-6.3c-0.8-0.9-1.9-1.2-3.3-1.2c-0.2,0-4.4,0.1-4.5,8.3v17.5v0v0.1v0v0.5v0.1
			l0,1.2v0.2l0,0.4c1,0.3,9.8,3.2,9.8,3.2l-0.1-0.8V248.5z"/>
		<path fill="#041E41" d="M63.2,337.5c0,0.1,0.8,7.7,6,10.4l0.5,0.2v0.5v23.9l-0.1,0.8c0,0,6.7-2.1,9.1-2.9l-15.5-75.9V337.5z"/>
		<path fill="#FDB927" d="M125.1,231.2l0.1,0.1c0.4,0.7,0.7,1,0.7,1l0.8,1.3l1.4-0.7c63.9-32.8,136.2-30.9,139.2-30.8
			c78.5,3.4,132.1,34.5,132.6,34.7l1.5,0.9l16.5-26l4.6-7.3l0.9-1.5l-0.3-0.2c-0.8-0.9-7.5-8.9-16.9-18.4h16.6l-3.4-3
			c-4.5-4.1-45.6-40.3-78.7-46.5l-1-0.2l-0.7,0.8c0,0-1.8,2.3-2.7,3.5l0.3,0.2l1.9,1.7l2.2-2.9l0.2,0.1
			c12.5,6.7,36.9,25.4,37.1,25.6c15,10.5,30.3,26.7,38.1,35.4l-0.4,0.5c-6.4-3.3-13.1-6.4-20-9.4c-3.7-1.6-7.3-3.1-11-4.5
			c-69.1-26.8-127-23.8-127.6-23.8c-9,0.3-18.2,0.8-27.1,1.7c-9.5,0.9-19.1,2.1-28.6,3.7h0c-18.4,3.1-36.2,7.5-52.8,13
			c-2.2,0.7-4.4,1.5-6.6,2.3l0,0c-12.7,4.5-22.1,8.8-27.7,11.6l-0.3-0.5c9.2-9,31.2-28,74.5-54.4l0.2-0.1l1.9,2.6l2-1.6l0.2-0.2
			c-0.9-1.2-2.4-3.4-2.4-3.4l-0.7-0.9l-1.1,0.2c-39.4,8-79.1,44.1-80.7,45.7l-3.2,3h14.9c-9.9,8.7-13.6,13.4-13.8,13.6l-0.8,0.9
			l0.7,1.1c0,0,3.3,5.3,7.3,11.6l0.1,0.2C117.7,219.5,123.1,228.1,125.1,231.2 M379.5,162L379.5,162c-0.2-0.1-16.3-12.5-29.4-21
			l0.3-0.5c26.3,9.1,55.9,33.3,64.3,40.5l0.6,0.5h-0.8l-12.1-0.1C394,173.3,386.3,166.8,379.5,162 M112.1,181.8l0.6-0.5
			c8.2-7.1,37.2-30.9,67.6-40.2l0.3,0.6c-22.8,14.2-41.9,27.7-56.8,40.1H112.1z M108.7,199.8l0.3-0.2c9.7-5.5,62.6-32.9,148.3-35.3
			c3.2-0.2,80-3.5,161.8,39.6l0.3,0.1l-19,29.9l-0.3-0.2c-9.4-5.2-59.9-31.3-132.7-34.5c-0.8,0-73.8-2.7-139.5,30.5l-0.2,0.1
			L108.7,199.8z"/>
		<path fill="#4D90CD" d="M415.3,181.6l-0.6-0.5c-8.4-7.2-38-31.5-64.3-40.5l-0.3,0.5c13.1,8.4,29.2,20.8,29.3,21h0
			c6.8,4.8,14.5,11.3,22.9,19.5l12.1,0.1H415.3z"/>
		<path fill="#4D90CD" d="M180.5,141.7l-0.3-0.6c-30.4,9.3-59.4,33.1-67.6,40.2l-0.6,0.5h11.6C138.7,169.4,157.7,155.9,180.5,141.7"
			/>
		<path fill="#4D90CD" d="M391.6,204.8c0,0,1.1-2.5-3.2-4l-9.1-3.5l-1.9,4.7l9.9,3.9C387.3,206,390.6,207.7,391.6,204.8"/>
		<path fill="#4D90CD" d="M155.2,206.9c0,0,6.4-2.5,4.3-9.1c0,0-1.7-5.8-9.5-3.6l-8.1,3l4.7,12.8L155.2,206.9z"/>
		<path fill="#4D90CD" d="M127.9,229.9c65.7-33.2,138.8-30.6,139.5-30.5c72.7,3.2,123.2,29.3,132.7,34.5l0.3,0.2l19-29.9l-0.3-0.1
			c-81.8-43.1-158.6-39.8-161.8-39.6c-85.7,2.5-138.5,29.8-148.3,35.3l-0.3,0.2l19,30.2L127.9,229.9z M363.7,211.4
			c0.7,0.3,0.9-0.4,0.9-0.4l8.2-20.8l-0.6-0.5l0.2-0.5l22,8.7c8.8,4.1,5.4,10.5,5.4,10.5c-2.6,5.3-10.2,4-10.2,4l3.6,10.3l0.4,0.4
			l-0.1,0.3l-10.2-3.8l0.1-0.4c0.8,0.3,1.2-0.7,1.2-0.7c-0.2-0.7-3.6-9.7-3.6-9.7l-5.5-2.1l-2.9,7.4c-0.3,0.7,0.4,1,0.4,1l-0.2,0.5
			l-9.4-3.7L363.7,211.4z M322.5,199.5c0.8,0.2,0.8-0.5,0.8-0.5l5.3-21.7l-0.7-0.5l0.1-0.5l26.9,6.4c0,0,1.2,0.5,1.6-0.6l0.4,0.1
			l-1.7,7.3l-0.3-0.1c0,0,0-0.8-0.6-1.4l-18.5-4.3l-1,4l11,2.5c0,0,1.1,0.2,1.6-0.6l0.5,0l-1.6,6.6l-0.4-0.1c0,0,0-0.5-0.5-0.9
			l-11.6-2.8l-1,4.5l18.2,4.3c0,0,0.7,0.3,1.3-0.8l0.4,0.1l-1.8,7.3l-0.3-0.1c0,0-0.3-1.1-0.9-1.1l-27.3-6.5L322.5,199.5z
			 M276.8,170.1l11.3,0.9l-0.1,0.5l-0.7,0.5c0.1,0.4,0.1,0.7,1.3,3l5.6,11.7l8.2-11.6c0.3-0.6,0.7-1,0.8-1.6l-0.4-0.7l0.1-0.6
			l9.5,0.9l-0.1,0.5c-0.9-0.1-1.1,0.4-1.7,1.4l-12.2,19.1l-0.5,1.1l0.4,0.6l0,0.5l-11-1.1l0.1-0.6c0.6,0,0.3-0.7,0.3-0.7l-0.3-0.8
			l-9-20.7c-0.4-1.3-0.6-1.4-1.6-1.8L276.8,170.1z M240,170.4v0.5c0,0-0.9,0-0.7,0.6c0.2,0.5,0.6,1,0.6,1l14.1,11.2l-0.7-12.7
			c0,0-0.1-0.7-0.9-0.6l0-0.5l9.5-0.4l0,0.5c-0.8,0-0.8,0.7-0.8,0.7l1,21.9l0.9,0.3l0.1,0.5l-9.8,0.7l0-0.4c0,0,0.9,0,0.7-0.6
			c-0.2-0.5-0.7-1-0.7-1l0.5,0.3L236.4,179l0.9,14.8c0,0,0.1,0.7,0.9,0.6v0.5l-9.3,0.4l-0.1-0.5c0.8,0,0.8-0.7,0.8-0.7l-1-21.9
			l-0.9-0.3l-0.1-0.5L240,170.4z M206.2,173.6c0,0,1.3,0,1.2-1.3l0.3-0.1l1.6,7.3l-0.3,0.1c0,0-0.4-0.8-1.1-1l-18.6,4.1l0.8,4
			l11-2.5c0,0,1.1-0.3,1.2-1.3l0.5-0.2l1.3,6.7l-0.4,0.1c0,0-0.2-0.5-0.9-0.7l-11.7,2.4l1,4.6l18.3-4.1c0,0,0.8-0.1,0.8-1.3l0.4-0.1
			l1.6,7.4L213,198c0,0-0.8-0.9-1.3-0.6l-27.4,5.9l-0.1-0.5c0.8-0.1,0.6-0.8,0.6-0.8l-4.6-21.8l-0.8-0.1l-0.1-0.5L206.2,173.6z
			 M150.5,188.3c14.4-3.4,16.7,6.3,16.7,6.3c3.5,10.9-7.7,15.9-7.7,15.9l-19.8,7.5l-0.2-0.5c0.8-0.3,0.6-0.9,0.6-0.9l-7.4-20.7h-0.9
			l-0.3-0.4L150.5,188.3z"/>
		<path fill="#4D90CD" d="M190.8,142.6l0.2-0.2l-0.3-0.5l-1.9-2.6l-0.2,0.1c-43.3,26.4-65.3,45.4-74.5,54.4l0.3,0.5
			c5.6-2.8,15-7.1,27.7-11.6v0c2.2-0.8,4.4-1.5,6.6-2.3c-2.2,0.7-4.3,1.4-6.3,2.1C146.2,179.4,190.8,142.6,190.8,142.6"/>
		<path fill="#4D90CD" d="M395.2,189.9c-3.5-1.4-7-2.7-10.4-4c3.6,1.4,7.3,2.9,11,4.5c6.9,3,13.6,6.1,20,9.4l0.4-0.5
			c-7.8-8.7-23.1-24.9-38.1-35.4c-0.2-0.1-24.6-18.8-37.1-25.6l-0.2-0.1l-2.2,2.9l-0.4,0.5L395.2,189.9z"/>
		<path fill="#FFFFFF" d="M132.7,196l7.4,20.7c0,0,0.2,0.7-0.6,0.9l0.3,0.5l19.8-7.5c0,0,11.2-5,7.7-15.9c0,0-2.3-9.7-16.7-6.3
			l-19.1,7.3l0.3,0.4H132.7z M150.1,194.2c7.8-2.2,9.5,3.6,9.5,3.6c2.1,6.6-4.3,9.1-4.3,9.1l-8.6,3.2l-4.7-12.8L150.1,194.2z"/>
		<path fill="#FFFFFF" d="M180.1,180.1l4.6,21.8c0,0,0.2,0.7-0.6,0.8l0.1,0.5l27.4-5.9c0.5-0.3,1.3,0.6,1.3,0.6l0.3-0.1l-1.6-7.4
			l-0.4,0.1c-0.1,1.3-0.8,1.3-0.8,1.3l-18.3,4l-1-4.5l11.7-2.4c0.7,0.2,0.9,0.7,0.9,0.7l0.4-0.1l-1.3-6.7l-0.5,0.2
			c-0.1,0.9-1.2,1.2-1.2,1.2l-11,2.5l-0.8-4l18.6-4.1c0.7,0.3,1.1,1,1.1,1l0.3-0.1l-1.6-7.3l-0.3,0.1c0.1,1.2-1.2,1.3-1.2,1.3
			l-27.1,5.8l0.1,0.5L180.1,180.1z"/>
		<path fill="#FFFFFF" d="M228.6,172.1l1,21.9c0,0-0.1,0.7-0.8,0.7l0.1,0.5l9.3-0.4v-0.5c-0.8,0.1-0.9-0.7-0.9-0.7l-0.9-14.7
			l17.5,13.5l-0.5-0.3c0,0,0.5,0.5,0.7,1c0.2,0.6-0.7,0.6-0.7,0.6l0,0.4l9.8-0.7l-0.1-0.5l-0.9-0.3l-1-21.9c0,0,0-0.7,0.8-0.7l0-0.5
			l-9.5,0.4l0,0.5c0.8-0.1,0.9,0.6,0.9,0.6l0.7,12.7l-14.1-11.2c0,0-0.5-0.5-0.7-1c-0.2-0.6,0.7-0.6,0.7-0.6v-0.5l-12.3,0.9l0.1,0.5
			L228.6,172.1z"/>
		<path fill="#FFFFFF" d="M350.6,207.6l0.3,0.1l1.8-7.3l-0.4-0.1c-0.6,1.1-1.3,0.8-1.3,0.8l-18.2-4.3l1-4.5l11.6,2.8
			c0.5,0.5,0.5,0.9,0.5,0.9l0.4,0.1l1.6-6.6l-0.5,0c-0.5,0.8-1.6,0.6-1.6,0.6l-11-2.5l1-4l18.5,4.3c0.6,0.5,0.6,1.4,0.6,1.4l0.3,0.1
			l1.7-7.3l-0.4-0.1c-0.4,1.1-1.6,0.6-1.6,0.6l-26.9-6.4l-0.1,0.5l0.7,0.5l-5.3,21.7c0,0-0.1,0.7-0.8,0.5l-0.1,0.6l27.3,6.5
			C350.3,206.5,350.6,207.6,350.6,207.6"/>
		<path fill="#FFFFFF" d="M373.1,215.2c0,0-0.8-0.3-0.4-1l2.9-7.4l5.5,2.1c0,0,3.4,9,3.6,9.7c0,0-0.3,0.9-1.2,0.7l-0.1,0.4l10.2,3.8
			l0.1-0.3l-0.4-0.4l-3.6-10.3c0,0,7.6,1.3,10.2-4c0,0,3.4-6.4-5.4-10.5l-22-8.7l-0.2,0.5l0.6,0.5l-8.2,20.8c0,0-0.2,0.7-0.9,0.4
			l-0.2,0.5l9.4,3.7L373.1,215.2z M379.3,197.4l9.1,3.5c4.3,1.4,3.2,4,3.2,4c-1,2.9-4.3,1.2-4.3,1.2l-9.9-3.9L379.3,197.4z"/>
		<path fill="#FFFFFF" d="M278.3,172.4l9,20.7l0.3,0.8c0,0,0.3,0.7-0.3,0.7l0,0.6l11,1.1l0-0.5l-0.4-0.6l0.5-1.1l12.2-19.1
			c0.6-1,0.8-1.4,1.7-1.4l0.1-0.5l-9.5-0.9l-0.1,0.6l0.4,0.7c-0.1,0.5-0.4,0.9-0.8,1.5l-8.2,11.6l-5.6-11.7c-1.2-2.3-1.3-2.6-1.3-3
			l0.7-0.5l0.1-0.5l-11.3-0.9l-0.1,0.5C277.8,171,278,171.1,278.3,172.4"/>
		<path fill="#FFFFFF" d="M100.5,248.1c0.2-9.3,4.1-9.8,4.1-9.8l0.8-0.1l0-0.8V213v-0.8v0h-0.8H78.3h-0.8v0.8v23.8v0.6l0.5,0.2
			c4.8,1.9,4.5,10.5,4.5,10.6c0,0,0.1,30.5,0.1,45.6l-16.7-81l-0.1-0.7h-0.7H41.4h-0.8h-0.1v0.8l-0.1,24v0.5l0.5,0.2
			c4.8,2.4,4.5,11.8,4.5,11.9l0.1,88c0.1,7.5-4.4,10.2-4.6,10.3l-0.4,0.2v0.5l0,23.9v0.8h0.8h27.3h0l0.8,0l0.1-0.8v-23.9v-0.5
			l-0.5-0.2c-5.2-2.7-6-10.4-6-10.4v-43l15.5,75.9l0.5,2.3l0.1,0.7H80h18.8h0.8l0.8,0l0-0.8L100.5,248.1z M98.8,248.1
			c0,0-0.1,112.8-0.1,123.6H80.6l-17.4-85.6l-1.7,0.2v51.3c0,0.4,0.8,8.3,6.4,11.6v22.6H42.3l0-22.7c1.3-0.9,5.1-4.2,5-11.5
			l-0.1-87.9c0-0.4,0.3-10-5-13.2l0.1-22.7h22.2l18.2,88.4l1.7-0.2l-0.1-53.8c0-0.4,0.3-9.2-5-11.9v-22.5h24.6v23
			C102.2,237.4,99,239.5,98.8,248.1"/>
		<path fill="#FFFFFF" d="M286.4,351.9v-0.2v-65.2v-0.8h-0.8h-26.9h-0.8v0.8v18.8v0.8h0.8h3.1v23.1c0.2,1.9,0.1,7.3-1.8,9.4
			c-0.5,0.6-1.2,0.9-2,0.9c-0.1,0-0.8,0-1.6-0.8c-1-1.1-2.1-3.5-1.8-9.2v-80.4c-0.1-1.7,0.1-6.4,1.9-8.2c0.5-0.5,1.1-0.8,1.8-0.8
			c0.1,0,0.8,0,1.6,0.8c0.8,0.9,1.9,2.8,1.8,7.2V273v0.8h0.8h23.2h0.8V273v-56.1v-1.3l-1.2,0.5l-4.4,2c-1.9-2.3-10.4-11.7-22.1-11.7
			c-0.4,0-11.5-0.6-20,7.1c-5.6,5.1-8.7,12.5-9.1,22V343c0,0.3-0.3,6.5,2.3,13.2c1.1,2.9,2.8,5.9,5.2,8.5c5,5.5,12.3,8.5,21.5,8.8
			c0.2,0,11.8,0.1,21.4-11.3c2.2-2.7,4.3-6,6.1-10.2L286.4,351.9z M284.8,351.5c-9.1,20.5-25.7,20.4-25.9,20.4
			c-8.8-0.3-15.6-3.1-20.4-8.3c-7.7-8.4-7.1-20.4-7.1-20.6V235.7c0.4-9,3.3-16.1,8.6-20.8c7.9-7.2,18.7-6.7,18.8-6.7
			c12.4,0,21.2,11.5,21.3,11.6l0.4,0.5l0.6-0.3l3.8-1.7v53.9h-21.5v-24c0.1-4-0.8-6.8-2.4-8.4c-1.3-1.3-2.6-1.2-2.7-1.2
			c-1.2,0-2.2,0.4-3,1.3c-2.6,2.8-2.3,9.2-2.3,9.4v80.4c-0.3,5.1,0.5,8.6,2.4,10.4c1.3,1.3,2.6,1.3,2.8,1.3c1.2,0,2.3-0.5,3.2-1.5
			c2.8-3.1,2.3-10.3,2.2-10.5v-23.9v-0.8h-0.8h-3.2v-17.2h25.2V351.5z"/>
		<path fill="#FFFFFF" d="M323.3,315.8v0.8c0.5,18.8-2.6,24.1-4.5,25.6l-1.1,0.6v-36.6h12.2h0.8v-0.8v-19v-0.8h-0.8h-12.2v-41.1
			c4.5,2.1,5.9,18.2,5.7,28.5v0.9h0.8h17.1h0.8V273v-53.6v-0.6l-0.6-0.2c-24.9-8.2-50.9-9.7-51.1-9.7l-0.9,0v0.9v25.2v0.4l0.3,0.3
			c3.7,2.4,3.8,7.9,3.8,7.9v92.7c0.7,9.6-3.2,10.7-3.3,10.7l-0.6,0.1l0,26.1h12.6l40.3,0v-13.6v-43.9H323.3z M340.9,371.7h-49.4
			v-23.3c1.4-0.7,4.5-3.3,3.9-12.2v-92.7c0-0.3-0.1-6-4.2-9.1v-23.9c4.7,0.3,27.3,2.2,49.3,9.4v52.2h-15.4c0-5.5-0.3-29.2-8.2-29.6
			l-0.8,0v0.9v43v0.8h0.8H329v17.3h-12.2H316v0.9v38.3v0.6l0.6,0.2c0.1,0,1.5,0.4,3.1-0.8c2.6-2,5.6-8.1,5.3-26.1h15.9V371.7z"/>
		<path fill="#FFFFFF" d="M396.5,347.2c-6-2.4-5.8-13.7-5.8-13.8v-73.6c1.9,2,3.5,8.4,4,13.1l0.1,0.7h0.7h14.2h0.8v-0.8v-24.6v-0.5
			l-0.4-0.2c-33.2-19.2-62.4-27.1-62.7-27.2l-1-0.3v1.1V273v0.8h0.8h14.9h0.8l0-0.8c0.6-14.3,2.9-17.4,3.8-18l0,0v78.6
			c0.1,11.6-5.3,13.7-5.6,13.8l-0.5,0.2l0,25.8l8.3,0l28,0v-12.8v-13.1L396.5,347.2z M395.4,371.7h-33v-23.1
			c1.6-0.9,6.3-4.2,6.1-15.1V254v-0.5l-0.4-0.2c-0.1,0-0.9-0.5-2,0.2c-2.6,1.5-4.2,7.8-4.7,18.7h-13.3v-49.9
			c5.4,1.6,31.5,9.6,60.8,26.5V272h-12.6c-0.5-3.5-2.2-13.7-6.2-14.4l-1-0.2v1v75c0,0.5-0.3,11.9,6.3,15.1V371.7z"/>
		<path fill="#FDB927" d="M103.7,236.8v-23H79.1v22.5c5.3,2.7,5,11.6,5,11.9l0.1,53.8l-1.7,0.2l-18.2-88.4H42.3l-0.1,22.7
			c5.3,3.2,5,12.8,5,13.2l0.1,87.9c0.1,7.2-3.7,10.6-5,11.5l0,22.7H68v-22.6c-5.6-3.3-6.4-11.2-6.4-11.6v-51.3l1.7-0.2l17.4,85.6
			h18.1c0-10.8,0.1-123.6,0.1-123.6C99,239.5,102.2,237.4,103.7,236.8"/>
		<path fill="#FDB927" d="M259.6,304.6h3.2h0.8v0.8v23.9c0,0.3,0.5,7.4-2.2,10.5c-0.8,1-1.9,1.4-3.2,1.5c-0.1,0-1.5,0.1-2.8-1.3
			c-1.8-1.8-2.6-5.4-2.4-10.4v-80.4c0-0.2-0.3-6.6,2.3-9.4c0.8-0.9,1.8-1.3,3-1.3c0.1,0,1.4,0,2.7,1.2c1.6,1.6,2.4,4.4,2.4,8.4v24
			h21.5v-53.9l-3.8,1.7l-0.6,0.3l-0.4-0.5c-0.1-0.1-8.9-11.6-21.3-11.6c-0.1,0-10.9-0.5-18.8,6.7c-5.3,4.8-8.1,11.8-8.6,20.8v107.4
			c0,0.1-0.6,12.2,7.1,20.6c4.7,5.2,11.6,7.9,20.4,8.2c0.2,0,16.8,0.1,25.9-20.4v-64.1h-25.2V304.6z"/>
		<path fill="#FDB927" d="M319.7,343.6c-1.6,1.2-3,0.8-3.1,0.8l-0.6-0.2v-0.6v-38.3v-0.8h0.8H329v-17.3h-12.2H316v-0.8v-43v-0.9
			l0.9,0c7.9,0.4,8.2,24.1,8.2,29.6h15.4V220c-22-7.1-44.6-9-49.3-9.4v23.9c4.1,3.1,4.2,8.8,4.2,9.1v92.7c0.6,8.8-2.5,11.4-3.9,12.2
			v23.3h49.4v-54.2h-15.9C325.3,335.4,322.3,341.6,319.7,343.6"/>
		<path fill="#FDB927" d="M389.1,333.4v-75v-1l1,0.2c4,0.8,5.8,11,6.2,14.4h12.6v-23.3c-29.3-16.9-55.4-24.9-60.8-26.5v49.9h13.3
			c0.5-10.9,2.1-17.2,4.7-18.7c1.1-0.6,1.9-0.2,2-0.2l0.4,0.2v0.5v79.5c0.2,10.9-4.5,14.2-6.1,15.1v23.1h33v-23.2
			C388.8,345.3,389.1,333.9,389.1,333.4"/>
		<path fill="#041E41" d="M414.8,321.1v-0.9h0.8h21.6h0.8v0.9l0,13.5c0,0-0.1,5.3,2.3,7.7c0.7,0.7,1.6,1.1,2.7,1.1h0.1l0,0
			c0,0,1.1,0,2.3-1c1.5-1.3,2.3-3.9,2.5-7.4v-14.1c0-0.1,0.6-8.8-4.8-12.1L425,296.1c-0.4-0.3-10.6-6.8-11-24.9v-30.7
			c0-0.3-0.7-23.5,22.7-28.7c1.4-0.3,2.9-0.5,4.4-0.7l0.2,0c-3.7,0-15.9,0.8-23.5,0.8l-16.5,26l-1.5-0.9
			c-0.5-0.3-54.1-31.3-132.6-34.7c-3.1-0.1-75.4-2-139.2,30.8l-1.4,0.7l-0.8-1.3c0,0-0.3-0.4-0.7-1l-0.1-0.2
			c-1.9-3.1-7.3-11.7-12-19h-7.7v0.8v24.5l0,0.8l-0.8,0.1c0,0-3.9,0.5-4.1,9.8l-0.1,124.4l0,0.8c0,0,12.8-7.2,16.4-9.3
			c-7.8-10.5-6.6-25.8-6.6-26.4v-57.7c0-2-0.4-3.4-1.3-4.1c-0.9-0.6-2.1-0.3-2.1-0.3l-1.1,0.3v-1.1v-23.8v-0.4l0.3-0.2
			c10.2-7.4,28.2-15.1,28.4-15.2l1.2-0.5v1.2v23.7v0.4l-0.3,0.3c-1.5,1.5-1.8,8.4-1.6,12.4v57.6c-0.2,6.1,1.2,8.2,2,8.9
			c0.7,0.6,1.4,0.5,1.4,0.5h0.1h0.1l0.9-0.3c1.6-1.6,1.9-7,1.8-9l0.1-66.9c0.1-2.6-0.5-3.6-0.9-3.9l-0.6-0.2l-1,0.2v-1v-24.4v-0.5
			l0.5-0.2c18.9-9,29.2-11.5,29.3-11.5l1-0.3v1.1v25v0.5l-0.4,0.3c-4.8,2.8-4.4,10.2-4.4,10.3v80.5c0.4,11.7-2.5,20.7-8.4,26.8
			l-0.8,0.7c-0.5,0.5-1,0.9-1.5,1.3c3.1-1.9,16.2-10.2,18.9-12.1c-2.3-6.3-2.2-12-2.2-12.3v-99.2c1.7-30.3,28.3-30.6,28.5-30.6
			c12.4-0.4,20.6,8.7,22.5,11.1l3.5-1.6l1.2-0.5v1.3V273v0.8h-0.8h-22.7h-0.8V273v-17.6c0.1-4.2-0.9-6.1-1.8-7
			c-0.8-0.8-1.5-0.8-1.6-0.8c-0.7,0-1.3,0.3-1.7,0.8c-1.8,1.8-1.9,6.4-1.8,8.1v73.3c-0.3,5.5,0.8,7.9,1.8,9c0.8,0.8,1.5,0.8,1.5,0.8
			c0.8,0,1.4-0.4,1.9-0.9c1.9-2.1,1.9-7.3,1.8-9.2v-23.1h-3h-0.8v-0.8v-18.8v-0.9h0.8h26.4h0.8v0.9v65.5v0.2l-0.1,0.1
			c-0.4,0.9-0.8,1.8-1.2,2.6l-0.2,0.4c-0.3,0.6-0.6,1.1-0.9,1.7c-0.3,0.5-0.6,1-1,1.5l-0.1,0.1c-2.3,3.6-4.9,6.4-7.4,8.4
			c3.3-2,15-9.3,17.6-11c-2.6-6.7-2.3-12.9-2.3-13.2V235.6c0.4-9.6,3.5-17,9.1-22c8.5-7.6,19.6-7.1,20-7.1
			c11.8,0,20.2,9.3,22.1,11.7l4.4-2l1.2-0.5v1.3V273v0.8h-0.8h-23.2h-0.8V273v-24.8c0.1-4.3-1-6.3-1.8-7.2c-0.8-0.8-1.5-0.8-1.6-0.8
			c-0.7,0-1.3,0.3-1.8,0.8c-1.8,1.9-1.9,6.6-1.9,8.2v80.4c-0.3,5.7,0.8,8.1,1.8,9.2c0.8,0.8,1.5,0.8,1.6,0.8c0.8,0,1.4-0.3,2-0.9
			c1.9-2.1,2-7.4,1.8-9.4v-23.1h-3.1h-0.8v-0.8v-18.8v-0.8h0.8h26.9h0.8v0.8v65.2v0.2l-0.1,0.2c-1.8,4.1-3.9,7.5-6.1,10.2
			c1.7,2.1,9.5,11.1,9.5,11.1l0-26.1l0.6-0.1c0.1,0,3.9-1.1,3.3-10.7v-92.7c0-0.1-0.1-5.5-3.8-7.9l-0.3-0.3v-0.4v-25.2v-0.9l0.9,0
			c0.3,0,26.2,1.5,51.1,9.7l0.6,0.2v0.6V273v0.8h-0.8h-17.1h-0.8v-0.9c0.2-10.3-1.3-26.5-5.7-28.5v41.1h12.2h0.8v0.8v18.9v0.8h-0.8
			h-12.2v36.6l1.1-0.6c1.9-1.5,5-6.8,4.5-25.6v-0.8h19.3v43.9c3.4,2.6,18.2,13.6,18.2,13.6l0-25.8l0.5-0.2c0.3-0.1,5.7-2.2,5.6-13.8
			v-78.6l0,0c-1,0.7-3.2,3.8-3.8,18.1l0,0.8h-0.8h-14.9h-0.8V273v-51.8v-1.1l1.1,0.3c0.3,0.1,29.5,8,62.7,27.2l0.4,0.2v0.5v24.6v0.8
			h-0.8h-14.2h-0.7l-0.1-0.7c-0.5-4.7-2.1-11.1-4-13.1v73.6c0,0.1-0.3,11.3,5.8,13.8l0.5,0.2v13.1c3.2,1.7,17.8,9.5,17.8,9.5l0-1.7
			V321.1z"/>
		<path fill="#041E41" d="M82.6,293.8c0-15.1-0.1-45.6-0.1-45.6c0-0.1,0.3-8.7-4.5-10.6l-0.5-0.2v-0.6V213v-0.8l-11.7,0l0.1,0.7
			L82.6,293.8z"/>
		<path fill="#041E41" d="M65.8,212.1h-0.7H65.8z"/>
		<path fill="#FFFFFF" d="M442.9,211c-0.6,0.1-1.2,0.1-1.8,0.1c-1.6,0.2-3,0.4-4.4,0.7c-23.3,5.1-22.7,28.4-22.7,28.7v30.7
			c0.4,18.1,10.5,24.6,11,24.9l18.2,12.8c5.4,3.2,4.8,12,4.8,12.1V335c-0.2,3.5-1,6.1-2.5,7.4c-1.1,1-2.2,0.9-2.3,0.9h0h-0.1
			c-1.1,0-2-0.3-2.7-1.1c-2.4-2.4-2.3-7.6-2.3-7.7l0-13.5v-0.9h-0.8h-21.6h-0.8v0.9v47.2l0,1.7l0.4-0.3l0.9-0.7l5.2-4.3
			c9.7,9.5,20.6,8.9,21.1,8.9c9.4,0.1,16.8-2.5,21.9-7.6c7.3-7.2,7.3-16.9,7.3-17.3v-32.1c0.3-16.8-9.6-24.5-10-24.9
			c-11.7-8.5-19.7-14-19.7-14.1c-1.7-1.1-2.6-3.2-3-5.2c-0.3-1.1-0.4-2.3-0.5-3.2v-0.2l0-1.2v-0.1v-0.5v0v-0.2v0v-17.5
			c0.1-8.2,4.3-8.3,4.5-8.3c1.4,0,2.5,0.4,3.3,1.2c2.1,2.1,2,6.2,2,6.3v23.4l0.1,0.8h0.8h6.6l15.2,0h0.8v-0.9v-53.6v-1.2l-1.1,0.4
			l-5,1.7C457,210.4,443.5,210.9,442.9,211 M470,219.4v51.7l-20.1,0v-22.6c0-0.2,0.1-4.8-2.4-7.4c-1.2-1.2-2.7-1.8-4.5-1.8
			c-0.2,0-6,0-6.1,10v17.4c0,0.3-0.5,9,4.3,12.1c0.1,0.1,8,5.6,19.7,14.1c0.1,0,9.5,7.6,9.3,23.5v32.1c0,0.1,0,9.4-6.8,16.1
			c-4.8,4.8-11.8,7.2-20.8,7.1c-0.2,0-11.1,0.6-20.3-8.9l-0.6-0.6l-0.6,0.5l-4.4,3.6V322h20c0,2.9,0,12.6,0,12.6
			c0,0.2-0.1,6.1,2.8,8.9c1.1,1,2.4,1.6,3.9,1.5h-0.1c0,0,1.8,0.1,3.4-1.3c1.9-1.6,2.9-4.6,3.1-8.6V321c0-0.3,0.7-9.8-5.5-13.5
			l-18.1-12.7c-0.2-0.1-9.9-6.4-10.2-23.6v-30.7c0-1.1-0.7-25.9,27.3-27.9c0.1,0,13.8-0.5,21.7,8.1l0.4,0.4l0.5-0.1L470,219.4z"/>
		<path fill="#FDB927" d="M464.7,220.7c-8-8.6-21.6-8.1-21.7-8.1c-28,2-27.3,26.8-27.3,27.9v30.7c0.4,17.1,10.1,23.5,10.2,23.5
			l18.1,12.8c6.3,3.7,5.6,13.2,5.6,13.5v14.1c-0.2,4.1-1.2,7-3.1,8.7c-1.7,1.4-3.4,1.3-3.4,1.3h0.1c-1.5,0.1-2.9-0.5-3.9-1.5
			c-2.9-2.8-2.8-8.7-2.8-8.9c0,0,0-9.7,0-12.6h-20v44.6l4.4-3.6l0.6-0.5l0.6,0.6c9.2,9.5,20.2,8.9,20.3,8.9c9,0.1,16-2.3,20.8-7.1
			c6.8-6.7,6.8-16.1,6.8-16.1v-32.1c0.3-15.9-9.2-23.5-9.3-23.5c-11.6-8.4-19.6-14-19.7-14.1c-4.7-3.1-4.3-11.8-4.3-12.1v-17.4
			c0.1-9.9,5.9-10,6.1-10c1.8,0,3.3,0.5,4.5,1.8c2.6,2.6,2.4,7.2,2.4,7.4v22.6l20.1,0v-51.7l-4.4,1.5l-0.5,0.1L464.7,220.7z"/>
		<path fill="#FFFFFF" d="M221.9,358.8l0.1-0.1c0.3-0.5,0.6-1,1-1.5c0.3-0.6,0.6-1.1,0.9-1.7l0.2-0.4c0.4-0.8,0.8-1.7,1.2-2.6
			l0.1-0.1v-0.2v-65.5v-0.9h-0.8h-26.4h-0.8v0.9v18.8v0.8h0.8h3v23.1c0.2,1.9,0.1,7.1-1.8,9.2c-0.5,0.6-1.2,0.9-1.9,0.9
			c0,0-0.8,0-1.5-0.8c-1-1.1-2.1-3.4-1.8-9v-73.3c-0.1-1.7,0.1-6.2,1.8-8.1c0.5-0.5,1-0.8,1.7-0.8c0.1,0,0.8,0,1.6,0.8
			c0.8,0.9,1.8,2.8,1.8,7V273v0.8h0.8h22.7h0.8V273V224v-1.3l-1.2,0.5l-3.5,1.6c-1.9-2.4-10.1-11.5-22.5-11.1
			c-0.2,0-26.9,0.3-28.5,30.6v99.2c0,0.3-0.1,6,2.2,12.3c1.2,3.4,3.1,6.9,6.1,9.9c4.9,5.1,11.8,7.7,20.3,7.7c0.1,0,7.5,0.2,15.3-5.6
			l0.9-0.7C217,365.1,219.6,362.4,221.9,358.8 M198.3,371.8c-8.1,0-14.5-2.4-19.1-7.2c-8-8.3-7.8-21-7.8-21v-99.1
			c1.5-28.7,25.9-29,26.9-29c13.1-0.5,21.5,10.8,21.5,10.9l0.4,0.5l0.6-0.3l3-1.4v46.8h-21v-16.8c0.1-3.9-0.7-6.7-2.3-8.2
			c-1.3-1.2-2.5-1.2-2.7-1.2c-1.1,0-2.1,0.4-2.9,1.3c-2.6,2.7-2.3,9-2.3,9.2v73.2c-0.3,5,0.5,8.4,2.3,10.3c1.3,1.3,2.6,1.3,2.7,1.2
			c1.2,0,2.3-0.5,3.1-1.4c2.8-3.1,2.2-10.1,2.2-10.4v-23.9v-0.8H202h-3v-17.1h24.7v64.4C214.7,372.4,199,371.9,198.3,371.8"/>
		<path fill="#FDB927" d="M223.6,351.9v-64.4H199v17.1h3h0.8v0.8v23.9c0,0.3,0.6,7.3-2.2,10.4c-0.8,0.9-1.9,1.4-3.1,1.4
			c-0.1,0-1.4,0-2.7-1.2c-1.8-1.8-2.6-5.3-2.3-10.3v-73.2c0-0.2-0.3-6.5,2.3-9.3c0.8-0.8,1.8-1.3,2.9-1.3c0.1,0,1.4,0,2.7,1.2
			c1.6,1.6,2.4,4.3,2.3,8.3v16.7h21v-46.8l-3,1.3l-0.6,0.3l-0.4-0.5c-0.1-0.1-8.5-11.4-21.5-10.9c-1,0-25.3,0.4-26.9,29v99.1
			c0,0.1-0.3,12.8,7.8,21c4.6,4.8,11,7.2,19.1,7.2C199,371.9,214.7,372.4,223.6,351.9"/>
		<path fill="#FFFFFF" d="M155.3,365.9c6-6,8.8-15,8.4-26.7v-80.6c0-0.1-0.4-7.5,4.4-10.3l0.4-0.3v-0.5v-25v-1.1l-1,0.3
			c-0.1,0-10.3,2.5-29.3,11.5l-0.5,0.2v0.5v24.4v1l1-0.2l0.6,0.2c0.4,0.4,1,1.3,0.9,3.9l-0.1,66.9c0.1,2-0.2,7.4-1.8,9l-0.9,0.3
			h-0.1h-0.1c0,0-0.7,0.1-1.4-0.5c-0.8-0.7-2.2-2.8-2-8.9v-57.6c-0.2-4,0.1-10.9,1.6-12.4l0.3-0.3v-0.3v-23.7v-1.2l-1.2,0.5
			c-0.2,0.1-18.1,7.8-28.4,15.2l-0.3,0.3v0.4v23.8v1.1l1.1-0.3c0,0,1.2-0.4,2.1,0.3c0.9,0.6,1.3,2,1.3,4.1v57.7
			c0,0.6-1.3,15.9,6.6,26.4c0.5,0.7,1,1.3,1.6,1.9c4.6,5,11,7.7,18.9,7.7c0.3,0,6.3,0,12.5-3.5c1.1-0.6,2.1-1.4,3.2-2.2
			c0.5-0.4,1-0.8,1.5-1.3L155.3,365.9z M137.3,372c-7.5-0.1-13.4-2.5-17.7-7.2c-9-9.9-7.7-27-7.7-27.2v-57.8c0-2.6-0.7-4.5-2-5.4
			c-0.9-0.6-1.8-0.7-2.5-0.7v-22.4c8.6-6.1,22.5-12.4,26.6-14.2v22.2c-2.3,3-1.9,12.3-1.9,13.4v57.5c-0.2,5.2,0.7,8.6,2.6,10.3
			c1.2,1,2.5,0.9,2.7,0.8c0.8,0,1.4-0.3,2-0.8c2.5-2.3,2.4-9.4,2.3-10.2l0.1-66.9c0.1-2.5-0.5-4.3-1.5-5.2l-1-0.5v-23.1
			c15.1-7.1,24.5-10,27.4-10.9v23.5c-5.2,3.5-4.8,11.2-4.7,11.6v80.5c0.3,11.3-2.4,19.9-8,25.6C147,372,137.4,372,137.3,372"/>
		<path fill="#FDB927" d="M162.1,339.2v-80.5c0-0.4-0.4-8.1,4.7-11.6v-23.5c-2.9,0.8-12.3,3.8-27.4,10.9v23.1l1,0.5
			c1.1,0.9,1.6,2.7,1.5,5.2l-0.1,66.9c0,0.8,0.1,7.8-2.3,10.2c-0.6,0.5-1.3,0.8-2,0.8c-0.3,0.1-1.5,0.2-2.7-0.8
			c-1.9-1.6-2.8-5.1-2.6-10.3v-57.5c0-1.1-0.4-10.4,1.9-13.4v-22.2c-4.1,1.8-17.9,8.1-26.6,14.2v22.4c0.7,0,1.6,0.1,2.5,0.7
			c1.3,0.9,2,2.8,2,5.4v57.8c0,0.2-1.3,17.2,7.7,27.2c4.3,4.7,10.2,7.1,17.7,7.2c0.1,0,9.7,0,16.8-7.2
			C159.7,359,162.4,350.5,162.1,339.2"/>
		<path fill="#041E41" d="M192.6,140.3l-2,1.6l0.3,0.5l-0.2,0.2c0,0-44.6,36.8-48.4,39.9c2-0.7,4.2-1.4,6.3-2.1
			c16.6-5.5,34.3-9.8,52.8-13h0c9.5-1.6,19.1-2.9,28.6-3.7c8.9-0.9,18-1.4,27.1-1.7c0.6,0,58.5-3,127.6,23.8c3.4,1.2,6.9,2.6,10.4,4
			l-57-48.4l0.4-0.5l-1.9-1.7l-0.3-0.2l-70.1-59.5l-73.4,60.5L192.6,140.3z M266.4,86.8l63.2,53.3v0l3.8,3.2l-7.6-3.2h0l-33-13.8v14
			l0,0v3.9l-3.9-3.9l0,0l-12.1-11.9l-4.3,12.1l0,0l-4.7,13l-5.7-13l-5.8-13l-13.8,11.4l-4.4-14.1l-36.4,14.6L266.4,86.8z"/>
		<polygon fill="#FFFFFF" points="242.5,139.1 256.3,127.7 262,140.7 262,140.7 267.7,153.6 272.4,140.6 276.7,128.6 288.8,140.5 
			292.7,144.4 292.7,140.4 292.7,126.4 325.8,140.2 325.8,140.2 333.4,143.4 329.6,140.2 266.4,86.8 201.7,139.6 238.1,125 		"/>
	</g>
</g>
</svg>
