<?xml version="1.0" encoding="utf-8"?>
<!-- Generator: Adobe Illustrator 18.0.0, SVG Export Plug-In . SVG Version: 6.00 Build 0)  -->
<!DOCTYPE svg PUBLIC "-//W3C//DTD SVG 1.1//EN" "http://www.w3.org/Graphics/SVG/1.1/DTD/svg11.dtd">
<svg version="1.1" xmlns="http://www.w3.org/2000/svg" xmlns:xlink="http://www.w3.org/1999/xlink" x="0px" y="0px" width="512px"
	 height="512px" viewBox="0 0 512 512" enable-background="new 0 0 512 512" xml:space="preserve">
<g id="white_block">
	<rect opacity="0" fill="#FFFFFF" width="512" height="512"/>
</g>
<g id="Logos">
	<g>
		<path fill="#ED174C" d="M215.3,286.3c0,12.4-7.5,19.7-22.2,21.6l-0.2,0c-9.6,0.9-17.5,1.7-25.4,2.8l-4.8,0.6l-0.1-20.7l-0.1-3.2
			c4.1-0.5,6.9-0.8,9-1.1c2.7-0.4,5.4-0.7,8.2-1v0c0-3.7,0-14.2-0.1-17.8c-5.5-1.1-13.8-3.7-17.7-12.6l-0.2-0.6v49.4l-0.3,0.1v7.6
			l-3.3,0.5c-6.7,1-13.6,2-21.5,3.3c21.2,15,55.1,29.7,107.6,32.7c0.8-13.5-5.1-27.7-14.4-42.5l-0.9,0v-1.5
			c-4-6.3-8.6-12.6-13.5-19.1"/>
		<path fill="#ED174C" d="M129.7,224.4c1.7-0.3,3.4-0.6,5.1-0.9v-0.3c7.8-1.4,15.3-2.6,23.1-3.8c1.3-0.2,2.5-0.4,3.8-0.6v10.6
			c0.9-3.1,2.5-5.8,4.8-8c-13.7-20.2-24.6-41.7-27.4-64.4c-17.6,20.6-29.3,45.6-34,72.1l1-0.2c1.5-0.3,3.8-0.8,4.9-1.1l0.6-0.2
			l1.3-0.3h0.1l0.1,0h0l0.8-0.1c5.4-0.6,8.9,0.1,11.1,2.1l0.1,0l0.5,0.4l0,0.1l0.4,0.4l0.1,0.1l0.4,0.6v-6.1"/>
		<path fill="#ED174C" d="M108.8,286.5l-0.6,0.2c3.4,5.1,9.2,12.7,18.5,20.7c-0.1-10.9-0.1-21.7-0.1-32.4
			C123,280.7,116.9,284.6,108.8,286.5"/>
		<path fill="#ED174C" d="M126.7,315.6c-8.2-6.6-14.2-13.1-18.5-18.6c6.7,24.1,19.3,46.3,37.2,64.9c10.2,10.6,21.7,19.4,34.1,26.5
			c20.7,3.5,36.9,1.2,48.1-7c8.4-6.2,13.8-15.5,16-27.7c-58.3-3.2-94.1-20.4-115.5-37.1l-1.2,0.2"/>
		<path fill="#ED174C" d="M384.2,315.2c-2.4-0.4-4.7-0.9-7.2-1.3l-4.4-0.8l-4.5-0.7c-8.4-1.4-17-2.5-26.5-3.7l-1-0.1
			c-4.7,11.8-8.3,23.1-10.5,32.9C354.4,335.6,372,326.2,384.2,315.2"/>
		<path fill="#ED174C" d="M380.3,222.4c8.3,1.5,16.3,3,24.6,4.7c-4.4-22.6-13.8-43.5-27-61.5c4.7,16.3,6.4,35.1,1.1,56.7
			c0.5,0.1,0.9,0.2,1.4,0.3V222.4"/>
		<path fill="#ED174C" d="M180.2,216.6l0,0.2L180.2,216.6z"/>
		<path fill="#ED174C" d="M278.2,201.4l-0.3,0h-0.1c-4.5-0.6-6.9-2.4-8-4.3v1.7c-0.1,0.6-0.1,1.2-0.1,1.8c-5.9,0-11.7,0-17.6-0.1
			c0.2-10.5,0.3-21.1,0.5-31.6l-0.4,0.3c-0.6,0.5-1.4,0.9-2.2,1.2c-0.1,8.8-0.3,17.3-0.4,26.2l-1.1,0c0,1.3,0,2.2,0,2.2
			c0,0.5,0,1.1-0.1,1.7c-5.8,0.3-11.7,0.5-17.6,0.7c0,0,0.3-25.7,0.4-29.2c-1,0.1-2.7,0.1-4.1,0.2l0,0.2c0,0-6,0.5-9.2,0.8
			c0,0.4,0,0.9,0,1.5c2.5-0.3,4.8-0.5,7.2-0.7c-0.1,3.4-0.1,6.6-0.1,10l-1.2,0.1c0,0.7,0,1.5,0,2.2c0,0.5-0.1,1.1-0.1,1.6
			c0,0-3.6,0.3-5.9,0.5c0,0.7,0,1.5-0.1,2.2c3.6-0.4,7.1-0.6,10.5-0.9c0,2.8,0,5.3-0.1,8l-1.2,0.1c0,1.2,0,2.4,0,3.7
			c-0.7,0-1.4,0.1-2.1,0.2c-7.4,0.6-14.9,1.3-23.1,2.2c-0.9,0.1-1.9,0.2-2.8,0.3c0-1.3,0.1-2.7,0.1-4c-1.7,2.7-4.8,4.7-8.8,5.3
			c-6.6,1-12.9,2-19.9,3.4c-1,0.2-2,0.4-3.1,0.6c0,0,0.4-26.8,0.4-29.9c-1.3-0.2-2.4-0.6-3.4-1.4c-1.1-0.8-2.5-2.4-2.4-5l0-0.7
			l0-0.2c0.2-0.8,0.3-1.6,0.4-2.4l1.4-0.3c1.4-0.2,2.8-0.5,4.3-0.8v-0.1c8.8-1.8,17.3-3.2,26.3-4.5c2.5-0.3,4.1-0.1,5.3,0.4l0-1.1
			c0.6-0.1,1.3-0.1,1.8-0.2c1.4-0.2,2.7-0.3,4-0.4v-0.2c6.7-0.7,13-1.4,19.6-1.9v0c0.7-0.1,1.4-0.1,2-0.2l1.2-0.1l0.3,0v0
			c0.8-0.1,1.5-0.1,2.3-0.1v0c8.1-0.5,15.8-0.8,24-0.9h1.7v0.3h2.3v-0.3c5.5,0,10.9,0,16.4,0.2c-6.1-27.5-13.5-46.9-21.5-56.2
			c-39.1,0.4-76,15.4-104.2,42.7c-1.7,1.6-3.3,3.3-4.9,4.9c1.4,23.6,12.4,45.7,26.8,67c0.7-0.3,1.4-0.5,2.1-0.7
			c3.5-0.9,8.3-1.3,10.8-1.6l-0.3,0.1l0.2-0.1l0.9-0.1c3.2-0.4,18.6-1.9,31-2.7h0.6c1-0.1,1.7-0.1,1.7-0.1l0.5,0h0.6h0
			c3.2-0.2,6.4-0.3,9.6-0.4c15.7-0.7,30.8-0.8,46.7-0.5c1.3,0,2.5,0.1,3.6,0.1c0.2,1,0.2,2,0.2,3.1v0.5c0,1-0.1,3.1-1.1,5.5
			c1.6-1.6,3.5-3,5.7-4.1c-0.6-5.3-1.2-10.5-1.9-15.7C280.9,201.5,279.5,201.4,278.2,201.4"/>
		<path fill="#ED174C" d="M203.1,240.8c1.2,0.4,2.5,0.8,3.5,1.2c1.7,0.6,2.8,1.2,3.8,1.8c2.9,1.9,4.5,4,4.7,6.9
			c0.1,1.1,0.1,2.7,0.2,5.1c0.1,2.4,0.1,6.7,0.1,14.3v5c4.8,6.1,9.3,12.1,13.5,18.1v-54.6c-4,0.2-13.9,0.6-13.9,0.6v-5.2
			c-2.9,3.2-6.8,5-11.7,5.5c0,0-1.3,0.1-3.1,0.3c0.7,0.3,1.6,0.5,2.4,0.8L203.1,240.8"/>
		<path fill="#ED174C" d="M250,348.1c11.1,0.4,22.9,0.3,35.6-0.4c1.4-13,2.2-27.3,2.4-42.2c-8.4-2.6-15.9-8.1-16-20.4v-47
			c0-1.7,0.1-3.3,0.4-4.8l-0.8,0.7l-0.1,0c-2,1.6-2.8,2.7-5.5,3.4v67.4l-29.4,0.3C245.4,319.9,250.9,334.1,250,348.1"/>
		<path fill="#ED174C" d="M323.9,343c2.6-13.3,7.8-28.7,14.4-44.4V298c-0.8,1.3-1.8,2.4-2.9,3.5c-6,5.4-15.9,7.5-31.2,6.5
			c-2.9-0.2-6.6-0.5-10.2-1.2c-0.3,14.1-1,27.8-2.3,40.5C303.4,346.5,314.1,345,323.9,343"/>
		<path fill="#ED174C" d="M372.8,223v-1.8l0.4,0.1c6.9-27.1,1.9-49.6-6.3-68.8c-26.6-28.8-64.2-47.3-106.1-48.9
			c9,13.1,15.6,35,20.2,56.5c3.4,0.7,4.8,2,5.5,4.5c2-1.8,4.7-2.6,7.3-2.8c0.8-0.1,1.6-0.1,2.4-0.2c0.5-0.1,0.9-0.2,1.5-0.3
			c2.1-0.3,4.3-0.2,6.7,0c3.8,0.3,7.7,0.7,10.4,2.6v-0.8c2,0.3,3.9,0.5,5.8,0.8v-0.9c3.7,0.5,7.2,0.9,10.9,1.5
			c0.5,0.1,1.1,0.2,1.8,0.2v1c0.7,0.1,1.4,0.2,2.1,0.3v-1c8.1,1.2,15.8,2.6,23.9,4.3c0.6,0.1,1.1,0.3,1.7,0.4l0.1,1.3v0.3
			c0,0.6-0.2,2.2-1.3,3.4c-0.3,1.4-1,3.3-3.3,4.6c-0.5,0.3-1.1,0.5-1.8,0.6c-0.1,8.5-0.2,16.6-0.3,25.2l-1.2-0.2
			c-0.1,1.5-0.1,2.5-0.1,2.5c0,0.8,0,1.6-0.1,2.3c-5.8-1-11.7-2-17.5-3.1c0,0,0.4-26.3,0.4-28.8c-0.9-0.1-1.8-0.3-2.7-0.5
			c-0.1,8-0.2,16-0.4,24.2l-1.2-0.2v2.4c-0.1,0.7-0.1,1.5-0.1,2.2c-5.8-0.8-11.5-1.6-17.3-2.4c0-1.4,0-2.9,0.1-4.3l-1.1,0.9
			c-3,2.1-7.9,3-14.7,2.4l-0.5,0c-2.5-0.2-6.9-0.6-10.2-2.5c0.6,4.9,1.2,9.9,1.8,15c1.1-0.3,2.4-0.6,3.6-0.8l0.2,0
			c1.3-0.4,2.7-0.7,4.2-1c3.7-0.6,8-0.7,14.1-0.2h0.1c10.8,0.9,21.7,1.7,26.4,10.8v-6.4l6.8-0.2c1.8,0,4,0.1,6.4,0.5
			c5.7,0.4,13.9,2.6,20.4,8.7C372.2,225.3,372.5,224.2,372.8,223"/>
		<path fill="#ED174C" d="M331.5,373.1c3.5,4.1,9.9,4.7,19.1,1.8c3.5-2.9,7-5.9,10.3-9.1c14.6-14,26-30.5,33.9-48.6
			c-1.2-0.2-2.4-0.4-3.6-0.7c-13.4,13.3-33.6,24.6-62.3,31.2C327,359.4,327.6,368.3,331.5,373.1"/>
		<path fill="#ED174C" d="M327,376.8c-4.8-5.8-5.9-15.6-4.2-27.7c-9.7,1.9-20.3,3.3-31.9,4.1c-2.6,22.4-7.1,41.3-13.6,53.6
			c22.6-3.3,44-11.6,62.9-24.4C334.6,382.4,330.2,380.5,327,376.8"/>
		<path fill="#ED174C" d="M249.3,354c-2.3,13.9-8.6,25.1-18.3,32.2c-9.4,6.9-21.8,10.1-36.9,9.7c18.2,7.9,37.9,12.3,58.3,12.6
			c6,0.1,11.9-0.2,17.8-0.7c7.1-10.6,12-30,14.9-54.1C272.3,354.3,260.4,354.4,249.3,354"/>
		<path fill="#006BB6" d="M424.5,282.6c-2.3-1.3-4.7-2.7-7-4.4c-0.9,6.5-2.1,13.4-3.8,19.6l1.1,0.3v0c3.4,0.8,6.6,1.5,9.8,2.3v-6.6
			C424.5,289.6,424.5,285.3,424.5,282.6"/>
		<path fill="#006BB6" d="M93.2,231.9c12.1-80,82-141.2,165-139.7C338.8,93.7,405,153.6,417,230.7c2.4-0.3,5.2-0.1,8.2,0.7v0
			l2.3,0.6l0.2,0.1l-0.1,0c0.9,0.3,1.9,0.5,3.1,0.8c-4.8-37.4-21.5-72.1-48.2-99.8c-32.9-34.1-77-53.4-124.3-54.2
			c-91.6-1.7-168.5,67.5-179.2,156.6c2.4-0.7,4.8-1.3,7.2-1.9C88.7,233,90.9,232.4,93.2,231.9"/>
		<path fill="#006BB6" d="M407.6,319.8V316v0V319.8l-1.4-0.3c-25.3,59.9-85.1,101.5-154,100.3c-74.6-1.3-137.4-53.7-155.8-122.5
			v18.8h0v6.6v0.1l-2.4,0.6c-0.8,0.2-1.5,0.4-2.3,0.6c26.3,63,87.9,107.9,160.4,109.2c47.3,0.9,92-16.8,126.2-49.6
			c18.2-17.5,32.1-38.3,41.3-61c-2.8-0.7-5.7-1.3-8.8-2"/>
		<path fill="#FFFFFF" d="M215.4,277l0,7.7c4.9,6.5,9.5,12.9,13.5,19.1v-10.5c-4.2-6-8.7-12-13.5-18.1"/>
		<path fill="#FFFFFF" d="M277.4,406.9c6.5-12.3,11-31.2,13.6-53.6c11.5-0.8,22.2-2.2,31.9-4.1c-1.7,12.1-0.6,21.9,4.2,27.7
			c3.2,3.7,7.6,5.6,13.2,5.7C321.4,395.3,300,403.6,277.4,406.9 M252.4,408.5c-20.4-0.4-40.2-4.7-58.3-12.7
			c15.2,0.4,27.5-2.8,36.9-9.7c9.7-7.1,16-18.2,18.3-32.2c11.1,0.4,23,0.3,35.8-0.4c-2.9,24.2-7.8,43.5-14.9,54.1
			C264.3,408.3,258.3,408.6,252.4,408.5 M394.9,317.2c-7.9,18-19.3,34.5-33.9,48.6c-3.3,3.2-6.8,6.2-10.3,9.1
			c-9.2,2.9-15.7,2.3-19.1-1.8c-3.9-4.8-4.5-13.7-2.6-25.3c28.8-6.6,49-18,62.3-31.2c-2.3-0.5-4.7-0.9-7.1-1.3
			c-12.2,11-29.8,20.4-54,26.3c2.1-9.8,5.8-21.1,10.4-32.9l-2.4-0.3v-9.7c-6.6,15.7-11.9,31.1-14.4,44.4c-9.7,2-20.5,3.5-32.3,4.4
			c1.3-12.7,2-26.3,2.3-40.5c-1.9-0.3-3.9-0.8-5.8-1.4c-0.2,14.9-1,29.2-2.4,42.2c-12.7,0.7-24.6,0.8-35.6,0.4
			c0.8-14-4.6-28.3-13.4-42.9l-6.9,0.1c9.3,14.8,15.2,29,14.4,42.5c-52.5-3-86.4-17.7-107.6-32.7c-1.7,0.3-3.6,0.6-5.4,0.9l-3.2,0.5
			c21.4,16.8,57.2,33.9,115.5,37.1c-2.2,12.2-7.6,21.6-16,27.8c-11.1,8.1-27.3,10.4-48.1,7c-12.4-7.1-23.9-16-34.1-26.5
			c-17.9-18.5-30.5-40.8-37.1-64.9c4.3,5.5,10.3,12,18.5,18.6l0-3.4v-5c-9.3-8-15.1-15.6-18.5-20.7c-3,0.7-9.8,2.1-11.9,2.6v3.1v5
			c18.7,68.4,81.5,121.2,155.8,122.6c68.8,1.3,128.7-40.4,154-100.3l-3.2-0.7C400.2,318.3,397.6,317.7,394.9,317.2"/>
		<path fill="#FFFFFF" d="M285.3,198.1c0,0.6,0,1.1,0,1.6v2c-1,0-2-0.1-3.1-0.1c0.7,5.2,1.3,10.4,1.9,15.7c1.7-0.8,3.6-1.5,5.6-2.1
			c-0.6-5.1-1.2-10.1-1.8-15C286.9,199.6,286,198.9,285.3,198.1"/>
		<path fill="#FFFFFF" d="M407.6,266.6V316v0v-15.2v-4.4l6.1,1.4c1.6-6.2,2.8-13.1,3.8-19.6C413.5,275.4,410,271.7,407.6,266.6"/>
		<path fill="#FFFFFF" d="M371.9,226.4l1,0.9V223C372.5,224.2,372.2,225.3,371.9,226.4"/>
		<path fill="#FFFFFF" d="M139.1,157c2.8,22.7,13.7,44.1,27.4,64.4c1.4-1.2,2.9-2.4,4.8-3.2c-14.5-21.3-25.4-43.5-26.9-67
			c1.6-1.7,3.2-3.4,4.9-4.9c28.3-27.3,65.1-42.3,104.2-42.7c8,9.2,15.4,28.7,21.5,56.2c1.5,0,2.9,0.1,4.5,0.2h0.1l0.1,0
			c0.5,0.1,1,0.2,1.4,0.3c-4.6-21.5-11.2-43.4-20.2-56.5c42,1.6,79.5,20.1,106.1,48.9c8.2,19.2,13.2,41.7,6.3,68.8
			c0.9,0.2,3,0.5,5.7,1c5.3-21.6,3.6-40.4-1.1-56.7c13.3,17.9,22.6,38.8,27,61.5c0.7,0.2,1.4,0.3,2.2,0.5v0.1l0.5,0.1v9
			c0.9-1.7,2.3-3.1,3.9-4.2c1.6-1,3.4-1.6,5.5-1.9c-12-77.2-78.2-137.1-158.9-138.5c-83-1.6-152.9,59.7-165,139.7l1.3-0.3
			c1-0.2,2-0.5,3-0.7c2.5-0.6,5.1-1.3,7.6-1.8C109.8,202.6,121.4,177.6,139.1,157"/>
		<path fill="#00285E" d="M96.3,322.8L96.3,322.8v-6.6c-9.2,2.2-18.3,4.4-27.5,7v-67.4c-6.8,1.1-9.8-1.5-11.1-3.5
			c-0.6-1-1.5-3.5-1.6-5.9c0-1.4,0.3-2.7,1.2-3.7l1.1-1.4c6.6-2,13.2-3.8,19.7-5.5c-7.9,2-16,4.4-24.5,6.8l-1.1,0.3
			c0,0-4.1,3.6-4,8.3v0.2c0,3,1.2,5.3,2.1,6.9c1.4,2.2,4.5,5.2,10.6,5.5v67.8l4.9-1.3c8.6-2.4,17.2-4.5,25.4-6.4
			c0.8-0.2,1.5-0.4,2.3-0.6"/>
		<path fill="#00285E" d="M86.4,233.6c2.4-0.6,4.7-1.2,7.1-1.8l-0.4,0.1C90.9,232.4,88.7,233,86.4,233.6"/>
		<path fill="#00285E" d="M108.8,286.5c8.2-1.8,14.2-5.8,17.8-11.5c0,10.7,0,21.5,0.1,32.4v5l0,3.3v1.2l1.2-0.2l3.2-0.5
			c1.9-0.3,3.7-0.6,5.4-0.9c7.9-1.3,14.8-2.4,21.5-3.3l3.3-0.5v-7.6c-8.9,1.3-17.6,2.7-26.5,4.2c-0.2-28.6-0.1-56-0.1-84.5
			c-1.6,0.3-3.3,0.6-5.1,0.9l-3.2,0.5v6.1c2.9,4.3,2.7,12.2,2.7,24.1c0,0.5,0,1,0,1.6v1.2c-0.1,11-6.6,18.4-18,21
			c-5,1.1-9.8,2.2-14.9,3.4v7c3.2-0.7,10-2.1,11.9-2.6L108.8,286.5"/>
		<path fill="#00285E" d="M106,228.9c1.7-0.4,3.5-0.7,5.2-1.1l-0.3,0.1C109.8,228.1,107.5,228.6,106,228.9"/>
		<path fill="#00285E" d="M372.8,223v4.3c2.8,2.9,5.2,6.6,6.9,11.3c0.2,0.6,0.4,1.2,0.6,1.9v-17.9c-0.5-0.1-0.9-0.2-1.4-0.3
			c-2.7-0.5-4.8-0.8-5.7-1l-0.4-0.1V223"/>
		<path fill="#00285E" d="M463.4,247.8v-0.2l0.1,1c0,0.1-0.7,3.1-2.4,4.8c-2.3,2.7-5.8,3.4-10.2,2.2c-4.4-1.2-8.7-2.3-13.1-3.6v1.9
			c0,2.8,2.2,4.8,5.7,7.4c1.5,0.4,2.9,0.8,2.9,0.8c7.8,2.2,12.1-1.2,13.9-3.4l-0.2,0.2l0.2-0.2l0,0l0,0c2.4-2.6,3.2-6.5,3.2-7.4"/>
		<path fill="#00285E" d="M425.2,231.4c-3-0.8-5.8-1-8.2-0.7c-2.1,0.2-3.9,0.9-5.5,1.9c-1.6,1-3,2.5-3.9,4.2v-9l-0.5-0.1v84.8
			c-8.6-1.8-17-3.4-25.8-5c0,0-4.8-11.7-8.8-21.5v20c-8.8-1.4-17.5-2.7-26.3-3.8v-84.4v-0.1c1-0.1,3-0.1,3-0.1c0.8,0,1.5,0,2.4,0
			c-2.4-0.4-4.6-0.5-6.4-0.5l-6.8,0.2v6.4c1.5,2.8,2.3,6.4,2.3,11v47.4l0,2c-0.1,4.2-1.5,7.7-4.4,10.3c-5,4.7-14.1,6.5-28.1,5.6
			c-11.2-0.9-28.1-2.2-28.2-19.2v-47.4c0.1-10.2,4.5-16.6,13.6-19.3l-0.2,0c-1.2,0.2-2.5,0.4-3.6,0.8c-2,0.5-3.9,1.3-5.6,2.1
			c-2.2,1.1-4.1,2.5-5.7,4.1c-0.7,1.8-1.8,3.5-3.7,5.1c-2.3,1.8-5.2,2.9-8.6,3.2V297c-9.3-0.1-18.2,0-27.5,0.3v-67.2
			c-4.8,0.1-9.1,0.3-13.8,0.6v-17.9c1.4-0.1,2.8-0.2,4.2-0.2c-3.2,0.1-6.3,0.2-9.6,0.4c0,1,0.3,1.9,0.3,2.9c0,0.7,0.1,1.3,0.1,2
			c0,0.7-0.1,1.2-0.1,1.8v0.1l0,0.1c0,0.6-0.5,2.8-2,5.2c-2.3,3.6-5.8,5.6-10.4,6.1c-4.4,0.3-8.7,0.7-13.1,1.1v1.8
			c0.1,2.9,2.4,4.3,6.2,5.7c1.7-0.2,3.1-0.3,3.1-0.3c4.9-0.4,8.7-2.3,11.7-5.5v5.2c0,0,9.9-0.4,13.9-0.6v54.6v10.5v1.5l0.9,0
			l6.9-0.1l29.4-0.3v-67.4c2.7-0.7,3.5-1.8,5.5-3.4l0.1,0l0.8-0.7c-0.3,1.5-0.4,3.1-0.4,4.8v47c0.1,12.3,7.6,17.7,16,20.4
			c1.9,0.6,3.9,1,5.8,1.4c3.7,0.7,7.3,0.9,10.3,1.2c15.4,0.9,25.3-1.1,31.2-6.5c1.2-1.1,2.1-2.2,2.9-3.5v0.6v9.7l2.4,0.3l1,0.1
			c9.4,1.2,18.1,2.4,26.5,3.7l4.5,0.7l4.4,0.8c2.5,0.4,4.9,0.9,7.2,1.3c2.4,0.4,4.8,0.9,7.1,1.3c1.2,0.2,2.4,0.4,3.6,0.7
			c2.7,0.5,5.4,1.1,8,1.6l3.2,0.7l1.4,0.3V316v-49.4c2.4,5,6,8.7,9.9,11.6c2.3,1.7,4.7,3.1,7,4.4c0.1,2.6,0.1,6.9,0.1,11.1v6.6
			c2.4,0.5,4.7,1.1,7.2,1.7c0-4.9,0.1-22.1-0.1-24.7l-0.3-0.1l-0.6-0.2c-6.3-3.3-13.7-7.9-17.2-16.7c-0.8-2.2-0.9-5.6-1-9.2
			c-0.1-5,0.8-12.2,0.8-12.8c1.2-5.6,6.3-8.1,14.2-6.3L425.2,231.4"/>
		<path fill="#00285E" d="M427.6,232c0.3,0.1,1.8,0.5,4.2,1.1l-1-0.2C429.6,232.6,428.6,232.3,427.6,232L427.6,232"/>
		<path fill="#00285E" d="M460.5,240.9l-0.7-0.2c0.8,0.2,1.6,0.5,2.4,0.8"/>
		<path fill="#00285E" d="M463.2,241.9L463.2,241.9c0,1.4,0.1,2.8,0.2,4.2"/>
		<path fill="#00285E" d="M458.8,279.4l0,0.9L458.8,279.4z"/>
		<path fill="#00285E" d="M458.9,313c0,0-0.1,1.2-0.6,2.1c-2.7,5.3-8.6,7.1-17.9,5.1l-0.1,0c-8.8-2.3-16.8-4.3-25.6-6.2v-15.9
			l-1.1-0.3l-6.1-1.4v4.4V316v3.8l3,0.7c3.1,0.7,6,1.3,8.8,2c5.4,1.3,10.5,2.6,16.6,4.2h0.1l0.1,0.1c13.6,2.9,19.2-2.2,21.8-7.1
			c0.8-1.5,1-3.1,1-3.6v-0.1l0-5.8l0.1-11.4c0-0.6,0-1.2,0-2c0,6.6-0.1,13-0.1,16.2V313"/>
		<path fill="#00285E" d="M99.8,247.8c-0.9,0.2-1.8,0.4-2.6,0.5l-1.2,0.3v18c1.9-0.4,3.7-0.9,5.6-1.3c0-2.1-0.1-15.9-0.1-16.4
			C101,247.9,100.8,247.7,99.8,247.8"/>
		<path fill="#00285E" d="M308.7,232L308.7,232l-0.2,0l-0.5,0c-0.1,0.6-0.1,1.2-0.1,1.9v0.2l0,0.2c-0.1,0.6-0.1,1.3-0.1,1.9l0,1.4
			v1.3v33.6v0.2c0,0.6,0,1.2,0,1.7c0,2.6,0.6,3.2,4.2,3.5l0.7,0h0.2l0.1-2.5v-33.2c0-4.2,0-7.9-0.6-9.1
			C312.2,232.5,310.2,232.2,308.7,232"/>
		<path fill="#00285E" d="M188,259.8"/>
		<path fill="#00285E" d="M180.2,216.8l0-0.2L180.2,216.8 M161.9,254.9c3.9,8.8,12.2,11.5,17.7,12.6c0,4.2,0.1,14.7,0.1,17.8v0
			c2.8-0.4,5.6-0.7,8.4-0.9c0-8.3-0.1-16.3-0.1-24.6l-0.3-0.1l-0.6-0.1c-6.3-1.1-13.8-3-17.2-10.6c-0.8-1.9-1-5.2-1-8.9
			c0-4.9,0.3-9.9,0.5-11.4v0.3c0-0.6,0.2-1.3,0.2-1.9c1.1-5.1,4.8-8.7,10.5-10.3l0.1,0c1.1-0.3,2.2-0.6,3.5-0.7l0.3-0.1
			c-2.5,0.3-7.3,0.7-10.8,1.6c-0.8,0.2-1.5,0.4-2.1,0.7c-1.9,0.8-3.4,1.9-4.8,3.2c-2.3,2.1-3.9,4.9-4.8,8v25L161.9,254.9z"/>
		<path fill="#00285E" d="M162.5,287.4l0.1,3.2l0.1,20.7l4.8-0.6c8-1,15.8-1.9,25.4-2.8l0.2,0c14.7-1.9,22.2-9.2,22.2-21.6l0-1.6
			l0-7.7v-1.8v-5c0-7.6,0-11.9-0.1-14.3c0,2.5,0,5.9,0,10.1c0,4.5-0.1,9.7-0.1,16.1c0,12.6-8.4,16.2-18.5,17.3h0
			c-8.8,0.8-17,1.7-25.6,2.8c0-5.3-0.1-10.5-0.1-15.9l0.3,0C166.9,286.9,162.5,287.4,162.5,287.4"/>
		<path fill="#ED174C" d="M273.9,170v-0.3c0-1.7-0.2-2.1-0.3-2.1c-0.2-0.1-1-0.1-1.7-0.1h-0.2l-0.3,0c0,2.5,0,5-0.1,7.6
			c0.8,0,1.5,0,2.3,0.1l0.1-0.3l0,0l0-0.5c0.1-1,0.1-1.3,0.1-2.9V170"/>
		<path fill="#00285E" d="M273.9,170v-0.3c0-1.7-0.2-2.1-0.3-2.1c-0.2-0.1-1-0.1-1.7-0.1h-0.2l-0.3,0c0,2.5,0,5-0.1,7.6
			c0.8,0,1.5,0,2.3,0.1l0.1-0.3l0,0l0-0.5c0.1-1,0.1-1.3,0.1-2.9V170"/>
		<path fill="#ED174C" d="M274.8,192.6c-0.1-0.2-0.2-0.4-0.2-2.5l0-0.7c-0.1-1.6-0.1-4.7-0.1-5.8c0-0.4,0.1-1.6-2.9-1.7h-0.2
			c-0.1,5-0.1,9.7-0.2,14.7c-4.4-0.1-8.6-0.1-12.9,0c0.1-12.4,0.3-24.3,0.5-36.7h-2.3l0.1,1.1v0.2c0,0.7-0.2,2.3-1.5,3.9
			c-0.3,1.2-0.9,2.6-2.3,3.9c-0.2,10.5-0.3,21.1-0.5,31.6c5.9,0.1,11.7,0.1,17.6,0.1c0-0.6,0-1.2,0.1-1.8v-1.7
			c1.2,1.8,3.5,3.7,8,4.3h0.1l0.3,0c1.3,0.1,2.6,0.1,3.9,0.2c-0.2-1.4-0.4-2.8-0.6-4.3C278,196.7,275.6,195.1,274.8,192.6"/>
		<path fill="#00285E" d="M274.8,192.6c-0.1-0.2-0.2-0.4-0.2-2.5l0-0.7c-0.1-1.6-0.1-4.7-0.1-5.8c0-0.4,0.1-1.6-2.9-1.7h-0.2
			c-0.1,5-0.1,9.7-0.2,14.7c-4.4-0.1-8.6-0.1-12.9,0c0.1-12.4,0.3-24.3,0.5-36.7h-2.3l0.1,1.1v0.2c0,0.7-0.2,2.3-1.5,3.9
			c-0.3,1.2-0.9,2.6-2.3,3.9c-0.2,10.5-0.3,21.1-0.5,31.6c5.9,0.1,11.7,0.1,17.6,0.1c0-0.6,0-1.2,0.1-1.8v-1.7
			c1.2,1.8,3.5,3.7,8,4.3h0.1l0.3,0c1.3,0.1,2.6,0.1,3.9,0.2c-0.2-1.4-0.4-2.8-0.6-4.3C278,196.7,275.6,195.1,274.8,192.6"/>
		<path fill="#FFFFFF" d="M281.9,197.3L281.9,197.3l-0.3,0c0.2,1.4,0.4,2.9,0.6,4.3c1.1,0,2,0.1,3.1,0.1v-2c0-0.5,0-1,0-1.6
			l-0.5-0.7C283.9,197.4,282.9,197.3,281.9,197.3"/>
		<path fill="#00285E" d="M281.9,197.3L281.9,197.3l-0.3,0c0.2,1.4,0.4,2.9,0.6,4.3c1.1,0,2,0.1,3.1,0.1v-2c0-0.5,0-1,0-1.6
			l-0.5-0.7C283.9,197.4,282.9,197.3,281.9,197.3"/>
		<path fill="#ED174C" d="M318,171c-0.1,6.9-0.2,13.5-0.3,20.4l0,0.8c-0.1,1.4-0.6,2.5-1.4,3.5c-0.2,1.4-0.9,2.6-1.9,3.6
			c-0.1,1.4-0.1,2.9-0.1,4.3c5.8,0.8,11.6,1.6,17.3,2.4c0-0.8,0-1.5,0.1-2.2v-2.4c-3.8-0.5-7.6-1-11.5-1.5
			c0.2-12.1,0.4-23.7,0.5-35.8c-1.9-0.3-3.9-0.5-5.8-0.8v0.8C316.8,165.4,318,167.6,318,171"/>
		<path fill="#00285E" d="M318,171c-0.1,6.9-0.2,13.5-0.3,20.4l0,0.8c-0.1,1.4-0.6,2.5-1.4,3.5c-0.2,1.4-0.9,2.6-1.9,3.6
			c-0.1,1.4-0.1,2.9-0.1,4.3c5.8,0.8,11.6,1.6,17.3,2.4c0-0.8,0-1.5,0.1-2.2v-2.4c-3.8-0.5-7.6-1-11.5-1.5
			c0.2-12.1,0.4-23.7,0.5-35.8c-1.9-0.3-3.9-0.5-5.8-0.8v0.8C316.8,165.4,318,167.6,318,171"/>
		<path fill="#ED174C" d="M250,167.4c0,1,0,2.1,0,3.1c0.9-0.3,1.6-0.7,2.2-1.2l0.4-0.3c0-0.7,0-1.5,0-2.3
			C251.9,167,250.9,167.2,250,167.4"/>
		<path fill="#00285E" d="M250,167.4c0,1,0,2.1,0,3.1c0.9-0.3,1.6-0.7,2.2-1.2l0.4-0.3c0-0.7,0-1.5,0-2.3
			C251.9,167,250.9,167.2,250,167.4"/>
		<path fill="#ED174C" d="M228,160.7l-1.2,0.1c-0.7,0-1.4,0.1-2,0.2v0c0.6,0,1.2-0.1,1.8-0.1C227,160.7,227.5,160.7,228,160.7"/>
		<path fill="#00285E" d="M228,160.7l-1.2,0.1c-0.7,0-1.4,0.1-2,0.2v0c0.6,0,1.2-0.1,1.8-0.1C227,160.7,227.5,160.7,228,160.7"/>
		<path fill="#ED174C" d="M236.9,167.9c-2.2,0.1-4.3,0.3-6.5,0.4c0-2.6,0.1-5.1,0.1-7.8c-0.7,0-1.5,0.1-2.3,0.1
			c0,2.6-0.1,5.1-0.1,7.7l-1.2,0.1c0,0.8,0,1.6,0,2.4c0,0.5,0,1,0,1.4c1.4-0.1,3.1-0.2,4.1-0.2c0,3.6-0.4,29.2-0.4,29.2
			c5.9-0.2,11.7-0.4,17.6-0.7c0.1-0.6,0.1-1.1,0.1-1.7c0,0,0-0.9,0-2.2c-4,0.2-7.9,0.3-11.8,0.5
			C236.7,187.3,236.8,177.9,236.9,167.9"/>
		<path fill="#00285E" d="M236.9,167.9c-2.2,0.1-4.3,0.3-6.5,0.4c0-2.6,0.1-5.1,0.1-7.8c-0.7,0-1.5,0.1-2.3,0.1
			c0,2.6-0.1,5.1-0.1,7.7l-1.2,0.1c0,0.8,0,1.6,0,2.4c0,0.5,0,1,0,1.4c1.4-0.1,3.1-0.2,4.1-0.2c0,3.6-0.4,29.2-0.4,29.2
			c5.9-0.2,11.7-0.4,17.6-0.7c0.1-0.6,0.1-1.1,0.1-1.7c0,0,0-0.9,0-2.2c-4,0.2-7.9,0.3-11.8,0.5
			C236.7,187.3,236.8,177.9,236.9,167.9"/>
		<path fill="#ED174C" d="M254.9,165l-0.8,0.8c-0.4,0.3-0.9,0.6-1.4,0.8c0,0.7,0,1.5,0,2.3C254,167.6,254.6,166.2,254.9,165"/>
		<path fill="#00285E" d="M254.9,165l-0.8,0.8c-0.4,0.3-0.9,0.6-1.4,0.8c0,0.7,0,1.5,0,2.3C254,167.6,254.6,166.2,254.9,165"/>
		<path fill="#00285E" d="M254.9,165l-0.8,0.8c-0.4,0.3-0.9,0.6-1.4,0.8c0,0.7,0,1.5,0,2.3C254,167.6,254.6,166.2,254.9,165"/>
		<path fill="#ED174C" d="M354.7,176.2c-0.1,1.3-0.1,2.5-0.1,3.8c0.6-0.1,1.2-0.3,1.8-0.6c2.3-1.3,3.1-3.2,3.3-4.6l-1,0.7
			C357.6,176.2,356.3,176.4,354.7,176.2"/>
		<path fill="#00285E" d="M354.7,176.2c-0.1,1.3-0.1,2.5-0.1,3.8c0.6-0.1,1.2-0.3,1.8-0.6c2.3-1.3,3.1-3.2,3.3-4.6l-1,0.7
			C357.6,176.2,356.3,176.4,354.7,176.2"/>
		<path fill="#ED174C" d="M335.9,177.9c0,2.5-0.4,28.8-0.4,28.8c5.8,1.1,11.7,2.1,17.5,3.1c0-0.8,0-1.6,0.1-2.3c0,0,0-1,0.1-2.5
			c-3.9-0.7-7.8-1.4-11.7-2c0.1-9.8,0.2-19.1,0.4-28.9c-2.2-0.4-4.2-0.7-6.4-1.1c0-2.2,0.1-4.5,0.1-6.7c-0.7-0.1-1.4-0.2-2.1-0.3
			c0,3.9-0.1,7.7-0.2,11.5C334.1,177.5,335,177.7,335.9,177.9"/>
		<path fill="#00285E" d="M335.9,177.9c0,2.5-0.4,28.8-0.4,28.8c5.8,1.1,11.7,2.1,17.5,3.1c0-0.8,0-1.6,0.1-2.3c0,0,0-1,0.1-2.5
			c-3.9-0.7-7.8-1.4-11.7-2c0.1-9.8,0.2-19.1,0.4-28.9c-2.2-0.4-4.2-0.7-6.4-1.1c0-2.2,0.1-4.5,0.1-6.7c-0.7-0.1-1.4-0.2-2.1-0.3
			c0,3.9-0.1,7.7-0.2,11.5C334.1,177.5,335,177.7,335.9,177.9"/>
		<path fill="#ED174C" d="M205.1,163c-1.3,0.1-2.7,0.3-4,0.4c-0.6,0.1-1.2,0.1-1.8,0.2l0,1.1c2.8,1.3,2.7,4.9,2.6,11.2
			c-0.1,5.4-0.2,10.7-0.2,16.2c0,2-0.6,3.8-1.7,5.3c-0.3,1-0.7,2-1.2,2.8c0,1.4-0.1,2.7-0.1,4c0.9-0.1,1.8-0.2,2.8-0.3
			c8.1-1,15.7-1.7,23.1-2.2c0.7-0.1,1.4-0.1,2.1-0.2c0-1.2,0-2.5,0-3.7c-7.4,0.5-14.7,1.3-22.1,2.2
			C204.7,187.6,204.9,175.6,205.1,163"/>
		<path fill="#00285E" d="M205.1,163c-1.3,0.1-2.7,0.3-4,0.4c-0.6,0.1-1.2,0.1-1.8,0.2l0,1.1c2.8,1.3,2.7,4.9,2.6,11.2
			c-0.1,5.4-0.2,10.7-0.2,16.2c0,2-0.6,3.8-1.7,5.3c-0.3,1-0.7,2-1.2,2.8c0,1.4-0.1,2.7-0.1,4c0.9-0.1,1.8-0.2,2.8-0.3
			c8.1-1,15.7-1.7,23.1-2.2c0.7-0.1,1.4-0.1,2.1-0.2c0-1.2,0-2.5,0-3.7c-7.4,0.5-14.7,1.3-22.1,2.2
			C204.7,187.6,204.9,175.6,205.1,163"/>
		<path fill="#ED174C" d="M217.4,188.5c2.4-0.2,5.9-0.5,5.9-0.5c0-0.6,0-1.1,0.1-1.6c0-0.7,0-1.5,0-2.2c-2,0.1-3.9,0.3-6,0.5
			C217.5,185.9,217.4,187.2,217.4,188.5"/>
		<path fill="#00285E" d="M217.4,188.5c2.4-0.2,5.9-0.5,5.9-0.5c0-0.6,0-1.1,0.1-1.6c0-0.7,0-1.5,0-2.2c-2,0.1-3.9,0.3-6,0.5
			C217.5,185.9,217.4,187.2,217.4,188.5"/>
		<path fill="#ED174C" d="M224.6,168.7c-2.3,0.2-4.5,0.3-6.9,0.6c0,1.3,0,2.6,0,4c3.2-0.3,9.2-0.8,9.2-0.8l0-0.1
			c-1.3,0-2.4,0.1-2.4,0.1C224.5,171.2,224.6,169.9,224.6,168.7"/>
		<path fill="#00285E" d="M224.6,168.7c-2.3,0.2-4.5,0.3-6.9,0.6c0,1.3,0,2.6,0,4c3.2-0.3,9.2-0.8,9.2-0.8l0-0.1
			c-1.3,0-2.4,0.1-2.4,0.1C224.5,171.2,224.6,169.9,224.6,168.7"/>
		<path fill="#ED174C" d="M227,168.5c-0.8,0-1.6,0.1-2.4,0.2c0,1.2,0,2.5,0,3.8c0,0,1-0.1,2.4-0.1c0-0.5,0-0.9,0-1.5
			C227,170.1,227,169.3,227,168.5"/>
		<path fill="#00285E" d="M227,168.5c-0.8,0-1.6,0.1-2.4,0.2c0,1.2,0,2.5,0,3.8c0,0,1-0.1,2.4-0.1c0-0.5,0-0.9,0-1.5
			C227,170.1,227,169.3,227,168.5"/>
		<path fill="#00285E" d="M227,168.5c-0.8,0-1.6,0.1-2.4,0.2c0,1.2,0,2.5,0,3.8c0,0,1-0.1,2.4-0.1c0-0.5,0-0.9,0-1.5
			C227,170.1,227,169.3,227,168.5"/>
		<path fill="#ED174C" d="M188.7,174.3v-0.1l-0.3-1.1c-0.2,0-0.7,0-2.1,0.2c-0.1,7.3-0.2,14.2-0.3,21.5c0.9-0.2,1.7-0.3,2.6-0.5
			c0.1-3.6,0.2-8.1,0.3-12C188.8,178.5,188.9,175.4,188.7,174.3L188.7,174.3"/>
		<path fill="#00285E" d="M188.7,174.3v-0.1l-0.3-1.1c-0.2,0-0.7,0-2.1,0.2c-0.1,7.3-0.2,14.2-0.3,21.5c0.9-0.2,1.7-0.3,2.6-0.5
			c0.1-3.6,0.2-8.1,0.3-12C188.8,178.5,188.9,175.4,188.7,174.3L188.7,174.3"/>
		<path fill="#ED174C" d="M192.9,201.6c-6.8,1-13.2,2.1-20.1,3.4c0.2-10,0.3-19.6,0.4-29.6c-1.9,0-3.2-0.3-4.3-1.1
			c-1.5-1.1-1.7-2.7-1.7-3.6l0-0.6l0.3-1.2c-1.5,0.2-2.9,0.5-4.3,0.8L162,170c-0.1,0.8-0.2,1.5-0.4,2.4l0,0.2l0,0.7
			c0,2.6,1.3,4.2,2.4,5c1,0.7,2.2,1.1,3.4,1.3c0,3.1-0.4,29.9-0.4,29.9c1.1-0.2,2-0.4,3.1-0.6c6.9-1.3,13.3-2.4,19.9-3.4
			c4-0.6,7.1-2.5,8.8-5.3l0-1.4C197.2,200.2,195.3,201.2,192.9,201.6"/>
		<path fill="#00285E" d="M192.9,201.6c-6.8,1-13.2,2.1-20.1,3.4c0.2-10,0.3-19.6,0.4-29.6c-1.9,0-3.2-0.3-4.3-1.1
			c-1.5-1.1-1.7-2.7-1.7-3.6l0-0.6l0.3-1.2c-1.5,0.2-2.9,0.5-4.3,0.8L162,170c-0.1,0.8-0.2,1.5-0.4,2.4l0,0.2l0,0.7
			c0,2.6,1.3,4.2,2.4,5c1,0.7,2.2,1.1,3.4,1.3c0,3.1-0.4,29.9-0.4,29.9c1.1-0.2,2-0.4,3.1-0.6c6.9-1.3,13.3-2.4,19.9-3.4
			c4-0.6,7.1-2.5,8.8-5.3l0-1.4C197.2,200.2,195.3,201.2,192.9,201.6"/>
		<path fill="#ED174C" d="M198.7,198.9l0,1.4c0.5-0.8,0.9-1.8,1.2-2.8C199.6,198,199.2,198.4,198.7,198.9"/>
		<path fill="#00285E" d="M198.7,198.9l0,1.4c0.5-0.8,0.9-1.8,1.2-2.8C199.6,198,199.2,198.4,198.7,198.9"/>
		<path fill="#00285E" d="M198.7,198.9l0,1.4c0.5-0.8,0.9-1.8,1.2-2.8C199.6,198,199.2,198.4,198.7,198.9"/>
		<path fill="#ED174C" d="M287,173.7l0,0.7v0.5c0,2-0.5,3.4-1.7,4.6l-0.1,0.5c0.8,1.1,1.5,2.5,1.5,3.7c0,2.4,0,4.8-0.1,7.2
			c0.5,3,0.9,6.1,1.3,9.2c3.3,1.9,7.7,2.3,10.2,2.5l0.5,0c6.7,0.6,11.7-0.3,14.7-2.4l1.1-0.9v-2.2c-2.6,1.3-6.6,1.8-11.9,1.4
			c-4.3-0.4-13.2-0.8-13.3-8.4c0.1-7,0.2-13.6,0.3-20.5c0.1-4.4,2.4-7.1,6.9-8c-0.8,0-1.6,0.1-2.4,0.2c-2.5,0.3-5.2,1.1-7.3,2.9
			C287.2,166.8,287.1,169.7,287,173.7"/>
		<path fill="#00285E" d="M287,173.7l0,0.7v0.5c0,2-0.5,3.4-1.7,4.6l-0.1,0.5c0.8,1.1,1.5,2.5,1.5,3.7c0,2.4,0,4.8-0.1,7.2
			c0.5,3,0.9,6.1,1.3,9.2c3.3,1.9,7.7,2.3,10.2,2.5l0.5,0c6.7,0.6,11.7-0.3,14.7-2.4l1.1-0.9v-2.2c-2.6,1.3-6.6,1.8-11.9,1.4
			c-4.3-0.4-13.2-0.8-13.3-8.4c0.1-7,0.2-13.6,0.3-20.5c0.1-4.4,2.4-7.1,6.9-8c-0.8,0-1.6,0.1-2.4,0.2c-2.5,0.3-5.2,1.1-7.3,2.9
			C287.2,166.8,287.1,169.7,287,173.7"/>
		<path fill="#FFFFFF" d="M286.5,197.5l-1.2-0.1v0.6c0.7,0.9,1.6,1.5,2.6,2.1c-0.4-3.1-0.8-6.2-1.3-9.2
			C286.5,193.1,286.5,195.2,286.5,197.5"/>
		<path fill="#00285E" d="M286.5,197.5l-1.2-0.1v0.6c0.7,0.9,1.6,1.5,2.6,2.1c-0.4-3.1-0.8-6.2-1.3-9.2
			C286.5,193.1,286.5,195.2,286.5,197.5"/>
		<path fill="#ED174C" d="M304.1,189.4l0.5,0c0.1-0.5,0.1-0.9,0.1-1.5c0-4.9,0.1-9.4,0.2-14.3c0-1.8,0-3.4-0.2-4.1
			c0,0-0.2-0.2-1.5-0.4h-0.4c-0.1,0.8-0.2,1.5-0.2,2.4v0.9c-0.1,4.9-0.1,9.6-0.2,14.5v0.1v0.6c0,0.6,0,1.1,0.3,1.5
			C302.9,189.2,303.3,189.4,304.1,189.4"/>
		<path fill="#00285E" d="M304.1,189.4l0.5,0c0.1-0.5,0.1-0.9,0.1-1.5c0-4.9,0.1-9.4,0.2-14.3c0-1.8,0-3.4-0.2-4.1
			c0,0-0.2-0.2-1.5-0.4h-0.4c-0.1,0.8-0.2,1.5-0.2,2.4v0.9c-0.1,4.9-0.1,9.6-0.2,14.5v0.1v0.6c0,0.6,0,1.1,0.3,1.5
			C302.9,189.2,303.3,189.4,304.1,189.4"/>
		<polygon fill="#ED174C" points="285.1,179.8 285.2,180 285.3,179.5 		"/>
		<polygon fill="#00285E" points="285.1,179.8 285.2,180 285.3,179.5 		"/>
		<polygon fill="#00285E" points="285.1,179.8 285.2,180 285.3,179.5 		"/>
		<polygon fill="#FFFFFF" points="284.8,197.4 285.3,198.1 285.3,197.5 		"/>
		<polygon fill="#00285E" points="284.8,197.4 285.3,198.1 285.3,197.5 		"/>
		<polygon fill="#00285E" points="284.8,197.4 285.3,198.1 285.3,197.5 		"/>
		<path fill="#ED174C" d="M314.3,197.2v2.2c1-1.1,1.7-2.2,1.9-3.6C315.8,196.3,315.1,196.8,314.3,197.2"/>
		<path fill="#00285E" d="M314.3,197.2v2.2c1-1.1,1.7-2.2,1.9-3.6C315.8,196.3,315.1,196.8,314.3,197.2"/>
		<path fill="#00285E" d="M314.3,197.2v2.2c1-1.1,1.7-2.2,1.9-3.6C315.8,196.3,315.1,196.8,314.3,197.2"/>
		<path fill="#006BB6" d="M273.8,174.8L273.8,174.8l-0.1,0.3c-0.8,0-1.6-0.1-2.3-0.1c0-2.5,0-5,0.1-7.5l0.2,0h0.2
			c0.7,0,1.6,0,1.7,0.1c0.1,0,0.3,0.3,0.3,2.1v0.3v1.4c0,1.6,0,1.9-0.1,2.9L273.8,174.8 M275.6,174.8c0.1-1.7,0.2-1.6,0.1-4.7
			c0.1-4-1.1-3.9-4.1-4c-0.7,0-1.4,0-2,0c0,3.5-0.1,6.9-0.1,10.4c1.4,0,2.9,0.1,4.3,0.1C275,176.5,275.6,175.5,275.6,174.8"/>
		<path fill="#006BB6" d="M279.5,161.3c5.6,0.7,5.9,2.4,5.7,12.2v0.7l0,0.5c0,2.1-0.6,3.5-2.4,4.9l0.4,0.4c1,1,1.6,2.5,1.7,3.6
			c-0.1,4.2-0.1,8.1-0.2,12.3c-0.9-0.1-1.7-0.1-2.6-0.2c-2.7-0.4-4.7-1.4-5.5-3.6l-0.2-2.2c0-0.5-0.1-5.1-0.1-6.5
			c0.1-2.2-2.1-3-4.7-3.1c-0.7,0-1.3,0-2-0.1c-0.1,5-0.1,9.7-0.2,14.7h-9.4c0.2-11.6,0.3-22.6,0.5-34.1
			C266.8,160.9,273,161,279.5,161.3 M258.6,159.5v0.3c-0.2,12.4-0.4,24.2-0.5,36.7c4.3-0.1,8.6,0,12.9,0c0.1-5,0.1-9.7,0.2-14.7h0.2
			c3,0.1,2.9,1.3,2.9,1.7c0,1.1,0,4.2,0.1,5.8l0,0.7c0,2.2,0.1,2.4,0.2,2.5c0.8,2.5,3.2,4.1,6.8,4.6l0.3,0h0.1c1,0,1.9,0.1,2.9,0.1
			l0.5,0l1.2,0.1c0-2.3,0-4.4,0.1-6.6c0-2.3,0-4.7,0.1-7.2c0-1.2-0.6-2.6-1.5-3.8l-0.1-0.2l0.3-0.3c1.1-1.3,1.6-2.6,1.7-4.6v-0.5
			l0-0.7c0.1-3.9,0.1-6.9-0.5-9c-0.7-2.5-2.2-3.9-5.5-4.5c-0.4-0.1-0.9-0.2-1.4-0.3l-0.1,0h-0.1c-1.5-0.1-3-0.1-4.5-0.2
			C269.5,159.5,264.1,159.5,258.6,159.5"/>
		<path fill="#006BB6" d="M322.4,164.8c3.1,0.4,6,0.8,9.1,1.3c-0.2,11.4-0.3,22.4-0.4,33.8c-3.1-0.4-6-0.8-9.1-1.2
			C322.1,187.2,322.3,176.3,322.4,164.8 M331.6,201.4l1.2,0.2c0.2-8.2,0.3-16.1,0.4-24.2c0-3.8,0.1-7.6,0.2-11.5v-1
			c-0.6-0.1-1.2-0.1-1.8-0.2c-3.7-0.6-7.2-1.1-10.9-1.5v0.9c-0.2,12.1-0.4,23.7-0.6,35.8C324,200.3,327.8,200.9,331.6,201.4"/>
		<path fill="#006BB6" d="M248.2,166c-0.1,9.9-0.3,19.3-0.4,29.3c-3.2,0.1-6.1,0.2-9.4,0.4c0.1-9.9,0.3-19.4,0.4-29.3
			c-2.2,0.1-4.3,0.2-6.5,0.4c0-1.7,0-3.3,0.1-4.9c7.5-0.5,14.7-0.7,22.2-0.8C254.5,161,255,166.1,248.2,166 M252.6,166.6
			c0.5-0.2,1-0.5,1.4-0.8l0.8-0.8c1.3-1.5,1.5-3.2,1.5-3.9v-0.2l-0.1-1.1v-0.3h-1.7c-8.2,0.1-15.9,0.4-24,0.9v0
			c0,2.7-0.1,5.2-0.1,7.8c2.2-0.1,4.3-0.3,6.5-0.4c-0.1,9.9-0.2,19.3-0.4,29.3c3.9-0.3,7.8-0.4,11.8-0.5l1.1,0
			c0.2-8.9,0.3-17.4,0.4-26.2c0-1,0-2,0-3.1C250.9,167.2,251.9,167,252.6,166.6"/>
		<path fill="#006BB6" d="M337.2,166.9c7.4,1.2,14.6,2.5,22.1,4c0,0,0.3,5.2-6.3,3.6c-0.1,9.8-0.3,19.1-0.4,28.9
			c-3.2-0.6-6.2-1.1-9.3-1.7c0.1-9.7,0.3-19,0.4-28.8c-2.2-0.4-4.3-0.7-6.4-1.1C337.2,170.2,337.2,168.6,337.2,166.9 M341.8,174
			c-0.1,9.8-0.3,19.1-0.4,28.9c3.9,0.6,7.8,1.3,11.7,2.1l1.2,0.2c0.1-8.5,0.2-16.7,0.3-25.2c0-1.3,0-2.5,0.1-3.8
			c1.6,0.2,2.9-0.1,4-0.7l1-0.7c1.2-1.2,1.3-2.8,1.3-3.4v-0.3l-0.1-1.3c-0.6-0.1-1.1-0.2-1.7-0.4c-8.1-1.6-15.8-3-23.9-4.3v1
			c0,2.3,0,4.5-0.1,6.7C337.5,173.3,339.6,173.7,341.8,174"/>
		<path fill="#006BB6" d="M215.9,168c-0.1,2.8-0.1,5.5-0.1,8.3c2.4-0.2,4.8-0.5,7.2-0.7c0,2.4-0.1,4.7-0.1,7.1
			c-2.4,0.2-4.8,0.4-7.2,0.6c0,3.1-0.1,5.9-0.1,8.9c3.6-0.4,7-0.6,10.5-0.9c0,1.7,0,3.4,0,5.1c-3.3,0.2-6.5,0.5-9.8,0.8
			c-3.4,0.3-6.6,0.7-9.9,1.1c0.2-11.6,0.3-22.7,0.5-34.3c6.6-0.8,13-1.3,19.6-1.8c0,1.6,0,3.2,0,4.9
			C222.9,167.4,219.5,167.6,215.9,168 M224.6,168.7c0.8-0.1,1.6-0.1,2.4-0.2l1.2-0.1c0-2.6,0-5.1,0.1-7.7v0l-0.3,0
			c-0.5,0-1,0.1-1.4,0.1c-0.6,0-1.3,0.1-1.8,0.1c-6.6,0.6-13,1.2-19.6,1.9v0.2c-0.2,12.6-0.4,24.5-0.5,37.1
			c7.4-0.9,14.7-1.7,22.1-2.2l1.2-0.1c0-2.7,0.1-5.2,0.1-8c-3.4,0.3-6.9,0.6-10.5,0.9c0.1-0.7,0.1-1.5,0.1-2.2c0-1.3,0-2.6,0-3.8
			c2.1-0.2,4-0.4,6-0.5l1.2-0.1c0-3.4,0.1-6.6,0.1-10c-2.4,0.1-4.7,0.4-7.2,0.7c0-0.6,0-1,0-1.5c0-1.4,0-2.7,0-4
			C220.1,169,222.3,168.8,224.6,168.7"/>
		<path fill="#006BB6" d="M169.2,170c8.4-1.7,16.4-3,24.7-4.2c6.7-0.7,6.4,1.6,6.2,11.5c-0.1,5.1-0.2,10-0.2,15
			c-0.2,4.4-2.9,7.2-6.9,7.9c-6.2,0.9-12.1,1.9-18.3,3.1c0.2-9.9,0.3-19.5,0.4-29.4C168.3,174.8,169.2,170,169.2,170 M167.3,170.8
			c0,0.9,0.1,2.5,1.6,3.6c1.1,0.8,2.4,1.1,4.3,1.1c-0.1,10-0.2,19.6-0.4,29.6c6.8-1.3,13.3-2.4,20.1-3.4c2.4-0.4,4.3-1.3,5.8-2.7
			c0.4-0.5,0.9-0.9,1.2-1.5c1-1.5,1.6-3.3,1.7-5.3c0-5.4,0.1-10.7,0.2-16.2c0.1-6.3,0.2-9.9-2.6-11.2c-1.2-0.5-2.9-0.7-5.3-0.4
			c-9,1.3-17.5,2.8-26.3,4.5v0.1l-0.3,1.2L167.3,170.8z"/>
		<path fill="#006BB6" d="M188.8,182.3c0,3.9-0.2,8.4-0.3,12c-0.9,0.2-1.7,0.2-2.6,0.5c0.1-7.3,0.2-14.2,0.3-21.5
			c1.4-0.2,1.9-0.2,2.1-0.2l0.3,1.1v0.1l0,0.1C188.9,175.4,188.8,178.5,188.8,182.3 M190.5,174c0,0,0.2-2.1-1.4-2.4
			c0,0-0.6-0.2-4.6,0.6c-0.1,8.3-0.2,16.1-0.3,24.3c2.1-0.3,4-0.7,6.1-1C190.3,195.5,190.8,176.9,190.5,174"/>
		<path fill="#006BB6" d="M302.4,187.6V187v-0.1c0.1-4.9,0.1-9.6,0.2-14.5v-0.9c0-0.9,0.1-1.6,0.2-2.3h0.4c1.4,0.1,1.5,0.3,1.5,0.4
			c0.2,0.7,0.3,2.3,0.2,4.1c0,4.9-0.1,9.5-0.2,14.3c0,0.5,0,1-0.1,1.5l-0.5-0.1c-0.8,0-1.3-0.2-1.5-0.4
			C302.4,188.7,302.3,188.1,302.4,187.6 M304.1,190.8c0.7,0.1,1.4,0,2.1,0c0.3-0.9,0.3-1.7,0.3-2.7c0.1-4.8,0.1-9.5,0.2-14.3
			c0-4.8-0.1-5.6-3.6-6c-0.7-0.1-1.2-0.1-2,0c-0.4,1.5-0.4,3-0.4,4.5c-0.1,4.9-0.1,9.6-0.2,14.5
			C300.6,188.7,300.4,190.4,304.1,190.8"/>
		<path fill="#006BB6" d="M298.2,162.8c1.7-0.2,3.7-0.2,6.2,0c6.8,0.6,11.8,1.1,11.8,7.9c-0.1,6.9-0.1,13.5-0.2,20.4l-0.1,0.9
			c-0.1,4.7-6,5.7-13.4,5.1c-7.2-0.6-11.5-1.8-11.5-6.9c0-6.9,0.2-13.5,0.3-20.4C291.3,165,294.1,163.3,298.2,162.8 M289.4,169.7
			c-0.1,6.9-0.2,13.5-0.3,20.5c0.1,7.6,9,8.1,13.3,8.4c5.4,0.4,9.3-0.1,11.9-1.4c0.8-0.4,1.4-0.9,1.9-1.5c0.9-1,1.3-2.1,1.4-3.5
			l0-0.8c0.1-6.9,0.2-13.5,0.3-20.4c0-3.5-1.2-5.6-3.2-7c-2.7-1.9-6.6-2.3-10.4-2.6c-2.4-0.2-4.6-0.3-6.7-0.1
			c-0.5,0.1-1,0.1-1.5,0.3C291.7,162.6,289.5,165.3,289.4,169.7"/>
		<path fill="#FFFFFF" d="M269.7,166c0.6,0,1.3,0,2,0c2.9,0.1,4.2,0,4,4c0.1,3.1,0,3.1-0.1,4.7c0,0.8-0.6,1.7-1.8,1.7
			c-1.4-0.1-2.9-0.1-4.3-0.1C269.6,172.8,269.7,169.5,269.7,166 M259.9,195h9.4c0.1-4.9,0.1-9.6,0.2-14.7c0.7,0,1.3,0,2,0.1
			c2.6,0.1,4.8,0.9,4.7,3.1c0,1.4,0.1,6,0.1,6.5l0.2,2.2c0.8,2.2,2.8,3.2,5.5,3.6c0.9,0,1.7,0.1,2.6,0.2c0.1-4.2,0.1-8.2,0.2-12.3
			c-0.1-1.1-0.8-2.6-1.7-3.6l-0.4-0.4c1.8-1.5,2.4-2.8,2.4-4.9l0-0.5v-0.7c0.1-9.8-0.1-11.5-5.7-12.2c-6.4-0.2-12.7-0.4-19.1-0.4
			C260.2,172.4,260,183.5,259.9,195"/>
		<path fill="#FFFFFF" d="M331.5,166.1c-3.1-0.5-6-0.9-9.1-1.3c-0.1,11.5-0.3,22.4-0.5,33.8c3.1,0.4,6,0.9,9.1,1.2
			C331.2,188.5,331.4,177.5,331.5,166.1"/>
		<path fill="#FFFFFF" d="M254.5,161c-7.5,0.1-14.7,0.4-22.2,0.9c-0.1,1.6-0.1,3.2-0.1,5c2.2-0.2,4.3-0.2,6.5-0.4
			c-0.2,9.9-0.3,19.3-0.4,29.3c3.2-0.2,6.2-0.3,9.4-0.4c0.2-9.9,0.3-19.4,0.4-29.3C255,166.1,254.5,161,254.5,161"/>
		<path fill="#FFFFFF" d="M343.2,201.8c3.1,0.5,6.1,1,9.3,1.7c0.1-9.8,0.3-19.1,0.4-28.9c6.7,1.5,6.4-3.6,6.4-3.6
			c-7.5-1.5-14.7-2.8-22.1-4c0,1.7,0,3.2,0,4.9c2.2,0.3,4.2,0.7,6.4,1.1C343.5,182.7,343.4,192,343.2,201.8"/>
		<path fill="#FFFFFF" d="M226.4,162.2c-6.6,0.5-13,1.1-19.6,1.8c-0.2,11.6-0.3,22.7-0.5,34.3c3.4-0.4,6.5-0.7,9.9-1.1
			c3.3-0.4,6.4-0.6,9.8-0.9c0-1.7,0-3.4,0-5.1c-3.5,0.3-6.9,0.6-10.5,0.9c0-3,0.1-5.9,0.1-8.9c2.4-0.2,4.8-0.4,7.2-0.6
			c0-2.4,0.1-4.7,0.1-7.1c-2.4,0.2-4.8,0.4-7.2,0.7c0-2.8,0-5.5,0.1-8.3c3.6-0.4,7-0.6,10.5-0.9
			C226.4,165.4,226.4,163.9,226.4,162.2"/>
		<path fill="#FFFFFF" d="M184.5,172.2c4-0.8,4.6-0.6,4.6-0.6c1.6,0.3,1.4,2.3,1.4,2.3c0.3,3-0.2,21.6-0.2,21.6
			c-2.1,0.3-4,0.7-6.1,1C184.2,188.3,184.3,180.4,184.5,172.2 M175.1,173.8c-0.1,9.9-0.3,19.5-0.4,29.4c6.2-1.1,12.1-2.1,18.3-3.1
			c4-0.7,6.6-3.5,6.9-7.9c0-5,0.1-9.9,0.2-15c0.2-9.9,0.5-12.2-6.2-11.5c-8.3,1.2-16.3,2.6-24.7,4.2
			C169.2,170,168.3,174.8,175.1,173.8"/>
		<path fill="#FFFFFF" d="M300.6,186.8c0.1-4.9,0.1-9.6,0.2-14.5c0-1.6,0-3.1,0.4-4.5c0.7-0.1,1.2,0,1.9,0c3.5,0.4,3.6,1.2,3.6,6
			c-0.1,4.8-0.1,9.5-0.2,14.3c0,1,0,1.8-0.3,2.7c-0.7,0-1.4,0-2.1,0C300.4,190.4,300.6,188.7,300.6,186.8 M290.9,190.2
			c0,5.1,4.3,6.3,11.5,6.9c7.4,0.6,13.3-0.4,13.4-5.1l0.1-0.9c0.1-6.9,0.2-13.5,0.2-20.4c0-6.8-5-7.3-11.8-7.9
			c-2.5-0.2-4.5-0.3-6.2-0.1c-4,0.4-6.8,2.2-6.9,6.9C291.1,176.7,291,183.3,290.9,190.2"/>
		<path fill="#006BB6" d="M157.9,301c-6.5,1-12.7,1.9-19.2,3.1c0-26.5-0.1-51.9-0.1-78.4c6.5-1.2,12.8-2.2,19.3-3.1V301
			 M161.6,254.3v-25v-10.6c-1.2,0.2-2.5,0.4-3.8,0.6c-7.8,1.1-15.3,2.4-23.1,3.8v0.3c0.1,28.6-0.1,56,0.1,84.5
			c8.9-1.6,17.6-3,26.5-4.2l0.2-0.1V254.3z"/>
		<path fill="#006BB6" d="M215.9,219.8c0,0-0.3,2-1.6,4c-1.5,2.1-3.3,3.9-7.1,4.2c-5.6,0.4-11.2,0.9-16.9,1.5v5.1
			c0.2,5.7,5.5,7.5,10.7,9.2c1.3,0.4,2.5,0.8,3.8,1.3c1.2,0.4,2.2,1,3.2,1.5c1.9,1.2,3.1,2.5,3.3,4.7c0.4,5.9,0.2,32.2,0.1,32.2
			c0,0.6-0.2,3.5-0.7,4.7c-2.3,5.4-7.5,7.1-14.1,8c-7.5,0.6-14.4,1.5-21.8,2.5c0-3.2,0-6.3,0-9.5c5.9-0.8,11.4-1.4,17.1-1.9
			c0-9.9-0.1-19.4-0.1-29.4c-0.4-0.7-1.2-0.9-1.8-1.1c-0.6-0.2-1.4-0.2-1.8-0.3c-6.9-1.1-12.1-3-14.7-8.9c-1.6-4-0.2-18.8-0.2-19
			c0,0-0.1-0.5,0.1-1.3c1.1-4.7,4.9-7.4,10.7-7.9l0.9-0.2c4-0.5,25.2-2.3,30.9-2.6C216.1,217.3,216.1,218.5,215.9,219.8
			 M216.5,213.2h-0.6c-12.4,0.8-27.8,2.3-31,2.7L184,216l-0.2,0.1c-1.2,0.1-2.4,0.4-3.5,0.7h-0.1c-5.7,1.6-9.5,5.2-10.5,10.3
			c0,0.6-0.2,1.2-0.2,1.9v-0.3c-0.2,1.5-0.5,6.5-0.5,11.4c0,3.7,0.2,7.1,1,8.9c3.4,7.6,10.9,9.5,17.2,10.6l0.6,0.1l0.3,0.1
			c0,8.3,0.1,16.3,0.1,24.6c-2.9,0.3-5.6,0.6-8.4,0.9c-2.7,0.3-5.4,0.7-8.2,1h-0.2l-0.3,0c0,5.4,0.1,10.6,0.1,15.9
			c8.6-1.1,16.8-2,25.6-2.8h0c10.1-1.1,18.5-4.8,18.5-17.3c0-6.4,0.1-11.6,0.1-16.1c0-4.3,0-7.6-0.1-10.1c0-2.3-0.1-4-0.2-5.1
			c-0.2-2.9-1.8-5-4.7-6.9c-1-0.7-2.1-1.2-3.8-1.8c-1-0.5-2.2-0.8-3.5-1.2l-0.4-0.1c-0.8-0.3-1.6-0.6-2.4-0.8
			c-3.9-1.4-6.2-2.7-6.2-5.7v-1.8c4.5-0.5,8.7-0.8,13.1-1.1c4.6-0.4,8.1-2.4,10.4-6.1c1.5-2.4,2-4.6,2-5.2l0-0.1v-0.1
			c0-0.6,0.1-1.1,0.1-1.8c0-0.6-0.1-1.3-0.1-2c0-1-0.3-1.9-0.3-2.9h0C218.3,213.1,217.4,213.2,216.5,213.2"/>
		<path fill="#006BB6" d="M403.3,308.5c-6.5-1.4-12.7-2.6-19.4-3.8c-5-12.6-10.1-24.5-15.1-37v34.4c-6.5-1-12.3-1.8-18.9-2.7
			c0-26.6,0.1-52,0.1-78.5c0,0,19.2-0.8,26.2,18c2.3,6.9,4.4,13.4,6.5,20.2c0.6,1.6,0.9,3.2,1.5,4.8v-37.7
			c6.5,1.2,12.6,2.4,19.2,3.7V308.5 M404.9,227.1c-8.3-1.7-16.3-3.2-24.6-4.7v0.2v17.9c-0.2-0.7-0.4-1.3-0.6-1.9
			c-1.7-4.7-4.1-8.4-6.9-11.3l-0.9-0.9c-6.5-6.2-14.7-8.4-20.4-8.7c-0.8,0-1.6,0-2.4,0c0,0-2,0-3,0.1v0.1v84.4
			c8.8,1.1,17.6,2.3,26.4,3.8v-20c4,9.7,8.8,21.5,8.8,21.5c8.8,1.6,17.2,3.2,25.8,5v-84.8v-0.1C406.3,227.4,405.6,227.3,404.9,227.1
			"/>
		<path fill="#006BB6" d="M444.6,266c1.3,0.8,2.6,1.7,3.8,2.6c1.1,0.9,2.2,1.8,3.3,2.7c1.9,1.9,3.1,3.6,3.3,5.8
			c0.3,5.9,0.1,32.5,0.1,34.8c0,0,0,0.5-0.4,1.1c-2.1,4.7-6.6,6-14.5,3.9c-7.4-2-14.4-3.7-21.8-5.4v-9.5c5.7,1.3,11.4,2.6,17,4.1
			c0-10-0.1-19.5-0.1-29.4c-0.4-0.7-1.1-1.3-1.8-1.7c-0.6-0.4-1.4-0.7-1.8-0.9c-6.9-3.6-12.2-7.3-14.7-14.1
			c-1.6-4.5-0.3-18.9-0.3-19.1c0,0,0-0.4,0.2-1.2c1.1-4.4,4.8-5.6,10.7-4.2c0.2,0,24.9,6.5,31.7,8.5c0,1,0.1,2.1,0.1,3.3
			c0,0.5-0.7,2.1-1.7,3.6c-1.5,1.4-3.4,2.5-7,1.5c-5.6-1.5-11.2-3-16.9-4.5v5.1C433.9,258.8,439.6,262.5,444.6,266 M437.7,254v-1.9
			c4.4,1.2,8.8,2.3,13.1,3.6c4.4,1.2,7.9,0.5,10.2-2.2c1.7-1.7,2.4-4.7,2.4-4.8l-0.1-1c0-0.5,0-1,0-1.6c-0.1-1.4-0.2-2.8-0.2-4.2v0
			l-1-0.3c-0.8-0.2-1.6-0.5-2.4-0.8l-0.3-0.1c-8.6-2.6-21.2-5.8-27.6-7.5c-2.4-0.6-3.9-1-4.2-1.1h0.1l0.1,0l-0.2-0.1
			c-7.9-1.8-13,0.7-14.2,6.3c0,0.6-0.9,7.8-0.8,12.8c0.1,3.6,0.2,7,1,9.2c3.5,8.9,10.9,13.4,17.2,16.7l0.6,0.3l0.3,0.1
			c0.2,2.6,0.1,19.8,0.1,24.7c-2.5-0.6-4.9-1.2-7.2-1.7c-3.3-0.8-6.4-1.5-9.8-2.3v0V314c8.8,2,16.8,3.9,25.6,6.2l0.1,0
			c9.3,2,15.2,0.2,17.9-5.1c0.5-0.9,0.6-2.1,0.6-2.1v-0.1c0-3.2,0.1-9.5,0.1-16.2V296c0-6.2-0.1-12.1-0.2-15.7l0-0.9
			c0-0.5,0-1-0.1-1.3c-0.2-3-1.7-5.7-4.7-8.5c-1.1-1-2.1-2-3.8-3.2c-1.1-0.8-2.3-1.6-3.4-2.4l-0.5-0.4c-1.1-0.7-2.1-1.4-2.9-2.1
			C439.8,258.9,437.7,256.8,437.7,254"/>
		<path fill="#006BB6" d="M262.3,226.5v67.3c-6.7,0-13.2,0-20,0.2v-67.2c-4.6,0.1-8.9,0.2-13.8,0.5v-11.4
			c15.9-0.8,31.1-0.9,47.1-0.6C275.6,215.4,276.8,227.2,262.3,226.5 M279.4,215.3c0-1.1,0-2-0.2-3.1c-1,0-2.3-0.1-3.6-0.1
			c-15.8-0.3-31-0.2-46.7,0.5c-1.4,0.1-2.8,0.1-4.2,0.2v17.9c4.6-0.3,9-0.5,13.8-0.6v67.2c9.3-0.3,18.2-0.4,27.5-0.3v-67.4
			c3.4-0.4,6.3-1.4,8.6-3.2c1.9-1.6,3-3.4,3.7-5.1c1-2.3,1.1-4.5,1.1-5.5V215.3z"/>
		<path fill="#006BB6" d="M60,244c17.9-5.2,35-9.5,52.8-13.4c11.8-1.1,12.6,2.4,12.6,25.1c0,0.6,0,1.1,0,1.7v1.2
			c0,9.7-5.6,15.1-14.2,17c-6.3,1.4-12.4,2.8-18.7,4.3v33.9c-6.7,1.6-13.3,3.3-20,5.1c-0.2-22.7,0-44.5,0-67.2
			C58,255.8,60,244,60,244 M57.3,242.5c-0.9,1.1-1.2,2.4-1.2,3.7c0,2.4,1,4.9,1.6,5.9c1.3,2,4.3,4.6,11.1,3.5v67.4
			c9.2-2.6,18.3-4.8,27.5-7h0v-18.8v-0.1v-5v-3.1v-7c5.1-1.2,9.9-2.3,14.9-3.4c11.4-2.5,17.9-9.9,18-21v-1.2c0-0.5,0-1.1,0-1.6
			c0-11.9,0.1-19.8-2.7-24.1l-0.4-0.6l-0.1-0.1l-0.4-0.4l0-0.1l-0.4-0.4l0,0c-2.3-2-5.8-2.7-11.2-2.1l-0.8,0.1l-0.1,0h-0.1l-1.3,0.3
			l-0.4,0.1c-1.7,0.4-3.5,0.8-5.2,1.1l-1,0.2c-2.5,0.6-5.1,1.1-7.6,1.8c-1,0.2-2,0.4-3,0.7l-0.9,0.2c-2.4,0.6-4.7,1.2-7.1,1.8
			c-2.4,0.6-4.8,1.2-7.2,1.9l-1.1,0.3c-6.5,1.7-13.1,3.5-19.7,5.5L57.3,242.5z"/>
		<path fill="#006BB6" d="M96,266.6v-18l1.2-0.3c0.8-0.2,1.7-0.3,2.6-0.5c1-0.2,1.2,0,1.7,1c0,0.5,0.1,14.4,0.1,16.4
			C99.7,265.7,97.9,266.2,96,266.6 M105.1,267.6l0.1-1.3c0.2-4.1,0.1-13.6,0.1-13.6c0-0.9,0-1.8,0-2.7c0-1,0-1.9-0.2-2.7
			c-0.7-1.8-1.9-3.1-4.9-2.7c-1,0.1-2.2,0.4-3.7,0.7c-1.5,0.3-2.9,0.6-4.3,1v24.5c3.6-0.9,6.9-1.7,10.4-2.5
			C103.5,268.1,104.3,267.9,105.1,267.6"/>
		<path fill="#FFFFFF" d="M138.6,304.1c6.5-1.1,12.7-2.1,19.2-3.1v-78.4c-6.5,0.9-12.8,1.9-19.3,3.1
			C138.6,252.2,138.6,277.6,138.6,304.1"/>
		<path fill="#FFFFFF" d="M185,219.1l-0.9,0.2c-5.9,0.6-9.6,3.2-10.7,7.9c-0.2,0.8-0.1,1.3-0.1,1.3c0,0.2-1.3,15,0.2,19
			c2.6,5.9,7.8,7.8,14.7,8.9c0.5,0.1,1.2,0.1,1.8,0.3c0.6,0.2,1.4,0.4,1.8,1.1c0,10,0.1,19.4,0.1,29.4c-5.7,0.6-11.2,1.2-17.1,1.9
			c0,3.2,0,6.3,0,9.5c7.4-1,14.2-1.9,21.8-2.5c6.6-0.9,11.8-2.6,14.1-8c0.5-1.2,0.7-4.1,0.7-4.7c0,0,0.3-26.3-0.1-32.2
			c-0.2-2.2-1.4-3.5-3.3-4.7c-1-0.5-2-1.1-3.2-1.5c-1.3-0.5-2.5-0.9-3.8-1.3c-5.2-1.7-10.5-3.5-10.7-9.2v-5.1
			c5.7-0.6,11.2-1.1,16.9-1.5c3.8-0.4,5.6-2.1,7.1-4.2c1.3-2,1.6-4,1.6-4c0.2-1.3,0.2-2.5,0-3.3C210.1,216.8,189,218.6,185,219.1"/>
		<path fill="#006BB6" d="M336.7,282.3c0,0.6,0,1.3,0,1.9c-0.1,10.8-12.5,13.2-28.3,12.2c-15.4-1.2-24.6-3.6-24.7-15.4v-47.4
			c0.1-11,5.9-15,14.5-16.5c3.8-0.6,8-0.6,13.3-0.2c14.5,1.2,25.1,2.2,25.2,17.9V282.3 M311.8,213.1L311.8,213.1
			c-6.2-0.4-10.5-0.4-14.2,0.2c-1.5,0.2-2.9,0.6-4.2,1c-9.1,2.7-13.5,9-13.6,19.3V281c0.1,17.1,17,18.4,28.2,19.2
			c13.9,0.9,23-0.9,28.1-5.6c2.9-2.7,4.4-6.1,4.4-10.3l0-2v-47.4c0-4.6-0.9-8.2-2.3-11C333.6,214.9,322.6,214,311.8,213.1"/>
		<path fill="#006BB6" d="M313.1,275.3l-0.1,2.5h-0.2l-0.7,0c-3.7-0.3-4.2-0.9-4.2-3.5c0-0.5,0-1.1,0-1.7v-0.2v-33.6v-1.3l0-1.4
			c0-0.6,0-1.3,0.1-1.9l0-0.2v-0.2c0-0.7,0-1.2,0.1-1.9l0.5,0l0.1,0h0.1c1.6,0.2,3.5,0.4,3.8,0.9c0.6,1.2,0.6,4.9,0.6,9.1
			 M309,228.2c-1.2-0.2-2.4-0.1-3.6,0l-0.7,0.5c-0.4,1.6-0.7,3.3-0.7,5.2c-0.2,1.7-0.1,3.5-0.1,5v33.6c-0.2,4.5-0.1,8.6,7.7,9.2
			c1.2,0.1,2.5,0.2,4,0.1l0.7-0.5c0.2-1,0.2-1.9,0.5-2.9c0-1,0.1-2,0.1-2.9v-33.2C316.9,231.1,316.9,228.9,309,228.2"/>
		<path fill="#FFFFFF" d="M316.9,275.3c0,1-0.1,1.9-0.1,2.9c-0.2,1-0.2,1.9-0.5,2.9l-0.7,0.5c-1.5,0.1-2.7,0-4-0.1
			c-7.8-0.7-7.9-4.8-7.7-9.2v-33.6c0-1.5-0.1-3.3,0.1-5c0-1.9,0.3-3.6,0.7-5.2l0.7-0.5c1.2,0,2.4-0.1,3.6,0
			c7.9,0.7,7.9,2.9,7.9,13.9V275.3 M311.5,216.9c-5.3-0.4-9.5-0.4-13.3,0.2c-8.6,1.5-14.4,5.5-14.5,16.5V281
			c0.1,11.8,9.3,14.2,24.7,15.4c15.8,1,28.2-1.4,28.3-12.2c0-0.6,0-1.3,0-1.9v-47.4C336.6,219.2,326,218.1,311.5,216.9"/>
		<path fill="#FFFFFF" d="M384.1,264c-0.6-1.6-0.9-3.2-1.5-4.8c-2.1-6.8-4.2-13.4-6.5-20.2c-7-18.8-26.2-18-26.2-18
			c0,26.6-0.1,52-0.1,78.5c6.6,0.9,12.4,1.7,18.9,2.7v-34.4c5.1,12.4,10.1,24.4,15.1,37c6.7,1.2,12.9,2.4,19.4,3.8V230
			c-6.6-1.3-12.7-2.5-19.2-3.7V264"/>
		<path fill="#FFFFFF" d="M433.9,253.1V248c5.7,1.5,11.2,2.9,16.9,4.5c3.6,1,5.5-0.1,7-1.5c1-1.5,1.7-3.1,1.7-3.6
			c0-1.1-0.1-2.2-0.1-3.3c-6.7-2-31.5-8.5-31.7-8.5c-5.9-1.4-9.6-0.2-10.7,4.2c-0.2,0.8-0.2,1.2-0.2,1.2c0,0.2-1.3,14.6,0.3,19.1
			c2.5,6.8,7.8,10.6,14.7,14.1c0.4,0.2,1.2,0.6,1.8,0.9c0.7,0.5,1.4,1,1.8,1.7c0,9.9,0.1,19.5,0.1,29.4c-5.6-1.5-11.4-2.8-17-4.1
			v9.5c7.4,1.7,14.4,3.4,21.8,5.4c7.9,2.2,12.4,0.8,14.5-3.9c0.4-0.6,0.4-1.1,0.4-1.1c0-2.3,0.1-28.9-0.2-34.8
			c-0.2-2.2-1.4-3.9-3.3-5.8c-1.1-0.9-2.2-1.8-3.3-2.7c-1.2-0.9-2.5-1.8-3.8-2.6C439.6,262.5,433.9,258.8,433.9,253.1"/>
		<path fill="#FFFFFF" d="M228.5,215.9v11.4c4.8-0.3,9.2-0.4,13.8-0.5V294c6.7-0.2,13.2-0.3,20-0.2v-67.3
			c14.5,0.7,13.4-11.1,13.4-11.1C259.7,215,244.5,215.1,228.5,215.9"/>
		<path fill="#FFFFFF" d="M92.2,246.3c1.5-0.4,2.9-0.7,4.3-1c1.5-0.4,2.6-0.6,3.7-0.7c3-0.3,4.2,0.9,4.9,2.7
			c0.2,0.8,0.2,1.7,0.2,2.7c0,0.9,0,1.8,0,2.7c0,0,0,8.8-0.1,13.6l-0.1,1.3c-0.9,0.3-1.7,0.5-2.5,0.7c-3.5,0.8-6.8,1.6-10.4,2.5
			V246.3 M72.5,251.6c0,22.7-0.2,44.6,0,67.2c6.7-1.8,13.3-3.5,20-5.1v-33.9c6.3-1.5,12.4-2.9,18.7-4.3c8.6-1.9,14.2-7.3,14.3-17
			v-1.2c0-0.5,0-1.1,0-1.7c0-22.7-0.8-26.3-12.6-25.1c-17.9,3.9-35,8.2-52.8,13.4C60,244,58,255.8,72.5,251.6"/>
	</g>
</g>
</svg>
