<?xml version="1.0" encoding="utf-8"?>
<!-- Generator: Adobe Illustrator 18.0.0, SVG Export Plug-In . SVG Version: 6.00 Build 0)  -->
<!DOCTYPE svg PUBLIC "-//W3C//DTD SVG 1.1//EN" "http://www.w3.org/Graphics/SVG/1.1/DTD/svg11.dtd">
<svg version="1.1" xmlns="http://www.w3.org/2000/svg" xmlns:xlink="http://www.w3.org/1999/xlink" x="0px" y="0px" width="512px"
	 height="512px" viewBox="0 0 512 512" enable-background="new 0 0 512 512" xml:space="preserve">
<g id="white_block">
	<rect opacity="0" fill="#FFFFFF" width="512" height="512"/>
</g>
<g id="Logos">
	<g>
		<path fill="#0067B1" d="M121.4,425.3l30.4-15.5c1.6-0.8,2.7-1.2,3.2-1.2h0.3c0.5,0,1.1,0.1,2,0.6l0.2,0.1l0.8-0.9l0.2-0.3
			l-11.5-10.3l-0.9,1l-0.2,0.3l0.2,0.2c0.5,0.7,0.8,1.3,0.8,1.6l-0.3,0.8c-0.3,0.3-1,0.8-2.1,1.4l-20.5,10.6l8.3-22
			c0.3-0.9,0.6-1.5,0.8-1.7l1-0.5c0.4,0,0.9,0.2,1.5,0.5l0.2,0.1l0.8-1l0.3-0.2l-12.2-10.9l-0.9,1l-0.2,0.2l0.2,0.2
			c0.5,0.6,0.7,1.2,0.7,1.5l-0.3,0.8c-0.1,0.1-0.7,0.6-1.6,1l-21.4,10.6l8.5-21.9c0.3-0.9,0.7-1.5,0.9-1.7l0.9-0.4l1.4,0.4l0.3,0.1
			l0.8-1l0.2-0.2l-11.7-10.4l-0.9,1l-0.2,0.2l0.2,0.2c0.6,0.7,0.8,1.4,0.8,2.1c0,0.7-0.3,1.8-0.9,3.4l-12,31.9
			c-0.6,1.5-1,2.5-1.1,2.6l-1.2,0.6l-1.4-0.5l-0.2-0.1l-0.8,1l-0.2,0.2l10.8,9.7l0.9-1l0.2-0.2l-0.2-0.2c-0.6-0.8-0.8-1.4-0.8-1.8
			l0.3-0.8c0.1-0.2,0.9-0.6,2.2-1.1l23.1-11.6l-8.8,23.7c-0.5,1.5-0.9,2.5-1.1,2.6l-1.1,0.6c-0.4,0-0.9-0.2-1.5-0.5l-0.3-0.1
			l-0.8,0.9l-0.2,0.3l11,9.8l0.9-1l0.2-0.2l-0.2-0.2c-0.6-0.7-0.8-1.2-0.8-1.6l0.4-0.9C119,426.6,119.9,426,121.4,425.3
			 M163.5,408.3l-0.1,0.2l0.2,0.2c0.6,0.6,0.8,1.1,0.8,1.6l-0.2,0.7c-0.2,0.4-0.8,1.1-1.7,1.8l-28.8,22.7c-1.1,0.9-1.8,1.4-2.3,1.5
			l-0.8,0.1l-1.1-0.2l-0.3-0.1l-0.6,1.1l-0.2,0.3l13.4,6.6l0.6-1.2l0.1-0.2l-0.2-0.2c-0.8-0.6-1.1-1.2-1.1-1.7l0.1-0.5
			c0.2-0.4,0.6-0.8,1.3-1.4l5.2-4.2l17,8.6v6.6c0,0.9-0.1,1.6-0.2,1.9c-0.3,0.6-0.7,0.8-1.4,0.8l-1-0.2l-0.2-0.1l-0.6,1.2l-0.1,0.3
			l14.8,7.3l0.6-1.2l0.1-0.3l-0.2-0.2c-0.7-0.5-1.1-1.1-1.3-1.6c-0.2-0.6-0.4-1.7-0.4-3.3l-0.2-37c0-0.9,0.1-1.5,0.3-2
			c0.3-0.5,0.7-0.7,1.5-0.8l0.7,0l0.8-1.1l0.1-0.3l-14.4-7L163.5,408.3z M165.3,436.8l-11.7-5.8l12.2-9.9L165.3,436.8z M229,430.9
			c-1.2-1.3-2.8-2.3-4.6-3.1c-1.9-0.7-4.4-1.5-7.6-2.1l-26.7-5.6l-0.3,1.3c0.9,0.7,1.3,1.1,1.4,1.4l0.2,0.7l-0.1,0.6l-7.4,35.7
			l-0.6,1.1c-0.3,0.2-0.8,0.4-1.5,0.4l-0.5,1.2l-0.1,0.3l13.8,2.9l0.3-1.3c-0.8-0.7-1.2-1-1.4-1.3l-0.2-0.8l0.1-0.5l2.9-13.7
			l10.9,2.3l5.7,14c0.6,1.5,0.9,2.4,0.9,2.7v0.1c-0.1,0.2-0.3,0.4-1.2,0.4h-0.2L212,469l-0.1,0.4l15.9,3.2l0.3-1.2l0.1-0.3l-0.3-0.1
			c-0.9-0.2-1.5-0.7-2-1.4c-0.5-0.7-1.3-2.2-2.3-4.5l-5.5-12.9h0.8c7.1,0,11.6-3.4,13-10c0.2-1.1,0.3-2.2,0.3-3.2
			c0-0.9-0.1-1.9-0.3-2.8C231.4,434.1,230.4,432.3,229,430.9 M222,440.1c-0.5,2.1-1.5,3.4-3.1,3.8c-0.6,0.2-1.3,0.3-1.9,0.3l-0.5,0
			c-0.9-0.1-2.4-0.3-4.4-0.8l-13.9-2.9l2.2-10.4l13.9,2.9c2.2,0.4,3.6,0.8,4.4,1.1c0.8,0.3,1.4,0.7,2.1,1.3c1,0.8,1.4,1.9,1.4,3.2
			L222,440.1z M279.2,465.3l-8.5-11.1c7.3-1.5,11-5.7,11-12.3v-0.7c-0.1-2.1-0.6-4.1-1.4-5.9c-0.9-1.9-2.3-3.4-4-4.4
			c-1.5-0.9-3.3-1.6-5.3-1.9c-1.4-0.2-3.1-0.3-5.2-0.3c-0.8,0-1.8,0-2.7,0.1l-26.9,1.1l-0.3,1.3c1,0.5,1.5,0.7,1.7,1
			c0.2,0.2,0.4,0.6,0.4,1.2l1.5,36.4v0.2l-0.4,1.1c-0.2,0.2-0.6,0.5-1.4,0.8l-0.2,1.3l13.8-0.2l0.2-1.4c-1-0.4-1.4-0.7-1.7-1
			c-0.2-0.2-0.4-0.6-0.5-1.2l-0.5-13.9L260,455l9,12.2c1,1.4,1.5,2.3,1.5,2.5v0c0,0.3-0.3,0.7-1.3,0.9l-0.2,1.3l15.9-0.3l0.3-1.3
			c-1.3-0.4-2-0.7-2.7-1.2C281.9,468.5,280.7,467.3,279.2,465.3 M236.5,430.1L236.5,430.1l0.9,0L236.5,430.1z M269.3,471.5
			L269.3,471.5L269.3,471.5L269.3,471.5z M269.6,445.9c-0.7,0.4-1.5,0.7-2.3,0.8c-0.9,0.1-2.3,0.3-4.5,0.4l-14.2,0.6l-0.4-11l0.5,0
			l13.7-0.2c1.1-0.1,2-0.1,2.8-0.1c0.8,0,1.3,0.1,1.7,0.1c0.8,0.1,1.6,0.3,2.3,0.6c1.5,0.7,2.3,2.1,2.4,4.3v0.3
			C271.6,443.8,270.9,445.1,269.6,445.9 M304.5,464c-0.3-0.2-0.5-0.6-0.7-1.1l-7.9-35.6l-0.1-0.6l0.2-0.7c0.2-0.3,0.6-0.7,1.2-1
			v-1.4l-0.1-0.4l-13.8,3l0.2,1.3c1.1,0.3,1.6,0.4,1.9,0.7l0.6,1.1L294,465l0,0.6l-0.1,0.7c-0.2,0.3-0.6,0.7-1.2,1l0,1.4l0.1,0.3
			l13.8-3.1l-0.3-1.3C305.3,464.4,304.8,464.2,304.5,464 M340.7,412.5c-2.3-0.8-4.7-1.2-7.2-1.2c-3.7,0-7.7,0.9-11.8,2.6
			c-9.2,4.1-14.5,10.2-15.7,18.3c-0.2,1.1-0.3,2.3-0.3,3.4c0,3.1,0.6,6,1.9,9c1.1,2.8,2.8,5.1,4.9,7.2c2.4,2.3,5.1,4.1,8.1,5.1
			c2.3,0.8,4.7,1.2,7.3,1.2c3.7,0,7.6-0.9,11.7-2.6c9.2-3.9,14.5-10,15.8-18.3c0.2-1.2,0.3-2.5,0.3-3.6c0-2.9-0.6-5.8-1.8-8.5
			C351.1,418.8,346.7,414.6,340.7,412.5 M345.5,434.9c0,2.2-0.4,4.2-1.3,6.1c-1.5,3.2-4.1,5.6-7.8,7.2c-2.2,0.9-4.3,1.4-6.4,1.4
			c-1.5,0-2.9-0.2-4.4-0.7c-4-1.4-6.9-4.1-8.7-8.3c-0.9-2.1-1.3-4.2-1.3-6.2c0-2,0.4-4,1.4-5.9c1.5-3.2,4.1-5.6,7.8-7.2
			c2.2-0.9,4.4-1.4,6.5-1.4c1.4,0,2.9,0.2,4.3,0.7c4,1.3,6.9,4.1,8.8,8.5c0.8,1.8,1.2,3.7,1.2,5.6V434.9z M407.2,409.4l-0.3,0.1
			c-0.7,0.5-1.4,0.7-2.2,0.7h-0.2c-0.8-0.1-2.5-0.5-4.9-1.2l-13.4-4.2c2.8-3,4.3-6.2,4.3-9.3c0-2.6-1-5.1-2.9-7.6
			c-1.3-1.7-2.8-3-4.6-4c-1.6-0.9-3.3-1.3-5.1-1.3l-0.8,0c-1.7,0.1-3.5,0.6-5.3,1.5c-1.8,0.9-4,2.3-6.6,4.4l-21.6,16.7l0.8,1
			l0.1,0.2l0.2-0.1l1.3-0.3l0.3,0l1.1,0.8l22.2,28.9l0.5,1.2v0.1c0,0.3-0.2,0.8-0.7,1.4l-0.1,0.2l0.8,1l0.2,0.3l11.2-8.6l-0.8-1.1
			l-0.2-0.2l-0.2,0.1l-1.3,0.3l-0.2,0l-1.1-0.8l-8.5-11.1l8.8-6.8l14.4,4.8c1.6,0.5,2.6,1,2.7,1.1l0.1,0.3l-0.7,1.1l-0.2,0.2
			l0.8,1.1l0.2,0.3l12.9-10l-0.8-1L407.2,409.4z M380.5,398.8c-0.3,0.7-0.8,1.4-1.4,2c-0.6,0.7-1.7,1.7-3.4,2.9l-11.3,8.6L358,404
			l11.2-8.6c1.7-1.3,2.9-2.2,3.7-2.6c0.7-0.4,1.5-0.6,2.3-0.7l0.7-0.1c1.4,0,2.6,0.7,3.8,2.2c0.8,1.1,1.2,2.2,1.2,3.2L380.5,398.8z
			 M433,372c-0.6-3.1-2.1-5.6-4.5-7.5c-1.5-1.2-3.2-2.1-5.1-2.5c-0.9-0.2-1.7-0.3-2.6-0.3c-1,0-1.9,0.1-2.9,0.4
			c-1.7,0.5-3.3,1.3-4.9,2.4c-1.6,1.1-3.5,2.7-5.6,4.8l-3.5,3.5c-2.3,2.4-4,3.8-4.8,4.4c-0.9,0.5-1.6,0.8-2.3,0.8
			c-0.6,0-1.1-0.2-1.7-0.7c-0.7-0.5-1.1-1.3-1.3-2.3l-0.1-0.9c0-0.8,0.1-1.6,0.4-2.5c0.7-1.6,1.7-3.3,3.1-5
			c3.2-3.9,6.9-6.4,11.2-7.7c0.6-0.2,1.2-0.3,1.6-0.3l1,0.3l0.3,0.4l1.3-0.4l0.3-0.1l-4.9-11l-0.3,0.2l-1,0.4
			c-0.2,1.1-0.3,1.5-0.5,1.7c0,0.1-0.7,0.6-1.8,1.2c-3.5,1.9-6.1,3.5-8.1,5c-2,1.5-3.8,3.3-5.5,5.5c-3.8,4.7-5.8,9.2-5.8,13.6
			l0.1,1.1c0.3,3.5,1.9,6.5,4.8,8.8c1.7,1.4,3.6,2.3,5.6,2.6c0.6,0.1,1.2,0.2,1.8,0.2c1.6,0,3.1-0.3,4.6-1c1.4-0.6,2.6-1.4,3.7-2.3
			c1.1-0.9,2.8-2.4,5.1-4.8l3.5-3.5c2.3-2.3,4-3.7,4.9-4.3c0.6-0.4,1.2-0.5,1.8-0.5l1.7,0.6c0.6,0.5,1.1,1.3,1.4,2.3l0.2,1.5
			c0,0.6-0.1,1.1-0.2,1.7c-0.5,2.1-1.6,4.2-3.4,6.3c-1.6,2-3.7,3.8-6.1,5.4c-2.5,1.7-4.6,2.6-6.3,2.9l-0.8,0.1
			c-0.8,0-1.3-0.2-1.8-0.6l-0.3-0.3l-1.3,0.4l-0.3,0.1l5.6,10.9l1.3-0.5c0.2-1,0.3-1.5,0.4-1.6c0,0,0.7-0.5,1.9-1
			c5.6-2.6,10.3-6.2,13.9-10.6c2.1-2.5,3.6-5.1,4.8-7.7c1.1-2.7,1.7-5.1,1.7-7.3C433.2,373.5,433.2,372.8,433,372"/>
		<path fill="#0067B1" d="M425,245.3c0,95.3-77.2,172.6-172.6,172.6S79.7,340.6,79.7,245.3c0-95.4,77.3-172.7,172.7-172.7
			S425,149.9,425,245.3"/>
		<path fill="#FFC627" d="M369.1,347.3c26.1-28.3,42-66,42-107.6C411.2,152,340,81,252.3,81c-87.7,0-158.8,71-158.8,158.8
			c0,87.7,71.1,158.8,158.8,158.8c44.6,0,84.9-18.4,113.7-48C367,350.1,368.1,348.7,369.1,347.3 M210.5,340.6
			c63.5-2.9,126.4-1.9,152.5-1.3c-1.1,1.2-2.2,2.4-3.4,3.6C340.2,341.3,294.8,339,210.5,340.6 M117.4,256.2
			c2.3-3.5,4.7-7.2,7.3-11.3l-9.3,53c-1.7-4-3.2-8.1-4.6-12.3L117.4,256.2z M108.5,278.1c-0.6-2.2-1.1-4.5-1.6-6.8
			c1.5-2.2,3.3-4.7,5.2-7.5L108.5,278.1z M128.8,238.2c3.3-5.4,6.7-11.2,10.1-17.2l-16.1,92.1c-1.9-3.4-3.7-6.8-5.4-10.4
			L128.8,238.2z M143.7,212.3c4.2-7.9,8.3-16.2,12-24.6l-24.5,138.4c-2.1-3-4.2-6-6.1-9.2L143.7,212.3z M166.8,169.2
			c0.8,0.9,1.6,1.8,2.4,2.6c0.6,25.4,2.4,99.5,4.6,152.4c-1.2,0.2-2.2,0.2-3.4,0.4C168.1,268.8,167.1,198.3,166.8,169.2 M285.5,275
			l0.1,0.2l0,0L285.5,275l0.6,0.4l-0.5-0.2l12.7,40.2c-3.2,0.1-6.4,0.2-9.6,0.3l-15.5-49.3C277.4,269.5,281.5,272.3,285.5,275
			 M340.6,314.9l-3.2-10c11.5,5.4,20.1,8.6,25.4,10.3C355.4,315,348,314.9,340.6,314.9 M333.6,303.1l3.8,11.8c-3.3,0-6.5,0-9.8,0
			l-5.5-17.8C326.1,299.4,330,301.3,333.6,303.1 M318,295l6.3,20c-3.2,0-6.3,0-9.4,0.1l-8.2-26.6C310.6,290.8,314.4,293,318,295
			 M302.6,286l9,29.1c-3.4,0-6.7,0.1-10.1,0.2l-11.9-37.6C294.1,280.7,298.4,283.5,302.6,286 M268.6,263l16.9,52.8
			c-3.1,0.1-6.2,0.3-9.2,0.4l-19.7-62.3C260.6,257.1,264.6,260.1,268.6,263 M251.9,250.3l21,66.2c-3.4,0.1-6.8,0.3-10.1,0.5
			l-24.9-78.1C242.7,242.8,247.3,246.6,251.9,250.3 M233.6,235l26.1,82.1c-3,0.2-6,0.4-9,0.5L221.1,224
			C225.3,227.8,229.5,231.5,233.6,235 M216.3,219.6l31.1,98.2c-3.2,0.2-6.4,0.4-9.5,0.6l-35.1-111.7
			C207.4,211.2,211.8,215.5,216.3,219.6 M197.3,201.4l37.4,117.3c-3.1,0.2-6.2,0.5-9.2,0.7l-41.1-131.1
			C188.8,192.8,193.1,197.2,197.3,201.4 M179.3,182.8l43,136.8c-3.4,0.3-6.8,0.6-10.1,0.9L179.8,216c-0.5-13.1-0.9-24.8-1.2-33.9
			L179.3,182.8z M154.7,262l-0.4-0.1l-11.8,66.3c-3.3,0.4-6.2,0.8-8.7,1.2l21.6-122.1C155.2,223.7,154.9,242.8,154.7,262 M180.3,229
			l28.8,91.8c-2.9,0.3-5.7,0.5-8.4,0.8l-19-60.3C181.1,250.2,180.7,239.3,180.3,229 M182.3,274.3l15.1,47.6
			c-4.3,0.4-8.4,0.8-12.4,1.3C184,307.6,183.1,290.9,182.3,274.3 M145.7,327.8l8.7-49.3c-0.2,17.3-0.3,34-0.3,48.2
			C151.2,327.1,148.4,327.4,145.7,327.8 M154.3,346.7c0,1.8,0,3.5,0.1,5.1c-1.8-1.6-3.6-3.2-5.3-4.9
			C150.7,346.8,152.4,346.8,154.3,346.7 M171.4,346.2c1.1,0,2.2,0,3.3-0.1c0.4,8.4,0.8,15.6,1.2,21.4c-1.2-0.7-2.3-1.4-3.4-2.1
			C172.1,359.5,171.8,353,171.4,346.2 M252.3,90.9c82.2,0,148.8,66.7,148.8,148.8c0,24.5-6,47.6-16.4,67.9
			c-103.5-23.2-177.3-94.7-206.2-127c-0.4-12-0.6-19.4-0.6-19.4l-4.6-2.1l-4.3,3.7c0,0,0.1,2.5,0.2,6.9c-1-1.2-1.7-2.2-2.4-3
			c-0.1-6.9-0.1-11-0.1-11h-6.4l-0.1,3.8l-3.9,0.9c0,0-0.2,8.1-0.4,20.9c-19.2,43.9-40.4,69-50.8,79.7c-1-7-1.5-14.2-1.5-21.5
			C103.5,157.6,170.1,90.9,252.3,90.9 M189.6,374.7c-1-8-2-17.8-2.9-28.9c46.2-1,117.1-1.4,166.2,3.6
			c-26.5,24.3-61.8,39.2-100.6,39.2C229.9,388.6,208.7,383.6,189.6,374.7"/>
		<path fill="#0067B1" d="M108,127.1l-0.7-0.2l-4.5-3.2l-0.5-0.7c0-0.2,0.1-0.6,0.5-1.2l-0.7-0.5l-7.3,9.9l-0.8,0.7l-1.1-0.3
			l-0.5,0.7l5.1,3.8l0.6-0.7l-0.8-1.1l0.4-1l3.7-5.1l3.4,2.5c-0.3,1.1-0.8,2.3-1.5,3.7c-0.6,1.4-1.5,2.8-2.6,4.3
			c-0.7,1-1.6,1.9-2.6,2.6c-1,0.8-2.1,1.3-3.2,1.6c-1.1,0.3-2.4,0.4-3.6,0.1c-1.3-0.2-2.6-0.8-3.9-1.7c-1.3-1-2.3-2-2.9-3.1
			c-0.6-1.2-0.9-2.3-0.9-3.5c0-1.2,0.2-2.4,0.6-3.5c0.4-1.2,1-2.2,1.7-3.2c0.6-0.8,1.2-1.6,2-2.4c0.8-0.8,1.5-1.5,2.3-2.1
			c0.8-0.6,1.5-1,2.2-1.3c0.7-0.2,1.2-0.2,1.6,0l0.4,0.4l0.8-0.6l-3.5-6.2l-0.6,0.3l0,0.6l-0.3,0.6l-1,0.8c-0.6,0.4-1.3,1-2.1,1.6
			c-0.8,0.7-1.7,1.5-2.6,2.4c-0.9,0.9-1.9,2-2.7,3.2c-1.4,1.9-2.4,3.7-3,5.6c-0.6,1.9-0.9,3.7-0.8,5.4c0.2,1.8,0.6,3.4,1.5,5
			c0.9,1.6,2.2,3,3.8,4.2c1.7,1.2,3.4,2,5.1,2.4c1.7,0.4,3.5,0.3,5.2-0.1c1.7-0.4,3.4-1.2,4.9-2.4c1.6-1.2,3.1-2.7,4.4-4.6
			c0.7-1,1.4-2,2.1-3c0.7-1,1.3-2.1,1.8-3.3c0.5-1.2,0.9-2.4,1.2-3.6c0.3-1.3,0.5-2.6,0.5-3.9l-0.6-0.5L108,127.1z M131.5,92.9
			c-1.5-1.7-3.2-2.8-5.1-3.4c-1.8-0.6-3.7-0.7-5.5-0.5c-1.9,0.2-3.7,0.8-5.5,1.6c-1.7,0.9-3.3,1.9-4.6,3.1c-1.3,1.2-2.5,2.7-3.6,4.3
			c-1,1.7-1.7,3.4-2.1,5.2c-0.4,1.8-0.4,3.7,0,5.6c0.4,1.9,1.3,3.7,2.8,5.3c1.5,1.7,3.2,2.8,5.1,3.4c1.9,0.5,3.7,0.7,5.6,0.4
			c1.9-0.2,3.6-0.8,5.4-1.7c1.7-0.9,3.2-1.9,4.6-3.2c1.3-1.2,2.5-2.6,3.6-4.2c1-1.6,1.8-3.4,2.2-5.2c0.4-1.8,0.4-3.7,0-5.6
			C134,96.3,133,94.6,131.5,92.9 M129.3,103.6c-0.3,1.2-0.7,2.4-1.4,3.5c-0.7,1.1-1.5,2.1-2.4,3c-0.9,0.9-2,1.5-3.2,2.1
			c-1.2,0.6-2.4,0.9-3.6,1c-1.2,0.1-2.5,0-3.6-0.4c-1.2-0.4-2.3-1.1-3.2-2.1c-0.9-1-1.5-2.1-1.8-3.4c-0.2-1.2-0.3-2.4,0-3.7
			c0.2-1.2,0.7-2.4,1.3-3.5c0.7-1.1,1.4-2.1,2.4-3c0.9-0.9,2-1.5,3.2-2.1c1.2-0.6,2.4-0.9,3.6-1c1.2-0.1,2.5,0,3.6,0.4
			c1.2,0.4,2.2,1.1,3.2,2.1c0.9,1,1.5,2.2,1.8,3.3C129.6,101.1,129.6,102.4,129.3,103.6 M164,80.7l0.1,1l-0.9,0.9l-13.9,8.6
			L139,74.6c-0.3-0.5-0.1-1,0.7-1.5l-0.5-0.7l-7.2,4.4l0.5,0.8c0.8-0.6,1.4-0.6,1.7-0.1l11.8,19c0.3,0.5,0,1-0.8,1.5l0.5,0.7
			l19.9-12.3l1.1-0.5l0.8,0.4l0.8-0.4l-3.6-5.7L164,80.7z M191.2,55.2c-1.2-1.3-2.5-2.2-4-2.8c-1.5-0.6-3-0.8-4.7-0.7
			c-1.7,0.1-3.3,0.5-5,1.1l-15.2,6l0.3,0.8c0.7-0.3,1.2-0.1,1.4,0.4l8.3,20.8c0.2,0.6,0,1-0.7,1.2l0.3,0.8l15.2-6
			c1.7-0.7,3.2-1.5,4.4-2.6c1.3-1.1,2.2-2.3,2.9-3.7c0.7-1.4,1-3,1-4.8c0-1.7-0.4-3.6-1.2-5.7C193.4,58.2,192.4,56.5,191.2,55.2
			 M189.4,69.5c-0.4,0.9-1.1,1.7-2.1,2.4c-1,0.7-2.2,1.3-3.6,1.9l-7.1,2.8l-6.4-16.2l7.1-2.8c1.4-0.6,2.7-0.9,3.9-1.1
			c1.2-0.2,2.2-0.1,3.2,0.2c0.9,0.4,1.8,1,2.6,1.9c0.7,0.9,1.5,2.1,2.1,3.7c0.6,1.6,1,2.9,1,4.1C190.1,67.6,189.9,68.6,189.4,69.5
			 M228.9,60.1l-0.3,1l-1.1,0.6l-16.1,3.1l-1.3-6.6l9.5-1.9c0.6-0.1,1.2-0.1,1.6,0c0.4,0.1,0.7,0.6,0.8,1.3l0.9-0.2l-1.5-7.5
			l-0.9,0.1c0.2,0.7,0.1,1.3-0.2,1.5c-0.3,0.2-0.8,0.4-1.4,0.5l-9.5,1.9l-1.2-6l15.7-3c0.7-0.1,1.2-0.1,1.5,0l0.6,0.7l0.8-0.2
			l-1.2-6.4l-0.9,0.2l-0.3,0.9c-0.2,0.3-0.7,0.5-1.4,0.6l-22,4.3l0.2,0.9l0.7,0.1l0.4,0.6l4.3,22l-0.1,0.7l-0.6,0.3l0.2,0.9
			l22.5-4.4l1.2-0.1l0.6,0.7l0.8-0.2l-1.3-6.6L228.9,60.1z M260.2,39.8c0.9,0,1.3,0.3,1.3,0.9v15.6l-14.1-14.7c-0.7-0.6-1-1.1-1-1.4
			l0.4-0.5v-0.9h-8.4l0,0.9c0.6,0,0.9,0.3,0.9,0.9V63c0,0.6-0.3,0.9-0.9,0.9v0.9h7.3v-0.9c-0.8,0-1.1-0.3-1.1-0.9V46.6l15,15.7
			l0.8,1.1l-0.6,0.4v0.9h8v-0.9c-0.6,0-0.9-0.3-0.9-0.9l0-22.4c0-0.6,0.3-0.9,0.9-0.9v-0.9h-7.4V39.8z M302.4,50.3
			c0.5-0.3,1.1-0.4,1.7-0.5c0.7-0.1,1.4-0.1,2.2,0c0.8,0.1,1.5,0.2,2.2,0.4c0.9,0.3,1.8,0.6,2.7,1c0.9,0.4,1.6,0.9,2.4,1.4
			c0.7,0.5,1.3,1,1.8,1.5l0.9,1.5l0.1,1.2l0.5,0.3l4.9-5.1l-0.5-0.5h-1l-1.4-0.8c-0.6-0.4-1.2-0.9-2.1-1.5c-0.8-0.6-1.8-1.1-3-1.7
			c-1.2-0.6-2.6-1.1-4.3-1.6c-2-0.5-3.7-0.8-5.3-0.7c-1.6,0.1-2.9,0.3-4.1,0.8c-1.2,0.5-2.1,1.1-2.8,1.9c-0.7,0.8-1.2,1.7-1.5,2.7
			c-0.4,1.5-0.5,2.7-0.2,3.8c0.3,1.1,0.9,2,1.6,2.7c0.8,0.8,1.7,1.4,2.8,2c1.1,0.5,2.2,1,3.4,1.5c1.2,0.4,2.4,0.8,3.5,1.2
			c1.1,0.4,2.2,0.7,3,1.2c0.9,0.4,1.5,0.9,2,1.3c0.4,0.5,0.6,1.1,0.4,1.9c-0.2,0.7-0.7,1.2-1.4,1.5c-0.7,0.3-1.5,0.4-2.4,0.4
			c-0.9,0-1.8,0-2.7-0.2c-0.9-0.2-1.6-0.3-2.1-0.5c-0.7-0.2-1.5-0.5-2.4-0.9c-0.9-0.4-1.7-0.9-2.5-1.5c-0.7-0.5-1.4-1-1.9-1.5
			l-1-1.5v-0.8l-0.4-0.4l-4.2,5l0.6,0.6l0.7-0.2l1.1,0.7c0.4,0.4,0.9,0.8,1.7,1.3c0.7,0.6,1.7,1.1,2.8,1.6c1.2,0.6,2.6,1.1,4.5,1.6
			c1.3,0.4,2.7,0.7,4.3,0.9c1.6,0.2,3.1,0.2,4.5,0c1.5-0.2,2.8-0.7,3.9-1.6c1.1-0.8,2-2,2.4-3.7c0.4-1.4,0.4-2.6,0.1-3.7
			c-0.3-1.1-0.8-2-1.6-2.7c-0.7-0.8-1.7-1.4-2.8-2c-1.1-0.6-2.2-1.1-3.4-1.5c-1.2-0.4-2.3-0.8-3.5-1.2c-1.1-0.4-2.1-0.8-3-1.2
			c-0.8-0.5-1.5-0.9-1.9-1.5c-0.5-0.5-0.6-1.1-0.4-1.9L302.4,50.3z M335.9,82.2l8.4-17.7l7.3,3.5l0.7,0.6v1l0.8,0.4l3-6.3l-0.8-0.4
			l-0.8,0.7l-0.9-0.2l-19.8-9.4l-0.7-0.6l0-1.1l-0.8-0.4l-3,6.3l0.8,0.4l0.8-0.7l0.9,0.2l7.3,3.5l-8.4,17.7l-0.5,0.5l-0.6,0
			l-0.4,0.8l6.9,3.2l0.4-0.8C335.9,83.2,335.7,82.8,335.9,82.2 M366.8,72.9l0.4,0.7l-0.1,0.7l-0.7,0.6l-1.2,0.6l-18.3,10.8l-1.3,0.6
			l-1.2,0l-0.5,0.7l5.8,3.9l0.5-0.8l-0.5-1c0.1-0.2,0.6-0.5,1.2-0.9l3.4-1.9l9.9,6.7l-0.5,4.1c-0.1,0.6-0.2,1-0.4,1.3l-0.5,0.2
			l-0.5-0.2L362,100l7.2,4.8l0.5-0.7l-0.5-0.9l-0.1-1l2.7-22.3l0.1-1.2l0.3-0.8l0.7-0.4l0.7,0.2l0.5-0.7l-6.9-4.7L366.8,72.9z
			 M365,89.8l-7.3-4.9l9-5L365,89.8z M395.1,99.8l6,5.5l0.5,0.8l-0.3,0.9l0.7,0.6l4.7-5.1l-0.7-0.6l-0.9,0.4l-0.8-0.4L388,87.2
			l-0.5-0.8l0.3-0.9l-0.6-0.6l-4.7,5.1l0.7,0.6l0.9-0.4l0.8,0.4l6,5.5l-13.3,14.4l-0.6,0.3l-0.6-0.3l-0.6,0.7l5.6,5.2l0.6-0.7
			l-0.2-1.4L395.1,99.8z M428.7,130l-0.9,0.2l-1.1-0.9l-13.7-17.8l-0.7,0.6l0.2,0.6l-0.4,0.6l-17.7,13.7l-0.7,0.2l-0.6-0.4l-0.7,0.5
			l14,18.2l0.7,1l-0.4,0.9l0.5,0.7l5.4-4.1l-0.6-0.7l-1,0.2l-1-0.8l-10.1-13l5.4-4.1l5.9,7.6l0.7,1.4c0.1,0.4-0.2,0.9-0.8,1.3
			l0.5,0.7l6.1-4.7l-0.5-0.7c-0.6,0.5-1.1,0.6-1.4,0.4l-1.2-1l-5.9-7.7l4.8-3.7l9.7,12.7l0.7,1.3l-0.4,0.8l0.5,0.7l5.2-4L428.7,130z
			"/>
	</g>
</g>
</svg>
