<?xml version="1.0" encoding="utf-8"?>
<!-- Generator: Adobe Illustrator 18.0.0, SVG Export Plug-In . SVG Version: 6.00 Build 0)  -->
<!DOCTYPE svg PUBLIC "-//W3C//DTD SVG 1.1//EN" "http://www.w3.org/Graphics/SVG/1.1/DTD/svg11.dtd">
<svg version="1.1" xmlns="http://www.w3.org/2000/svg" xmlns:xlink="http://www.w3.org/1999/xlink" x="0px" y="0px" width="512px"
	 height="512px" viewBox="0 0 512 512" enable-background="new 0 0 512 512" xml:space="preserve">
<g id="white_block">
	<rect opacity="0" fill="#FFFFFF" width="512" height="512"/>
</g>
<g id="Logos">
	<g>
		<path d="M303.6,216c0,0.4-0.1,0.7-0.1,1.1l-0.2,35.1l5.4-3l-0.1-18.4c3.7,0.1,9.5,0.8,9.4,3.9l0.2,14.6l5.2,3l-0.1-18.6
			c0-5.4-8-3.5-8-3.5s10-2.3,9.5-10.6c-0.3-5-5.7-7.4-15.2-6.4c-0.4,0-0.8,0.1-1.3,0.1c-0.4-2.6-1-5-2.1-7.6c-1,2.8-1.7,5.6-2.1,8.3
			c-5.8,1.1-9.8,2.5-9.8,2.5S298.5,216,303.6,216 M319,221c0.8,6.7-6.1,8.8-10.4,9.5l-0.1-13.3l-0.1-0.9
			C313.8,216.7,318.6,218,319,221"/>
		<path d="M345.7,214.1h-6.6c0,0-7.1,0-7.1,6.8v21.8c0,6.9,7.1,6.8,7.1,6.8h6.6c0,0,7.1,0.1,7.1-6.8v-21.8
			C352.9,214.1,345.7,214.1,345.7,214.1 M347.3,241.9c0,3.1-1.9,5.2-4.9,5.2c-3,0-4.9-1.5-4.9-5.2v-20.1c0-3.7,2.1-5.2,4.9-5.2
			c2.9,0,4.9,2.1,4.9,5.2V241.9z"/>
		<path d="M374.3,214.1h-6.6c0,0-7.1,0-7.1,6.8v21.8c0,6.9,7.1,6.8,7.1,6.8h6.6c0,0,7.1,0.1,7.1-6.8v-2.8h-5.6v1.9
			c0,3.1-1.9,5.2-4.9,5.2c-3,0-4.9-1.5-4.9-5.2v-20.1c0-3.7,2.1-5.2,4.9-5.2c2.9,0,4.9,2.1,4.9,5.2v1.9h5.6v-2.9
			C381.5,214.1,374.3,214.1,374.3,214.1"/>
		<path d="M480.8,228.5c-4.5,0-6-0.2-6-4l0-3.5c0-2.8,0.6-4.5,5.1-4.5c4.6,0,5.2,2.3,5.2,5.1l0,1.9l5-2.6v-0.7c0-6.1-6-6.1-6-6.1
			h-7.8c0,0-6.7,0-6.7,5.6v5.4c0,4.8,0.2,6.4,7.1,6.4c5.2,0,8.5,0.1,8.5,4.7v5.1c0,4-0.6,5.8-4.9,5.8c-4.8,0-5.4-2.3-5.4-6.4l0-2.5
			l-5,2.1l0,3.8c0,5.4,6.5,5.4,6.5,5.4h7.8c0,0,6.2,0,6.2-7v-7.6C490.2,228.9,487.3,228.5,480.8,228.5"/>
		<path d="M422.5,241.6l0-8.4h1.9c4.3-0.3,8.2-0.8,12.6-2.5c-3.5-1.4-7.8-2-12.6-2.4h-1.9l0-5.8c-0.1-1,0.7-2.8,1.1-3.4
			c1.6-1.7,4-1.6,4-1.6l9.5,0c-0.7-3.8-7.1-3.1-7.1-3.1h-5.8c0,0-7.5,0-7.5,7l0,10l0,11.3c-0.1,6.9,7.5,6.8,7.5,6.8h5.8
			c0,0,6.4,0.7,7.1-3.2l-9.6,0.1C427.5,246.3,422.5,246.6,422.5,241.6"/>
		<path d="M441.1,214.2v4.6h8.5l0,29.3l5.3,3.6v-32.8h2c4.3-0.2,7.1-0.9,10.2-2.3c-3.2-1.5-5.9-2-10.2-2.3L441.1,214.2z"/>
		<polygon points="410.3,214.2 405.1,214.2 394.2,229.8 394.2,214 388.8,210.5 388.8,251.6 394.2,248.1 394.2,230.5 405.7,248.7 
			411.7,248.7 399.3,229.2 		"/>
		<path d="M63.1,214.1h-6.6c0,0-7.1,0-7.1,6.8v21.9c0,6.8,7.1,6.7,7.1,6.7h6.6c0,0,7.1,0.1,7.1-6.7v-21.9
			C70.2,214.1,63.1,214.1,63.1,214.1 M64.6,241.9c0,3.1-1.9,5.2-4.9,5.2c-3,0-4.9-1.5-4.9-5.2v-20.1c0-3.7,2-5.2,4.9-5.2
			c3,0,4.9,2.1,4.9,5.2V241.9z"/>
		<path d="M92.9,217.4l0,13.4l0,11.1c0,5.2-4.2,5.2-4.2,5.2H87c0,0-4-0.4-4-5.2v-10.9v-0.2l0.1-13.3l-5.6-3.4v16.9l0,12
			c0,6.2,6.7,6.5,6.7,6.5h7c0,0,7.3-0.3,7.3-6.5l0-13l-0.1-15.8L92.9,217.4z"/>
		<path d="M187.4,251.9l4.7-3.4l0-20l15.9,21.1l0-26.5c-0.3-5.5-1.1-9.1-2.3-13.2c-1.4,5.2-2.2,8.3-2.4,13.2l0,11.8l-15.9-20.8
			L187.4,251.9z"/>
		<path d="M116.6,228.4c-4.5,0-6-0.2-6-4l0-3.5c0-2.8,0.6-4.5,5.1-4.5c4.6,0,5.2,2.3,5.2,5.1l0,1.9l5-2.6v-0.6c0-6.2-6-6.2-6-6.2
			h-7.8c0,0-6.7,0-6.7,5.7v5.4c0,4.8,0.2,6.4,7,6.4c5.2,0,8.5,0.1,8.5,4.7v5.1c0,4-0.6,5.8-5,5.8c-4.8,0-5.4-2.3-5.4-6.4l0-2.5
			l-5,2.2v3.8c0,5.4,6.6,5.4,6.6,5.4h7.8c0,0,6.2,0,6.2-6.9v-7.6C126.1,228.9,123.2,228.4,116.6,228.4"/>
		<path d="M129.9,215.1v4.5h8.4l0,28.8l5.2,3.5l0-32.2h1.9c4.2-0.2,7-0.9,10.1-2.3c-3.1-1.5-5.8-2-10.1-2.2L129.9,215.1z"/>
		<path d="M172.3,249.5c0,0,7.1,0.1,7.1-6.8v-21.9c0-6.8-7.1-6.8-7.1-6.8h-6.7c0,0-7.1,0-7.1,6.8v21.9c0,6.9,7.1,6.8,7.1,6.8H172.3z
			 M164.1,241.9v-20.1c0-3.7,2-5.2,4.9-5.2c3,0,4.9,2.1,4.9,5.2v20.1c0,3.1-1.9,5.2-4.9,5.2C166,247.1,164.1,245.6,164.1,241.9"/>
		<path d="M39.4,209.5c-1.4,3.6-2.1,6.8-2.3,10.6l0,9.5H25.4l-0.1-9.5c-0.3-3.9-0.9-7.1-2.3-10.6c-1.2,3.6-2.1,7.2-2.3,10.6
			l-0.2,32.5l5-2.8l-0.1-16.5H37l-0.1,16.5l5,2.8l-0.2-32.5C41.5,216.6,40.6,213.1,39.4,209.5"/>
		<path d="M287.6,260.6l0.3-22.6c0-14-19.3-12.6-25.6-11.8c7.5-1.3,32.7-7.6,31.2-30.7c-1-15.3-20.2-22.9-51.9-19.9
			c-0.5,0-1,0.1-1.6,0.2c-1.5-11.3-3.8-22.3-7.3-32.4c-4.4,13.7-6.9,24.5-8.4,34.5c-19.6,3.3-33.6,7.8-33.6,7.8s15.3-1.4,32.8-1.1
			c-2,20.1,0.1,39.2,0,75.9c-33.3-1.2-62.3,5.3-61.9,15.2c0.3,8.6,25.9,16.5,62,19.6l1.5,48.9l2.5-33.2c0.1-4.1,3.2-3.7,3.2-0.2
			l1.1,43.7l2.7-35.6c0-4.8,3.3-4.6,3.2-0.3l1.2,45.5l2.2-67.9c4.6,0.2,9.3,0.3,14.2,0.3c4.6,0,9-0.1,13.4-0.2l2.2,69.1l1.9-36.2
			c0-4.6,3.2-4.4,3.2-0.3l1.9,50.8l1.9-43.8c0.1-4.3,3.6-4.1,3.7,0l1.6,58.1l2.3-98.6v-0.1c36.4-3,62.9-11,62.9-19.6
			C349.6,266.4,321.1,259,287.6,260.6 M273.3,200.2c2.6,19.1-16.9,25.4-31,27.5c0.2-13.7,0-28-1.4-42
			C257.6,187.2,272.1,191.2,273.3,200.2 M180.2,273c0-5.8,21.6-8.9,43.2-12.2c0,7-0.1,14.5-0.4,22.9l0.1,3.2
			C197.6,284.5,180.2,279.4,180.2,273 M241.4,287.9l0.2-5.6c-0.4-14.7,0.5-33.2,0.8-52.9c11.8,1.2,27,4.4,26.8,12.9l-0.4,45.6
			c-4.4,0.1-8.8,0.2-13.4,0.2C250.5,288.2,245.9,288.1,241.4,287.9 M287.3,286.9l0.3-26c23.8,3,43.4,6.5,43.4,12.1
			C331,279.4,313.2,284.5,287.3,286.9"/>
		<path fill="#CE1141" d="M304.9,214.8l-0.1,1.1l-0.2,35.1l5.4-3l-0.1-18.5c3.7,0.1,9.5,0.8,9.4,3.9l0.2,14.6l5.1,3l-0.1-18.6
			c0-5.5-8-3.5-8-3.5s10-2.3,9.5-10.6c-0.3-5-5.7-7.4-15.2-6.4c-0.4,0-0.8,0.1-1.3,0.1c-0.4-2.6-1.1-5-2.1-7.6
			c-1,2.8-1.7,5.6-2.2,8.3c-5.7,1.1-9.8,2.5-9.8,2.5S299.8,214.7,304.9,214.8 M320.3,219.8c0.8,6.7-6.2,8.8-10.4,9.5l-0.1-13.3
			l-0.1-0.9C315.1,215.4,319.9,216.7,320.3,219.8"/>
		<path fill="#CE1141" d="M347,212.8h-6.6c0,0-7.2,0-7.2,6.7v21.9c0,6.8,7.2,6.8,7.2,6.8h6.6c0,0,7.1,0.1,7.1-6.8v-21.9
			C354.1,212.8,347,212.8,347,212.8 M348.6,240.6c0,3.1-1.9,5.2-4.9,5.2c-3,0-4.9-1.5-4.9-5.2v-20.1c0-3.7,2-5.2,4.9-5.2
			c3,0,4.9,2.1,4.9,5.2V240.6z"/>
		<path fill="#CE1141" d="M375.6,212.8H369c0,0-7.1,0-7.1,6.7v21.9c0,6.8,7.1,6.8,7.1,6.8h6.6c0,0,7.1,0.1,7.1-6.8v-2.8h-5.6v1.9
			c0,3.1-1.9,5.2-4.9,5.2c-3,0-4.9-1.5-4.9-5.2v-20.1c0-3.7,2-5.2,4.9-5.2c3,0,4.9,2.1,4.9,5.2v1.9h5.6v-2.9
			C382.8,212.8,375.6,212.8,375.6,212.8"/>
		<path fill="#CE1141" d="M482.1,227.2c-4.5,0-6-0.2-6-4l0-3.5c0-2.8,0.6-4.5,5.1-4.5c4.6,0,5.2,2.3,5.2,5.1v1.8l5-2.6v-0.6
			c0-6.1-5.9-6.2-5.9-6.2h-7.8c0,0-6.7,0-6.7,5.6v5.4c0,4.8,0.2,6.4,7,6.4c5.2,0,8.5,0.1,8.5,4.6v5.1c0,4-0.6,5.8-4.9,5.8
			c-4.8,0-5.4-2.3-5.4-6.4l0-2.5l-5,2.1l0,3.8c0,5.4,6.5,5.4,6.5,5.4h7.8c0,0,6.2,0,6.2-7v-7.6C491.5,227.6,488.6,227.2,482.1,227.2
			"/>
		<path fill="#CE1141" d="M423.7,240.3l0-8.4h1.9c4.3-0.3,8.2-0.8,12.6-2.5c-3.5-1.4-7.8-2-12.6-2.4h-1.9l0-5.9
			c-0.1-1,0.7-2.8,1.1-3.4c1.6-1.7,4-1.6,4-1.6h9.5c-0.7-3.8-7.1-3.1-7.1-3.1h-5.8c0,0-7.5,0-7.5,7l0,10l0,11.3
			c0,6.9,7.5,6.8,7.5,6.8h5.8c0,0,6.4,0.7,7.1-3.2l-9.6,0.1C428.7,245,423.7,245.3,423.7,240.3"/>
		<path fill="#CE1141" d="M442.3,213v4.6h8.6v29.3l5.3,3.5v-32.8h2c4.3-0.2,7.1-0.9,10.2-2.3c-3.1-1.5-5.9-2-10.2-2.3L442.3,213z"/>
		<polygon fill="#CE1141" points="411.5,213 406.4,213 395.5,228.5 395.5,212.8 390,209.2 390,250.4 395.5,246.8 395.5,229.2 
			407,247.5 412.9,247.5 400.6,227.9 		"/>
		<path fill="#CE1141" d="M64.3,212.8h-6.7c0,0-7.1,0-7.1,6.8v21.9c0,6.8,7.1,6.8,7.1,6.8h6.7c0,0,7.1,0.1,7.1-6.8v-21.9
			C71.5,212.8,64.3,212.8,64.3,212.8 M65.9,240.6c0,3.1-1.9,5.2-4.9,5.2c-3,0-4.9-1.5-4.9-5.2v-20.1c0-3.7,2-5.2,4.9-5.2
			c3,0,4.9,2.1,4.9,5.2V240.6z"/>
		<path fill="#CE1141" d="M94.2,216.1l0,13.5l0,11c0,5.2-4.2,5.2-4.2,5.2h-1.6c0,0-4-0.5-4-5.2v-11v-0.2l0.1-13.3l-5.6-3.4v16.9
			l0,12c0,6.2,6.7,6.5,6.7,6.5h6.9c0,0,7.3-0.3,7.3-6.5l0-13l-0.1-15.8L94.2,216.1z"/>
		<path fill="#CE1141" d="M188.6,250.6l4.7-3.4l0-20l15.9,21.1l-0.1-26.5c-0.3-5.6-1.1-9.2-2.3-13.2c-1.4,5.2-2.2,8.2-2.4,13.2
			l0,11.8l-15.9-20.8L188.6,250.6z"/>
		<path fill="#CE1141" d="M117.9,227.2c-4.5,0-6-0.2-6-4v-3.5c0-2.8,0.6-4.5,5.1-4.5c4.6,0,5.2,2.3,5.2,5.1v1.9l5-2.6v-0.7
			c0-6.1-6-6.1-6-6.1h-7.8c0,0-6.8,0-6.8,5.6v5.4c0,4.8,0.2,6.4,7,6.4c5.3,0,8.5,0.1,8.5,4.6v5.1c0,4-0.6,5.8-5,5.8
			c-4.8,0-5.3-2.3-5.3-6.4l0-2.6l-5,2.2v3.8c0,5.4,6.5,5.4,6.5,5.4h7.8c0,0,6.2,0,6.2-7v-7.6C127.4,227.6,124.4,227.2,117.9,227.2"
			/>
		<path fill="#CE1141" d="M131.2,213.8v4.5h8.4l0,28.8l5.2,3.5l0-32.3h1.9c4.2-0.2,7-0.9,10.1-2.3c-3.1-1.5-5.8-2-10.1-2.2
			L131.2,213.8z"/>
		<path fill="#CE1141" d="M173.5,248.2c0,0,7.2,0.1,7.2-6.8v-21.9c0-6.7-7.2-6.7-7.2-6.7h-6.6c0,0-7.1,0-7.1,6.7v21.9
			c0,6.9,7.1,6.8,7.1,6.8H173.5z M165.3,240.6v-20.1c0-3.7,2-5.2,4.9-5.2c3,0,4.9,2.1,4.9,5.2v20.1c0,3.1-1.9,5.2-4.9,5.2
			C167.2,245.8,165.3,244.3,165.3,240.6"/>
		<path fill="#CE1141" d="M40.6,208.2c-1.4,3.6-2.1,6.8-2.3,10.7l-0.1,9.4H26.6l-0.1-9.4c-0.2-3.9-0.9-7.1-2.3-10.7
			c-1.3,3.6-2.1,7.2-2.3,10.7l-0.2,32.5l5-2.8l-0.1-16.5h11.6l-0.1,16.5l5,2.8L43,218.8C42.8,215.4,41.9,211.8,40.6,208.2"/>
		<path fill="#CE1141" d="M289.2,259.1l0.3-22.6c0-14-19.2-12.6-25.6-11.7c7.4-1.3,32.7-7.6,31.2-30.7c-1-15.3-20.2-22.9-51.9-19.9
			c-0.5,0.1-1,0.1-1.6,0.2c-1.5-11.3-3.8-22.3-7.3-32.4c-4.4,13.7-7,24.5-8.4,34.5c-19.7,3.3-33.6,7.8-33.6,7.8s15.3-1.4,32.8-1.1
			c-2,20.1,0.1,39.2,0,75.9c-33.3-1.2-62.3,5.3-61.9,15.2c0.3,8.6,25.9,16.6,62,19.6l1.5,48.9l2.5-33.2c0.1-4.1,3.2-3.7,3.2-0.2
			l1.1,43.7l2.7-35.6c0-4.8,3.3-4.6,3.2-0.3l1.2,45.5l2.2-67.9c4.6,0.2,9.3,0.2,14.2,0.2c4.6,0,9-0.1,13.5-0.2l2.2,69.1l1.8-36.1
			c0-4.6,3.2-4.4,3.1-0.3l1.9,50.7l1.9-43.8c0.1-4.3,3.6-4.1,3.7,0l1.6,58.1l2.3-98.6v-0.1c36.4-3,62.8-11,62.8-19.6
			C351.2,264.8,322.7,257.5,289.2,259.1 M224.7,285.3c-25.6-2.3-43-7.4-43-13.9c0-5.8,21.6-8.9,43.2-12.2c0,7-0.1,14.5-0.4,22.9
			L224.7,285.3z M242.6,184.1c16.6,1.6,31.1,5.5,32.3,14.5c2.6,19.1-16.9,25.4-31,27.5C244.1,212.4,243.8,198.1,242.6,184.1
			 M270.3,286.4c-4.3,0.1-8.8,0.2-13.4,0.2c-4.8,0-9.4-0.1-13.9-0.2l0.2-5.6c-0.4-14.7,0.5-33.2,0.8-52.9c11.8,1.2,27,4.4,26.8,12.9
			L270.3,286.4z M288.8,285.3l0.3-26c23.8,3,43.4,6.5,43.4,12.1C332.5,277.9,314.7,283,288.8,285.3"/>
	</g>
</g>
</svg>
