<?xml version="1.0" encoding="utf-8"?>
<!-- Generator: Adobe Illustrator 18.0.0, SVG Export Plug-In . SVG Version: 6.00 Build 0)  -->
<!DOCTYPE svg PUBLIC "-//W3C//DTD SVG 1.1//EN" "http://www.w3.org/Graphics/SVG/1.1/DTD/svg11.dtd">
<svg version="1.1" xmlns="http://www.w3.org/2000/svg" xmlns:xlink="http://www.w3.org/1999/xlink" x="0px" y="0px" width="512px"
	 height="512px" viewBox="0 0 512 512" enable-background="new 0 0 512 512" xml:space="preserve">
<g id="white_block">
	<rect opacity="0" fill="#FFFFFF" width="512" height="512"/>
</g>
<g id="Logos">
	<g>
		<path fill="#BEC0C2" d="M400.3,119.1C373.8,87,335.5,69.2,292.6,69.1H121.1L41.5,430.9l146.4,0.1l21-87.5c19.7,0,71.4,0,71.3,0
			c49,0.3,89.3-16.3,116.4-48.1C445.9,241.8,437.2,163.6,400.3,119.1"/>
		<path fill="#00285E" d="M201.5,333.9l-21,87.5l-127.1,0.1l75.4-342.8l163.8,0.1c40.8,0.1,75.7,16.6,100.4,46.4
			c36.3,43.8,39.9,116.7-3.6,164.1c-26.7,31.2-65.8,45-109.1,44.7"/>
		<path fill="#FDBB33" d="M111.8,154.8l71.8,0c8.3,0,17,6.9,13.3,17.4c-2.4,6.5-4.2,14-5,21.1c-0.6,5.5,5.5,9,9,9l146.3,0.1
			c2.7,0,4.2-0.8,4.2-2.1c0-1.3-0.1-6.2-0.6-9.6c-0.5-3.3-1.1-3.8-3.7-3.8c-18.2,0-25.6-8.2-44.8-20.5
			c-19.1-12.4-47.2-19.4-71.3-19.4l-117.5-0.1"/>
		<path fill="#FDBB33" d="M200.5,249.6c-2.5-5.5-4.8-11.9-6.3-17.8c-1.8-7.6-8.2-13.8-19.2-13.8l-77-0.1l1.9-8.6l249.6,0.1
			c2.5,0,1.9,1.1,1.8,3.8c-0.1,2.7-0.8,7.9-1.2,10.9c-0.4,3-2.9,2.3-5.3,2.4c-5.6,0.1-16,1.4-22.1,6c-10.3,7.8-32.4,21.4-44.8,25.4
			c-13.3,4.3-63,19.4-77.6-8.5"/>
		<path fill="#FDBB33" d="M84.2,280.8l130.3,0.1c5.8,0,10.7,1.4,14.5,4.6c11,9.1,25.3,15.7,40.4,20c6.8,2,18.5-0.6,29-6.5
			c26.1-14.7,42.9-42.8,48.4-60.9c1.4-4.7-1.3-4.3-5-4.1c-11,0.8-22.5,10.7-37.7,20.4c-15.2,9.6-46.1,18.9-75.5,18.8l-142.8-0.1"/>
		<path fill="#FDBB33" d="M275.4,106.2c1.8-0.3,8.4-0.7,12.1,0.7c24.7,9.7,48.2,35.5,58,62.9c1.9,5.2,2.3,8.6,0,8.9
			c-11.4,1.3-16.6-4.4-30-13.4c-13.3-9-25.7-15.2-42.5-20.6c-16.7-5.3-47-6.1-51-6.2c-3.9-0.1-3.4-1.8-1.7-3.5
			C234.8,120.6,254.3,110.1,275.4,106.2"/>
		<path fill="#FDBB33" d="M394.2,200.2c0.1,1-1,2.2-2.4,2.2l-28.5,0c-3.7,0-3.7-1.7-3.9-3.8c-0.2-2.1-0.7-6.3-0.8-8.8
			c-0.1-2.4-1-5.2,2.2-6.5c7.9-3.4,15.4-11.2,18.9-17.8c1.2-2.3,2.9-5.9,4.8-2.8C391.2,173.5,393.4,186.8,394.2,200.2"/>
		<path fill="#FDBB33" d="M384,251.5c-0.5,0.9-2.3,1.7-2.9,0.1c-4.1-11.1-14.1-18.8-20.9-22.6c-2.1-1.2-2.2-2.5-2-4.5
			c0.3-2,1.2-8.5,1.3-11.3c0.1-2.2,1-3.8,2.6-3.8l29.7,0c1.1,0,2.4,0.9,2.4,1.7C394.2,225.4,389.9,239.4,384,251.5"/>
		<path fill="#FDBB33" d="M306.6,307.3c-2.1,0.3-6.6-0.4,0.6-4.6c21.6-12.6,40.9-42,46-59c1.9-6.5,2.1-6.8,4.6-6.1
			c3.3,1,8.5,5.4,12.5,10.9c4,5.5,5.7,16.2,3.4,19.3C358.2,288.7,333.5,303.4,306.6,307.3"/>
		<path fill="#FDBB33" d="M361.6,173.9c-5,2.7-6,2.2-7.1-1.6c-9.4-33-37.1-57.4-48.4-64.6c-2.2-1.4-1.6-2.3,0-2.1
			c27.1,3.6,53.7,18.4,67,38.6C380.7,155.9,366.5,171.2,361.6,173.9"/>
		<path fill="#00285E" d="M225.4,361.9l-16.3,68.4h11c0,0,5.8-24.3,6-25.4h17.6c4.2,0,7.4-2.5,8.4-6.7l7-29.4
			c0.1-0.7,0.2-1.3,0.2-1.8c0-1.2-0.4-2.2-1-3.1c-1-1.3-2.9-2-5.2-2 M247.5,371.5c-0.3,1.4-5.4,22.7-5.7,23.8h-13.4
			c0.4-1.7,5.4-22.7,5.6-23.8H247.5z"/>
		<path fill="#00285E" d="M275,375.2c-4.2,0-6.9,2.1-7.9,6.2l-2.9,12.1h10.7c0,0,1.9-8.1,2.1-9.1h11.8c-0.3,1.6-2.6,11.1-2.9,12.2
			h-15.6c-4.7,0-7.8,2.7-9,7.6l-4.7,19.8c-0.1,0.5-0.2,1.1-0.2,1.5c0,1.2,0.3,2.2,1,3.1c1,1.3,2.7,2,4.8,2l0.3-0.1
			c3.9-0.3,12.3-0.9,15.6-1.2l-0.2,0.9h10.7l11.5-48.5c0.5-2.1,0.3-3.8-0.6-4.9c-0.9-1.1-2.4-1.7-4.4-1.7 M283.7,406
			c-0.4,1.5-3.3,14.1-3.6,15.1H268c0.3-1.5,3.3-14.1,3.6-15.1H283.7z"/>
		<path fill="#00285E" d="M319.8,375.2c-4.1,0-6.8,2.1-7.8,6.2l-10,42.3c-0.5,2.1-0.3,3.8,0.6,4.9c0.9,1.1,2.4,1.7,4.5,1.7h19.7
			c4.2,0,6.8-2.1,7.8-6.3l3.9-16.4H328c0,0-2.9,12.3-3.2,13.4h-11.4c0.4-1.7,8.4-35.4,8.7-36.5h11.4c-0.4,1.6-2.2,9-2.2,9h10.5
			l2.8-11.7c0.5-2.2,0.3-3.8-0.6-5c-0.9-1.1-2.4-1.6-4.5-1.6"/>
		<path fill="#00285E" d="M363.3,375.2c-4.1,0-6.7,2.1-7.7,6.2l-10,42.3c-0.5,2.1-0.3,3.8,0.6,4.9c0.9,1.1,2.4,1.7,4.5,1.7h19.8
			c2,0,3.7-0.5,5-1.5c1.3-1,2.2-2.6,2.8-4.7l3.6-15.4h-10.7c0,0-2.7,11.3-3,12.3h-11.3c0.4-1.6,3.4-14.3,3.7-15.3H380l3.1-2.5
			l5.1-21.4c0.2-0.7,0.2-1.5,0.2-2.1c0-1.2-0.2-2.1-0.9-2.8c-0.9-1.1-2.4-1.7-4.5-1.7 M376.8,384.5c-0.4,1.4-2.7,11.3-2.9,12.2
			h-11.4c0.3-1.4,2.7-11.2,2.9-12.2H376.8z"/>
		<path fill="#00285E" d="M425.9,374.7c-4.3,0.5-11.3,1.3-14.2,1.8l0.3-1.3h-10.7l-13.1,55.1h10.7c0,0,10.4-43.9,10.7-45h10.6
			c-0.4,1.6-1.7,8.2-1.7,8.2h10.8l2.7-12.1c0.5-2,0.3-3.7-0.6-4.9c-0.9-1.2-2.7-1.8-5-1.8L425.9,374.7"/>
		<path fill="#00285E" d="M445.3,375.2c-2.1,0-6,0.8-7.2,6.2l-3.1,13.1c-0.1,0.5-0.3,1.3-0.3,2.2c0,0.9,0.3,1.9,0.8,2.6l0.1,0.1l0,0
			v0l0.6,0.4c12.2,8.4,15.5,10.7,16.3,11.4c-0.2,0.8-2.2,9.3-2.3,9.7h-10.5c0.4-1.6,2.9-12.1,2.9-12.1h-10.7l-3.5,14.8
			c-0.6,2.2-0.3,3.8,0.6,5c0.8,1,2.1,1.6,3.9,1.6H453c3.8,0,6.2-2.2,7.2-6.3l3.4-14.4c0.1-0.4,0.3-1.1,0.3-2c0-1.2-0.3-2.6-1.5-3.8
			l0-0.1l-0.1,0c-5.7-3.7-14.6-9.6-16.2-10.8c0.2-0.8,1.8-7.7,2-8.4h10.8c-0.4,1.6-2.1,9.1-2.1,9.1h10.7l2.7-11.8
			c0.5-2.1,0.3-3.8-0.7-5c-0.5-0.8-1.8-1.6-4-1.6"/>
	</g>
</g>
</svg>
