<?xml version="1.0" encoding="utf-8"?>
<!-- Generator: Adobe Illustrator 18.0.0, SVG Export Plug-In . SVG Version: 6.00 Build 0)  -->
<!DOCTYPE svg PUBLIC "-//W3C//DTD SVG 1.1//EN" "http://www.w3.org/Graphics/SVG/1.1/DTD/svg11.dtd">
<svg version="1.1" xmlns="http://www.w3.org/2000/svg" xmlns:xlink="http://www.w3.org/1999/xlink" x="0px" y="0px" width="512px"
	 height="512px" viewBox="0 0 512 512" enable-background="new 0 0 512 512" xml:space="preserve">
<g id="white_block">
	<rect opacity="0" fill="#FFFFFF" width="512" height="512"/>
</g>
<g id="Logos">
	<g>
		<path fill="#061922" d="M38.8,233.2c-4.3,3.9-6.5,9-6.4,15.2v112.2c0,6.3,2.1,11.5,6.4,15.4c4.3,3.9,9.6,5.6,15.9,5.1
			c10-0.8,20.1-1.6,30.1-2.3v-21.2c-10.1,0.5-20.1,1.1-30.1,1.7V249.9c10,0.6,20.1,1.2,30.1,1.7v-21.2c-10.1-0.7-20.1-1.5-30.1-2.3
			C48.4,227.5,43.1,229.2,38.8,233.2"/>
		<path fill="#061922" d="M111.7,232.1c-7.5-0.4-14.9-0.9-22.4-1.4v147.8c16.3-1.1,32.6-2.1,48.9-2.9v-20.3
			c-8.9,0.3-17.7,0.7-26.5,1V232.1z"/>
		<path fill="#061922" d="M142.7,375.3c7.6-0.4,15.2-0.7,22.9-1V234.7c-7.6-0.3-15.2-0.6-22.9-1V375.3z"/>
		<path fill="#061922" d="M207.8,235.9c-12.6-0.3-25.2-0.6-37.7-1v139.3c7.5-0.3,15-0.5,22.5-0.7v-59.1c5.1,0,10.2,0,15.3-0.1
			c6.2,0,11.5-1.9,15.8-5.7c4.4-3.8,6.7-8.4,6.7-13.9v-39c0-5.4-2.2-10-6.7-13.8C219.3,238.1,214,236.1,207.8,235.9 M207.8,294.7
			c-5.1,0-10.2,0-15.3-0.1v-39.4c5.1,0.1,10.2,0.2,15.3,0.3V294.7z"/>
		<path fill="#061922" d="M406,308.9c4.4-4,6.7-9,6.7-14.8v-41.8c0-5.8-2.2-10.6-6.7-14.3c-4.3-3.9-9.6-5.6-15.8-5.2
			c-12.6,0.7-25.1,1.3-37.7,1.8v140.1c7.5,0.3,15,0.6,22.5,1v-60.3c6.2,20.2,12.4,40.6,18.6,61.3c7.5,0.4,14.9,0.9,22.4,1.4
			c-6.5-21.7-13-43-19.6-64C400.1,313.1,403.3,311.5,406,308.9 M375.1,253.8c5.1-0.2,10.2-0.4,15.2-0.6c0,13.7,0,27.4,0,41.1
			c-5.1,0-10.1,0.1-15.2,0.1V253.8z"/>
		<path fill="#061922" d="M272.6,236.4c-12.6,0.1-25.2,0.1-37.8,0v136.4c7.5-0.1,15-0.1,22.5-0.1v-58.4c5.1,0,10.2,0,15.3,0
			c6.2,0,11.5-1.9,15.8-5.6c4.5-3.8,6.7-8.4,6.7-13.9v-39.1c0-5.4-2.2-10-6.7-13.7C284,238.2,278.8,236.3,272.6,236.4 M272.6,294.8
			c-5.1,0-10.2,0-15.3,0v-38.9c5.1,0,10.2,0,15.3,0V294.8z"/>
		<path fill="#061922" d="M299.6,373.1c16.4,0.3,32.7,0.8,49.1,1.4v-20c-8.9-0.2-17.7-0.4-26.6-0.6v-39.4c5.1,0,14.2,0,19.2,0.1
			c0-6.6,0-13.2,0-19.9c-5.1,0-14.2,0-19.2,0.1v-39.4c8.9-0.2,17.7-0.4,26.6-0.6v-20c-16.3,0.6-32.7,1.1-49.1,1.4V373.1"/>
		<path fill="#061922" d="M479.7,270.9v-22.4c0-6.2-2.2-11.3-6.6-15.2c-4.3-4.1-9.5-5.8-15.7-5.2c-6.3,0.5-12.6,1-18.9,1.5
			c-6.3,0.5-11.6,3-15.9,7.4c-4.3,4.3-6.5,9.4-6.5,15.2v42c0,5.9,2.2,10.9,6.5,14.9c4.3,4.1,9.6,6.2,15.9,6.3
			c6.3,0.1,12.6,0.1,18.9,0.2v43.7c-6.3-0.4-12.6-0.7-18.9-1.1v-21.4c-7.5-0.2-14.9-0.5-22.4-0.7v21c0,5.9,2.2,11,6.5,15.3
			c4.3,4.3,9.6,6.8,15.9,7.3c6.3,0.5,12.6,1,18.9,1.5c6.2,0.5,11.4-1.1,15.7-5.1c4.4-3.9,6.6-9.1,6.6-15.4v-44.9
			c0-6.2-2.2-11.5-6.6-15.7c-4.3-4.4-9.5-6.5-15.7-6.4c-6.3,0.1-12.6,0.1-18.9,0.2v-42.9c6.3-0.3,12.6-0.7,18.9-1.1v21.9
			C464.8,271.5,472.2,271.2,479.7,270.9"/>
		<path fill="#BEC0C2" d="M55.9,230.5c8.8,0.7,18.1,1.5,27.4,2.1v-0.9c-9.6-0.7-19.2-1.4-28.8-2.2c-0.7-0.1-1.4-0.1-2.1-0.1
			c-5,0-9.2,1.6-12.7,4.9c-4,3.6-6,8.4-6,14.1v112.2c0,4.7,1.3,8.8,3.9,12.1c-1.9-3-2.9-6.7-2.9-10.7V249.8c0-5.9,2-10.7,6.1-14.4
			c3.6-3.4,7.8-5,12.9-5C54.5,230.4,55.2,230.4,55.9,230.5"/>
		<path fill="#BEC0C2" d="M110.2,234.4v-0.9c-6.5-0.4-13-0.8-19.4-1.3v144.6l1-0.1V233.2l0.2,0C97.8,233.6,104,234,110.2,234.4"/>
		<path fill="#BEC0C2" d="M164.1,237.1v-0.9c-6.5-0.2-13.2-0.5-19.9-0.8v138.4l1,0V236.3l0.2,0C151.4,236.6,157.7,236.9,164.1,237.1
			"/>
		<path fill="#BEC0C2" d="M209.1,238.4c4.5,0.1,8.6,1.3,12.1,3.5c-3.8-2.9-8.3-4.4-13.4-4.5c-12-0.2-24.2-0.6-36.2-1v136.2l1,0
			V237.4l0.2,0C184.8,237.9,197,238.2,209.1,238.4"/>
		<path fill="#BEC0C2" d="M393.1,235.1c4.1,0,7.6,1,10.7,2.9c-3.4-2.6-7.4-3.9-12-3.9c-0.5,0-1,0-1.4,0c-11.9,0.7-24.1,1.2-36.3,1.7
			v137.2l1,0V236.9l0.2,0c12.3-0.5,24.5-1.1,36.4-1.8C392.2,235.1,392.7,235.1,393.1,235.1"/>
		<path fill="#BEC0C2" d="M257.4,238.9c5.5,0,11.1,0,16.5-0.1h0.2c4.6,0,8.6,1.1,12.1,3.3c-3.8-2.9-8.2-4.3-13.4-4.3h-0.2
			c-5.5,0-11.1,0.1-16.5,0.1c-6.5,0-13.1,0-19.7-0.1v133.4l1,0V238.8l0.2,0C244.1,238.9,250.8,238.9,257.4,238.9"/>
		<path fill="#BEC0C2" d="M347.1,236.2c-15.2,0.6-30.7,1-46.1,1.3v134.1l1,0V238.5l0.2,0c14.8-0.3,30-0.7,44.9-1.3V236.2z"/>
		<path fill="#BEC0C2" d="M458.8,230.5c0.7-0.1,1.3-0.1,2-0.1c3.7,0,6.9,0.9,9.8,2.7c-3.2-2.5-6.8-3.7-11.1-3.7c-0.6,0-1.3,0-2,0.1
			c-6.3,0.5-12.6,1-18.9,1.5c-5.9,0.4-10.9,2.8-14.9,7c-4.1,4.1-6.1,8.7-6.1,14.1v42c0,4.4,1.3,8.2,3.8,11.5
			c-1.9-3-2.9-6.4-2.9-10.2v-42c0-5.5,2-10.2,6.1-14.3c4.1-4.2,9.2-6.6,15.2-7.1C446.2,231.5,452.5,231,458.8,230.5"/>
		<path fill="#006BB6" d="M32.3,405.4c148.2-18.5,299.1-18.5,447.3,0v-7.8c-148.2-17.1-299.1-17.1-447.3,0V405.4z"/>
		<path fill="#ED174C" d="M86.3,426c112-29,227.4-29,339.4,0v-7.3c-112-28.2-227.4-28.2-339.4,0C86.3,421.2,86.3,423.6,86.3,426"/>
		<path fill="#006BB6" d="M211.6,214.4c-60-1.5-119.8-5.9-179.2-13.3v7.8c63.2,7.3,126.9,11.5,190.6,12.6
			C219,219.4,215.1,217,211.6,214.4"/>
		<path fill="#006BB6" d="M300.4,214.4c-3.6,2.7-7.4,5-11.4,7c63.8-1.1,127.5-5.3,190.6-12.6v-7.8
			C420.2,208.5,360.4,212.9,300.4,214.4"/>
		<path fill="#ED174C" d="M196.7,199.5c-37-3.3-73.8-9.6-110.3-19.1c0,2.4,0,4.9,0,7.3c38.6,9.7,77.6,16.1,116.7,19.1
			C200.7,204.5,198.6,202.1,196.7,199.5"/>
		<path fill="#ED174C" d="M315.3,199.5c-2,2.6-4.1,5-6.3,7.3c39.1-3,78.1-9.4,116.7-19.1v-7.3C389.2,189.8,352.3,196.2,315.3,199.5"
			/>
		<path fill="#FFFFFF" d="M187,154.9c0-38.1,30.9-69,69-69c38.1,0,69,30.9,69,69c0,38.1-30.9,69-69,69
			C217.9,223.9,187,193,187,154.9"/>
		<path fill="#061922" d="M256,86c-38,0-69,30.9-69,69c0,38,30.9,69,69,69c38,0,69-30.9,69-69C325,116.9,294,86,256,86 M305.8,116.6
			c7.9,10.2,12.4,22.4,13,35.3h-26C293.5,139,297.9,126.8,305.8,116.6 M206.2,116.6c7.9,10.2,12.4,22.4,13,35.3h-26
			C193.8,139,198.3,126.8,206.2,116.6 M206.2,193.2c-7.9-10.2-12.4-22.4-13-35.3h26C218.5,170.8,214.1,183,206.2,193.2 M259,217.7
			v-18h-6v18c-16.4-0.8-31.5-7.8-42.8-19.8c9.2-11.5,14.4-25.3,15-40v-6c-0.6-14.7-5.8-28.5-15-40c11.3-12,26.5-19,42.8-19.8v17.9h6
			V92.1c16.4,0.8,31.5,7.8,42.8,19.8c-9.2,11.5-14.4,25.3-15,40v6c0.6,14.7,5.8,28.5,15,40C290.6,209.9,275.4,216.9,259,217.7
			 M305.8,193.2c-7.9-10.2-12.4-22.4-13-35.3h26C318.2,170.8,313.7,183,305.8,193.2"/>
		<polygon fill="#ED174C" points="240.6,126 240.6,183.6 271.4,183.6 271.4,175.6 248.9,175.6 248.9,126 		"/>
		<path fill="#006BB6" d="M281.8,145.3v-23.7c0-3.6-1.4-5-4.9-5h-41.8c-3.5,0-4.9,1.4-4.9,5v66.6c0,3.6,1.4,5,4.9,5h41.8
			c3.5,0,4.9-1.4,4.9-5v-23.7h-8.3v21.5h-35.1v-62.1h35.1v21.4H281.8z"/>
		<path fill="#ED174C" d="M271.4,173.4l0-47.4h-20l-0.2,47.4h8l0.1-14.8h4.1l-0.1,14.8H271.4z M263.3,150.8h-4v-16.8h4V150.8z"/>
	</g>
</g>
</svg>
