<?xml version="1.0" encoding="utf-8"?>
<!-- Generator: Adobe Illustrator 18.0.0, SVG Export Plug-In . SVG Version: 6.00 Build 0)  -->
<!DOCTYPE svg PUBLIC "-//W3C//DTD SVG 1.1//EN" "http://www.w3.org/Graphics/SVG/1.1/DTD/svg11.dtd">
<svg version="1.1" xmlns="http://www.w3.org/2000/svg" xmlns:xlink="http://www.w3.org/1999/xlink" x="0px" y="0px" width="512px"
	 height="512px" viewBox="0 0 512 512" enable-background="new 0 0 512 512" xml:space="preserve">
<g id="white_block">
	<rect opacity="0" fill="#FFFFFF" width="512" height="512"/>
</g>
<g id="Logos">
	<g>
		<path fill="#FFFFFF" d="M112.5,165.7c0,0,43.3-70.7,131.9-70.7c88.6,0,129.8,68.7,129.8,68.7h120.2l-4.8,29.5c0,0-3.4,11.7-8.9,13
			h8.2c0,0,2.7,10.3-13.7,46h35c0,0,1.4,62.5-74.2,92c0,0-39.1,12.4-59.1-8.9c0,0-39.8,74.2-132.5,74.2
			c-92.7,0-134.6-76.2-134.6-76.2H1.9l17.2-30.9H7.4L21.1,277h23.4l4.1-9.6h-11l26.8-49.4h15.1l6.2-15.1h-13l19.9-37.1H112.5z"/>
		<g>
			<path fill="#FDB927" d="M245.6,393c75.8,0,137.2-62.4,137.2-139.3c0-76.9-61.4-139.3-137.2-139.3c-75.8,0-137.2,62.4-137.2,139.3
				C108.4,330.6,169.8,393,245.6,393z"/>
		</g>
		<g>
			<path fill="#552583" d="M308.2,267.9c-12.8,15.5-20.1,20.9-33.1,20.9c-4.4,0-6.7-1-5.5-3.1l15.5-31.1h5.9c6.6,0,5.7,5.5,3.9,13
				c-0.3,1,0.5,1.1,1.3,0.2l14.7-25.8c0.7-1.6-1.1-2-2-0.7c-7.4,10-15.1,9.2-18.4,9.2h-2.7l16.5-31.5h6.7c8.4,0.5,12.3,7.6,9.9,24.8
				h3.5l12.1-23.9c1-2-1.1-3.9-3.4-3.9l-82.3,0c-4.8,0-5,3.7-0.4,3.7c3.7,0,3.5,5.3,0.2,7.9l-34.9,27.7l7.1,32.8
				c0.5,2.5,2.1,3.7,4.8,3.7h68.1c2.8,0,4-1.1,4.9-2.3l12.3-21.3C314.3,265.1,310.3,265.3,308.2,267.9z M260.8,253l-6-0.1
				c-0.4,0-0.8,0.3-0.8,0.8c0,0.4,0.3,0.8,0.8,0.8l6.1-0.1c2,0,3.9,0.3,3.4,1.2l-15.7,30c-2,3.6-6.1,2.7-6.8-0.2l-7.8-40.3
				l27.4-21.3c2.7-2.3,8-6.2,10.6-6.1l6,0c3.6,0,4.9,1.7,4.1,3.9l-1.1,2c-0.7,1.1-2.8,1.3-4.7,1.3l-3.4,0c-0.4,0-0.8,0.3-0.8,0.8
				c0,0.4,0.3,0.8,0.8,0.8l3.4,0c1.5,0,3.3,0,2.6,1.1l-12.7,24.2C265.6,252.8,263,253,260.8,253z"/>
			<path fill="#552583" d="M204.3,288.1c-1.8-0.1-3-1.3-3.4-2.5c-0.6-1.8-0.5-4.9,0.2-6.2l31.8-56.3c0.5-1,1.8-3.2,3.4-3.2
				c2.8,0,4-3.7-0.7-3.7H210c-4.8,0-4.8,3.6-0.2,3.6c1.9,0,2.6,1.8,2.1,2.9l-7,12.7c-0.9,1.4-2.8,1.5-4.9,1.5l-6.1,0
				c-0.4,0-0.8,0.3-0.8,0.8c0,0.4,0.3,0.8,0.8,0.8l6,0c1.6,0,2.9,0.5,2,2.4l-23.4,42.7c-1.7,2.3-5.1,2.9-4.9-1.6l8.3-62.5
				c0.3-2-0.2-3.3-2.3-3.3l-12.6,0c-1.5,0-2.4,0.7-3.1,1.7l-4.5,5.6c-0.6,0.6-1.9,0.6-3.3,0.6l-10.5,0c-0.4,0-0.8,0.3-0.8,0.8
				c0,0.4,0.3,0.8,0.8,0.8h8.6c1.5,0,3.3,0.4,2.7,1.1l-12.1,15.2c-0.4,0.4-1.5,0.5-2.3,0.5l-3.4,0c-0.4,0-0.8,0.3-0.8,0.8
				c0,0.4,0.3,0.8,0.8,0.8l2.8,0c0.9,0,0.9,0.4,0.5,0.8L131.1,259c-0.6,0.6-1.7,0.7-2.8,0.7l-10,0c-0.4,0-0.8,0.3-0.8,0.8
				c0,0.4,0.3,0.8,0.8,0.8l8.6,0c1.3,0,2.3,0.2,1.6,1.1l-16.2,20.3c-3,3.9-17.7,5.8-20.5,5.8l54.6-102.2c0.5-1.2,2.5-3,4.7-3h11.6
				c5.5,0,5.3-3.6,0.6-3.6h-58.3c-4.8,0-4.9,3.6,0.5,3.6h10.8c3.1,0,4.1,1.9,3.3,3.4l-1.5,2.8c-0.5,0.9-1.2,1.3-4.2,1.3l-19.1,0
				c-0.4,0-0.8,0.3-0.8,0.8c0,0.4,0.3,0.8,0.8,0.8l19,0c1,0,2.6,0.3,1.6,2.1l-2.7,5c-0.5,0.7-1.6,1.1-3,1.1l-8.7,0
				c-0.4,0-0.8,0.3-0.8,0.8c0,0.4,0.3,0.8,0.8,0.8l8.6,0c1.2,0,1.3,0.8,0.5,2l-6.1,11.4c-0.5,1-1.5,1.1-3.5,1.1l-3.4,0
				c-0.4,0-0.8,0.3-0.8,0.8c0,0.4,0.3,0.8,0.8,0.8l3.4,0c1.3,0,1.6,0.7,1.1,2l-5,9.4c-0.7,1.3-1.8,1.9-5.2,1.9l-19.1,0
				c-0.4,0-0.8,0.3-0.8,0.8c0,0.4,0.3,0.8,0.8,0.8l19,0c2.2,0,2.9,1,2.1,2.5l-9.8,18.5c-0.6,0.8-2.2,0.9-4.9,0.9l-19.1,0
				c-0.4,0-0.8,0.3-0.8,0.8c0,0.4,0.3,0.8,0.8,0.8l19,0c2.3,0,3.7,0.1,3,1.3L75.9,268c-1,1.6-4,1.6-5.1,1.6l-6.1,0
				c-0.4,0-0.8,0.3-0.8,0.8c0,0.4,0.3,0.8,0.8,0.8h6c2.1,0,3.2,0.4,2.7,1.5l-7.6,14.2c-0.7,1.3-3.7,1.3-5.9,1.3l-29.5,0
				c-0.4,0-0.8,0.3-0.8,0.8c0,0.4,0.3,0.8,0.8,0.8l29.5,0c2,0,4.4,0.2,3.5,1.8l-4.8,9.1c-0.5,0.7-2.1,0.8-4.5,0.8l-6.1,0
				c-0.4,0-0.8,0.3-0.8,0.8c0,0.4,0.3,0.8,0.8,0.8h6c1.5,0,3.2,0.2,2.6,1.3l-3,5.8c-1,1.4-2,2.7-4.3,2.7H34.5
				c-5.5,0-5.3,3.6-0.5,3.6l86.9,0c2.5,0,2.6-0.3,3.8-2.2l12.9-22.5l65.9,0C208.3,291.8,207.1,288.2,204.3,288.1z M152.6,281.4
				c-0.7,3.7-4.4,6.2-9.1,7.4l-4.8,1.2l4-7.2c1-2-1.2-3.1-3.7-0.2c-16.8,19.6-22.2,29-48.1,29l-7,0c-2.1,0-4.4-0.8-3-2.9l9.2-17.1
				l34.9,0c4.8,0,3.5-3.6,0.7-3.7c-1.8-0.1-3.9-1.1-5.3-3.4c-0.4-0.6-1.3-3.1,0.1-5l13.3-17.7h22.2L152.6,281.4z M157.6,259h-21.7
				l27.4-36.1L157.6,259z"/>
			<path fill="#552583" d="M487.1,270.2c-0.4-1.8-1-0.7-2.2,1.5c-0.4,0.7-1.5,0.7-2.6,0.7l-3.5,0c-0.4,0-0.8,0.3-0.8,0.8
				c0,0.4,0.3,0.8,0.8,0.8l3.4,0c1.3,0,1.3,0.9,0.7,2.2c-2.4,5.1-4.9,8.5-8.1,12.6c-0.5,0.7-1.8,1.2-2.9,1.2l-3.5,0
				c-0.4,0-0.8,0.3-0.8,0.8c0,0.4,0.3,0.8,0.8,0.8h3.4c1.7,0,0,1.1-0.3,1.5c-6.1,8.1-10.3,11.7-14.7,15.4c-0.5,0.4-3,0.3-4.8,0.3
				l-3.4,0c-0.4,0-0.8,0.3-0.8,0.8c0,0.4,0.3,0.8,0.8,0.8l3.4,0c2.6,0,0.7,1.5,0.3,1.8c-9.5,7.9-23.6,10.4-30,9.6
				c-21-2.6-25.3-18.5-26.8-24.9c-0.3-1.3-1.3-4-1.7-5.7c-0.6-3.3,8.8-4.3,11.4-2.5c4,2.7,13.2,5.4,20.5,5.4
				c6.7,0,20.5-4.9,24.5-16.4c4.1-11.8-6.2-24.9-10.7-29.4c-5.8-5.8-11.2-15-8.9-21.7c1.7-5.1,4.6-7.4,10.8-7.4
				c8,0,13.9,5.1,13.9,12.5c0,0.7-0.4,1.4-0.9,1.4l-2.8,0c-0.4,0-0.8,0.3-0.8,0.8c0,0.4,0.3,0.8,0.8,0.8h2.7c0.7,0,1.2,0.6,1,1.5
				c-0.5,2.4-0.7,4.2-1.2,6.6c-0.3,1.4,1.8,2.4,2.5,1.4l12.6-22.5c0.9-1.7-1.1-2.1-2.6-1.6c-3.4,1.2-9.1,2-11,0.6
				c-4.7-3.4-9-5.6-15.6-5.6c-11.2,0-19,2.8-24.1,12c-0.4,0.7-1.5,0.7-2.4,0.7l-2.2,0c-0.4,0-0.8,0.3-0.8,0.8c0,0.4,0.3,0.8,0.8,0.8
				l1.8,0c0.8,0,1.3,0.2,0.9,1.1c-0.4,0.8-0.7,1.7-0.9,2.6c-1.3,4-0.9,9.6,1.1,14.6c0.1,0.3-0.3,0.5-1.1,0.5l-3.4,0
				c-0.4,0-0.8,0.3-0.8,0.8c0,0.4,0.3,0.8,0.8,0.8h3.4c1.6,0,1.9,0.2,2.6,1.1c1.8,2.5,3.6,4.3,5.9,7.2c0.7,0.9-2.3,1.2-4,1.2
				l-13.6,0c-0.4,0-0.8,0.3-0.8,0.8c0,0.4,0.3,0.8,0.8,0.8l13.8,0c2.2,0,6,0,6.4,0.5c3.3,3.8,7.3,9.8,8,14.7c0.2,1.4-0.3,2-2.1,2
				H428c-0.4,0-0.8,0.3-0.8,0.8c0,0.4,0.3,0.8,0.8,0.8h1.6c1.4,0,2.2,0.2,1.8,1.3c-1.8,5.7-4.5,9.8-15.3,9.8
				c-11.4-0.1-13.7-11.2-10.4-22.9c0.7-2.3,0-3.3-1.1-1.5l-7.9,12.5c-0.2,0.3-1,1-2.2,1l-1.1,0c-0.4,0-0.8,0.3-0.8,0.8
				s0.4,0.8,0.8,0.8c1,0,1.4,0.5,1,1.1l-2.9,4.5c-4.8-11-12.8-24.5-17.1-29.4l0.1-0.2c10.6-0.6,26.2-10.5,28.7-19.4
				c4.4-15.4-10.5-21-18.6-21l-35.8,0c-4.8,0-5.1,3.6-0.5,3.6c2.5,0,4.6,2.2,3.5,4.3l-7.9,14.3c-0.7,1.2-3.1,1.1-6.3,1.1h-3.5
				c-0.4,0-0.8,0.3-0.8,0.8c0,0.4,0.3,0.8,0.8,0.8h3.4c2.3,0,4.8,0.1,3.9,1.8l-9.4,16.9c-0.5,0.8-1.7,0.9-4.9,0.9l-3.5,0
				c-0.4,0-0.8,0.3-0.8,0.8c0,0.4,0.3,0.8,0.8,0.8l3.4,0c2.5,0,3.4,0.3,2.7,1.6l-12.5,22.6c-1.5,1.6-3.3,1.9-6.3,1.9
				c-4.6,0-4.5,3.6,0.2,3.6h30.6c4.8,0,3.5-3.7,0.7-3.7c-1.6,0-3.4-3-2.3-4.8l15.6-29.6h1.6c7,0,8.6,11.4,9.9,23.9
				c0.1,0.9-1.6,0.9-5.1,0.9l-8.7,0c-0.4,0-0.8,0.3-0.8,0.8c0,0.4,0.3,0.8,0.8,0.8h8.6c2.3,0,5.5,0,5.5,0.8c0.6,5.5,1,10.3,2.1,14.7
				c0.3,1.4-2.1,1.2-4.7,1.2l-11.1,0c-0.4,0-0.8,0.3-0.8,0.8c0,0.4,0.3,0.8,0.8,0.8l11.1,0c3.5,0,5.3,0,5.5,0.7
				c4.8,17.5,25.2,31.2,45.1,30.5c17-0.6,31.4-9.9,38.8-15.8c9.8-7.9,24.2-24.3,30.1-36.3C485.8,275,487.5,272.1,487.1,270.2z
				 M372.5,246.9c-2.4,2-6.2,4.2-6.9,3.5c-1-1-4.2-3.2-5.9-4l14.2-25.9c0.6-0.9,1.3-1.4,2.8-1.4c5.5,0,7.3,6,4.7,13.5
				C379.7,237.8,376.7,243.4,372.5,246.9z"/>
		</g>
		<g>
			<path fill="#552583" d="M200,193c-2.9,3.7-6.7,4.7-11,4.7h-1.2l7.5-14.9c0.4-0.7,1.2-1.2,2.1-1.2c0.9,0,0.8-1.9-0.4-1.9h-11.9
				c-1,0-1.4,1.9-0.4,1.9c1,0,1.2,1.1,0.7,2.1l-6.7,13.3c-0.5,0.7-1.2,0.9-2,1.1c-1,0.3-1.7,2-0.6,2h19c1.5,0,1.8-0.5,2.2-1.1
				l3.8-5.9C201.7,192.4,200.6,192.3,200,193z"/>
			<path fill="#552583" d="M257.2,180.2c-0.6,0.3-1.9,0.5-2.5,0c-1.5-1.3-4.5-2.2-6-2.2c-4.5,0-7.7,0.9-9.7,5.1
				c-1.7,3.6,0,6.6,4,8.4c1.7,0.8,4,1.8,3.1,3.9c-0.6,1.5-2.4,1.7-4,1.6c-2.1,0-5.3-1.6-5.8-4.6c-0.2-1-1.3-0.8-1.6-0.2l-2.7,5.4
				c-0.4,0.7,0.7,1.5,1.1,1c0.9-1,2.9-1.2,3.9-0.6c1.3,0.9,4.8,2.5,6.9,2.4c4.5,0,7.5-1.2,10-5.1c2.3-3.5,0.9-7.1-3.3-9
				c-2.2-1-4.1-2.8-3.1-4.9c0.6-1.3,2.6-1,3.6-0.9c1.8,0.3,4.2,2,4.5,3.6c0.1,0.6,0.9,0.8,1.3,0.2l1.4-3.3
				C258.6,180.5,257.5,180,257.2,180.2z"/>
			<path fill="#552583" d="M388.7,185.6l1.6-3c0.7-1.3-0.5-2.9-2.4-2.9h-22.1c-1.6,0-1.1,1.7-0.5,1.7c1.4,0,1.8,1.7,1,3.2l-6.7,12.3
				c-1,1.2-1.6,1.7-3,1.7c-1.1,0-1.5,1.7,0.1,1.7h22.4c0.9,0,1.3-0.3,1.6-0.8l3.1-4.1c0.7-1-0.9-1-1.4-0.5c-3.9,3.9-8,3.8-11,3.8
				h-2.6l3.1-6.9h0.7c2,0,4.2,0,4.8,1.5c0.2,0.4,1.1,0.7,1.5,0l2.6-5.2c0.4-0.8-0.8-0.9-1.1-0.4c-1,1.8-5.6,1.4-6.8,1.4h-0.7
				l3.8-7.6h4.3c2.6,0,4.9,1.9,5.7,3.9C387,185.8,388.4,186.2,388.7,185.6z"/>
			<path fill="#552583" d="M332.1,179.7h-7.9c-1.6,0-1.1,1.7-0.5,1.7c1.7,0,3.2,2,2.3,3.8l-3.3,6l-7.2-10.5c-0.5-0.7-1.6-1-2.6-1
				h-7.8c-1.6,0-1.2,1.7-0.6,1.7c1.6,0,1.2,1.2,0.8,2.1l-6.2,11.9c-0.4,0.9-2.1,1.1-2.6-0.1l-4.8-15.6c-0.2-0.6-3-0.6-3.7,0l-12,9.9
				l-6.2,0c-1.2,0-1.7,0.5-1.7,1.2c0,0.7,0.5,1.2,1.8,1.2l3.2,0l-3.2,2.7c-1.8,1.3-3.7,3.2-4.9,3.2h-0.8c-1.2,0-1.8,0.2-1.8,1.1
				c0,0.9,0.5,1.3,1.6,1.3h9.7c1.8,0,1.5-2.4,0.6-2.4c-1,0-2.6-1.3-1.1-3.1l2.9-2.8h5.8c3.5,0,5.9,4,3.8,5.2l-1.6,0.9
				c-0.7,0.4-1.1,2.1,0,2.1h18.9c1.4,0,1.1-1.9,0.5-1.9c-1.9,0-1-2.8-0.6-3.5l5-9.4l7,13.5c0.5,0.8,0.9,1.3,1.7,1.3h2.7
				c0.8,0,1.1-0.5,1.5-1.1l7.9-14.3c1.3-2.6,2.3-3.3,3.9-3.3C333.2,181.3,333.7,179.7,332.1,179.7z M279.3,189.4l7.4-6l0,6H279.3z"
				/>
			<path fill="#552583" d="M220.2,178.8c-6.6,0-13.5,3.3-14.9,10.2c-1.2,6.1,3,12.4,10.4,12.4c7.1,0,13.6-4.6,14.9-11.3
				C232,183.3,227,178.8,220.2,178.8z M222.1,191.5c-2.1,4.2-5.6,6.7-7.9,5.6c-2.2-1.1-2.4-5.4-0.3-9.6c2.1-4.2,5.6-6.7,7.9-5.6
				C224.1,183,224.2,187.3,222.1,191.5z"/>
			<path fill="#552583" d="M354.5,188.9H346c-1.6,0-1.1,1.7-0.5,1.7c0.7,0,1.3,0.4,1.3,1.4c0,3.4-1.5,4.8-4.4,4.8
				c-3.2,0-4.4-3.9-2.2-8.8c1.4-3.1,5.1-6,9.5-6c2.7,0,4.9,0.6,5.3,3.1c0.1,0.6,1,0.6,1.3,0l2-3.6c0.2-0.4-0.1-0.9-0.7-0.9
				c-0.5,0-1.7,0.6-2.5,0.1c-1.7-1.3-5.4-2.5-8.2-2.5c-4.6,0-11,1-15.3,8.5c-3.9,6.8,1.8,14,7.1,14c2.9,0,6.3-2.2,8.3-3l2.2,1.5
				c0.3,0.4,1,0.9,1.7,0.9h0.8c0.7,0,1-1,1.3-1.7l3.3-8.1C356.7,189.5,356.4,188.9,354.5,188.9z"/>
			<path fill="#552583" d="M471.4,180.2c-0.6,0.3-1.9,0.5-2.5,0c-1.5-1.3-4.5-2.2-6-2.2c-4.5,0-7.7,0.9-9.7,5.1
				c-1.7,3.6,0,6.6,4,8.4c1.7,0.8,4,1.8,3.1,3.9c-0.6,1.5-2.4,1.7-4,1.6c-2.1,0-5.3-1.6-5.8-4.6c-0.2-1-1.3-0.8-1.6-0.2l-2.7,5.4
				c-0.4,0.7,0.7,1.5,1.1,1c0.9-1,2.9-1.2,3.9-0.6c1.3,0.9,4.8,2.5,6.9,2.4c4.5,0,7.5-1.2,10-5.1c2.3-3.5,0.9-7.1-3.3-9
				c-2.2-1-4.1-2.8-3.1-4.9c0.6-1.3,2.6-1,3.6-0.9c1.8,0.3,4.2,2,4.5,3.6c0.1,0.6,0.9,0.8,1.3,0.2l1.4-3.3
				C472.8,180.5,471.8,180,471.4,180.2z"/>
			<path fill="#552583" d="M412.1,193c-2.9,3.7-6.7,4.7-11,4.7h-1.2l7.5-14.9c0.4-0.7,1.2-1.2,2.1-1.2c0.9,0,0.8-1.9-0.4-1.9h-11.9
				c-1,0-1.4,1.9-0.4,1.9c1,0,1.2,1.1,0.7,2.1l-6.7,13.3c-0.5,0.7-1.2,0.9-2,1.1c-1,0.3-1.7,2-0.5,2h19c1.5,0,1.8-0.5,2.2-1.1
				l3.8-5.9C413.8,192.4,412.6,192.3,412.1,193z"/>
			<path fill="#552583" d="M440.7,181.4c2.7,0,4.9,1.9,5.7,3.9c0.2,0.5,1.6,0.9,1.9,0.3l1.6-3c0.7-1.3-0.5-2.9-2.4-2.9h-22.1
				c-1.6,0-1.1,1.7-0.5,1.7c1.4,0,1.8,1.7,1,3.2l-6.7,12.3c-1,1.2-1.6,1.7-3.1,1.7c-1.1,0-1.5,1.7,0.1,1.7h22.4
				c0.9,0,1.3-0.3,1.6-0.8l3-4.1c0.8-1-0.9-1-1.3-0.5c-3.9,3.9-8,3.8-11,3.8h-2.6l3.1-6.9h0.7c2,0,4.2,0,4.8,1.5
				c0.2,0.4,1.1,0.7,1.5,0l2.6-5.2c0.4-0.8-0.8-0.9-1.1-0.4c-1,1.8-5.6,1.4-6.8,1.4h-0.7l3.8-7.6H440.7z"/>
		</g>
		<g>
			<defs>
				<path id="SVGID_59_" d="M245.6,393c75.8,0,137.2-62.4,137.2-139.3c0-76.9-61.4-139.3-137.2-139.3
					c-75.8,0-137.2,62.4-137.2,139.3C108.4,330.6,169.8,393,245.6,393z"/>
			</defs>
			<clipPath id="SVGID_2_">
				<use xlink:href="#SVGID_59_"  overflow="visible"/>
			</clipPath>
			<g clip-path="url(#SVGID_2_)">
				<g>
					<path fill="#552583" d="M308.2,267.9c-12.8,15.5-20.1,20.9-33.1,20.9c-4.4,0-6.7-1-5.5-3.1l15.5-31.1h5.9c6.6,0,5.7,5.5,3.9,13
						c-0.3,1,0.5,1.1,1.3,0.2l14.7-25.8c0.7-1.6-1.1-2-2-0.7c-7.4,10-15.1,9.2-18.4,9.2h-2.7l16.5-31.5h6.7
						c8.4,0.5,12.3,7.6,9.9,24.8h3.5l12.1-23.9c1-2-1.1-3.9-3.4-3.9l-82.3,0c-4.8,0-5,3.7-0.4,3.7c3.7,0,3.5,5.3,0.2,7.9l-34.9,27.7
						l7.1,32.8c0.5,2.5,2.1,3.7,4.8,3.7h68.1c2.8,0,4-1.1,4.9-2.3l12.3-21.3C314.3,265.1,310.3,265.3,308.2,267.9z M260.8,253
						l-6-0.1c-0.4,0-0.8,0.3-0.8,0.8c0,0.4,0.3,0.8,0.8,0.8l6.1-0.1c2,0,3.9,0.3,3.4,1.2l-15.7,30c-2,3.6-6.1,2.7-6.8-0.2l-7.8-40.3
						l27.4-21.3c2.7-2.3,8-6.2,10.6-6.1l6,0c3.6,0,4.9,1.7,4.1,3.9l-1.1,2c-0.7,1.1-2.8,1.3-4.7,1.3l-3.4,0c-0.4,0-0.8,0.3-0.8,0.8
						c0,0.4,0.3,0.8,0.8,0.8l3.4,0c1.5,0,3.3,0,2.6,1.1l-12.7,24.2C265.6,252.8,263,253,260.8,253z"/>
					<path fill="#552583" d="M204.3,288.1c-1.8-0.1-3-1.3-3.4-2.5c-0.6-1.8-0.5-4.9,0.2-6.2l31.8-56.3c0.5-1,1.8-3.2,3.4-3.2
						c2.8,0,4-3.7-0.7-3.7H210c-4.8,0-4.8,3.6-0.2,3.6c1.9,0,2.6,1.8,2.1,2.9l-7,12.7c-0.9,1.4-2.8,1.5-4.9,1.5l-6.1,0
						c-0.4,0-0.8,0.3-0.8,0.8c0,0.4,0.3,0.8,0.8,0.8l6,0c1.6,0,2.9,0.5,2,2.4l-23.4,42.7c-1.7,2.3-5.1,2.9-4.9-1.6l8.3-62.5
						c0.3-2-0.2-3.3-2.3-3.3l-12.6,0c-1.5,0-2.4,0.7-3.1,1.7l-4.5,5.6c-0.6,0.6-1.9,0.6-3.3,0.6l-10.5,0c-0.4,0-0.8,0.3-0.8,0.8
						c0,0.4,0.3,0.8,0.8,0.8h8.6c1.5,0,3.3,0.4,2.7,1.1l-12.1,15.2c-0.4,0.4-1.5,0.5-2.3,0.5l-3.4,0c-0.4,0-0.8,0.3-0.8,0.8
						c0,0.4,0.3,0.8,0.8,0.8l2.8,0c0.9,0,0.9,0.4,0.5,0.8L131.1,259c-0.6,0.6-1.7,0.7-2.8,0.7l-10,0c-0.4,0-0.8,0.3-0.8,0.8
						c0,0.4,0.3,0.8,0.8,0.8l8.6,0c1.3,0,2.3,0.2,1.6,1.1l-16.2,20.3c-3,3.9-17.7,5.8-20.5,5.8l54.6-102.2c0.5-1.2,2.5-3,4.7-3h11.6
						c5.5,0,5.3-3.6,0.6-3.6h-58.3c-4.8,0-4.9,3.6,0.5,3.6h10.8c3.1,0,4.1,1.9,3.3,3.4l-1.5,2.8c-0.5,0.9-1.2,1.3-4.2,1.3l-19.1,0
						c-0.4,0-0.8,0.3-0.8,0.8c0,0.4,0.3,0.8,0.8,0.8l19,0c1,0,2.6,0.3,1.6,2.1l-2.7,5c-0.5,0.7-1.6,1.1-3,1.1l-8.7,0
						c-0.4,0-0.8,0.3-0.8,0.8c0,0.4,0.3,0.8,0.8,0.8l8.6,0c1.2,0,1.3,0.8,0.5,2l-6.1,11.4c-0.5,1-1.5,1.1-3.5,1.1l-3.4,0
						c-0.4,0-0.8,0.3-0.8,0.8c0,0.4,0.3,0.8,0.8,0.8l3.4,0c1.3,0,1.6,0.7,1.1,2l-5,9.4c-0.7,1.3-1.8,1.9-5.2,1.9l-19.1,0
						c-0.4,0-0.8,0.3-0.8,0.8c0,0.4,0.3,0.8,0.8,0.8l19,0c2.2,0,2.9,1,2.1,2.5l-9.8,18.5c-0.6,0.8-2.2,0.9-4.9,0.9l-19.1,0
						c-0.4,0-0.8,0.3-0.8,0.8c0,0.4,0.3,0.8,0.8,0.8l19,0c2.3,0,3.7,0.1,3,1.3L75.9,268c-1,1.6-4,1.6-5.1,1.6l-6.1,0
						c-0.4,0-0.8,0.3-0.8,0.8c0,0.4,0.3,0.8,0.8,0.8h6c2.1,0,3.2,0.4,2.7,1.5l-7.6,14.2c-0.7,1.3-3.7,1.3-5.9,1.3l-29.5,0
						c-0.4,0-0.8,0.3-0.8,0.8c0,0.4,0.3,0.8,0.8,0.8l29.5,0c2,0,4.4,0.2,3.5,1.8l-4.8,9.1c-0.5,0.7-2.1,0.8-4.5,0.8l-6.1,0
						c-0.4,0-0.8,0.3-0.8,0.8c0,0.4,0.3,0.8,0.8,0.8h6c1.5,0,3.2,0.2,2.6,1.3l-3,5.8c-1,1.4-2,2.7-4.3,2.7H34.5
						c-5.5,0-5.3,3.6-0.5,3.6l86.9,0c2.5,0,2.6-0.3,3.8-2.2l12.9-22.5l65.9,0C208.3,291.8,207.1,288.2,204.3,288.1z M152.6,281.4
						c-0.7,3.7-4.4,6.2-9.1,7.4l-4.8,1.2l4-7.2c1-2-1.2-3.1-3.7-0.2c-16.8,19.6-22.2,29-48.1,29l-7,0c-2.1,0-4.4-0.8-3-2.9l9.2-17.1
						l34.9,0c4.8,0,3.5-3.6,0.7-3.7c-1.8-0.1-3.9-1.1-5.3-3.4c-0.4-0.6-1.3-3.1,0.1-5l13.3-17.7h22.2L152.6,281.4z M157.6,259h-21.7
						l27.4-36.1L157.6,259z"/>
					<path fill="#552583" d="M487.1,270.2c-0.4-1.8-1-0.7-2.2,1.5c-0.4,0.7-1.5,0.7-2.6,0.7l-3.5,0c-0.4,0-0.8,0.3-0.8,0.8
						c0,0.4,0.3,0.8,0.8,0.8l3.4,0c1.3,0,1.3,0.9,0.7,2.2c-2.4,5.1-4.9,8.5-8.1,12.6c-0.5,0.7-1.8,1.2-2.9,1.2l-3.5,0
						c-0.4,0-0.8,0.3-0.8,0.8c0,0.4,0.3,0.8,0.8,0.8h3.4c1.7,0,0,1.1-0.3,1.5c-6.1,8.1-10.3,11.7-14.7,15.4c-0.5,0.4-3,0.3-4.8,0.3
						l-3.4,0c-0.4,0-0.8,0.3-0.8,0.8c0,0.4,0.3,0.8,0.8,0.8l3.4,0c2.6,0,0.7,1.5,0.3,1.8c-9.5,7.9-23.6,10.4-30,9.6
						c-21-2.6-25.3-18.5-26.8-24.9c-0.3-1.3-1.3-4-1.7-5.7c-0.6-3.3,8.8-4.3,11.4-2.5c4,2.7,13.2,5.4,20.5,5.4
						c6.7,0,20.5-4.9,24.5-16.4c4.1-11.8-6.2-24.9-10.7-29.4c-5.8-5.8-11.2-15-8.9-21.7c1.7-5.1,4.6-7.4,10.8-7.4
						c8,0,13.9,5.1,13.9,12.5c0,0.7-0.4,1.4-0.9,1.4l-2.8,0c-0.4,0-0.8,0.3-0.8,0.8c0,0.4,0.3,0.8,0.8,0.8h2.7c0.7,0,1.2,0.6,1,1.5
						c-0.5,2.4-0.7,4.2-1.2,6.6c-0.3,1.4,1.8,2.4,2.5,1.4l12.6-22.5c0.9-1.7-1.1-2.1-2.6-1.6c-3.4,1.2-9.1,2-11,0.6
						c-4.7-3.4-9-5.6-15.6-5.6c-11.2,0-19,2.8-24.1,12c-0.4,0.7-1.5,0.7-2.4,0.7l-2.2,0c-0.4,0-0.8,0.3-0.8,0.8
						c0,0.4,0.3,0.8,0.8,0.8l1.8,0c0.8,0,1.3,0.2,0.9,1.1c-0.4,0.8-0.7,1.7-0.9,2.6c-1.3,4-0.9,9.6,1.1,14.6
						c0.1,0.3-0.3,0.5-1.1,0.5l-3.4,0c-0.4,0-0.8,0.3-0.8,0.8c0,0.4,0.3,0.8,0.8,0.8h3.4c1.6,0,1.9,0.2,2.6,1.1
						c1.8,2.5,3.6,4.3,5.9,7.2c0.7,0.9-2.3,1.2-4,1.2l-13.6,0c-0.4,0-0.8,0.3-0.8,0.8c0,0.4,0.3,0.8,0.8,0.8l13.8,0
						c2.2,0,6,0,6.4,0.5c3.3,3.8,7.3,9.8,8,14.7c0.2,1.4-0.3,2-2.1,2H428c-0.4,0-0.8,0.3-0.8,0.8c0,0.4,0.3,0.8,0.8,0.8h1.6
						c1.4,0,2.2,0.2,1.8,1.3c-1.8,5.7-4.5,9.8-15.3,9.8c-11.4-0.1-13.7-11.2-10.4-22.9c0.7-2.3,0-3.3-1.1-1.5l-7.9,12.5
						c-0.2,0.3-1,1-2.2,1l-1.1,0c-0.4,0-0.8,0.3-0.8,0.8s0.4,0.8,0.8,0.8c1,0,1.4,0.5,1,1.1l-2.9,4.5c-4.8-11-12.8-24.5-17.1-29.4
						l0.1-0.2c10.6-0.6,26.2-10.5,28.7-19.4c4.4-15.4-10.5-21-18.6-21l-35.8,0c-4.8,0-5.1,3.6-0.5,3.6c2.5,0,4.6,2.2,3.5,4.3
						l-7.9,14.3c-0.7,1.2-3.1,1.1-6.3,1.1h-3.5c-0.4,0-0.8,0.3-0.8,0.8c0,0.4,0.3,0.8,0.8,0.8h3.4c2.3,0,4.8,0.1,3.9,1.8l-9.4,16.9
						c-0.5,0.8-1.7,0.9-4.9,0.9l-3.5,0c-0.4,0-0.8,0.3-0.8,0.8c0,0.4,0.3,0.8,0.8,0.8l3.4,0c2.5,0,3.4,0.3,2.7,1.6l-12.5,22.6
						c-1.5,1.6-3.3,1.9-6.3,1.9c-4.6,0-4.5,3.6,0.2,3.6h30.6c4.8,0,3.5-3.7,0.7-3.7c-1.6,0-3.4-3-2.3-4.8l15.6-29.6h1.6
						c7,0,8.6,11.4,9.9,23.9c0.1,0.9-1.6,0.9-5.1,0.9l-8.7,0c-0.4,0-0.8,0.3-0.8,0.8c0,0.4,0.3,0.8,0.8,0.8h8.6c2.3,0,5.5,0,5.5,0.8
						c0.6,5.5,1,10.3,2.1,14.7c0.3,1.4-2.1,1.2-4.7,1.2l-11.1,0c-0.4,0-0.8,0.3-0.8,0.8c0,0.4,0.3,0.8,0.8,0.8l11.1,0
						c3.5,0,5.3,0,5.5,0.7c4.8,17.5,25.2,31.2,45.1,30.5c17-0.6,31.4-9.9,38.8-15.8c9.8-7.9,24.2-24.3,30.1-36.3
						C485.8,275,487.5,272.1,487.1,270.2z M372.5,246.9c-2.4,2-6.2,4.2-6.9,3.5c-1-1-4.2-3.2-5.9-4l14.2-25.9
						c0.6-0.9,1.3-1.4,2.8-1.4c5.5,0,7.3,6,4.7,13.5C379.7,237.8,376.7,243.4,372.5,246.9z"/>
				</g>
				<g>
					<path fill="#552583" d="M200,193c-2.9,3.7-6.7,4.7-11,4.7h-1.2l7.5-14.9c0.4-0.7,1.2-1.2,2.1-1.2c0.9,0,0.8-1.9-0.4-1.9h-11.9
						c-1,0-1.4,1.9-0.4,1.9c1,0,1.2,1.1,0.7,2.1l-6.7,13.3c-0.5,0.7-1.2,0.9-2,1.1c-1,0.3-1.7,2-0.6,2h19c1.5,0,1.8-0.5,2.2-1.1
						l3.8-5.9C201.7,192.4,200.6,192.3,200,193z"/>
					<path fill="#552583" d="M257.2,180.2c-0.6,0.3-1.9,0.5-2.5,0c-1.5-1.3-4.5-2.2-6-2.2c-4.5,0-7.7,0.9-9.7,5.1
						c-1.7,3.6,0,6.6,4,8.4c1.7,0.8,4,1.8,3.1,3.9c-0.6,1.5-2.4,1.7-4,1.6c-2.1,0-5.3-1.6-5.8-4.6c-0.2-1-1.3-0.8-1.6-0.2l-2.7,5.4
						c-0.4,0.7,0.7,1.5,1.1,1c0.9-1,2.9-1.2,3.9-0.6c1.3,0.9,4.8,2.5,6.9,2.4c4.5,0,7.5-1.2,10-5.1c2.3-3.5,0.9-7.1-3.3-9
						c-2.2-1-4.1-2.8-3.1-4.9c0.6-1.3,2.6-1,3.6-0.9c1.8,0.3,4.2,2,4.5,3.6c0.1,0.6,0.9,0.8,1.3,0.2l1.4-3.3
						C258.6,180.5,257.5,180,257.2,180.2z"/>
					<path fill="#552583" d="M388.7,185.6l1.6-3c0.7-1.3-0.5-2.9-2.4-2.9h-22.1c-1.6,0-1.1,1.7-0.5,1.7c1.4,0,1.8,1.7,1,3.2
						l-6.7,12.3c-1,1.2-1.6,1.7-3,1.7c-1.1,0-1.5,1.7,0.1,1.7h22.4c0.9,0,1.3-0.3,1.6-0.8l3.1-4.1c0.7-1-0.9-1-1.4-0.5
						c-3.9,3.9-8,3.8-11,3.8h-2.6l3.1-6.9h0.7c2,0,4.2,0,4.8,1.5c0.2,0.4,1.1,0.7,1.5,0l2.6-5.2c0.4-0.8-0.8-0.9-1.1-0.4
						c-1,1.8-5.6,1.4-6.8,1.4h-0.7l3.8-7.6h4.3c2.6,0,4.9,1.9,5.7,3.9C387,185.8,388.4,186.2,388.7,185.6z"/>
					<path fill="#552583" d="M332.1,179.7h-7.9c-1.6,0-1.1,1.7-0.5,1.7c1.7,0,3.2,2,2.3,3.8l-3.3,6l-7.2-10.5c-0.5-0.7-1.6-1-2.6-1
						h-7.8c-1.6,0-1.2,1.7-0.6,1.7c1.6,0,1.2,1.2,0.8,2.1l-6.2,11.9c-0.4,0.9-2.1,1.1-2.6-0.1l-4.8-15.6c-0.2-0.6-3-0.6-3.7,0
						l-12,9.9l-6.2,0c-1.2,0-1.7,0.5-1.7,1.2c0,0.7,0.5,1.2,1.8,1.2l3.2,0l-3.2,2.7c-1.8,1.3-3.7,3.2-4.9,3.2h-0.8
						c-1.2,0-1.8,0.2-1.8,1.1c0,0.9,0.5,1.3,1.6,1.3h9.7c1.8,0,1.5-2.4,0.6-2.4c-1,0-2.6-1.3-1.1-3.1l2.9-2.8h5.8
						c3.5,0,5.9,4,3.8,5.2l-1.6,0.9c-0.7,0.4-1.1,2.1,0,2.1h18.9c1.4,0,1.1-1.9,0.5-1.9c-1.9,0-1-2.8-0.6-3.5l5-9.4l7,13.5
						c0.5,0.8,0.9,1.3,1.7,1.3h2.7c0.8,0,1.1-0.5,1.5-1.1l7.9-14.3c1.3-2.6,2.3-3.3,3.9-3.3C333.2,181.3,333.7,179.7,332.1,179.7z
						 M279.3,189.4l7.4-6l0,6H279.3z"/>
					<path fill="#552583" d="M220.2,178.8c-6.6,0-13.5,3.3-14.9,10.2c-1.2,6.1,3,12.4,10.4,12.4c7.1,0,13.6-4.6,14.9-11.3
						C232,183.3,227,178.8,220.2,178.8z M222.1,191.5c-2.1,4.2-5.6,6.7-7.9,5.6c-2.2-1.1-2.4-5.4-0.3-9.6c2.1-4.2,5.6-6.7,7.9-5.6
						C224.1,183,224.2,187.3,222.1,191.5z"/>
					<path fill="#552583" d="M354.5,188.9H346c-1.6,0-1.1,1.7-0.5,1.7c0.7,0,1.3,0.4,1.3,1.4c0,3.4-1.5,4.8-4.4,4.8
						c-3.2,0-4.4-3.9-2.2-8.8c1.4-3.1,5.1-6,9.5-6c2.7,0,4.9,0.6,5.3,3.1c0.1,0.6,1,0.6,1.3,0l2-3.6c0.2-0.4-0.1-0.9-0.7-0.9
						c-0.5,0-1.7,0.6-2.5,0.1c-1.7-1.3-5.4-2.5-8.2-2.5c-4.6,0-11,1-15.3,8.5c-3.9,6.8,1.8,14,7.1,14c2.9,0,6.3-2.2,8.3-3l2.2,1.5
						c0.3,0.4,1,0.9,1.7,0.9h0.8c0.7,0,1-1,1.3-1.7l3.3-8.1C356.7,189.5,356.4,188.9,354.5,188.9z"/>
					<path fill="#552583" d="M471.4,180.2c-0.6,0.3-1.9,0.5-2.5,0c-1.5-1.3-4.5-2.2-6-2.2c-4.5,0-7.7,0.9-9.7,5.1
						c-1.7,3.6,0,6.6,4,8.4c1.7,0.8,4,1.8,3.1,3.9c-0.6,1.5-2.4,1.7-4,1.6c-2.1,0-5.3-1.6-5.8-4.6c-0.2-1-1.3-0.8-1.6-0.2l-2.7,5.4
						c-0.4,0.7,0.7,1.5,1.1,1c0.9-1,2.9-1.2,3.9-0.6c1.3,0.9,4.8,2.5,6.9,2.4c4.5,0,7.5-1.2,10-5.1c2.3-3.5,0.9-7.1-3.3-9
						c-2.2-1-4.1-2.8-3.1-4.9c0.6-1.3,2.6-1,3.6-0.9c1.8,0.3,4.2,2,4.5,3.6c0.1,0.6,0.9,0.8,1.3,0.2l1.4-3.3
						C472.8,180.5,471.8,180,471.4,180.2z"/>
					<path fill="#552583" d="M412.1,193c-2.9,3.7-6.7,4.7-11,4.7h-1.2l7.5-14.9c0.4-0.7,1.2-1.2,2.1-1.2c0.9,0,0.8-1.9-0.4-1.9
						h-11.9c-1,0-1.4,1.9-0.4,1.9c1,0,1.2,1.1,0.7,2.1l-6.7,13.3c-0.5,0.7-1.2,0.9-2,1.1c-1,0.3-1.7,2-0.5,2h19
						c1.5,0,1.8-0.5,2.2-1.1l3.8-5.9C413.8,192.4,412.6,192.3,412.1,193z"/>
					<path fill="#552583" d="M440.7,181.4c2.7,0,4.9,1.9,5.7,3.9c0.2,0.5,1.6,0.9,1.9,0.3l1.6-3c0.7-1.3-0.5-2.9-2.4-2.9h-22.1
						c-1.6,0-1.1,1.7-0.5,1.7c1.4,0,1.8,1.7,1,3.2l-6.7,12.3c-1,1.2-1.6,1.7-3.1,1.7c-1.1,0-1.5,1.7,0.1,1.7h22.4
						c0.9,0,1.3-0.3,1.6-0.8l3-4.1c0.8-1-0.9-1-1.3-0.5c-3.9,3.9-8,3.8-11,3.8h-2.6l3.1-6.9h0.7c2,0,4.2,0,4.8,1.5
						c0.2,0.4,1.1,0.7,1.5,0l2.6-5.2c0.4-0.8-0.8-0.9-1.1-0.4c-1,1.8-5.6,1.4-6.8,1.4h-0.7l3.8-7.6H440.7z"/>
				</g>
			</g>
		</g>
		<g>
			<path fill="#061922" d="M353.5,163.5c-1.7-2-4.1-6.1-20.9-20.8c-24.8-21.6-57.7-31.5-88.6-31.5c-22.8,0-42.7,5.1-64.8,17.3
				c-28.1,15.5-39.8,33.3-42.7,36.9c-2.1,2.7-2.4,4.2-1,5c1,0.6,2.9-1.5,4.6-3.8c8.4-11.1,19.4-22,31-28.5c3.6,0.5,8.6,5.5,10.6,8.2
				c-7.4,4-19.7,13.4-24.3,17c-4,3.1-5.4,4.9-4.3,6.1c0.9,1.1,4-1,6.5-3.1c4.5-3.6,17.7-13,24.2-16.5c4.5,5.2,3,14.8,1.4,16.9
				c-0.8,1.1-1,2.3,0,2.9c0.9,0.5,1.9-0.8,3.2-2.7c3-4.4,1.8-15-0.8-18.8c8-4.9,19.4-8.3,26.4-9.8c0.6,1.1,9,25.7,10.6,30.2
				c0.9,2.4,1.7,5.4,3.5,4.8c1.2-0.4,0.4-3-0.6-5.7c-1.2-3.3-7.6-24-9.6-30.1c2.3-1.2,16.1-4,19.6-3.9c-1.7,9,4.7,12.7,11.8,17.4
				c3.8,2.5,28.1,16.5,33.2,19.6c2.9,1.8,5.1,2.9,5.8,2.1c0.7-1-1.3-3-3.9-4.6c-2.1-1.2-24.7-14.4-34.2-20.3
				c-6.8-4.3-10.4-8.8-8.8-14.9c2.2-0.6,9-0.7,16.1-0.6c48.2,0.4,86.8,28,91.1,32.4c2.2,2.2,5.2,4.2,6.4,3.3
				C355.8,167.2,354.5,164.6,353.5,163.5z M185.5,144.4c-1.3-2.2-7.4-7.8-10.7-8.9c7.7-5.7,25.7-13.9,32.5-15.4
				c1.2,2,4.3,10.3,5.4,13.8C206.6,135.3,190.7,141.1,185.5,144.4z M238.2,128.9c-6.3,0.4-17.7,2.9-21.7,4c-1-2.7-3.9-11.2-4.8-13.9
				c11.6-3.3,25-4.4,35.3-3.5C244.1,117.7,239.2,126.5,238.2,128.9z M269.5,128.5c-10.4-0.7-19-1-26.4-0.3
				c2.2-5.4,6.5-10.5,9.8-12.8c7.1,0.3,14.5,1.3,20.3,2.5c18.6,3.7,47.6,15,60.1,31.8C316.6,138.7,288.9,129.9,269.5,128.5z"/>
			<g>
				<path fill="#061922" d="M363.9,328.4c1.8-3.3,3.2-5.1,1.7-6c-1.4-0.8-2.8,2.3-4.4,5.2c-5.6,9.8-11.8,17.8-25.7,30.5
					c-15.4,14-33.1,22.1-39.2,24.2c-5.2-14.7-25.2-77.4-25.7-79.2c-0.8-2.7-1.5-3.4-2.4-3.1c-1,0.4-0.4,1.8,0.1,4.2
					c0.5,2.3,24.3,76.5,25.1,79.1c-4.7,2.3-23.9,7.7-37.2,8.1c-11.9,0.4-25.9,0-33-1.6c-8.3-6.7-27.1-33.3-34.3-47.5
					c-8.4-16.7-14-32.1-15.5-38.6c-0.7-3.1-1.6-5.4-3.1-5.1c-1.7,0.3-0.7,2.8,0.3,6.1c2.5,8.6,6.7,20.7,15.5,38.1
					c9.3,18.4,25.9,39.9,30.8,45.8c-15.2-3.2-33.6-10.3-51.1-23.4c-15.1-11.3-28.1-25.6-34.6-36c-1.1-1.8-2.4-4.3-4.1-3.3
					c-0.7,0.5,0.2,2.5,1.3,4.6c9.5,17,32.6,41.1,62.2,54.3c34.5,15.4,72.1,14.6,105.8,1.6C325.7,375.1,351.3,351.6,363.9,328.4z"/>
			</g>
		</g>
		<g>
			<defs>
				<path id="SVGID_61_" d="M245.6,393c75.8,0,137.2-62.4,137.2-139.3c0-76.9-61.4-139.3-137.2-139.3
					c-75.8,0-137.2,62.4-137.2,139.3C108.4,330.6,169.8,393,245.6,393z"/>
			</defs>
			<clipPath id="SVGID_4_">
				<use xlink:href="#SVGID_61_"  overflow="visible"/>
			</clipPath>
			<g clip-path="url(#SVGID_4_)">
				<path fill="#061922" d="M353.5,163.5c-1.7-2-4.1-6.1-20.9-20.8c-24.8-21.6-57.7-31.5-88.6-31.5c-22.8,0-42.7,5.1-64.8,17.3
					c-28.1,15.5-39.8,33.3-42.7,36.9c-2.1,2.7-2.4,4.2-1,5c1,0.6,2.9-1.5,4.6-3.8c8.4-11.1,19.4-22,31-28.5
					c3.6,0.5,8.6,5.5,10.6,8.2c-7.4,4-19.7,13.4-24.3,17c-4,3.1-5.4,4.9-4.3,6.1c0.9,1.1,4-1,6.5-3.1c4.5-3.6,17.7-13,24.2-16.5
					c4.5,5.2,3,14.8,1.4,16.9c-0.8,1.1-1,2.3,0,2.9c0.9,0.5,1.9-0.8,3.2-2.7c3-4.4,1.8-15-0.8-18.8c8-4.9,19.4-8.3,26.4-9.8
					c0.6,1.1,9,25.7,10.6,30.2c0.9,2.4,1.7,5.4,3.5,4.8c1.2-0.4,0.4-3-0.6-5.7c-1.2-3.3-7.6-24-9.6-30.1c2.3-1.2,16.1-4,19.6-3.9
					c-1.7,9,4.7,12.7,11.8,17.4c3.8,2.5,28.1,16.5,33.2,19.6c2.9,1.8,5.1,2.9,5.8,2.1c0.7-1-1.3-3-3.9-4.6
					c-2.1-1.2-24.7-14.4-34.2-20.3c-6.8-4.3-10.4-8.8-8.8-14.9c2.2-0.6,9-0.7,16.1-0.6c48.2,0.4,86.8,28,91.1,32.4
					c2.2,2.2,5.2,4.2,6.4,3.3C355.8,167.2,354.5,164.6,353.5,163.5z M185.5,144.4c-1.3-2.2-7.4-7.8-10.7-8.9
					c7.7-5.7,25.7-13.9,32.5-15.4c1.2,2,4.3,10.3,5.4,13.8C206.6,135.3,190.7,141.1,185.5,144.4z M238.2,128.9
					c-6.3,0.4-17.7,2.9-21.7,4c-1-2.7-3.9-11.2-4.8-13.9c11.6-3.3,25-4.4,35.3-3.5C244.1,117.7,239.2,126.5,238.2,128.9z
					 M269.5,128.5c-10.4-0.7-19-1-26.4-0.3c2.2-5.4,6.5-10.5,9.8-12.8c7.1,0.3,14.5,1.3,20.3,2.5c18.6,3.7,47.6,15,60.1,31.8
					C316.6,138.7,288.9,129.9,269.5,128.5z"/>
				<g>
					<path fill="#061922" d="M363.9,328.4c1.8-3.3,3.2-5.1,1.7-6c-1.4-0.8-2.8,2.3-4.4,5.2c-5.6,9.8-11.8,17.8-25.7,30.5
						c-15.4,14-33.1,22.1-39.2,24.2c-5.2-14.7-25.2-77.4-25.7-79.2c-0.8-2.7-1.5-3.4-2.4-3.1c-1,0.4-0.4,1.8,0.1,4.2
						c0.5,2.3,24.3,76.5,25.1,79.1c-4.7,2.3-23.9,7.7-37.2,8.1c-11.9,0.4-25.9,0-33-1.6c-8.3-6.7-27.1-33.3-34.3-47.5
						c-8.4-16.7-14-32.1-15.5-38.6c-0.7-3.1-1.6-5.4-3.1-5.1c-1.7,0.3-0.7,2.8,0.3,6.1c2.5,8.6,6.7,20.7,15.5,38.1
						c9.3,18.4,25.9,39.9,30.8,45.8c-15.2-3.2-33.6-10.3-51.1-23.4c-15.1-11.3-28.1-25.6-34.6-36c-1.1-1.8-2.4-4.3-4.1-3.3
						c-0.7,0.5,0.2,2.5,1.3,4.6c9.5,17,32.6,41.1,62.2,54.3c34.5,15.4,72.1,14.6,105.8,1.6C325.7,375.1,351.3,351.6,363.9,328.4z"/>
				</g>
			</g>
		</g>
	</g>
</g>
</svg>
