<?xml version="1.0" encoding="utf-8"?>
<!-- Generator: Adobe Illustrator 18.0.0, SVG Export Plug-In . SVG Version: 6.00 Build 0)  -->
<!DOCTYPE svg PUBLIC "-//W3C//DTD SVG 1.1//EN" "http://www.w3.org/Graphics/SVG/1.1/DTD/svg11.dtd">
<svg version="1.1" xmlns="http://www.w3.org/2000/svg" xmlns:xlink="http://www.w3.org/1999/xlink" x="0px" y="0px" width="512px"
	 height="512px" viewBox="0 0 512 512" enable-background="new 0 0 512 512" xml:space="preserve">
<g id="white_block">
	<rect opacity="0" fill="#FFFFFF" width="512" height="512"/>
</g>
<g id="Logos">
	<g>
		<path fill="#23375B" d="M327.3,398.2h6.8v-29.9h8.8v29.9h7.6V361h-23.2 M353.8,398.2h7v-75.8h-7V398.2z M287.8,352.1v-12.8h4.6
			c2.4,0,4.3,2.3,4.3,5.1v2.5c0,2.9-1.9,5.1-4.3,5.1H287.8z M303.7,350.1v-8c0-6-4.8-9.1-9.3-9.1h-14.1v25.8h14.1
			C298.9,358.9,303.7,356.1,303.7,350.1 M316.3,334.1v64.1h7.7v-75.7h-11.8L316.3,334.1z M422.4,340.7l-3.7-0.2
			c-3.4,0-5.3-1.4-5.3-4.9v-10c0-1.8,1.2-3.4,2.8-3.4h1.1c1.5,0,2.8,1.5,2.8,3.4v7.6h8.6v-7.3c0,0,0.4-5.1-2.8-8.5
			c-2.1-2.3-5.2-3.4-9.4-3.4c-3.9,0-6.8,1-8.7,3.1c-2.7,2.8-2.4,6.9-2.4,7v0.1v0.1c0,6.8,0,14.7,0.1,15.6c0.3,1.8,1,5.7,7.1,7.4
			c1.6,0.4,3.4,0.6,5.4,0.7c6,0.5,14.1,1.1,14.1,12.6v17.1c0,0.2-0.5,12.5-15.6,12.5c-14.6,0-14.6-11-14.6-15.8v-8.2H393v12
			c0,14.3,10.9,19.7,20.9,19.7h5.1c12.6,0,21.7-7.7,21.7-20.2v-18.7C440.7,345.5,431.6,340.7,422.4,340.7 M295.5,323.1h-29.3l4,11.2
			v63.5h6.7v-68h17.4c6.3,0,12.6,4.4,12.6,12.4v8c0,8-6.4,12.1-12.6,12.1h-14.1v35.6h7.6v-29.5l9.4-0.2c10.5,0,16.1-9.2,16.1-17.9
			l0.2-11.1C313.4,328.6,304.2,323.1,295.5,323.1 M414.3,358.5c7,0,5.9,4.4,5.9,9v7.8c0,1.8-1.2,3.4-2.8,3.4h-1.1
			c-1.6,0-2.8-1.5-2.8-3.4v-9.2H405v8.2c0,4.9,0,12.5,11.4,12.5c11.8,0,12.3-8.9,12.3-9.2v-17.1c0-8.1-4.2-8.8-11.1-9.3
			c-2.1-0.2-4.2-0.3-6.1-0.9c-8.1-2.2-9.1-7.8-9.5-9.9c-0.2-1.4-0.2-12.5-0.1-16c0-0.4-0.3-5.6,3.3-9.5c2.5-2.7,6.2-4.1,11.1-4.1
			c5.1,0,9.1,1.5,11.8,4.5c3.3,3.6,3.7,8.3,3.7,10.2l0,0.7v7.1h8.7v-12.1c0-11.5-9.2-19.1-21.3-19.1h-3.9
			c-11.8,0-22.6,6.3-22.6,19.4V339C392.8,351.9,404.8,358.5,414.3,358.5 M368.6,334.9l0,62.9h8.1v-75.1h-12.6L368.6,334.9z
			 M380,397.8h8.1v-75.1H380V397.8z M126,302.4H71.3l4.6,12.4v82.4h8v-87.1l41,0.1c6.8,0,12.8,5,12.8,14.7v72.3h7.3l-0.1-77.4
			C144.8,308.8,135.5,302.4,126,302.4 M87.1,397.2h7.8v-75.4h6.3v75.4h8.1v-83.7c-9.6,0-20.5,0-22.2,0V397.2z M170.8,369.7h14.6v-8
			h-21.5v24.5c2.7,0,24.9-0.1,29.7-0.1V379h-22.7V369.7z M342.9,352.1h-8.8v-29.5h-6.8v35.2h23.2v-35.3h-7.6V352.1z M246.5,323
			h-49.7l4.2,11.3v63.3h7v-67.8l37.4,0.1c6.2,0,11.6,4.6,11.6,13.5v54.2h6.6l-0.1-58.8C263.5,328.9,255,323,246.5,323 M163.8,358.4
			h21.5v-7.6h-14.6v-8.9h22.7v-7.6h-29.7V358.4z M124.8,313.5c0,0-5.5,0-12.2-0.1v83.7h7.7v-75.4l2.7-0.1c1.6,0,2.8,1.7,2.8,3.7
			l0,71.8h8.5v-72.3C134.3,317.4,129.9,313.5,124.8,313.5 M211.3,397.6h6.9v-57h5.8v57h7.1v-64.3c-8.6,0-18.2-0.1-19.8-0.1V397.6z
			 M245.3,333.3h-11v64.3h6.8v-57l2.5-0.1c1.4,0,2.6,1.6,2.6,3.4l0,53.7h7.3v-54.2C253.6,336.5,249.7,333.3,245.3,333.3
			 M152.5,333.3v64h41v-7.9l-33,0V331h33v-8.3l-44.9,0L152.5,333.3z"/>
		<path fill="#6189B9" d="M324,398.2v-75.7h3.3v35.2h23.2v-35.3h3.3v75.8h-3.3V361h-23.2v37.2 M303.7,350.1v-8c0-6-4.8-9-9.3-9
			h-14.1v25.8h14.1C298.9,358.9,303.7,356.1,303.7,350.1 M405,366.2v8.2c0,4.9,0,12.5,11.4,12.5c11.8,0,12.3-8.9,12.3-9.2v-17.1
			c0-8.1-4.2-8.8-11.1-9.3c-2.1-0.2-4.2-0.3-6.1-0.9c-8.1-2.2-9.1-7.8-9.5-9.9c-0.2-1.4-0.2-12.5-0.1-16.1c0-0.4-0.3-5.6,3.3-9.4
			c2.5-2.7,6.2-4.1,11.1-4.1c5.1,0,9.1,1.5,11.8,4.5c3.3,3.6,3.7,8.3,3.7,10.2l0,0.7v7.1h-3.2v-7.3c0,0,0.4-5.1-2.8-8.5
			c-2.1-2.3-5.2-3.4-9.4-3.4c-3.9,0-6.8,1-8.7,3.1c-2.7,2.8-2.4,6.9-2.4,7v0.1v0.1c0,6.8,0,14.7,0.1,15.6c0.3,1.8,1,5.7,7.1,7.4
			c1.6,0.4,3.4,0.6,5.4,0.7c6,0.5,14.1,1.1,14.1,12.6v17.1c0,0.2-0.5,12.5-15.6,12.5c-14.6,0-14.6-11-14.6-15.8v-8.2H405z
			 M277,397.8v-68h17.4c6.3,0,12.6,4.4,12.6,12.3v8c0,8-6.4,12.1-12.6,12.1h-14.1v35.6H277z M376.7,322.7h3.3v75.1h-3.3V322.7z
			 M83.8,397.2v-87.1l41,0.1c6.8,0,12.8,5,12.8,14.7v72.3h-3.3v-72.3c0-7.4-4.4-11.4-9.5-11.4c0,0-5.5,0-12.2-0.1v83.7h-3.3v-83.7
			c-9.6,0-20.5,0-22.2,0v83.8H83.8z M193.5,334.3h-29.7v24.1h21.5v3.3h-21.5v24.5c2.7,0,24.9-0.1,29.7-0.1v3.3l-33,0V331h33V334.3z
			 M208,397.6v-67.8l37.4,0.1c6.2,0,11.6,4.6,11.6,13.5v54.2h-3.3v-54.2c0-7-3.8-10.2-8.2-10.2h-11v64.3h-3.3v-64.4
			c-8.6,0-18.2,0-19.8,0v64.5H208z"/>
		<path fill="#23375B" d="M387.6,94.4c-1.2-1.8-2.4-3.5-3.6-5.2c29.9-49-40.6-86.6-66.2-45c-31.5-5.8-57.7,5.7-61.3,7.3
			c-3.6-1.6-29.5-13-60.7-7.4c-30.8-43.4-94.5,1.4-66.5,44.6c-1.3,1.8-2.6,3.7-4,5.7c-39.9,60.7-10,101.8-10,101.8l6.2-6.1
			c0,0,8.7,42.3,54.8,70.1l1.7-9.2c28.4,30.3,54.6,29.6,79.2,57.3c22.6-26.2,55.5-26.2,81.1-59v11.6c47.3-23,51.7-72.8,51.7-72.8
			l4.3,8.1C394.3,196.4,427.5,155.1,387.6,94.4"/>
		<path fill="#FDB927" d="M287.3,137.4c2.2-0.8,6.1,1.5,8.2,5.6c9.6-2.7,9-15.7,9-16.6C296.9,129.3,290.6,134.4,287.3,137.4"/>
		<path fill="#6189B9" d="M292.9,145.1c23.3,62.6-6.3,102.8-6.3,102.8c18.2-47.8,6.5-87.5-1.5-102.3c-4.1,0.4-9,0.2-9,0.2
			s6.2-3.8,10.2-7.4l1.1-1h0c2.2-0.8,6.1,1.5,8.2,5.6c9.6-2.7,9-15.7,9-16.6c2.8-1.1,5.8-1.9,8.8-2.2
			C313.3,124.2,311.1,144.8,292.9,145.1 M304.5,126.4L304.5,126.4l-0.3,0.1L304.5,126.4z M149.5,84.3c-0.8-7.9,9.1-15.7,9.1-15.7
			c-4.1-4.2-11.3-0.5-11.3-0.5c6.5-12.7,21.1-6.5,21.1-6.5c-5.5-6.8-17.3-6.4-17.3-6.4c14.5-14.3,32,7.6,32,7.6
			C167.6,66.2,149.5,84.3,149.5,84.3 M329.6,64.3c0,0,9.5-23.6,38.4-17.9c0,0-26.6-17.6-45.1,14.2c0,0-26.3-12.5-65.8,4.6
			c0,0-37.5-13-65.8-5.7c0,0-16.5-28.6-39.8-16.8c-23.2,11.8-11.1,39-7,46.1c0,0-38.5,39.2-24,87.7l7.7-9.6c0,0,11.1,52.8,39.6,69.4
			l1.8-13c0,0,29.8,35.9,64.8,51.2c3.3,1.6,21.9,10.8,22.5,15.3v-25.1c0,0-24.3,2-30.8-9.2c-4.4-7.6-32.3-57.5-18.5-109.6
			c0,0-13.4-2-16-24.7c0,0-10-4.9-22.5-3.9c0,0,22.3-7,43.1,1.1c20.9,8.1,26.4,28.7,40.6,19.6l4.2-57.9l4,57.9
			c14.1,9.1,19.7-11.5,40.6-19.6c20.9-8.1,43.1-1.1,43.1-1.1s-8.9-6.3-23.2-9.1c-12-2.4-29.5,5.3-29.5,5.3s2.4-16.4,10.4-25.2
			C309.3,80.7,324.8,79.1,329.6,64.3 M256.9,199.9c2.7-0.4,44.7-2,18.9,24.2C293.8,200.3,261.2,200.2,256.9,199.9"/>
		<path fill="#FDB927" d="M210.5,126.4c0,1-0.5,13.9,9,16.6c2-4,5.7-6.3,8-5.6C222.4,133.4,215.9,128.9,210.5,126.4"/>
		<path fill="#BCD1E4" d="M256.8,231.5v12l-8.1,0.4c-8.5,0.3-19.6,3.7-19.6,3.7c-20.6-50.9-9.2-89.5-3.6-103.3
			c-20.4,4.5-23.7-20-23.7-20c2.1-0.4,5.2,0.4,8.7,2.2c0,1-0.5,13.9,9,16.6c2-4,5.7-6.3,7.9-5.6c1.5,1.2,3,2.3,4.2,3.4
			c13.9,11.7,24.7,9.3,24.7,9.3s0.1,44.4,0.1,49.9c0,0-40.1-3.2-18.6,24.2c0,0,3.5-10,7.2-6.8C250.1,221.6,256.8,230.6,256.8,231.5
			 M210.5,126.4L210.5,126.4L210.5,126.4z M256.8,258.7c-29.3,0-25.4-6.5-25.4-6.5c3.2-2,23.7-2.4,25.3-2.4c1.6,0,22.3,0.4,25.4,2.4
			C282.2,252.2,286.1,258.7,256.8,258.7"/>
		<path fill="#6189B9" d="M170.4,431.6l-15.6-5.7l0,6.6l-11.9,32.8l9.3,3.4l5.6-15.2l2.9,1c0.8,0.3,1.1,1.4,0.7,2.4l-4.9,13.4
			l9.2,3.3l5-13.8c0.8-2.1,0.5-4.1-0.7-5.6c0,0,3.1-0.5,4.8-5.1l2.2-5.6C178.8,438,175,433.3,170.4,431.6 M167,442.9l-0.5,1.3
			c-0.5,1.5-1.9,2.3-3.2,1.8l-2.6-1l2.4-6.6l2.6,1C167,439.9,167.5,441.4,167,442.9"/>
		<path fill="#6189B9" d="M361.7,435.8l-3.3-9.3l-23.1,8.1l3.9,4.8l11.6,33.2c1.9-0.6,21.2-7.4,21.2-7.4l-3.3-9.1l-11.7,4
			c-0.3-1-1.9-5.5-1.9-5.5l7.5-2.6l-3.2-9.4l-7.5,2.6l-1.8-5.3"/>
		<polyline fill="#6189B9" points="296.9,474.2 293.9,442.8 281.5,444 284.6,450.2 287.9,484.4 312.1,482.1 311.2,472.9 		"/>
		<polyline fill="#6189B9" points="189.2,444 188.3,437 200.2,439.5 191.8,479.7 182.2,477.7 		"/>
		<polyline fill="#6189B9" points="317.2,445.7 313.6,439.7 325.5,437.2 334.1,477.2 324.4,479.2 		"/>
		<polyline fill="#6189B9" points="236.2,444.3 211.6,441.8 210.5,453.1 217.4,451.4 221.4,451.8 207.3,482.5 231.9,484.9 
			232.7,475.7 222.2,474.5 		"/>
		<polyline fill="#6189B9" points="270.3,444.9 245.5,444.7 245.6,456.2 252.3,453.8 256.3,453.8 245.3,485.7 270,485.7 270,476.4 
			259.3,476.3 		"/>
		<path fill="#6189B9" d="M392.2,439.9l1.9,3c0.5,0.7,0.4,1.5-0.2,1.9l-1.3,0.8c-0.5,0.4-1.4,0.2-1.9-0.6l-2.3-3.4l-7.7,5.1l3,4.5
			c3.6,5.4,9,4.7,12.7,2.2l2.7-1.8c4.7-3.1,6.2-8.3,3.1-12.9l-4.6-7c-3.4-5.1-8-4.6-11.4-2.3l-2.2,1.4c-1.3,0.9-2.4,0.8-3.2-0.5
			l-2.5-3.8c-0.4-0.7-0.4-1.5,0.2-1.9l1.2-0.8c0.6-0.4,1.4-0.2,1.9,0.5l1.9,2.8l7.7-5.1l-3-4.5c-2.8-4.2-8.1-4.8-12.6-1.8l-2.3,1.5
			c-4.4,2.9-6.9,7.9-3.6,12.8l4.3,6.5c3.2,4.8,9.3,4.3,12.9,2C390.2,436.4,391.1,438.2,392.2,439.9"/>
		<path fill="#6189B9" d="M129.9,451.2c-3.3,4.9-9.3,5.2-13.2,2.5l-4.2-2.8c-4-2.7-6-8.3-2.6-13.2l13.5-20.1c3.3-5,9.2-5.2,13.2-2.6
			l4.1,2.8c4,2.7,6,8.2,2.7,13.2l-2.7,4.1l-8.2-5.5l1.7-2.4c0.7-1,0.6-2.1-0.1-2.5l-1.3-0.9c-0.7-0.4-1.8,0-2.4,0.9
			c0,0-0.6,1-1.7,2.5c-1.8,2.7-9.8,14.7-9.8,14.7c-0.6,0.9-0.6,2,0,2.5l1.3,0.9c0.7,0.5,1.7,0.1,2.3-0.9l3-4.4l-1.4-1l3.8-5.7
			l9.6,6.4"/>
	</g>
</g>
</svg>
