<?xml version="1.0" encoding="utf-8"?>
<!-- Generator: Adobe Illustrator 18.0.0, SVG Export Plug-In . SVG Version: 6.00 Build 0)  -->
<!DOCTYPE svg PUBLIC "-//W3C//DTD SVG 1.1//EN" "http://www.w3.org/Graphics/SVG/1.1/DTD/svg11.dtd">
<svg version="1.1" xmlns="http://www.w3.org/2000/svg" xmlns:xlink="http://www.w3.org/1999/xlink" x="0px" y="0px" width="512px"
	 height="512px" viewBox="0 0 512 512" enable-background="new 0 0 512 512" xml:space="preserve">
<g id="white_block">
	<rect opacity="0" fill="#FFFFFF" width="512" height="512"/>
</g>
<g id="Logos">
	<g>
		<path d="M419.1,132.8c-12.7-14.1-40.9-25.5-77.1-32.4c0.2-4.1,2.7-5.9,7.2-9c2.3-1.6,5-3.5,7.7-6c11.7-11.1-2-28.1-2.6-28.8
			l-7.6-9.2l1.8,11.8c1.3,8.1-1.7,11-10.5,17.1c-1.1,0.8-2.1,1.7-2.9,2.6c0.4-5.4,0.6-11.4-1.2-18.9c-1.8-7.5-5.5-10.6-5.5-10.6
			l-1,10.9c0,0.1-0.8,8.5-12.1,18.8c1-1.1,1.9-2.2,2.7-3.4c5.5-8,3.9-17.2,2.1-27.8l-0.4-2.2c-1.9-11.1,1.1-18,3-19.1
			c1.9-2.3,5.5-6,5.5-6s-2-0.9-7.4-0.2c-7.1,1-19,5.2-18.6,14.9c0.2,4.3,1.5,8.3,2.7,11.9c1.3,3.8,2.5,7.4,1.4,9.3
			c-0.9,1.5-3.5,2.6-7.6,3.4c-16.6,3.1-29.4,10.8-35.9,21.9c-2.2,3.7-3.6,7.6-4.3,11.7c-41.3,0.1-80.4,5.3-110.7,14.6
			c-34,10.5-52.7,24.9-54.2,41.4c-0.8,8.7,3.2,21.3,25,33.4l-0.2,0.1l6.2,3h0l3.3,1.6l0,0c10.1,4.5,21.9,8.4,35,11.5
			c-4.7,2.7-9,5.7-12.9,9.1c-21.1,17.3-33.3,43.1-33.3,70.5c0,24.4,9.5,47.3,26.8,64.6c17.2,17.3,40.2,26.7,64.6,26.7
			c43.2,0,80.7-30.6,89.4-72.8c7.4-22,6.5-45.7,6.2-54.6c-0.7-20.3,9.2-31.5,15.6-36.5c28.8-3.7,54.4-10,73.4-18.5l0,0l3.1-1.4l0,0
			l6.6-3.1l-0.2-0.2C417.5,174,426,164,427,153.3C427.6,146.1,425,139.2,419.1,132.8 M389.5,150.5c2.6,2.9,2.4,4.7,2.4,5.3
			c-0.3,3.3-4.4,7.3-11.3,10.9h0c-14.5,7.6-39.5,13.4-69.2,16.4c1.3-0.8,2.7-1.6,4.3-2.2l0.5-0.2c8.5-3.5,18.2-7.4,18.7-21.5
			c0.1-2.3,0.2-9.1,1.4-11.6c1.6-3.2,5.7-8.1,9.3-9.4l-6-1.2l-0.9,0c2-1.5,3.5-3.3,4.5-5.1C367.2,136.9,383.4,143.8,389.5,150.5
			 M128.8,154c1-11.6,43-27,110.9-29.4c-6.3,4.7-13.7,13-15.6,26.2l-0.7,5c-0.4,3.1-1,6.2-2.2,9.4c-2.6,6.8-10,12.5-17.9,16.8
			c-27.3-3.5-50.1-9.2-63.5-16.4h0C132.5,161.6,128.5,157.4,128.8,154"/>
		<polygon points="176,432.2 187.6,384.6 168.4,384.6 156.7,432.2 		"/>
		<polygon points="218.1,396.3 219.3,415.7 209.2,415.7 219.4,432.2 237,432.2 234.2,384.6 205.3,384.6 181.7,432.2 200.2,432.2 
			218,396.3 		"/>
		<polygon points="173.4,475.9 169.5,492.2 187.6,492.2 199.3,444.6 181.2,444.6 176.8,463 163.2,463.1 167.6,444.6 149.6,444.6 
			137.9,492.2 155.9,492.2 159.9,475.9 		"/>
		<polygon points="216.6,481.5 217.9,475 240.3,475 243.2,464.5 220.7,464.5 222.1,457.5 244.6,457.5 248.1,444.6 207.3,444.6 
			195.5,492.2 236,492.2 238.9,481.5 		"/>
		<polygon points="332.8,432.2 344.4,384.6 325.1,384.6 313.4,432.2 		"/>
		<path d="M364.7,421.4c2.5,3.6,5.3,10.5-6.6,15.9c-13.8,6.3,0.1,22.2-18.9,22.2h-7.8l-7.8,32.7h-19.3l7.9-32.7l-13,0l4.1-14.9h33.4
			c19.8,0,5.9-13.8,16-15.6C359.6,427.7,363.9,426.5,364.7,421.4"/>
		<polygon points="123.5,409.2 120.4,384.6 96.6,384.6 84.9,432.2 102.5,432.2 109,407.4 109.1,407.4 112.6,432.2 122.9,432.2 
			137.3,407.4 137.4,407.4 131.7,432.2 148.3,432.2 160,384.6 137.1,384.6 123.6,409.2 		"/>
		<polygon points="280.5,409.2 277.4,384.6 253.6,384.6 241.9,432.2 259.5,432.2 266,407.4 266.1,407.4 269.6,432.2 279.9,432.2 
			294.3,407.4 294.4,407.4 288.8,432.2 305.3,432.2 317.1,384.6 294.1,384.6 280.6,409.2 		"/>
		<polygon points="277.6,456.3 278.7,475.8 268.7,475.8 278.9,492.2 296.4,492.2 293.7,444.6 264.7,444.6 241.1,492.2 259.7,492.2 
			277.5,456.3 		"/>
		<path fill="#98002E" d="M120.3,284.9c2.4,12,9.3,26.4,22.9,36c4.1,2.9,8.6,5.3,13.4,7.1c-2.9-5-6.4-10.1-9.9-15.3
			c-6.5-9.6-13.3-19.6-17.6-30.3c-4.4-11.1-5.6-22.7-3.7-34.3c-3.5,9.5-5.4,19.7-5.4,30.4C120,280.6,120.1,282.7,120.3,284.9"/>
		<path fill="#98002E" d="M135,280c4,10.1,10.6,19.8,16.9,29.1c4.9,7.2,9.7,14.3,13.3,21.4c4,0.9,8.2,1.6,12.4,1.8
			c-4.4-6.3-8.2-13.4-11.4-21.5c-12.7-31.5-10.9-70.4,4.9-93c8.1-11.6,17.8-19.5,30.3-26.4c10.8-5.9,17.5-7.6,24.3-11.7
			c7.4-4.4,11.4-11.9,6.5-28.5c-1.4-4.9-1.7-8.7-1.4-11.7c-1.7,3.3-3,7.1-3.6,11.6l0-0.1c-0.8,4.7-1.1,9.9-3.1,15.2
			c-6.6,17.2-38.4,26.8-42.6,28c-12.1,3.7-21.8,9.2-29.3,16C130.4,229.7,126.6,258.8,135,280"/>
		<path fill="#98002E" d="M267.9,124.3c0.3,1.1,0.6,2.1,0.7,3.1c0.8,6-1,10.9-8.4,12.1c-7.6,1.2-10.2-5.4-10.8-10.8
			c-0.1-1.9,0.1-3.3,0.2-4.4c-1.3,0-2.5,0-3.8,0.1c-2.4,1.4-5.6,3.5-8.7,6.7c-1.5,3.3-3.3,7.8-0.5,18.4c5,18.6,2.9,29.9-12.1,36.3
			c-19.1,8.2-31.3,13-47.6,33.6c-7.8,9.8-12,26-12.7,42.3c-0.7,15.9,2.6,32.8,8.2,46.6c3.7,9.3,8.1,17.4,13.2,24.2
			c5.1-0.2,10.3-0.9,15.4-2c-5.7-6.7-9-14.8-9.5-23.9c-2-30.2,14.3-42.9,39.4-63l11.2-9.4c44.7-38,31.7-76.6,36.6-109.6
			C275.1,124.5,271.6,124.4,267.9,124.3"/>
		<path fill="#98002E" d="M285.8,124.9c-1.4,6.6-2,13.5-2.4,20.6c-1.8,28.7-0.9,61.2-37.3,93.6l-11,8.9
			c-24.3,19.5-38.3,31.7-37.3,58.2c0.3,8.7,4,16.4,10.2,22.4c6.8-2,13.5-4.9,20-8.6c31.6-18,51.5-44.8,59.1-79.2
			c4.8-21.8,4.7-39.5,4.6-53.7c0-7.2,0.9-21.3,0.9-21.3c1-8.9,2.5-21.4,12.8-37.8c0.3-0.5,0.7-1.1,1-1.6
			C299.9,125.8,293,125.3,285.8,124.9"/>
		<path fill="#98002E" d="M296.4,217.3l0-0.1L296.4,217.3c-1,5.2-1.2,11-1.9,16.8c-0.3,2.2-0.6,4.3-0.9,6.4
			c-0.1,0.6-0.2,1.2-0.4,1.8c-8,36.2-28.7,64.4-61.9,83.3c-5.7,3.2-11.5,5.9-17.3,8c9.7,6.5,21.1,8.5,28.9,7.3
			c29.9-4.5,44.4-24,51.4-44.8c7.2-21.4,6.4-44.2,6.1-53.7c-1.1-31.5,23.3-43.2,23.3-43.2C304.8,198.2,298.5,206.4,296.4,217.3"/>
		<path fill="#98002E" d="M276.5,333.7c-12.2,10.2-25.4,12.4-31.3,13.4c-11.7,1.8-25.7-1-38-10.7l-0.6-0.5
			c-5.3,1.4-10.6,2.3-15.8,2.8c12,12.9,27.9,20.3,49.2,21.7l0.3,0h0c14.5-5.7,27.1-15.1,36.6-27L276.5,333.7z"/>
		<path fill="#98002E" d="M165.4,355.4c0.2-6.6-1.6-13.2-4.7-19.7c-7.3-2.1-14.5-5.2-21.3-9.4c-3.9-2.4-7.4-5.9-10.5-9.3l0,0
			C136.8,333.2,149.6,346.6,165.4,355.4"/>
		<path fill="#98002E" d="M226.3,364.5c-11.9-2.7-22.1-6.9-31-13.7c-4.5-3.5-8.7-7.4-12.5-11.8c-4.8-0.1-9.6-0.5-14.3-1.4
			c2.6,6.8,4,13.7,3.1,21l0,0c11.1,5.1,23.5,7.9,36.6,7.9c6.3,0,12.4-0.7,18.3-1.9L226.3,364.5z"/>
		<path fill="#98002E" d="M328.6,148.2c-2,6.9-8.8,6.1-10.8,2.3c-3.1-5.8-1.9-10.4,1.3-13.5c3.2-3.1,8.5-4.7,13.7-7l0.1,0
			c-5.9-1-12.3-1.9-18.9-2.7l-0.3,0.3c-0.6,0.7-1.2,1.3-1.7,2.1c-10.6,15.9-11.9,27.8-13,36.9l-0.3,2.8c-0.6,4.8-0.6,10.8-0.5,17.8
			c0,1,0,2,0,3c-0.1,2.5-0.2,4.8-0.3,7.2l0.2,0c0.1-1,0.1-1.3,0.1-0.8c3-9.6,8.5-15.4,16.3-18.6c8.4-3.4,16.7-6.5,17.1-18.8
			c0.2-5.1,0.5-10.2,1.7-12.8c2.1-4.7,5.9-6,5.9-6C335.1,139.9,330.6,141.6,328.6,148.2"/>
		<path fill="#F9A01B" d="M338.8,99.8c0.6-8.2,8.4-9.7,15.9-16.8c9.6-9.1-2.9-24.4-2.9-24.4c1.6,10.3-3.2,14.2-11.8,20.2
			c-2.8,2-4.8,4.6-5,8c-0.3,3.8-0.5,7.9-1.4,12.1C335.3,99.2,337,99.5,338.8,99.8"/>
		<path fill="none" stroke="#F9A01B" stroke-width="0.135" d="M338.8,99.8c0.6-8.2,8.4-9.7,15.9-16.8c9.6-9.1-2.9-24.4-2.9-24.4
			c1.6,10.3-3.2,14.2-11.8,20.2c-2.8,2-4.8,4.6-5,8c-0.3,3.8-0.5,7.9-1.4,12.1C335.3,99.2,337,99.5,338.8,99.8z"/>
		<path fill="#F9A01B" d="M312.3,85.5c-2.3,1.7-4.5,3.5-6.5,5.3c-1.4,1.4-2.9,2.8-4.1,4.1c8.4,0.7,16.7,1.7,24.6,2.8
			c5.1-9.2,7.5-19.7,4.5-37.5C330.7,60.3,330,72.3,312.3,85.5"/>
		<path fill="none" stroke="#F9A01B" stroke-width="0.135" d="M312.3,85.5c-2.3,1.7-4.5,3.5-6.5,5.3c-1.4,1.4-2.9,2.8-4.1,4.1
			c8.4,0.7,16.7,1.7,24.6,2.8c5.1-9.2,7.5-19.7,4.5-37.5C330.7,60.3,330,72.3,312.3,85.5z"/>
		<path fill="#F9A01B" d="M265,93.1c9.7,0.1,19.2,0.5,28.4,1.1l0.9-0.9c6.2-6.7,15.8-12.3,20.9-19.8c5.1-7.5,3.1-16.6,1.2-27.6
			c-3.3-19.1,4.8-22.6,4.8-22.6s-16.1,2.2-15.8,11.5c0.4,12.5,13.3,24.3-6.1,27.8c-21.3,3.9-34.6,15.4-37.5,30.5
			C262.9,93.1,264,93.1,265,93.1"/>
		<path fill="none" stroke="#F9A01B" stroke-width="0.135" d="M265,93.1c9.7,0.1,19.2,0.5,28.4,1.1l0.9-0.9
			c6.2-6.7,15.8-12.3,20.9-19.8c5.1-7.5,3.1-16.6,1.2-27.6c-3.3-19.1,4.8-22.6,4.8-22.6s-16.1,2.2-15.8,11.5
			c0.4,12.5,13.3,24.3-6.1,27.8c-21.3,3.9-34.6,15.4-37.5,30.5C262.9,93.1,264,93.1,265,93.1z"/>
		<path fill="#FFFFFF" d="M265,98.2c-89.3-0.9-163.8,22.2-166.4,51.5c-1,11.7,9.5,22.6,28.2,31.5c11.5,5.5,26.2,10.4,43.2,14.1
			c3.4-1.5,7-2.8,10.7-4c3-0.9,8.4-2.7,14.4-5.3c-25-3.7-45.2-9.3-57.7-16c-9.2-5-14.1-10.6-13.6-16.4c1.7-19.7,64.3-35,139.7-34.3
			c75.4,0.8,135.1,17.3,133.4,37c-0.5,5.4-5.5,10.4-14,14.9c-15.7,8.3-43.6,14.6-77.4,17.6c-1.1,1.6-2.2,3.4-3,5.4
			c15.4-5.8,33.1,2.8,33.1,2.8s1.2,0.5,2,1c22.4-4,41.7-9.7,56.1-16.6c17.1-8.1,27.4-17.9,28.4-28.5C424.6,123.5,354.3,99,265,98.2"
			/>
	</g>
</g>
</svg>
