<?xml version="1.0" encoding="utf-8"?>
<!-- Generator: Adobe Illustrator 18.0.0, SVG Export Plug-In . SVG Version: 6.00 Build 0)  -->
<!DOCTYPE svg PUBLIC "-//W3C//DTD SVG 1.1//EN" "http://www.w3.org/Graphics/SVG/1.1/DTD/svg11.dtd">
<svg version="1.1" xmlns="http://www.w3.org/2000/svg" xmlns:xlink="http://www.w3.org/1999/xlink" x="0px" y="0px" width="512px"
	 height="512px" viewBox="0 0 512 512" enable-background="new 0 0 512 512" xml:space="preserve">
<g id="white_block">
	<rect opacity="0" fill="#FFFFFF" width="512" height="512"/>
</g>
<g id="Logos">
	<g>
		<path fill="#EEE1C6" d="M256,467.7c-94.2,0-170.9-76.7-170.9-170.9c0-46.1,18.1-89.3,51-121.7c0.3-0.3,0.5-0.5,0.8-0.7
			c-11.4-17.1-17.7-37.1-12.9-61.3c8.9-44.6,45-58.1,46.5-58.6c0.6-0.2,1.2-0.3,1.8-0.3c1.9,0,3.7,1,4.7,2.8
			c0.6,1.1,0.7,2.3,0.5,3.5c11.8-9.9,23-14.3,27.8-15.8c0.5-0.2,1.1-0.3,1.6-0.3c2,0,3.9,1.2,4.8,3.1c1.1,2.4,0.2,5.3-2.1,6.7
			c-10.8,6.5-20.1,15.3-27.2,25.5c8.5-2,14.2-2.2,16.2-2.2c0.7,0,1.1,0,1.1,0c2.6,0.2,4.7,2.2,4.9,4.8c0.2,2.6-1.5,5-4,5.6
			c-0.1,0-14.3,3.6-29.8,14.8c-2.9,9-4.4,18.3-4.4,27.9c0,18.1,5.8,36.6,15.9,50.9c2.3,3.3,4.6,6.2,7,8.8
			c-0.9-18.6,4.6-47.4,38-60.9c0.6-0.3,1.3-0.4,2-0.4c1.9,0,3.8,1.1,4.7,2.9c1.2,2.5,0.4,5.4-2,6.9l-0.2,0.2
			c-5.1,3.3-9.3,7.5-12.6,12.4c3.5-1.1,6.5-1.4,8.6-1.7l0.4,0c0.2,0,0.4,0,0.6,0c2.2,0,4.2,1.4,5,3.5c0.8,2.3-0.1,4.9-2.2,6.2
			c0,0-0.3,0.2-0.4,0.2c-10.7,6.2-16.7,13.4-17.7,21.4c-1.1,8.7,3.6,16.8,7.1,21.5c9-10.4,14.8-28.2,16.4-34.9c0.6-2.4,2.7-4,5.1-4
			c0.2,0,0.4,0,0.6,0c2.6,0.3,4.6,2.5,4.7,5.2c0.1,21.9-5.7,36.9-11.7,46.5c9,4.5,17.7,4.8,19.6,4.8c0.2,0,0.5,0,0.6,0
			c0.1,0,0.1,0,0.2,0c0,0,0.2,0,0.4,0c1.9,0,10.7-0.3,19.6-4.8c-6-9.6-11.9-24.6-11.7-46.5c0-2.7,2-4.9,4.7-5.2c0.2,0,0.4,0,0.6,0
			c2.4,0,4.5,1.6,5.1,4c1.6,6.7,7.5,24.4,16.4,34.9c3.5-4.7,8.2-12.8,7.1-21.5c-1-8-7-15.2-17.7-21.4c-0.1,0-0.3-0.2-0.3-0.2
			c-2.1-1.3-3-3.9-2.2-6.3c0.8-2.1,2.7-3.5,4.9-3.5c0.2,0,0.4,0,0.6,0l0.4,0c2.1,0.2,5.1,0.6,8.6,1.7c-3.3-4.9-7.6-9.1-12.6-12.4
			l-0.2-0.2c-2.3-1.4-3.2-4.4-2-6.9c0.9-1.8,2.8-2.9,4.7-2.9c0.7,0,1.3,0.1,2,0.4c33.4,13.4,38.9,42.2,38,60.9
			c2.4-2.6,4.7-5.5,7-8.8c10.1-14.3,15.9-32.8,15.9-50.9c0-9.5-1.5-18.9-4.4-27.9c-15.7-11.3-29.7-14.8-29.8-14.8
			c-2.5-0.6-4.2-3-4-5.6c0.2-2.6,2.3-4.6,4.9-4.8c0,0,0.4,0,1.1,0c2,0,7.7,0.2,16.2,2.2c-7.1-10.2-16.5-19-27.2-25.5
			c-2.3-1.4-3.2-4.3-2.1-6.7c0.9-1.9,2.8-3.1,4.8-3.1c0.5,0,1.1,0.1,1.6,0.3c4.7,1.5,16,5.9,27.8,15.8c-0.2-1.2-0.1-2.4,0.5-3.5
			c0.9-1.8,2.8-2.8,4.7-2.8c0.6,0,1.2,0.1,1.8,0.3c1.5,0.6,37.6,14,46.5,58.6c4.8,24.2-1.5,44.2-12.9,61.3c0.3,0.2,0.6,0.4,0.8,0.7
			c32.9,32.4,51,75.6,51,121.7C426.9,391,350.2,467.7,256,467.7"/>
		<path fill="#00471B" d="M372.1,178.8l-3.7,4.4c29.2,29,47.3,69.1,47.3,113.5c0,88.2-71.5,159.8-159.8,159.8
			c-88.2,0-159.8-71.5-159.8-159.8c0-44.4,18.1-84.6,47.3-113.5l-3.7-4.4c-30.5,30.1-49.5,71.8-49.5,117.9
			c0,91.3,74.3,165.6,165.6,165.6c91.3,0,165.6-74.3,165.6-165.6C421.6,250.7,402.6,208.9,372.1,178.8 M151.9,191.2
			c-26.8,26.8-44.1,64.8-44.1,105.6c0,9.4,0.9,18.7,2.6,27.6l44.7-12.1c7.4,48.7,49.5,86.2,100.3,86.2c50.9,0,93.2-37.7,100.4-86.7
			l45.8,12.6c1.7-9,2.6-18.2,2.6-27.6c0-40.8-17-78.3-43.8-105.1l3.9-4.2C392.6,215.4,410,254,410,296.8c0,84.9-69.1,154-154,154
			c-84.9,0-154-69.1-154-154c0-42.8,17.6-81.6,45.9-109.5L151.9,191.2z M129.3,114.1c8.4-42.2,43.1-54.7,43.1-54.7
			c-12.7,9.4-25.7,27-31,51.8c5.2-6.5,10.1-11.3,15.7-15.2c14.1-30.3,38.1-42.6,49.9-46.4c-15.3,9.2-28.1,23-35.8,38.8
			c17.7-6.3,28.3-5.7,28.3-5.7s-15.8,3.8-33.1,16.6c-3.4,9.8-5.2,20.2-5.2,31.1c0,19.2,6.2,38.9,16.8,53.9c6,8.5,11.8,14.4,19,19.7
			c-2.4-6-11.5-52.3,32.3-69.9l-0.3,0.2c-10.3,6.7-18,17.1-21.1,29.4c8-7.7,16.4-8.5,20.9-9c-0.1,0-0.1,0.1-0.2,0.1
			c-40.7,23.4-8.3,55.2-8.3,55.2c12.8-10.7,20.3-34.8,21.9-41.4c0.2,25.4-8.3,40.6-14,48.1c13.1,9,27.8,8.4,27.8,8.4h0h0
			c0,0,14.7,0.6,27.8-8.4c-5.7-7.4-14.2-22.7-14-48.1c1.6,6.6,9.1,30.6,21.9,41.4c0,0,32.3-31.8-8.3-55.2c-0.1,0-0.1-0.1-0.2-0.1
			c4.4,0.5,12.9,1.3,20.9,9c-3.1-12.3-10.7-22.7-21.1-29.4l-0.3-0.2c43.8,17.6,34.7,63.9,32.3,69.9c7.2-5.3,13-11.2,19-19.7
			c10.7-15.1,16.8-34.7,16.8-53.9c0-10.9-1.9-21.4-5.2-31.1c-17.3-12.8-33.1-16.6-33.1-16.6s10.7-0.6,28.3,5.7
			c-7.8-15.8-20.5-29.6-35.8-38.8c11.8,3.8,35.8,16.1,49.9,46.4c5.7,3.9,10.5,8.7,15.7,15.2c-5.4-24.8-18.3-42.4-31-51.8
			c0,0,34.7,12.5,43.1,54.7c9.8,49.1-29.5,79.8-61.1,106.1l24.2-9.9c1.6-0.7,2.8,0.9,2.5,2.8l-0.7,6c-0.4,3.3-2.8,19.9-11.9,25
			c-2,1.1-5.4,2.3-15.4,3.1l-18.1,1.2l3,10.2L287.2,287l9.1-9.6l18.6,66.2l-51.1,42l15.9-72.3l-23.8,29l-23.8-29l15.9,72.3l-51.1-42
			l18.6-66.2l9.1,9.6L207,258.5l3-10.2l-18.1-1.2c-10-0.7-13.4-2-15.4-3.1c-9.1-5-11.5-21.7-11.9-25l-0.7-6
			c-0.3-1.9,0.8-3.5,2.5-2.8l24.2,9.9C158.8,193.9,119.5,163.2,129.3,114.1 M358.3,166.9c0,0,20-31.6,6.3-49.3
			c-1.4-1.8-2.9-3.5-4.4-5.1C365.9,132.7,358.3,166.9,358.3,166.9 M153.7,166.9c0,0-7.5-34.2-1.9-54.4c-1.5,1.6-3,3.3-4.4,5.1
			C133.7,135.3,153.7,166.9,153.7,166.9"/>
		<path fill="#FFFFFF" d="M203.3,395.8l1-1.6l0.1-0.2l-15.2-9.7l-0.1,0.1l-19.2,30.1l4.7,3l8.5-13.2l5.9,3.8l-8.5,13.2l4.7,3
			l16.3-25.5L203.3,395.8z M192,403.3l-5.9-3.8l4.7-7.4l5.9,3.7L192,403.3z M186.6,382.3l-27.5,23.4l-3.8-3.7l6.6-10l-9.9,6.8
			l-3.8-3.7l23-27.8l3.7,3.6l-9.3,11.7l12.6-8.4l1.3,1.3l-8.3,12.7l11.6-9.5L186.6,382.3z M159.5,349l-31.9,16.6l-2.6-4.9l31.9-16.6
			L159.5,349z M154.5,339.4l-34,11.7l-1.8-5.3l21.3-7.3l-9.8-0.3l7.6-6.3l-21.3,7.3l-1.8-5.3l34-11.7l1.8,5.3l-7.6,6.3l9.8,0.3
			L154.5,339.4z M140.7,376l6.9,9.6l-4.7,3.3l-10.1-14.1l29.2-20.9l3.2,4.5L140.7,376z M224.3,402.3l-12.8,33.4l-3.6-1.4l-9.6-3.7
			l-3.9-1.5l13-33.3l5.2,2l-10.8,28l6.5,2.5l10.8-28L224.3,402.3z M371.6,378.1l3.1,2.5l-8.8,11l-2.5,3.1L338.7,375l-3.2-2.5
			l11.3-14.1l3.2,2.5l5.3,4.3l-3.5,4.3l-4-3.2l-4.4,5.5l19,15.2l4.4-5.5l-4.1-3.2l3.5-4.3L371.6,378.1z M365.7,353.5l22.8,3
			l-2.7,5.2l-16.6-2.1l13.8,7.3l-2.6,4.9l-31.7-16.8l2.6-4.9l8.8,4.7l-6.6-8.9l2.8-5.2L365.7,353.5z M397.4,331.4l-5.2,17.3
			l-3.8-1.1l-5.8-1.7l1.6-5.3l4.1,1.2l2-6.7l-9.5-2.9l-3.7,12l-3.8-1.1l-15.3-4.6l1.1-3.8l4-13.5l3.9,1.2l5.7,1.7l-1.6,5.3l-4.1-1.2
			l-2,6.7l8.3,2.5l3.6-12l3.8,1.1l12.8,3.8L397.4,331.4z M332.6,375.5l23,27.3l-3,2.5l-7.8,6.6l-3.2,2.7l-22.9-27.5l4.3-3.6l19.4,23
			l5.3-4.5l-19.4-23L332.6,375.5z M291.8,432.3l1.1,5.6l-16.9,3.3l-6.9-35.1l16.9-3.3l1.1,5.6l-11.5,2.3l1.7,8.5l11.5-2.3l1.1,5.6
			l-11.5,2.3l1.9,9.9L291.8,432.3z M265.5,436.4l0.1,5.7l-17.3,0.3l-0.6-35.7l17.3-0.3l0.1,5.7l-11.7,0.2l0.1,8.6l11.7-0.2l0.1,5.7
			l-11.7,0.2l0.2,10.1L265.5,436.4z M321.8,406.5l0.6-3.5l-5.5-10.1l-5.2-1.5l-12.4,6.7l17,31.4l12.4-6.7l1.5-5.2l-5.3-9.8
			L321.8,406.5z M306.8,400.6l6.2-3.3l4.1,7.6l-6.2,3.3L306.8,400.6z M318.3,421.9l-4.8-8.8l6.2-3.3l4.8,8.8L318.3,421.9z
			 M244.1,406l-9.3,12.9l4.2,22.7l-5.8-1l-3.1-16.5l-2.7,15.4l-5.5-1l6.2-35.4l5.5,1l-1.7,9.8l6.4-9L244.1,406z"/>
		<path fill="#FFFFFF" d="M239.4,247.2c-2.6-1.2-7.5-3.4-12.3-5.7c-1-0.4-2.1,0.2-2.3,1.2c-0.3,2.1-0.3,5.4,2.6,7.6
			c5.4,4.2,10,1.9,12.5-0.6C240.7,249,240.4,247.6,239.4,247.2"/>
		<path fill="#FFFFFF" d="M172.4,219c0,0,1.8,14.8,8,18.3c4.2,2.3,14.5,2.1,23.4,2.8C193.9,236.2,179.3,225.7,172.4,219L172.4,219z"
			/>
		<polygon fill="#FFFFFF" points="245.6,307.7 250.6,314.4 261.4,314.4 266.4,307.7 		"/>
		<path fill="#FFFFFF" d="M339.6,219c-6.9,6.7-21.5,17.2-31.4,21c9-0.7,19.2-0.5,23.4-2.8C337.8,233.8,339.6,219,339.6,219
			L339.6,219z"/>
		<path fill="#FFFFFF" d="M266.3,268.5l-4.8-15.7l-5.5,2.7l-5.5-2.7l-4.8,15.7c0,0-1.6,6.2-8.4,10.6l-2.9,12.9l7.2,9.7h7.6
			l-7.1-10.4l1.1-6.4c3.2,3.4,7.8,5.6,12.8,5.6c5.1,0,9.6-2.2,12.8-5.6l1.1,6.4l-7.1,10.4h7.6l7.2-9.7l-2.9-12.9
			C267.9,274.7,266.3,268.5,266.3,268.5"/>
		<path fill="#FFFFFF" d="M284.9,241.5c-4.9,2.2-9.7,4.5-12.3,5.7c-1,0.5-1.3,1.8-0.5,2.6c2.5,2.4,7.1,4.8,12.5,0.6
			c2.9-2.2,2.9-5.5,2.6-7.6C287,241.7,285.9,241.1,284.9,241.5"/>
	</g>
</g>
</svg>
