<?xml version="1.0" encoding="utf-8"?>
<!-- Generator: Adobe Illustrator 18.0.0, SVG Export Plug-In . SVG Version: 6.00 Build 0)  -->
<!DOCTYPE svg PUBLIC "-//W3C//DTD SVG 1.1//EN" "http://www.w3.org/Graphics/SVG/1.1/DTD/svg11.dtd">
<svg version="1.1" xmlns="http://www.w3.org/2000/svg" xmlns:xlink="http://www.w3.org/1999/xlink" x="0px" y="0px" width="512px"
	 height="512px" viewBox="0 0 512 512" enable-background="new 0 0 512 512" xml:space="preserve">
<g id="white_block">
	<rect opacity="0" fill="#FFFFFF" width="512" height="512"/>
</g>
<g id="Logos">
	<g>
		<path d="M313.2,301.8c0,3,2.2,5.8,4.8,5.8c2.6,0,4.8-2.8,4.8-5.8c0-3-2.2-5.9-4.8-5.9C315.3,295.9,313.2,298.8,313.2,301.8"/>
		<path d="M176.1,340.9c-0.1-3.6-1.3-4.6-2.9-5v10.2c0.6-0.2,1.2-0.5,1.7-0.9C175.8,344.3,176.2,342.9,176.1,340.9"/>
		<path d="M185.3,353.5c2.5,2.1,4.3,4.6,5.4,7.1l-0.1-16.8C189.7,348,187.5,351.3,185.3,353.5"/>
		<path d="M223.5,328.3l-1.2,8.2l-0.8,5.5l-4.2-3.7l-4.1-3.6l-6.4,0c0,3.2,0.1,8.3,0.1,11.4h11.3h4.7l-2,4.3l-4.5,9.6l-1.2,2.4
			l-2.6-0.9l-5.8-2l-0.1,15.3l5.1-0.1l8.3-5.7l4.7-3.2v5.7v10.1l0.9-2l-0.3-47L223.5,328.3z"/>
		<path d="M320.2,338c0,0-0.3,0.1-0.7,0.6c-1.8,2.1-3.8,8.2-3.8,16.7c0,11.5,3.4,17.5,4.6,17.5c0.5,0,1.1-0.5,1.4-0.8
			c1.5-1.7,3.2-8.9,3.2-16.7c0-8.5-2-14.6-3.8-16.7C320.6,338.1,320.3,338,320.2,338"/>
		<polygon points="242,380.1 244.2,384.6 245.1,386.5 245.8,384.9 247.3,381 241.8,369.9 		"/>
		<path d="M242.4,335.5c-0.1,2.8-0.2,7.5-0.3,10.7c2-1.1,3-3.4,3.2-6.9c0-0.8-0.3-2.3-1.3-3.1C243.8,336,243.3,335.6,242.4,335.5"/>
		<path d="M174.7,362.1c-0.5-0.3-1.1-0.6-1.7-0.8v13.3c0.7-0.2,1.3-0.4,1.8-0.8c1.1-1,2.5-2.6,2.6-6.1
			C177.5,365.2,176,363.1,174.7,362.1"/>
		<polygon points="111.4,329.4 108.6,325.8 107,323.8 106.1,325.4 103.8,329.5 103.8,377.4 104,378.1 		"/>
		<path d="M466.1,342l11.3-23.8l-0.2-0.2l-0.5-0.7c-0.4-0.6-10.9-13.6-23.6-15.2l-1.5-0.1l-6.9-13.1l2.1-0.4
			c2.5-0.5,4.5-1.2,5.6-1.8l0.4-0.2l-18.4-30.9l2-0.6c1.5-0.4,2.6-0.8,3.3-1.2l0.4-0.2l-34.5-63.4l-22.6,41.6l-18.1-33.2l-5.7,10.6
			l-0.7-4.7c-0.7-4.3-1.9-8.4-3.6-12c-2.1-4.4-5.5-9.5-10-15.2l-2.9-3.6l4.5,1c4,0.9,7,2.3,7.4,2.5l4.3,2.1c-0.1-0.5-1-4.7-1-4.7
			c-1.4-7-5-13.5-10.7-19.4l-3.9-4l7.6,1.8l5.7,1.7c-0.3-0.5-2.9-5.1-2.9-5.1c-4.8-8.6-10.1-13.3-13.6-15.8l-1.1-0.8l0.5-1.2
			c8.2-20.2,12.4-35.7,12.4-46c0-8.5-2.8-11-4-11.7l-0.7-0.3l-0.2-0.1l-0.9,0.2c-2.3,0.5-8.1,4.3-20.8,13
			c-6.8,4.6-14.5,9.8-19.9,13.1c-7.2,4.3-12.6,6.2-15.8,7l-1.4,0.4l-0.5-1.4c-1-2.7-1.6-6.8-1.7-9.7l-0.2-4.2l-3.5,2.2
			c-2.3,1.5-5.1,4.7-8.2,9.4l-1.3,1.9l-1.3-1.9c-4.2-5.9-9.1-9.7-9.3-9.8l-5.5-4.3c0.2,0.7,1.7,6.8,1.7,6.8l0,0l0,1.1l-0.2,5
			l-2.4-1.8c-4.7-3.5-10.1-6.7-10.8-7.1l-4.1-2.4c0,0.5,0.2,2.2,0.2,2.2l0.6,5.8l-2.9-1.9c-6.5-4.4-13.9-6.7-14.7-7l-4.8-1.4
			c0.2,0.5,1.9,4.6,1.9,4.6c0.7,1.7,1.3,4.2,1.7,7l0.4,3l-2.7-1.3c-10.9-5.3-31.2-17.9-38.6-23.2c-4.3-3.1-7.6-4-10.1-2.7
			c-3.3,1.8-3.3,6.5-3.3,8l0,1.4c0.6,14.7,8.5,36.4,11.9,45.1l0.5,1.2l-1.1,0.7c-10.5,6.5-17.4,15.9-18.2,17l-2.9,4.1
			c0.5-0.1,5-0.4,5-0.4l7.1-0.1l-3.6,2.9c-9,7.3-13.5,15.8-13.5,15.9l-2.6,5c0.6-0.2,5.4-1.6,5.4-1.6c2.3-0.7,4.7-1.2,7.1-1.5l4-0.5
			l-2.5,3.1c-4.8,5.8-8.3,12.9-10.3,20.9c-0.5,2.1-0.9,4.3-1.2,6.6l-0.6,4.9l-5.8-10.6l-18.1,33.2l-22.6-41.6L72,253.6l0.4,0.2
			c0.7,0.4,1.9,0.8,3.3,1.2l2,0.6l-18.4,30.9l0.4,0.2c1,0.6,3,1.3,5.6,1.8l2.1,0.4l-7.1,13.4H34.5l7.6,49l9.3-6.1l0.3,32.3L43.5,401
			h49.9l-1.2-3.9h340.8l0.3,0.1c2.4,1.1,11.2,4.7,20.9,3.5c5.5-0.7,23.3-5,23.3-32.6c0-12.1-7.4-21.8-10.5-25.5L466.1,342z
			 M391.3,248.6l-6.9-0.9l21.6-39.8l14.8,40.9l-6.4,0.9c3.5,7.3,11.4,25.4,14.6,31.3l-6.7,1.4l10,21.1c-4.6,1.8-7.9,7.4-7.9,7.4
			l-9.1,0.1l-10.7-27.8l-32.1-0.1L391.3,248.6z M388.8,311.7h-4.3l-1.7-3.8h-6.4l-1.7,3.8h-4l9-20.2h0L388.8,311.7z M365.4,212.3
			l6.2,30.4l-5.3,0.7l4,25.8l-6.5,0.4l-1.3,13.4h-24.3l3.4-6.4l4.1-7.7l-6.2-1l9.9-16.6l4.8-8.1l-5.2-0.7L365.4,212.3z M343.1,296.4
			l1.1-4.5h11.5v4.5h-4v15.3h-4.2v-15.3H343.1z M292.6,114.3c15.3-5.1,38.5-22,38.6-22.1c7.1-5.9,9.4-7.7,10.8-7.1
			c1,0.4,1.3,1.3,1.3,2c0,0-5.4,28.3-16.7,45.9c0,0,10,3.6,15.1,11.9c0,0-10.6-0.2-15.8,0.8c5.4,3.3,18.3,15.1,21.9,21.5
			c-10.6-1.7-21.6-1-21.6-1c0.8,0.8,6.2,6.4,7.1,7.2c10.3,8.8,19.5,22.2,19.1,43.6l-1-5.9c-5.3-18.9-14.8-29.7-24.1-37.6
			c-1.7-1.5-10.7-8.6-12.1-9.9c0,0,6.5-0.9,8.8-1.2c3.8-0.7,11.4-0.2,15.3-0.1c-6.7-7.3-22.6-18-22.7-18.1l-1.3-0.6
			c6.4-2.1,18.2-1.5,18.7-1.5c0,0-4.6-4.9-11.8-8.3c12.2-18.2,16.4-42.9,16.5-42.9c-0.1,0,1.5-2.8-5.5,3.6
			c-0.7,0.5-7.8,6.6-17.1,15.4l3.6,5.7c-5.7,1.4-12.9,2.9-20.3,3.7l9.2,9c-8.5-3.7-15.8-9.5-24.8-10.6
			C286.8,116.5,289.6,115.4,292.6,114.3 M334.8,263.2l-5.3,0.3l-2,19.5h-21.3l6.7-12.6l3.4-6.3l-5-0.8l8.1-13.6l3.9-6.7l-4.3-0.5
			l13.5-24.9l4.1,24.4l-4.3,0.6L334.8,263.2z M326.9,301.8c0,5.8-4.1,10.4-9,10.4c-4.9,0-9-4.6-9-10.4c0-5.7,4.1-10.3,9-10.3
			C322.8,291.5,326.9,296.1,326.9,301.8 M277.8,151.7c0.4,2.5,1.3,5,1.7,4.2c1.3-2.1,9.3-6.1,9.3-6.1s-2.9,4.9-1.6,4.2
			c1.7-1,5.9,1.1,5.9,1.1c-11.8,4.6-21.1,9.9-24.8,16.9C267.9,168.8,277.4,149.3,277.8,151.7 M260.5,299.5v4.2h-4.3v3.8h6.6l-1,4.2
			H252v-19.8h9.5l0.7,4.2h-6.1v3.4H260.5z M233.5,291.7v20.5h-0.1l-11-11.3v10.8h-4.2v-20.2h0.1l11,11.1v-10.8H233.5z M267.3,235.6
			c-1.4-2.2-3.2-2.7-3.2-2.7s0.3-1.7,1.2-2.4c0.8-0.6,1.4-1.2,2.4-0.8c0,0,2.5,1.2,2.5,7.1c0,4.6-2.5,6.1-2.5,6.1
			S268.7,237.7,267.3,235.6 M255.8,264.1L255.8,264.1c-6.8-0.4-9.5-7.2-9.8-12.9c-0.3-5.8,0.9-8,4.1-8.1c3.2-0.2,4.7,3.9,4.9,5.6
			c0.2,1.7,0.9,3.2,0.9,3.2v0.1c0,0,0.7-1.5,0.8-3.2c0.2-1.7,1.7-5.7,4.9-5.6c3.2,0.2,4.4,2.4,4.1,8.1
			C265.3,256.9,262.6,263.7,255.8,264.1 M260.4,276.1c-0.9,1.1-2.2,0-2.2,0s-1.1,0.9-2.6,0.2c-1.5,0.8-2.6-0.2-2.6-0.2
			s-1.3,1.1-2.2,0c-1.7-2.1-0.5-5.3-0.5-5.3s0.4,3.5,2.6,3.7l1.5-2.6l1.3,2.8l1.3-2.8l1.5,2.6c2.2-0.2,2.6-3.7,2.6-3.7
			S262.1,274,260.4,276.1 M243.2,242.9c0,0-2.5-1.5-2.5-6.1c0-5.9,2.5-7.1,2.5-7.1c1-0.3,1.5,0.2,2.4,0.8c0.9,0.7,1.2,2.4,1.2,2.4
			s-1.9,0.5-3.2,2.7C242.2,237.7,243.2,242.9,243.2,242.9 M245.5,262.3c0,0-1.3,6,2.6,6.4c0,0,0.6-0.1,0.6,2.1
			c0,2.2-1.3,3.1-1.9,3.1c-0.5,0-3.1-1.3-3.1-6.1C243.7,264.9,244.8,263.2,245.5,262.3 M247.3,233.3c0.5-1.2,3.4-0.5,4.1,0.9
			c1.4-1.4,3.2-0.7,4.1,0.2c0.9-0.9,2.7-1.5,4.1-0.2c0.6-1.4,3.5-2,4.1-0.9c0,0,0,2.7-1.7,4.4c0,0-1-2.2-1.9-2.4
			c0,0-1.7,2.2-2.4,3.1l-2.2-2.7l-2.2,2.7c-0.7-0.9-2.4-3.1-2.4-3.1c-0.8,0.2-1.9,2.4-1.9,2.4C247.3,236,247.3,233.3,247.3,233.3
			 M263.2,268.7c3.9-0.4,2.6-6.4,2.6-6.4c0.7,0.9,1.8,2.5,1.8,5.5c0,4.8-2.6,6.1-3.1,6.1c-0.5,0-1.9-0.9-1.9-3.1
			C262.6,268.6,263.2,268.7,263.2,268.7 M287.7,170.4l2.7-1.9c0,0,2.1,4.6-2.7,8.3c-5.1,3.8-8.3-1.7-8.3-1.7l2.2-1.5
			c0,0,1.9,1.7,4.4,0.5C288.6,172.9,287.7,170.4,287.7,170.4 M279.9,297.5c0-3.9,3.1-6.1,6.1-6.1c1.9,0,3.9,0.8,5.4,2.3l-2.3,3.4
			c-1-1-1.7-1.5-3-1.5c-0.7,0-1.8,0.5-1.8,1.5c0,3.1,7.5,1.1,7.5,8.4c0,4.4-2.9,6.6-6.4,6.6c-2.1,0-4.3-0.7-5.8-2.3l2.5-3.7
			c0.8,1.1,1.9,1.6,3.2,1.6c0.9,0,2.2-0.5,2.2-1.7C287.4,302.8,279.9,304.6,279.9,297.5 M162.4,203.7c0,0,4.5-23.2,22.2-37
			c0,0,3.3-1.4-15.9-1.8c0,0,8.2-10.9,21.7-17c0,0-8.5-1.5-15.9-0.7c0,0,6-11.5,26.7-14.7l1.7-0.3c-1.3-2.4-4.7-1.4-6-3.7
			c-0.7-1.3,18.2-5.8,17.5-7.1c-0.8-1.5-16.8-5.4-17.7-6.9c-0.5-0.8,5.8-3.4,5.3-4.3c-0.4-0.8-3.9-2.6-7.1-4.8
			c-3.1-2.1-5.9-4.5-6.2-4.4c-2.7,0.7,0.9,27.3,1,28.7l-2.7,0.7c-1.5-1.5-13.8-38.4-11.1-44.9c0.4-1,2-0.4,8,4.1
			c25,19,46.7,23.8,46.7,23.8c0.6-5,0-11.9,0-11.9c9.7,3.8,15.3,14.4,15.3,14.4l0.3-0.9c1.5-4.4,1.9-10.7,1.9-10.7
			c4.7,2.8,9.3,10.4,9.3,10.4s1.5,15.3-2.4,23.4c-2.2,4.6-9.6,7.5-16.3,7.2c0,0,1.8,2.4,4.5,4.4c1.7,1.2,4.9,2.4,4.9,2.4
			s-5.9,4.2-19.2,1.3c-1.2,0.1,6.6,7.8,17.9,12.6c5.4,2.3,8.1,11.1,1,11.1c0,0,5.8,6.6,6.3,11.4l0.9,4.7c-2.1-3-5.3-4-7.8-4.3
			c-0.6-0.1-1.1-0.1-1.6-0.1h-0.2c-0.5,0-0.9,0-1.3,0.1l0,0l-0.8,0.1l-0.5,0.1l-0.8,0.3l-0.4,0.1l-0.8,0.4l-0.2,0.1
			c-1.4,0.8-2.1,1.8-2.1,1.8l0,0c2-0.3,3.1-0.5,6.5,0.6c10.8,3.6,9.4,18.4,10.1,20.8c0,0-2.8-2-6.6-2l-1,0.1l-1.1,0.3l-0.1,0l-1,0.4
			l-0.2,0.1l-0.8,0.6l-0.2,0.2l-0.6,0.6l-0.3,0.4L243,215l-0.4,0.7l-0.2,0.4l-0.3,0.9l0,0.2l-0.1,1.2c0,1.7,0.5,3.1,1.2,4.3
			c0.7,1.1,1.5,2,2.1,2.6c0.8,0.8,1.6,1.7,1.6,2.1c0,0.3-0.3,0.4-1.1,0.2l0,0c-4.8-1.2-10.1-6.3-10.5-14.3
			c-0.3-6.5,1.4-9.9,3.6-10.7l0.5-0.1l0.1,0c3.8-0.9,8.7,2.3,8.7,2.3v0v0c0,0-0.5-1.1-1.8-2.3c-1.2-1.2-3.1-2.6-5.8-3.2
			c-1.2-0.3-2.3-0.3-3.3,0c-3.1,0.7-5.6,3.5-7.3,7.4c-0.7,1.6-1.3,3.6-1.5,5.9c-0.1,0.8-0.1,1.5-0.1,2.3c0,1.9,0.3,4,1,6.2
			c1.6,5.3,3.2,11.6,5.1,15.4c7.2,14.5,7.5,23.6,7.1,32v0.9l0,0.8l0.1,0.7l0.1,0.9l0.2,0.6l0.3,0.8l0.2,0.5l0.4,0.7l0.3,0.4l0.5,0.6
			l0.3,0.3l0.6,0.6l0.4,0.3l0.7,0.5l0.4,0.2l0.8,0.4l0.3,0.1l1,0.4l0.2,0.1c0.9,0.3,1.7,0.5,2.6,0.7l0.5,0.1l0.8,0.1l0.7,0.1l0.6,0
			l0.7,0.1l0.4,0l0.8,0.1c0.6,0,1.2,0,1.8,0c8.8,0,11.8-5.1,12.3-11.9c0.6-7.9-0.8-17.4,7.1-31.3c3-5.2-2.5,4.1-2.8,19.1
			c-0.3,14.3-0.1,30-18.3,30.3l0,0c-0.9,0-1.8,0-2.8,0c0,0-7-0.1-11-5.6c-0.7-1-1.3-2.1-1.8-3.3c-3.1-7.3-2.2-17.3-4-23.3
			c-1.7-5.8-4.3-11-6.2-14.5c-1.5-2.7-2.5-4.4-2.6-4.4v0c-0.1,2.8,0,7.1,2.3,11.9c2.4,5.1,2.6,10.9,2.6,12.6l0,0.2l0,0.3
			c-2-1.9-5.1-2.4-5.1-2.4l0.2,0.4c0.7,1.9,1.5,5.7,2.3,11.1c0.1,0.8,0.2,1.7,0.4,2.6c0.6,4.3,2,7.9,3.1,10.3c0.2,0.5,0.4,1,0.6,1.3
			l0,0h-21.6l-7.9-14.9h0l0.2,0c0.8-0.1,3.7-0.6,4.9-1.4l-11.6-19.5c0,0,0.6-0.1,1.4-0.2c0.7-0.2,1.6-0.5,2.3-0.9l-21.2-39
			l-14.4,26.4l-3.8-7l-2.2-4.4C159.4,222,160.7,209.8,162.4,203.7 M168.2,248.2c0,0,0.7-0.1,1.7-0.3c0.9-0.2,2-0.5,2.8-1l-4.4-8
			l11.5-21.1l8.2,25.5l-4.2,0.5l7.3,20.9h-5.7l4,18.3h-8.3l-4.9-9.3l0,0l0.2,0c0.9-0.2,4.5-0.8,6-1.7L168.2,248.2z M184.7,291.5
			L184.7,291.5l11.1,11.1v-10.8h4.2v20.5h0l-11-11.3v10.8h-4.2V291.5z M166.2,311.7h-4.2v-20h4.2V311.7z M146.9,212.3l10,31.1
			l-5.2,0.7l8.9,25.5h-6.9l2.9,13.5h-5.9l-16.5-27.9c0,0,1-0.1,2.2-0.4c1.2-0.3,2.6-0.8,3.7-1.4l-4.9-9.1l0.1-0.2l-0.3-0.1l-2.6-4.9
			L146.9,212.3z M130,291.5L130,291.5l5.4,12.1l5.5-12.1h0l4.5,20.4h-4.2l-1.4-9.1h0l-4.4,9.5h-0.1l-4-9.5h-0.1l-1.4,9.1h-4.3
			L130,291.5z M71.3,283l19.5-33.5l-6.6-1.4l21.9-40.2l13.1,40.9l-6.8,0.9l10.9,33.4l-22.7,0L93.8,303H67.7L78.8,283H71.3z
			 M465.3,377c-0.8,3.1-3.1,12.3-14.4,15.1c-10.7,2.6-18.5-4-20.8-6.3v0.1v3.1h-3h-30.6h-4.1l1.2-3.9l2.4-7.9l-0.2-43.1l-15,56.4
			l-0.6,2.4h-4.6l-0.7-2.4l-15.7-60.7l-2.8-3.4l-1.8,3.3v45.3h0.5l8.3-5.7l4.7-3.2v5.7v14.3v3.1h-3h-26.1h-4.2l1.3-4l2.4-7.4
			c0-1,0-3.6,0-7.1c-1.2,5.2-3.2,9.6-6,12.8c-3.4,3.8-7.7,5.9-12.5,5.9c-4.8,0-9.2-2-12.5-5.9c-4.7-5.3-7.2-13.6-7.3-24.2l-6.2,31.2
			l-0.5,2.6h-4.5l-0.8-2.1l-6-17.1l-6.1,17.1l-0.7,2.1h-4.5l-0.5-2.5l-10.5-51c0,1.7-0.1,3.6-0.4,5.6c-0.8,5.6-4,9.4-6.2,11.5
			l13.6,28.3l2.1,4.3h-4.8h-37.5h-4.7h0h-30.4h-4.1l1.2-3.9l2.4-7.9v-1.3c-1,2.8-2.4,5.4-4.4,7.4c-6.3,6.5-16.2,6.1-22.8,5.9
			c-1.1,0-2.2-0.1-3-0.1h-2.9v0h-13.3h-2.7l-0.3-2.7l-1.9-19.1l-6.2,23.3l-0.7,2.4h-4.6l-0.6-2.4l-5.8-22.3l-1.8,18.1l-0.3,2.7h-2.7
			H103h-6.5l0,0h-8.2h-4.2l1.3-4l2.4-7.4l-0.2-48l-0.4-0.8l-0.2,1.2l-0.7,5.4l-4.2-3.5l-5.9-4.9l-0.5,52.6l2.9,9.1l1.3,4h-4.2h-16
			h-4.1l1.3-3.9l2.9-9l-0.2-53.2h-0.1l-6.4,5.3l-4.2,3.5l-0.7-5.4l-1.9-14l-0.4-3.4h3.4h36.6h3.4l-0.5,3.4l-0.7,5h15.2h1.4h3.7h2.5
			h13.9h2.6l0.4,2.5l2.9,16.6l2.9-16.6l0.4-2.5h2.5h12.8h1.4l0,0l4.7-0.2l1.8-0.1c3.8-0.1,10-0.3,13.9-0.1c4,0.1,16.6,1.8,19.4,15.1
			l0-3.5l-3-7.1l-1.8-4.2h4.5h30.6h3.5l0,0.1h0.3h16.9c4.2,0,8,1,10.7,2.6l-2.3-2.5h6.8h13.8h2.6l0.4,2.6l2.8,20.1l2.5-9.6l2.6-10.4
			l3.2,10.2l3,9.7l2.1-19.9l0.3-2.7h2.7h13.5h6.7l-4.4,5l-2.8,3.3l-0.6,2.9c1.2-2.3,2.5-4.4,4-6.1c3.1-3.5,6.7-5.4,10.5-5.4
			c8.5,0,15.5,9.4,18.4,22.9c0-6.2,0-10.9,0-10.9l0-3.1l-3.1-3.9l-3.9-4.9h6.2h34.6h2.5l0.4,2.5l2.9,17.4l2.9-17.4l0.4-2.5h2.5h42.2
			h3.5l-0.5,3.4v0.1c2.3-6.1,6.7-10.2,12.7-11.7c12.6-3.1,21.2,6.6,21.5,7l1.3,1.5l-0.9,1.8l-6.7,13.5l-3.4,6.9l-2.2-7.3l-2.4-7.9
			c-0.4-0.4-1.2-1-2.3-1c-1.6,0-2.5,0.5-3,2c-0.7,2.3-0.2,5.7,0.5,7.1c1.3,2.7,3.9,5.1,6.9,7.9c3.5,3.3,7.5,7,10.6,12.2
			C464.8,361,467.7,367.6,465.3,377"/>
		<polygon points="377.5,304.3 381.9,304.3 379.7,299.4 		"/>
		<path d="M430.1,379.5l5.5-11.3l3.4-6.8l2.2,7.3l2.4,7.8c0.4,0.4,1.4,1,2.5,1.1c1.1,0.1,3.3-1.5,3.8-2.4c1.7-3,0.3-6.5-1.1-9.5
			c-1-2-4.1-5.3-7.1-8.5c-3.9-4.2-8.3-8.9-10.8-13.4c-1.6-2.9-2.7-6.5-3.1-9.8l-0.3,2.4l-0.8,5.5l-4.2-3.7l-4.1-3.6l-6.3,0
			c0,3.2,0.1,8.3,0.1,11.4h11.3h4.7l-2,4.3l-4.5,9.5l-1.2,2.5l-2.6-0.9l-5.8-2l-0.1,15.3l5-0.1l8.3-5.7l4.7-3.2v5.7V379.5z"/>
		<polygon points="156.3,331.9 153,325.1 152.7,324.6 152.1,325.5 149.9,329.2 157.5,379.4 		"/>
		<path fill="#8E9090" d="M481.2,317.8l-1.9-2.5c-0.5-0.6-11.6-14.4-25.5-16.3c-0.3-0.5-3-5.6-4.2-7.9c1.9-0.5,3.5-1.1,4.5-1.7
			l3.2-1.9l-1.9-3.1c0,0-12.4-20.9-16.1-27c0.8-0.3,1.4-0.5,1.9-0.8l3.4-1.7l-1.8-3.3l-37.1-68.2c0,0-18,33-22.6,41.5l-18-33.2
			c0,0-3.7,6.9-4.3,7.8c-0.8-3.1-1.6-6-2.9-8.6c-1.7-3.6-4.2-7.6-7.4-11.8c1.2,0.4,1.9,0.8,2.1,0.9l3.5,1.7l6.6,3.2l-1.4-7.2
			l-0.8-3.8c-1.2-6-4-11.7-8.1-17c0.9,0.3,10.4,3.1,10.4,3.1l-6.8-12.1c-4.7-8.3-9.8-13.3-13.5-16.1c8.1-20,12.2-35.5,12.2-46.1
			c0-9.8-3.5-13.3-5.6-14.5l-1.9-1.1l-2.1,0.5c-2.9,0.6-8,4-21.8,13.4c-6.8,4.7-14.5,9.9-19.9,13.1c-6.1,3.7-10.6,5.4-13.4,6.2
			c-0.5-2.1-1-4.8-1.1-7.3l-0.1-3.3l-0.3-6.3l-8.2,5.2c-2.3,1.5-5,4.4-7.9,8.5c-4-5.1-8.1-8.3-8.6-8.8l-12.8-10
			c0,0,3.3,13.1,3.7,14.7c-4-2.8-7.8-5-8.3-5.3l-9.6-5.6l0.8,7.7c-5.9-3.4-11.5-5.2-12.7-5.6l-11.2-3.3l4.3,10.8
			c0.3,0.8,0.6,1.9,0.9,3.2c-11.1-5.8-28.7-16.8-35.2-21.5c-5.4-3.9-9.8-4.8-13.5-2.8c-5,2.7-5,8.8-5,10.8l0,1.5
			c0.6,14.5,8,35.5,11.6,44.9c-10.4,6.8-17.2,16-18,17.1l-6.8,9.6l7.7-0.5c0,0,1-0.1,2-0.1c-7.2,6.8-10.8,13.6-10.9,13.9l-2.1,4
			l-4,7.7l12.7-3.8c0.9-0.3,1.8-0.4,2.7-0.6c-3.8,5.5-6.6,11.7-8.4,18.7c-0.2,0.8-0.3,1.6-0.4,2.4c-0.3-0.6-4-7.5-4-7.5
			s-15.7,28.8-18.1,33.2c-0.8-1.4-22.6-41.5-22.6-41.5l-3.2,5.9L67.6,255l3.4,1.7c0.5,0.2,1.2,0.5,1.9,0.8
			c-1.8,3.1-17.9,30.1-17.9,30.1l3.2,1.9c1,0.6,2.6,1.2,4.5,1.6c0,0-3.5,6.6-4.3,8H30.8l0.6,4.2l8.3,53.4c0,0,6.9-4.6,8.5-5.6
			c0.1,4.7,0.3,25.4,0.3,25.9c-0.2,0.5-9.5,27.2-9.5,27.2h58.8c0,0-1-3.1-1.3-3.9h335.6c3,1.3,12,4.9,22.2,3.6
			c6.1-0.7,26.2-5.5,26.2-35.8c0-12.4-7-22.4-10.6-26.8C470.7,339.9,481.2,317.8,481.2,317.8 M477.4,368.2
			c0,27.6-17.9,31.9-23.3,32.6c-9.7,1.2-18.4-2.4-20.9-3.5l-0.3-0.2H92.1l1.3,3.9H43.5l8.2-23.5l-0.3-32.3l-9.3,6.1l-7.6-49h25.8
			l7.1-13.4l-2.1-0.4c-2.6-0.5-4.5-1.2-5.6-1.8l-0.4-0.2l18.4-30.9l-2-0.5c-1.5-0.4-2.6-0.8-3.3-1.2l-0.4-0.2l34.5-63.4l22.6,41.6
			l18.1-33.2l5.8,10.6l0.6-4.9c0.3-2.3,0.7-4.5,1.2-6.6c2-8,5.5-15,10.3-20.9l2.5-3.1l-4,0.5c-2.4,0.3-4.8,0.8-7.1,1.5
			c0,0-4.9,1.4-5.4,1.6l2.6-5c0-0.1,4.5-8.7,13.5-15.9l3.6-2.9l-7.1,0.1c0,0-4.5,0.3-5,0.4l2.9-4.1c0.8-1,7.7-10.5,18.2-17l1.1-0.7
			l-0.5-1.2c-3.4-8.7-11.3-30.5-11.9-45.1l0-1.4c0-1.5,0-6.2,3.3-8c2.5-1.3,5.8-0.5,10.1,2.7c7.4,5.4,27.6,17.9,38.6,23.2l2.7,1.3
			l-0.4-3c-0.4-2.8-1-5.3-1.7-7c0,0-1.6-4.1-1.9-4.6l4.8,1.4c0.8,0.3,8.2,2.6,14.7,7l2.9,1.9l-0.6-5.8c0,0-0.2-1.8-0.2-2.2l4.1,2.4
			c0.6,0.4,6.1,3.6,10.8,7.1l2.4,1.8l0.2-5l0-1.1h0c0,0-1.5-6-1.7-6.8l5.5,4.3c0.2,0.1,5.1,4,9.3,9.8l1.3,1.9l1.3-1.9
			c3.2-4.7,6-7.9,8.2-9.4l3.5-2.2l0.2,4.2c0.1,2.8,0.7,6.9,1.7,9.7l0.5,1.4l1.4-0.4c3.2-0.8,8.5-2.7,15.8-7
			c5.5-3.3,13.2-8.5,20-13.1c12.7-8.7,18.4-12.5,20.7-13l0.9-0.2l0.2,0.1l0.7,0.3c1.2,0.7,4,3.2,4,11.7c0,10.3-4.2,25.8-12.4,46
			l-0.5,1.2l1.1,0.8c3.5,2.5,8.8,7.2,13.6,15.8c0,0,2.6,4.6,2.9,5.1l-5.7-1.7l-7.6-1.8l3.9,4c5.7,5.9,9.3,12.4,10.7,19.4
			c0,0,0.8,4.2,1,4.7l-4.3-2.1c-0.4-0.2-3.4-1.6-7.4-2.5l-4.5-1l2.9,3.6c4.5,5.6,7.9,10.7,10,15.2c1.7,3.6,3,7.7,3.6,12l0.7,4.7
			l5.7-10.6l18.1,33.2l22.6-41.6l34.5,63.4l-0.4,0.2c-0.7,0.3-1.9,0.8-3.4,1.2l-2,0.5l18.4,30.9l-0.4,0.2c-1,0.6-3,1.3-5.6,1.8
			l-2.1,0.4l6.9,13.1l1.5,0.1c12.7,1.6,23.1,14.6,23.6,15.2l0.5,0.7l0.2,0.2L466.1,342l0.7,0.8C470,346.4,477.4,356.1,477.4,368.2"
			/>
		<path fill="#8E9090" d="M165.4,233.4l14.4-26.4l21.2,39c-0.7,0.4-1.6,0.7-2.3,0.9c-0.8,0.2-1.4,0.2-1.4,0.2l11.6,19.5
			c-1.2,0.7-4.1,1.2-4.9,1.4l-0.2,0h0l7.9,14.9h21.6l0,0h-8.2c-5.3-8.3-3.5-26.4-11-42c-2.3-4.7-3.8-8.9-5-12.5
			c-2.3,1.9-4.3,4-4.3,4c-2.3-9.7-0.2-17.4,0.8-20.4c-5.7,2.3-9.4,7.9-9.4,7.9s-3.6-7.8,1.8-20.3c3.7-8.6,10.8-13.1,15.9-14.8
			c-4.7-2.2-6.7-6.8-7.4-10.3c-1.2-6.8,3.5-17.7,3.5-17.7c7.8,7.5,18.2,10.9,25.4,16.6c7,5.4,8.6,10.4,8.6,10.4l-0.1,0
			c1.8,2.2,3,4.3,3.4,5.4l-0.1,0c2.5,0.3,5.7,1.3,7.8,4.3l-0.9-4.7c-0.5-4.8-6.3-11.4-6.3-11.4c7-0.1,4.4-8.8-1-11.1
			c-11.3-4.8-19.1-12.5-17.9-12.6c13.3,2.9,19.2-1.3,19.2-1.3s-3.2-1.2-4.9-2.4c-2.8-2-4.5-4.4-4.5-4.4c6.6,0.4,14-2.5,16.3-7.1
			c3.9-8.1,2.4-23.4,2.4-23.4s-4.6-7.6-9.3-10.4c0,0-0.4,6.2-1.9,10.7l-0.3,0.9c0,0-5.6-10.6-15.3-14.4c0,0,0.6,6.9,0,11.9
			c0,0-21.7-4.8-46.7-23.8c-5.9-4.5-7.6-5-8-4.1c-2.7,6.5,9.6,43.4,11.1,44.9l2.7-0.7c-0.1-1.4-3.7-28-1-28.7
			c0.3-0.1,3.1,2.3,6.2,4.4c3.2,2.1,6.6,4,7.1,4.8c0.5,0.8-5.8,3.5-5.3,4.3c0.8,1.5,16.8,5.4,17.7,6.9c0.7,1.2-18.2,5.8-17.5,7.1
			c1.3,2.3,4.6,1.3,6,3.7l-1.7,0.3c-20.7,3.2-26.7,14.7-26.7,14.7c7.4-0.8,15.9,0.7,15.9,0.7c-13.5,6.1-21.7,17-21.7,17
			c19.1,0.4,15.9,1.8,15.9,1.8c-17.8,13.8-22.2,37-22.2,37c-1.7,6.1-3.1,18.3-3.1,18.3l2.2,4.4L165.4,233.4z"/>
		<path fill="#8E9090" d="M248.1,204.8L248.1,204.8c0,0-4.9-3.1-8.7-2.3c3.1,0.6,7,5.5,8.4,9.2l0,0l1-0.1c3.8,0,6.6,2,6.6,2
			c-0.7-2.4,0.7-17.2-10.1-20.8c-3.4-1.1-4.5-0.9-6.5-0.6C248.7,194.3,248.1,204.7,248.1,204.8"/>
		<path fill="#8E9090" d="M256.9,282.3c-0.1,1.7-1.5,3.4-1.5,3.4c18.2-0.4,17.9-16,18.3-30.3c0.3-15,5.8-24.3,2.8-19.1
			c-7.8,13.9-6.5,23.4-7.1,31.3c-0.5,6.8-3.6,11.9-12.3,11.9c-0.5,0-1.1,0-1.8,0h0.2C255.6,279.5,256.9,280.9,256.9,282.3"/>
		<path fill="#8E9090" d="M293.1,155.2c0,0-4.2-2.1-5.9-1.1c-1.2,0.8,1.6-4.2,1.6-4.2s-8,3.9-9.3,6c-0.5,0.8-1.3-1.7-1.7-4.2
			c-0.4-2.4-9.9,17.1-9.5,20.4C271.9,165.1,281.3,159.8,293.1,155.2"/>
		<path fill="#005083" d="M299.3,119.3c7.4-0.9,14.6-2.3,20.3-3.7l-3.6-5.7c9.3-8.8,16.4-14.9,17.1-15.4c7-6.4,5.4-3.6,5.5-3.6
			c-0.1,0-4.3,24.7-16.5,42.9c7.2,3.4,11.8,8.3,11.8,8.3c-0.5,0-12.3-0.7-18.7,1.5l1.3,0.6c0.1,0.1,16,10.8,22.7,18.1
			c-3.9-0.1-11.5-0.5-15.3,0.1c-2.3,0.4-8.8,1.3-8.8,1.3c1.4,1.3,10.4,8.4,12.1,9.9c9.2,7.9,18.8,18.7,24.1,37.6l1,5.9
			c0.4-21.4-8.8-34.8-19.1-43.6c-0.9-0.8-6.2-6.5-7.1-7.2c0,0,11-0.8,21.6,1c-3.6-6.4-16.4-18.2-21.9-21.5c5.2-1,15.8-0.8,15.8-0.8
			c-5.1-8.3-15.1-11.9-15.1-11.9c11.3-17.6,16.7-45.9,16.7-45.9c0-0.6-0.3-1.5-1.3-2c-1.3-0.6-3.7,1.2-10.8,7
			c-0.2,0.1-23.3,17-38.6,22.1c-3,1.1-5.8,2.2-9.1,3.4c9,1.1,16.3,6.9,24.8,10.6L299.3,119.3z"/>
		<path fill="#FED520" d="M286,174.1c-2.5,1.2-4.4-0.5-4.4-0.5l-2.2,1.5c0,0,3.2,5.5,8.3,1.7c4.8-3.7,2.7-8.3,2.7-8.3l-2.7,1.9
			C287.7,170.4,288.6,172.9,286,174.1"/>
		<path fill="#FFFFFF" d="M246.8,232.8c0,0-0.3-1.7-1.2-2.4c-0.9-0.6-1.4-1.2-2.4-0.8c0,0-2.5,1.2-2.5,7.1c0,4.6,2.5,6.1,2.5,6.1
			s-1-5.1,0.3-7.3C244.9,233.4,246.8,232.8,246.8,232.8"/>
		<path fill="#FFFFFF" d="M246.8,273.9c0.6,0,1.9-0.9,1.9-3.1c0-2.2-0.6-2.1-0.6-2.1c-3.9-0.4-2.6-6.4-2.6-6.4
			c-0.8,0.9-1.9,2.5-1.9,5.5C243.7,272.6,246.2,273.9,246.8,273.9"/>
		<path fill="#FFFFFF" d="M270.2,236.7c0-5.9-2.5-7.1-2.5-7.1c-1-0.3-1.5,0.2-2.4,0.8c-0.9,0.7-1.2,2.4-1.2,2.4s1.9,0.5,3.2,2.7
			c1.4,2.2,0.3,7.3,0.3,7.3S270.2,241.3,270.2,236.7"/>
		<path fill="#FFFFFF" d="M250.8,235.4c0,0,1.7,2.2,2.4,3.1l2.2-2.7l2.2,2.7c0.7-0.9,2.4-3.1,2.4-3.1c0.8,0.2,1.9,2.4,1.9,2.4
			c1.7-1.7,1.7-4.4,1.7-4.4c-0.5-1.2-3.4-0.5-4.1,0.9c-1.4-1.4-3.2-0.7-4.1,0.2c-0.8-0.9-2.7-1.5-4.1-0.2c-0.7-1.4-3.6-2-4.1-0.9
			c0,0,0,2.7,1.7,4.4C249,237.7,250,235.5,250.8,235.4"/>
		<path fill="#FFFFFF" d="M258.4,274.4l-1.5-2.6l-1.3,2.8l-1.3-2.8l-1.5,2.6c-2.2-0.2-2.6-3.7-2.6-3.7s-1.2,3.2,0.5,5.3
			c0.9,1.1,2.2,0,2.2,0s1.1,0.9,2.6,0.2c1.5,0.8,2.6-0.2,2.6-0.2s1.3,1.1,2.2,0c1.8-2.1,0.6-5.3,0.6-5.3S260.6,274.2,258.4,274.4"/>
		<path fill="#FFFFFF" d="M264.5,273.9c0.5,0,3.1-1.3,3.1-6.1c0-2.9-1.1-4.6-1.8-5.5c0,0,1.3,6-2.6,6.4c0,0-0.6-0.1-0.6,2.1
			C262.6,273,263.9,273.9,264.5,273.9"/>
		<polygon fill="#8E9090" points="262.2,296.1 261.5,291.9 252,291.9 252,311.7 261.7,311.7 262.8,307.5 256.2,307.5 256.2,303.7 
			260.5,303.7 260.5,299.5 256.2,299.5 256.2,296.1 		"/>
		<polygon fill="#8E9090" points="218.4,291.5 218.3,291.5 218.3,311.7 222.5,311.7 222.5,300.9 233.5,312.2 233.5,312.2 
			233.5,291.7 229.4,291.7 229.4,302.5 		"/>
		<path fill="#8E9090" d="M285.2,307.6c-1.2,0-2.4-0.5-3.2-1.6l-2.5,3.7c1.6,1.6,3.7,2.3,5.8,2.3c3.5,0,6.4-2.2,6.4-6.6
			c0-7.3-7.5-5.2-7.5-8.4c0-1,1.1-1.5,1.8-1.5c1.3,0,2,0.5,3,1.5l2.3-3.4c-1.5-1.4-3.4-2.3-5.4-2.3c-3,0-6.1,2.2-6.1,6.1
			c0,7.1,7.5,5.3,7.5,8.3C287.4,307.1,286.1,307.6,285.2,307.6"/>
		<polygon fill="#8E9090" points="188.9,300.9 199.9,312.2 199.9,312.2 199.9,291.7 195.7,291.7 195.7,302.5 184.8,291.5 
			184.7,291.5 184.7,311.7 188.9,311.7 		"/>
		<path fill="#8E9090" d="M309,301.8c0,5.8,4.1,10.4,9,10.4c4.9,0,9-4.6,9-10.4c0-5.7-4.1-10.3-9-10.3
			C313.1,291.5,309,296.1,309,301.8 M322.8,301.8c0,3-2.2,5.8-4.8,5.8c-2.6,0-4.8-2.8-4.8-5.8c0-3,2.2-5.9,4.8-5.9
			C320.6,295.9,322.8,298.8,322.8,301.8"/>
		<polygon fill="#8E9090" points="131.1,302.7 131.1,302.7 135.1,312.2 135.2,312.2 139.6,302.7 139.6,302.7 141.1,311.8 
			145.3,311.8 140.8,291.5 140.8,291.5 135.3,303.6 130,291.5 130,291.5 125.3,311.8 129.6,311.8 		"/>
		<polygon fill="#8E9090" points="351.6,311.7 351.6,296.4 355.7,296.4 355.7,291.9 344.2,291.9 343.1,296.4 347.5,296.4 
			347.5,311.7 		"/>
		<rect x="162.1" y="291.7" fill="#8E9090" width="4.2" height="20"/>
		<path fill="#8E9090" d="M370.7,311.7h4l1.7-3.8h6.4l1.7,3.8h4.3l-9.1-20.2h0L370.7,311.7z M381.9,304.3h-4.4l2.2-4.8L381.9,304.3z
			"/>
		<path fill="#FFFFFF" d="M244.1,183.9c-0.3-0.2-2.5-1.6-5-2.6c-1.6-0.7-3.3-1.2-4.4-1.2c-3.2,0.1-5.1,3.6-13,0.7
			c-6.5-2.3-6.8-9.2-6.4-13c0.1-1.4-1.6-3.2-2.6-4.7c-1.4-2.1-2.4-5.5-2.5-6l0-0.1c0,0-4.8,10.9-3.5,17.7c0.6,3.5,2.7,8.1,7.4,10.3
			c-5.1,1.7-12.2,6.2-15.9,14.8c-5.3,12.4-1.8,20.3-1.8,20.3s3.6-5.7,9.4-7.9c-1.1,3-3.1,10.7-0.8,20.4c0,0,2-2.1,4.3-4
			c1.1,3.7,2.7,7.8,5,12.5c7.5,15.6,5.7,33.7,11,42h8.2c-0.2-0.4-0.4-0.8-0.6-1.3c-1.1-2.3-2.6-6-3.1-10.3c-0.1-0.9-0.2-1.7-0.4-2.6
			c-0.8-5.4-1.6-9.2-2.3-11.1l-0.2-0.4c0,0,3.1,0.5,5.1,2.4l0-0.3l0-0.2c0-1.8-0.3-7.5-2.6-12.6c-2.3-4.8-2.4-9.1-2.3-11.9v0
			c0,0,1.1,1.7,2.6,4.4c1.9,3.5,4.5,8.8,6.2,14.5c1.8,6.1,0.9,16,4,23.3c0.5,1.2,1.1,2.3,1.8,3.3c4,5.5,11,5.6,11,5.6
			c1,0.1,1.9,0,2.8,0c0,0,1.4-1.7,1.5-3.4c0-1.4-1.4-2.8-1.4-2.8h-0.2l-0.8-0.1l-0.4-0.1l-0.7-0.1l-0.6,0l-0.7-0.1l-0.8-0.1L251,279
			c-0.9-0.2-1.7-0.4-2.6-0.7l-0.2-0.1l-1-0.4l-0.3-0.1l-0.8-0.4l-0.3-0.2l-0.7-0.5l-0.4-0.3l-0.6-0.6l-0.3-0.3l-0.5-0.6l-0.3-0.4
			l-0.4-0.7l-0.2-0.5l-0.3-0.8l-0.2-0.6l-0.1-0.9l-0.1-0.7l0-0.9v-0.8c0.4-8.4,0.1-17.5-7.1-32c-1.9-3.8-3.5-10.1-5.1-15.4
			c-0.6-2.2-0.9-4.3-1-6.2c0-0.8,0.1-1.5,0.1-2.3c0.2-2.3,0.8-4.2,1.5-5.9c1.7-3.9,4.2-6.7,7.3-7.4c1-0.2,2.2-0.2,3.3,0
			c2.7,0.6,4.6,2,5.8,3.2c1.2,1.2,1.8,2.3,1.8,2.3l0,0c0-0.1,0.6-10.5-9.3-12.6h0c0,0,0.7-1,2.1-1.8l0.2-0.1l0.8-0.4l0.4-0.1
			l0.8-0.3l0.5-0.1l0.8-0.2h0c0.3,0,0.8-0.1,1.3-0.1h0.2c0.5,0,1.1,0,1.6,0.1h0.1C247.1,188.2,245.9,186.1,244.1,183.9"/>
		<path fill="#FFFFFF" d="M239.4,202.5L239.4,202.5l-0.6,0.1c-2.2,0.8-3.8,4.2-3.6,10.7c0.4,8,5.8,13.1,10.5,14.3l0,0
			c0.8,0.2,1.1,0.1,1.1-0.2c0-0.4-0.8-1.3-1.6-2.1c-0.6-0.6-1.4-1.5-2.1-2.6c-0.7-1.2-1.2-2.6-1.2-4.3l0.1-1.2l0-0.2l0.3-0.9
			l0.2-0.4l0.4-0.7l0.4-0.5l0.3-0.4l0.6-0.6l0.2-0.2l0.8-0.6l0.2-0.1l1-0.4l0.1,0l1.1-0.3l0,0C246.5,208,242.5,203.2,239.4,202.5"/>
		<path d="M212.7,163.1c1.1,1.6,2.8,3.4,2.6,4.7c-0.4,3.8-0.1,10.7,6.4,13c7.8,2.8,9.8-0.6,13-0.7c1.2,0,2.8,0.5,4.4,1.2
			c2.4,1.1,4.6,2.4,5,2.6l0.1,0c0,0-1.6-5-8.6-10.4c-7.3-5.6-17.6-9.1-25.4-16.6l0,0.1C210.2,157.5,211.3,161,212.7,163.1
			 M219.9,168.5l2.7,1.9c0,0-0.8,2.5,1.7,3.7c2.5,1.2,4.4-0.5,4.4-0.5l2.2,1.5c0,0-3.3,5.5-8.3,1.7
			C217.7,173.2,219.9,168.5,219.9,168.5"/>
		<path fill="#FED520" d="M222.6,176.8c5.1,3.8,8.3-1.7,8.3-1.7l-2.2-1.5c0,0-1.9,1.7-4.4,0.5c-2.5-1.2-1.7-3.7-1.7-3.7l-2.7-1.9
			C219.9,168.5,217.7,173.2,222.6,176.8"/>
		<path fill="#D95E5C" d="M265.6,251.2c0.3-5.7-0.8-7.9-4.1-8.1c-3.2-0.2-4.7,3.9-4.9,5.6c-0.2,1.7-0.8,3.2-0.8,3.2v-0.1
			c0,0-0.7-1.5-0.9-3.2c-0.2-1.7-1.7-5.8-4.9-5.6c-3.2,0.2-4.4,2.4-4.1,8.1c0.3,5.7,3.1,12.5,9.8,12.9v0
			C262.6,263.7,265.3,256.9,265.6,251.2"/>
		<path fill="#005083" d="M320.2,335c-1,0-2.1,0.5-3,1.6c-2.8,3.2-4.6,10.5-4.6,18.7c0,10.7,3.1,20.5,7.6,20.5
			c1.3,0,2.6-0.6,3.6-1.9c2.5-2.9,4-11.4,4-18.7c0-8.2-1.8-15.6-4.6-18.7C322.3,335.5,321.3,335,320.2,335 M321.6,372
			c-0.3,0.3-0.8,0.8-1.4,0.8c-1.2,0-4.6-6-4.6-17.5c0-8.5,2-14.6,3.8-16.7c0.4-0.5,0.7-0.6,0.7-0.6c0,0,0.3,0.1,0.8,0.6
			c1.8,2.1,3.8,8.2,3.8,16.7C324.8,363.1,323.1,370.3,321.6,372"/>
		<path fill="#005083" d="M239.7,332.6l-0.3,0.1v0.2l-0.5,16.6v0.3h0.3c7.7-0.1,8.9-7.3,9-10.5c0.1-1.6-0.6-4.1-2.4-5.6
			C244.4,332.5,242.3,332.1,239.7,332.6 M242.1,346.2c0.1-3.2,0.2-7.9,0.3-10.7c1,0.1,1.4,0.5,1.6,0.7c1,0.8,1.4,2.3,1.3,3.1
			C245.1,342.8,244.1,345.2,242.1,346.2"/>
		<path fill="#005083" d="M451.4,344.2c-3-2.8-5.6-5.2-6.9-7.9c-0.7-1.4-1.3-4.8-0.5-7.1c0.5-1.4,1.3-2,3-2c1,0,1.9,0.7,2.3,1
			l2.4,7.9l2.2,7.3l3.4-6.9l6.7-13.5l0.9-1.8l-1.3-1.5c-0.4-0.4-8.9-10.1-21.5-7c-6,1.5-10.4,5.6-12.7,11.7v-0.1l0.5-3.4h-3.5H384
			h-2.5l-0.4,2.5l-2.9,17.4l-2.9-17.4l-0.4-2.5h-2.5h-34.6h-6.2l3.9,4.9l3.1,3.9l0,3.1c0,0,0,4.6,0,10.9
			c-2.9-13.6-10-22.9-18.4-22.9c-3.8,0-7.4,1.9-10.5,5.4c-1.5,1.7-2.8,3.8-4,6.2l0.6-2.9l2.8-3.2l4.4-5h-6.7h-13.5h-2.7l-0.3,2.7
			l-2.1,19.9l-3-9.7l-3.2-10.2l-2.6,10.4l-2.5,9.6l-2.8-20.1l-0.4-2.6h-2.6h-13.8h-6.8l2.3,2.5c-2.7-1.6-6.6-2.6-10.7-2.6h-16.9
			h-0.3l0-0.1h-3.5h-30.6h-4.5l1.8,4.2l3,7.1l0,3.5c-2.8-13.3-15.4-14.9-19.4-15.1c-3.9-0.2-10.1,0-13.9,0.1l-1.8,0.1l-4.7,0.2l0,0
			h-1.4h-12.8h-2.5l-0.4,2.5l-2.9,16.6l-2.9-16.6l-0.4-2.5h-2.6H111h-2.5h-3.7h-1.4H88.2l0.7-5l0.5-3.4h-3.4H49.2h-3.4l0.4,3.4
			l1.9,14l0.7,5.4l4.2-3.5l6.4-5.3h0.1l0.2,53.2l-2.9,9l-1.3,3.9h4.1h16h4.2l-1.3-4l-2.9-9.1l0.5-52.6l5.9,4.9l4.2,3.5l0.7-5.4
			l0.2-1.2l0.4,0.8l0.2,48l-2.4,7.4l-1.3,4h4.2h8.2l0,0h6.5h13.9h2.7l0.3-2.7l1.8-18.1l5.8,22.3l0.6,2.4h4.6l0.7-2.4l6.2-23.3
			l1.9,19.1l0.3,2.7h2.7h13.3v0h2.9c0.9,0,1.9,0.1,3,0.1c6.6,0.2,16.5,0.6,22.8-5.9c1.9-2,3.4-4.6,4.4-7.4v1.3l-2.4,7.9l-1.2,3.9
			h4.1h30.4h0h4.7h37.5h4.8l-2.1-4.3l-13.6-28.3c2.2-2.1,5.3-5.9,6.2-11.5c0.3-2.1,0.5-3.9,0.4-5.6l10.5,51l0.5,2.5h4.5l0.7-2.1
			l6.1-17.1l6,17.1l0.8,2.1h4.5l0.5-2.6l6.2-31.2c0.2,10.5,2.7,18.9,7.3,24.2c3.4,3.8,7.7,5.9,12.5,5.9c4.8,0,9.1-2,12.5-5.9
			c2.8-3.2,4.8-7.5,6-12.8c0,3.5,0,6.1,0,7.1l-2.4,7.5l-1.3,4h4.2h26.1h3v-3v-14.3V366l-4.7,3.2l-8.3,5.7l-0.5,0v-45.3l1.8-3.3
			l2.8,3.4l15.7,60.7l0.7,2.4h4.6l0.6-2.4l15-56.4l0.2,43.1l-2.4,7.9l-1.2,3.9h4.1h30.6h3v-3v-0.2c2.3,2.3,10.1,8.9,20.8,6.3
			c11.3-2.8,13.6-12,14.4-15.1c2.4-9.4-0.5-16-3.4-20.6C458.8,351.2,454.9,347.5,451.4,344.2 M84,329.5l-7.2-6l-3.6-0.1l-0.5,56.7
			l3.1,9.5h-16l3-9.5l-0.2-56.7l-4.3,0.1l-7.2,6l-1.9-14h36.6L84,329.5z M152.1,325.5l0.6-1l0.3,0.6l3.3,6.7l1.2,47.5l-7.7-50.2
			L152.1,325.5z M103.8,329.5l2.2-4.1l0.9-1.7l1.6,2.1l2.8,3.6l-7.4,48.6l-0.2-0.6V329.5z M144.5,385.9l-3.6-35.5l-10.5,39.2
			l-10-38.7l-3.5,35H103l0,0H88.3l2.5-7.9l-0.2-49.2l-2.5-4.8h15.3l-2.6,4.8v49.2l2.5,7.6l3.2-3.9l8.1-53.1L111,324h13.9l5.8,33.5
			l5.9-33.5h12.9l-2.8,4.6l8.1,53.1l3.6,4.3H144.5z M184.3,381.2c-6.3,6.6-17.7,4.8-23.6,4.8l-1.4-54.9l-3.6-7.3
			c2.9-0.1,10.9-0.4,15.5-0.2c5,0.2,15.3,2.2,16.8,14.2c1.3,9.9-7.2,15.5-7.3,15.6l-0.5,0.3l0.6,0.2c4.6,2.4,7.6,7.3,8.1,10.4
			C189.9,370.4,188.2,377.1,184.3,381.2 M185.3,353.5c2.1-2.2,4.4-5.5,5.4-9.7l0.1,16.8C189.6,358.1,187.8,355.5,185.3,353.5
			 M222,385.9h-30.6l2.6-8.4l-0.2-46l-3.2-7.6h30.6l-1.7,12.2l-5-4.3l-10.2-0.1l-0.4-0.1v0.4l0.2,16.9v0.3h0.3h14l-4.5,9.5l-9.8-3.5
			l-0.2,22.6l9.1-0.1l9.1-6.2V385.9z M225,381.7v-10.1V366l-4.7,3.2l-8.3,5.7l-5.1,0.1l0.1-15.3l5.8,2.1l2.6,0.9l1.2-2.5l4.5-9.6
			l2-4.3h-4.7h-11.3c0-3.1-0.1-8.3-0.1-11.4l6.4,0l4.1,3.6l4.2,3.7l0.8-5.5l1.2-8.2l2.1,4.4l0.3,47L225,381.7z M245.8,384.9
			l-0.7,1.6l-0.9-1.9l-2.2-4.5l-0.2-10.1l5.5,11L245.8,384.9z M256.3,344.5c-1.1,7.2-6.9,11.1-6.9,11.1l14.6,30.4h-15.4l2-5.1
			l-10.4-21l-1.6,0.3l0.4,20.8l2.5,5.1h-15.1l2.5-5.6l-0.3-48.3l-3.8-8h16.9c4.4,0,8.3,1.2,10.3,3
			C254.6,329.4,257.8,334.4,256.3,344.5 M291,389.7l-8.9-25.2l-8.9,25.2L260.5,328l-3.4-3.9h13.8l5,35.3l6.2-24.5l7.4,23.7l3.6-34.4
			h13.5l-3.3,3.9L291,389.7z M330.3,381.2c-2.8,3.2-6.3,4.8-10.3,4.8c-3.9,0-7.5-1.7-10.2-4.8c-4.3-4.9-6.6-13-6.6-23.3
			c0-12.2,3.3-23.6,8.6-29.6c2.5-2.9,5.3-4.3,8.2-4.3c9.3,0,16.9,15.2,16.9,34C336.9,368.2,334.6,376.3,330.3,381.2 M356.1,377.8
			l9.1-6.2v14.3h-26.1l2.6-7.9l-0.2-45v-0.1l-0.1-4.2l-3.7-4.7h16.5l-2.6,4.8v49.1L356.1,377.8z M427.1,385.9h-30.6l2.6-8.4l-0.2-46
			l-2.7-6.4l-1.9,3l-16.4,61.4l-15.9-61.4l-3.6-4.3h13.9l5.8,35.3L384,324h12.9h0h29.4l-1.7,12.2l-4.9-4.3l-10.2-0.1l-0.4-0.1v0.4
			l0.2,16.9l0,0.3h0.3h14l-4.5,9.5l-9.8-3.5l-0.2,22.6l9.1-0.1l9.1-6.2V385.9z M425.4,369.1l-8.3,5.7l-5,0.1l0.1-15.3l5.8,2.1
			l2.6,0.9l1.2-2.5l4.5-9.6l2-4.3h-4.7h-11.3c-0.1-3.1-0.1-8.3-0.1-11.4l6.3,0l4.1,3.6l4.2,3.7l0.8-5.5l0.3-2.4
			c0.4,3.3,1.4,6.8,3.1,9.8c2.5,4.5,7,9.2,10.8,13.4c3,3.2,6.1,6.5,7.1,8.5c1.5,3,2.8,6.4,1.1,9.5c-0.5,0.9-2.6,2.5-3.8,2.4
			c-1.2-0.2-2.1-0.8-2.5-1.1l-2.4-7.8l-2.2-7.3l-3.4,6.8l-5.5,11.3v-7.8V366L425.4,369.1z M462.4,376.3c-1.2,4.8-3.8,10.8-12.2,12.9
			c-11,2.7-18.5-6.1-18.5-6.1l6.7-13.5l2.6,8.6c0,0,1.9,2.2,4.9,2.5c2.6,0.3,5.8-2.2,6.7-3.9c2.4-4.4,0.5-9.1-1.1-12.3
			c-2.6-5.2-13.6-14.2-18-22.1c-2.4-4.3-3.3-9.6-2.6-13.1c0.8-4.1,3.2-11.5,11.7-13.6c11-2.7,18.5,6.1,18.5,6.1l-6.7,13.5l-2.6-8.6
			c0,0-1.9-2.5-4.9-2.5c-3.8-0.1-5.3,2.2-5.9,4.1c-1,3-0.4,7.2,0.7,9.4c3.3,6.5,12,11,17.6,20.3
			C462.4,362.9,464.3,368.5,462.4,376.3"/>
		<path fill="#005083" d="M176.5,359.7c-2.6-2.1-6.6-1.9-6.6-1.9v19.9c0,0,4.3,0.5,6.8-1.6c2.1-1.8,3.5-4.3,3.7-8.3
			C180.6,364.2,178.4,361.2,176.5,359.7 M174.8,373.8c-0.5,0.4-1.1,0.6-1.8,0.8v-13.3c0.6,0.2,1.2,0.5,1.7,0.8
			c1.3,1,2.8,3.1,2.7,5.6C177.3,371.3,175.9,372.8,174.8,373.8"/>
		<path fill="#005083" d="M179.2,340.8c-0.3-7.8-5.2-8-7.9-8.1l-0.7,0l-0.4,0v0.4v16.5C170.2,349.4,179.5,350.5,179.2,340.8
			 M173.2,335.9c1.7,0.4,2.8,1.4,2.9,5c0.1,2-0.3,3.4-1.3,4.3c-0.5,0.4-1.1,0.7-1.7,0.9V335.9z"/>
		<path fill="#FFFFFF" d="M320,323.8c-2.9,0-5.7,1.5-8.2,4.3c-5.3,6-8.6,17.4-8.6,29.7c0,10.4,2.3,18.4,6.6,23.3
			c2.8,3.2,6.3,4.8,10.2,4.8c3.9,0,7.5-1.7,10.3-4.8c4.3-4.9,6.6-13,6.6-23.3C336.9,339.1,329.3,323.8,320,323.8 M323.8,374
			c-1,1.2-2.3,1.9-3.6,1.9c-4.5,0-7.6-9.9-7.6-20.5c0-8.2,1.8-15.6,4.6-18.7c0.9-1.1,2-1.6,3-1.6c1.1,0,2.1,0.5,3,1.6
			c2.8,3.2,4.6,10.5,4.6,18.7C327.8,362.6,326.4,371.1,323.8,374"/>
		<polygon fill="#FFFFFF" points="306.6,324.2 293.1,324.2 289.4,358.6 282.1,334.9 275.8,359.5 270.9,324.2 257.1,324.2 260.5,328 
			273.2,389.7 282.1,364.4 291,389.7 303.2,328 		"/>
		<polygon fill="#FFFFFF" points="146.7,328.6 149.5,324 136.7,324 130.7,357.5 124.9,324 111,324 114.6,328.6 106.5,381.7 
			103.3,385.6 100.8,377.9 100.8,328.8 103.4,324 88.1,324 90.6,328.8 90.8,378 88.3,385.9 103,385.9 103,385.9 116.9,385.9 
			120.4,350.9 130.4,389.7 140.9,350.4 144.5,385.9 158.4,385.9 154.8,381.7 		"/>
		<path fill="#FFFFFF" d="M180.7,354l-0.6-0.3l0.5-0.3c0.1-0.1,8.6-5.6,7.3-15.6c-1.5-12-11.9-14-16.8-14.2
			c-4.5-0.2-12.6,0.1-15.5,0.2l3.6,7.3l1.4,54.9c5.9,0,17.3,1.7,23.6-4.8c3.9-4,5.6-10.7,4.5-16.8
			C188.3,361.2,185.3,356.3,180.7,354 M170.2,332.9v-0.4l0.4,0l0.7,0c2.7,0.1,7.6,0.4,7.9,8.1c0.4,9.7-9,8.7-9,8.7V332.9z
			 M176.8,376.1c-2.5,2.2-6.8,1.6-6.8,1.6v-19.9c0,0,3.9-0.1,6.6,1.9c1.9,1.4,4,4.4,3.9,8.1C180.2,371.8,178.9,374.3,176.8,376.1"/>
		<polygon fill="#FFFFFF" points="409,377.9 409.2,355.4 419,358.8 423.5,349.3 409.5,349.3 409.2,349.3 409.2,348.9 409,332.1 
			409,331.6 409.4,331.7 419.5,331.8 424.5,336.1 426.2,324 396.9,324 396.9,324 384,324 378.1,359.3 372.3,324 358.4,324 
			361.9,328.2 377.8,389.7 394.2,328.2 396.1,325.2 398.8,331.6 399,377.6 396.5,385.9 427.1,385.9 427.1,371.6 418,377.8 		"/>
		<polygon fill="#FFFFFF" points="203.8,377.9 204.1,355.4 213.9,358.8 218.4,349.3 204.4,349.3 204.1,349.3 204.1,348.9 
			203.8,332.1 203.8,331.6 204.2,331.7 214.4,331.8 219.4,336.1 221.1,324 190.5,324 193.7,331.6 193.9,377.6 191.3,385.9 
			222,385.9 222,371.6 212.9,377.8 		"/>
		<polygon fill="#FFFFFF" points="351.6,328.8 354.2,324 337.6,324 341.4,328.7 341.4,332.8 341.4,332.9 341.6,378 339.1,385.9 
			365.2,385.9 365.2,371.6 356.1,377.8 351.6,377.9 		"/>
		<path fill="#FFFFFF" d="M252.1,327.1c-2-1.9-5.9-3-10.3-3h-16.9l3.8,8l0.3,48.3l-2.5,5.6h15.1l-2.5-5.1l-0.4-20.8l1.6-0.3
			l10.4,21.1l-2,5.1h15.4l-14.6-30.4c0,0,5.8-3.9,6.9-11.1C257.8,334.4,254.6,329.4,252.1,327.1 M239.3,349.9l-0.3,0v-0.3l0.5-16.6
			v-0.2l0.3-0.1c2.6-0.5,4.7-0.1,6.3,1.3c1.7,1.5,2.4,3.9,2.4,5.6C248.2,342.6,247,349.8,239.3,349.9"/>
		<path fill="#FFFFFF" d="M441.7,337.7c-1.1-2.2-1.7-6.4-0.7-9.4c0.6-1.9,2.1-4.1,5.9-4.1c3.1,0.1,4.9,2.5,4.9,2.5l2.6,8.6l6.7-13.5
			c0,0-7.6-8.8-18.5-6.1c-8.4,2.1-10.9,9.5-11.7,13.6c-0.7,3.5,0.1,8.8,2.6,13.1c4.4,7.8,15.5,16.9,18,22.1
			c1.6,3.2,3.5,7.8,1.1,12.3c-0.9,1.6-4.1,4.2-6.7,3.9c-3.1-0.3-4.9-2.5-4.9-2.5l-2.6-8.6l-6.7,13.5c0,0,7.5,8.8,18.5,6.1
			c8.4-2.1,11-8,12.2-12.9c1.9-7.8,0-13.4-3-18.4C453.7,348.7,445,344.2,441.7,337.7"/>
		<polygon fill="#FFFFFF" points="51.1,329.5 58.3,323.6 62.6,323.4 62.8,380.2 59.8,389.7 75.8,389.7 72.7,380.1 73.2,323.4 
			76.8,323.6 84,329.5 85.8,315.5 49.2,315.5 		"/>
		<path fill="#00A94F" d="M135.2,244l-0.1,0.2l4.9,9.1c-1.1,0.6-2.5,1.1-3.7,1.4c-1.2,0.3-2.2,0.4-2.2,0.4l16.5,27.9h5.9l-2.9-13.5
			h6.9l-8.9-25.5l5.2-0.7l-10-31.1L132.3,239l2.6,4.9L135.2,244z"/>
		<polygon fill="#00A94F" points="93.8,303 100.6,283.1 123.3,283.1 112.4,249.7 119.2,248.8 106.1,207.9 84.2,248.1 90.8,249.6 
			71.3,283 78.8,283 67.7,303 		"/>
		<path fill="#00A94F" d="M176.1,273.6L176.1,273.6l4.9,9.3h8.3l-4-18.3h5.7l-7.3-20.9l4.2-0.5l-8.2-25.5l-11.5,21.1l4.4,8
			c-0.8,0.5-1.9,0.8-2.8,1c-1,0.2-1.7,0.3-1.7,0.3l14.1,23.8c-1.5,0.9-5,1.5-6,1.7L176.1,273.6z"/>
		<polygon fill="#00A94F" points="354.1,243.2 349.3,251.3 339.5,267.9 345.6,268.9 341.6,276.6 338.2,283 362.5,283 363.8,269.5 
			370.3,269.1 366.3,243.3 371.6,242.7 365.4,212.3 348.9,242.5 		"/>
		<polygon fill="#00A94F" points="332.4,217.6 318.9,242.5 323.2,243.1 319.3,249.7 311.2,263.3 316.2,264.1 312.9,270.4 306.2,283 
			327.5,283 329.4,263.5 334.8,263.1 332.1,242.7 336.5,242.1 		"/>
		<path fill="#00A94F" d="M415.4,311l9.1-0.1c0,0,3.4-5.6,7.9-7.4l-10-21.1l6.7-1.4c-3.2-5.9-11.2-24-14.6-31.3l6.4-0.9l-14.8-40.9
			l-21.6,39.8l6.9,0.9L372.6,283l32.1,0.1L415.4,311z"/>
	</g>
</g>
</svg>
