<?xml version="1.0" encoding="utf-8"?>
<!-- Generator: Adobe Illustrator 18.0.0, SVG Export Plug-In . SVG Version: 6.00 Build 0)  -->
<!DOCTYPE svg PUBLIC "-//W3C//DTD SVG 1.1//EN" "http://www.w3.org/Graphics/SVG/1.1/DTD/svg11.dtd">
<svg version="1.1" xmlns="http://www.w3.org/2000/svg" xmlns:xlink="http://www.w3.org/1999/xlink" x="0px" y="0px" width="512px"
	 height="512px" viewBox="0 0 512 512" enable-background="new 0 0 512 512" xml:space="preserve">
<g id="white_block">
	<rect opacity="0" fill="#FFFFFF" width="512" height="512"/>
</g>
<g id="Logos">
	<g>
		<path fill="#B4975A" d="M479.2,216.4l1.4,0.6v-25.5c0-4-0.7-8-2.1-11.9c-1.4-3.9-3.4-7.6-5.9-11c-2.3-3-5-5.8-8-8.1
			c-2.7-2.1-5.5-3.9-8.6-5.3c-2-1.3-5.9-3.2-16.3-7.3c-8.9-3.5-23.3-8.9-41.8-14.4c-17-5.1-38.7-10.6-63-14.7c0,0,0,0,0,0
			c-0.2-0.2-16.4-20.5-40.9-10c-0.8,0.4-1.6,0.8-2.5,1.2c-3.7,1.8-6.8,3.3-13,1.7c-3.7-1-8.3-3.2-6.4-11.4c0.4-1.8,1.9-4.3,4.1-5.6
			c1.5-0.9,3.2-1.1,5-0.6c3.3,1,4.6,2.7,4.2,5.4c-0.2,1-1,2-1.9,2.4c-1,0.4-2.1,0.2-3.4-0.7c-1.2-0.8-2.8-0.5-3.6,0.7
			c-0.8,1.2-0.5,2.8,0.7,3.6c2.7,1.8,5.6,2.3,8.3,1.2c2.5-1.1,4.5-3.5,5-6.3c0.4-2,0.8-8.7-7.8-11.3c-3.1-0.9-6.3-0.5-9.1,1.1
			c-3.1,1.8-5.7,5.3-6.5,8.8c0,0.1,0,0.2-0.1,0.3c-1.1-1.5-2.1-2.6-2.6-3.1l-8.5-8.6l-8.5,8.6c-0.6,0.6-1.5,1.6-2.6,3.1
			c0-0.1,0-0.2-0.1-0.3c-0.8-3.5-3.4-7-6.5-8.8c-2.8-1.6-5.9-2-9.1-1.1c-8.7,2.5-8.2,9.3-7.8,11.3c0.5,2.7,2.4,5.2,5,6.3
			c2.6,1.1,5.6,0.7,8.3-1.2c1.2-0.8,1.5-2.4,0.7-3.6c-0.8-1.2-2.4-1.5-3.6-0.7c-1.3,0.9-2.4,1.1-3.4,0.7c-0.9-0.4-1.7-1.4-1.9-2.4
			c-0.5-2.7,0.9-4.5,4.2-5.4c1.8-0.5,3.5-0.3,5,0.6c2.2,1.3,3.7,3.7,4.1,5.6c1.9,8.2-2.7,10.4-6.4,11.4c-6.2,1.7-9.4,0.1-13-1.7
			c-0.8-0.4-1.6-0.8-2.5-1.2c-24.5-10.5-40.7,9.8-40.9,10c0,0-0.1,0.1-0.1,0.1c-23.3,4-44.2,9.3-60.7,14.1
			c-31.6,9.3-56.9,20.8-58,21.3l-3.3,1.5l0,0.6c-1.5,0.2-2.9,0.7-4.4,1.4c-5.4,2.5-10.8,5.1-16,7.8l-3.9,2v13.9c0,3.3,0.7,6.1,2,8.3
			c0.3,0.5,0.6,0.9,0.9,1.3v15.3c-1.8,3.4-2.7,6.9-2.7,10.3c0,3.4,0.9,6.3,2.7,8.7v32l0.3,0.9c0.3,0.7,5.3,14.3,20.5,19.8l-0.4,0.2
			c0,0,8,13,20.4,15.7l-2.4,1c0,0,8.8,14.2,25.7,17.1l-2.5,1.2c0,0,10.9,11.8,28,14c18,56.2,70.8,97,132.9,97
			c62.1,0,114.8-40.8,132.9-97c17-2.2,28-14,28-14l-2.5-1.2c17-3,25.7-17.1,25.7-17.1l-2.4-1c12.4-2.7,20.4-15.7,20.4-15.7l0.8-1.1
			c14.2-6,22.4-19.9,22.4-32.9v-16.3C481.4,224.1,480.4,220.1,479.2,216.4z M326.1,117.4c-10-1.5-20.4-2.7-31-3.5
			c0.3-0.1,0.6-0.3,0.9-0.4C309.8,107.6,320.4,113,326.1,117.4z M215.9,113.5c0.3,0.1,0.6,0.3,1,0.5c-10.6,0.8-21,2.1-31.1,3.6
			C191.6,113.1,202.2,107.7,215.9,113.5z"/>
		<g>
			<path fill="#002B5C" d="M467.4,205.5l7.5,3v-17.1c0-3.4-0.6-6.7-1.7-10c-1.2-3.4-2.9-6.5-5.1-9.4c-2-2.7-4.4-5-7-7.1
				c-2.4-1.9-5.1-3.5-7.9-4.8c-1.5-1.1-5.3-2.9-15.6-7c-8.8-3.5-23-8.8-41.3-14.2c-30.1-9-75.4-19.6-122.7-20.3
				c-1.1-3.3-3.8-5.7-7.4-6.6c-0.4-6.2-4.9-11-5.8-11.9l-4.4-4.5l-4.4,4.5c-0.9,0.9-5.4,5.8-5.8,11.9c-3.5,0.8-6.2,3.3-7.4,6.5
				c-46.5,0.8-90.9,11.1-120.5,19.8c-31.5,9.3-57.2,21-57.2,21l0,3.5c0,0-0.4-0.3-0.7-0.4c-0.9-0.4-1.8-0.7-2.9-0.7
				c-1.3,0-2.7,0.4-4.2,1c-5.3,2.5-10.6,5-15.8,7.7l-0.8,0.4v10.4c0,2.3,0.4,4.1,1.2,5.5c0.4,0.8,1,1.4,1.6,2v19
				c-1.7,2.9-2.7,6-2.7,8.8c0,2.8,0.9,5,2.7,6.4v33.2c0,0,5,13.8,20.8,17.5c0.4,0.1,0.8,0.2,1.1,0.3c0,0,0.1,0,0.1,0
				c2.5,0.6,5.2,0.8,8.2,0.6c0,0,0,0,0,0c-2.8,1.4-5.6,2.8-8.4,4.2c0,0.2,8.3,13.8,28.3,11.8c-3.3,1.6-6.6,3.2-9.9,4.8
				c0,0.2,9.6,13.6,30.7,13.2c-4.9,2.4-7.8,4-7.8,4c0,0.1,9.5,9.3,25.5,10.4c16.5,55.2,67.7,95.4,128.2,95.4
				c60.5,0,111.7-40.2,128.2-95.4c16-1.1,25.5-10.3,25.5-10.4c0,0-2.9-1.6-7.8-4c21.1,0.4,30.6-13,30.7-13.2
				c-3.3-1.7-6.6-3.3-9.9-4.8c20,2,28.3-11.7,28.3-11.8c-2.8-1.4-5.6-2.8-8.4-4.2c6.8,0.5,12.4-1.4,16.6-3.9
				c10.7-5.8,16.5-16.9,16.5-26.5v-16.3C475.7,217.6,467.4,205.5,467.4,205.5z"/>
			<g>
				<path fill="#E31837" d="M345.1,334.7c2.5,1.9,5,3.8,7.5,5.8c0-0.3-29.8,8.2-51-1.2c-0.8-0.3-1.5-0.7-2.3-1.1
					c-5.3,19-22.7,33-43.4,33c-20.7,0-38.1-14-43.4-33c-0.7,0.4-1.5,0.8-2.3,1.1c-21.2,9.3-51,0.9-51,1.2c2.5-1.9,5-3.9,7.5-5.8
					c-10.4,1.5-19.9-0.4-26.5-2.4c18.7,45.5,63.4,77.5,115.6,77.5c52.2,0,96.9-32,115.6-77.5C364.9,334.3,355.4,336.2,345.1,334.7z"
					/>
			</g>
			<g>
				<path fill="#FFFFFF" d="M243.6,131.7c-2.3-1.1-4-3.1-4.9-5.5C163.7,128.1,89,155,89.1,156c-3.3,1.2-5,4.1-5,5.9v2.7
					c51.6-20,105.5-30.6,159.5-32L243.6,131.7z"/>
				<path fill="#FFFFFF" d="M427.5,157.9c0.2-1.1-78.3-29.8-154.2-31.7c-0.9,2.4-2.7,4.3-4.9,5.4v1c55.6,1.6,111,12.9,164.1,33.9
					v-2.7C432.5,162,430.8,159.2,427.5,157.9z"/>
			</g>
			<path fill="#E31837" d="M264.2,118.1c-4.9-0.6-5.7,6.3-5.8,8.7h-1.5c0-6.6,3.2-9.2,3.2-13.7c0-4.4-4-8.5-4-8.5s-4,4.1-4,8.5
				c0,4.4,3.1,7.1,3.2,13.7h-1.5c-0.1-2.3-0.9-9.2-5.8-8.7c-5.2,0.6-4.7,7.9,0,8.5c0,0-0.9-3.2,1.7-3.2c1.9,0,2.4,2.2,2.5,3.4h-2.2
				h-0.1v2.5h0.1h5c-0.7,2.4-2.3,3.2-2.3,3.2s0.7,1.4,2.2,1.6c0,0,0,1.7,1.3,3c1.3-1.3,1.3-3,1.3-3c1.5-0.2,2.2-1.6,2.2-1.6
				s-1.6-0.7-2.3-3.2h5h0.1v-2.5h-0.1H260c0.1-1.2,0.6-3.4,2.5-3.4c2.6,0,1.7,3.2,1.7,3.2C268.9,126,269.5,118.7,264.2,118.1"/>
			<g>
				<path fill="#FFFFFF" d="M240.2,168.6v-16.2c0-2.3-0.4-4.2-1.2-5.9c-0.8-1.7-2-3-3.4-4c-1.4-1-3.1-1.8-5.1-2.2
					c-2-0.4-4.1-0.6-6.3-0.4c-2.2,0.1-4.3,0.6-6.3,1.3c-1.9,0.7-3.6,1.7-5.1,2.9c-1.5,1.2-2.6,2.7-3.4,4.5c-0.8,1.8-1.2,3.8-1.2,6
					v16.2c-1.7,0.4-3,2-3,3.7c0,1.7,1.3,3,3,3.1v18.2c0,2.3,0.4,4.2,1.2,5.8c0.8,1.6,2,2.9,3.4,3.9c1.5,1,3.2,1.7,5.1,2.1
					c1.9,0.4,4,0.5,6.3,0.3c2.3-0.2,4.3-0.5,6.3-1.2c1.9-0.6,3.6-1.5,5.1-2.7c1.4-1.2,2.6-2.6,3.4-4.4c0.8-1.7,1.2-3.7,1.2-6v-18.1
					c1.8-0.2,3.2-1.7,3.2-3.5C243.4,170.1,242,168.7,240.2,168.6z M231.3,193.6c0,1.2-0.2,2.2-0.6,3c-0.4,0.8-1,1.5-1.6,2
					c-0.7,0.5-1.4,1-2.2,1.2c-0.8,0.3-1.7,0.5-2.5,0.5c-0.9,0.1-1.7,0-2.6-0.2c-0.8-0.2-1.6-0.5-2.3-0.9c-0.7-0.5-1.2-1.1-1.6-1.8
					c-0.4-0.8-0.6-1.7-0.6-2.9V154c0-1.2,0.2-2.2,0.6-3c0.4-0.8,1-1.5,1.6-2.1c0.7-0.6,1.4-1,2.3-1.3c0.8-0.3,1.7-0.5,2.6-0.5
					c0.9-0.1,1.7,0,2.5,0.2c0.8,0.2,1.6,0.5,2.2,1c0.7,0.5,1.2,1.1,1.6,1.9c0.4,0.8,0.6,1.8,0.6,2.9V193.6z"/>
				<path fill="#FFFFFF" d="M68.5,212.2c0,0.2,0,0.2-0.1,0.1c-0.1-0.1-0.2-0.2-0.2-0.3c-0.2-0.7-10.9-36.1-11.5-37.7
					c-0.6-1.6-0.8-2.5-0.8-2.6c-0.2-0.5-0.4-0.9-0.8-1c-0.3-0.2-0.9-0.1-1.5,0.2c-3.2,1.5-6.4,3-9.6,4.6v2.9c0,1,0.1,1.8,0.4,2.2
					s0.6,0.8,1,1c0.4,0.2,0.9,0.3,1.4,0.3v27c-1.5,1-2.7,3-2.7,4.7c0,1.7,1.2,2.5,2.7,2.1v38.1c2.5-1.2,5-2.4,7.5-3.5v-47.8
					c0-0.4,0-0.5,0.1-0.5c0.1,0,0.1,0.1,0.2,0.2c0,0.1,0.3,0.9,0.8,2.5c0.6,1.6,11,36.4,11.1,36.6c0.3,0.9,0.6,1.6,0.9,2.1
					c0.3,0.5,0.8,0.6,1.6,0.3c1.7-0.7,3.3-1.4,5-2.1c0.7-0.3,1.2-0.7,1.6-1.3c0.3-0.6,0.5-1.2,0.5-1.8v-35.8c1.4-1,2.4-2.7,2.4-4.3
					c0-1.6-1-2.5-2.4-2.4v-26.5c0.1-0.6,0.2-1,0.3-1.3c0.1-0.3,0.3-0.6,0.6-0.9c0.5-0.5,0.9-1.2,1.4-2.1c0.5-0.8,0.7-1.8,0.7-2.8
					V160c-3.5,1.4-7,2.9-10.5,4.4V212.2z"/>
				<path fill="#FFFFFF" d="M422.2,212.8c0,0.2,0,0.2-0.1,0c-0.1-0.2-0.2-0.3-0.2-0.4c-0.2-0.9-0.7-2.6-1.4-5.1
					c-0.7-2.6-1.5-5.5-2.4-8.9c-0.9-3.4-1.9-6.9-2.9-10.6c-1-3.7-2-7.1-2.8-10.2c-0.9-3.1-1.6-5.7-2.2-7.8c-0.6-2.1-0.9-3.2-0.9-3.3
					c-0.2-0.7-0.4-1.2-0.8-1.6c-0.4-0.4-0.9-0.8-1.6-1c-3.3-1.1-6.6-2.2-10-3.2v2.9c0,1,0.1,1.9,0.4,2.6c0.3,0.7,0.7,1.3,1.1,1.8
					c0.4,0.5,0.9,1,1.5,1.4v21c-1.6-0.2-2.8,0.8-2.8,2.5c0,1.7,1.2,3.5,2.8,4.3v30.9c2.6,0.8,5.2,1.6,7.7,2.5v-42.4
					c0-0.4,0-0.5,0.1-0.4c0.1,0.1,0.1,0.2,0.2,0.3c0,0.1,0.3,1.1,0.9,3.2c0.6,2.1,1.3,4.6,2.2,7.7c0.9,3.1,1.8,6.4,2.8,10
					c1,3.6,2,7,2.9,10.2c0.9,3.2,1.7,5.9,2.3,8.2c0.6,2.3,1,3.6,1.1,3.9c0.3,1.1,0.6,2.1,0.9,2.8c0.3,0.8,0.9,1.3,1.6,1.6
					c1.7,0.6,3.4,1.3,5,1.9c0.7,0.3,1.2,0.2,1.6-0.1c0.3-0.3,0.5-0.8,0.5-1.4v-28.6c1.4,0.1,2.5-0.8,2.5-2.4c0-1.6-1-3.3-2.5-4.3
					v-20.5c0.1-0.5,0.2-0.9,0.3-1c0.1-0.2,0.3-0.3,0.6-0.5c0.5-0.2,0.9-0.5,1.4-1c0.5-0.5,0.7-1.2,0.7-2.2v-2.6
					c-3.5-1.4-7.1-2.7-10.6-4V212.8z"/>
				<path fill="#FFFFFF" d="M466.4,219.6c-1.1-2.4-2.4-4.7-4-6.9c-1.3-1.9-2.8-3.7-4.3-5.4c0.1-0.2,0.1-0.5,0.1-0.8
					c0-1.9-1.5-4.2-3.3-5c-0.8-0.4-1.5-0.4-2.1-0.1c-0.3-0.3-0.6-0.6-0.8-0.9c-1.6-1.8-2.9-3.5-4-5c-1.1-1.5-1.6-2.9-1.6-4.1v-14.1
					c0-0.7,0.2-1.1,0.6-1.5c0.4-0.3,0.9-0.5,1.5-0.6c0.6-0.1,1.3-0.1,2,0.1c0.7,0.1,1.3,0.3,2,0.6c0.6,0.3,1.2,0.6,1.9,1.1
					c0.7,0.5,1.4,1,2,1.6c0.6,0.6,1.1,1.3,1.5,2c0.4,0.7,0.6,1.4,0.6,2.1v3.3c0,1.4,0.5,2.8,1.4,4.2c1,1.4,2.1,2.4,3.6,3.1
					c1.3,0.6,2.5,1.2,3.8,1.8v-6.6c0-2.2-0.4-4.4-1.1-6.4c-0.7-2-1.8-3.9-3.1-5.7c-1.3-1.7-2.9-3.3-4.7-4.7
					c-1.8-1.4-3.7-2.6-5.8-3.5c-2.1-0.9-4-1.5-5.8-1.8c-1.8-0.3-3.3-0.1-4.6,0.4c-1.3,0.5-2.4,1.5-3.1,2.9c-0.7,1.4-1.1,3.3-1.1,5.6
					v11.6c0,2.5,0.5,4.8,1.6,7c1.1,2.2,2.4,4.3,4,6.2c1.6,1.9,3.3,3.8,5.1,5.7c-0.2,0.3-0.3,0.8-0.3,1.3c0,1.9,1.5,4.1,3.4,5
					c1,0.5,1.9,0.4,2.5-0.1c1.5,1.7,2.7,3.5,3.7,5.2c1,1.9,1.6,3.8,1.6,5.7v16.7c0,0.8-0.2,1.4-0.6,1.8c-0.4,0.4-1,0.7-1.7,0.8
					c-0.7,0.1-1.4,0.1-2.2,0.1c-0.8-0.1-1.6-0.3-2.3-0.6c-0.7-0.3-1.5-0.8-2.3-1.4c-0.8-0.6-1.5-1.2-2.2-1.9
					c-0.7-0.7-1.2-1.4-1.6-2.2c-0.4-0.8-0.6-1.5-0.6-2.3V230c0-1.4-0.4-2.6-1.2-3.6c-0.8-1.1-1.9-1.9-3.5-2.6
					c-1.4-0.6-2.8-1.1-4.1-1.7v6.7c0,2.3,0.4,4.4,1.3,6.4c0.8,2,2,3.9,3.4,5.6c1.4,1.7,3,3.2,4.9,4.5c1.9,1.3,3.9,2.5,6,3.4
					c2.1,0.9,4.1,1.6,6,1.9c1.9,0.3,3.5,0.3,4.9-0.1c1.4-0.4,2.5-1.3,3.4-2.5c0.8-1.3,1.3-3,1.3-5.3v-16
					C468,224.3,467.4,221.9,466.4,219.6z"/>
				<path fill="#FFFFFF" d="M166.3,181.2c-0.4,3.1-0.7,6.2-1.1,9.3c-0.4,3-0.7,5.7-1,8.1c-0.3,2.4-0.5,4.3-0.7,5.7
					c-0.2,1.5-0.3,2.2-0.4,2.2c-0.7-4.2-1.4-7.9-1.9-11.3c-0.6-3.3-1.2-7-1.9-11.1c-0.7-4.1-1.4-8.1-2.1-12.1c-0.7-4-1.4-7.6-2-11
					c-0.6-3.4-1.2-6.1-1.7-8c-0.1-0.6-0.7-1-1.7-1.2c-1-0.2-2-0.2-3,0.1c-0.9,0.2-1.8,0.6-2.8,1.1c-1,0.6-1.6,1.3-1.7,2.1
					c-0.5,2.1-1,4.9-1.7,8.6c-0.6,3.7-1.3,7.7-2,12c-0.7,4.3-1.4,8.7-2.1,13.1c-0.7,4.4-1.3,8.5-1.9,12.1c-0.6,3.6-1.2,7.7-1.9,12.3
					c-0.1,0-0.2-0.7-0.4-2c-0.2-1.4-0.4-3.2-0.7-5.4c-0.3-2.2-0.6-4.8-0.9-7.7c-0.4-2.9-0.7-5.8-1.1-8.8c-0.8-7-3.7-32.3-3.7-32.3
					c-3.6,1-7.2,2.1-10.8,3.2v2.7c0,1,0.2,1.8,0.6,2.3c0.4,0.5,0.9,0.9,1.3,1c0.3,0.2,0.6,0.3,0.8,0.6c0.2,0.2,0.4,0.6,0.5,1
					c0.9,7.1,1.6,13.7,2.4,19.8c-1.3,0.9-2.1,2.4-2.1,3.8c0,1.7,1.3,2.8,2.9,2.6c0,0.1,0,0.2,0,0.4c0.4,3.4,0.8,6.7,1.2,9.9
					c0.4,3.2,0.7,6.1,1.1,8.6c0.3,2.5,0.6,4.6,0.8,6.2c0.2,1.6,0.3,2.5,0.3,2.6c0.1,0.5,0.3,0.9,0.6,1.2c0.3,0.4,0.8,0.5,1.4,0.3
					c3.4-0.9,6.7-1.8,10.1-2.7c0.7-0.2,1.2-0.5,1.5-0.9c0.4-0.4,0.7-1.1,1-1.9c2.5-15,5.1-30.1,7.6-45.1c2.5,13.9,5,27.7,7.5,41.7
					c0.3,0.7,0.6,1.2,1,1.5c0.4,0.3,0.9,0.3,1.5,0.2c3.4-0.7,6.7-1.3,10.1-2c0.6-0.1,1.1-0.4,1.4-0.9c0.3-0.5,0.5-1,0.6-1.5
					c0-0.1,0.1-1,0.3-2.7c0.2-1.7,0.5-3.9,0.8-6.6c0.3-2.7,0.7-5.7,1.1-9.1c0.4-3.4,0.8-6.9,1.2-10.4c0-0.1,0-0.3,0-0.4
					c1.7-0.6,3-2.2,3-3.9c0-1.4-0.9-2.5-2.2-2.8c0.7-6.4,1.5-13.4,2.4-20.9c0.1-0.5,0.3-0.9,0.5-1.2c0.2-0.3,0.5-0.6,0.8-0.9
					c0.5-0.4,0.9-0.9,1.4-1.6c0.4-0.7,0.6-1.6,0.6-2.6v-2.7c-3.7,0.6-7.4,1.2-11,1.9C170.1,147.2,167.1,173.8,166.3,181.2z"/>
				<path fill="#FFFFFF" d="M388.9,190.5c0-1.7-1.3-3.5-2.9-4.3c-0.4-2.5-0.8-4.9-1.2-7.3c-0.6-3.4-1.1-6.4-1.5-9.1
					c-0.4-2.7-0.8-4.9-1.1-6.7c-0.3-1.7-0.5-2.7-0.5-3c-0.1-1.1-0.6-2.2-1.4-3.2c-0.8-1-1.9-1.7-3.3-2.1c-4-1-8-2-12-2.9v2
					c0,2.5,0.7,4.3,2.2,5.2c0.3,0.2,0.5,0.5,0.5,0.9c0,0.4,0,0.8-0.1,1.3c0,0.1-0.1,0.8-0.4,2.1c-0.3,1.4-0.6,3.1-1.1,5.3
					c-0.4,2.2-0.9,4.7-1.5,7.5c-0.3,1.4-0.5,2.7-0.8,4.1c-1.9-0.4-3.5,0.8-3.5,2.7c0,1.5,0.9,2.9,2.2,3.7
					c-1.7,8.6-5.8,29.7-5.8,29.7c2.9,0.6,5.7,1.3,8.6,1.9c0,0,2.5-14.4,2.5-14.7c0.1-1.2,0.7-1.6,1.6-1.4c3.4,0.8,6.8,1.7,10.2,2.6
					c0.5,0.1,1,0.4,1.3,0.7c0.4,0.3,0.6,0.9,0.7,1.6c0,0.3,2,15.8,2,15.8c3,0.8,6,1.7,8.9,2.6c0,0-3.7-22-5.5-32.9
					C388.2,192.7,388.9,191.8,388.9,190.5z M379.9,197.3c-0.2,0.2-0.6,0.3-1,0.2c-2.8-0.7-5.6-1.5-8.4-2.1c-0.4-0.1-0.7-0.3-0.9-0.6
					c-0.2-0.3-0.3-0.7-0.3-1.1c0-0.1,0.1-0.5,0.2-1.5c0.1-0.9,0.3-2.1,0.6-3.5c0.2-1.4,0.5-3,0.8-4.8c0.3-1.8,0.6-3.6,1-5.5
					c0.9-4.9,1.8-9.9,2.7-14.8c0.1,0,0.1,0,0.2,0c0.9,5.4,1.8,10.8,2.7,16.2c0.4,2,0.7,4,1,6c0.3,1.9,0.6,3.7,0.8,5.2
					c0.2,1.5,0.4,2.8,0.6,3.8c0.2,1,0.3,1.5,0.3,1.6C380.2,196.8,380.1,197.1,379.9,197.3z"/>
				<path fill="#FFFFFF" d="M280.2,199.7c-0.3-0.2-0.6-0.4-0.8-0.5c-0.2-0.2-0.3-0.5-0.3-1.1v-15.2c0-2.2-0.3-4.2-1-6
					c-0.7-1.8-1.7-3.2-3.1-4.3c-0.7-0.7-0.7-1.3-0.2-1.8c1.3-1,2.3-2.2,3.1-3.7c0.8-1.5,1.2-3.2,1.2-5.1v-7c0-2.2-0.3-4.2-0.8-6
					c-0.6-1.8-1.4-3.4-2.6-4.8c-1.2-1.4-2.7-2.4-4.5-3.2c-1.8-0.8-4-1.2-6.7-1.3c-6.3-0.1-12.6-0.1-18.8,0v2.6
					c0,1.2,0.2,2.2,0.7,2.8c0.5,0.6,0.9,1.1,1.4,1.4c0.2,0.1,0.5,0.3,0.6,0.6c0.2,0.3,0.3,0.6,0.3,1.1v20.3
					c-1.6,0.4-2.8,1.8-2.8,3.5c0,1.7,1.2,3,2.8,3.3V206c3,0,6,0,9,0v-29.3c0-0.8,0.4-1.2,1.2-1.2c1.9,0,3.8,0,5.7,0.1
					c2,0,3.4,0.6,4.3,1.8c0.9,1.2,1.3,2.8,1.3,4.9v19.6c0,1.3,0.4,2.4,1.2,3.2c0.8,0.8,1.9,1.3,3.5,1.3c2.5,0.1,5.1,0.2,7.6,0.4
					v-3.5c0-1.1-0.2-1.8-0.7-2.3C281.1,200.4,280.7,200,280.2,199.7z M270,161.5c0,2.1-0.4,3.7-1.3,4.9c-0.9,1.2-2.3,1.8-4.3,1.8
					c-1.9,0-3.8-0.1-5.8-0.1c-0.2,0-0.5-0.1-0.7-0.3c-0.2-0.2-0.4-0.4-0.4-0.7v-19c0-0.8,0.5-1.2,1.5-1.2c1.8,0,3.6,0,5.4,0.1
					c2,0,3.4,0.7,4.3,1.9c0.9,1.2,1.3,2.9,1.3,5V161.5z"/>
				<path fill="#FFFFFF" d="M308.7,182.8c-0.9,0.3-1.4,1.2-1.4,2.5c0,0.4,0.1,15.4-0.1,15.7c-0.2,0.3-0.5,0.4-1,0.4
					c-2.7-0.3-5.3-0.5-8-0.8c-0.4,0-0.7-0.2-0.9-0.6c-0.2-0.4-0.3-0.8-0.3-1.3c0-16.3-0.1-32.6-0.1-48.9c0-0.7,0.1-1.1,0.2-1.3
					c0.2-0.2,0.4-0.4,0.7-0.6c0.5-0.3,1-0.8,1.5-1.4c0.5-0.6,0.7-1.4,0.7-2.4v-2.7c-5.1-0.5-10.2-0.9-15.2-1.2v2.7
					c0,1,0.2,1.9,0.7,2.5c0.5,0.7,1,1.2,1.5,1.6c0.3,0.2,0.5,0.4,0.7,0.7c0.2,0.3,0.3,0.7,0.3,1.4v20.2c-1.6,0.2-2.9,1.5-2.9,3.2
					c0,1.7,1.2,3.2,2.9,3.6V207c8,0.5,16.1,1.3,24.1,2.2c0.6,0.1,1.2,0.1,1.8,0.2c0.5,0.1,1-0.1,1.4-0.4c0.5-0.4,0.7-0.9,0.7-1.6
					V183c-1.3-0.2-2.5-0.3-3.8-0.5C310.9,182.4,309.6,182.5,308.7,182.8z"/>
				<path fill="#FFFFFF" d="M110.7,162c-0.1,0-0.3,0-0.4,0.1c-0.1,0-0.1,0-0.2,0v0c-9.3,3-18.6,6.2-27.7,9.8v2.6
					c0,1.2,0.2,2,0.5,2.6c0.3,0.5,0.8,0.8,1.4,0.9c0.3,0.1,0.5,0.2,0.8,0.4c0.2,0.2,0.3,0.6,0.3,1.1v20.1c-1.6,0.9-2.7,2.8-2.7,4.5
					c0,1.7,1.2,2.6,2.7,2.4v30.8c0.8-0.3,1.5-0.6,2.3-0.8c4-1.5,7.9-2.9,11.9-4.3c1.7-0.6,3.4-1.2,5.1-1.7c1.3-0.4,2.6-0.8,3.9-1.3
					c0.5-0.2,1.1-0.3,1.6-0.5c0.1,0,0.1,0,0.2-0.1c0.2-0.1,0.4-0.2,0.6-0.3c0.3-0.2,0.6-0.5,0.8-0.8c0.4-0.6,0.7-1.2,0.7-1.8v-9.2
					l0,0c0-3.2,0-6.4,0-9.7c-1.2,0.4-2.5,0.8-3.7,1.2c-1.3,0.4-2.6,1-3.4,1.7c-0.9,0.7-1.3,1.7-1.3,3.1c0,0.4,0.1,9.7-0.1,10.1
					c-0.2,0.4-0.5,0.7-0.9,0.8c-1.1,0.4-2.2,0.8-3.4,1.1c-1.5,0.5-3.1,1.1-4.6,1.6c-0.7,0.3-1,0-1-0.9V205c0-0.8,0.4-1.4,1.3-1.7
					c3.5-1.3,7-2.4,10.5-3.6c0.9-0.3,1.3-0.8,1.3-1.7v-5c0-0.5-0.2-0.8-0.5-0.9c-0.3-0.1-0.6-0.1-0.9,0c-3.5,1.2-7,2.3-10.4,3.6
					c-0.9,0.3-1.3,0.1-1.3-0.8v-18.6c0-0.4,0.1-0.7,0.4-1.1c0.3-0.4,0.5-0.6,0.8-0.7c2.8-1,5.6-2,8.4-2.9c0.1,0,0.2,0.1,0.3,0.2
					c0.2,0.3,0.1,9.7,0.1,10c0,1.4,0.4,2.1,1.3,2.2c0.9,0.1,2.1-0.1,3.4-0.5c1.2-0.4,2.5-0.8,3.7-1.2v-9.7h0v-9.4
					c0-0.5-0.2-0.8-0.6-1.1C111.4,162.1,111.1,162,110.7,162z"/>
				<path fill="#FFFFFF" d="M349.2,148.6c-0.1-0.1-0.3-0.1-0.4-0.2c-0.1,0-0.1,0-0.2,0h0c-9.5-1.9-19.1-3.4-28.7-4.7v2.6
					c0,1.2,0.2,2.1,0.5,2.8c0.3,0.7,0.8,1.2,1.4,1.6c0.3,0.2,0.6,0.5,0.8,0.8c0.2,0.3,0.4,0.8,0.4,1.3V173c-1.6,0.1-2.9,1.3-2.9,3
					s1.2,3.3,2.9,3.8v30.8c0.8,0.1,1.6,0.2,2.4,0.3c4.1,0.6,8.3,1.3,12.4,2c1.8,0.3,3.5,0.6,5.3,0.9c1.3,0.2,2.6,0.5,4,0.7
					c0.5,0.1,1.1,0.2,1.6,0.3c0.1,0,0.1,0,0.2,0c0.2,0,0.4,0,0.6,0c0.3,0,0.6-0.1,0.8-0.3c0.4-0.3,0.7-0.8,0.7-1.5V204v-9.7
					c-1.3-0.3-2.5-0.5-3.8-0.7c-1.3-0.3-2.6-0.3-3.5,0c-0.9,0.3-1.4,1.1-1.4,2.4c0,0.4,0.1,9.8-0.1,10c-0.2,0.3-0.5,0.4-1,0.3
					c-1.1-0.2-2.3-0.4-3.4-0.6c-1.6-0.3-3.2-0.5-4.8-0.8c-0.7-0.1-1.1-0.6-1.1-1.4v-20.7c0-0.8,0.5-1.2,1.4-1
					c3.6,0.6,7.2,1.2,10.8,1.9c0.9,0.2,1.3-0.2,1.3-1v-5c0-0.5-0.2-0.9-0.5-1.1c-0.3-0.3-0.6-0.4-0.9-0.5c-3.6-0.7-7.2-1.3-10.8-1.9
					c-0.9-0.1-1.4-0.6-1.4-1.5v-18.6c0-0.4,0.1-0.6,0.4-0.9c0.3-0.2,0.6-0.3,0.9-0.3c2.9,0.5,5.8,1,8.7,1.5c0.1,0.1,0.2,0.2,0.3,0.4
					c0.2,0.4,0.1,9.7,0.1,10.1c0,1.4,0.5,2.3,1.4,2.9c0.9,0.6,2.2,1,3.5,1.3c1.3,0.2,2.5,0.5,3.8,0.7v-9.7v-9.4c0-0.5-0.2-1-0.6-1.5
					C350,149.1,349.6,148.8,349.2,148.6z"/>
			</g>
			<g>
				<path fill="#FFFFFF" d="M183.2,351.2l6.3,6.1c1.1,1.1,2.5,2.5,2.2,4.4c-0.1,0.9-0.6,1.8-1.4,2.6c-1,1-1.9,1.3-2.7,1.4
					c-1.8,0.2-3.1-0.9-4.4-2.2l-3.6-3.5l-3.7,3.9l-2.5-2.4L183.2,351.2z M181.2,358.2l3.2,3c0.8,0.8,2,1.9,3.3,0.5
					c0.5-0.6,0.7-1.1,0.7-1.6c-0.1-0.6-0.4-1-1.5-2l-2.9-2.8L181.2,358.2z"/>
				<path fill="#FFFFFF" d="M200,366l11.4,6.8l-1.3,2.2l-8.3-5l-1.7,2.7l8,4.8l-1.3,2.2l-8-4.8l-1.8,2.9l8.7,5.2l-1.3,2.2l-11.7-7
					L200,366z"/>
				<path fill="#FFFFFF" d="M219.9,376.5l3.4,1.1l-3.7,11l7.5,2.5l-0.8,2.5l-10.9-3.6L219.9,376.5z"/>
				<path fill="#FFFFFF" d="M239.4,381.8l3.5,0.5l-2.1,14.1l-3.5-0.5L239.4,381.8z"/>
				<path fill="#FFFFFF" d="M269.5,392.1c-0.2,0.9-0.5,1.9-1.7,3.2c-1.1,1.1-2.9,2.4-6.6,2.5c-5.1,0.2-8.7-2.3-8.9-7.2
					c-0.2-5.4,4-7.7,8.4-7.9c1.6-0.1,6.3,0.1,8.3,4.1l-3.9,0.6c-0.4-0.6-1.6-2.2-4.3-2.1c-3.2,0.1-5,2.5-4.8,5.2
					c0.1,3.1,2.6,4.9,5.3,4.7c3.1-0.1,4-2,4.4-2.9L269.5,392.1z"/>
				<path fill="#FFFFFF" d="M282.2,379.7l3.7-1.1l10.6,11.7l-3.8,1.1l-1.9-2.2l-7,2.1l-0.4,2.9l-3.7,1.1L282.2,379.7z M285.6,383.2
					c-0.1-0.1-0.3-0.3-0.4-0.5c-0.1-0.2-0.2-0.3-0.3-0.5c0,0.2,0,0.4,0,0.5c0,0.2,0,0.4-0.1,0.6l-0.7,5.2l4.8-1.4L285.6,383.2z"/>
				<path fill="#FFFFFF" d="M299.7,373.4l3-1.8l10.1,3.2c1.2,0.4,1.5,0.5,2.8,1c-0.8-1.1-1-1.4-1.6-2.5l-3.7-6.2l2.9-1.7l7.3,12.2
					l-3,1.8l-10.2-3.3c-1.1-0.4-1.5-0.5-2.7-1c0.6,0.9,0.8,1.1,1.3,2l4,6.7l-2.9,1.7L299.7,373.4z"/>
				<path fill="#FFFFFF" d="M328.9,364.8c1.8,0.7,3.6-0.4,5-1.7c0.6-0.6,2.5-2.6,1.3-3.8c-0.7-0.7-1.6-0.2-2.2,0.2
					c-0.5,0.3-2.9,2-3.5,2.4c-1.1,0.7-3.9,2.6-6.2,0.3c-0.5-0.5-0.9-1.2-1-1.8c-0.5-2.2,1.1-4.4,2.7-6c1.5-1.4,2.8-2.3,4.5-2.8
					c1.6-0.4,2.8-0.1,3.3,0l-1.8,3c-0.2-0.1-0.8-0.3-1.7,0c-1,0.3-1.9,1.1-2.4,1.6c-1.1,1.1-2.1,2.4-1.1,3.4
					c0.6,0.7,1.4,0.3,2.3-0.3c0.5-0.3,2.9-2,3.5-2.4c1.4-0.9,3.8-2.5,6-0.2c3.2,3.3-0.6,7.2-1.9,8.4c-1.7,1.6-4.6,3.9-8.4,2.5
					L328.9,364.8z"/>
			</g>
			<path fill="#FFFFFF" d="M239.6,296.5c0,0-51-17.1-28.8-71.4c0,0-53.9,2.2-127.8,32.1c0,0-5.2,2.2-8.2,3.2c-3,1.1-7.9,3-14.9-0.3
				c0,0,67.6-35.3,154.5-43.5c11.5-1.1,13,0.6,9.9,5C221.8,225.1,190.7,264.6,239.6,296.5z"/>
			<path fill="#B4975A" d="M194.3,240.5c-43.7,5.7-86.4,20.9-86.4,20.9c7.3,12.9,27,7.5,27,7.5c37-10.5,53.5-14,58.8-15.1
				C193.5,249.8,193.7,245.3,194.3,240.5z"/>
			<path fill="#B4975A" d="M194.6,261.8c-7.3,1.4-37.9,7.7-68.8,19.3c0,0,9.7,11.1,29,5.6c16.2-4.6,37.1-11.2,43.3-13.2
				C196.6,269.9,195.4,266.1,194.6,261.8z"/>
			<path fill="#B4975A" d="M201.4,279.6c-6.6,2.1-39.6,12.8-53.5,18.2c0,0,8,10.7,31,1.6c16.1-6.3,24.9-10,28.8-11.7
				C205.4,285.3,203.3,282.6,201.4,279.6z"/>
			<path fill="#B4975A" d="M212.8,292.3c-5.8,2.5-27.2,11.9-39.5,17.8c0,0,15.6,7.7,35.2-4.5l12.2-8
				C218,296.1,215.4,294.4,212.8,292.3z"/>
			<path fill="#B4975A" d="M226.6,300.8c-3.9,2.4-20.2,12.7-28.1,18.5c0,0,13.5,5.6,27.3-7.4c4.5-4.2,6.9-6.6,8.3-8
				C231.7,303,229.1,302,226.6,300.8z"/>
			<g>
				<path fill="#FFFFFF" d="M272.4,296.5c0,0,51-17.1,28.8-71.4c0,0,53.9,2.2,127.8,32.1c0,0,5.2,2.2,8.2,3.2c3,1.1,7.9,3,14.9-0.3
					c0,0-67.6-35.3-154.5-43.5c-11.5-1.1-13,0.6-9.9,5C290.2,225.1,321.3,264.6,272.4,296.5z"/>
				<path fill="#B4975A" d="M317.7,240.5c43.7,5.7,86.4,20.9,86.4,20.9c-7.3,12.9-27,7.5-27,7.5c-37-10.5-53.5-14-58.8-15.1
					C318.5,249.8,318.3,245.3,317.7,240.5z"/>
				<path fill="#B4975A" d="M317.4,261.8c7.3,1.4,37.9,7.7,68.7,19.3c0,0-9.7,11.1-29,5.6c-16.2-4.6-37-11.2-43.3-13.2
					C315.4,269.9,316.6,266.1,317.4,261.8z"/>
				<path fill="#B4975A" d="M310.6,279.6c6.6,2.1,39.6,12.8,53.5,18.2c0,0-8,10.7-31,1.6c-16.1-6.3-24.9-10-28.8-11.7
					C306.6,285.3,308.7,282.6,310.6,279.6z"/>
				<path fill="#B4975A" d="M299.2,292.3c5.8,2.5,27.2,11.9,39.5,17.8c0,0-15.6,7.7-35.2-4.5l-12.2-8
					C294,296.1,296.6,294.4,299.2,292.3z"/>
				<path fill="#B4975A" d="M285.4,300.8c3.9,2.4,20.2,12.7,28.1,18.5c0,0-13.5,5.6-27.3-7.4c-4.5-4.2-6.9-6.6-8.3-8
					C280.3,303,282.9,302,285.4,300.8z"/>
			</g>
			<g>
				<g>
					<g>
						<path fill="#FFFFFF" d="M297.8,326.2c0,23.1-18.7,41.8-41.8,41.8c-23.1,0-41.8-18.7-41.8-41.8c0-23.1,18.7-41.8,41.8-41.8
							C279.1,284.4,297.8,303.1,297.8,326.2z"/>
					</g>
					<g>
						<path fill="#B4975A" d="M289.1,334.8c0,18.3-14.8,33.1-33.1,33.1c-18.3,0-33.1-14.8-33.1-33.1c0-18.3,14.8-33.1,33.1-33.1
							C274.3,301.7,289.1,316.5,289.1,334.8z"/>
					</g>
					<path fill="#002B5C" d="M256,281.2c-24.8,0-45,20.2-45,45c0,24.8,20.2,45,45,45c24.8,0,45-20.2,45-45
						C301,301.4,280.8,281.2,256,281.2z M293.8,318.9c-2.8,11.1-10.4,20.3-20.3,25.3c0.8-5.5,3.2-10.9,5.7-16.6
						c3.6-8.2,7.6-17.2,5.8-26.7C289.4,306,292.5,312.1,293.8,318.9z M236.2,293.1c5-3,10.8-4.9,17-5.4v60.6
						c-3.1-0.2-6.1-0.8-8.9-1.7c-0.3-7.5-3.4-14.5-6.4-21.3C232.9,314,228.6,304.2,236.2,293.1z M244,352.4c3,0.8,6.1,1.3,9.2,1.5
						v10.7c-5-0.4-9.8-1.7-14.1-3.8C241.1,358.8,243.3,356,244,352.4z M258.8,353.9c3.2-0.2,6.3-0.7,9.3-1.5
						c0.6,3.6,2.8,6.4,4.9,8.4c-4.3,2.1-9.1,3.5-14.2,3.8V353.9z M267.7,346.6c-2.9,0.9-5.9,1.5-8.9,1.7v-60.6
						c6.2,0.4,11.9,2.3,17,5.4c7.6,11,3.3,20.9-1.7,32.2C271.1,332.1,268,339.1,267.7,346.6z M227,300.9c-1.7,9.5,2.2,18.5,5.8,26.7
						c2.5,5.7,4.9,11.2,5.7,16.7c-9.9-5-17.5-14.1-20.3-25.4C219.5,312.1,222.6,305.9,227,300.9z M218.1,332.9
						c4.8,7.9,12,14,20.5,17.6c0,0.3-0.1,0.5-0.1,0.8c-0.4,2.9-2.8,5.2-4.5,6.5C225.8,352.1,219.9,343.2,218.1,332.9z M278,357.8
						c-1.7-1.3-4.1-3.6-4.5-6.5c0-0.3-0.1-0.5-0.1-0.8c8.5-3.6,15.7-9.7,20.5-17.6C292.1,343.2,286.2,352.1,278,357.8z"/>
				</g>
				<g>
					<path fill="#002B5C" d="M269.4,222.7c0,0-0.3,1.4-1.2,1.4c-0.9,0-6.3-2.6-8.9-4c-1.1-0.6-2.7-1.5-3.2-1.8c0,0-2.3,1.2-3.4,1.8
						c-2.6,1.4-8,4-8.9,4c-0.9,0-1.2-1.4-1.2-1.4s-14.2,8.6-14.2,32.2c0,17.6,9.2,25.6,9.2,25.6l1.2,5h15.6h3.1h15.6l1.2-5
						c0,0,9.2-8,9.2-25.6C283.6,231.3,269.4,222.7,269.4,222.7z"/>
					<path fill="#FFFFFF" d="M276.1,249c0-7.3-3-13.3-6.2-16.8c0,0-0.1,2.1-3.6-0.2c-3-2.1-6.6-3.3-10.4-3.3
						c-3.8,0-7.4,1.2-10.4,3.3c-3.4,2.3-3.5,0.2-3.5,0.2c-3.2,3.5-6.2,9.5-6.2,16.8c0,6.1,1.5,9.1,2,9.9c3,7.7,10,13.2,18.1,13.2
						c8,0,14.9-5.3,18-12.9C274.2,258.9,276.1,256,276.1,249z"/>
					<path fill="#002B5C" d="M263.6,265.5c0,0-0.1-0.1-0.1-0.1c0,0-2-3.7,1.3-6.3c0,0,7.4,1.6,7.6-8.3c0,0-0.2-1,0.9-3.1
						c0,0-1.9-1.7-6,1.4c-4.1,3.1-6.4,11.9-8.6,9.8c-2.2-2.1-1.4-13.5-2.6-14h0c-1.1,0.4-0.3,11.9-2.6,14c-2.2,2.1-4.5-6.7-8.6-9.8
						c-4.1-3.1-6-1.4-6-1.4c1,2.1,0.9,3.1,0.9,3.1c0.2,9.8,7.6,8.3,7.6,8.3c3.3,2.6,1.3,6.3,1.3,6.3c0,0,0,0.1-0.1,0.1
						c-8.9-9.5-14-8.2-11.5,2.4c2.5,10.5,12.1,55.4,13.6,65.9c-0.2,9.4-1.3,12.7-1.6,13.5l-1,1.9l1.1,2.1c1.7,2.4,2.9,5.2,3.3,6.2
						l3.7,9.3l3.6-9.3c0.4-1.1,1.6-3.8,3.3-6.3l1.1-2l-1-2c-0.3-0.7-1.3-3.9-1.6-13c1.3-9.4,11.1-55.7,13.6-66.4
						C277.6,257.3,272.4,256,263.6,265.5z"/>
					<g>
						<path fill="#E31837" d="M250,312.4c-3.2-16.7-5.7-29.1-7.7-38.1c-1.5-6.9,2.6-4.1,4.8,0.2L250,312.4z"/>
						<path fill="#E31837" d="M262,312.4c3.2-16.7,5.7-29.1,7.7-38.1c1.5-6.9-2.6-4.1-4.8,0.2L262,312.4z"/>
					</g>
					<g>
						<path fill="#E31837" d="M245,255.7c-0.6-0.2-1-0.8-0.8-1.5c0.1-0.2,0.2-0.4,0.4-0.6c-0.4-0.5-0.9-0.9-1.5-1.4
							c0,0-1,4.8,3.3,4.3c0,0-0.1-0.4-0.5-1C245.6,255.7,245.3,255.8,245,255.7z"/>
						<path fill="#E31837" d="M268.9,252.3c-0.6,0.4-1.1,0.9-1.5,1.4c0.2,0.2,0.3,0.3,0.4,0.6c0.2,0.6-0.2,1.3-0.8,1.5
							c-0.3,0.1-0.6,0-0.9-0.1c-0.3,0.6-0.5,1-0.5,1C270,257.1,268.9,252.3,268.9,252.3z"/>
					</g>
					<path fill="#E31837" d="M258,318.6c1.4-25.9,3.4-44.2,3.4-46.4c0-0.8-0.1-1.9-0.4-3l-1.5,4.9l-0.5-8.7c-0.8-1-1.8-2-3.1-2.9
						h-0.1c-1.3,0.9-2.2,1.9-3,2.9l-0.5,8.7l-1.5-4.9c-0.3,1.2-0.4,2.2-0.4,3c0,2.3,2.1,20.6,3.4,46.4c1.4,25.8-1.8,30.6-1.8,30.6
						c1.9,2.7,3.9,7.5,3.9,7.5s2-4.8,3.9-7.5C259.9,349.2,256.7,344.4,258,318.6z"/>
				</g>
			</g>
		</g>
	</g>
</g>
</svg>
