<?xml version="1.0" encoding="utf-8"?>
<!-- Generator: Adobe Illustrator 18.0.0, SVG Export Plug-In . SVG Version: 6.00 Build 0)  -->
<!DOCTYPE svg PUBLIC "-//W3C//DTD SVG 1.1//EN" "http://www.w3.org/Graphics/SVG/1.1/DTD/svg11.dtd">
<svg version="1.1" xmlns="http://www.w3.org/2000/svg" xmlns:xlink="http://www.w3.org/1999/xlink" x="0px" y="0px" width="512px"
	 height="512px" viewBox="0 0 512 512" enable-background="new 0 0 512 512" xml:space="preserve">
<g id="white_block">
	<rect opacity="0" fill="#FFFFFF" width="512" height="512"/>
</g>
<g id="Logos">
	<g>
		<path fill="#FFFFFF" d="M255.2,441.9l-30.4-39.5c-38.7-12.8-65.6-47.7-68.1-88.4l-18.9-24.5c-17.9,7.7-35.9,20-35.9,20l-56.6-56.8
			l23.9-52.3l-42.6-55.3h67.8l13.1-28.6l33.6-13.6l3.7-10.1l27.2,12.4l6.5-22.6l4.4-1.5c21.5-7.2,46.3-11,71.7-11.2
			c0.7-0.1,8.8,0.1,9,0.1c0.9,0,4.9,0.2,4.9,0.2c21.5,1,41.7,4.6,60,10.6l4.5,1.5l6,21.6l9.8-7.4l55,19.6l13.3,29h68.2l-43.1,55.6
			l23.5,51.5l-57.4,59.2c0,0-21.1-15.4-35.5-21.1l-17.3,22.3c-2,41.6-30.3,78.1-70.1,90.4L255.2,441.9z"/>
		<polygon fill="#B3B2B1" points="255.3,414.6 451.3,161.9 60.6,161.9 		"/>
		<path fill="#0067B1" d="M44.5,154l210.7,273.6L467.4,154L44.5,154z M451.3,161.9l-196,252.7L60.6,161.9L451.3,161.9z"/>
		<path fill="#0067B1" d="M423,179.5l-0.1-0.2l-0.2-0.1l-12.5-8.4l4.7-8.9l0.1-0.3l-0.1-0.3l-17.3-37.8l-0.1-0.3l-0.2-0.1
			l-46.5-16.6l-0.3-0.1l-0.3,0.2l-12.3,9.4l-0.1,0.1l-0.1,0.2l-2.1,5.2c0,0-19.3-4.9-47.6-7.7c-2.9-0.3-10.6-0.9-22.9-1.9l-1.2-0.1
			l-1.2-0.1l-0.3,0l-0.2,0.2l-9.2,9.2l0-9.4c0,0-26.1,1.5-43.2,3.8c-17.1,2.3-33.9,6.5-33.9,6.5l-3.1-6.6l-0.1-0.2l-0.2-0.1
			l-21.9-10.1l-0.6-0.3l-0.2,0.6l-2.6,7l-0.6-1.4l-0.2-0.6l-0.6,0.2l-31.4,12.6l-0.2,0.1l-0.1,0.2L56,250.9l47.6,47.6l2.2-1.2
			c1.4-0.8,3.5-2,5.7-3.4c5.8-3.4,13.6-8,17.4-9.8l0.8-0.4c4.9-2.4,7.3-3.5,30.4-13.4l1.9-0.7c0,0,2.6-1,7.4-2.6
			c12.7-4.2,45.7-14.1,77.7-14.1h0.4c1.3,0,2.6,0,3.8,0.1c21.7,0.6,47.1,5.2,64.6,9c16.8,3.6,29.4,7.1,33.1,8.1l2.4,0.8
			c15.9,6.1,35.4,16.3,53.4,27.8l2.3,1.5l48.2-49.6L423,179.5z"/>
		<path fill="#F58426" d="M417.8,183.9L371.5,153l-8.1-22.6l14.3,5.1l5.8,14.1l21.8,7l-12.7-28.1l-41.1-14.6l-7.5,5.9l13.7,44.4
			l44,31.1l11.3,28.1l-18.3-8.3l-6.3-17.5l-22.5-6.6l12,39.5c3.7,1.4,7.4,2.8,11,4.3c10,4,19.8,8.5,29.4,13.4
			c6.6,3.4,13.1,7,19.6,10.8l9.6-9.8L417.8,183.9z"/>
		<path fill="#F58426" d="M105.6,204.8l15.4-13.8l3.7,4.3l-15.2,43.8c8.3-3.7,16.8-7,25.4-10.1l11-36.1l-9.5-15.7l19.7-18.8
			l11.5-38.4l-14.2-6.4l-12.7,36.2l-20.4,17.6l18.6-46.9l-20,8L63.9,249.4l8.6,8.6c5.1-3,10.3-5.8,15.5-8.6L105.6,204.8z"/>
		<path fill="#F58426" d="M245.2,118.7l-16.9,0.9l-7.9,90.7c7.2-0.7,14.4-1.1,21.7-1.4L245.2,118.7z"/>
		<path fill="#F58426" d="M295.4,191.4l-19.6-1.2l-3.2-55.5l16.6,0.8l-1.9-15.3l-22.4-1.6l-10,10l0,69.4l10.5,10.7
			c10.8,0.3,21.6,1.1,32.1,2.4L295.4,191.4z"/>
		<path fill="#F58426" d="M184.2,154.4l7.1,34.5l-4.6,26.1c6.8-1.3,13.8-2.5,20.8-3.4l0,0l10.9-90.9l-15.7,2.3l-5.1,29.8l-5.8-28
			l-18.4,4.6l-25.7,95.4c7.4-2.3,14.9-4.4,22.5-6.2L184.2,154.4z"/>
		<path fill="#F58426" d="M320.6,186.4l5.5-7.4l8.1,6.6l7.4,33.8c7.8,2,15.5,4.2,23.1,6.7l-13.8-49.6l-14.3-11.7l8.1-10.8l-6.8-25.2
			l-17.2-3.8l6.8,25.4l-10.7,14.3l-7.9-41.7l-16-2c0,0,8,61.1,11.8,91.2c7.2,1,14.4,2.3,21.5,3.7L320.6,186.4z"/>
		<path fill="#B3B2B1" d="M222.9,227.4c0,0,6.7-3.9,20-5.4l-0.4-10.5c-7.3,0.2-14.5,0.7-21.7,1.4
			C221.3,217.1,222.2,223.2,222.9,227.4"/>
		<path fill="#B3B2B1" d="M265.1,221.4c5.4,0.6,11.2,2.4,16.3,3.8c4.6,1.1,9.5,3.1,13.6,4.9l2.2-16.1c-10.7-1.3-20.8-2.1-31.7-2.5
			C265.4,214.7,265.4,219.1,265.1,221.4"/>
		<path fill="#B3B2B1" d="M195.2,247c6.2-4.6,9.9-9.3,16.4-13.3c-1.2-5.9-2.9-13.4-4.1-19.2c-7.1,0.9-14.1,2.1-21.1,3.5
			C189.1,226.6,192.5,238.2,195.2,247"/>
		<path fill="#B3B2B1" d="M300.4,233.4c6,3.5,10.7,7.4,16.1,12.7l1.1,0.8l8.5-28.2c-7.3-1.5-14.5-2.8-21.9-3.9L300.4,233.4z"/>
		<path fill="#B3B2B1" d="M327.3,257.8l20.3,4.8l17.1-33.7c-7.9-2.6-15.4-4.7-23.5-6.7L327.3,257.8z"/>
		<path fill="#B3B2B1" d="M164.1,262.6c5.3-2,12.7-4.6,19.6-6.5l-13.2-34.8c-7.9,1.9-14.9,3.9-22.6,6.4
			C152.8,239.4,158.3,251.4,164.1,262.6"/>
		<path fill="#B3B2B1" d="M133.6,275.1c1.2-1,12.7-6,20.5-9.3c-6-10.8-13.2-22.8-19.2-33.8c-8.6,3.1-16.4,6.2-24.7,9.9L133.6,275.1z
			"/>
		<path fill="#B3B2B1" d="M104.8,290.4c3.7-2.2,7.5-4.5,11.8-6.9l-26.9-31.7c-5.1,2.7-10.2,5.4-15.2,8.3L104.8,290.4z"/>
		<path fill="#B3B2B1" d="M358.3,266.8c16.2,6.3,38.7,18.9,47.7,25c4.1-4,26.6-27.6,29.7-30.8c-18.7-11-38.3-20.3-58.7-27.8
			L358.3,266.8z"/>
		<polygon fill="#B3B2B1" points="262,220.9 254.3,220.6 254.2,201.9 262.2,210.2 		"/>
		<path fill="#0067B1" d="M256.1,217.2c-50.1,0-90.7,40.6-90.7,90.7c0,50.1,40.6,90.7,90.7,90.7c50.1,0,90.8-40.6,90.8-90.7
			C346.8,257.8,306.2,217.2,256.1,217.2"/>
		<path fill="#F58426" d="M261.7,224c-7,2.4-13.7,6-20.3,9c-4.5-2.7-7.1-3.4-10.2-5.4C240.7,224.2,251,223.7,261.7,224"/>
		<path fill="#F58426" d="M326.7,262.5c-21.4-21.5-53.5-20-80.7-27.6c0,0,16-7.6,24.3-9.7C292.5,229,314,242.3,326.7,262.5"/>
		<path fill="#F58426" d="M206.5,265.7c-20.5,31.5-23.3,70.3-7,104.4c-21.1-17.8-33.7-52.1-24.3-85.5
			C183.1,273.7,193,264.1,206.5,265.7"/>
		<path fill="#F58426" d="M228.5,288.2c11.1,32.9,13.5,69.4,42.2,102.5c-22.3,4.5-44.5-2.2-62.1-13.3
			c-21.9-31.9-19.8-79.5,2.1-110.5C221.2,270,227,283.9,228.5,288.2"/>
		<path fill="#F58426" d="M213.1,263.4c3.3-4.7,7.1-9.1,11.3-13.2c46.5,13.1,90.8,61.3,98.4,108.7c-2.2,3.6-7.5,8.6-11.1,12.1
			c-11.6,10.4-24.3,15.8-36.5,18.7c-21.7-22.5-28.8-51.8-36.5-80.6c-5.9-22.1-10-38.8-25.6-45.6L213.1,263.4z"/>
		<path fill="#F58426" d="M321.7,263.2c-22.4-19.8-53.7-17.3-80-26.5c-5.1,3.1-10,6.8-14.3,10.6c46.5,14.6,88.7,60,98.7,107
			c7.3-10.5,11.7-22.7,13.5-35.7C340.8,298.6,340.6,280.5,321.7,263.2"/>
		<path fill="#F58426" d="M220.6,248.7c-4.5,4.3-7.8,8.6-11.3,13.5l-0.1,0c-12.3-2.8-22,3.6-29.8,11.5c3.7-9.4,11.5-20.5,19.8-27.8
			C206.7,246.2,212.2,246.1,220.6,248.7"/>
		<path fill="#F58426" d="M223.9,245.8c4.4-3.9,8.7-7.3,14-10.5l-11.9-5.9c-7.9,3.2-16.4,7.5-22.3,12.8
			C212.6,243.3,216.5,243.8,223.9,245.8"/>
		<path fill="#0067B1" d="M243.2,105.9l-3.7,3.7l-6.3,0.4l-2.3-2l-3,2.5l-6.9,0.7l-3-2.9l3.9-26.8l5.2-0.7l-2.8,23.7l3.7-0.4
			l2.9-23.7l5.1-0.5l-2.1,23.6l3.6-0.3l1.9-23.5c2.2-0.2,3.3-0.2,5.2-0.3L243.2,105.9z"/>
		<path fill="#0067B1" d="M260,78.8l0,16.9l3.3,0l-0.2-16.8c0,0,3.5,0.1,5,0.3l0.7,18.9l-3.2,3.2l-1,0.1l0.2,8.1l-5.6-0.2l-0.1-8.1
			l-1.1-0.1l-3.4-3.5l0.2-18.8C256.6,78.7,260,78.8,260,78.8"/>
		<path fill="#0067B1" d="M218.3,82l-0.9,5.5l-6.3,1.2l-1.1,6.5c2.3-0.4,3.7-0.6,6.5-1c-0.4,2.4-0.5,3.2-0.9,5.5l-6.3,0.9l-1.2,6.2
			l6.5-0.9c0,0-0.6,4.2-1,6.1c-4.5,0.6-9.1,1.2-13.4,2c0,0,4.9-22.5,6.1-29.4L218.3,82z"/>
		<path fill="#0067B1" d="M194.7,114.8l-6.5,1.3l3-12.2l-2-4.4l-5.1,17.6l-6.4,1.5c2.7-9.6,5.4-19.1,8-28.7c2.2-0.7,3.8-1.2,5.7-1.8
			c0.7,1.6,2.4,4.8,2.4,4.8l1.5-6c0,0,4-1.1,6.1-1.5L194.7,114.8z"/>
		<path fill="#0067B1" d="M286.6,84c0.7,7.7,1.9,15,2.7,22.2l-2.9,4.4l-9.2-0.6l-3.3-3.6c-0.6-7.8-1-15.7-1.5-23.6
			c0.8-1.1,2.1-2,3.2-3.1l7.7,0.7L286.6,84z M278,85.3l1.6,18.3l3.2,0.3l-1.7-18.2L278,85.3z"/>
		<path fill="#0067B1" d="M316.4,86.8c1.1,4.4,3.4,13.5,3.4,13.5l2.2,0.5l1.1-1.5l-2.7-11.3c0,0,2.7,0.8,5.6,1.6l2.9,10.9l-1.4,2
			l2.5,2.8l3.8,13.3l-6.3-1.4l-2.5-9.3l-3.9-0.9l2.1,9.3l-6.4-1.3c-2.2-10-6.3-29.7-6.3-29.7S313.9,86,316.4,86.8"/>
		<path fill="#0067B1" d="M306.4,87.9l2.1,11l-1.2,1.7l2.1,2.6l1.9,10.9l-6.1-1.1l-1.7-9.1l-3.7-0.4l1.3,8.8l-6.1-0.8l-4.1-30.1
			l11.7,2.1L306.4,87.9z M297.6,88.2l1.1,7.6l3.5,0.4l-1.5-7.5L297.6,88.2z"/>
	</g>
</g>
</svg>
