<?xml version="1.0" encoding="utf-8"?>
<!-- Generator: Adobe Illustrator 18.0.0, SVG Export Plug-In . SVG Version: 6.00 Build 0)  -->
<!DOCTYPE svg PUBLIC "-//W3C//DTD SVG 1.1//EN" "http://www.w3.org/Graphics/SVG/1.1/DTD/svg11.dtd">
<svg version="1.1" xmlns="http://www.w3.org/2000/svg" xmlns:xlink="http://www.w3.org/1999/xlink" x="0px" y="0px" width="512px"
	 height="512px" viewBox="0 0 512 512" enable-background="new 0 0 512 512" xml:space="preserve">
<g id="white_block">
	<rect opacity="0" fill="#FFFFFF" width="512" height="512"/>
</g>
<g id="Logos">
	<g>
		<path fill-rule="evenodd" clip-rule="evenodd" fill="#041E41" d="M439.2,116.4l-19.5,40l12.1,5.9l19.5-40L439.2,116.4z
			 M376.3,214.7L433,98.4l24.1,11.8c6.7,3.3,9.4,11.2,6.2,17.9l-20.9,42.8c-2.7,5.5-7.4,7.9-12.7,5.3l-14.3,57.5l-12-5.9l14.3-57.5
			l-3.9-2l-25.4,52.1L376.3,214.7z M410.2,89.3L384.8,81c-7.1-2.3-14.6,1.6-16.9,8.6l-31.6,97.2c-2.3,7.1,1.6,14.6,8.6,16.8
			l25.4,8.3l4.1-12.7L349,191l13.7-42.3l19.1,6.2l4.1-12.7l-19.1-6.2l13.7-42.3l25.4,8.2L410.2,89.3z M316.2,78.9l13.2,2.1l-16,101
			l-13.2-2.1L316.2,78.9z M284.9,191l26.4,4.2c7.3,1.2,14.2-3.8,15.3-11.1l16-101c1.2-7.3-3.8-14.1-11.1-15.3l-26.4-4.2L284.9,191z
			 M235,190l13.4,0.2l0.6-37.4c0.2-11.4-0.5-34.4-1-45.2h0.3c3.5,28.8,9.9,55.6,14.1,82.8l12.6,0.2l2.2-128.9l-13.4-0.2l-0.6,37.4
			c-0.2,11.4,0.5,34.3,1,45.2l-0.4,0c-3.5-28.8-9.9-55.6-14.1-82.8l-12.6-0.2L235,190z M206.8,63.5l-13.2,2.1l18.1,114.1l-13.2,2.1
			L180.4,67.7l-13.2,2.1l17.2,108.6c1.7,10.9,12,18.4,22.9,16.7c10.9-1.7,18.4-12.1,16.7-22.9L206.8,63.5z M139.7,211.6l12.7-4.1
			l-17.9-55l12.7-4.1l17.9,55l12.7-4.2L137.9,76.6l-12.7,4.2l17.9,55l-12.7,4.1l-17.9-55L99.8,89L139.7,211.6z M113,224.7l12-5.8
			L74.4,114.9l12-5.9l-5.9-12l-36,17.6l5.9,12l12-5.9L113,224.7z"/>
		<path fill="#0071CE" d="M381,294.6c29.6-6.6,58.6-11,86.6-13.2c-31,9.5-62.6,20.1-94.6,31.7C375.8,307.1,378.5,301,381,294.6
			 M68.1,450.9c24.8-21.9,52.7-42.7,83.3-61.8c5.7-2.9,11.5-5.8,17.3-8.6c2.4-1.2,7.1-3.5,12.9-6.2c3.9,4.4,8,8.7,12.2,12.9
			C149.9,407.5,107.9,428.9,68.1,450.9"/>
		<path fill="#F42534" d="M393.3,258.1c25.6-1.1,50.4-0.7,74.3,1.2c-25.7,3.6-51.9,7.9-78.5,12.7
			C390.5,267.5,391.9,262.8,393.3,258.1 M46.5,364.3c28.7-18.3,60.5-34.9,94.9-49.4c1.1,2.3,2.3,4.6,3.5,6.9
			c-1.9,3.7-3.7,7.5-5.5,11.3C107.5,343,76.5,353.4,46.5,364.3"/>
		<path fill="#FFFFFF" d="M230.9,350.8l4.2-1.9l10.8-8.7l2.4-6.6c1.6,3.1,2.4,4.4,3.9,7.5l3.5-1.6c0.1,3.4,0.2,6.7,0.2,9.9
			c-7.8,1.8-16.1,2.7-24.8,2.9L230.9,350.8z M261.8,336.9c4.5-2,8.9-3.9,13.3-5.8l2.1-2.2c0.9,0.1,1.9,0.1,3,0
			c1.7-0.3,3.8-0.9,6.1-1.7c-1.5,5.5-2.4,10.2-2.8,14.3c-6.3,2.2-13.4,4.4-21.5,6.4C262,344.4,261.9,340.7,261.8,336.9 M257,217.2
			c48.4,0,86.4,11.3,129.2,32.7c-21,79.1-59.3,132.2-129.2,175.3c-26.3-16.3-48.6-34.4-67.3-55c8.3-4,17.7-8.4,25.9-12.3
			c3.3,0.3,6.5,0.5,9.5,0.6c-0.2,4.5-1.6,7.9-3.9,10.3c1.3,1.5,2.7,3,4,4.5c3.6-3.2,5.9-8,6.1-14.8c8.5-0.1,16.7-1,24.3-2.7
			c-0.4,12.5-2.2,21.7-5.7,25.3l-0.3,0.3c-0.9,0.9-1.7,1.7-2.3,2.3c3.4-0.6,6.8-1.4,10.1-2.3c4.3-8.8,4.3-24.3,4.4-27
			c7.9-2,15-4,21.3-6.2c0.3,7.3,3.2,14.2,8.7,16.8c2.5-1.7,4.9-3.6,7.3-5.6c-1.4,0.2-10.2,0.8-10.1-13.4c18.6-7,30.7-15.5,41.4-28.1
			c2.8-6.4,5.1-13,6.7-19.9c-12.7,20.1-24.5,31.9-47.4,41.1c0.7-4.1,1.9-8.9,3.8-14.7c6.7-2.8,13.7-6.2,17.8-7.9l10.1-10.5
			c2.5-9.7,5-19.5,7.5-29.2l-7.8,2.5l9.2-9.7c1.9-7.6,3.9-15.3,5.8-22.9c-4.6,0.7-9.3,1.4-13.9,2.1c0.8-3.8,1.3-7.6,1.6-11.4
			c-2.2-0.6-4.5-1.1-6.7-1.6c-0.5,4.2-1.3,8.9-2.6,14.2l-0.6,0.1c-4.3,0.7-8.8,2.2-12.6,5.4l1.2-3.8c-7.4,1.4-14.8,2.7-22.3,4.2
			l-7.4,7.8l0.2-0.6l2.4-6.2c-7.3,1.5-14.7,3-22,4.6c-1.5-9.9-3.1-18.8-4.4-26c-2.1,0.2-4.2,0.5-6.2,0.8c1.4,7.3,2.9,16.5,4.5,26.6
			l-5.2,1.2l-6.6,6.9c-4.6-4.9-14-1.8-19.9-0.3c-6.4,1.6-12.8,3.3-19.2,5c-1.9,0.6-3.8,1.1-5.7,1.7c-4.8-6.9-9.3-14-13-21.7
			l-0.7-1.4c-1.9,0.8-3.9,1.6-5.8,2.4l0.8,1.7c3.6,7.5,8,14.5,12.7,21.3c-6.9,3.1-13.3,7.3-18.8,13.4c0,0-8.9,9.4-10,10.6
			c-2.3,2.6-4.3,5.5-6.1,8.4c-9.4-18.9-16.9-39.5-22.5-62.1C170.6,228.6,208.6,217.2,257,217.2"/>
		<path fill="#F42534" d="M230.9,350.8l4.2-1.9l10.8-8.7l2.4-6.6c1.6,3.2,2.4,4.4,3.9,7.5l3.5-1.6c0.1,3.4,0.2,6.7,0.2,9.9
			c-7.8,1.7-16.1,2.7-24.8,2.9L230.9,350.8z M261.8,336.9c4.4-2,8.9-3.9,13.3-5.8l2.1-2.2c0.9,0.1,1.9,0.1,3,0
			c1.7-0.3,3.9-0.9,6.2-1.7c-1.5,5.5-2.4,10.2-2.8,14.3c-6.3,2.2-13.4,4.4-21.5,6.4C262,344.4,261.9,340.7,261.8,336.9 M177.4,254.3
			c21.3-8.7,43.2-14.8,65.7-18c1.4,7.3,2.9,16.5,4.5,26.6l-5.2,1.2l-6.6,6.9c-4.6-4.9-14-1.8-19.9-0.3c-6.4,1.6-12.8,3.3-19.2,5
			c-1.9,0.6-3.8,1.1-5.7,1.7c-4.8-6.9-9.3-14-13-21.7L177.4,254.3z M172,287.7c-3.4-8.8-6.5-17.8-9.1-27c2.9-1.4,5.8-2.7,8.7-3.9
			l0.8,1.7c3.6,7.5,8,14.5,12.7,21.3C180.5,281.8,176.1,284.3,172,287.7 M221.3,368.8c-2.8-3.2-5.5-6.4-8.1-9.7l2.5-1.2
			c3.3,0.3,6.5,0.5,9.5,0.6C225,363,223.6,366.4,221.3,368.8 M247.5,383.8c-3.5,0.7-7.1,1.2-10.7,1.5c-3.9-3.9-7.8-7.8-11.5-11.9
			c3.6-3.2,5.9-8,6.1-14.8c8.5-0.1,16.7-1,24.3-2.7c-0.4,12.5-2.2,21.7-5.7,25.3l-0.3,0.3C248.9,382.4,248.1,383.2,247.5,383.8
			 M292,365c-10.3,7.3-22,12.9-34.5,16.4c4.3-8.8,4.3-24.3,4.4-27c7.9-2,15-4,21.3-6.2C283.6,355.5,286.5,362.5,292,365 M330.6,318
			c-7.1,16.1-17.9,30.3-31.3,41.4c-1.4,0.2-10.2,0.8-10.1-13.4C307.8,339.1,320,330.6,330.6,318 M283.1,233.4
			c10.2,0,20.3,0.5,30.3,1.6c7.6,1.6,15.1,3.5,22.5,5.8c2.8,9.9,4.4,20.4,4.4,31.3c0,9-1,17.7-3,26.1
			c-12.7,20.1-24.5,31.9-47.4,41.1c0.7-4.1,1.9-8.9,3.7-14.7c6.7-2.8,13.7-6.2,17.8-7.9l10.1-10.5c2.5-9.7,5-19.5,7.5-29.2l-7.8,2.5
			l9.2-9.7c1.9-7.6,3.9-15.3,5.8-22.9c-4.6,0.7-9.3,1.4-13.9,2.1c0.8-3.8,1.3-7.6,1.6-11.4c-2.2-0.6-4.5-1.1-6.7-1.6
			c-0.5,4.2-1.3,8.9-2.6,14.2l-0.6,0.1c-4.3,0.7-8.8,2.2-12.6,5.4l1.2-3.8c-7.4,1.4-14.8,2.7-22.3,4.2l-7.4,7.8l0.2-0.6l2.4-6.2
			c-7.3,1.5-14.7,3-22,4.6c-1.5-9.9-3.1-18.8-4.4-26C260.4,234.1,271.7,233.4,283.1,233.4"/>
		<path fill="#FFB819" d="M162.2,297.4c-6-13.1-11.1-26.9-15.1-41c35.9-16.9,73-26.1,112.5-27.1c18.4,0.1,36.3,2.1,53.9,5.7
			c-9.9-1.1-20-1.6-30.3-1.6c-11.5,0-22.7,0.7-33.8,2c-2.1,0.2-4.2,0.5-6.2,0.8c-22.5,3.2-44.4,9.3-65.7,18
			c-1.9,0.8-3.9,1.6-5.8,2.4c-2.9,1.3-5.8,2.6-8.7,3.9c2.6,9.2,5.7,18.2,9.1,27c-2,1.6-3.9,3.4-5.7,5.4L162.2,297.4z M259.2,412.1
			c-20.6-14-38.9-30.3-54.7-48.7l8.8-4.2c2.6,3.3,5.3,6.5,8.1,9.7c1.3,1.5,2.7,3,4,4.5c11.7,12.9,24.7,24.7,38.9,35.3
			C262.6,409.8,260.9,410.9,259.2,412.1"/>
		<path fill="#041E41" d="M230.9,350.8l0.2,1.6c8.6-0.2,17-1.1,24.8-2.9c0-3.2-0.1-6.5-0.2-9.9l-3.5,1.6c-1.5-3.1-2.4-4.4-3.9-7.5
			l-2.4,6.6l-10.8,8.7L230.9,350.8z M261.8,336.9c0.1,3.8,0.2,7.5,0.3,11.1c8.1-2.1,15.2-4.2,21.5-6.4c0.4-4.1,1.3-8.8,2.8-14.3
			c-2.3,0.8-4.4,1.4-6.1,1.7c-1.2,0.1-2.2,0.1-3,0l-2.1,2.2C270.7,333,266.2,334.9,261.8,336.9 M257,217.2
			c-48.4,0-86.4,11.3-129.3,32.7c5.6,22.6,13.1,43.2,22.5,62.1c1.8-2.9,3.8-5.8,6.1-8.4c1.1-1.2,10-10.6,10-10.6
			c5.5-6.1,11.9-10.3,18.8-13.4c-4.7-6.8-9.1-13.8-12.7-21.3l-0.8-1.7c1.9-0.9,3.9-1.7,5.8-2.4l0.7,1.4c3.7,7.7,8.2,14.8,13,21.7
			c1.9-0.6,3.8-1.2,5.7-1.7c6.4-1.7,12.8-3.4,19.2-5c5.9-1.5,15.3-4.6,19.9,0.3l6.6-6.9l5.2-1.2c-1.5-10.1-3.1-19.3-4.5-26.6
			c2.1-0.3,4.1-0.6,6.2-0.8c1.3,7.2,2.8,16.1,4.4,26c7.3-1.6,14.6-3.2,22-4.6l-2.4,6.2l-0.2,0.6l7.4-7.8c7.4-1.4,14.8-2.8,22.3-4.2
			l-1.2,3.8c3.8-3.3,8.3-4.7,12.6-5.4l0.6-0.1c1.3-5.3,2.1-9.9,2.6-14.2c2.2,0.5,4.5,1,6.7,1.6c-0.3,3.8-0.9,7.6-1.6,11.4
			c4.6-0.7,9.3-1.4,13.9-2.1c-1.9,7.6-3.8,15.3-5.8,22.9l-9.2,9.7l7.8-2.5c-2.5,9.7-5,19.5-7.5,29.2l-10.1,10.5
			c-4.2,1.7-11.2,5.1-17.8,7.9c-1.9,5.8-3.1,10.7-3.7,14.7c22.9-9.2,34.7-21,47.4-41.1c-1.6,6.9-3.9,13.6-6.7,19.9
			c-10.6,12.6-22.8,21-41.4,28.1c-0.1,14.1,8.7,13.5,10.1,13.4c-2.4,1.9-4.8,3.8-7.3,5.6c-5.6-2.6-8.5-9.5-8.7-16.8
			c-6.4,2.2-13.5,4.2-21.3,6.2c-0.1,2.7-0.1,18.2-4.4,27c-3.3,0.9-6.7,1.7-10.1,2.3c0.7-0.6,1.5-1.4,2.3-2.3l0.3-0.3
			c3.5-3.6,5.3-12.8,5.7-25.3c-7.6,1.6-15.8,2.5-24.3,2.7c-0.2,6.8-2.5,11.6-6.1,14.8c-1.4-1.5-2.7-3-4-4.5
			c2.3-2.4,3.7-5.8,3.9-10.3c-3-0.1-6.2-0.2-9.5-0.6c-8.2,3.9-17.6,8.3-25.9,12.3c18.7,20.6,41,38.7,67.3,55
			C327,382.1,365.3,329,386.3,249.9C343.4,228.6,305.5,217.2,257,217.2 M117.4,245.2c46.4-23.9,87.1-36.9,139.6-36.9
			c52.5,0,93.2,13,139.6,36.9C375.1,332,334,389.5,257,435.6c-29-17.4-54.4-37.8-75.5-61.4c-5.8,2.8-10.5,5-12.9,6.2
			c-7.3,3.6-14.5,7.2-21.8,10.9c-8.2,4.2-17.2,10.5-26.6,8.1c-10.3-4.5-3.5-17-0.4-24.1c8-18,16.3-35.8,25-53.5
			c-10.5-19.6-18.7-40.9-24.4-64L117.4,245.2z"/>
		<path fill-rule="evenodd" clip-rule="evenodd" fill="#FFFFFF" d="M314.4,253.8c-4.4,0.7-8.5,2.2-11.8,5.5
			c-2.7,2.9-4.2,6.5-5.4,10.2c-3.5,11.1-7.1,22.2-10.7,33.4c-1.4,4.4-3.7,12.4,3.4,11.8c2.4-0.4,4.7-1.4,6.9-2.4
			c7.1-3,14.3-6,21.5-9c1.8-7,3.6-14,5.4-21c-3.8,1.2-7.5,2.4-11.3,3.6c-0.9,3.2-1.8,6.3-2.7,9.5c-2.6,1-5.2,1.9-7.9,2.9
			c3.3-11.3,6.6-22.5,9.9-33.8c2.3-0.5,4.6-1,6.9-1.5c-0.5,2-1.1,4-1.6,6c3.4-0.8,6.8-1.6,10.1-2.4c1.3-5.1,2.6-10.2,3.8-15.3
			C325.6,252,320,252.9,314.4,253.8 M282.4,259.3c-8,10.4-15.9,21-23.7,31.5c3.6-9.7,7.3-19.4,11-29c-8.3,1.7-16.5,3.5-24.8,5.4
			c-2.2,5-4.2,10-6.4,15c1.8-0.5,3.6-1,5.3-1.5c-6.5,15.7-12.8,31.4-19,47.3c-2.6,6.4-5.1,12.8-7.6,19.3c8.2-3.9,16.5-7.8,24.8-11.6
			c3.7-10.4,7.5-20.7,11.4-31.1c3.5,7.1,7,14.1,10.5,21.2c5.3-2.4,10.7-4.7,16.1-7.1c-3.3-7.5-6.6-14.9-9.9-22.3
			c5.9-9,11.9-18,18-27c1.7-0.4,3.4-0.8,5.1-1.2c1.3-3.9,2.5-7.8,3.8-11.7C292.2,257.4,287.3,258.4,282.4,259.3 M183.7,345.8
			c-5.8,2.6-11.5,5.2-17.3,7.8c8.3-19.3,17-38.5,26-57.6c5.1-1.6,10.1-3.2,15.2-4.7C199.4,309.4,191.4,327.6,183.7,345.8
			 M197.5,279.3c-10.9,3-20.6,7.6-28.4,16.2c-4.5,5.1-7.6,11-10.6,17c-8.7,17.7-17.1,35.6-25.1,53.6c-2.1,4.7-8.5,16.1-1.7,19.1
			c7.5,1.9,17-4.4,23.7-7.8c7.2-3.7,14.5-7.3,21.8-10.9c12.4-6.1,23.5-13.6,31.1-25.6c3-5.1,5.2-10.5,7.4-15.9
			c4.7-11.7,9.6-23.3,14.5-34.9c1.9-4.3,5-9.8,4-14.6c-2.1-6.4-12.8-2.5-17.5-1.3C210.2,275.9,203.9,277.5,197.5,279.3"/>
		<path fill="#0071CE" d="M345.1,244.2c3.2,1.1,6.4,2.2,9.6,3.4C351.5,246.4,348.3,245.3,345.1,244.2 M344.5,243.5
			c3.4,1.1,6.6,2.3,9.8,3.4c7.9,3,15,6,20.8,8.8c-18,61.6-54.7,113.3-106.6,150l-4.3,3c-15.2-11.4-24.1-20.3-24.1-20.3l7.2-1.2
			c21.7-3.6,42.6-13.4,59.9-29.5c29.5-27.5,41.4-66.8,35.3-103.7c-0.1-0.8-0.3-1.7-0.4-2.5l-0.1-0.3l-0.1-0.4l-0.1-0.4l-0.1-0.4
			l-0.1-0.4l-0.1-0.4l-0.1-0.4l-0.1-0.4l-0.1-0.4l-0.1-0.3l-0.1-0.5l-0.1-0.4l-0.1-0.3l-0.1-0.4l-0.1-0.3c-0.3-1.4-0.6-2.5-0.9-3.6
			C341.4,242.5,343,243,344.5,243.5"/>
	</g>
</g>
</svg>
