<?xml version="1.0" encoding="utf-8"?>
<!-- Generator: Adobe Illustrator 18.0.0, SVG Export Plug-In . SVG Version: 6.00 Build 0)  -->
<!DOCTYPE svg PUBLIC "-//W3C//DTD SVG 1.1//EN" "http://www.w3.org/Graphics/SVG/1.1/DTD/svg11.dtd">
<svg version="1.1" xmlns="http://www.w3.org/2000/svg" xmlns:xlink="http://www.w3.org/1999/xlink" x="0px" y="0px" width="512px"
	 height="512px" viewBox="0 0 512 512" enable-background="new 0 0 512 512" xml:space="preserve">
<g id="white_block">
	<rect opacity="0" fill="#FFFFFF" width="512" height="512"/>
</g>
<g id="Logos">
	<g>
		<path fill="#BBC4CA" d="M212.3,320.4c24.3-3.7,48.5-2.6,69.7,6.3l2.6-5.7c-34.3-11-77.5-10.5-109.6,7.1l9.2-21.3
			c-40.4,10.9-67.6,33.7-94.9,57.2c19.9-47.1,63.2-85.8,112.2-99.8L199,272c42.9-14,90-16.7,128.1-10.4l-8.9-11.6l21.9,5.6l14.1-21
			l5.6,26l21.5,7c0,0-15.7,6.6-14.9,6.9c81.5,33.6,55.4,145-22.1,145.6c-39.2,0.3-69.6-35.1-68.2-72.1
			C256,334.9,236,328.6,212.3,320.4"/>
		<g>
			<path fill="#BBC4CA" d="M162.7,170.3c0-8.7,2.5-16.7,7.8-22.5l0,0c5.3-5.8,12.9-9.2,21.6-9.9l0,0c16.6-1.5,33.4-2.5,50.1-2.8l0,0
				v0l12.3-0.3v141.4l-0.2,12.2l-12.3-0.2c-2.2,0-18.5,0.6-21.5,0.8l0,0c-0.2,0-0.2,0-0.4,0l0,0l-13.3,1.2V290l-8.3,0.4
				c-1.1,0-20.9,2-21.8,2.2l0,0l-14,2.2L162.7,170.3L162.7,170.3z M197,171.7l0-0.3c0.2-2.5,1.5-5.7,4-7.5l0,0
				c2.4-1.8,5-2.3,7.5-2.5l0,0c0,0,2.2-0.1,4.6-0.3l0,0l7-0.4v44.2v6.1l-6.1,0.4c-3.7,0.3-5.9,0.4-10,0.7l0,0l-7,0.4V171.7
				L197,171.7z"/>
			<path fill="#BBC4CA" d="M466.4,321.4c0,0-16.4-5-18.9-5.8l0,0c-0.2,0-0.2,0-0.3-0.1l0,0c0,0,0,0,0,0l0,0c-7.4-2.1-14.1-4-19-5.3
				l0,0l-8.8-2.2c-8.3-2-15.4-6.1-20.2-12.1l0,0c-4.8-6.1-7.1-13.8-7.1-22.3l0,0v-91.9c0-9,2.7-17.3,9.2-22.3l0,0l0,0
				c4.2-3.3,9.4-4.9,14.9-4.8l0,0c2.9,0,5.9,0.4,8.8,1.1l0,0c1.1,0.3,4.3,1.2,9.4,2.6l0,0c5,1.4,11.4,3.2,17.8,5l0,0
				c12.7,3.6,25.1,7.1,25.1,7.1l0,0l4.8,1.4v62.5l-40.1-12.3l-0.6-4.1c0,0-1.1-7.3-2.2-14l0,0l0,69.6v0.2l0,0.2c0,0,0,0.1,0,0.1l0,0
				c0,0.2,0.1,0.3,0.2,0.5l0,0c0.1,0-0.2,0.1,1.1,0.5l0,0c0,0,2.6,0.7,4.3,1.1l0,0c1.1-4.7,2.2-9.6,2.2-9.6l0,0l1.6-6.9l33.5,10.1
				L482,326L466.4,321.4L466.4,321.4z"/>
			<path fill="#BBC4CA" d="M30,189.7c0-7.1,3.3-12.9,7.1-16.9l0,0c3.9-4,8.3-6.6,12.4-7.9l0,0C68,159,94,154.9,95.3,154.7l0,0l7-1.1
				c2.9-1.7,6.1-2.9,9.6-3.6l0,0c9.1-1.9,36.4-7.1,37.7-7.3l0,0l0,0l14.3-2.7l0,143.8l-0.2,10.7l-10.6,1.2
				c-0.9,0.1-20.8,3.4-21.7,3.7l0,0l-14.8,3.3v-23.2L75,289.4v14.2l-0.1,9.4l-9,2.2c-0.2,0-3.2,0.9-6.4,1.9l0,0
				c-3.3,1-7.1,2.2-9.8,3l0,0c-1.8,0.5-3.2,1-3.3,1.1l0,0l-16.3,6V189.7L30,189.7z"/>
			<path fill="#BBC4CA" d="M377.9,299c0,0-0.1,0-0.2,0l0,0c-0.2,0-0.5-0.1-0.8-0.1l0,0c-0.6-0.1-1.5-0.3-2.5-0.4l0,0
				c-2-0.4-4.6-0.8-7.1-1.2l0,0c-5-0.8-10.4-1.7-10.8-1.7l0,0l-5-0.5l-5.9-0.6V141.5l13.1,1c1.4,0.1,4.3,0.6,8.4,1.3l0,0
				c4,0.6,8.6,1.4,11.9,2l0,0c2.3,0.4,3.6,0.6,4.7,0.9l0,0l9.1,2.3l0,138.3l-0.2,14.9L377.9,299L377.9,299z"/>
			<path fill="#BBC4CA" d="M331.5,292.2c-1.3-0.3-9.6-1.1-18.1-1.7l0,0c-8.2-0.6-17.2-1.3-23-1.6l0,0l-6.3-0.2
				c-8.8-0.3-16.6-3.1-22.1-8.8l0,0c-5.5-5.6-8-13.5-8-22.3l0,0v-95.7c0-7.6,2.3-14.7,7.4-19.6l0,0h0c6.5-6.2,14.6-6.8,19.5-6.8l0,0
				c1.4,0,2.5,0.1,3.3,0.1l0,0l0.8,0c0.3,0,0.6,0,0.9,0l0,0c1.7,0,3.9,0.1,7,0.3l0,0l3.5,0.1l-0.1,0.1c3.5,0.2,7.8,0.6,13.4,1l0,0
				c18.7,1.4,23.6,2,26.5,2.5l0,0c0.9,0.2,2.2,0.7,2.6,0.9l0,0l7,3.4l-0.1,7.7v2.5v39.6l-39.6-5.1l-1-4.5c0,0-1.1-5.1-2.1-9.5l0,0
				c-0.5,0-1.1-0.1-1.7-0.1l0,0l0.1,18.2l0,3.9l2.4-0.1c0.1,0,0.1,0,0.1,0l0,0l0,0l0,0c0.1,0,0.1,0,0.1,0l0,0c0.2,0,0.2,0,0.2,0l0,0
				c1.2,0,2.6,0.1,5,0.3l0,0c2.3,0.2,5.3,0.4,8.4,0.7l0,0c6.2,0.6,12.9,1.2,16.2,1.6l0,0c1,0.1,1.5,0.2,2.4,0.3l0,0l9.5,2.1
				l-0.1,93.4L331.5,292.2L331.5,292.2z"/>
		</g>
		<g>
			<path fill="#130C0E" d="M166.7,170.3c-0.2-16.1,9.8-27.2,25.8-28.5l0,0c16.5-1.5,33.2-2.5,49.8-2.8l0,0l0,0l8.3-0.2v137.3
				l-0.1,8.2l-8.3-0.2h0c-2.1,0-20.9,0.7-22.3,0.8l0,0l-8.9,0.8v-53.6c-1.7,0.1-3.1,0.2-4.7,0.3l0,0l0,45.8l-0.1,7.7l-7.7,0.4
				c-1.5,0.1-20.7,2-22.2,2.3l0,0l-9.5,1.5L166.7,170.3L166.7,170.3z M206.2,202.7c1.7-0.1,3.1-0.2,4.7-0.3l0,0v-32
				c-1.1,0.1-1.8,0.1-1.8,0.1h0c-1.4,0.1-2.2,0.4-2.4,0.6l0,0c-0.2,0.2-0.3,0.3-0.4,1l0,0V202.7L206.2,202.7z"/>
			<path fill="#130C0E" d="M467.5,317.6c0,0-14.5-4.4-18.3-5.6l0,0c-0.4-0.1-0.6-0.2-0.7-0.2l0,0l-0.1,0c-8.2-2.3-15.4-4.3-20.5-5.7
				l0,0l0,0l-7.7-1.9c-15.5-3.6-24.5-14.9-24.3-30.6l0,0v-91.9c0-8.4,2.4-15.1,7.7-19.3l0,0v0c3.4-2.7,7.7-4,12.4-4l0,0
				c2.5,0,5.2,0.4,7.9,1l0,0c2.6,0.6,52,14.7,52.1,14.7l0,0l1.9,0.5v54.1l-32.6-10l-0.3-1.6c0,0-2.5-15.9-3.5-22.5l0,0
				c-1.9-0.6-3.5-1-4.5-1.3l0,0l-0.1,0l-0.8-0.2l-1.2-0.3c0,0,0,0,0,0l0,0l0,80.6l0,0.4c0,0.3,0.1,1.3,0.6,2.2l0,0
				c0.6,1.2,1.6,2,3.6,2.6l0,0c0,0,4.4,1.1,8.3,2.3l0,0c1.2-5.5,3.1-13.7,3.1-13.7l0,0l0.6-2.7l26.7,8l0.1,48.3L467.5,317.6
				L467.5,317.6z"/>
			<path fill="#130C0E" d="M34,189.7c0.2-11.8,10.3-18.9,16.8-21l0,0c17.9-5.7,43.9-9.8,45.1-10l0,0l7.8-1.2c2.7-1.6,5.8-2.9,9-3.5
				l0,0c8.9-1.9,36.4-7,37.6-7.3l0,0l0,0l9.6-1.8l0,139l-0.1,7.2l-7.1,0.8c-1.5,0.2-20.8,3.4-22.2,3.8l0,0l-10,2.3V185.4
				c-0.1,0-0.2,0-0.2,0l0,0c-2.8,0.9-3.3,1.4-4,4.6l0,0v0.1c0,7.5,0,83.4,0,83.4l0,0v2.1l-39.2,9.3v-89.7c-0.3,0.1-0.5,0.1-0.7,0.2
				l0,0c-1.4,0.4-2.9,1.1-3.8,1.9l0,0c-0.9,0.8-1.4,1.5-1.4,2.7l0,0v103.5l-0.1,6.3l-6.1,1.5c-1.3,0.3-18.6,5.6-19.9,6.1l0,0l-11,4
				V189.7L34,189.7z"/>
			<path fill="#130C0E" d="M378.8,295.2c-1.3-0.3-20.5-3.5-21.9-3.6l0,0l-5-0.5l-2.3-0.3V145.8l8.8,0.7c2.2,0.2,22.2,3.6,24.3,4l0,0
				l6.1,1.6l0,135.2l-0.1,10.1L378.8,295.2L378.8,295.2z"/>
			<path fill="#130C0E" d="M332.2,288.4c-3.8-0.7-29.8-2.7-41.6-3.4l0,0l-6.5-0.2c-8.1-0.3-14.8-2.8-19.4-7.6l0,0
				c-4.6-4.7-6.9-11.5-6.9-19.6l0,0v-95.7c0-6.9,2-12.8,6.2-16.8l0,0l0,0c5.3-5.1,12.2-5.7,16.8-5.7l0,0c1.2,0,2.3,0,3.2,0.1l0,0
				l0.9,0c0.3,0,0.6,0,1,0l0,0c3.5,0,9.8,0.5,23.5,1.5l0,0c18.6,1.4,23.7,2,26,2.5l0,0c0.7,0.1,1.4,0.4,1.7,0.6l0,0l4.7,2.3l0,5.2
				v2.5v35.1l-32.4-4.2l-0.4-1.8c0,0-1.7-7.7-2.8-12.4l0,0c-0.6,0-1.2-0.1-1.7-0.1l0,0c-0.2,0-5.2-0.3-5.2-0.3l0,0
				c-0.2,0-0.5,0-0.7,0l0,0c-0.5,0-0.9,0-1.2,0.1l0,0c0,0.1,0,0.1,0,0.2l0,0c0,0,0,0.9,0,1.1l0,0l0,0.9l0,0l0.1,20.1l0,8l6.6-0.2
				c0.1,0,0.2,0,0.2,0l0,0c0,0,0,0,0,0h0c1.6,0,8.6,0.6,15.8,1.3l0,0c7.2,0.7,13.9,1.3,15.3,1.6l0,0l6.4,1.4l-0.1,85.4L332.2,288.4
				L332.2,288.4z M297.5,253c0,0.1,0.1,1.2,0.4,1.7l0,0c0.2,0.3,0.6,0.7,2.5,0.9l0,0c0,0,0.8,0.1,2,0.1l0,0v-27.2
				c-1.7-0.1-3.5-0.3-3.6-0.3l0,0l-1.3-0.1L297.5,253L297.5,253z M292.1,170.5L292.1,170.5L292.1,170.5
				C292.1,170.5,292.1,170.5,292.1,170.5L292.1,170.5z"/>
		</g>
		<g>
			<path fill="#FFFFFF" d="M242.4,144.8L242.4,144.8l0-1.3c-16.4,0.3-33.1,1.3-49.5,2.8c-14,1.2-21.9,9.9-21.8,24.1l0,114.7l4.3-0.8
				c1.2-0.2,21.5-2.3,22.7-2.3l2.3-0.1l1.3,0v-3.5v-49.9c3.4-0.2,9.9-0.7,13.6-0.9v53.6l4.1-0.5c1.1-0.2,19.9-0.9,22.6-0.8
				c0.1,0,0.1,0,0.1,0h0l0.1,0l2.5,0.1l1.4,0.1l0-3.8V143.4l-3.7,0.1L242.4,144.8z M215.3,165.7v40.8c-3.4,0.2-9.9,0.7-13.6,0.9
				v-35.7c0.4-2.4,1.2-5.2,7-5.7C208.8,166.1,212.4,165.9,215.3,165.7z"/>
			<path fill="#FFFFFF" d="M473.5,275.7l-19-5.7l-0.3,1.4c0,0-2.3,10.3-3.4,15c-7.6-2.2-10.9-3.2-12.7-3.5l0,0
				c-3.9-1.1-5.6-3.2-6.4-4.9c-1-1.9-1.1-3.8-1.1-4.3v-0.4V192c0-0.4,0.1-2.2,0.8-3c0.4-0.5,1-0.9,2.3-0.9c0.7,0,1.5,0.1,2.5,0.4
				l0.2,0h0.1l0.1,0c0.3,0.1,3.5,1,9,2.6c0.7,4.7,3.6,23.3,3.6,23.3l0.1,0.8l24.2,7.5V178l-1-0.3c0,0-47.1-13.5-49.5-14
				c-2.5-0.6-4.8-0.9-7-0.9c-3.8,0-7.1,1-9.6,3v0c-4.1,3.2-6,8.7-6,15.8v91.9c-0.1,13.8,7.2,23,20.8,26.2l0.3,0.1l0.5,0
				c1.6,0.3,14.6,3.8,27.7,7.6l19.2,5.9l4.8,1.4L473.5,275.7z"/>
			<path fill="#FFFFFF" d="M113.6,158.2c-5,1-9.4,3.5-12.8,7.1v-2.9l-4.2,0.7c-1.1,0.2-26.9,4.2-44.4,9.9c-5.7,1.9-13.6,8-13.7,16.8
				v125.6l5-1.9c1-0.4,19.2-6,20.4-6.3l1.8-0.4l1-0.2V200c-0.1-5.4,5-7.8,8.4-8.9c1.1-0.3,3.9-0.9,6.3-1.3v89.4l30.3-7.2v-2.9
				c0-7.7,0-71.4,0-79.1v-0.4c0.7-4.9,2.8-7.4,7.4-8.5c0.1,0,0,0,0.2,0c0.7-0.1,3.2-0.5,5.5-0.9v2.7v109.6l4.6-1.2
				c1.2-0.3,21.5-3.7,22.7-3.9l2.1-0.2l1.2-0.1l0.1-3.3l0-133.7l-4.3,0.8C151.1,150.9,122.5,156.3,113.6,158.2z"/>
			<path fill="#FFFFFF" d="M358,150.9l-2.5-0.2l-1.4-0.1v136.2l1.2,0.1l2.1,0.2c1.1,0.1,21.4,3.4,22.5,3.7l4.5,1.1l0-4.7V155.6
				l-2.8-0.7C379.8,154.4,359.7,151.1,358,150.9z"/>
			<path fill="#FFFFFF" d="M304.5,204.9C304.5,204.9,304.5,204.9,304.5,204.9c-0.1,0-0.1,0-0.2,0l-2.2,0.1l-1.3,0v18.9l1.2,0.1
				c0,0,2.8,0.2,4.8,0.4v36.1c-2.9-0.2-6.7-0.4-6.7-0.4c-3.1-0.2-5-1.3-6-3.1c-0.9-1.5-1-3.3-1-3.9l0-60.3l-0.1-20.1
				c0,0,0-0.8,0-0.8v-0.2l0.1-1c0-1.1,0.2-2.3,1-3.2c0.8-0.9,2.3-1.5,4.7-1.5c0.3,0,0.6,0,1,0l0,0l0.1,0l0.3,0
				c0.6,0,4.1,0.2,9.8,0.7c0.8,3.8,3,13.5,3,13.5l0.2,0.9l24.3,3.1v-30.1v-2.6l0-1.5l0-0.8l-2.1-1.1c-1-0.4-1.9-0.8-26.2-2.6
				c-14.6-1.1-20.6-1.5-23.4-1.5c-0.3,0-0.5,0-0.8,0l-1.1,0c-0.9,0-1.9-0.1-3.1-0.1c-4,0-9.5,0.6-13.6,4.5v0
				c-3.3,3.1-4.8,7.8-4.8,13.6v95.7c-0.2,14,7.9,22.3,22,22.7h0.2h0.1l0.3,0c0,0,0,0,0.1,0c3.6,0,42.5,2.7,48,3.8l4.3,0.8l0.1-76.5
				l-2.9-0.6C332.6,207.2,307.2,204.9,304.5,204.9z M268.1,149.3L268.1,149.3L268.1,149.3L268.1,149.3z"/>
			<polygon fill="none" points="268.1,149.3 268.1,149.3 268.1,149.3 			"/>
			<path fill="none" d="M201.7,171.8v35.7c3.6-0.2,10.2-0.7,13.6-0.9v-40.8c-3,0.2-6.5,0.4-6.5,0.4
				C203,166.6,202.1,169.3,201.7,171.8z"/>
		</g>
		<g>
			<path fill="#0077C0" d="M304.5,220.5c1.2,0.1,6,0.4,6,0.4v43.4c-3.6-0.3-7.1-0.5-10.7-0.7c-5.2-0.3-7.7-2.9-9-4.9
				c-1.4-2.3-1.5-4.8-1.5-5.7c0-1,0-36.5,0-60.3c0-11.5-0.2-20.2-0.2-20.8c0-0.2,0-0.7,0-1.4c0-1.4,0.3-3.7,1.9-5.6
				c1.8-2,4.7-2.9,8.6-2.7c0-0.1,6.1,0.4,13.1,1l3.2,14.5l17.6,2.3v-25.9v-2.7c-1.5-0.7-49.1-4.3-49.2-3.8l-0.8-0.1
				c-3.8-0.2-10.1-0.4-14,3.4c-2.5,2.4-3.7,6.1-3.7,11v95.7c0,12.3,6.2,18.5,18.5,19c0-0.4,43,2.6,49.2,3.8c0-1.5,0.1-67.7,0.1-69.2
				c-1.4-0.3-27.8-2.7-29.3-2.7V220.5z M198.1,171.6c0.2-2.5,1.6-8.5,10.4-9.2c3.5-0.2,6.9-0.5,10.4-0.6V210
				c-6.9,0.4-13.9,0.8-20.9,1.4V171.6z M174.8,170.3c0,0,0,108.8,0,110.3c1.4-0.3,21.8-2.3,23.2-2.3V225c7-0.6,13.9-1.1,20.9-1.4
				V277c1.4-0.2,22.1-0.9,23.5-0.8v-129c-16.4,0.3-32.8,1.3-49.2,2.8C181,151,174.8,158.1,174.8,170.3 M357.6,283.5
				c1.4,0.1,21.6,3.5,23.1,3.8V158.4c-1.4-0.4-21.6-3.7-23.1-3.8V283.5z M97.1,180.2v-13.6c0,0-26.5,4.2-43.9,9.7
				c-4.6,1.5-11.2,6.7-11.2,13.3v120.2c1.4-0.5,19.5-6.1,20.9-6.4V200c0-7.2,5.9-10.9,11-12.4c2.8-0.8,11.1-2.1,11.1-2.1v89.1
				l23-5.4c0,0,0-79.5,0-79.9c0.8-6.2,4.1-10.3,10.3-11.8c5.8-1,10.1-1.6,10.1-1.6l0,7v104.9c1.4-0.4,21.9-3.8,23.3-4
				c0-25.8,0.1-129.2,0.1-129.2s-28.5,5.4-37.4,7.2C105.8,163.6,99,170.5,97.1,180.2 M469.8,278.4l-12.6-3.8l-3.7,16.4
				c-8.2-2.4-16.4-4.8-16.4-4.7c-5.1-1.4-7.5-4.4-8.7-6.7c-1.4-2.6-1.5-5.1-1.5-6c0-0.1,0-0.2,0-0.3h0c0-0.8,0-81.1,0-81.2
				c0-0.9,0.2-3.3,1.5-5.2c1.2-1.6,3.7-3.3,8.7-1.9c0-0.1,5.4,1.5,11.7,3.4l3.8,24.1l17.3,5.3v-36.8c0,0-45.5-13.1-47.7-13.6
				c-12-3-18.1,2-18.1,14.3v91.9c0,12.3,6.1,19.8,18.1,22.7c0-0.3,15.2,3.9,28.5,7.7l19.2,5.9L469.8,278.4z"/>
			<path fill="#0077C0" d="M304.5,220.5c1.2,0.1,6,0.4,6,0.4v43.4c-3.6-0.3-7.1-0.5-10.7-0.7c-5.2-0.3-7.7-2.9-9-4.9
				c-1.3-2.3-1.5-4.8-1.5-5.7c0-1,0-36.5,0-60.3c0-11.5-0.2-20.2-0.2-20.8c0-0.2,0.1-0.7,0.1-1.4c0-1.5,0.3-3.7,1.9-5.6
				c1.8-2,4.7-3,8.6-2.7c0-0.1,6.1,0.4,13.1,1l3.2,14.5l17.6,2.3v-25.9v-2.6c-1.5-0.7-49.1-4.3-49.2-3.8l-0.8-0.1
				c-3.8-0.2-10.1-0.4-14,3.4c-2.5,2.4-3.7,6.1-3.7,11v95.7c0,12.3,6.2,18.5,18.5,19c0-0.4,43,2.6,49.2,3.8c0-1.5,0.1-67.7,0.1-69.2
				c-1.5-0.3-27.8-2.7-29.3-2.7V220.5z M357.6,283.5c1.4,0.1,21.6,3.5,23,3.8V158.4c-1.4-0.4-21.6-3.7-23-3.8V283.5z M97.1,180.2
				v-13.6c0,0-26.5,4.2-43.9,9.7c-4.6,1.5-11.2,6.7-11.2,13.3v120.2c1.4-0.5,19.5-6.1,20.9-6.4V200c0-7.2,5.9-10.8,11-12.4
				c2.8-0.8,11.1-2.1,11.1-2.1v89.1l23-5.4c0,0,0-79.5,0-79.9c0.8-6.2,4.1-10.3,10.3-11.8c5.8-1,10.1-1.6,10.1-1.6l0,7v104.9
				c1.4-0.4,21.8-3.8,23.3-4c0-25.8,0.1-129.2,0.1-129.2s-28.5,5.4-37.4,7.2C105.8,163.6,99,170.5,97.1,180.2"/>
		</g>
		<g>
			<path fill="#130C0E" d="M185.3,100.8c-0.6-0.8-1.5-1.3-2.5-1.6l0,0c-0.7-0.2-1.4-0.3-2.1-0.3c-1.1,0-2.1,0.2-2.9,0.3
				c-2.5,0.5-5,0.9-7.4,1.4c-1.9,0.4-3.4,0.9-4.7,1.8c-0.9,0.6-1.7,1.3-2.2,2.2c-0.7,1.1-1,2.3-1,3.6v24c0,1.3,0.3,2.5,1,3.4
				c0.6,0.8,1.5,1.3,2.5,1.5c0.6,0.1,1.2,0.2,1.8,0.2c1.2,0,2.3-0.2,3.2-0.4c2.5-0.5,4.9-1,7.4-1.4c1.9-0.3,3.5-0.9,4.7-1.7
				c0.9-0.6,1.7-1.3,2.3-2.1c0.7-1.1,1-2.3,1-3.6v-24C186.3,102.9,186,101.7,185.3,100.8z M177.3,128.7c0,0,0,0.3-0.3,0.6l0,0h0
				c-0.3,0.3-0.8,0.5-1.5,0.7c-0.6,0.1-1.9,0.4-3,0.6c-0.2,0-0.4,0.1-0.5,0.1c-0.4,0-0.4-0.1-0.4-0.1h0c0,0-0.1-0.2-0.1-0.2v0v-22.6
				v0c0,0,0-0.3,0.3-0.6c0.3-0.3,0.8-0.5,1.6-0.7c0.8-0.2,1.7-0.3,2.6-0.5c0.2,0,0.5-0.1,0.7-0.1c0.3,0,0.5,0.1,0.6,0.1
				c0.1,0,0.1,0.2,0.1,0.2V128.7z"/>
		</g>
		<path fill="#130C0E" d="M298.2,96.2c-0.6-0.8-1.4-1.5-2.4-2v0c-1.8-0.9-3.6-1.1-4.9-1.1c-4.9-0.3-9.8-0.6-14.8-0.7l-1.4,0v36.4
			l1.3,0c2.1,0.1,4.3,0.2,6.4,0.3l1.5,0.1V98.7c1,0.1,2,0.1,3,0.2c3.5,0.4,2.9,1.5,3.1,1.9v28.6l1.3,0.1c2.1,0.2,4.2,0.3,6.3,0.5
			l1.5,0.1v-1.5c0-3.4,0-26.4,0-28.8C299.2,98.4,298.9,97.2,298.2,96.2z"/>
		<g>
			<path fill="#130C0E" d="M327.4,99.5c-0.6-0.9-1.4-1.6-2.3-2.1l0,0h0c-1.3-0.8-2.9-1.2-4.8-1.5c-2-0.3-12-1.5-14.7-1.7l-1.5-0.1
				l0,36.5l1.3,0.1c4.9,0.5,9.7,1.1,14.5,1.7c0.8,0.1,1.6,0.2,2.3,0.2c0.9,0,1.8-0.1,2.6-0.3c1-0.3,1.9-0.8,2.5-1.6
				c0.8-1,1.1-2.2,1.1-3.5v-24C328.4,101.8,328.1,100.6,327.4,99.5z M319,125.6c-0.2,0.1-0.8,0.3-1.3,0.3c-0.4,0-0.8,0-1.2-0.1
				c-1.1-0.1-2.2-0.3-3.3-0.4v-24.2c1,0.1,2,0.2,3,0.4c1,0.1,1.9,0.4,2.4,0.7c0.5,0.4,0.7,0.7,0.8,1.5c0,2.5,0,20.4,0,21
				C319.3,125.4,319.2,125.4,319,125.6z"/>
		</g>
		<g>
			<path fill="#130C0E" d="M215.3,129.2c0-4.1,0-8.2,0-12.3c0-1.3-0.7-2.5-1.8-3.2v0c-0.1-0.1-0.3-0.2-0.4-0.3c1-0.7,2-1.9,2.2-3.8
				v-9.3c0-1.3-0.3-2.5-1.1-3.5c-0.6-0.8-1.5-1.3-2.5-1.7c-0.9-0.3-1.8-0.4-2.9-0.4c-0.6,0-1.3,0-2,0.1c-4.8,0.6-9.7,1.2-14.5,1.9
				L191,97v36.5l1.6-0.2c2.1-0.3,4.2-0.6,6.3-0.9l1.2-0.2v-14c1.1-0.1,2.1-0.3,3.2-0.4c0.1,0,0.1,0,0.2,0l0.2,0c0.3,0,0.6,0,0.8,0
				c0.8,0,1.3,0.2,1.4,0.3c0.2,0.1,0.3,0.3,0.3,0.9v12.6l1.6-0.2c2.1-0.2,4.2-0.5,6.3-0.7l1.3-0.1L215.3,129.2z M206.1,109.6
				C206.1,109.7,206.1,109.7,206.1,109.6c0,0.2,0,0.6-0.5,1.1l0,0c-0.5,0.4-1.3,0.8-2.6,0.9c-0.9,0.1-1.8,0.2-2.7,0.4v-10.2
				c1-0.1,2.1-0.3,3.1-0.4c0.5-0.1,1-0.1,1.4-0.1c0.8,0,1.3,0.2,1.4,0.3c0.1,0.1,0,0,0.1,0.4v0c0,0,0,0.1,0,0.1v0.1
				c0,1.8,0,4.3,0,5.9C206.1,108.9,206.1,109.4,206.1,109.6z"/>
		</g>
		<path fill="#130C0E" d="M240.7,121v-4.7l-1.5,0.1l-5.6,0.4l-2.1,6.4c-0.8,0.1-1.6,0.1-2.5,0.2V92.9l-1.5,0.1
			c-2.1,0.1-4.3,0.3-6.4,0.5l-1.3,0.1v36.5l1.5-0.1c6-0.5,11.9-0.9,17.9-1.1l1.3-0.1v-1.3c0-1.1,0-2.2,0-3.3L240.7,121L240.7,121z"
			/>
		<g>
			<path fill="#130C0E" d="M268.5,92c-1.8-0.1-6.7-0.1-10.5-0.1c-2,0-3.6,0-4.3,0c-1.9,0-3.5,0.3-4.9,0.9c-1,0.4-1.8,1.1-2.4,1.9
				c-0.7,1-1.1,2.2-1.1,3.6c0,2.4,0,25.4,0,28.8v1.4l1.4,0c2.1-0.1,4.2-0.1,6.3-0.1l1.4,0v-13.5c1.8,0,3.6,0,5.4,0
				c0.3,0,0.5,0,0.8,0v13.5l1.4,0c2.1,0,4.3,0,6.4,0.1l1.4,0V92L268.5,92z M260.6,108.8c-0.5,0-1.1,0-1.6,0c-1.5,0-3,0-4.5,0v-9.4
				l0-0.1c0-0.1,0.1-0.4,0.4-0.6c0.4-0.3,1.3-0.6,2.7-0.6c0.7,0,1.5,0,2.2,0c0.3,0,0.6,0,0.8,0V108.8z"/>
		</g>
		<g>
			<path fill="#130C0E" d="M355.6,104.7L355.6,104.7c-0.5-0.9-1.3-1.6-2.1-2.2c-1.7-1.1-3.5-1.5-4.9-1.8c-2.5-0.5-4.9-1-7.4-1.4
				c-1-0.2-1.9-0.3-2.7-0.3c-0.8,0-1.5,0.1-2.2,0.3c-1,0.2-1.9,0.8-2.5,1.5c-0.8,1-1.1,2.2-1.1,3.5v24c0,1.3,0.3,2.5,1,3.6
				c0.5,0.9,1.3,1.6,2.2,2.1c1.7,1,3.5,1.4,4.9,1.7c2.5,0.5,4.9,0.9,7.3,1.4c1.1,0.2,2.1,0.3,3,0.3c0.6,0,1.2-0.1,1.8-0.2
				c1-0.2,1.9-0.7,2.6-1.5c0.8-0.9,1.1-2.2,1.1-3.5v-24C356.6,107,356.3,105.8,355.6,104.7z M347.6,130.3c0,0,0,0.1,0,0.1
				c0,0,0,0,0,0.1v0h0c-0.1,0-0.2,0.1-0.6,0.1c-0.2,0-0.5,0-0.8-0.1c-0.6-0.1-1.9-0.4-2.9-0.6c-0.8-0.1-1.2-0.5-1.4-0.8
				c-0.1-0.3-0.1-0.5-0.1-0.5v0v-22.7v0v0c0,0,0,0,0,0c0.1,0,0.3-0.1,0.6-0.1c0.2,0,0.4,0,0.7,0.1c0.9,0.2,1.7,0.3,2.6,0.5
				c0.7,0.1,1.2,0.4,1.5,0.7c0.5,0.4,0.4,0.7,0.4,0.7V130.3z"/>
		</g>
		<polygon fill="#FFFFFF" points="204.5,302.9 209.1,300.6 212.9,304 212.1,299 216.5,296.4 211.5,295.5 210.4,290.6 208.1,295.1 
			203,294.6 206.6,298.2 		"/>
		<g>
			<path fill="#130C0E" d="M358.2,274.5c4.5-2,12.8-5.6,12.8-5.6l0.6-0.3l-0.7-0.2c0,0-13.5-4.4-16.3-5.4c-0.4-3-2.6-17.7-2.6-17.7
				l-0.1-0.7l-4.9,8c0,0-2.8,4.5-4.3,7c-3.2-0.8-17.1-4.4-17.1-4.4l-0.7-0.2l0.5,0.6c0,0,5.7,7.3,9.1,11.7c-14-3-30.2-4.7-48.7-4.7
				c-6.1,0-12.4,0.2-19,0.6c-25.2,1.4-50.1,6.1-73.9,14.7l2.7-8.1l-0.5,0.2c-37.3,11.6-78.1,46.6-96.1,81.2l0.4,0.3
				c25.5-23.9,60-43,90.9-49.9l-8.1,18.9l0.6-0.3c14.4-6.9,33.3-10,52.3-10c19.5,0,39.2,3.2,54.4,8.8l-5.8,12.7
				c-13.9-6.4-33.9-10.6-50.6-10.6c-3,0-5.8,0.1-8.5,0.4l0,0.5c19.7,5.5,40,11.8,56.1,24.7c-0.1,1.4-0.1,2.7-0.1,4.1
				c0,34,29.4,64.8,63.8,64.8c0.2,0,0.5,0,0.7,0c38-0.5,66.1-35.3,66.1-71.6C411.3,317.2,396,289.7,358.2,274.5z"/>
		</g>
		<g>
			<path fill="#BBC4CA" d="M337.5,336.8c-14,0-28.1-5.1-42.2-10.3c-3.7,7.9-5.6,16.1-5.6,24.5c0,4.5,0.5,9,1.6,13.5
				c1.2,0,2.3,0,3.5,0c27.2,0,56.1-7.6,79.4-21.4c-2.7-5-6-9.7-9.5-14.2C355.7,334.6,346.6,336.8,337.5,336.8z"/>
			<path fill="#BBC4CA" d="M293.8,369.7c-0.3,0-0.6,0-0.9,0c8.5,22,28,36.6,51.8,36.9c7.6-18.8,16.1-39.3,35.4-48.9
				c-1-3.4-2.2-6.7-3.6-9.9C351.7,362.4,322.6,369.7,293.8,369.7z"/>
			<path fill="#BBC4CA" d="M352.7,300.7c-8.5-3.2-13.9-4.2-14.4-4.3c-2.4,0.3-5.6,0.6-8.2,1.2c14.4,5.7,25,12.7,35.7,24.6
				c5.5-4.3,10.3-9.2,13.6-15.3c-9.8-9.5-28.2-21.2-74.2-24.8c19.4,4.6,37.2,10.8,47.6,18.2L352.7,300.7z"/>
			<path fill="#BBC4CA" d="M223.8,294.3c2.9-0.1,5.9-0.1,9.2-0.1c32.6,0,83,3.9,102.6,27.1l-0.3,0.4c-6.8-3.8-20.3-10-28.7-10
				c-0.3,0-0.5,0-0.8,0c-2.9,3.2-5.5,6.7-7.8,10.4c13.1,4.8,26.3,9.6,39.4,9.6c8.2,0,16.4-1.9,24.5-6.8
				c-22.6-24.7-61-35.4-97.1-35.4C250.4,289.4,236.4,291.1,223.8,294.3z"/>
			<path fill="#BBC4CA" d="M378.3,340.5c6.3-4.3,11.8-8.8,16.7-14.6c-3.1-5.9-8.5-12.6-12.4-16c-3.6,6.3-8.2,11.6-13.8,16.2
				C372.2,330.5,375.6,335.6,378.3,340.5z"/>
			<path fill="#BBC4CA" d="M350.3,406.4c11.5-1.4,22-5.3,30.9-12.8c1.4-5.1,1.9-10.3,1.9-15.6c0-5-0.5-10.1-1.4-15
				C364.4,371.3,357.2,389.6,350.3,406.4z"/>
			<path fill="#BBC4CA" d="M388.2,381.4c0,1.7,0,3.5-0.1,5.2c6.7-9.1,10.3-17,12.3-28.6c-4.9,0.4-9.8,1.3-14.4,2.8
				C387.5,367.6,388.2,374.5,388.2,381.4z"/>
			<path fill="#BBC4CA" d="M380.7,345.3c1.5,3.5,2.9,7,4,10.6c5.4-1.8,10.6-2.7,16.2-3c0-0.4,0-0.8,0-1.2c0-7.4-1.1-13.2-3.5-20.3
				C392.3,336.7,386.8,341.2,380.7,345.3z"/>
			<path fill="#BBC4CA" d="M401,352.9c-5.6,0.3-10.8,1.2-16.2,3c-1.2-3.6-2.5-7.1-4-10.6c6.1-4.1,11.6-8.6,16.7-13.9
				c2.4,7.1,3.5,12.9,3.5,20.3C401,352.1,401,352.5,401,352.9z"/>
			<path fill="#BBC4CA" d="M401,352.9c-5.6,0.3-10.8,1.2-16.2,3c-1.2-3.6-2.5-7.1-4-10.6c6.1-4.1,11.6-8.6,16.7-13.9
				c2.4,7.1,3.5,12.9,3.5,20.3C401,352.1,401,352.5,401,352.9z"/>
			<path fill="#BBC4CA" d="M382.7,309.9c3.9,3.4,9.3,10.1,12.4,16c-5,5.8-10.4,10.3-16.7,14.6c-2.7-4.8-6.2-10-9.5-14.4
				C374.5,321.5,379.1,316.3,382.7,309.9z"/>
			<path fill="#BBC4CA" d="M382.7,309.9c3.9,3.4,9.3,10.1,12.4,16c-5,5.8-10.4,10.3-16.7,14.6c-2.7-4.8-6.2-10-9.5-14.4
				C374.5,321.5,379.1,316.3,382.7,309.9z"/>
			<path fill="#BBC4CA" d="M305.3,282c46,3.6,64.4,15.3,74.2,24.8c-3.3,6-8.2,10.9-13.6,15.3c-10.7-11.9-21.3-18.8-35.7-24.6
				c2.6-0.5,5.8-0.8,8.2-1.2c0.5,0.1,5.9,1.1,14.4,4.3l0.2-0.5C342.5,292.8,324.7,286.6,305.3,282z"/>
			<path fill="#BBC4CA" d="M305.3,282c46,3.6,64.4,15.3,74.2,24.8c-3.3,6-8.2,10.9-13.6,15.3c-10.7-11.9-21.3-18.8-35.7-24.6
				c2.6-0.5,5.8-0.8,8.2-1.2c0.5,0.1,5.9,1.1,14.4,4.3l0.2-0.5C342.5,292.8,324.7,286.6,305.3,282z"/>
			<path fill="#BBC4CA" d="M294.8,364.5c-1.2,0-2.3,0-3.5,0c-1.1-4.5-1.6-9-1.6-13.5c0-8.4,1.9-16.6,5.6-24.5
				c14.1,5.2,28.1,10.3,42.2,10.3c9.1,0,18.2-2.2,27.3-7.9c3.5,4.5,6.8,9.2,9.5,14.2C350.9,356.9,322,364.5,294.8,364.5z"/>
			<path fill="#BBC4CA" d="M294.8,364.5c-1.2,0-2.3,0-3.5,0c-1.1-4.5-1.6-9-1.6-13.5c0-8.4,1.9-16.6,5.6-24.5
				c14.1,5.2,28.1,10.3,42.2,10.3c9.1,0,18.2-2.2,27.3-7.9c3.5,4.5,6.8,9.2,9.5,14.2C350.9,356.9,322,364.5,294.8,364.5z"/>
			<path fill="#BBC4CA" d="M344.8,406.7c-23.8-0.3-43.3-14.9-51.8-36.9c0.3,0,0.6,0,0.9,0c28.8,0,57.8-7.3,82.7-21.9
				c1.4,3.2,2.6,6.5,3.6,9.9C360.8,367.4,352.4,387.9,344.8,406.7z"/>
			<path fill="#BBC4CA" d="M344.8,406.7c-23.8-0.3-43.3-14.9-51.8-36.9c0.3,0,0.6,0,0.9,0c28.8,0,57.8-7.3,82.7-21.9
				c1.4,3.2,2.6,6.5,3.6,9.9C360.8,367.4,352.4,387.9,344.8,406.7z"/>
			<path fill="#BBC4CA" d="M388.1,386.6c0.1-1.7,0.1-3.5,0.1-5.2c0-6.9-0.7-13.8-2.2-20.6c4.6-1.5,9.5-2.4,14.4-2.8
				C398.4,369.6,394.8,377.5,388.1,386.6z"/>
			<path fill="#BBC4CA" d="M388.1,386.6c0.1-1.7,0.1-3.5,0.1-5.2c0-6.9-0.7-13.8-2.2-20.6c4.6-1.5,9.5-2.4,14.4-2.8
				C398.4,369.6,394.8,377.5,388.1,386.6z"/>
			<path fill="#BBC4CA" d="M361.9,324.8c-8.1,4.9-16.3,6.8-24.5,6.8c-13.1,0-26.3-4.8-39.4-9.6c2.3-3.7,4.9-7.2,7.8-10.4
				c0.3,0,0.5,0,0.8,0c8.4,0,22,6.2,28.7,10l0.3-0.4c-19.5-23.2-69.9-27-102.6-27.1c-3.3,0-6.3,0-9.2,0.1
				c12.5-3.2,26.6-4.9,40.9-4.9C300.9,289.4,339.2,300.2,361.9,324.8z"/>
			<path fill="#BBC4CA" d="M361.9,324.8c-8.1,4.9-16.3,6.8-24.5,6.8c-13.1,0-26.3-4.8-39.4-9.6c2.3-3.7,4.9-7.2,7.8-10.4
				c0.3,0,0.5,0,0.8,0c8.4,0,22,6.2,28.7,10l0.3-0.4c-19.5-23.2-69.9-27-102.6-27.1c-3.3,0-6.3,0-9.2,0.1
				c12.5-3.2,26.6-4.9,40.9-4.9C300.9,289.4,339.2,300.2,361.9,324.8z"/>
			<path fill="#BBC4CA" d="M381.2,393.6c-8.9,7.5-19.4,11.4-30.9,12.8c6.9-16.9,14.1-35.1,31.4-43.4c0.9,4.9,1.4,10,1.4,15
				C383.1,383.3,382.5,388.5,381.2,393.6z"/>
			<path fill="#BBC4CA" d="M381.2,393.6c-8.9,7.5-19.4,11.4-30.9,12.8c6.9-16.9,14.1-35.1,31.4-43.4c0.9,4.9,1.4,10,1.4,15
				C383.1,383.3,382.5,388.5,381.2,393.6z"/>
		</g>
		<polygon fill="#BBC4CA" points="335.8,279.4 345.8,275.9 353.4,284.5 352.5,273.3 362.1,269.1 351.6,265.6 350,254.4 344.4,263.5 
			333.7,260.8 340.8,269.9 		"/>
		<polygon fill="#FFFFFF" points="282.5,287.5 289.5,284.1 295.3,289.2 294.1,281.6 300.8,277.7 293.2,276.4 291.5,268.8 288,275.7 
			280.3,274.9 285.7,280.4 		"/>
		<polygon fill="#FFFFFF" points="204.5,302.9 209.1,300.6 212.9,304 212.1,299 216.5,296.4 211.5,295.5 210.4,290.6 208.1,295.1 
			203,294.6 206.5,298.2 		"/>
		<g>
			<path fill="#0077C0" d="M377.3,371.9l0-0.9l-6.4,10.8l1.8-9.5l-0.5-0.2c-9.4,11.4-13,19.7-16,29.8l-0.1,0.5l0.5-0.2
				c10.6-3.7,16.1-7.9,18.3-9.7l0,0l0-0.1c1.6-3.4,2.3-10.3,2.3-18.8C377.3,373,377.3,372.4,377.3,371.9z"/>
			<path fill="#0077C0" d="M355.7,346.9c-10.3,2.1-22.3,3.3-33.4,3.3c-1.7,0-3.3,0-4.9-0.1l23.7-7l-0.1-0.5
				c-15.6-0.7-27.7-1-42.9-8.2l-0.2-0.1l-0.1,0.2c-2.3,4.1-3.6,9.8-3.6,15.6c0,3.3,0.4,6.6,1.3,9.6l0.1,0.2l0.2,0c0,0,0.5,0,1.5,0
				c6.8,0,34.8-0.8,58.6-12.6L355.7,346.9z"/>
			<path fill="#0077C0" d="M360.9,366.1c-11.9,8.9-20.9,16-38.5,19.3c16.3-8.5,27.2-14.3,37.5-24.7l-0.3-0.4
				c-18.2,10.6-41.9,15.1-58.7,15.8l-0.5,0l0.2,0.4c13.8,21.8,31.2,23.8,36.9,23.8c0,0,0,0,0,0c1.2,0,1.8-0.1,1.8-0.1l0.1,0l0.1-0.1
				c7.4-11.7,12.1-22.9,21.6-33.6L360.9,366.1z"/>
		</g>
		<path fill-rule="evenodd" clip-rule="evenodd" fill="#FFFFFF" d="M391.7,324.5c-1.6,1.7-3.1,3.2-4.6,4.6c-1.7-3.7-3.7-7.2-6-10.5
			c1.2-1.5,2.4-3,3.5-4.5C387.5,317.3,390.1,321.1,391.7,324.5 M398,347.6c-1.8,0.2-3.5,0.5-5.2,0.9c-0.4-2.7-0.9-5.4-1.6-8.1
			c1.8-1.5,3.6-3.1,5.3-4.8C397.5,339.6,398,343.2,398,347.6 M392.1,372.3l0-0.9c0.8-3.8,1.2-7.6,1.3-11.3c1-0.3,2-0.5,3-0.7
			C395.3,364,394,368.3,392.1,372.3 M348.7,293.4c-0.9-0.5-1.7-0.9-2.7-1.3c14.1,4.2,23.6,9.6,28.9,13.7c-0.8,1.2-1.7,2.4-2.7,3.5
			C365.8,302.6,357.8,297.1,348.7,293.4"/>
	</g>
</g>
</svg>
