<?xml version="1.0" encoding="utf-8"?>
<!-- Generator: Adobe Illustrator 18.0.0, SVG Export Plug-In . SVG Version: 6.00 Build 0)  -->
<!DOCTYPE svg PUBLIC "-//W3C//DTD SVG 1.1//EN" "http://www.w3.org/Graphics/SVG/1.1/DTD/svg11.dtd">
<svg version="1.1" xmlns="http://www.w3.org/2000/svg" xmlns:xlink="http://www.w3.org/1999/xlink" x="0px" y="0px" width="512px"
	 height="512px" viewBox="0 0 512 512" enable-background="new 0 0 512 512" xml:space="preserve">
<g id="white_block">
	<rect opacity="0" fill="#FFFFFF" width="512" height="512"/>
</g>
<g id="Logos">
	<g>
		<path fill="#FFFFFF" d="M472.5,256c0,119.6-96.9,216.5-216.5,216.5S39.5,375.6,39.5,256c0-119.6,96.9-216.5,216.5-216.5
			S472.5,136.4,472.5,256"/>
		<path fill="#006BB6" d="M464.5,256c0,115.2-93.4,208.5-208.5,208.5c-115.2,0-208.5-93.4-208.5-208.5S140.8,47.5,256,47.5
			C371.2,47.5,464.5,140.8,464.5,256"/>
		<polygon fill="#FFFFFF" points="79.7,291.5 83.9,305.1 98.4,305.1 86.7,313.7 91,327 79.7,318.8 68.2,327 72.5,313.6 60.8,305.1 
			75.2,305.1 		"/>
		<polygon fill="#FFFFFF" points="432.5,291.5 436.7,305.1 451.2,305.1 439.5,313.7 443.8,327 432.5,318.8 421,327 425.3,313.6 
			413.6,305.1 428,305.1 		"/>
		<polygon fill="#FFFFFF" points="130.3,364.4 134.6,378 149,378 137.3,386.6 141.6,399.9 130.3,391.8 118.9,399.9 123.2,386.5 
			111.4,378 125.9,378 		"/>
		<polygon fill="#FFFFFF" points="386.5,364.4 390.8,378 405.3,378 393.5,386.6 397.8,399.9 386.5,391.8 375.1,399.9 379.4,386.5 
			367.7,378 382.1,378 		"/>
		<polygon fill="#FFFFFF" points="209.3,411.9 213.6,425.5 228,425.5 216.3,434 220.6,447.4 209.3,439.2 197.9,447.4 202.2,434 
			190.4,425.5 204.9,425.5 		"/>
		<polygon fill="#FFFFFF" points="305.3,411.9 309.6,425.5 324,425.5 312.3,434 316.6,447.4 305.3,439.2 293.9,447.4 298.2,434 
			286.5,425.5 300.9,425.5 		"/>
		<path fill="#FFFFFF" d="M412.3,257c0,86.3-70,156.3-156.3,156.3c-86.3,0-156.3-70-156.3-156.3c0-86.3,70-156.3,156.3-156.3
			C342.3,100.7,412.3,170.6,412.3,257"/>
		<path fill="#006BB6" d="M109,287.7c8.2,39.3,31.2,73,64.8,95c33.6,22,73.7,29.5,113,21.3c39.3-8.2,73.3-31,95-64.8
			c21.5-33.6,29.2-73.7,21.3-113c-7.8-39.3-31.2-72.9-64.8-94.9c-33.6-22-73.7-29.6-112.9-21.4c-39.3,8.2-73,31.2-95,64.8
			C108.3,208.3,100.8,248.4,109,287.7"/>
		<path fill="#FFFFFF" d="M307.2,139.9c0.5,5.8-2.2,11.6-8.1,17c-28.2-20.7-55-30.8-81.3-30.9c-5.7,0-11.2,0.4-16.5,1.3
			c8.3-3.5,17-6.2,26-8.1c23.5-4.9,47.4-3.8,69.7,3.1C301.8,126.9,306.6,133.1,307.2,139.9"/>
		<path fill="#FFFFFF" d="M277.8,382.6c29.6-27.2,43.3-85.5,51.5-120.3l1.3-5.4c4.2-17.7,11.7-30.9,19.7-38.9
			c29.7,46.1,25.7,93.8,18.2,123.7c-20.5,27.3-49.9,46-83.7,53.1c-9.6,2-19.3,3-28.9,3C262.9,394.3,270.3,389.4,277.8,382.6"/>
		<path fill="#FFFFFF" d="M331.6,184.9c12-10.1,21.7-17.8,28.5-22.8c14.8,16.2,25.7,35.7,31.6,57.1c-5.6-7.4-12.6-14.5-20.3-16.1
			c-6.6-1.4-13.4,0.5-19.8,5C345.9,200.4,339.3,192.5,331.6,184.9"/>
		<path fill="#FFFFFF" d="M117.9,250.6c13.7-36.7,63.8-51.7,82.7-57.3l0.8-0.3c6.2-1.9,15.1-3.4,25.4-5.1
			c24.3-4.1,54.3-9.2,72.4-22.7c7.3,5.6,14.9,12,22.6,19.3c-41,34.8-104.3,93.3-171.9,165.1c-15.8-18-26.7-39.8-31.7-63.8
			c-2-9.6-3-19.2-3-28.7C116.8,253.3,117.9,250.7,117.9,250.6"/>
		<path fill="#FFFFFF" d="M326.8,180.3c-7.6-7.2-15.1-13.7-22.5-19.4c6.9-6.7,10-13.9,9.3-21.5c-0.4-4.6-2.2-8.9-4.7-12.8
			c8.3,3.4,16.4,7.6,24.1,12.7c8.2,5.3,15.6,11.4,22.4,18.1C348.4,162.6,338.7,170.4,326.8,180.3"/>
		<path fill="#FFFFFF" d="M293.8,161.2c-17,11.7-45.1,16.5-68,20.4c-10.5,1.8-19.6,3.3-26.2,5.3l-0.8,0.3
			c-18.1,5.4-63.7,19-82.4,51.8c2.7-20.8,10-40.9,21.9-59c10-15.2,23.2-29.3,37.7-39.5C209.3,126.4,246.7,127.3,293.8,161.2"/>
		<path fill="#FFFFFF" d="M370,209.6c9.8,2,20.4,18.5,25.4,28.1c4.3,30.9-1.6,61.9-17.1,89c0.8-4.8,1.4-9.8,1.8-15.1
			c2-26.4-1.6-62.3-24.9-97.8C360.4,210.1,365.6,208.6,370,209.6"/>
		<path fill="#FFFFFF" d="M326.6,189.1c7.8,7.6,14.3,15.4,19.9,23.3c-9.6,9.2-17.8,24.4-22.2,43l-1.3,5.5
			c-8,34.1-21.5,91.2-49.6,117c-11.6,10.7-23,16.2-33.2,19.1c-21.6-2.4-42.6-9.9-61.3-22.2c-9.1-5.9-17.3-12.8-24.6-20.4
			C222.5,281.9,286.1,223.4,326.6,189.1"/>
		<path fill="#FFFFFF" d="M294.8,298.8l3.8-1c2.3-0.6,3.9-1.4,3.9-4.7c0-2.8-0.8-7.8-4.1-7.8c-3.6,0-3.6,6-3.6,9.3V298.8z"/>
		<path fill="#FFFFFF" d="M249.1,296.7c0-12-0.4-22.4-8.6-22.4c-6.7,0-7.8,10.4-7.8,22.4c0,12-0.3,22.4,7.8,22.4
			C247.4,319.1,249.1,308.7,249.1,296.7"/>
		<path fill="#FFFFFF" d="M294.8,298.8l3.8-1c2.3-0.6,3.9-1.4,3.9-4.7c0-2.8-0.8-7.8-4.1-7.8c-3.6,0-3.6,6-3.6,9.3V298.8z"/>
		<path fill="#FFFFFF" d="M231.8,269.1h-0.2h0.3c3.9-6.1,11.4-9,18.7-9c16.5,0,26.7,14.2,26.7,33.4c0,22.7-15.4,36.2-34.4,36.2
			c-29.3,0-39.9-23.6-39.9-50.9c0-31.5,13.7-57.5,47.8-57.5c13.3,0,24.2,8.6,24.2,21.7c0,8.5-6.6,12.6-12.8,12.6
			c-9.2,0-12.1-7.7-13.4-14.4c-0.5-2.9,0.5-9.2-4.2-9.2c-9.9,0-11.5,19.4-11.9,26.5L231.8,269.1z"/>
		<path fill="#FFFFFF" d="M249.1,296.7c0-12-0.4-22.4-8.6-22.4c-6.7,0-7.8,10.4-7.8,22.4c0,12-0.3,22.4,7.8,22.4
			C247.4,319.1,249.1,308.7,249.1,296.7"/>
		<path fill="#FFFFFF" d="M71.8,222.5c5.5,0.7,7.9,4.6,7,11.8l-0.6,5.2l3,0.4c3.8,0.5,5.3,0.4,5.7-2.7l3.5,0.4l-1.7,14.2l-3.5-0.4
			c0.3-3.1-1.1-3.5-4.9-4l-11.1-1.3c-3.8-0.5-5.3-0.4-5.7,2.7l-3.5-0.4l1.9-15.7C62.6,225.2,66.1,221.8,71.8,222.5 M74.7,237.7
			c0.6-4.7-0.8-7.3-4.2-7.7c-2.9-0.3-5.1,1.5-5.5,5c-0.3,2.5,0.6,3,3.3,3.3l6.2,0.7C74.6,238.6,74.7,238.1,74.7,237.7"/>
		<path fill="#FFFFFF" d="M92.6,206.7c1.1-2.9-0.1-3.7-3.6-5.2l-10.3-4.3c-3.6-1.5-5-1.8-6.3,1.1l-3.3-1.4l5.5-13.2l3.2,1.3
			c-1.1,2.9,0.1,3.7,3.6,5.2l2.7,1.1l4.1-9.9l-2.7-1.1c-3.6-1.5-5-1.8-6.3,1.1l-3.2-1.3l5.5-13.2l3.3,1.4c-1.1,2.9,0.1,3.7,3.6,5.2
			l10.3,4.3c3.6,1.5,5,1.8,6.3-1.1l3.3,1.4l-5.5,13.2l-3.2-1.3c1.1-2.9-0.1-3.7-3.6-5.2l-4.5-1.9l-4.1,9.9l4.5,1.9
			c3.6,1.5,5,1.8,6.3-1.1l3.2,1.3l-5.5,13.2L92.6,206.7z"/>
		<path fill="#FFFFFF" d="M106.5,136.4c-1.8,2.6-0.8,3.6,2.3,5.9l8.9,6.7c3.1,2.3,4.4,3,6.3,0.5l2.9,2.1l-8.6,11.5l-2.9-2.1
			c1.8-2.6,0.8-3.6-2.3-5.9l-8.9-6.7c-3.1-2.3-4.4-3-6.3-0.5l-2.9-2.1l8.6-11.5L106.5,136.4z"/>
		<path fill="#FFFFFF" d="M138.8,138.1l-2.3-2.7c2.3-2.1,1.6-3.3-0.9-6.3l-7.2-8.6c-2.5-3-3.6-3.9-6-2l-2.3-2.7l11-9.2l2.3,2.7
			c-2.3,2.1-1.6,3.3,0.9,6.3l8,9.5c1.9,2.2,2.7,2.6,5,0.6c3-2.5,4.3-7.1,3.2-12.7l3.1-0.7l3.2,10.5L138.8,138.1z"/>
		<path fill="#FFFFFF" d="M172.9,111.9l-1.5-3.2c2.7-1.7,2.6-3.5,2.5-6.6l-0.8-22.2l6-2.7l16.5,16.1c1.9,1.8,2.9,2.7,5.4,1.9
			l1.5,3.2l-13.1,6l-1.4-3.2c0.1,0,0.2-0.1,0.3-0.1c1.8-0.8,2.5-1.6,2-2.7c-0.2-0.4-0.4-0.7-0.8-1.1l-3-3l-8.4,3.9l0.5,4.2
			c0,0.3,0.1,0.7,0.2,0.9c0.6,1.3,1.8,1.4,3.8,0.5l1.4,3.2L172.9,111.9z M183.5,91.6l-6.2-6.6l0.5,9.2L183.5,91.6z"/>
		<path fill="#FFFFFF" d="M217.1,90.4c3.1-0.5,3.2-2,2.6-5.8l-1.6-11.1c-0.5-3.8-1-5.2-4.1-4.8l-0.5-3.5l14.5-2.1
			c11.1-1.6,17.8,2.8,19.1,12c1.3,9.2-3.8,15.2-15,16.8L217.6,94L217.1,90.4z M227.4,85.3c0.4,2.9,0.9,3.6,3.9,3.2
			c5.7-0.8,8.8-5.3,7.9-12.3c-1-6.9-5.2-10.4-11-9.6c-3,0.4-3.2,1.3-2.8,4.1L227.4,85.3z"/>
		<path fill="#FFFFFF" d="M267.5,86.2c3.1,0.4,3.6-1,4.1-4.8l1.6-11c0.6-3.8,0.5-5.3-2.6-5.8l0.5-3.5l23.8,3.5l2.6,9.2l-2.9,1
			c-2.3-4.8-5.7-7.6-10-8.2c-2.8-0.4-3.4,0.4-3.8,3.2l-0.6,4.1l1.4,0.2c3,0.4,3.9-0.4,4.6-3.9l3,0.4l-1.9,13l-3-0.4
			c0.1-3.4-0.9-5.1-3.2-5.4l-1.4-0.2l-1,6.7c-0.4,2.8-0.1,3.7,2.7,4.1c4.2,0.6,9.2-1.4,13.1-6.1l2.5,1.9l-5.8,9.2L267,89.7
			L267.5,86.2z"/>
		<path fill="#FFFFFF" d="M312.5,98.9l1.4-3.3c2.9,1.2,3.7,0,5.2-3.6l4.5-10.2c1.5-3.5,1.9-4.9-0.9-6.3l1.4-3.3l13.1,5.7l-1.4,3.3
			c-2.9-1.2-3.7,0-5.3,3.6l-5,11.4c-1.2,2.6-1.1,3.6,1.6,4.7c3.6,1.6,8.3,0.7,12.8-2.8l2,2.5l-8,7.6L312.5,98.9z"/>
		<path fill="#FFFFFF" d="M386,120.1c-3.5,4.3-8,4.2-13.7-0.4l-4.1-3.3l-1.9,2.3c-2.4,3-3.1,4.3-0.7,6.3l-2.2,2.8l-11.2-9l2.2-2.8
			c2.5,1.9,3.6,1,6-2l7-8.7c2.4-3,3.1-4.3,0.7-6.3l2.2-2.8l12.3,9.9C388.6,110.9,389.7,115.7,386,120.1 M371.6,114.5
			c3.7,3,6.6,3.2,8.7,0.5c1.9-2.3,1.4-5.1-1.3-7.3c-2-1.6-2.9-1.1-4.6,1l-3.9,4.8C370.8,113.9,371.2,114.2,371.6,114.5"/>
		<path fill="#FFFFFF" d="M388.2,146.2c1.9,2.5,3.2,1.9,6.3-0.3l9.2-6.4c3.2-2.2,4.2-3.2,2.5-5.9l2.9-2l8.2,11.8l-2.9,2
			c-1.9-2.5-3.2-1.9-6.3,0.3l-2.4,1.6l6.2,8.8l2.4-1.7c3.2-2.2,4.2-3.2,2.5-5.9l2.9-2l8.2,11.8l-2.9,2c-1.9-2.5-3.2-1.9-6.3,0.3
			l-9.2,6.4c-3.2,2.2-4.2,3.2-2.5,5.9l-2.9,2l-8.2-11.8l2.9-2c1.9,2.5,3.2,1.9,6.3-0.3l4-2.8l-6.2-8.8l-4,2.8
			c-3.2,2.2-4.2,3.2-2.5,5.9l-2.9,2l-8.2-11.8L388.2,146.2z"/>
		<path fill="#FFFFFF" d="M440.3,195.5c-1.2-2.9-2.6-2.6-6.2-1.2l-10.4,4c-3.6,1.4-4.8,2.1-3.8,5.1l-3.3,1.3l-5.1-13.4l3.3-1.3
			c1.2,2.9,2.6,2.6,6.2,1.2l10.4-4c3.6-1.4,4.9-2.1,3.8-5.1l3.3-1.3l5.1,13.4L440.3,195.5z"/>
		<path fill="#FFFFFF" d="M421.6,220.3l3.5-0.5c0.8,3.1,2.6,3.5,5.6,4.3l21.4,5.8l0.9,6.5l-20.3,11.1c-2.3,1.3-3.5,2-3.4,4.6
			l-3.5,0.5l-1.9-14.2l3.5-0.5c0,0.1,0,0.2,0,0.3c0.3,2,0.8,2.8,2,2.7c0.4-0.1,0.8-0.2,1.2-0.4l3.8-2l-1.2-9.2l-4.1-0.7
			c-0.3,0-0.7-0.1-1,0c-1.4,0.2-1.8,1.3-1.6,3.5l-3.4,0.5L421.6,220.3z M437.9,236.4l8.1-4l-9-2.2L437.9,236.4z"/>
		<path fill="#FFFFFF" d="M343.9,275.3c-3.2,0-5.7,1.4-7.5,3.4c-0.2-0.4-0.4-0.9-0.6-1.3l-1.6-3l-22.5,6.6v12.3h4.2
			c0.4,0,0.6,0,0.7,0c0.2,0.4,0.6,1.5,0.6,5.3v14.3l-4.1,0.6V327h31.1v-13.5l-4.1-0.6v-4.2c0-2.4,0.5-7,1.1-9.7
			c1.1,0.3,2.5,0.6,4.1,0.6c5.6,0,9.5-5,9.5-12.2C354.7,280.2,350.3,275.3,343.9,275.3"/>
		<path fill="#FFFFFF" d="M382.9,289.6c-0.3-1-0.4-1.4-0.4-2c0-3.7-1.5-12.3-15.1-12.3c-7.5,0-22.3,5.8-22.3,19.2
			c0,5,1.5,8.6,3.6,11.3c-3,1.7-4.8,5.1-4.8,9.3c0,4.8,2.4,13,18.8,13c13.9,0,22-7.2,22-19.8C384.6,296.3,383.6,292.3,382.9,289.6"
			/>
		<path fill="#FFFFFF" d="M218.4,217.3c-0.8-1-2.1-1.6-3.4-1.6c-2.1,0-3.7,1.3-5.7,3.4c-6.6,7-15.6,10.7-26,10.7
			c-13.6,0-27.8-6.2-39.2-17.1c-0.9-0.9-2.1-1.4-3.3-1.4c-5.5,0-7,8.9-7,9l0,44.6l3.5,0.5c13.5,2,25,1.6,35.6-1.3
			c-11.4,10.2-37.1,38-36.7,64.5c0.1,4.9,3.1,5.4,4.4,5.4c1.6,0,2.7-0.9,3.4-1.4c0.2-0.2,0.4-0.3,0.7-0.6c3.6-2.7,9.6-4.3,16.3-4.3
			c5.5,0,11.1,1.1,15.1,3.1c0.8,0.4,1.7,0.7,2.8,0.7c1.3,0,2.5-0.5,3.3-1.5c1.4-1.6,1.3-3.5,1.2-4.8c-1.9-19.2,2.3-40.2,10.5-52.4
			l1.2-1.8c7-10.3,21.5-31.8,24.2-49.5C219.7,219.9,219.4,218.4,218.4,217.3"/>
		<path fill="#FFFFFF" d="M321.9,302.5l-0.2-3.4c-0.1-2.2-0.5-4.3-1-6.3l-0.1-3.9l-0.7,1.1c-3.4-9.1-10.9-14.7-20.5-14.7
			c-14.4,0-24.5,11.4-24.5,27.7c0,12.5,7.3,25.2,23.7,25.2c9.4,0,18-4.7,22.4-12.3l0.6-1l-0.5-12.1L321.9,302.5z M304.4,310.3
			c-1.6,0-2.6-1-3.3-2.2l8-2.2C306.8,308.6,305.1,310.1,304.4,310.3"/>
		<path fill="#FFFFFF" d="M268.2,263c-0.8-1.2-1.7-2.5-2.5-3.6c7.1-1.4,13.3-7,13.3-16.4c0-14.7-12.2-25.8-28.4-25.8
			c-32.5,0-51.9,23-51.9,61.6c0,35,16.1,55.1,44,55.1c22.7,0,38.6-16.6,38.6-40.4C281.4,281.7,273.5,270.5,268.2,263"/>
		<path fill="#006BB6" d="M304.5,314.5c-5,0-8-4.6-8.5-9.3l21.7-5.8c-0.6-10.6-6.7-19.9-18.2-19.9c-12.2,0-20.4,9.5-20.4,23.6
			c0,11,6.3,21,19.6,21c7.6,0,14.9-3.6,18.9-10.3l-4.3-5.1C311.1,311.9,308.6,314.5,304.5,314.5 M294.9,294.5c0-3.3,0-9.3,3.6-9.3
			c3.3,0,4.1,5.1,4.1,7.8c0,3.3-1.6,4.1-3.9,4.7l-3.8,1V294.5z"/>
		<path fill="#006BB6" d="M340,322.8h-22.8v-5.8l4.1-0.6v-17.9c0-6.4-0.8-9.5-5.4-9.5v-5l16.2-4.8c1.9,3.6,2.4,7.7,2.7,11.8h0.2
			c1.6-4.9,3.6-11.7,8.9-11.7c4.6,0,6.7,3.6,6.7,8c0,4.4-1.9,8.1-5.3,8.1c-2.3,0-4.3-1-5.4-1.4c-3-1-3.9,11.9-3.9,14.6v7.8l4.1,0.6
			V322.8z"/>
		<path fill="#006BB6" d="M378.4,287.7c0,3.5-3.1,5.3-6.3,5.3c-3.9,0-6.7-3.2-7.4-7c-1.7,0-2.9,0.9-2.9,3.7
			c0,6.6,18.7,1.9,18.7,18.7c0,12.6-9.1,15.7-17.8,15.7c-5.3,0-14.6-0.7-14.6-8.8c0-3.7,2-6.5,5.7-6.5c5.7,0,6.7,5.2,7.6,8.9
			c0.3,1,1.1,1.1,1.9,1.1c3,0,5.2-1.2,5.2-3.2c0-7.5-19.2-4.6-19.2-20.9c0-10.4,12.3-15.1,18.2-15.1
			C374.2,279.6,378.4,281.8,378.4,287.7"/>
		<path fill="#006BB6" d="M250.6,260.2c-7.3,0-14.7,2.9-18.7,9h-0.1h-0.2h0.2l0.7-10.6c0.4-7.1,2-26.5,11.9-26.5
			c4.8,0,3.7,6.3,4.2,9.2c1.3,6.7,4.2,14.4,13.4,14.4c6.3,0,12.8-4.1,12.8-12.6c0-13.1-10.9-21.7-24.2-21.7
			c-34.1,0-47.8,26-47.8,57.5c0,27.3,10.6,50.9,39.9,50.9c19,0,34.4-13.5,34.4-36.2C277.3,274.4,267.2,260.2,250.6,260.2
			 M240.5,319.1c-8.1,0-7.8-10.4-7.8-22.4c0-12,1.1-22.4,7.8-22.4c8.2,0,8.6,10.4,8.6,22.4C249.1,308.7,247.5,319.1,240.5,319.1"/>
		<path fill="#ED174C" d="M138.1,220.8v40.6c22.7,3.4,49.9,1.1,69-26.9c0.8-1.2,1.3-0.4,0.8,0.7c-5.4,10.9-18,21-29,29.6
			c-10.5,8.3-38.8,37.9-38.4,64c0,2,0.1,1.5,1.8,0.1c8.6-6.4,25.4-6.6,35.7-1.6c1.4,0.7,1.5,0.5,1.4-1.4c-2-20.2,2.6-42.3,11.2-55.1
			c6-8.9,22-31.7,24.8-49.6c0.3-1.9-0.7-1.6-3,0.9c-18.2,19.2-51.1,18.7-72.3-1.6C138.8,219.1,138.2,219.7,138.1,220.8"/>
		<path fill="#FFFFFF" d="M216.4,196.5c0,21.5-17.4,38.9-38.9,38.9s-38.9-17.4-38.9-38.9c0-21.5,17.4-38.9,38.9-38.9
			S216.4,175,216.4,196.5"/>
		<polygon fill="#006BB6" points="177.5,158.9 178.8,163.1 183.2,163.1 179.6,165.7 180.9,169.7 177.5,167.2 174,169.7 175.3,165.6 
			171.8,163.1 176.2,163.1 		"/>
		<polygon fill="#006BB6" points="203.4,174 204.7,178.1 209.1,178.1 205.6,180.8 206.9,184.8 203.4,182.3 199.9,184.8 201.3,180.8 
			197.7,178.1 202.1,178.1 		"/>
		<polygon fill="#006BB6" points="192.3,162.4 193.6,166.5 198,166.5 194.4,169.1 195.7,173.2 192.3,170.7 188.8,173.2 190.1,169.1 
			186.6,166.5 191,166.5 		"/>
		<polygon fill="#006BB6" points="207.6,188.3 209,192.4 213.4,192.4 209.8,195 211.1,199.1 207.7,196.6 204.2,199.1 205.5,195 
			201.9,192.4 206.3,192.4 		"/>
		<polygon fill="#006BB6" points="205.8,203.4 207.1,207.5 211.5,207.5 207.9,210.1 209.2,214.2 205.8,211.7 202.4,214.2 
			203.6,210.1 200.1,207.5 204.5,207.5 		"/>
		<polygon fill="#006BB6" points="197.5,215.4 198.8,219.6 203.2,219.6 199.6,222.2 200.9,226.2 197.5,223.7 194,226.2 195.3,222.2 
			191.7,219.6 196.1,219.6 		"/>
		<polygon fill="#006BB6" points="184.4,222.2 185.7,226.3 190.1,226.3 186.5,228.9 187.8,233 184.4,230.5 180.9,233 182.2,228.9 
			178.6,226.3 183,226.3 		"/>
		<polygon fill="#006BB6" points="151.1,172.7 149.8,176.8 145.4,176.8 148.9,179.4 147.6,183.5 151.1,181 154.6,183.5 153.2,179.4 
			156.8,176.8 152.4,176.8 		"/>
		<polygon fill="#006BB6" points="161.9,162.4 160.6,166.5 156.2,166.5 159.8,169.1 158.5,173.2 161.9,170.7 165.4,173.2 
			164.1,169.1 167.7,166.5 163.3,166.5 		"/>
		<polygon fill="#006BB6" points="146,186.5 144.8,190.6 140.3,190.6 143.9,193.2 142.6,197.3 146,194.7 149.5,197.3 148.2,193.2 
			151.8,190.6 147.4,190.6 		"/>
		<polygon fill="#006BB6" points="147.4,201.5 146.1,205.7 141.7,205.7 145.3,208.3 144,212.4 147.4,209.8 150.9,212.4 149.5,208.3 
			153.1,205.7 148.7,205.7 		"/>
		<polygon fill="#006BB6" points="155.7,213.8 154.4,218 150,218 153.6,220.6 152.3,224.6 155.7,222.1 159.2,224.6 157.9,220.6 
			161.5,218 157.1,218 		"/>
		<polygon fill="#006BB6" points="168.8,221.6 167.5,225.8 163.1,225.8 166.7,228.4 165.4,232.5 168.8,230 172.3,232.5 171,228.4 
			174.6,225.8 170.2,225.8 		"/>
	</g>
</g>
</svg>
