<?xml version="1.0" encoding="utf-8"?>
<!-- Generator: Adobe Illustrator 18.0.0, SVG Export Plug-In . SVG Version: 6.00 Build 0)  -->
<!DOCTYPE svg PUBLIC "-//W3C//DTD SVG 1.1//EN" "http://www.w3.org/Graphics/SVG/1.1/DTD/svg11.dtd">
<svg version="1.1" xmlns="http://www.w3.org/2000/svg" xmlns:xlink="http://www.w3.org/1999/xlink" x="0px" y="0px" width="512px"
	 height="512px" viewBox="0 0 512 512" enable-background="new 0 0 512 512" xml:space="preserve">
<g id="white_block">
	<rect opacity="0" fill="#FFFFFF" width="512" height="512"/>
</g>
<g id="Logos">
	<g>
		<path fill="#6E777B" d="M459.8,49.7c-0.6-0.8-1.6-1.3-2.7-1.3H200.7c-30.6,0.1-49.4,13.3-55.9,39.3L51.6,459.3
			c-0.3,1,0,2.1,0.6,2.9c0.6,0.8,1.6,1.3,2.7,1.3h279.3c16,0,32-12.8,35.7-28.4l90.5-382.5C460.6,51.6,460.4,50.5,459.8,49.7"/>
		<path fill="#010101" d="M54.9,460.2h279.3c14.5,0,29.1-11.7,32.4-25.8l90.5-382.5H200.7c-23.8,0-45.4,7.8-52.6,36.7L54.9,460.2z"
			/>
		<path fill="#6E777B" d="M354.7,312.1H108.6l54.1-214.3c6.9-27.7,24.1-33.4,47.7-33.4h225.9l-51.7,223.9
			C381.6,301.4,368.2,312.1,354.7,312.1 M112.5,309.1h242.2c12.1,0,24.3-9.7,27-21.5l50.9-220.2H210.5c-27,0-39.1,8.4-44.8,31.1
			L112.5,309.1z"/>
		<polygon fill="#FFFFFF" points="148.9,432.2 155.7,441.6 206.7,441.6 227.4,359.5 206.5,359.5 188.7,430 170.1,430 187.9,359.5 
			161.6,359.5 159.9,361 165.1,368.1 		"/>
		<polygon fill="#FFFFFF" points="150.5,388.3 155.5,368.5 148.8,359.2 106.9,359.2 95.5,368.5 88.5,396.1 123.8,411 119.1,430 
			100.6,430 102.8,421.1 84.3,412.6 79.4,432.2 86.1,441.6 128,441.6 139.4,432.2 146.4,404.6 111,389.8 115.8,370.8 134.3,370.8 
			132,379.9 		"/>
		<polygon fill="#FFFFFF" points="294.8,368.5 288.1,359.2 237.1,359.2 216.4,441.2 237.3,441.2 255,370.8 273.6,370.8 255.8,441.2 
			282.2,441.2 283.8,439.7 278.6,432.7 		"/>
		<polygon fill="#FFFFFF" points="359.5,388.3 364.4,368.5 357.7,359.2 315.9,359.2 304.4,368.5 297.5,396.1 332.8,411 328,430 
			309.5,430 311.8,421.1 293.3,412.6 288.4,432.2 295.1,441.6 336.9,441.6 348.4,432.2 355.3,404.6 320,389.8 324.8,370.8 
			343.3,370.8 341,379.9 		"/>
		<polygon fill="#C8C8C8" points="84.3,412.6 91.9,424 90.3,430.6 94.1,435.7 123.6,435.7 129.6,431.1 139.4,432.2 128,441.6 
			86.1,441.6 79.4,432.2 		"/>
		<polygon fill="#C8C8C8" points="119,430 129.6,431.1 135.5,407.8 99.8,392.8 105.6,369.7 95.5,368.5 88.5,396.1 123.8,411 		"/>
		<polygon fill="#C8C8C8" points="140.7,365 111.8,365 105.6,369.7 115.8,370.8 134.3,370.8 132,379.9 143,376.5 144.6,370.2 		"/>
		<polygon fill="#C8C8C8" points="293.3,412.6 300.9,424 299.2,430.6 303,435.7 332.6,435.7 338.5,431.1 348.4,432.2 336.9,441.6 
			295.1,441.6 288.4,432.2 		"/>
		<polygon fill="#C8C8C8" points="328,430 338.5,431.1 344.4,407.8 308.7,392.8 314.6,369.7 304.4,368.5 297.5,396.1 332.8,411 		
			"/>
		<polygon fill="#C8C8C8" points="349.7,365 320.7,365 314.6,369.7 324.8,370.8 343.3,370.8 341,379.9 352,376.5 353.6,370.2 		"/>
		<polygon fill="#C8C8C8" points="159.9,361 176.3,365 159.7,430.6 163.6,435.8 197.6,435.8 206.7,441.6 155.7,441.6 148.9,432.2 
			165.1,368.1 		"/>
		<polygon fill="#C8C8C8" points="206.5,359.5 215.6,365 197.6,435.8 188.7,430 		"/>
		<polygon fill="#C8C8C8" points="246.2,365 237.1,359.2 216.4,441.2 237.3,441.2 228.2,435.8 		"/>
		<polygon fill="#C8C8C8" points="267.5,435.7 284,370.2 280.2,365 246.1,365 255,370.8 273.6,370.8 255.8,441.2 282.2,441.2 
			283.8,439.7 		"/>
		<path fill="#FFFFFF" d="M106.6,324.7l-0.5,0.4l1.7,2.3l-5.3,21.6h7.3l0.5-0.4l-1.8-2.1l1.4-5.8l11.3-3.5l2.3-9.5l-2.3-2.9H106.6z
			 M116.5,334.5l-5.4,1.6l1.8-7.3l5,0L116.5,334.5z"/>
		<polygon fill="#FFFFFF" points="167,324.7 161.6,324.7 159.5,333.4 154.2,334.7 156.6,324.7 149.4,324.7 148.8,325.1 150.6,327.4 
			145.3,349 150.7,349 153.1,339.3 158.3,338.2 155.7,349 163,349 163.5,348.5 161.7,346.4 		"/>
		<path fill="#FFFFFF" d="M197,324.7l-3.7,2.9l-4.5,18.4l2.3,3h9.9l3.7-2.9l4.5-18.4l-2.2-2.9H197z M199.5,345h-5l4-16.4h5
			L199.5,345z"/>
		<polygon fill="#FFFFFF" points="293.1,327.6 290.9,324.7 277.8,324.7 271.9,349 277.3,349 282.2,328.7 287.5,328.7 282.5,349 
			289.8,349 290.3,348.5 288.5,346.4 		"/>
		<polygon fill="#FFFFFF" points="326.8,324.7 319.5,324.7 319,325.1 320.8,327.4 315.5,349 322.8,349 323.3,348.5 321.5,346.4 		
			"/>
		<polygon fill="#FFFFFF" points="365.9,346.6 363,337.1 372.6,324.7 367.4,324.7 361.8,332.2 359.9,324.7 352.6,324.7 352.1,325.1 
			355,327.3 357.8,337.2 348.7,349 353.9,349 359.2,341.8 361.1,349 368.3,349 368.9,348.5 		"/>
		<polygon fill="#FFFFFF" points="243.7,345 237.4,345 238.9,338.8 244.2,338.8 245.1,334.8 239.9,334.8 241.4,328.7 247.3,328.7 
			248.8,330.8 249.4,330.4 250.8,324.7 235.1,324.7 234.6,325.1 236.3,327.4 231.1,349 245.2,349 246.6,343.3 246.3,342.9 		"/>
		<polygon fill="#F5A11D" points="119,305.1 257.4,229.3 163.6,305.1 277.5,239.7 275.6,252.9 294.6,242.3 337.5,282.9 360.3,214.3 
			393.4,212.2 376.6,170.5 406.5,147.1 367.8,132.1 377.6,90.4 344.7,105.5 327.7,69.7 301.3,96 253.9,74.7 247.3,117.1 
			205.1,126.3 230.1,141.4 204.9,154 226.3,155.9 138.3,224.3 226.8,177.3 131.9,249.6 232.9,196.9 125,278 244,214.6 		"/>
		<path fill="#E05A26" d="M372.3,171.1c-1.6,38-33.7,67.6-71.7,66c-38-1.6-67.6-33.7-66-71.7c1.6-38,33.7-67.6,71.7-66
			C344.3,101,373.9,133.1,372.3,171.1"/>
		<path fill="#BA5B27" d="M311.9,227.8c-38-1.6-67.6-33.7-66-71.7c0.7-17.6,8-33.4,19.4-45.1c-17.7,11.8-29.7,31.6-30.6,54.5
			c-1.6,38,28,70.2,66,71.7c20.4,0.9,39.2-7.3,52.4-20.9C341.2,224.1,327,228.4,311.9,227.8"/>
		<path fill="#010101" d="M372.4,169.1c0-2.5-0.1-4.9-0.3-7.3c-4-2.8-8.7-4.9-14.3-5.6c-1.1-0.1-2.1-0.2-3.1-0.3
			c-0.7-4.6-1.7-9-3.1-13.4c0.7,0,1.4,0.1,2.2,0.1c4.8,0.4,9.6,0.9,14.3,1.6c-0.7-1.8-1.4-3.5-2.2-5.2c-5.3-0.8-10.7-1.4-16.1-1.8
			h-0.1c-1.7-4.4-3.9-8.7-6.4-12.8c3.5-0.7,6.7-2.2,9.2-4.6c-1.3-1.3-2.7-2.6-4.1-3.8c-2.2,2-5.1,3.1-8.4,3.6
			c-0.5-0.7-1-1.4-1.5-2.1c-4.7-6.1-10.1-11.3-16-15.5c-5.2-1.5-10.6-2.4-16.3-2.6c-0.3,0-0.6,0-0.9,0c10.5,4.1,19.8,11,27.4,20.3
			c-7.2-0.7-15.4-3.1-23.6-5.5c-2.4-0.7-4.8-1.4-7.1-2c-13.9-3.8-24.6-4.5-32.7-3.8c-6,3.4-11.4,7.7-16.1,12.7
			c8.7-3.6,26.2-9.8,47.4-3.9c2.3,0.6,4.6,1.3,7,2c9.4,2.8,19.9,5.8,29,5.9c2.5,3.7,4.7,7.7,6.5,11.8c-1.8-0.1-3.6-0.1-5.3-0.2
			c-44.3-0.8-82.2,12.5-103.3,33.6c0.1,4.2,0.6,8.3,1.4,12.3c5.9-8.5,14.7-16.2,26.1-22.6c21.4-12,49.9-18.4,80.1-17.9
			c1,0,2.1,0.1,3.1,0.1c1.5,4.4,2.7,8.9,3.4,13.5c-19.5,0.8-32.1,13-46.6,25.9c-13,11.6-28.9,23.2-52.1,30.2
			c2.2,2.7,4.6,5.2,7.1,7.5c21.9-8.8,36.4-22.5,48.7-33.5c13.9-12.5,25.9-24.4,43.5-25c0.5,4.9,0.5,9.8,0,14.8
			c-2.4,27-18,49.9-39.3,61.2c5.5-0.5,10.7-1.7,15.8-3.4c1.7-1.4,3.4-2.9,5-4.5c14-13.8,22.7-32.5,24.4-52.8
			c0.4-5.1,0.4-10.1,0-15.1c0.9,0.1,1.7,0.2,2.6,0.3C363.9,162.5,368.6,165.5,372.4,169.1"/>
	</g>
</g>
</svg>
