<?xml version="1.0" encoding="utf-8"?>
<!-- Generator: Adobe Illustrator 18.0.0, SVG Export Plug-In . SVG Version: 6.00 Build 0)  -->
<!DOCTYPE svg PUBLIC "-//W3C//DTD SVG 1.1//EN" "http://www.w3.org/Graphics/SVG/1.1/DTD/svg11.dtd">
<svg version="1.1" xmlns="http://www.w3.org/2000/svg" xmlns:xlink="http://www.w3.org/1999/xlink" x="0px" y="0px" width="512px"
	 height="512px" viewBox="0 0 512 512" enable-background="new 0 0 512 512" xml:space="preserve">
<g id="white_block">
	<rect opacity="0" fill="#FFFFFF" width="512" height="512"/>
</g>
<g id="Logos">
	<g>
		<polyline fill="#C4CED4" points="192.3,26.7 68.9,485.3 319.8,485.3 443.1,26.7 		"/>
		<polyline fill="#231F20" points="312.6,476 81.1,476 199.4,35.9 430.9,35.9 		"/>
		<path fill="#C4CED4" d="M254.6,250.2l7.7-7.7c-8.8-2.7-13.8-8.8-13.8-16.5c0-4,1.7-7.6,4.4-10.2l100.5-100.6h-5.6l-94.7,85.3
			l-8.1,7.3c-4.8,4.6-7.8,11.1-7.8,18.3c0,1.6,0.2,3.2,0.5,4.8C239.6,239.8,247.1,247.5,254.6,250.2"/>
		<path fill="#C4CED4" d="M243,261.9l7.6-7.6c-11.8-6.1-18.4-16-18.4-28.3c0-8.2,3.3-15.8,8.7-21.2l89.5-89.6h-5.2l-83.8,74
			c-1.1,0.9-8.3,7.4-9.2,8.6c-6.9,7.4-11.2,17.3-11.2,28.2c0,1.9,0.2,3.8,0.4,5.7C223.3,244.8,231.6,256,243,261.9"/>
		<path fill="#C4CED4" d="M231,273.8l7.7-7.7c-14.4-8.8-22.9-23.2-22.9-40.1c0-12.5,4.9-23.9,12.9-32.3l78.5-78.6h-4.8l-72.9,62.7
			c-2.3,1.8-8.5,7.6-10.4,9.8c-9.1,10.2-14.5,23.6-14.5,38.3c0,2.2,0.1,4.3,0.4,6.5C207.1,249.8,217,264.9,231,273.8"/>
		<path fill="#C4CED4" d="M219.1,285.7l7.9-7.8c-16.9-11.7-27.5-30.5-27.5-51.9c0-16.8,6.6-31.9,17.2-43.2l67.4-67.6h-4.3l-62,51.4
			c-3.5,2.8-8.7,7.7-11.6,11.2c-11.1,13-17.9,29.8-17.9,48.3c0,2.5,0.1,4.8,0.4,7.2C190.8,254.8,202.4,273.7,219.1,285.7"/>
		<path fill="#C4CED4" d="M172.2,234c2.3,25.8,15.5,48.6,34.9,63.7l8-8C195.6,275.2,183,252,183,225.9c0-21,8.2-40,21.4-54.2
			l56.4-56.6H257l-51.2,40.1c-4.6,3.7-8.9,7.9-12.7,12.4c-13.3,15.8-21.2,36.1-21.2,58.3C171.9,228.7,172,231.4,172.2,234"/>
		<path fill="#E03A3E" d="M272.6,203.2l-7.7,7.8c8.8,2.7,13.8,8.8,13.8,16.4c0,4-1.7,7.7-4.4,10.2L173.7,338.3h5.6L274,253l8-7.3
			c4.9-4.6,7.9-11.1,7.9-18.3c0-1.7-0.2-3.2-0.5-4.8C287.6,213.5,280.1,205.9,272.6,203.2"/>
		<path fill="#E03A3E" d="M284.3,191.6l-7.6,7.6c11.8,6,18.4,16,18.4,28.3c0,8.3-3.3,15.8-8.7,21.3l-89.5,89.6h5.2l83.7-74
			c1.2-0.9,8.3-7.5,9.2-8.6c6.9-7.4,11.2-17.3,11.2-28.3c0-1.9-0.1-3.8-0.4-5.6C303.9,208.6,295.6,197.4,284.3,191.6"/>
		<path fill="#E03A3E" d="M296.2,179.6l-7.7,7.7c14.3,8.9,22.9,23.3,22.9,40.1c0,12.5-4.9,23.9-12.9,32.3L220,338.3h4.7l72.9-62.7
			c2.3-1.9,8.5-7.5,10.4-9.8c9-10.2,14.5-23.6,14.5-38.3c0-2.2-0.1-4.3-0.4-6.4C320.1,203.6,310.2,188.5,296.2,179.6"/>
		<path fill="#E03A3E" d="M308.1,167.6l-7.9,7.9c16.9,11.6,27.5,30.4,27.5,51.9c0,16.7-6.5,32-17.2,43.3l-67.4,67.6h4.4l62-51.4
			c3.5-2.8,8.7-7.7,11.6-11.1c11.2-13,17.9-29.8,17.9-48.3c0-2.4-0.1-4.8-0.4-7.3C336.4,198.6,324.9,179.7,308.1,167.6"/>
		<path fill="#E03A3E" d="M355,219.4c-2.3-25.8-15.5-48.6-34.9-63.6l-8,8c19.5,14.5,32.1,37.7,32.1,63.7c0,21-8.1,40.1-21.4,54.3
			l-56.4,56.6h3.9l51.2-40.1c4.6-3.8,8.9-7.9,12.7-12.5c13.2-15.7,21.2-36.1,21.2-58.3C355.3,224.8,355.2,222.1,355,219.4"/>
		<g>
			<defs>
				<polygon id="SVGID_23_" points="146.2,411.4 148.6,415.6 136.5,460.9 149.4,460.9 150.4,457.1 143.8,457.1 155,415.2 155,411.4 
									"/>
			</defs>
			<clipPath id="SVGID_2_">
				<use xlink:href="#SVGID_23_"  overflow="visible"/>
			</clipPath>
			
				<linearGradient id="SVGID_4_" gradientUnits="userSpaceOnUse" x1="-1066.7312" y1="196.8886" x2="-1063.3795" y2="196.8886" gradientTransform="matrix(0 8.4612 4.7231 0 -784.1764 9443.8857)">
				<stop  offset="0" style="stop-color:#FFFFFF"/>
				<stop  offset="0.2626" style="stop-color:#F6F8F8"/>
				<stop  offset="0.5733" style="stop-color:#E5EAED"/>
				<stop  offset="0.9071" style="stop-color:#CCD5DA"/>
				<stop  offset="1" style="stop-color:#C4CED4"/>
			</linearGradient>
			<rect x="136.5" y="411.4" clip-path="url(#SVGID_2_)" fill="url(#SVGID_4_)" width="18.6" height="49.5"/>
		</g>
		<g>
			<defs>
				<path id="SVGID_26_" d="M184.2,420.1l-5,24.2h-3.8L184.2,420.1z M178.4,412.1l1.7,3.3l-16.9,45.2v1h6.1l4.4-12.8h4.6l-2.8,12.8
					h6.6l9.1-49.5H178.4z"/>
			</defs>
			<clipPath id="SVGID_6_">
				<use xlink:href="#SVGID_26_"  overflow="visible"/>
			</clipPath>
			
				<linearGradient id="SVGID_8_" gradientUnits="userSpaceOnUse" x1="-1066.5906" y1="182.936" x2="-1063.2371" y2="182.936" gradientTransform="matrix(0 8.462 6.1967 0 -956.377 9444.9854)">
				<stop  offset="0" style="stop-color:#FFFFFF"/>
				<stop  offset="0.2626" style="stop-color:#F6F8F8"/>
				<stop  offset="0.5733" style="stop-color:#E5EAED"/>
				<stop  offset="0.9071" style="stop-color:#CCD5DA"/>
				<stop  offset="1" style="stop-color:#C4CED4"/>
			</linearGradient>
			<rect x="163.2" y="412.1" clip-path="url(#SVGID_6_)" fill="url(#SVGID_8_)" width="28.1" height="49.5"/>
		</g>
		<g>
			<defs>
				<polygon id="SVGID_29_" points="206.3,412.1 208.3,415.7 214.9,415.7 194.5,460 194.5,461.6 210.6,461.6 211.8,457.1 
					202.7,457.1 223.5,412.1 				"/>
			</defs>
			<clipPath id="SVGID_10_">
				<use xlink:href="#SVGID_29_"  overflow="visible"/>
			</clipPath>
			
				<linearGradient id="SVGID_12_" gradientUnits="userSpaceOnUse" x1="-1066.5906" y1="184.6639" x2="-1063.2371" y2="184.6639" gradientTransform="matrix(0 8.462 6.4401 0 -980.271 9444.9854)">
				<stop  offset="0" style="stop-color:#FFFFFF"/>
				<stop  offset="0.2626" style="stop-color:#F6F8F8"/>
				<stop  offset="0.5733" style="stop-color:#E5EAED"/>
				<stop  offset="0.9071" style="stop-color:#CCD5DA"/>
				<stop  offset="1" style="stop-color:#C4CED4"/>
			</linearGradient>
			<rect x="194.5" y="412.1" clip-path="url(#SVGID_10_)" fill="url(#SVGID_12_)" width="29" height="49.5"/>
		</g>
		<g>
			<defs>
				<path id="SVGID_32_" d="M236.7,412.1l2,3.5l-9.6,35.7v10.3h11l1.2-4.6h-7.4c0,0,4.8-17.8,5.3-19.9h6.7l1.2-4.5h-6.7l4.5-16.8
					h7.3l1-3.7H236.7z"/>
			</defs>
			<clipPath id="SVGID_14_">
				<use xlink:href="#SVGID_32_"  overflow="visible"/>
			</clipPath>
			
				<linearGradient id="SVGID_16_" gradientUnits="userSpaceOnUse" x1="-1066.5935" y1="194.3427" x2="-1063.24" y2="194.3427" gradientTransform="matrix(0 8.462 5.9571 0 -916.5038 9444.9854)">
				<stop  offset="0" style="stop-color:#FFFFFF"/>
				<stop  offset="0.2626" style="stop-color:#F6F8F8"/>
				<stop  offset="0.5733" style="stop-color:#E5EAED"/>
				<stop  offset="0.9071" style="stop-color:#CCD5DA"/>
				<stop  offset="1" style="stop-color:#C4CED4"/>
			</linearGradient>
			<rect x="229.1" y="412.1" clip-path="url(#SVGID_14_)" fill="url(#SVGID_16_)" width="24.2" height="49.5"/>
		</g>
		<g>
			<defs>
				<path id="SVGID_35_" d="M274,415.5c0,0,2.3-0.2,3,0.1c0.7,0.3,0.8,0.9,0.4,2.2l-3.1,11.6c-0.5,1.8-0.8,2.1-1.1,2.4
					c-0.4,0.3-1.3,0.8-3.3,0.8h-0.5L274,415.5z M265.7,412.4l1.9,3.2l-10.2,37.9v8.1h4.2c0,0,5.9-22.2,6.6-24.5h0.6
					c1.2,0,2,0.1,2.5,0.5c0.4,0.4,0.6,1.1,0.2,2.3l-5.8,21.7h6.4l5.7-21.1c0.5-1.9,1-3.7-0.4-5l-1.1-0.7c0,0,0.6-0.2,1.5-0.7
					c0.5-0.3,1.1-0.7,1.6-1.3c0.4-0.5,0.8-1,1.1-2.2l3.3-12.4l0.1-0.4c0.5-1.7,0.9-3.8-1-5.3c-0.2-0.1-0.3-0.2-0.5-0.3H265.7z"/>
			</defs>
			<clipPath id="SVGID_18_">
				<use xlink:href="#SVGID_35_"  overflow="visible"/>
			</clipPath>
			
				<linearGradient id="SVGID_20_" gradientUnits="userSpaceOnUse" x1="-1066.5795" y1="193.9196" x2="-1063.2283" y2="193.9196" gradientTransform="matrix(0 8.462 6.3316 0 -956.7959 9445.0059)">
				<stop  offset="0" style="stop-color:#FFFFFF"/>
				<stop  offset="0.2626" style="stop-color:#F6F8F8"/>
				<stop  offset="0.5733" style="stop-color:#E5EAED"/>
				<stop  offset="0.9071" style="stop-color:#CCD5DA"/>
				<stop  offset="1" style="stop-color:#C4CED4"/>
			</linearGradient>
			<rect x="257.4" y="412.4" clip-path="url(#SVGID_18_)" fill="url(#SVGID_20_)" width="27.2" height="49.3"/>
		</g>
		<g>
			<defs>
				<path id="SVGID_38_" d="M297.7,411.8l0.9,1.7l1,1.7c-0.5,0.9-0.9,1.9-1.1,2.9l-0.6,2.3c-0.5,2-0.9,4.1-1,5.8
					c0,1.6,0.4,3.7,1,5.2c0.5,1.5,3.7,9.2,3.9,10.3c0.2,1.1,0.4,1.8-0.3,4.6l-2.7,10.1c-0.3,1.1-0.4,1.8-2.4,1.8
					c-2,0-1.9-0.8-1.7-1.8l3.4-12.7h-6.4l-2.9,11.1c-0.1,0.3-0.2,0.7-0.2,0.9v3.2c0.1,0.3,0.3,0.6,0.5,0.9c1,1.3,3.1,2,6.4,2
					c7.2,0,9.2-3.4,10.1-7c0,0,1.9-7.2,2.4-9.1c0.9-3.2,0.6-4.6,0.3-6.3c-0.3-1.7-1-3.2-1.4-4.4l-2.3-6c-0.7-1.7-1-2.9-1-4.3
					c0-1.6,0.5-3.2,1.1-5.3l0.8-2.8c0.2-1,0.5-1.8,2.6-1.8c0.8,0,1.3,0.2,1.6,0.4c0.1,0.2,0.1,0.7,0,1.4l-2.7,10.2h6.3l2.3-8.6
					c0.4-1.7,0.8-3.6-0.2-5.1c-0.4-0.5-0.9-0.9-1.6-1.2H297.7z"/>
			</defs>
			<clipPath id="SVGID_22_">
				<use xlink:href="#SVGID_38_"  overflow="visible"/>
			</clipPath>
			
				<linearGradient id="SVGID_24_" gradientUnits="userSpaceOnUse" x1="-1066.6089" y1="200.4306" x2="-1063.2595" y2="200.4306" gradientTransform="matrix(0 8.462 6.1415 0 -928.7125 9444.9551)">
				<stop  offset="0" style="stop-color:#FFFFFF"/>
				<stop  offset="0.2626" style="stop-color:#F6F8F8"/>
				<stop  offset="0.5733" style="stop-color:#E5EAED"/>
				<stop  offset="0.9071" style="stop-color:#CCD5DA"/>
				<stop  offset="1" style="stop-color:#C4CED4"/>
			</linearGradient>
			<rect x="288.4" y="411.8" clip-path="url(#SVGID_22_)" fill="url(#SVGID_24_)" width="27.7" height="50.1"/>
		</g>
		<g>
			<defs>
				<path id="SVGID_41_" d="M115,437.1h0.6c1.2,0,2,0.1,2.5,0.5c0.5,0.4,0.6,1.1,0.3,2.3l-4.3,15.9c-0.2,0.8-0.4,1.2-0.9,1.5
					c-0.5,0.2-1.2,0.3-2.4,0.3h-1.2L115,437.1z M120.8,415.5c0,0,2.3-0.2,3.1,0.1c0.7,0.3,0.7,0.9,0.4,2.2l-3.1,11.6
					c-0.5,1.8-0.8,2.1-1.2,2.4c-0.4,0.3-1.3,0.8-3.3,0.8h-0.5L120.8,415.5z M123.7,411.4h-11.6l2.2,4.3l-12.2,45.6h12.7
					c0.8-0.2,1.5-0.5,2.3-0.9c2.7-1.6,3.2-4.1,3.6-5.7l3.8-14.1c0.6-1.9,0.9-3.7-0.4-5l-1.1-0.7c0,0,0.6-0.2,1.5-0.7
					c0.6-0.3,1.1-0.7,1.6-1.3c0.4-0.5,0.7-1,1.1-2.2l3.4-12.8l0.1-0.4c0.1-0.3,0.2-0.6,0.2-0.8v-2.3c-0.2-0.7-0.6-1.2-1.3-1.7
					c-1.7-1.2-4-1.3-5.4-1.3C124.1,411.4,123.9,411.4,123.7,411.4"/>
			</defs>
			<clipPath id="SVGID_25_">
				<use xlink:href="#SVGID_41_"  overflow="visible"/>
			</clipPath>
			
				<linearGradient id="SVGID_27_" gradientUnits="userSpaceOnUse" x1="-1066.7128" y1="173.6504" x2="-1063.3622" y2="173.6504" gradientTransform="matrix(0 8.4612 6.3303 0 -982.7171 9443.9248)">
				<stop  offset="0" style="stop-color:#FFFFFF"/>
				<stop  offset="0.2626" style="stop-color:#F6F8F8"/>
				<stop  offset="0.5733" style="stop-color:#E5EAED"/>
				<stop  offset="0.9071" style="stop-color:#CCD5DA"/>
				<stop  offset="1" style="stop-color:#C4CED4"/>
			</linearGradient>
			<rect x="102.2" y="411.4" clip-path="url(#SVGID_25_)" fill="url(#SVGID_27_)" width="28.8" height="49.8"/>
		</g>
		<g>
			<defs>
				<polygon id="SVGID_44_" points="283.6,353.7 285.6,357.2 273.3,403.2 286.3,403.2 287.5,398.7 280.9,398.7 292.1,356.7 
					292.1,353.7 				"/>
			</defs>
			<clipPath id="SVGID_28_">
				<use xlink:href="#SVGID_44_"  overflow="visible"/>
			</clipPath>
			
				<linearGradient id="SVGID_30_" gradientUnits="userSpaceOnUse" x1="-1071.917" y1="221.0205" x2="-1068.5657" y2="221.0205" gradientTransform="matrix(0 8.4151 4.7231 0 -761.2037 9381.127)">
				<stop  offset="0" style="stop-color:#FFFFFF"/>
				<stop  offset="0.2626" style="stop-color:#F6F8F8"/>
				<stop  offset="0.5733" style="stop-color:#E5EAED"/>
				<stop  offset="0.9071" style="stop-color:#CCD5DA"/>
				<stop  offset="1" style="stop-color:#C4CED4"/>
			</linearGradient>
			<rect x="273.3" y="353.7" clip-path="url(#SVGID_28_)" fill="url(#SVGID_30_)" width="18.8" height="49.6"/>
		</g>
		<g>
			<defs>
				<path id="SVGID_47_" d="M229.3,361.7l-4.9,24.1h-3.8L229.3,361.7z M225.2,357.1l-16.9,45.1v0.3h6.3l4.2-12.1h4.6
					c-0.4,2.1-2.1,9.7-2.6,12.1h6.6l9.2-49.5l-13.4-0.1L225.2,357.1z"/>
			</defs>
			<clipPath id="SVGID_31_">
				<use xlink:href="#SVGID_47_"  overflow="visible"/>
			</clipPath>
			
				<linearGradient id="SVGID_33_" gradientUnits="userSpaceOnUse" x1="-1072.1167" y1="189.0132" x2="-1068.7654" y2="189.0132" gradientTransform="matrix(0 8.4243 6.1967 0 -948.8106 9391.5332)">
				<stop  offset="0" style="stop-color:#FFFFFF"/>
				<stop  offset="0.2626" style="stop-color:#F6F8F8"/>
				<stop  offset="0.5733" style="stop-color:#E5EAED"/>
				<stop  offset="0.9071" style="stop-color:#CCD5DA"/>
				<stop  offset="1" style="stop-color:#C4CED4"/>
			</linearGradient>
			<rect x="208.3" y="353" clip-path="url(#SVGID_31_)" fill="url(#SVGID_33_)" width="28.2" height="49.5"/>
		</g>
		<g>
			<defs>
				<path id="SVGID_50_" d="M194.3,357.1c0,0,2.3-0.1,3.1,0.2c0.7,0.3,0.7,0.9,0.4,2.2l-3.1,11.6c-0.5,1.8-0.8,2.1-1.2,2.4
					c-0.4,0.3-1.3,0.8-3.3,0.8h-0.5L194.3,357.1z M186.7,355.1l1.2,2.1l-10.1,37.7v8.4h4.1l6.6-24.5h0.5c1.2,0,2.1,0.2,2.5,0.6
					c0.4,0.3,0.6,1.1,0.2,2.3l-5.8,21.7h6.3l5.7-21.1c0.5-1.9,0.9-3.8-0.4-5l-1.1-0.6c0,0,0.6-0.2,1.4-0.7c0.6-0.3,1.2-0.7,1.6-1.3
					c0.4-0.5,0.7-1,1-2.2l3.3-12.4l0.1-0.5c0.4-1.4,0.8-3.1-0.2-4.5H186.7z"/>
			</defs>
			<clipPath id="SVGID_34_">
				<use xlink:href="#SVGID_50_"  overflow="visible"/>
			</clipPath>
			
				<linearGradient id="SVGID_36_" gradientUnits="userSpaceOnUse" x1="-1071.7891" y1="183.4422" x2="-1068.4397" y2="183.4422" gradientTransform="matrix(0 8.4159 6.3316 0 -970.1475 9382.3359)">
				<stop  offset="0" style="stop-color:#FFFFFF"/>
				<stop  offset="0.2626" style="stop-color:#F6F8F8"/>
				<stop  offset="0.5733" style="stop-color:#E5EAED"/>
				<stop  offset="0.9071" style="stop-color:#CCD5DA"/>
				<stop  offset="1" style="stop-color:#C4CED4"/>
			</linearGradient>
			<rect x="177.8" y="355.1" clip-path="url(#SVGID_34_)" fill="url(#SVGID_36_)" width="27" height="48.2"/>
		</g>
		<g>
			<defs>
				<polygon id="SVGID_53_" points="255.9,353.7 257.9,357.2 246.2,401 246.2,403.2 251.9,403.2 265.2,353.7 				"/>
			</defs>
			<clipPath id="SVGID_37_">
				<use xlink:href="#SVGID_53_"  overflow="visible"/>
			</clipPath>
			
				<linearGradient id="SVGID_39_" gradientUnits="userSpaceOnUse" x1="-1071.917" y1="216.2589" x2="-1068.5657" y2="216.2589" gradientTransform="matrix(0 8.4151 4.7225 0 -765.5925 9381.127)">
				<stop  offset="0" style="stop-color:#FFFFFF"/>
				<stop  offset="0.2626" style="stop-color:#F6F8F8"/>
				<stop  offset="0.5733" style="stop-color:#E5EAED"/>
				<stop  offset="0.9071" style="stop-color:#CCD5DA"/>
				<stop  offset="1" style="stop-color:#C4CED4"/>
			</linearGradient>
			<rect x="246.2" y="353.7" clip-path="url(#SVGID_37_)" fill="url(#SVGID_39_)" width="19" height="49.6"/>
		</g>
		<g>
			<defs>
				<polygon id="SVGID_56_" points="154.3,353 156.8,357.4 159.7,357.4 148.4,399.5 148.4,400.9 154.4,400.9 166.1,357.4 
					170.9,357.4 172.9,353 				"/>
			</defs>
			<clipPath id="SVGID_40_">
				<use xlink:href="#SVGID_56_"  overflow="visible"/>
			</clipPath>
			
				<linearGradient id="SVGID_42_" gradientUnits="userSpaceOnUse" x1="-1072.1786" y1="186.2357" x2="-1068.8264" y2="186.2357" gradientTransform="matrix(0 8.4135 5.6754 0 -896.2905 9378.8262)">
				<stop  offset="0" style="stop-color:#FFFFFF"/>
				<stop  offset="0.2626" style="stop-color:#F6F8F8"/>
				<stop  offset="0.5733" style="stop-color:#E5EAED"/>
				<stop  offset="0.9071" style="stop-color:#CCD5DA"/>
				<stop  offset="1" style="stop-color:#C4CED4"/>
			</linearGradient>
			<rect x="148.4" y="353" clip-path="url(#SVGID_40_)" fill="url(#SVGID_42_)" width="24.5" height="47.9"/>
		</g>
		<path fill="#E03A3E" d="M175.5,461.6l2.8-12.8h-2.4l-2.8,12.8 M162.8,461.6l17.3-46.2l-2.1-4h-2.4l2.1,4.1l-17.2,46.2H162.8z
			 M146.2,411.4h-2.4l2.3,4.2l-12.3,46.1l2.5,0l12.3-46L146.2,411.4z M115.5,437.1H115l-0.1,0.2l0.7,0.3c0.4,0.4,0.6,1,0.2,2.3
			l-4.3,15.9c-0.2,0.8-0.4,1.2-0.9,1.5l-1.2,0.3h1.2c1.3,0,2-0.1,2.4-0.3c0.4-0.3,0.7-0.7,0.9-1.5l4.3-15.9c0.3-1.3,0.2-1.9-0.3-2.3
			C117.6,437.2,116.7,437.1,115.5,437.1 M102.1,461.6l12.3-45.9l-2.2-4.3h-2.5l2.3,4.3l-12.3,45.9H102.1z M212.4,415.7l-21.1,45.9
			l2.4,0l21.2-45.9H212.4z M208.3,415.7l-2.5-4.4h-2.4l2.4,4.4H208.3z M267.6,415.6l-2.4-4.2h-2.4l2.4,4.2l-12.3,46.1h2.4
			L267.6,415.6z M288.9,459.9c-1-1.4-0.7-3.3-0.2-5.1l2.9-11.1h-2.4l-3,11.2c-0.4,1.8-0.7,3.6,0.3,5.1c1,1.4,3.1,2,6.4,2l1.3,0
			C291.5,461.8,289.8,461.1,288.9,459.9 M236.3,411.4h-2.4l2.4,4.2l-12.3,46.1h13.8v0h-11.3l12.3-46L236.3,411.4z M268.7,437.1h-0.6
			l-0.1,0.2l0.7,0.3c0.4,0.4,0.5,1,0.2,2.3l-5.8,21.6h2.4l5.8-21.7c0.3-1.3,0.2-1.9-0.2-2.3C270.7,437.2,269.9,437.1,268.7,437.1
			 M306.6,426.8l2.7-10.2c0.2-0.7,0.2-1.2,0-1.4c-0.2-0.3-0.8-0.4-1.6-0.4c-0.6,0-0.9,0-1.3,0.2l0.4,0.2c0.2,0.2,0.2,0.7,0,1.4
			l-2.7,10.2H306.6z M123.9,415.6c-0.8-0.3-3.1-0.1-3.1-0.1v0l0.6,0.2c0.7,0.2,0.7,0.8,0.4,2.1l-3.1,11.6c-0.5,1.8-0.8,2-1.2,2.3
			l-1.2,0.7l-0.1,0.2h0.5c2,0,2.9-0.5,3.3-0.8c0.3-0.3,0.7-0.6,1.2-2.4l3.1-11.6C124.6,416.5,124.5,415.9,123.9,415.6 M221.9,385.9
			h-1.3h3.8l4.9-24.2l-5.7,15.8L221.9,385.9z M277,415.6c-0.8-0.3-3-0.1-3-0.1v0l0.6,0.2c0.7,0.2,0.7,0.8,0.4,2.1l-3.1,11.6
			c-0.5,1.8-0.8,2-1.2,2.3c-0.2,0.2-0.6,0.4-1.3,0.7l-0.1,0.2h0.5c1.9,0,2.8-0.5,3.3-0.8c0.3-0.3,0.7-0.6,1.1-2.4l3.1-11.6
			C277.8,416.5,277.7,415.9,277,415.6 M283.3,353h-2.4l2.3,4.2l-12.3,46h2.5l12.3-46L283.3,353z M307.6,411.1l-1.3-0.1
			c-1.1,0.1-2.1,0.2-2.9,0.3h2.3C306.2,411.3,306.9,411.2,307.6,411.1 M245.6,403.2l12.3-46l-2.3-4.2h-2.4l2.4,4.2l-12.4,46H245.6z
			 M218.2,403.2h2.5l2.7-12.8H221L218.2,403.2z M297.8,431.4c-0.6-1.5-1.1-3.6-1-5.2c0.1-1.7,0.5-3.8,1-5.8l0.6-2.3
			c0.3-1,0.6-2,1.1-2.9l-2.1-3.8H295l2.1,3.8c-0.5,0.9-0.9,1.9-1.1,2.9l-0.6,2.3c-0.6,2-1,4.1-1,5.8c-0.1,1.7,0.4,3.8,1,5.2
			c0.5,1.5,3.7,9.1,3.9,10.2c0.2,1.1,0.4,1.9-0.3,4.7l-2.7,10c-0.2,0.8-0.4,1.4-1.2,1.6l1.2,0.2c2,0,2.1-0.7,2.4-1.8l2.7-10.1
			c0.8-2.8,0.5-3.5,0.3-4.7C301.5,440.6,298.3,432.9,297.8,431.4 M191.6,379.3c-0.5-0.4-1.3-0.6-2.5-0.6h-0.5l-0.1,0.3l0.7,0.3
			c0.4,0.3,0.6,1.1,0.3,2.3l-5.8,21.7h2.4l5.8-21.7C192.1,380.4,192,379.7,191.6,379.3 M175.6,403.3l12.3-46.1l-2.4-4.2h-2.4
			l2.4,4.2l-12.4,46.1H175.6z M156.8,357.4l-2.5-4.4h-2.4l2.5,4.4H156.8z M207.9,403.2l17.3-46.2l-2.1-4.1h-2.5l2.1,4.1l-17.3,46.2
			H207.9z M176.7,444.3h2.4l5-24.2l-5.7,15.7L176.7,444.3z M145,403.2h2.4l12.3-45.8h-2.4L145,403.2z M193.5,373.4
			c0.3-0.3,0.7-0.6,1.2-2.4l3.1-11.7c0.3-1.3,0.3-1.9-0.4-2.1c-0.8-0.3-3.1-0.2-3.1-0.2v0l0.6,0.2c0.7,0.3,0.7,0.9,0.4,2.1
			l-3.1,11.7c-0.4,1.8-0.8,2.1-1.2,2.4l-1.2,0.6l-0.1,0.2h0.5C192.2,374.3,193.1,373.8,193.5,373.4"/>
		<polyline fill="#FFFFFF" points="307.4,49.9 305.4,56.5 299.3,56.5 286.4,100 279.3,100 292.1,56.5 288.6,56.5 285.7,49.9 		"/>
		<path fill="#FFFFFF" d="M221.4,60.7l-3.5,11.9c-0.7,2.2-2.9,2.2-5,2.2l5.6-18.9h1.3C222.1,55.9,222.4,57.2,221.4,60.7 M220.5,49.9
			h-12.4l3.2,6.1L198.3,100h7.1l5.7-19.2h3c5.5,0,9.5-3.4,11.5-10.3l3.2-10.8C230.9,52.4,227.9,49.9,220.5,49.9"/>
		<path fill="#FFFFFF" d="M248.2,58l-9.9,33.8c-0.8,2.5-1.7,3.1-3.1,3.1c-1.5,0-2.1-0.6-1.3-3.1l10-33.8c0.7-2.5,1.6-3.1,3.1-3.1
			C248.4,54.9,248.9,55.5,248.2,58 M248.6,48.9c-1.6,0-3.4,0.3-5.2,1h-9.2l3.1,6l-0.5,1.5l-10.4,35.1c-1.9,6.5,2.4,8.4,6.8,8.4
			c4.4,0,9.9-1.9,11.8-8.4l10.4-35.1C257.4,50.8,253.1,48.9,248.6,48.9"/>
		<path fill="#FFFFFF" d="M274.3,58.4l-2.9,9.6c-0.5,1.8-1.5,3.2-4,3.2h-1.4l4.6-15.3h1.7C273.9,55.9,274.8,56.5,274.3,58.4
			 M274.7,49.9h-14.2l3.1,5.9l-13,44.2h7.1l7-23.9c3.3-0.2,4.1,1.1,3.2,4.1c-3.1,10.1-5.9,19.9-5.9,19.9h7.1c0,0,2-7,6.2-21.5
			c1.3-4.5-1.1-5.1-1.1-5.1c3.5-1.4,3.7-3.1,4.7-6.8l2.4-8.1C283.1,52,280.4,49.9,274.7,49.9"/>
		<polyline fill="#FFFFFF" points="323.2,49.9 311.2,49.9 314.3,55.9 301.3,100 317.5,100 319.4,93.4 310.4,93.4 		"/>
		<path fill="#FFFFFF" d="M341.3,79.9h-3.7l7.9-20.9h0.5 M337.7,49.9l3.1,6l-17.8,44h6.4l5.6-13.6h5l-2.7,13.6h7.2l9.3-50
			L337.7,49.9z"/>
		<polyline fill="#FFFFFF" points="382.1,49.9 369.7,92.7 369.4,92.7 376.7,49.9 361.1,49.9 364.2,55.9 351.2,100 357,100 
			369.5,57.2 369.7,57.2 362.6,100 373.1,100 387.9,49.9 		"/>
		<path fill="#FFFFFF" d="M404.9,59.6l-9.1,30.6c-0.9,3.2-1.9,3.7-3.8,3.7h-1.7l11.3-38.1h1.6C405.1,55.9,405.9,56.4,404.9,59.6
			 M404.9,49.9h-13.6l3.2,6.1l-13,43.9h10.1c5.5,0,9.7-4.3,11.1-9.1l8.8-29.7C414.1,52.4,411.9,49.9,404.9,49.9"/>
	</g>
</g>
</svg>
