<?xml version="1.0" encoding="utf-8"?>
<!-- Generator: Adobe Illustrator 18.0.0, SVG Export Plug-In . SVG Version: 6.00 Build 0)  -->
<!DOCTYPE svg PUBLIC "-//W3C//DTD SVG 1.1//EN" "http://www.w3.org/Graphics/SVG/1.1/DTD/svg11.dtd">
<svg version="1.1" xmlns="http://www.w3.org/2000/svg" xmlns:xlink="http://www.w3.org/1999/xlink" x="0px" y="0px" width="512px"
	 height="512px" viewBox="0 0 512 512" enable-background="new 0 0 512 512" xml:space="preserve">
<g id="white_block">
	<rect opacity="0" fill="#FFFFFF" width="512" height="512"/>
</g>
<g id="Logos">
	<g>
		<path fill="#FFFFFF" d="M435.1,108.8c0-1.5-0.6-3-1.8-4.1c-1.8-1.6-4.4-1.8-6.5-0.6c-8.3,5.1-31.2,26.8-48,42.6
			c0,0-5.5,5.3-6.5,6.3c-1.7-0.7-4-1.6-5.5-2.1c-5.8-1.5-11-1.4-14.8-0.7c2.9-6.7,18-42.3,18-42.3s-39.7,20.9-45.3,23.8
			c0.6-6.6,7.3-80.1,7.3-80.1s-48.2,59.5-52.6,64.9c-1.9-6.7-23.3-82.4-23.3-82.4s-21.6,75.7-23.5,82.4c-4.4-5.4-52.5-65-52.5-65
			s6.6,73.4,7.2,80.1c-5.6-2.9-45.2-23.9-45.2-23.9s15.1,35.6,17.9,42.3c-3.8-0.8-8.9-0.8-14.7,0.6c-1.6,0.5-4,1.4-5.6,2.1
			c-1-1-6.5-6.3-6.5-6.3c-16.8-15.9-39.7-37.6-48-42.7c-2.1-1.3-4.7-1.1-6.5,0.5c-1.2,1.1-1.8,2.5-1.8,4.1c0,0.8,0.2,1.5,0.5,2.3
			c4.3,9.2,26.2,39.7,39.3,57.2c-4.8,4.6-7.6,10-7.8,15c0,0.1,0,0.3,0,0.4c0,3.1,1,5.8,3,7.7c0,0,1.4,1.4,3,2.9
			c-7.5,0-35.1-0.1-35.1-0.1l-0.1,3.8c-0.6,26.2-1.3,91.4,4.8,130.8c5.8,37.3,15.2,63.9,31.7,89.1l1.7,2.6l1.7-2.7
			c3.8-6.1,15.8-21.6,34.4-37.1c1.8,1.7,7.4,7,9.3,8.8c-2.4,2.8-57.1,65-57.1,65c-2.3,2.6-3.5,5.8-3.5,9.2c0,0.3,0,0.6,0,0.9
			c0.2,3.7,1.9,7.1,4.7,9.6c5.8,5.1,14.6,4.6,19.7-1.2c0,0,48.6-55,57.3-64.7c2.6,2.3,34.4,30.6,34.4,30.6l-1.4-14.9
			c-0.1-1.2-0.2-2.5-0.2-3.8c0-3.7,0.5-8,1.4-12.6c9.1,11.3,22.7,17.9,37.3,17.9h0c14.6,0,28.2-6.6,37.3-17.9
			c0.8,4.6,1.3,8.9,1.3,12.5c0,1.4-0.1,2.7-0.2,3.9c0,0-1.4,15-1.4,15s29.2-25.8,34.5-30.5c2.5,2.9,57.1,64.9,57.1,64.9
			c2.5,2.8,5.9,4.5,9.6,4.7c3.7,0.2,7.3-1,10.1-3.5c5.8-5.1,6.3-13.9,1.2-19.7l0,0c0,0-54.6-62.3-57-65.1c1.9-1.8,7.5-7.1,9.3-8.8
			c18.5,15.6,30.5,31.1,34.3,37.2l1.7,2.7l1.7-2.6c16.5-25.1,26-51.7,31.8-89c4.3-27.9,5.3-68.6,5.3-99.4c0-12.7-0.2-23.7-0.3-31.4
			l-0.1-3.7l-2,0c0,0-25.7,0-33.2,0c1.5-1.4,3-2.9,3-2.9c1.9-1.9,3-4.6,3-7.7c0-0.1,0-0.3,0-0.4c-0.1-5-3-10.4-7.8-15
			c13.1-17.5,35.2-47.9,39.4-57.2C434.9,110.4,435.1,109.6,435.1,108.8 M432.8,110.3c-4.3,9.2-27,40.5-40.2,58.2
			c9.3,8.1,10.1,17.5,6,21.5l-6.5,6.3l38.1,0c0,2.5,2.4,85.4-4.9,132.3c-5.6,35.7-14.4,62.2-31.5,88.2c-3.9-6.3-16.5-22.7-36-38.8
			l-12.1,11.3l58.3,66.5c4.4,4.9,3.9,12.5-1.1,16.9c-4.9,4.4-12.5,3.9-16.9-1.1l-58.5-66.3l-24.7,21.9l-7.5,6.6l0.9-9.9
			c0.6-6.6-0.4-14.2-2-21.5c-8.2,12.5-22.4,20.8-38.5,20.8c-16.1,0-30.3-8.3-38.5-20.8c-1.6,7.3-2.6,14.9-2,21.5l0.9,9.9l-7.4-6.6
			L184,405.2l-58.6,66.2c-4.4,4.9-11.9,5.4-16.9,1c-4.9-4.4-5.4-11.9-1-16.9l58.4-66.4l-12-11.4c-19.5,16.1-32.2,32.4-36.1,38.7
			c-17-26.1-25.9-52.6-31.4-88.3c-7.3-47-4.7-129.9-4.7-132.3l38.1,0.1l-6.5-6.3c-4.1-4-3.3-13.4,6-21.5
			c-13.2-17.7-35.9-49-40.1-58.2c-0.6-1.4-0.3-3,0.8-4c1.1-1,2.8-1.1,4.1-0.3c8.1,5,30.9,26.6,47.6,42.4c2.3,2.2,5.4,5.3,7.4,7.2
			c2.4-1.1,5-2.1,6.5-2.5c8.3-2.1,15-1,17.9,0.8l-17.5-41.3l43.5,23L182.7,58l50.8,62.9l22.6-79.3l22.5,79.4l50.9-62.8l-7.1,77.2
			l43.6-22.9l-17.6,41.3c2.9-1.8,9.5-2.9,17.9-0.8c1.5,0.4,4.1,1.4,6.5,2.5c2-1.8,5.1-4.9,7.4-7.2c16.7-15.8,39.6-37.4,47.7-42.4
			c1.3-0.8,3-0.7,4.1,0.4C433.1,107.2,433.4,108.9,432.8,110.3"/>
		<path fill="#061922" d="M427.8,105.9c-8.1,5-31,26.6-47.7,42.4c-2.4,2.2-5.5,5.3-7.4,7.2c-2.4-1.1-5-2.1-6.5-2.5
			c-8.3-2.1-15-1-17.9,0.8l17.6-41.3l-43.6,22.9l7.1-77.2L278.5,121l-22.5-79.4l-22.6,79.3L182.7,58l6.9,77.2l-43.5-23l17.5,41.3
			c-2.9-1.8-9.5-2.9-17.9-0.8c-1.5,0.4-4.1,1.4-6.5,2.5c-2-1.8-5.1-5-7.4-7.2c-16.7-15.8-39.6-37.4-47.6-42.5
			c-1.3-0.8-3-0.7-4.1,0.3c-1.1,1-1.5,2.6-0.8,4c4.2,9.2,26.9,40.5,40.1,58.2c-9.3,8.1-10.2,17.5-6,21.5l6.5,6.3L81.7,196
			c0,2.5-2.5,85.4,4.7,132.3c5.5,35.7,14.3,62.2,31.4,88.3c3.9-6.3,16.6-22.6,36.1-38.7l12,11.4l-58.4,66.4
			c-4.4,4.9-3.9,12.5,1,16.9c4.9,4.4,12.5,3.9,16.9-1l58.6-66.2l24.7,21.9l7.4,6.6l-0.9-9.9c-0.6-6.6,0.4-14.2,2-21.5
			c8.2,12.5,22.4,20.8,38.5,20.8c16.1,0,30.3-8.2,38.5-20.8c1.6,7.3,2.6,14.9,2,21.5l-0.9,9.9l7.5-6.6l24.7-21.9l58.5,66.3
			c4.4,4.9,11.9,5.4,16.9,1.1c4.9-4.4,5.4-11.9,1.1-16.9l-58.3-66.5l12.1-11.3c19.5,16.2,32.1,32.5,36,38.8
			c17.1-26,26-52.6,31.5-88.2c7.3-46.9,4.9-129.8,4.9-132.3l-38.1,0l6.5-6.3c4.1-4,3.3-13.4-6-21.5c13.3-17.7,36-48.9,40.2-58.2
			c0.6-1.4,0.3-3-0.8-4C430.8,105.2,429.1,105.1,427.8,105.9 M355,159.4c1.9-2.4,6.4-2,12.9,1l0.7,0.3l-8.1,8.5l-0.3-0.2
			c-3-1.7-5-4.3-5.5-6.8C354.3,161.1,354.5,160.1,355,159.4 M349.1,160.4l0.9,0.5c-0.7,1.3-0.8,2.8-0.3,4.4c1.2,4,5.8,8.5,11.6,11.5
			l0.5,0.3l-2.8,3.4l-0.3-0.1c-0.1,0-10.4-3.3-17.5-6.4l-0.5-0.2L349.1,160.4z M383,235.9l-22.6,0l-0.1,2
			c-0.3,9.3-0.1,15.1,9.1,25.7l10.5,11.9c3.3,3.7,6.1,6.8,8.8,10.1c0.6,0.8,1.4,1.5,2.1,2.3c5.6,6,15,16,8.8,45.3
			c-4.7,21.9-7.5,30.7-10.3,37.6l-0.5,1.1c-20.3-18.1-40.2-30.3-58.5-38.3c2.7-13.3,4.5-27.7,5.7-42l20.7,16.4
			c-0.5,4.3-1.1,8.7-1.8,13.1c4.1,2.2,16.2,9,19.9,11.8c0.4-2,1.7-6.5,1.9-8.3c3-19.6-2.1-25.1-6-29.3c-0.4-0.5-0.8-0.9-1.2-1.3
			c-1.7-1.9-2.9-3.3-4.9-5.3c-2.8-2.9-7.1-7.4-16.1-17.4c-11.8-13.1-11.1-32.5-10.9-44.5l0.3-7.5l10.6,0c3.1,0.8,5.9,1.2,8,1.2
			c1.7,0,4-0.2,6.3-1.2l43.2-0.1c0.1,12.4,0.2,29.9-0.3,48.4L383,250.8C383.1,245.3,383,240.2,383,235.9 M362.9,214.4
			c-1.7,1.6-3.6,1.9-6.3,1.9c-7.2-0.1-20.5-5.3-34.6-10.8l-1.9-0.7c-13.4-5.2-33.6-13.1-64.2-13.2c-30.6,0-50.9,7.9-64.2,13.1
			l-1.9,0.7c-14.1,5.5-27.4,10.7-34.6,10.7c-2.6,0-4.5-0.3-6.2-1.9c-1.7-1.6-21.8-21.5-22.6-22.4l-1-1l1.3,0.1
			c7.4,0.6,30.2-6.2,47.8-13l3.3-1.3c17.9-7,42.5-16.6,78.1-16.6c35.7,0,60.2,9.7,78.1,16.7l3.3,1.3c17.7,6.9,40.4,13.7,47.8,13.1
			l1.4-0.1l-1,1C384.7,192.9,364.6,212.8,362.9,214.4 M315.7,208.1c0,0.6,0,4.6,0,5.4c-1,0-118.5-0.1-119.4-0.1c0-0.8,0-4.8,0-5.4
			c14.5-5.5,34.3-11.7,59.8-11.6C281.4,196.4,301.2,202.6,315.7,208.1 M134.3,323.2c1.8,11.7,4.2,22.9,7,33.4
			c-6.3,4.6-12.7,9.9-19.2,15.7c-5.2-14.4-9.4-30.7-12.2-49.1c-4.8-30.9-4.7-79.5-4.4-104.2l24.3,0c-0.2,14.6-0.3,36.7,0.6,58.8
			l21.6-15.7c-0.4-16.4-0.3-30.9,0-42c1.1,0.2,2.1,0.2,2.9,0.2c2.3,0,5.3-0.5,8.7-1.4l9.3,0c-0.2,13.6-0.2,30,0.5,47.9l-18.6,13.4
			l20.2,11.4c1.2,14.2,3.1,28.6,5.8,41.9c-6.7,2.9-13.5,6.4-20.5,10.5c-2.7-13-4.6-27.1-5.9-41l-23.4-13.8
			C131.8,301.6,132.8,313.4,134.3,323.2 M201.3,152.7c0,0-5.5-59.9-5.8-63c2,2.5,42.3,52.7,42.3,52.7S255.1,81.3,256,78
			c0.9,3.2,18.1,64.3,18.1,64.3s40.4-50.1,42.4-52.6c-0.3,3.1-5.9,63-5.9,63s32.6-17.2,34.9-18.4c-1,2.4-15,34.8-15.4,35.6
			c-20.1-7.7-43.1-14.8-74.2-14.8c-31.1,0-54.1,7-74.2,14.7c-0.4-0.8-14.3-33.3-15.3-35.7C168.7,135.5,201.3,152.7,201.3,152.7
			 M162,160.7l0.9-0.5l8.4,13.4l-0.5,0.2c-7.1,3.2-17.4,6.4-17.5,6.4l-0.3,0.1l-2.8-3.4l0.6-0.3c5.8-3,10.4-7.5,11.6-11.5
			C162.7,163.5,162.7,162,162,160.7 M144,160.2c6.5-3,11-3.3,12.9-0.9c0.5,0.7,0.7,1.6,0.4,2.8c-0.5,2.5-2.6,5-5.5,6.8l-0.4,0.2
			l-8.1-8.5L144,160.2z M99.3,127.9c9.1,8.3,19.5,18.1,27.4,25.6L139,165l0.7,0.9c0,0,4.8,5.5,5.4,6.3c-0.5,0.3-1.3,0.8-1.3,0.8
			c-0.9,0.6-1.8,1.3-2.9,1.7l-0.7,0.2c0,0,4.7,5.6,5.5,6.6c-1,0.3-4.2,1.3-4.7,1.4c-0.4-0.5-9.9-11.2-9.9-11.2
			C124.1,162.2,109.9,143.1,99.3,127.9 M119.5,183.3c-3.4-3.4,0.8-7.5,3.5-10.3l0.4-0.4l0.4,0.4l7.7,9.7l-0.6,0.3
			C128,184.2,121.4,185.2,119.5,183.3 M146.7,371.4c-9.9,8.2-19.3,17.6-28,28l-0.5,0.6l-0.3-0.7c-10.3-19.9-17.7-43.8-22.2-71
			c-4.1-25.3-5.8-68-4.6-120.1l0.1-3l43,0l0.2,0l10.7,10.6l0.7,0.7l1.4,1.2c0,0,0,1.2,0,1.2c-0.3,14.4-0.4,27.7-0.1,40.6l0,0.3
			l-12,8.8l0-1c-0.2-9.2-0.4-19-0.4-29.3c0-6.2,0-12.5,0.1-19.1c0,0,0.1-4.1,0.1-5c-0.8,0-33.4,0-34.2,0c0,0.8-0.1,4.8-0.1,4.8
			c-0.1,6-0.1,12.4-0.1,19.1c0,28.9,1,62.5,4.6,85.9c2.8,18.2,7,35,12.4,50c0,0,2.1,5.7,2.5,6.8c0.9-0.8,5.4-4.9,5.4-4.9
			c4.7-4.2,9.1-7.9,13.5-11.4l0.3-0.3l7.9,6.7L146.7,371.4z M175.2,405.4l0,0.1l-9.3,10.5l-6.2,7l-12.2,13.8l-6.1,6.9l-12.2,13.8
			l-6,6.8l-2.6,2.9c-2,2.3-5.5,2.5-7.8,0.5c-1.1-1-1.8-2.3-1.9-3.8c-0.1-1.5,0.4-2.9,1.4-4l9.9-11.3l6-6.9l12.2-13.9l6.1-6.9
			l12.2-13.9l6.1-7l2.1-2.4l0.2,0c2.3-0.5,4.5-0.1,6,1.3c1.4,1.2,2.1,3,2.1,5C175.3,404.5,175.3,404.9,175.2,405.4 M210.9,389.6
			c-2.7,9.3-4.3,17.3-4.9,24.3c-1.4-1.2-50.7-45.1-52.1-46.3c14-2.8,28.3-9.7,36.1-13.4c1.7-0.8,10.5-5.1,20.6-12
			c6.9-2.1,14-3.7,21.1-4.9c-13.9,8.4-22.6,23.4-22.6,39.8v0.1C209.2,381.3,209.8,385.5,210.9,389.6 M295.7,379.9
			c-0.3,4.6-1.4,9-3.2,13c-1.4,3.1-3.1,6.1-5.2,8.7c-0.7,0.9-1.4,1.7-2.1,2.5c-7.1,7.7-17.1,12.5-28.3,12.8c-0.4,0-0.7,0-1.1,0
			c-0.4,0-0.7,0-1.1,0c-11.2-0.3-21.2-5.2-28.3-12.9c-0.7-0.8-1.4-1.6-2.1-2.5c-2.1-2.7-3.9-5.7-5.3-8.9c-1.7-4-2.8-8.4-3.1-12.9
			c-0.1-0.9-0.1-1.9-0.1-2.9c0-15.5,8.9-29,21.8-35.6c0.7-0.4,1.4-0.7,2.1-1c4.6-2,9.7-3.2,15-3.3c0.4,0,0.7,0,1.1,0
			c0.4,0,0.7,0,1.1,0c5.3,0.2,10.4,1.3,15,3.4c0.7,0.3,1.4,0.6,2.1,1c12.9,6.6,21.8,20.1,21.8,35.6C295.8,378,295.7,379,295.7,379.9
			 M346.6,400.2c1.4,1.6,3.5,4,6.1,7c3.4,3.9,7.6,8.7,12.1,13.9c2,2.3,4.1,4.6,6.1,7c4.1,4.7,8.3,9.5,12.1,13.9
			c2.2,2.5,4.2,4.8,6,6.9c5.9,6.7,9.9,11.3,9.9,11.3c0.9,1,1.4,2.3,1.4,3.7c0,0.1,0,0.2,0,0.4c-0.1,1.5-0.8,2.8-1.9,3.8
			c-2.3,2-5.8,1.8-7.8-0.5l-2.6-2.9l-6-6.8L370,444l-6.1-6.9l-12.2-13.8l-6.2-7l-9.2-10.5l0-0.1c-0.4-2.7,0.3-5,2-6.5
			c1.6-1.3,3.7-1.8,6-1.3l0.2,0C344.5,397.8,345.3,398.7,346.6,400.2 M304.6,414c-0.5-6.6-2-14.3-4.4-22.9c1.4-4.5,2.2-9.2,2.2-14v0
			c0-16.2-8.5-31.1-22.2-39.6c6.7,1.2,13.4,2.8,20,4.8c9.9,6.8,18.8,11.2,20.5,12c7.8,3.7,22.1,10.6,36.1,13.5
			C355.4,369,306,412.7,304.6,414 M334.2,350.7c-35.6-19.6-66.7-21.8-78.4-21.8c-11.7,0-42.8,2.1-78.5,21.7
			c-8.5,4.1-22.8,9.9-35.2,12.8l-0.4-0.9l2.5-1.9c0,0,2.3-1.7,2.7-2c-0.1-0.5-0.9-3.3-0.9-3.3c-2.9-10.7-5.2-21.7-6.9-32.9
			c-1-6.4-1.8-14.2-2.5-23.1l-0.1-1l13.2,7.8l0,0.3c1.4,14.4,3.3,27.4,5.7,38.8c0,0,1.2,5.6,1.4,6.7c1.6-0.9,5.9-3.4,5.9-3.4
			c7.1-4.1,13.6-7.5,20-10.3c0,0,3-1.3,3.6-1.6c-0.2-0.9-0.8-3.9-0.8-3.9c-2.5-12.6-4.4-26.6-5.7-41.4c0,0-0.2-2.1-0.2-2.6
			c-0.5-0.3-15.8-8.9-15.8-8.9s14.2-10.2,14.5-10.5c0-0.4-0.1-2.6-0.1-2.6c-0.4-10.3-0.6-20.9-0.6-32c0-5.1,0-10.2,0.1-15.6l0.1-4.9
			l0-0.3l8.4-3.1c0,0,0,9.8,0,10.7c1,0,138.2,0.1,139.2,0.1c0-0.9,0-10.8,0-10.8l8,3l-0.2,5.2c0,0-0.3,7.5-0.3,7.6l0,1.2
			c-0.2,12.2-0.5,32.6,12.2,46.7l16.2,17.5l4.7,5.1l1.3,1.4c3.5,3.7,7.4,7.9,4.7,25.2l-0.1,0.5l-0.1,0.7l-11.1-6.4l-0.3-0.2l1.3-9.8
			c0,0,0.3-2.3,0.3-2.7c-0.5-0.4-28.9-22.8-30.1-23.7c-0.2,2.4-0.8,9.1-0.8,9.1c-1.3,15.6-3.2,29.5-5.6,41.4c0,0-0.6,3.2-0.8,3.9
			c0.9,0.4,3.6,1.6,3.6,1.6c14.1,6.1,28,14.3,41.3,24.4l-0.4,0.9C356.9,360.5,342.7,354.7,334.2,350.7 M420.2,205.5l0.5,0l0.1,3
			c1.1,52.1-0.6,94.8-4.8,120.1c-4.5,27.1-12,51-22.3,70.9l-0.3,0.7l-0.5-0.6c-8.6-10.4-18-19.8-27.9-28l-0.5-0.4l7.9-6.7l0.3,0.2
			c4.4,3.4,8.8,7.1,13,10.8c0,0,4.1,3.7,4.9,4.4c0.7-1.6,3.3-7.1,3.3-7.1s0.1-0.1,0.1-0.3c2.9-7.3,5.8-16.7,10.5-38.4
			c1.5-7.2,2.2-13.3,2.2-18.6c0-18.2-7.6-26.3-12.2-31.1l-1.9-2.1c0,0-8.9-10.2-8.9-10.2l-10.5-11.9c-6.7-7.7-8-12.2-8-18.5
			c0-0.2,0-1.1,0-1.1l12.5,0l0.5,0l0,10c0,0,0,2.1,0,2.5c0.5,0.4,31.2,23,32.5,23.9c0.1-2.5,0.3-9.4,0.3-9.4
			c0.3-9.9,0.4-20.3,0.4-31.5c0-5.5,0-11.2-0.1-17.1c0,0,0-4-0.1-4.9c-0.8,0-41.5,0-41.5,0l-1.2,0l9-8.9L420.2,205.5z M392.4,183.5
			c-1.9,1.9-8.5,0.9-11.4-0.3l-0.6-0.3l7.3-9.2l0.8-1l0.4,0.4C391.6,176,395.8,180.2,392.4,183.5 M380.5,171.9c0,0-8.8,9.9-9.9,11.2
			c-0.5-0.1-3.6-1.1-4.7-1.4c0.8-1,5.5-6.6,5.5-6.6l-0.7-0.2c-1.1-0.4-2-1-2.9-1.7c0,0-0.7-0.5-1.3-0.8c0.7-0.7,5.5-6.3,5.5-6.3
			l0.7-0.8l12.3-11.5c7.9-7.4,18.3-17.2,27.4-25.5C402,143.3,387.8,162.4,380.5,171.9"/>
		<path fill="#061922" d="M138.9,364.6c-4.4,3.4-8.8,7.1-13.5,11.4c0,0-4.5,4-5.4,4.9c-0.4-1.2-2.5-6.8-2.5-6.8
			c-5.4-15-9.6-31.8-12.4-50c-3.6-23.4-4.6-57-4.6-85.9c0-6.7,0-13.1,0.1-19.1c0,0,0.1-4,0.1-4.9c0.8,0,33.3,0,34.2,0
			c0,0.8-0.1,5-0.1,5c-0.1,6.5-0.1,12.9-0.1,19.1c0,10.3,0.1,20.2,0.4,29.3l0,0.9l12-8.8l0-0.3c-0.3-12.9-0.3-26.2,0.1-40.6
			c0,0,0-1.2,0-1.2l-1.4-1.2l-0.7-0.7l-10.7-10.6l-0.2,0l-43,0l-0.1,3c-1.2,52.1,0.5,94.8,4.6,120.1c4.4,27.2,11.9,51,22.2,71
			l0.3,0.7l0.5-0.6c8.6-10.3,18-19.8,28-28l0.5-0.4l-7.9-6.7L138.9,364.6z"/>
		<path fill="#734E9F" d="M138.9,364.6c-4.4,3.4-8.8,7.1-13.5,11.4c0,0-4.5,4-5.4,4.9c-0.4-1.2-2.5-6.8-2.5-6.8
			c-5.4-15-9.6-31.8-12.4-50c-3.6-23.4-4.6-57-4.6-85.9c0-6.7,0-13.1,0.1-19.1c0,0,0.1-4,0.1-4.9c0.8,0,33.3,0,34.2,0
			c0,0.8-0.1,5-0.1,5c-0.1,6.5-0.1,12.9-0.1,19.1c0,10.3,0.1,20.2,0.4,29.3l0,0.9l12-8.8l0-0.3c-0.3-12.9-0.3-26.2,0.1-40.6
			c0,0,0-1.2,0-1.2l-1.4-1.2l-0.7-0.7l-10.7-10.6l-0.2,0l-43,0l-0.1,3c-1.2,52.1,0.5,94.8,4.6,120.1c4.4,27.2,11.9,51,22.2,71
			l0.3,0.7l0.5-0.6c8.6-10.3,18-19.8,28-28l0.5-0.4l-7.9-6.7L138.9,364.6z"/>
		<path fill="#061922" d="M386.6,191l-1.4,0.1c-7.4,0.6-30.2-6.2-47.8-13.1l-3.3-1.3c-17.9-7-42.4-16.7-78.1-16.7
			c-35.7,0-60.2,9.6-78.1,16.6l-3.3,1.3c-17.7,6.9-40.4,13.6-47.8,13l-1.4-0.1l1,1c0.9,0.9,21,20.8,22.6,22.4
			c1.7,1.6,3.6,1.9,6.2,1.9c7.2-0.1,20.5-5.3,34.6-10.7l1.9-0.7c13.4-5.2,33.7-13.1,64.2-13.1c30.6,0,50.8,7.9,64.2,13.2l1.9,0.7
			c14.1,5.5,27.4,10.7,34.6,10.8c2.6,0,4.5-0.3,6.3-1.9c1.7-1.6,21.8-21.5,22.7-22.4L386.6,191z M163.5,205.2
			c-2.5,0.9-6.1,1.5-8.1,1.4l-1.3,1.8l-1.7-4.6c3.3,1,7,0.7,9.9-0.4c2.3-0.8,3.9-1.8,3.5-2.7c-0.4-1-2.6-0.1-5.5,0.8
			c-4.8,1.5-8.5,1.5-9.5-1.3c-1-2.8,1.6-5.5,6.4-7.3c2.5-0.9,5.6-1.4,7.6-1.3l1.3-1.8l1.6,4.2c-3.3-0.7-6.3-0.3-9.2,0.8
			c-2.2,0.8-4.2,2-3.9,2.8c0.4,1,2.5,0,5.3-0.9c4.7-1.5,8.9-1.5,10.1,1.4C171.1,201.1,168.2,203.4,163.5,205.2 M181.7,199.1l1.5-3.6
			l-0.7-0.5l-6.7,2.3l-0.1,0.8l4,1.8c-2,0.6-6.5,2.3-9,3.3l1.8-4l1.6-8.9l-3.9-1.6c3.8-1.4,10.1-3.5,12.8-4.6l-2.1,3.7l6.9,5.5
			l4.1,1.8C188.8,196.3,183.5,198.4,181.7,199.1 M199.6,192.4c-5.9,1.7-11,0.3-12.2-3.5c-1.1-3.8,2.5-7.9,8.3-9.6
			c2.5-0.7,5.1-0.9,7-0.5l1.4-1.7l1.5,5.1c-3.3-1.4-5.1-1.5-8-0.6c-3,0.9-5.7,3.3-5,5.8c0.7,2.5,4.3,3.1,7.3,2.2
			c1.9-0.6,4.7-1.3,6.5-4.6l0.7,2.4C206.1,189.2,203.2,191.3,199.6,192.4 M267.1,183.3l3-2.5l0.7-7.6l-5.4,10.1l-2.5-0.1l-4.3-10.7
			l-0.3,7.8l2.9,2.8c-1.8-0.1-6.5-0.1-9,0c-4.3,0-8.9,0.4-10.9,0.5l2.4-3l-0.5-0.7l-7,0.5l-0.4,0.7l3.4,2.6c-1.7,0.1-5.2,0.5-8,0.8
			l0,0l-7.9,1.2c-1.2-0.8-2.2-2.3-3.1-3.7c-0.5-0.7-0.8-0.9-1.7-0.8l-3.1,0.7l0.5,2.5l3.6,2l-11.2,2.8l2.5-3.4l-1.6-7.6l-3.6-1.9
			c4.1-1,8.4-2.3,12.2-3.1c4.9-1.1,8.3-0.2,8.8,2.2c0.3,1.9-1.2,3.4-3.6,4.3l0,0c0.8-0.2,1.8,0,2.5,0.7c0.5,0.5,0.9,1.1,1.4,1.7
			l3.2,1.7l2.3-2.7l3.8-8l-3.3-2.4c4.8-0.5,9.8-0.9,13.3-1.1l-2.9,2.9l5.1,7.3l3.6,3l3.2-2.8l0.3-7.8l-2.9-2.7c2.7,0,7.8,0,10,0.1
			l2.8,6.6l3.3-6.3c2.4,0.2,7.9,0.7,10.5,1l-3.3,2.5l-0.7,7.5l2.9,3.2C275,183.9,269.6,183.4,267.1,183.3 M297.9,188.1
			c-5.1-1.2-13.4-2.8-19-3.7l3.6-2.2l1.4-7.6l-2.6-3.2c4.3,0.6,11.8,1.9,19.5,3.6l-1,4.7l-3.6-3.4l-7.1-1.3l-0.5,2.9l4.1,0.7
			l2.6-0.9l-1,5l-2-1.8l-4-0.7l-0.6,3.2l6.9,1.3l4.6-1.9L297.9,188.1z M321.1,184l-3.1,10.4l-5.5-1.9l-4.8-10.7l-1.4,5.7l2.4,3.6
			l-8.9-2.6l3.7-1.8l1.9-7.7l-2.6-3.4l8.7,2.5l5.2,10.7l1.6-5.6l-2.2-3.6l8.7,3.1L321.1,184z M338.5,190.3l-2.4-0.9l-2.9,8.2
			l2.1,3.7l-10.9-4.1l3.8-1.4l2.9-8.2l-2.4-0.9l-5.2,1.7l1.8-5.3c3.1,1.1,13.1,4.9,17.9,6.8l-1.8,5.3L338.5,190.3z M360.9,202.4
			c-1.3,3.9-6.1,5.6-11.7,3.9c-5.6-1.7-8.6-5.7-7.3-9.6c1.3-4,6.1-5.6,11.7-3.9C359.2,194.5,362.2,198.5,360.9,202.4"/>
		<path fill="#734E9F" d="M386.6,191l-1.4,0.1c-7.4,0.6-30.2-6.2-47.8-13.1l-3.3-1.3c-17.9-7-42.4-16.7-78.1-16.7
			c-35.7,0-60.2,9.6-78.1,16.6l-3.3,1.3c-17.7,6.9-40.4,13.6-47.8,13l-1.4-0.1l1,1c0.9,0.9,21,20.8,22.6,22.4
			c1.7,1.6,3.6,1.9,6.2,1.9c7.2-0.1,20.5-5.3,34.6-10.7l1.9-0.7c13.4-5.2,33.7-13.1,64.2-13.1c30.6,0,50.8,7.9,64.2,13.2l1.9,0.7
			c14.1,5.5,27.4,10.7,34.6,10.8c2.6,0,4.5-0.3,6.3-1.9c1.7-1.6,21.8-21.5,22.7-22.4L386.6,191z M163.5,205.2
			c-2.5,0.9-6.1,1.5-8.1,1.4l-1.3,1.8l-1.7-4.6c3.3,1,7,0.7,9.9-0.4c2.3-0.8,3.9-1.8,3.5-2.7c-0.4-1-2.6-0.1-5.5,0.8
			c-4.8,1.5-8.5,1.5-9.5-1.3c-1-2.8,1.6-5.5,6.4-7.3c2.5-0.9,5.6-1.4,7.6-1.3l1.3-1.8l1.6,4.2c-3.3-0.7-6.3-0.3-9.2,0.8
			c-2.2,0.8-4.2,2-3.9,2.8c0.4,1,2.5,0,5.3-0.9c4.7-1.5,8.9-1.5,10.1,1.4C171.1,201.1,168.2,203.4,163.5,205.2 M181.7,199.1l1.5-3.6
			l-0.7-0.5l-6.7,2.3l-0.1,0.8l4,1.8c-2,0.6-6.5,2.3-9,3.3l1.8-4l1.6-8.9l-3.9-1.6c3.8-1.4,10.1-3.5,12.8-4.6l-2.1,3.7l6.9,5.5
			l4.1,1.8C188.8,196.3,183.5,198.4,181.7,199.1 M199.6,192.4c-5.9,1.7-11,0.3-12.2-3.5c-1.1-3.8,2.5-7.9,8.3-9.6
			c2.5-0.7,5.1-0.9,7-0.5l1.4-1.7l1.5,5.1c-3.3-1.4-5.1-1.5-8-0.6c-3,0.9-5.7,3.3-5,5.8c0.7,2.5,4.3,3.1,7.3,2.2
			c1.9-0.6,4.7-1.3,6.5-4.6l0.7,2.4C206.1,189.2,203.2,191.3,199.6,192.4 M267.1,183.3l3-2.5l0.7-7.6l-5.4,10.1l-2.5-0.1l-4.3-10.7
			l-0.3,7.8l2.9,2.8c-1.8-0.1-6.5-0.1-9,0c-4.3,0-8.9,0.4-10.9,0.5l2.4-3l-0.5-0.7l-7,0.5l-0.4,0.7l3.4,2.6c-1.7,0.1-5.2,0.5-8,0.8
			l0,0l-7.9,1.2c-1.2-0.8-2.2-2.3-3.1-3.7c-0.5-0.7-0.8-0.9-1.7-0.8l-3.1,0.7l0.5,2.5l3.6,2l-11.2,2.8l2.5-3.4l-1.6-7.6l-3.6-1.9
			c4.1-1,8.4-2.3,12.2-3.1c4.9-1.1,8.3-0.2,8.8,2.2c0.3,1.9-1.2,3.4-3.6,4.3l0,0c0.8-0.2,1.8,0,2.5,0.7c0.5,0.5,0.9,1.1,1.4,1.7
			l3.2,1.7l2.3-2.7l3.8-8l-3.3-2.4c4.8-0.5,9.8-0.9,13.3-1.1l-2.9,2.9l5.1,7.3l3.6,3l3.2-2.8l0.3-7.8l-2.9-2.7c2.7,0,7.8,0,10,0.1
			l2.8,6.6l3.3-6.3c2.4,0.2,7.9,0.7,10.5,1l-3.3,2.5l-0.7,7.5l2.9,3.2C275,183.9,269.6,183.4,267.1,183.3 M297.9,188.1
			c-5.1-1.2-13.4-2.8-19-3.7l3.6-2.2l1.4-7.6l-2.6-3.2c4.3,0.6,11.8,1.9,19.5,3.6l-1,4.7l-3.6-3.4l-7.1-1.3l-0.5,2.9l4.1,0.7
			l2.6-0.9l-1,5l-2-1.8l-4-0.7l-0.6,3.2l6.9,1.3l4.6-1.9L297.9,188.1z M321.1,184l-3.1,10.4l-5.5-1.9l-4.8-10.7l-1.4,5.7l2.4,3.6
			l-8.9-2.6l3.7-1.8l1.9-7.7l-2.6-3.4l8.7,2.5l5.2,10.7l1.6-5.6l-2.2-3.6l8.7,3.1L321.1,184z M338.5,190.3l-2.4-0.9l-2.9,8.2
			l2.1,3.7l-10.9-4.1l3.8-1.4l2.9-8.2l-2.4-0.9l-5.2,1.7l1.8-5.3c3.1,1.1,13.1,4.9,17.9,6.8l-1.8,5.3L338.5,190.3z M360.9,202.4
			c-1.3,3.9-6.1,5.6-11.7,3.9c-5.6-1.7-8.6-5.7-7.3-9.6c1.3-4,6.1-5.6,11.7-3.9C359.2,194.5,362.2,198.5,360.9,202.4"/>
		<polygon fill="#061922" points="237.4,178 241.7,177.7 239.1,174.3 		"/>
		<polygon fill="#734E9F" points="237.4,178 241.7,177.7 239.1,174.3 		"/>
		<path fill="#061922" d="M218.4,175.7l-3.9,0.9l0.7,3.3l3.8-0.9c1.4-0.3,2.2-1.1,2.1-2C220.8,175.8,219.7,175.4,218.4,175.7"/>
		<path fill="#734E9F" d="M218.4,175.7l-3.9,0.9l0.7,3.3l3.8-0.9c1.4-0.3,2.2-1.1,2.1-2C220.8,175.8,219.7,175.4,218.4,175.7"/>
		<polygon fill="#061922" points="176.3,194.7 180.4,193.2 177,190.4 		"/>
		<polygon fill="#734E9F" points="176.3,194.7 180.4,193.2 177,190.4 		"/>
		<path fill="#061922" d="M352.7,195.4c-2.6-0.8-4.9,0.4-5.7,2.8c-0.8,2.4,0.4,4.6,3,5.4c2.6,0.8,5-0.3,5.8-2.7
			C356.6,198.5,355.3,196.2,352.7,195.4"/>
		<path fill="#734E9F" d="M352.7,195.4c-2.6-0.8-4.9,0.4-5.7,2.8c-0.8,2.4,0.4,4.6,3,5.4c2.6,0.8,5-0.3,5.8-2.7
			C356.6,198.5,355.3,196.2,352.7,195.4"/>
		<path fill="#FFFFFF" d="M159.9,196.6c-2.8,0.9-4.9,1.9-5.3,0.9c-0.3-0.9,1.7-2,3.9-2.8c2.9-1.1,5.9-1.5,9.2-0.8l-1.6-4.2l-1.3,1.8
			c-2-0.1-5.1,0.3-7.6,1.3c-4.7,1.8-7.4,4.5-6.4,7.3c1.1,2.8,4.7,2.8,9.5,1.3c2.8-0.8,5.1-1.8,5.5-0.8c0.4,1-1.2,1.9-3.5,2.7
			c-3,1.1-6.6,1.4-9.9,0.4l1.7,4.6l1.3-1.8c2,0.1,5.6-0.5,8.1-1.4c4.7-1.7,7.5-4.1,6.4-7.1C168.8,195.1,164.6,195.2,159.9,196.6"/>
		<path fill="#FFFFFF" d="M200,189.5c-3,0.9-6.6,0.3-7.3-2.2c-0.7-2.5,2-4.9,5-5.8c2.9-0.8,4.8-0.8,8,0.6l-1.5-5.1l-1.4,1.7
			c-1.9-0.4-4.5-0.2-7,0.5c-5.8,1.7-9.4,5.8-8.3,9.6c1.1,3.9,6.3,5.2,12.2,3.6c3.6-1,6.4-3.2,7.6-5l-0.7-2.4
			C204.7,188.1,202,188.9,200,189.5"/>
		<path fill="#FFFFFF" d="M276.1,173.6l3.3-2.5c-2.5-0.4-8-0.9-10.5-1l-3.3,6.3l-2.8-6.6c-2.3-0.1-7.3-0.2-10-0.1l2.9,2.7l-0.3,7.8
			l-3.2,2.8c2.5-0.1,7.2,0,9,0l-2.9-2.8l0.3-7.8l4.3,10.7l2.5,0.1l5.4-10.1l-0.7,7.6l-3,2.5c2.4,0.1,7.8,0.6,11.1,1l-2.9-3.2
			L276.1,173.6z"/>
		<path fill="#FFFFFF" d="M287.6,183.3l0.6-3.2l4,0.7l2,1.8l1-5l-2.6,0.9l-4.1-0.7l0.5-2.9l7.1,1.3l3.7,3.4l1-4.7
			c-7.7-1.7-15.2-3.1-19.5-3.6l2.6,3.2l-1.4,7.6l-3.6,2.2c5.6,0.8,13.9,2.5,19,3.7l1.2-5.3l-4.6,1.9L287.6,183.3z"/>
		<polygon fill="#FFFFFF" points="316.1,179.5 318.3,183.1 316.7,188.7 311.6,178 302.8,175.6 305.4,179 303.5,186.7 299.8,188.5 
			308.6,191.1 306.3,187.5 307.7,181.8 312.5,192.5 318,194.4 321.1,184 324.8,182.6 		"/>
		<path fill="#FFFFFF" d="M325.4,182.9l-1.8,5.3l5.2-1.7l2.4,0.9l-2.9,8.2l-3.8,1.4l10.9,4.1l-2.1-3.7l2.9-8.2l2.4,0.9l3,4.8
			l1.8-5.3C338.5,187.8,328.5,184,325.4,182.9"/>
		<path fill="#FFFFFF" d="M353.6,192.8c-5.6-1.7-10.4-0.1-11.7,3.9c-1.3,3.9,1.7,7.9,7.3,9.6c5.6,1.7,10.4,0,11.7-3.9
			C362.2,198.5,359.2,194.5,353.6,192.8 M355.8,200.9c-0.8,2.4-3.2,3.5-5.8,2.7c-2.6-0.8-3.8-3-3-5.4c0.8-2.4,3.1-3.6,5.7-2.8
			C355.3,196.2,356.6,198.5,355.8,200.9"/>
		<path fill="#FFFFFF" d="M180.8,187.9l2.1-3.7c-2.6,1.1-8.9,3.2-12.8,4.6l3.9,1.6l-1.6,8.9l-1.8,4c2.5-0.9,7-2.6,9-3.3l-4-1.8
			l0.1-0.8l6.7-2.3l0.7,0.5l-1.5,3.6c1.8-0.7,7.2-2.8,10.1-3.8l-4.1-1.8L180.8,187.9z M176.3,194.7l0.7-4.3l3.4,2.8L176.3,194.7z"/>
		<path fill="#FFFFFF" d="M243.5,172.8l2.9-2.9c-3.5,0.2-8.5,0.6-13.3,1.1l3.3,2.4l-3.8,8l-2.3,2.7l-3.2-1.7
			c-0.5-0.6-0.9-1.2-1.4-1.7c-0.7-0.8-1.7-0.9-2.5-0.7l0,0c2.4-0.9,3.9-2.4,3.6-4.3c-0.4-2.5-3.9-3.3-8.8-2.2
			c-3.8,0.8-8.1,2.1-12.2,3.1l3.6,1.9l1.6,7.6l-2.5,3.4l11.2-2.8l-3.6-2l-0.5-2.5l3.1-0.7c0.8-0.2,1.2,0.1,1.7,0.8
			c0.9,1.4,1.9,2.9,3.1,3.7l7.9-1.2l0,0c2.8-0.4,6.3-0.8,8-0.8l-3.4-2.6l0.4-0.7l7-0.5l0.5,0.7l-2.4,3c2-0.1,6.6-0.5,10.9-0.5
			l-3.6-3L243.5,172.8z M218.9,179l-3.8,0.9l-0.7-3.3l3.9-0.9c1.4-0.3,2.5,0.1,2.6,1.3C221.1,177.9,220.3,178.7,218.9,179
			 M237.4,178l1.8-3.8l2.5,3.4L237.4,178z"/>
		<path fill="#734E9F" d="M256.9,343.9l0.5,0c3.6,0.1,7.2,0.8,10.6,1.8l0.4,0.1l0.2-0.4c1-2.3,2.3-4,3.2-5c0,0,0.1,0,0.1-0.1
			c-4.6-2-9.7-3.2-15-3.4c0,0,0,0,0,0L256.9,343.9"/>
		<path fill="#734E9F" d="M243,345.5l0.2,0.4l0.4-0.1c3.4-1.1,7-1.7,10.6-1.8l0.5,0c0,0,0-4.2,0-6.9c-5.3,0.1-10.4,1.3-15,3.3
			c0.1,0.1,0.1,0.1,0.1,0.1C240.7,341.5,242,343.2,243,345.5"/>
		<path fill="#734E9F" d="M275.3,373.2c0,0-4.9-8-4.9-8c-2.3-4.1-3.4-8-3.4-11.9c0-1.6,0.2-3.2,0.6-4.8l0.1-0.5l-0.5-0.1
			c-3.1-1-6.4-1.6-9.8-1.7l-0.5,0l-0.1,70.9v0c11.2-0.3,21.2-5.2,28.3-12.8v0C285.2,388.5,280.8,381.7,275.3,373.2"/>
		<path fill="#734E9F" d="M293.7,384c0-10.1-3.9-19.6-11.1-26.8c-3.6-3.6-7.7-6.3-12.3-8.3l-0.5-0.2l-0.1,0.6
			c-0.3,1.3-0.5,2.6-0.5,3.9c0,3.5,1.1,7.1,3.2,10.8l4.8,7.9c5.2,8,9.6,14.9,10.2,29.2c0,0,0,0.2,0,0.6c2.1-2.7,3.9-5.6,5.2-8.7
			C293.2,390,293.7,387,293.7,384L293.7,384z"/>
		<path fill="#734E9F" d="M240.7,346.9l0.5-0.2l-0.2-0.5c-1.1-2.2-2.4-3.8-3.4-4.8c-12.9,6.6-21.8,20.1-21.8,35.6c0,1,0,1.9,0.1,2.9
			c0.2-1.4,0.4-2.5,0.4-2.5C218.5,363.8,227.9,352.1,240.7,346.9"/>
		<path fill="#734E9F" d="M234.4,372c0,0,4.9-7.9,4.9-7.9c2.1-3.7,3.2-7.4,3.2-10.9c0-1.3-0.2-2.6-0.5-3.9l-0.1-0.6l-0.5,0.2
			c-4.6,1.9-8.8,4.7-12.3,8.2c-7.2,7.1-11.1,16.7-11.1,26.8v0c0,3,0.4,5.9,1.1,8.8c1.4,3.2,3.2,6.2,5.3,8.9c0-0.4,0-0.7,0-0.7
			C224.8,386.8,229.3,379.9,234.4,372"/>
		<path fill="#734E9F" d="M274,341.4c-0.9,0.9-2.3,2.5-3.4,4.8l-0.2,0.5l0.5,0.2c4.9,2,9.4,5,13.2,8.8c5.9,6,9.8,13.5,11.2,21.7
			c0,0,0.2,1.1,0.4,2.5c0.1-0.9,0.1-1.9,0.1-2.8C295.8,361.6,287,348.1,274,341.4"/>
		<path fill="#734E9F" d="M254.2,346.1c-3.3,0.1-6.6,0.7-9.8,1.7l-0.5,0.1l0.1,0.5c0.4,1.6,0.6,3.1,0.6,4.7c0,3.9-1.2,7.9-3.5,11.9
			l-4.9,8c-5.5,8.6-9.9,15.3-9.9,31c7.1,7.7,17.1,12.6,28.3,12.9c0-10.6,0.1-70.9,0.1-70.9L254.2,346.1z"/>
		<path fill="#909291" d="M284.1,355.7c-3.8-3.8-8.2-6.8-13.2-8.8l-0.5-0.2l0.2-0.5c1.1-2.2,2.4-3.8,3.4-4.8c-0.7-0.4-1.4-0.7-2.1-1
			c-0.1,0.1-0.1,0.1-0.1,0.1c-0.9,1-2.2,2.7-3.2,5l-0.2,0.4l-0.4-0.1c-3.4-1.1-7-1.7-10.6-1.8l-0.5,0l0-6.8c0,0,0,0,0,0
			c-0.4,0-0.7,0-1.1,0c-0.4,0-0.7,0-1.1,0c0,2.7,0,6.9,0,6.9l-0.5,0c-3.6,0.1-7.2,0.8-10.6,1.8l-0.4,0.1l-0.2-0.4
			c-1-2.3-2.3-4-3.2-5c0,0,0-0.1-0.1-0.1c-0.7,0.3-1.4,0.7-2.1,1c1,1,2.3,2.5,3.4,4.8l0.2,0.5l-0.5,0.2
			c-12.8,5.2-22.1,16.9-24.4,30.5c0,0-0.2,1.1-0.4,2.5c0.3,4.6,1.4,8.9,3.1,12.9c-0.7-2.9-1.1-5.9-1.1-8.8v0
			c0-10.1,4-19.6,11.1-26.8c3.6-3.6,7.7-6.3,12.3-8.2l0.5-0.2l0.1,0.6c0.3,1.3,0.5,2.6,0.5,3.9c0,3.5-1.1,7.1-3.2,10.9
			c0,0-4.9,7.9-4.9,7.9c-5.1,8-9.6,14.8-10.2,29.1c0,0,0,0.3,0,0.7c0.7,0.9,1.4,1.7,2.1,2.5c0-15.7,4.4-22.5,9.9-31l4.9-8
			c2.3-4.1,3.5-8.1,3.5-11.9c0-1.6-0.2-3.2-0.6-4.7l-0.1-0.5l0.5-0.1c3.1-1,6.4-1.6,9.8-1.7l0.5,0c0,0-0.1,60.4-0.1,70.9
			c0.4,0,0.7,0,1.1,0c0.4,0,0.7,0,1.1,0v0l0.1-70.9l0.5,0c3.3,0.1,6.6,0.7,9.8,1.7l0.5,0.1l-0.1,0.5c-0.4,1.6-0.6,3.2-0.6,4.8
			c0,3.9,1.1,7.9,3.4,11.9c0,0,4.9,8,4.9,8c5.5,8.5,9.8,15.3,9.8,31v0c0.8-0.8,1.5-1.7,2.1-2.5c0-0.3,0-0.6,0-0.6
			c-0.6-14.2-5-21.1-10.2-29.2l-4.8-7.9c-2.1-3.7-3.2-7.4-3.2-10.8c0-1.3,0.2-2.7,0.5-3.9l0.1-0.6l0.5,0.2c4.6,1.9,8.8,4.7,12.3,8.3
			c7.1,7.2,11.1,16.7,11.1,26.8v0c0,3-0.4,6-1.1,8.9c1.7-4,2.8-8.4,3.2-13c-0.2-1.4-0.4-2.5-0.4-2.5
			C293.9,369.2,290.1,361.6,284.1,355.7"/>
		<polygon fill="#909291" points="128.4,442.4 128.3,441.7 122.3,448.6 122.4,449.2 122.4,450 122.7,455.2 123.2,463.6 123.2,464.3 
			129.2,457.5 129.2,456.9 		"/>
		<polygon fill="#909291" points="165.8,414.7 165.3,406.7 165,400.7 164.9,400.1 158.8,407 158.9,407.7 159.7,422.4 159.7,423.1 
			165.9,416.1 165.9,415.4 		"/>
		<polygon fill="#909291" points="146.7,421.6 146.6,420.9 140.5,427.8 140.6,428.5 141.1,437.3 141.3,442.3 141.4,443.1 
			141.4,443.8 147.5,436.9 147.5,436.2 		"/>
		<path fill="#909291" d="M382.9,445.7l-0.6,10.7l0,0.7l0,0.7l6,6.8l0-0.7l0-0.7l0.8-12.9l0-0.7l0-0.7c-1.9-2.1-3.9-4.4-6-6.9l0,0.7
			L382.9,445.7z"/>
		<path fill="#909291" d="M346.5,401.6l-0.7,11l-0.2,2.9l-0.1,0.7l6.2,7l0.1-0.7l0.8-14.7l0-0.7c-2.6-2.9-4.7-5.3-6.1-7l0,0.7
			L346.5,401.6z"/>
		<path fill="#909291" d="M364.8,422.5l-0.4,6.6l-0.4,7.3l0,0.7l6.1,6.9l0-0.7l0-0.7l0.3-4.4l0.5-9.4l0.1-0.7
			c-2.1-2.4-4.1-4.7-6.1-7l0,0.7L364.8,422.5z"/>
		<path fill="#909291" d="M141.2,182.8c0.5-0.1,3.6-1.1,4.7-1.4c-0.8-1-5.5-6.6-5.5-6.6l0.7-0.2c1.1-0.4,2-1,2.9-1.7
			c0,0,0.7-0.5,1.3-0.8c-0.7-0.8-5.4-6.3-5.4-6.3L139,165l-12.3-11.6c-7.9-7.4-18.3-17.3-27.4-25.6c10.6,15.3,24.7,34.3,32,43.8
			C131.3,171.6,140.8,182.4,141.2,182.8"/>
		<path fill="#061922" d="M130.9,183l0.6-0.3l-7.7-9.7l-0.4-0.4L123,173c-2.7,2.7-6.9,6.9-3.5,10.3C121.4,185.2,128,184.2,130.9,183
			"/>
		<path fill="#734E9F" d="M130.9,183l0.6-0.3l-7.7-9.7l-0.4-0.4L123,173c-2.7,2.7-6.9,6.9-3.5,10.3C121.4,185.2,128,184.2,130.9,183
			"/>
		<path fill="#061922" d="M151.8,168.8c3-1.7,5-4.2,5.5-6.8c0.2-1.1,0.1-2.1-0.4-2.8c-1.9-2.4-6.4-2-12.9,0.9l-0.6,0.3l8.1,8.5
			L151.8,168.8z"/>
		<path fill="#734E9F" d="M151.8,168.8c3-1.7,5-4.2,5.5-6.8c0.2-1.1,0.1-2.1-0.4-2.8c-1.9-2.4-6.4-2-12.9,0.9l-0.6,0.3l8.1,8.5
			L151.8,168.8z"/>
		<path fill="#061922" d="M150.6,176.6l-0.6,0.3l2.8,3.4l0.3-0.1c0.1,0,10.4-3.2,17.5-6.4l0.5-0.2l-8.4-13.4l-0.9,0.5
			c0.7,1.3,0.8,2.8,0.2,4.4C161,169.1,156.4,173.6,150.6,176.6"/>
		<path fill="#734E9F" d="M150.6,176.6l-0.6,0.3l2.8,3.4l0.3-0.1c0.1,0,10.4-3.2,17.5-6.4l0.5-0.2l-8.4-13.4l-0.9,0.5
			c0.7,1.3,0.8,2.8,0.2,4.4C161,169.1,156.4,173.6,150.6,176.6"/>
		<path fill="#909291" d="M256,155.2c31.1,0,54.1,7.1,74.2,14.8c0.4-0.8,14.3-33.2,15.4-35.6c-2.3,1.2-34.9,18.4-34.9,18.4
			s5.6-59.9,5.9-63c-2,2.5-42.4,52.6-42.4,52.6S256.9,81.3,256,78c-0.9,3.2-18.2,64.3-18.2,64.3s-40.4-50.2-42.3-52.7
			c0.3,3.1,5.8,63,5.8,63s-32.6-17.2-34.9-18.4c1,2.4,15,34.8,15.3,35.7C201.9,162.2,224.8,155.2,256,155.2"/>
		<path fill="#061922" d="M388.5,172.9l-0.8,1l-7.3,9.2l0.6,0.3c2.8,1.2,9.5,2.2,11.4,0.3c3.4-3.4-0.7-7.5-3.5-10.3L388.5,172.9z"/>
		<path fill="#734E9F" d="M388.5,172.9l-0.8,1l-7.3,9.2l0.6,0.3c2.8,1.2,9.5,2.2,11.4,0.3c3.4-3.4-0.7-7.5-3.5-10.3L388.5,172.9z"/>
		<path fill="#061922" d="M360.1,169l0.3,0.2l8.1-8.5l-0.7-0.3c-6.5-3-11-3.3-12.9-1c-0.5,0.6-0.7,1.6-0.4,2.8
			C355,164.7,357.1,167.2,360.1,169"/>
		<path fill="#734E9F" d="M360.1,169l0.3,0.2l8.1-8.5l-0.7-0.3c-6.5-3-11-3.3-12.9-1c-0.5,0.6-0.7,1.6-0.4,2.8
			C355,164.7,357.1,167.2,360.1,169"/>
		<path fill="#061922" d="M341.2,174c7.1,3.2,17.4,6.4,17.5,6.4l0.3,0.1l2.8-3.4l-0.5-0.3c-5.8-3-10.4-7.5-11.6-11.5
			c-0.5-1.7-0.4-3.2,0.3-4.4l-0.9-0.5l-8.4,13.4L341.2,174z"/>
		<path fill="#734E9F" d="M341.2,174c7.1,3.2,17.4,6.4,17.5,6.4l0.3,0.1l2.8-3.4l-0.5-0.3c-5.8-3-10.4-7.5-11.6-11.5
			c-0.5-1.7-0.4-3.2,0.3-4.4l-0.9-0.5l-8.4,13.4L341.2,174z"/>
		<path fill="#061922" d="M368.4,214.4h1.2c0,0,40.7,0,41.5,0c0,0.8,0.1,4.9,0.1,4.9c0.1,5.9,0.1,11.6,0.1,17.1
			c0,11.2-0.1,21.6-0.4,31.5c0,0-0.2,6.9-0.3,9.4c-1.3-0.9-32-23.5-32.5-23.9c0-0.4,0-2.5,0-2.5l0-10l-0.5,0l-12.5,0
			c0,0,0,0.9,0,1.1c0,6.2,1.3,10.7,8,18.5l10.5,11.9c0,0,8.9,10.2,8.9,10.2l1.9,2.1c4.6,4.8,12.2,12.9,12.2,31.1
			c0,5.3-0.6,11.4-2.2,18.6c-4.7,21.7-7.6,31.1-10.5,38.4c0,0.1-0.1,0.3-0.1,0.3s-2.6,5.5-3.3,7.1c-0.8-0.7-4.9-4.4-4.9-4.4
			c-4.2-3.7-8.6-7.4-13-10.8l-0.3-0.2l-7.9,6.7l0.5,0.4c9.9,8.2,19.3,17.7,27.9,28l0.5,0.6l0.3-0.7c10.3-19.9,17.8-43.8,22.3-70.9
			c4.2-25.3,5.9-68,4.8-120.1l-0.1-3l-0.5,0l-42.7,0L368.4,214.4z"/>
		<path fill="#734E9F" d="M368.4,214.4h1.2c0,0,40.7,0,41.5,0c0,0.8,0.1,4.9,0.1,4.9c0.1,5.9,0.1,11.6,0.1,17.1
			c0,11.2-0.1,21.6-0.4,31.5c0,0-0.2,6.9-0.3,9.4c-1.3-0.9-32-23.5-32.5-23.9c0-0.4,0-2.5,0-2.5l0-10l-0.5,0l-12.5,0
			c0,0,0,0.9,0,1.1c0,6.2,1.3,10.7,8,18.5l10.5,11.9c0,0,8.9,10.2,8.9,10.2l1.9,2.1c4.6,4.8,12.2,12.9,12.2,31.1
			c0,5.3-0.6,11.4-2.2,18.6c-4.7,21.7-7.6,31.1-10.5,38.4c0,0.1-0.1,0.3-0.1,0.3s-2.6,5.5-3.3,7.1c-0.8-0.7-4.9-4.4-4.9-4.4
			c-4.2-3.7-8.6-7.4-13-10.8l-0.3-0.2l-7.9,6.7l0.5,0.4c9.9,8.2,19.3,17.7,27.9,28l0.5,0.6l0.3-0.7c10.3-19.9,17.8-43.8,22.3-70.9
			c4.2-25.3,5.9-68,4.8-120.1l-0.1-3l-0.5,0l-42.7,0L368.4,214.4z"/>
		<path fill="#909291" d="M372.9,165.1l-0.7,0.8c0,0-4.9,5.6-5.5,6.3c0.5,0.3,1.3,0.8,1.3,0.8c0.9,0.6,1.8,1.3,2.9,1.7l0.7,0.2
			c0,0-4.7,5.6-5.5,6.6c1,0.3,4.2,1.3,4.7,1.4c1.1-1.2,9.9-11.2,9.9-11.2c7.3-9.5,21.5-28.5,32.1-43.8c-9.2,8.3-19.6,18.1-27.4,25.5
			L372.9,165.1"/>
		<path fill="#909291" d="M196.2,208c0,0.6,0,4.6,0,5.4c1,0,118.5,0.1,119.4,0.1c0-0.8,0-4.8,0-5.4c-14.5-5.5-34.3-11.7-59.7-11.7
			C230.4,196.3,210.6,202.5,196.2,208 M304.1,209.9l-96.3-0.1l7.5-5.4l81.4,0.1L304.1,209.9z"/>
		<polygon fill="#061922" points="207.8,209.8 304.1,209.9 296.6,204.5 215.2,204.4 		"/>
		<polygon fill="#061922" points="207.8,209.8 304.1,209.9 296.6,204.5 215.2,204.4 		"/>
		<path fill="#FFFFFF" d="M405.9,267.6c0.5-18.5,0.5-36,0.3-48.4l-43.2,0.1c-2.3,1.1-4.5,1.3-6.3,1.2c-2.2,0-4.9-0.5-8-1.2l-10.6,0
			l-0.3,7.5c-0.2,12-0.9,31.5,10.9,44.5c9,10,13.3,14.5,16.1,17.4c1.9,2,3.2,3.4,4.9,5.3c0.4,0.4,0.7,0.8,1.2,1.3
			c3.9,4.1,9,9.7,6,29.3c-0.3,1.8-1.5,6.3-1.9,8.3c-3.8-2.8-15.8-9.6-19.9-11.8c0.7-4.4,1.3-8.7,1.8-13.1L336,291.8
			c-1.2,14.2-3,28.6-5.7,42c18.4,8,38.3,20.2,58.5,38.3l0.5-1.1c2.8-6.9,5.6-15.7,10.3-37.6c6.3-29.3-3.1-39.3-8.8-45.3
			c-0.8-0.8-1.5-1.6-2.1-2.3c-2.7-3.2-5.5-6.4-8.8-10.1l-10.5-11.9c-9.2-10.6-9.5-16.4-9.1-25.7l0.1-2l22.6,0
			c0.1,4.4,0.1,9.4,0.1,14.9L405.9,267.6z"/>
		<path fill="#FFFFFF" d="M160.3,344.3c7-4.1,13.8-7.6,20.5-10.5c-2.7-13.4-4.6-27.8-5.8-41.9l-20.2-11.4l18.6-13.4
			c-0.8-17.9-0.7-34.3-0.5-47.9l-9.3,0c-3.4,0.9-6.4,1.4-8.7,1.4c-0.9,0-1.9-0.1-2.9-0.2c-0.2,11.1-0.4,25.6,0,42l-21.6,15.7
			c-0.9-22.2-0.8-44.3-0.6-58.8l-24.3,0c-0.3,24.6-0.4,73.3,4.4,104.2c2.9,18.4,7,34.7,12.2,49.1c6.5-5.8,12.8-11.1,19.2-15.7
			c-2.8-10.4-5.2-21.6-7-33.4c-1.5-9.9-2.6-21.7-3.2-33.8l23.4,13.8C155.7,317.2,157.6,331.3,160.3,344.3"/>
		<path fill="#061922" d="M369.6,362.6c-13.3-10-27.2-18.2-41.3-24.4c0,0-2.8-1.2-3.6-1.6c0.1-0.7,0.8-3.9,0.8-3.9
			c2.4-11.9,4.3-25.8,5.6-41.4c0,0,0.6-6.7,0.8-9.1c1.2,0.9,29.6,23.3,30.1,23.7c-0.1,0.5-0.3,2.7-0.3,2.7l-1.3,9.8l0.3,0.2
			l11.1,6.4l0.1-0.7l0.1-0.5c2.7-17.3-1.3-21.5-4.7-25.2l-1.3-1.4l-4.7-5.1l-16.2-17.5c-12.7-14.1-12.4-34.5-12.2-46.7l0-1.2
			c0-0.2,0.3-7.6,0.3-7.6l0.2-5.2l-8-3c0,0,0,9.9,0,10.8c-1,0-138.2-0.1-139.2-0.1c0-0.9,0-10.7,0-10.7l-8.4,3.1l0,0.3l-0.1,4.9
			c-0.1,5.3-0.1,10.5-0.1,15.6c0,11.2,0.2,21.8,0.6,32c0,0,0.1,2.2,0.1,2.6c-0.4,0.3-14.5,10.5-14.5,10.5s15.2,8.6,15.8,8.9
			c0,0.4,0.2,2.6,0.2,2.6c1.3,14.8,3.2,28.8,5.7,41.4c0,0,0.6,3,0.8,3.9c-0.6,0.3-3.6,1.6-3.6,1.6c-6.4,2.8-12.9,6.2-20,10.3
			c0,0-4.3,2.5-5.9,3.4c-0.2-1.1-1.4-6.7-1.4-6.7c-2.4-11.4-4.3-24.4-5.7-38.8l0-0.3l-13.2-7.8l0.1,1c0.7,8.9,1.5,16.7,2.5,23.1
			c1.7,11.1,4.1,22.2,6.9,32.8c0,0,0.7,2.7,0.9,3.3c-0.5,0.3-2.7,2-2.7,2l-2.5,1.9l0.4,0.9c12.4-2.9,26.7-8.7,35.2-12.8
			c35.7-19.6,66.8-21.7,78.5-21.7c11.7,0,42.8,2.2,78.4,21.8c8.4,4.1,22.6,9.8,35,12.8L369.6,362.6z M211.9,328.5
			c-4.7,1.2-9.2,2.5-13.5,3.9c0,0-4.5,1.5-5.4,1.8c-0.2-0.9-1-5.6-1-5.6c-5-29-6.3-61-6.3-85.8c0-3.8,0-7.5,0.1-10.9
			c0,0,0.1-3.6,0.1-4.8c0.8,0,23.4,0,24.7,0c0,0.8-0.1,5-0.1,5c-0.1,4.4-0.1,8.7-0.1,13c0,29.3,1.7,55.5,5.2,78c0,0,0.6,3.7,0.7,4.4
			C215.5,327.6,211.9,328.5,211.9,328.5 M269.4,318.9c0,0-0.3,3.9-0.4,4.7c-0.8,0-4.7-0.2-4.7-0.2l-8.5-0.2l-1,0c-0.1,0-0.6,0-0.6,0
			c0,0-3.7,0-5,0c0-0.8,0.2-49.2,0.2-49.2l-9.1-6l0,0.9c0.2,19.8,0.8,36.2,1.7,50c0,0,0.3,3.7,0.3,4.8c-0.8,0.1-4.8,0.4-4.8,0.4
			l-10.6,1.3c0,0-4.2,0.6-5,0.8c-0.1-0.8-0.6-5.1-0.6-5.1c-2.5-21.3-3.7-45.8-3.7-72.8c0-5.4,0.1-10.9,0.1-16.5c0,0,0.1-3.7,0.1-4.8
			c0.8,0,17.7,0,17.7,0s4.2,0,5,0c0,0.8-0.2,9.4-0.2,9.4l9,6.3c0,0,0-14.9,0-15.7c0.8,0,21.3,0,22.6,0c0,0.8,0.1,4.8,0.1,4.8
			c0.1,4.5,0.1,9.5,0.1,14.8C272.1,267.2,271.5,293.1,269.4,318.9 M318.7,334.2c-0.9-0.3-5.4-1.8-5.4-1.8
			c-10.7-3.6-21.8-6.1-33.8-7.6c0,0-4-0.5-4.8-0.6c0.1-0.8,0.5-4.8,0.5-4.8c2.8-25.9,4.3-55.3,4.5-87.4c0,0,0-4.1,0-4.9
			c0.8,0,46.2,0.1,47,0.1c0,0.8,0,5.5,0,5.9c0,7.5-0.2,15.5-0.5,25.2c0,0-0.2,6.7-0.3,8.1c-1.2-0.7-16.6-9.3-16.6-9.3
			c-1.4-0.8-2.1-1.2-2.6-1.4c0-0.5,0.1-4.2,0.1-4.2l0-2.4l-5.4,0l0,0.5c-0.5,22-1.6,40.3-3.2,56l0,0.5l4.4,0.8l0.1-0.5l1.8-16.9
			l-0.5-0.1c-1-0.1-1.5-0.2-1.9-0.2c0.1-0.8,0.5-7.2,0.5-7.2s0.6-9,0.7-10.4c0.8,0.1,4.4,0.4,4.4,0.4l13.2,1.2c0,0,3.6,0.4,4.7,0.5
			c0,0.8-0.3,4.7-0.3,4.7c-1.2,18.8-3.2,35.8-5.9,50.3C319.7,328.6,318.9,333.2,318.7,334.2"/>
		<path fill="#734E9F" d="M369.6,362.6c-13.3-10-27.2-18.2-41.3-24.4c0,0-2.8-1.2-3.6-1.6c0.1-0.7,0.8-3.9,0.8-3.9
			c2.4-11.9,4.3-25.8,5.6-41.4c0,0,0.6-6.7,0.8-9.1c1.2,0.9,29.6,23.3,30.1,23.7c-0.1,0.5-0.3,2.7-0.3,2.7l-1.3,9.8l0.3,0.2
			l11.1,6.4l0.1-0.7l0.1-0.5c2.7-17.3-1.3-21.5-4.7-25.2l-1.3-1.4l-4.7-5.1l-16.2-17.5c-12.7-14.1-12.4-34.5-12.2-46.7l0-1.2
			c0-0.2,0.3-7.6,0.3-7.6l0.2-5.2l-8-3c0,0,0,9.9,0,10.8c-1,0-138.2-0.1-139.2-0.1c0-0.9,0-10.7,0-10.7l-8.4,3.1l0,0.3l-0.1,4.9
			c-0.1,5.3-0.1,10.5-0.1,15.6c0,11.2,0.2,21.8,0.6,32c0,0,0.1,2.2,0.1,2.6c-0.4,0.3-14.5,10.5-14.5,10.5s15.2,8.6,15.8,8.9
			c0,0.4,0.2,2.6,0.2,2.6c1.3,14.8,3.2,28.8,5.7,41.4c0,0,0.6,3,0.8,3.9c-0.6,0.3-3.6,1.6-3.6,1.6c-6.4,2.8-12.9,6.2-20,10.3
			c0,0-4.3,2.5-5.9,3.4c-0.2-1.1-1.4-6.7-1.4-6.7c-2.4-11.4-4.3-24.4-5.7-38.8l0-0.3l-13.2-7.8l0.1,1c0.7,8.9,1.5,16.7,2.5,23.1
			c1.7,11.1,4.1,22.2,6.9,32.8c0,0,0.7,2.7,0.9,3.3c-0.5,0.3-2.7,2-2.7,2l-2.5,1.9l0.4,0.9c12.4-2.9,26.7-8.7,35.2-12.8
			c35.7-19.6,66.8-21.7,78.5-21.7c11.7,0,42.8,2.2,78.4,21.8c8.4,4.1,22.6,9.8,35,12.8L369.6,362.6z M211.9,328.5
			c-4.7,1.2-9.2,2.5-13.5,3.9c0,0-4.5,1.5-5.4,1.8c-0.2-0.9-1-5.6-1-5.6c-5-29-6.3-61-6.3-85.8c0-3.8,0-7.5,0.1-10.9
			c0,0,0.1-3.6,0.1-4.8c0.8,0,23.4,0,24.7,0c0,0.8-0.1,5-0.1,5c-0.1,4.4-0.1,8.7-0.1,13c0,29.3,1.7,55.5,5.2,78c0,0,0.6,3.7,0.7,4.4
			C215.5,327.6,211.9,328.5,211.9,328.5 M269.4,318.9c0,0-0.3,3.9-0.4,4.7c-0.8,0-4.7-0.2-4.7-0.2l-8.5-0.2l-1,0c-0.1,0-0.6,0-0.6,0
			c0,0-3.7,0-5,0c0-0.8,0.2-49.2,0.2-49.2l-9.1-6l0,0.9c0.2,19.8,0.8,36.2,1.7,50c0,0,0.3,3.7,0.3,4.8c-0.8,0.1-4.8,0.4-4.8,0.4
			l-10.6,1.3c0,0-4.2,0.6-5,0.8c-0.1-0.8-0.6-5.1-0.6-5.1c-2.5-21.3-3.7-45.8-3.7-72.8c0-5.4,0.1-10.9,0.1-16.5c0,0,0.1-3.7,0.1-4.8
			c0.8,0,17.7,0,17.7,0s4.2,0,5,0c0,0.8-0.2,9.4-0.2,9.4l9,6.3c0,0,0-14.9,0-15.7c0.8,0,21.3,0,22.6,0c0,0.8,0.1,4.8,0.1,4.8
			c0.1,4.5,0.1,9.5,0.1,14.8C272.1,267.2,271.5,293.1,269.4,318.9 M318.7,334.2c-0.9-0.3-5.4-1.8-5.4-1.8
			c-10.7-3.6-21.8-6.1-33.8-7.6c0,0-4-0.5-4.8-0.6c0.1-0.8,0.5-4.8,0.5-4.8c2.8-25.9,4.3-55.3,4.5-87.4c0,0,0-4.1,0-4.9
			c0.8,0,46.2,0.1,47,0.1c0,0.8,0,5.5,0,5.9c0,7.5-0.2,15.5-0.5,25.2c0,0-0.2,6.7-0.3,8.1c-1.2-0.7-16.6-9.3-16.6-9.3
			c-1.4-0.8-2.1-1.2-2.6-1.4c0-0.5,0.1-4.2,0.1-4.2l0-2.4l-5.4,0l0,0.5c-0.5,22-1.6,40.3-3.2,56l0,0.5l4.4,0.8l0.1-0.5l1.8-16.9
			l-0.5-0.1c-1-0.1-1.5-0.2-1.9-0.2c0.1-0.8,0.5-7.2,0.5-7.2s0.6-9,0.7-10.4c0.8,0.1,4.4,0.4,4.4,0.4l13.2,1.2c0,0,3.6,0.4,4.7,0.5
			c0,0.8-0.3,4.7-0.3,4.7c-1.2,18.8-3.2,35.8-5.9,50.3C319.7,328.6,318.9,333.2,318.7,334.2"/>
		<path fill="#061922" d="M271.9,227.1c-1.3,0-21.7,0-22.6,0c0,0.8,0,15.7,0,15.7l-9-6.3c0,0,0.2-8.6,0.2-9.4c-0.8,0-5,0-5,0
			s-16.9,0-17.7,0c0,1.1-0.1,4.8-0.1,4.8c-0.1,5.6-0.1,11.1-0.1,16.5c0,27,1.3,51.4,3.7,72.8c0,0,0.5,4.2,0.6,5.1
			c0.8-0.1,5-0.8,5-0.8l10.6-1.3c0,0,4-0.4,4.8-0.4c-0.1-1.1-0.3-4.8-0.3-4.8c-1-13.8-1.5-30.1-1.7-50l0-0.9l9.1,6
			c0,0-0.2,48.4-0.2,49.2c1.3,0,5,0,5,0s0.5,0,0.6,0l1,0l8.5,0.2c0,0,3.9,0.2,4.7,0.2c0.1-0.8,0.4-4.7,0.4-4.7
			c2.2-25.8,2.7-51.7,2.7-72.1c0-5.3,0-10.3-0.1-14.8C272,231.9,271.9,227.9,271.9,227.1 M264.5,318.5c-3.1-0.1-6-0.2-8.7-0.2
			c-0.5,0-1.1-0.1-1.6-0.1c0.1-15.4,0.2-32.2,0.2-46.9l-19-12.5c0.1,18.5,0.4,40.2,1.8,60.4c-3.4,0.3-7.1,0.8-10.8,1.4
			c-3.9-33.3-3.9-68.1-3.5-88.6l12.9,0c-0.1,2.3-0.1,4.7-0.2,7.1l18.9,13.2c0-6.9,0-13.7-0.1-20.3l12.8,0
			C267.4,252.4,267.2,285.2,264.5,318.5"/>
		<path fill="#061922" d="M210.4,245c0-4.3,0-8.6,0.1-13c0,0,0.1-4.2,0.1-5c-1.3,0-23.9,0-24.7,0c0,1.3-0.1,4.8-0.1,4.8
			c-0.1,3.4-0.1,7.1-0.1,10.9c0,24.7,1.3,56.8,6.3,85.8c0,0,0.8,4.7,1,5.6c0.9-0.3,5.4-1.8,5.4-1.8c4.3-1.4,8.9-2.7,13.5-3.9
			c0,0,3.6-0.9,4.4-1.1c-0.1-0.7-0.7-4.4-0.7-4.4C212.2,300.4,210.4,274.2,210.4,245 M196.9,327.7c-5.9-34.1-6.5-71.9-6.1-95.8
			l14.9,0c-0.4,22.5-0.1,57.9,5.1,91.8C206.3,324.8,201.6,326.1,196.9,327.7"/>
		<path fill="#061922" d="M325.9,273.6c-1.1-0.1-4.7-0.5-4.7-0.5l-13.2-1.2c0,0-3.6-0.3-4.4-0.4c-0.1,1.3-0.7,10.4-0.7,10.4
			s-0.5,6.4-0.5,7.2c0.4,0,1,0.1,1.9,0.2l0.5,0.1l-1.8,16.9l-0.1,0.5l-4.4-0.8l0-0.5c1.6-15.7,2.6-34.1,3.2-56l0-0.5l5.4,0l0,2.4
			c0,0-0.1,3.7-0.1,4.2c0.4,0.2,1.2,0.6,2.6,1.4c0,0,15.5,8.7,16.6,9.3c0-1.3,0.3-8.1,0.3-8.1c0.3-9.6,0.5-17.7,0.5-25.2
			c0-0.3,0-5,0-5.9c-0.8,0-46.2-0.1-47-0.1c0,0.8,0,4.9,0,4.9c-0.3,32.1-1.8,61.5-4.5,87.4c0,0-0.4,4-0.5,4.8
			c0.8,0.1,4.8,0.6,4.8,0.6c12,1.5,23,4,33.8,7.6c0,0,4.5,1.5,5.4,1.8c0.2-0.9,1-5.6,1-5.6c2.7-14.6,4.7-31.5,5.9-50.3
			C325.6,278.3,325.9,274.4,325.9,273.6 M314.9,327.7c-12.7-4.2-24.4-6.5-34.7-7.9c3.6-33.7,4.4-67.1,4.6-87.9l37.3,0
			c0,7.7-0.1,15.9-0.5,26l-9.6-5.4c0-2.8,0.1-6.1,0.1-8.7l-15.2,0c-0.3,15.2-1,41.5-3.8,66c4.5,0.6,9.1,1.5,14,2.6
			c1.4-10.1,2.3-19.4,3-27.6l-3-0.3c0.2-2.6,0.4-5.3,0.5-7.9c4.2,0.3,8.6,0.7,13.1,1.2C319.7,294.1,317.9,311.4,314.9,327.7"/>
		<path fill="#FFFFFF" d="M205.6,231.9l-14.9,0c-0.4,23.9,0.2,61.7,6.1,95.8c4.7-1.6,9.4-2.9,13.9-4
			C205.6,289.8,205.2,254.4,205.6,231.9"/>
		<path fill="#FFFFFF" d="M254.3,232c0,6.6,0,13.4,0.1,20.3L235.5,239c0-2.4,0.1-4.8,0.2-7.1l-12.9,0c-0.4,20.5-0.3,55.3,3.5,88.6
			c3.8-0.6,7.4-1.1,10.8-1.4c-1.4-20.2-1.7-41.9-1.8-60.4l19,12.5c0,14.7,0,31.5-0.2,46.9c0.5,0,1.1,0.1,1.6,0.1
			c2.7,0,5.6,0,8.7,0.2c2.8-33.3,2.9-66.1,2.6-86.5L254.3,232z"/>
		<path fill="#FFFFFF" d="M307.1,284.6l3,0.3c-0.7,8.3-1.7,17.5-3,27.6c-4.8-1.1-9.5-2-14-2.6c2.8-24.5,3.5-50.8,3.8-66l15.2,0
			c0,2.6-0.1,5.9-0.1,8.7l9.6,5.4c0.3-10,0.5-18.2,0.5-26l-37.3,0c-0.2,20.8-1,54.1-4.6,87.9c10.4,1.3,22.1,3.6,34.7,7.9
			c3-16.4,4.8-33.6,5.8-49.8c-4.5-0.5-8.8-0.9-13.1-1.2C307.5,279.3,307.3,282,307.1,284.6"/>
		<polygon fill="#734E9F" points="141.1,437.3 140.6,428.5 140.5,427.8 128.3,441.7 128.4,442.4 129.2,456.9 129.2,457.5 
			141.4,443.8 141.4,443.1 		"/>
		<path fill="#734E9F" d="M122.7,455.2l-0.4-5.9l-0.1-0.7l-9.9,11.3c-1,1.1-1.5,2.5-1.4,4c0.1,1.5,0.7,2.8,1.9,3.8
			c2.3,2,5.8,1.8,7.8-0.5l2.6-2.9l0-0.7L122.7,455.2z"/>
		<polygon fill="#734E9F" points="158.9,407.7 158.8,407 146.6,420.9 146.7,421.6 147.5,436.2 147.5,436.9 159.7,423.1 159.7,422.4 
					"/>
		<path fill="#734E9F" d="M167.2,397.6l-0.2,0l-2.1,2.4l0.1,0.7l0.4,6l0.5,8.7l0,0.7l9.3-10.5l0-0.1c0.1-0.5,0.1-1,0.1-1.5
			c0-2.1-0.7-3.8-2.1-5C171.6,397.6,169.5,397.1,167.2,397.6"/>
		<path fill="#909291" d="M231.8,337.3c-7,1.2-14.2,2.8-21.1,4.9c-10.1,6.9-19,11.2-20.6,12c-7.8,3.7-22.1,10.6-36.1,13.4
			c1.4,1.2,50.7,45.1,52.1,46.3c0.6-7.1,2.1-15,4.9-24.3c-1.1-4.1-1.7-8.3-1.7-12.5V377C209.2,360.6,217.8,345.7,231.8,337.3"/>
		<path fill="#909291" d="M300.2,342.3c-6.6-2.1-13.4-3.6-20-4.8c13.7,8.5,22.2,23.3,22.2,39.6v0c0,4.8-0.7,9.4-2.2,14
			c2.4,8.6,3.9,16.3,4.4,22.9c1.4-1.2,50.8-45,52.2-46.2c-14-2.8-28.3-9.7-36.1-13.5C319,353.5,310.1,349.1,300.2,342.3"/>
		<path fill="#734E9F" d="M344.4,397.8c-2.3-0.5-4.5-0.1-6,1.3c-1.7,1.5-2.4,3.9-2,6.5l0,0.1l9.2,10.5l0.1-0.7l0.2-2.9l0.7-11.7
			l0-0.7c-1.3-1.5-2.1-2.4-2.1-2.4L344.4,397.8z"/>
		<path fill="#734E9F" d="M388.2,463.8l0,0.7l2.6,2.9c2,2.3,5.5,2.5,7.8,0.5c1.1-1,1.8-2.3,1.9-3.8c0-0.1,0-0.2,0-0.4
			c0-1.4-0.5-2.6-1.4-3.7c0,0-4-4.6-9.9-11.3l0,0.7L388.2,463.8z"/>
		<path fill="#734E9F" d="M351.8,422.5l-0.1,0.7l12.2,13.8l0-0.7l0.4-7.3l0.4-7.3l0-0.7c-4.5-5.1-8.7-10-12.1-13.9l0,0.7
			L351.8,422.5z"/>
		<path fill="#734E9F" d="M370.4,438.1l-0.3,5.1l0,0.7l12.2,13.8l0-0.7l0.7-11.4l0.2-3.1l0-0.7c-3.8-4.4-8-9.1-12.1-13.9l-0.1,0.7
			L370.4,438.1z"/>
	</g>
</g>
</svg>
