<?xml version="1.0" encoding="utf-8"?>
<!-- Generator: Adobe Illustrator 18.0.0, SVG Export Plug-In . SVG Version: 6.00 Build 0)  -->
<!DOCTYPE svg PUBLIC "-//W3C//DTD SVG 1.1//EN" "http://www.w3.org/Graphics/SVG/1.1/DTD/svg11.dtd">
<svg version="1.1" xmlns="http://www.w3.org/2000/svg" xmlns:xlink="http://www.w3.org/1999/xlink" x="0px" y="0px" width="512px"
	 height="512px" viewBox="0 0 512 512" enable-background="new 0 0 512 512" xml:space="preserve">
<g id="white_block">
	<rect opacity="0" fill="#FFFFFF" width="512" height="512"/>
</g>
<g id="Logos">
	<g>
		<polygon fill-rule="evenodd" clip-rule="evenodd" fill="#FFFFFF" points="375.6,53.3 349.3,99.9 344.7,137.1 297.9,220.5 
			236.5,220.5 282.3,139.6 282.3,53.3 234.8,53.3 209.6,99.5 205.3,137.1 138.5,256.1 149.8,284.2 191.3,284.2 172.4,332.1 
			136.9,293.8 141.1,350 79.7,352.6 128.6,387 93.8,438.8 149.9,420.5 173.1,476 190.7,415.5 253.3,431.6 212.9,384.9 262.7,343.8 
			211.3,346.9 266.9,284.2 340,284.2 421,140.6 421,53.3 		"/>
		<polygon fill="none" stroke="#FFFFFF" stroke-width="2.06" points="375.6,53.3 349.3,99.9 344.7,137.1 297.9,220.5 236.5,220.5 
			282.3,139.6 282.3,53.3 234.8,53.3 209.6,99.5 205.3,137.1 138.5,256.1 149.8,284.2 191.3,284.2 172.4,332.1 136.9,293.8 
			141.1,350 79.7,352.6 128.6,387 93.8,438.8 149.9,420.5 173.1,476 190.7,415.5 253.3,431.6 212.9,384.9 262.7,343.8 211.3,346.9 
			266.9,284.2 340,284.2 421,140.6 421,53.3 		"/>
		<polygon fill-rule="evenodd" clip-rule="evenodd" points="375.6,53.3 349.3,99.9 344.7,137.1 297.9,220.5 236.5,220.5 
			282.3,139.6 282.3,53.3 234.8,53.3 209.6,99.5 205.3,137.1 138.5,256.1 149.8,284.2 191.3,284.2 172.4,332.1 136.9,293.8 
			141.1,350 79.7,352.6 128.6,387 93.8,438.8 149.9,420.5 173.1,476 190.7,415.5 253.3,431.6 212.9,384.9 262.7,343.8 211.3,346.9 
			266.9,284.2 340,284.2 421,140.6 421,53.3 		"/>
		<polygon fill-rule="evenodd" clip-rule="evenodd" fill="#C4CED4" points="365.7,94.9 387.9,94.9 403.3,65.8 382,65.8 		"/>
		<polygon fill="none" stroke="#000000" stroke-width="0.151" points="365.7,94.9 387.9,94.9 403.3,65.8 382,65.8 		"/>
		<polygon fill-rule="evenodd" clip-rule="evenodd" fill="#C4CED4" points="226.2,94.9 250.1,94.8 265.3,65.8 242.3,65.8 		"/>
		<polygon fill="none" stroke="#000000" stroke-width="0.151" points="226.2,94.9 250.1,94.8 265.3,65.8 242.3,65.8 		"/>
		<polygon fill-rule="evenodd" clip-rule="evenodd" fill="#C4CED4" points="220.6,131.4 242.1,131.5 244.1,106.6 223.2,106.6 		"/>
		<polygon fill="none" stroke="#000000" stroke-width="0.151" points="220.6,131.4 242.1,131.5 244.1,106.6 223.2,106.6 		"/>
		<polygon fill-rule="evenodd" clip-rule="evenodd" fill="#C4CED4" points="359.6,131.4 381.1,131.5 383.1,106.6 362.3,106.6 		"/>
		<polygon fill="none" stroke="#000000" stroke-width="0.151" points="359.6,131.4 381.1,131.5 383.1,106.6 362.3,106.6 		"/>
		<path fill-rule="evenodd" clip-rule="evenodd" fill="#C4CED4" d="M355,146.3l-48.6,85.5H189.8l48.6-85.5h-22.8L157,249.8h65
			L172.7,360l-20.4-22.7l1.1,26.7l-32.9,1.8l26.5,18.6l-18.9,28.1l30.4-9.9l12.5,30.1l9.6-32.8l33.9,8.7l-21.9-25.3l27-22.3
			l-41.6,1.8l76.7-113.2h65.1l57.6-103.5H355z M164.3,391c-5.5,0-9.9-4.4-9.9-9.9c0-5.5,4.4-9.9,9.9-9.9c5.5,0,9.9,4.4,9.9,9.9
			C174.2,386.6,169.7,391,164.3,391"/>
		<path fill="none" stroke="#000000" stroke-width="0.151" d="M355,146.3l-48.6,85.5H189.8l48.6-85.5h-22.8L157,249.8h65L172.7,360
			l-20.4-22.7l1.1,26.7l-32.9,1.8l26.5,18.6l-18.9,28.1l30.4-9.9l12.5,30.1l9.6-32.8l33.9,8.7l-21.9-25.3l27-22.3l-41.6,1.8
			l76.7-113.2h65.1l57.6-103.5H355z M164.3,391c-5.5,0-9.9-4.4-9.9-9.9c0-5.5,4.4-9.9,9.9-9.9c5.5,0,9.9,4.4,9.9,9.9
			C174.2,386.6,169.7,391,164.3,391z"/>
	</g>
</g>
</svg>
