<?xml version="1.0" encoding="utf-8"?>
<!-- Generator: Adobe Illustrator 18.0.0, SVG Export Plug-In . SVG Version: 6.00 Build 0)  -->
<!DOCTYPE svg PUBLIC "-//W3C//DTD SVG 1.1//EN" "http://www.w3.org/Graphics/SVG/1.1/DTD/svg11.dtd">
<svg version="1.1" xmlns="http://www.w3.org/2000/svg" xmlns:xlink="http://www.w3.org/1999/xlink" x="0px" y="0px" width="512px"
	 height="512px" viewBox="0 0 512 512" enable-background="new 0 0 512 512" xml:space="preserve">
<g id="white_block">
	<rect opacity="0" fill="#FFFFFF" width="512" height="512"/>
</g>
<g id="Logos">
	<g>
		<path fill="#CE1141" d="M463.5,256c0,114.6-92.9,207.5-207.5,207.5c-114.6,0-207.5-92.9-207.5-207.5
			c0-114.6,92.9-207.5,207.5-207.5C370.6,48.5,463.5,141.4,463.5,256"/>
		<path fill="#061922" d="M256,452.7c-52.1,0-101.2-20.2-138.2-56.8c-37.1-36.7-57.8-85.6-58.4-137.7
			c-0.6-52.5,19.3-102.2,56.1-139.7c36.7-37.6,85.9-58.6,138.4-59.1c0.7,0,1.5,0,2.2,0c52.1,0,101.2,20.2,138.2,56.8
			c37.1,36.7,57.8,85.6,58.4,137.7c0.6,52.5-19.3,102.2-56.1,139.7c-36.7,37.6-85.9,58.6-138.5,59.1
			C257.4,452.7,256.7,452.7,256,452.7"/>
		<g>
			<path fill="#FFFFFF" d="M275.3,120.9l-6.8,6.9h-19.2l-6.9-6.9v-38l6.9-6.9h19.1l6.9,6.9V120.9z M255.4,87.3l-2.1,2.1v25.1
				l2.1,2.1h7l2.1-2.1V89.4l-2.1-2.1H255.4z"/>
			<path fill="#FFFFFF" d="M386.4,210.5l-9.1-3.2l-8.3-17.3l3.2-9.2l34.3-16.4l9.2,3.2l8.2,17.2l-3.2,9.2L386.4,210.5z M408.1,178
				l-2.8-1l-22.6,10.8l-1,2.8l3,6.3l2.8,1l22.6-10.8l1-2.8L408.1,178z"/>
			<path fill="#FFFFFF" d="M173.7,149.6l0.2,9.7l-13.4,13.8l-9.7,0.1l-27.2-26.5l-0.1-9.7l13.3-13.7l9.7-0.1L173.7,149.6z
				 M135.7,140.5l0,2.9l18,17.5l2.9,0l4.9-5l0-2.9l-18-17.5l-2.9,0L135.7,140.5z"/>
			<polygon fill="#FFFFFF" points="345.8,98 325.7,145.6 317.4,142 315.2,108.3 303.4,136.1 294.4,132.3 314.6,84.7 325.7,89.5 
				325.9,119.1 336.5,94 			"/>
			<path fill="#FFFFFF" d="M212.8,108.8l-2.3,8l14.4,14.2l-10.1,4.4l-13.4-12.8l-4.9,2.2l6.8,15.7l-9.2,4L173.6,97l22.1-9.6l9.4,3.8
				L212.8,108.8z M191.7,113.5l8.2-3.6c0.1,0,1.1-2.7,1.1-2.7l-2.8-6.5l-2.7-1.1l-8.2,3.5L191.7,113.5z"/>
			<polygon fill="#FFFFFF" points="386.3,144.3 379.6,137.7 351.1,166.7 343.4,159.1 371.9,130.1 365.1,123.5 372.9,115.5 
				394.1,136.4 			"/>
			<polygon fill="#FFFFFF" points="110.4,173.8 106.6,182.4 143.7,199 139.2,208.9 102.1,192.3 98.3,200.9 88.1,196.4 100.2,169.3 
							"/>
			<path fill="#FFFFFF" d="M393.9,305.9l-5.1,9.7l-3.6-1.9l-1,1.9l-3.2,6.1l0.9,2.8l5.1,2.7l-0.6-0.4l2.8-0.8l6.1-11.6l9.5-2.9
				l15.5,8.2l2.9,9.3l-8.9,17c0,0-9.4,2.9-9.4,2.8l-7.8-4.1l5.1-9.6l3.9,2.1l4.2-8l-0.9-2.8l-4.1-2.2l-2.8,0.9l-6,11.3l-9.6,2.9
				l0,0.1l-15.5-8.2l-3-9.5l8.9-17l9.5-2.7L393.9,305.9z"/>
			<path fill="#FFFFFF" d="M128.1,341.5l-8.2-1.7l-13.2,15.4l-5.1-9.7l11.9-14.3l-2.5-4.7l-15.1,7.9l-4.6-8.9l45.9-23.8l11.1,21.4
				l-3.1,9.6L128.1,341.5z M121.9,320.7l4.1,7.9c0,0.1,2.8,0.9,2.8,0.9l6.3-3.3l0.9-2.8l-4.1-7.9L121.9,320.7z"/>
			<path fill="#FFFFFF" d="M195.9,404l-7.5,17.9l-9-3.7l19.9-47.8l21.9,9.1l3.6,9.4l-7.2,17.4l-7.2,3.8L195.9,404z M199.7,394.7
				l7.3,3c0.1,0,2.7-1.1,2.7-1.1l2.7-6.5l-1.1-2.7l-7.3-3L199.7,394.7z"/>
			<polygon fill="#FFFFFF" points="274.3,395.1 264.9,395.2 265.3,435.8 254.5,436 254,395.3 244.6,395.4 244.5,384.3 274.2,384 			
				"/>
			<path fill="#FFFFFF" d="M334.4,412l-3.9,8.9l-17.9,6.8l-8.9-4l-13.5-35.5l4-8.9l17.9-6.8l8.9,4L334.4,412z M303.9,387.6l-1.2,2.7
				l8.9,23.4l2.6,1.2l6.5-2.5l1.2-2.7l-8.9-23.4l-2.7-1.2L303.9,387.6z"/>
			<path fill="#FFFFFF" d="M372.3,361.9l0.1,8.4l17.9,9.4l-8.3,7.1l-16.5-8.4l-4.1,3.5l11.1,13l-7.6,6.5l-33.5-39.5l18.4-15.6
				l10.1,0.9L372.3,361.9z M353.5,372.5l6.8-5.8c0.1,0,0.2-2.9,0.2-2.9l-4.6-5.4l-2.9-0.2l-6.8,5.8L353.5,372.5z"/>
			<path fill="#FFFFFF" d="M153.1,404.4l-8.1-7.5l3.8-7.6l-11.1-10.2l-7.3,4.4l-8.1-7.5l46.8-28l8.1,7.4L153.1,404.4z M153.4,379.8
				l7.1-14.3l-13.7,8.2L153.4,379.8z"/>
		</g>
		<g>
			<path fill="#A1A1A4" d="M296.3,360c0.2,0.2,0.3,0.5,0.4,0.5c0.6,0,1.7-0.2,1.7-0.2l1.2-0.5l3.3-1.3c0,0,8.1-3.9,8.2-3.9
				c0,0,1.4-0.8,1.4-0.8l0.7-0.3l0.9-0.6l1.4-0.9l1.7-0.9l2.2-1.4l3.8-2.7l1.9-1.5l2.7-2l2.5-1.8l1.2-0.9l1.6-1.5l1.7-1.7l2.7-2.9
				l3.2-3l3.7-4.2l2-2.7l0.7-1l2.1-2.7l4.2-6l1.2-2l2.8-5.5l1.6-3l2.7-5.5l1.5-3.3l1.6-5.1c0,0,1.9-6.8,2.9-10.3
				c0.1-0.4,0.2-0.8-0.1-1.1c-0.6-0.8-1-1.8-1.6-2.8c-0.3-0.5-0.7-1-1-1.4c-0.3-0.4-1-1.3-1.3-1.6c-0.3-0.3-0.7-0.6-1-0.9
				c-0.9-0.8-1.6-1.6-2.4-2.2c-0.3-0.2-0.7-0.4-1-0.7c-2.3-1.8-4.6-3.2-7.2-4.3c-1.1-0.5-2.2-0.9-3.3-1.3c-0.8-0.3-2.1-0.6-2.9-0.7
				c-0.5-0.1-0.9-0.1-1.2,0.2c-0.4,0.2-0.4,0.8-0.4,1.3c-0.2,1.4-0.2,3-0.3,4.4c-0.1,1.5-0.2,2.9-0.4,4.4c-0.1,1.3-0.2,2.7-0.3,4
				c-0.2,1.7-0.4,3.5-0.8,5.2c-0.6,3.2-1.3,6.5-2,9.7c-0.2,0.9-0.3,1.8-0.7,2.6c-0.6,1.4-1,2.8-1.3,4.2c-0.6,3.1-1.7,5.9-2.8,8.9
				c-0.9,2.4-1.7,4.8-3,6.9c-0.1,0.1-0.1,0.3-0.2,0.5c-0.6,1.5-1.2,3-1.9,4.5c-0.4,1-1,1.8-1.4,2.8c-0.5,1.2-1.2,2.3-1.9,3.4
				c-1.1,1.7-2.3,3.4-3.3,5.3c-0.7,1.3-1.5,2.5-2.3,3.7c-0.2,0.3-0.4,0.6-0.6,0.9c-0.7,1-1.3,2-2,2.9c-1.4,1.8-2.9,3.6-4.4,5.3
				c-0.9,1.1-2,2.1-3,3.2c-0.9,0.9-1.8,1.9-2.7,2.8c-0.2,0.2-0.4,0.4-0.6,0.5c-0.5,0.5-1.1,0.9-1.6,1.4c-1.2,1.2-2.4,2.3-3.8,3.2
				c-0.6,0.4-1.2,0.8-1.7,1.2C299.8,358.1,298.2,359,296.3,360"/>
			<path fill="#A1A1A4" d="M369,273c0.1,0,0.1-0.1,0.1-0.2c0-0.3,0.1-0.8,0.1-0.8l0.8-7.1l0.5-6.6l0-6.6l0-1l-0.8-7.4
				c0,0-0.9-6.7-1.6-10.2c-0.3-1.2-1-1.9-2-2.3c-0.3-0.2-0.7-0.3-1.1-0.4c-0.7-0.2-1.5-0.6-2.3-0.8c-1.7-0.4-3.3-1-5-1.3
				c-2-0.3-4-0.6-6.1-0.7c-1.7-0.2-3.3-0.2-5-0.2c-1.3,0-2.1,0-3.5,0c-0.7,0-1.5,0-1.8,0.5c-0.3,0.4-0.1,1.2,0,2
				c0.3,1.6,0.5,2.4,0.8,4.1c0.8,4.8,1.7,9.6,1.8,14.4c0.1,2.2,0.2,4.4,0.3,6.5c0,0.6,0,1,0,1.7c0,0.4,0.1,0.8,0.3,1.1
				c0.2,0.3,0.5,0.4,0.9,0.5c0.4,0.1,0.8,0.2,1.2,0.3c0.4,0.1,1.2,0.3,1.7,0.4c1.9,0.6,4,1.3,5.9,2.1c1.3,0.5,2.6,1.3,3.9,2
				c0.2,0.1,0.3,0.2,0.4,0.3c0.7,0.6,1.5,1.1,2.2,1.7c1.8,1.3,3.6,2.5,4.9,4.3c0.3,0.3,0.6,0.6,0.9,0.9c0.5,0.5,1.4,2.1,2.1,2.9
				C368.8,272.9,368.9,273,369,273"/>
			<path fill="#A1A1A4" d="M319.1,193.5c0.7,0,1.3-0.1,1.8-0.1c0.4,0,0.7-0.1,0.9-0.5c0.2-0.4-0.1-0.8-0.2-1
				c-0.1-0.3-1.4-2.6-1.4-2.6l-1.2-1.9l-5.2-7.6l-1.1-1.3l-1-1.4l-1.7-1.9l-4.3-4.7l-1.8-1.8l-6.6-6.1l-5.4-4.2l-1.9-1l-6.3-3.9
				l-4.4-2.4l-0.9-0.4l-3.6-1.3l-5.4-2l-0.4-0.1l-1.7-0.4l-0.5-0.1l-1.5-0.4l-3.2-0.6l-1.5-0.1l-2.8-0.5l-3.4-0.2l-1.2-0.1l-2.1,0
				l-3.6,0.1l-3.5,0.4l-2.7,0.1l-2.4,0.3l-2.5,0.5l-1.9,0.6l-3,0.6l-0.7,0l-2.8,1l-1.7,0.5l-1,0.6l-2.5,0.7l-1.2,0.7l-1.5,0.6
				l-3.7,1.5l-4.7,1.8l-1.5,0.7l-3.3,1.8l-2.8,1.9l-2.7,1.4l-1,0.6l-2.9,1.5l-0.5,0.3l-3.3,2.6l-2.7,1.9l-0.5,0.4l-3.1,2.4l-1.1,0.9
				c0,0-1.7,1.4-1.7,1.6l1.2-0.3c0,0,2.1-0.8,2.2-0.8c0,0,0.4,0,0.4,0l3.1-1.2h0.4l3.4-1.3c0,0,1.8-0.6,1.8-0.5c0,0,1.8-0.7,1.8-0.7
				l2.5-0.9l6.1-2.3l0.6,0l3.1-1.1l2.5-1l0.3,0.3c0,0,4.7,0.1,4.8,0.1c0,0,3,0.2,3,0.2l0.1,0.1l6.1,0.5l0.1,0l8.4,0.4l0,0.2l3,2.6
				l0.2,0l3.1,2.9l0.3-0.1l4.2,0.1l0.2-0.2l10.5,0.6l0.1,0.2l4.7,2.7l0.2,0l8.3,4l0.1,0.4l4.7-1.8l6.9,2.3l1.2,1.9l2.5,0.2l2.4,2.8
				l0.3,0l2,2.2l0,0.1h0.3l5.4,1.2l2,3.1l5,1.8c0,0,5.4,1.4,8.2,1.7C314.3,193.8,317.2,193.6,319.1,193.5"/>
			<path fill="#A1A1A4" d="M366.1,225.4c-0.2-0.8-0.7-2.4-0.7-2.4l-0.3-0.9l-0.3-1.1l-0.9-2.7l-0.8-2.3l-2.6-5.8l-1.2-2.8l-1.5-3.3
				l-1.8-2.9l-0.4-0.8l-1.2-2.4l-1.1-1.8l-0.5-0.6l-7.5-10.2c0,0-0.7-0.9-1.1-1.3c-0.2-0.2-0.2-0.4-0.5-0.4c0,0,0,0-0.1,0
				c0,0-2.3,3.8-3.3,4.9c-1,1.1-2.9,2.8-2.9,2.8s-1.6,1.3-1.9,1.6c-0.3,0.2-1.5,1-1.5,1l-1.7,1c0,0-1.3,0.6-1.5,0.7
				c-0.2,0.1-0.5,0.2-0.6,0.3c-0.1,0.2-0.2,0.3-0.1,0.6c0.1,0.2,0.1,0.4,0.2,0.6c0.7,1.5,1.3,3,2.1,4.4c1.1,2.1,1.9,4.4,2.8,6.6
				c0.3,0.7,0.6,1.5,0.9,2.2c0.6,1.9,1.2,3.9,1.9,5.9c0.3,0.9,0.6,1.7,0.8,2.6c0.2,0.9,0.4,1.8,0.7,2.6c0.2,0.6,0.5,0.8,1.1,0.8
				c0.6,0,1.1,0,1.7-0.1c2-0.1,4-0.1,6.1-0.2c0.6,0,4.6,0.4,4.6,0.4s1.4,0.1,2.1,0.3c1.5,0.3,3.1,0.6,4.6,0.9
				c1.3,0.3,2.6,0.7,3.8,1.3c0.6,0.3,1.2,0.4,1.8,0.6c0.2,0.1,0.5,0.1,0.6,0.1C366,225.8,366.1,225.5,366.1,225.4"/>
			<path fill="#A1A1A4" d="M339.7,180.4c-0.1-0.3-0.6-1.1-0.6-1.1l-0.4-0.7l-1.1-1.3l-0.7-1.1l-1.4-1.4c0,0-0.3-0.3-0.5-0.4
				c-2.4-2-7.2-5.8-7.2-5.9c0,0-1.3-1.1-1.3-1.1l-2.5-2.2l-12.5-7.5l-9.9-4.7c0,0-5.2-2-5.2-2c0,0-1.9-0.7-1.9-0.7
				c0,0-6.4-2.2-6.4-2.2l-4.5-1.2l-4.4-1l-0.7-0.1l-0.4,0.4l0.2,0.2c0,0,0.4,0.2,0.7,0.3c1.4,0.5,2.8,1,4.1,1.6
				c0.9,0.4,1.7,0.8,2.7,1.1c0.6,0.2,1.2,0.4,1.8,0.7c2.1,1.2,4.2,2.4,6.3,3.7c1.2,0.7,2.4,1.6,3.5,2.6c0.8,0.7,1.7,1.5,2.6,2
				c0.4,0.2,0.8,0.6,1.2,1c0.2,0.2,0.4,0.4,0.6,0.5c1.2,1,2.5,1.9,3.6,3.1c1.2,1.2,2.4,2.4,3.6,3.6c1.2,1.1,2.3,2.2,3.3,3.5
				c0.8,1.1,1.7,2.1,2.6,3.1c1.8,1.8,3.2,3.9,4.8,5.8c0.2,0.2,0.3,0.5,0.5,0.8c1.1,1.7,2,3.4,3.3,5c0.9,1.1,1.7,2.2,2.3,3.5
				c0.4,0.8,0.9,1.5,1.4,2.2c0.3,0.4,0.7,0.6,1,0.6c0.2,0,0.7-0.2,0.7-0.2l0.9-0.4c0,0,1.2-0.5,1.6-0.7c0.4-0.2,1.2-0.6,1.5-0.9
				c0.3-0.3,1.5-1.1,2.1-1.7c0.7-0.6,2-2.2,2-2.2l1-1.3l1.7-2.8C339.4,181.3,339.7,180.7,339.7,180.4"/>
			<path fill="#A1A1A4" d="M334.5,222c-0.7-2.1-1.2-4-1.9-6.1c-0.6-1.7-1.1-3.4-1.9-5c-0.5-1-0.7-2-1.1-3c-0.2-0.5-0.4-1-0.6-1.5
				c-0.9-2.6-2.2-4.7-3.4-7.2c-0.1-0.1-0.1-0.3-0.2-0.5c-0.1-0.2-0.2-0.4-0.5-0.6c-0.3-0.2-0.6-0.1-1.1,0c-1.1,0.1-2.4,0.3-3,0.3
				c-0.5,0-2.6,0.2-4.3,0.3l-0.4-0.1H315h-1l-5.4-0.7c-2-0.3-6.5-1.4-6.5-1.4l-3.3-1.1l-4.1-1.4l-0.3,0.2l-6.3-0.5l-0.2,0.1
				l-3.6-2.7l-0.4,0l-2.2-2l-0.1-0.4l-2.5-0.4l-0.2,0.1l-2-0.7l-0.2-0.2l-4.7,0.3l-4.2-1.7l-14.7,0.8l-0.2-0.2l-2.8,0.2l-0.3,0.2
				l-7.2,0.5l-0.2-0.2l-10.3,5.9l-0.1,0.4l-0.5,0.4l-0.2-0.2l-5.2-0.5l-0.3,0.1l-9.1,0.1l-0.2-0.1l-2.6-0.1L213,193l-9.6,7.4l0,0.2
				l-3.4,2.6l-3.8-1.8l-0.2,0.1l-1.4-0.4c0,0-6.9,1.8-6.8,1.8c0.1,0-6.5-1-6.5-1l-0.4-0.4l-1.2,1.3l-2.6,1.2l-0.1,0.2l-5.2,3.9
				l-7.3,5.3l-8.2,6.1l-3.7,2.7l-0.2,1.6l-1.6,3.6l-0.7,3.1l-1,6.3l-0.6,2.7l-0.2,3.3l-0.9,6.8l-0.4,14.9l0.4,0.9l0.3,4.1
				c0,0,0.1,0.7,0.2,0.7l0,0l18.2-18.9l6-2.4l5-0.3l3-3.5l0.3-0.7l0.4,0.2l8.2-0.9l0.4-0.3h3.1l0.5,0.2l1-1.3l3.7-2.3l3.9-2.7
				l11.1,0.1l0.1,0.2l4.3,0.4l3.4-0.7l6.2-6.3l0.1,0l4.9-4.7l7.4-0.9l0.3-0.2l0.3,0.3l3.8,1.8l0.3-0.3l3.4-0.4l0.2-0.2l3.2-0.5
				l0.3-0.2l3.5,3l0.2-0.2l7.1-0.1l0.6-0.4l5.7,0.3l0.3,0.1l0.9-0.2l0.2-0.3l2.3-1l0.3,0l2.6-1.2l0.2-0.2l2.8-1.1l0.2-0.3l7.8-3
				l0.1-0.1l1.4-0.4l0.3-0.3l0.4,0.4l2.3,1.1l0.7,0l2.5,1.4l0.2-0.2l0.8-0.4l0.1,0l1.3-0.6l0.1-0.1l1.8-0.4l4.7,1.2l1-0.2l0.9,0.6
				l3.4,0.5l3.4,1.3c0,0,1.9-0.1,2-0.1c0,0,0.6,0.4,0.6,0.4l0.5-0.3c0,0,6.6-0.8,9.9-1.1c2.2-0.2,4.3-0.4,6.4-0.6
				c1.2-0.1,2.4-0.2,3.6-0.4C334.4,223,334.7,222.8,334.5,222"/>
			<path fill="#A1A1A4" d="M339.3,255.9c0-0.5-0.1-0.8-0.1-1.2c-0.1-1.3-0.1-2.5-0.2-3.8c0-0.4-0.1-0.8-0.1-1.3
				c-0.1-1.6-0.1-3.2-0.3-4.8c-0.2-2-0.5-4-0.8-6c-0.2-1.5-0.5-3.1-0.8-4.6c-0.3-1.6-0.6-3.1-0.9-4.7c-0.4-1.6-0.7-1.8-2.4-1.6
				c-0.1,0-0.3,0-0.4,0.1c-0.6,0.1-1.5,0.2-2.1,0.3c-3.2,0.4-6.3,0.6-9.5,1l-9.3,3.2l-13.4-0.4l-1.5-0.5l0,0.2l-4,2.9l-0.6,0
				l-3.1,2.9l-0.2,0.4l-8,1.1l-7.3,5.7l-0.8,0l-3.9,2.3l-1.5,0.2l-1.5,1.3l-0.4-0.3l-7.5-0.5l-1.3,1.5l0,0.2l-6.5,7.1l-0.1,0.4
				l-0.2,0.1l-8.3,9.4l-2.3,0l-0.2,0.2l-6.8,1.2l-0.5,0c0,0-0.1,0.3-0.2,0.3c0,0-11.2,6.2-11.2,6.2l-5-0.6l-1.1,0.4l-5-0.3l-4.9,5.3
				l-3,0.6l-1.7-0.1l-1.8,0.7l-1-0.1l0.1,0.2l-6.2,4.8l-0.6,0.1l-9.6,7.5l0.1,0.4l-5.9,14.4l0.2,0.6l-9.8,0.9l-3.2,2.8l-0.3,1
				l4.4,6.1l3.2,4.9l2.8,3.5l4.5,4.9c0,0,0,0.3,0.1,0.4c0.1,0,0.6,0.1,0.6,0.1c0,0,2.7,0.9,2.7,0.9c0,0,3.3,1,3.3,1s0,0.2,0.1,0.2
				c0,0,0.3,0,0.3,0l5.5,2.1l0.4,0l0.3,0.4c0,0,0.5,0,0.5,0c0,0,1.3,0.9,1.3,0.9l2.3-1.3l0.1,0l1-0.7l8.4,2.1l6.2-3.2l13.7-1.4
				l5.6-9c0.9-0.9,2.5-2.5,2.5-2.5l0.2,0c0,0,1.9-1.8,2-1.8c0,0,0-0.2,0-0.2l3.5-3.2l1.6-1.7c0,0,0.4-0.2,0.4-0.2c0,0,1.9-2,1.9-2
				l1.5-1.6l0.4-0.1l-0.4-1.4l1.6-5.8l3.1-0.9l0.1-0.1l0.9-0.2l0-0.5l4.1-6.7l0.4-0.2l1.7-3.3l2.8-1.6l0.4-0.5l0.6,0.1
				c0,0,1.6-1,1.7-0.9h0.2l3-1.3l0.2-0.4l10.1-4.6l0.6-0.1l0.1-0.6l0.4-0.3l1-3.5l3.2-1.4l3.7-0.4l3.3-2.3l4.8,0.2l0.5,0.4l0.2-0.3
				l6.7-3l0-0.9l1.6-3l3.3-0.9l0.2-0.2l4.5-0.9l1.7-2l0.2,0c0,0,1-1,1.1-1c0,0,3.1,0.4,3.1,0.4l0.2,0.1l1.7,0.2l1,0.1
				c0,0,4.5-2.1,6.4-2.8c0.8-0.3,1.6-0.5,2.3-0.8c1-0.4,2.1-0.7,3.1-1.1c0.5-0.2,1-0.3,1.6-0.5l2.1-0.4l2.4-0.4l1.5-0.1
				c0,0,0.7-0.1,1-0.1c0.3,0,0.7,0,1-0.3c0.3-0.3,0.3-0.6,0.3-0.9C339.3,256.4,339.3,256.3,339.3,255.9"/>
			<path fill="#A1A1A4" d="M339.2,264.7c0-0.4,0.1-0.9-0.2-1.3c-0.3-0.3-0.7-0.4-0.9-0.4c-0.2,0-1.4,0.2-1.4,0.2l-1.9,0.3
				c-0.2,0-0.4,0.1-0.6,0.1c-1.2,0.3-2.3,0.5-3.5,0.8c-1.3,0.4-2.6,0.7-3.8,1.2c-1.3,0.6-2.7,1-4,1.6c-0.5,0.2-4.8,2.3-6.7,3.3
				l-2.5,2.7l-0.1,0.6l-0.3-0.1l-1.6,0.1l-0.1,0.1l-5.1,1.7l0.1,0.6l-0.5,0.5l0,0.3l-2.4,4.2l-0.3,0l-0.1,0.4c0,0-0.5,0.8-1,1.7
				l-10.8,6.9l-0.2,0l-1.6,1.4l-1.1,4.6l-1.1,1l-4.2,15.6l0.6,1.8l-6.2,3h-1l-1.2,5.4l-0.2,0.2l-1.5,4.9l0.1,0.3l-0.6,4.3l-0.2,0.3
				l0.2,0.4l-6,9.5l-0.5,0.1l-1.5,2.3l0,0.5c0,0-5.1,7.2-5.1,7.2c0,0-5.4,3.2-5.4,3.2l0.3,0.5c0,0-0.3,2.2-0.3,2.2l0.5,0.8l-0.8,0.2
				l-3.9,2.3l-0.4-0.1l-5.7,3.4l-0.7,1.1c0,0.1,2.2,0.3,2.2,0.3l3.7,0.3l2.5,0.1l2.9,0l1.4,0.1l2.2,0.1l2.2-0.1l8-1l4.8-0.8l3.6-1
				l3.9-1.1l5-2l0.4-0.2l1.4-0.8c0,0,4-2.1,5.8-3.5c3.1-2.3,6.3-4.7,9.1-7.4c1-0.9,1.9-1.8,2.9-2.8c0.9-0.9,1.8-1.8,2.7-2.7
				c0.2-0.2,0.4-0.3,0.4-0.5c0.3-0.7,0.9-1.2,1.4-1.8c0.4-0.4,0.8-0.8,1.1-1.2c0.6-1,1.5-1.7,2.3-2.5c0.6-0.6,1.2-1.3,1.7-2.1
				c1-1.3,1.8-2.7,2.7-4.1c1.2-1.8,2.5-3.6,3.5-5.5c1.1-2,2.2-4.1,3.4-6.1c1-1.7,2-3.5,2.8-5.3c1.2-3,2.6-6,3.7-9.1
				c1.2-3.2,2.2-6.6,3.1-9.9c0.7-2.5,1.1-5.1,2-7.5c0.1-0.3,0.2-0.7,0.2-1c0.3-2,0.7-4.1,1-6.1c0.3-1.9,0.6-3.9,0.9-5.8
				c0.2-1.3,0.4-2.6,0.5-4c0.2-1.8,0.2-3.7,0.3-5.5c0-0.2,0-0.6,0-0.6S339.2,265,339.2,264.7"/>
		</g>
	</g>
</g>
</svg>
