<?xml version="1.0" encoding="utf-8"?>
<!-- Generator: Adobe Illustrator 18.0.0, SVG Export Plug-In . SVG Version: 6.00 Build 0)  -->
<!DOCTYPE svg PUBLIC "-//W3C//DTD SVG 1.1//EN" "http://www.w3.org/Graphics/SVG/1.1/DTD/svg11.dtd">
<svg version="1.1" xmlns="http://www.w3.org/2000/svg" xmlns:xlink="http://www.w3.org/1999/xlink" x="0px" y="0px" width="512px"
	 height="512px" viewBox="0 0 512 512" enable-background="new 0 0 512 512" xml:space="preserve">
<g id="white_block">
	<rect opacity="0" fill="#FFFFFF" width="512" height="512"/>
</g>
<g id="Logos">
	<g>
		<path fill="#B3B2B1" d="M111.4,256c0,12.6,1.6,25.1,4.4,37.3c-5.1-1.1-13-3-13-3l-77.1,17.5l7.2,7.5c5.3,5.5,8.6,13.7,8.9,15.5
			l-2,11.1c-2.9,12.6-6.9,29.9,6.7,43.5c22,20.9,57.5,24.1,81.2,16.5c3-1,17.8-7.5,43.3-19.1c30.1,25.3,68,39.4,107.5,39.4
			c83.8,0,153.9-61.4,165.3-143.3c4.7-1.3,18.7-4.9,18.7-4.9l1.3-2.2l22.4-41.6c0,0-25.8-4.3-29.4-4.9c6.8-10.7,24.8-39,24.8-39
			l-28.8-10.4c0,0-20.3,2.7-26.1,3.5c-29-55.3-85.2-89.5-148.1-89.5C186.4,89.8,111.4,164.4,111.4,256"/>
		<path fill="#002B5C" d="M477.1,234.6l-23.5-3.9l-5.5,2.8l-1.7-2.9l26.3-41.3l-20.5-7.4l-28.6,3.8c-26.2-53.3-81.3-90-145-90
			c-89.1,0-161.3,71.8-161.3,160.3c0,13.4,1.7,26.4,4.8,38.8l-2.1,5.5l-17.1-3.9l-65.6,14.8c6.8,7.1,10.6,17.5,10.5,19.2
			c0,13-12.7,35.1,3,50.8c19.6,18.7,52.6,22.3,75.2,15.1c4.2-1.3,34.5-15.1,45.7-20.3c28.4,25,65.9,40.3,106.9,40.3
			c82.9,0,151.2-62.2,160.3-142.2c7-1.9,13.7-3.6,19.7-5.2L477.1,234.6z"/>
		<path fill="#FBB034" d="M185.5,185.5l5-0.7l16.5-18.8l4.4,5.3l14.7-19.2C210.2,160,196.3,171.4,185.5,185.5 M234.1,148.5l8,10.1
			l11.7-16.2C247,143.9,240.4,145.9,234.1,148.5 M374.7,195.5l0.9-1.7c-5.4-8.4-11.8-16.1-19-22.8l8.1,11.3
			C364.7,182.3,369,187.4,374.7,195.5 M334.8,158.6l11.1,14l5.4-6.3c-11.5-9.5-24.9-16.8-39.5-21.2l16.5,21.3L334.8,158.6z
			 M303.8,143c-3.9-0.9-8-1.6-12.1-2.1l6.3,9.4L303.8,143z"/>
		<path fill="#FBB034" d="M451.3,245c-3.7,0.8-16,3.5-20.5,4.4l5.6-9.1l7-5l-2.7-5.5l24.1-38.8l-71,11.5l-16.1,26.8l18-6.1l15.3-2.4
			l-7.2,11.4l-10.6,6l2,8.8L372.4,287l83-23.4l14.5-25.9L451.3,245z M186.1,289.7l8-9.1l-1.9-8.4l20.6-59.4l16-17.4l-67.2,8
			l11.2,13.2l-25.2,61.2l-8.9,9.6l3.6,7.3l-22.9,66.8c-4.4,1.5-11.5,3.3-13.3,1.9c-2-1.6-3.3-2.6-0.1-12l8.1-23.1
			c0.3-0.7,13.2-19.7,13.2-19.7L67,323.1c0,0,5.3,7.3,5.1,10.5l-6.3,22.1c-3.2,14.1,3,21.9,9.5,27.8c7,6.3,27.3,15.3,54.5,4.5
			c4.4-1.7,36.1-16.5,36.1-16.5s-3-4.9-4.1-10.2L186.1,289.7 M250.5,287.3l-9.9,3.3l11.3-24.5L250.5,287.3 M366.5,265.7l-19.9,6
			l5.8-14l8.4-6.2l-3-5.9l20.5-40.8l-72.1,11.1l-15.8,28.8l19.1-6.6l19.3-3.2l-8.4,14.2l-7.4,4.9l0.8,8.1L288,311.5
			c-1.7-1.8-4.3-4.8-4.3-6.7l2.4-34.9l5.8-8l-5.4-7.1l-0.1-19.9l8.6-17.2l-69.9,11l2.3,12.6l-12.2,24.1l-8.8,8.7l1.4,7.6l-31.1,72.1
			l46.9-18.7l7.3-19.4l17.8-5.9l-2.8,18.6l41.9-14.8l80-25.1l17.6-30.7L366.5,265.7"/>
		<path fill="#FFFFFF" d="M171.8,207.1l46.2-6l-9.7,9.3l-21.9,62.1l1.6,6.5l-6,7.1l-25.8,74.5c0,0,0.8,7,2.1,8.4
			c-6.7,3-23,11.2-30.6,14.2c-25.3,10-43.5,1.5-49.1-3.5c-6.9-6.2-10.2-12.4-7.9-22.7c1-4.6,1.4-5.5,2.7-9.9
			c1.2-4.2,2.4-8.2,3.5-11.8c1-3.2-0.8-7-1.9-8.7l41.2-10.1c-1.2,2-6.3,6.9-7.4,9.9l-8.1,23.2c-3.6,10.6-2.6,14.3,1.9,17.8
			c6.6,5.2,20.8-2.3,20.8-2.3l24.2-70.8l-2.8-6.3l6.9-7.1l26.6-66.1L171.8,207.1z"/>
		<path fill="#FFFFFF" d="M307.5,232.8l31.2-4.9l-13.8,24.5l-6.5,4.1l0.8,5.7l-21.7,42l67.2-20.8l8.7-14.7l-7.4,3.4l-28.7,8
			l10.6-24.9l6.4-4.8l-2.7-4.6l16.8-34c0,0-51.2,7.1-58.3,8.4l-8.7,14.9L307.5,232.8z"/>
		<path fill="#FFFFFF" d="M254.9,291.3l-23.4,7.4l26.1-55.4L254.9,291.3z M281.2,234.1l5.3-10.2l-55.1,8.6l1.5,9.5l-14.5,27.3
			l-6.5,5.8l1.3,6.5l-26.7,62.4l33.1-13.2l7.4-19.6L255,302l-2.4,17.6l27.6-9c0,0-1.9-2.2-1.7-4.4l2.2-38.8l4.5-5.4l-4-4.8
			L281.2,234.1"/>
		<path fill="#FFFFFF" d="M452.5,250.1c-8.5,1.9-32.8,7-32.8,7l11.9-18.9l5.4-4.2l-2-4.4l19.6-31.6l-57.7,9.1l-8,13.2l4.6-1.9
			c3.4-0.8,29.1-4.9,29.1-4.9L407,236.5l-7.2,4.4l1.1,5.3l-17.4,31.2c0,0,55.4-15.8,68.4-18.4l7.2-11.7
			C459.2,247.3,454.1,249.8,452.5,250.1"/>
		<path fill="#FFFFFF" d="M206.1,183.2l33.1,10.6L220.7,212l12.4-1.8c10.1-9.8,20.8-20.4,20.8-20.4l5.5,6l10.4-6.5l8.7-20.2
			c0,0,12.8,16.8,22.1,32.5l4.7-0.6L294,182.7l3.8-27.4l9.1-11.4c0.1,3-0.1,8,0.3,10.6l-2.3,3.4c3.2,4.7,6.5,8.4,9.7,13.2l-12.1,13
			l4.9,8.6l10-8.6l16.2,13.3l28.8-3.6l11.3,3.9l1-2.1c-5.7-8.1-10.1-13.3-10.1-13.3l-12.3-17.1l-6.4,7.5l-11.1-14l-6.5,7.8L307,139
			l-9,11.3l-24.2-35.5l-31.8,43.9l-10.6-13.5l-20,26.1l-4.4-5.3l-16.5,18.8l4.3-0.6l12.1-13.6L206.1,183.2z"/>
		<path fill="#2B5134" d="M352.1,170l0.2,8l4,5.7c-0.9,0.7-1.5,2.6-2.9,3c-4-5-6-7.6-7.5-9.5L352.1,170z"/>
		<path fill="#2B5134" d="M331.1,173.8c-0.8-1.1-1.7-2.1-2.5-3.2l6.1-7.3c2.8,12.9,3.9,19.9,6.3,33l-13.5-10.9L331.1,173.8z"/>
		<path fill="#2B5134" d="M297.8,155.2l9.1-11.4c0.1,3-0.1,8,0.3,10.6l-2.3,3.4c3.2,4.7,6.5,8.4,9.7,13.2l-12.1,13l4.9,8.6l10-8.6
			l16.2,13.3l-28.4,3.6L294,182.7L297.8,155.2z"/>
		<path fill="#2B5134" d="M273.8,119.9c-2.3,12.9-3.5,30.2-5.8,42.4l4.6,6.4l-16.1,12.2l-14.1-17.5L273.8,119.9z"/>
		<path fill="#2B5134" d="M254,189.7l5.5,6l10.4-6.5l8.7-20.2c0,0,12.8,16.8,22.1,32.5l-14.4,1.8l-1.9,4.1l-10.8-3.4l-40.4,6
			C243.2,200.3,254,189.7,254,189.7"/>
		<path fill="#2B5134" d="M231.5,150c-0.3,3.8,0.1,9.8,0.2,14.4c1,2.2,3.3,3.4,3.7,5.5l-13,18.3L211.5,176L231.5,150z"/>
		<polygon fill="#2B5134" points="206.9,170.6 206.1,183.2 204.9,182.8 194.9,184.2 		"/>
		<path fill="#2B5134" d="M209.4,347.9l18.2-7.4l6-13.8l11.6,8.5c40.5-15.2,88.7-30.4,88.7-30.4s0.3,8.5-0.5,14
			c-14.9,0-29.7,8.9-45.1,18.1c-20.8,12.5-42.3,25.4-67.3,19.4C216.9,353.8,209.4,347.9,209.4,347.9"/>
		<path fill="#2B5134" d="M302,369.3c-15.9,3.6-32.8,3.6-49.7-0.5c-6.9-1.7-13.2-3.8-19.2-6.3c21.4,0.2,40.5-11.2,57.6-21.5
			c14.8-8.9,28.4-17.1,41.8-17.3C330.7,332.1,323.6,358,302,369.3"/>
		<path fill="#2B5134" d="M315.5,365.3c10.5-9.8,18.3-24.3,21.7-41.3l0.1-0.2c7.4,1,14.7,4.7,22.2,12.3
			C347.2,349.3,332.1,359.3,315.5,365.3"/>
		<path fill="#2B5134" d="M362.6,332.7c-8.3-8.4-16.4-12.5-24.5-13.6c0.8-5.8,1-11.2,0.4-15.7c8.3-2.6,44-13.4,47.6-14.4l0.1,0
			C381.3,305.6,373.2,320.3,362.6,332.7"/>
		<path fill="#FFFFFF" d="M386.2,288.9c-4.8,16.7-13,31.5-23.6,43.8c-8.3-8.4-16.4-12.5-24.5-13.6c0.8-5.8,1-11.2,0.4-15.7
			c-1.5,0.5-3,1-4.6,1.4c0,0,0.3,8.5-0.5,14c-14.9,0-29.7,8.9-45.1,18.1c-20.8,12.5-42.3,25.4-67.3,19.4c-4.1-2.4-11.3-8.1-11.6-8.3
			c-2.8,1.2-4.8,2-4.9,2c13.3,10.9,29.1,19.1,46.8,23.4c62.2,15.1,124.3-23.3,141.2-86.2C390.4,287.6,388.3,288.2,386.2,288.9
			 M302,369.3c-15.9,3.6-32.8,3.6-49.7-0.5c-6.9-1.7-13.2-3.8-19.2-6.3c21.4,0.2,40.5-11.2,57.6-21.5c14.8-8.9,28.4-17.1,41.8-17.3
			C330.7,332.1,323.6,358,302,369.3 M315.5,365.3c10.5-9.8,18.3-24.3,21.7-41.3l0.1-0.2c7.4,1,14.7,4.7,22.2,12.3
			C347.2,349.3,332.1,359.3,315.5,365.3"/>
		<path fill="#FFFFFF" d="M189.7,141.3c-1.3-2.2-2.8-4.2-4.2-6.1c0.8-0.3,1.5-0.7,2.2-1.1c0.7-0.4,1.4-0.8,2.1-1.2
			c0.7-0.5,1.4-0.9,2.1-1.3c0.6-0.5,1.3-0.9,1.9-1.5c0.2,0.6,0.6,1.3,1,2.1c0.4,0.8,0.9,1.7,1.4,2.5c0.5,0.9,1,1.7,1.5,2.6
			c0.5,0.9,1,1.6,1.4,2.3l1.4,2.3c0.7,1.2,1.5,2.3,2.2,3.3c0.7,1,1.4,1.8,2.2,2.4c0.8,0.6,1.7,0.9,2.6,0.9c1,0,2.1-0.4,3.4-1.1
			c0.8-0.5,1.5-1.1,2-2c0.5-0.8,0.8-1.7,0.7-2.7c-0.1-0.8-0.2-1.5-0.5-2.2c-0.3-0.6-0.7-1.3-1.1-2.1l-0.7-1.2l-0.7-1.2l-1.5-2.4
			c-0.9-1.4-1.8-2.9-2.8-4.4c-1-1.5-2.1-3.1-3.3-4.7c0.5-0.2,1-0.4,1.4-0.6l1.4-0.7l1.1-0.8l1-0.9c0.6,1,1.2,2.2,1.9,3.4
			c0.7,1.2,1.3,2.4,2,3.6c0.6,1.2,1.3,2.3,1.8,3.2c0.6,1,1,1.8,1.4,2.4c0.6,1,1.1,1.9,1.6,2.8c0.5,0.8,0.8,1.6,1.1,2.4
			c0.3,0.8,0.4,1.6,0.5,2.3c0.1,0.8,0,1.6-0.1,2.5c-0.3,1.7-1,3.3-2.2,4.7c-1.1,1.4-2.6,2.6-4.4,3.7c-3.6,2.2-6.8,3-9.5,2.5
			c-2.8-0.5-5.3-2.6-7.5-6.2C192.6,145.9,191.1,143.5,189.7,141.3"/>
		<path fill="#FFFFFF" d="M240.1,113.2c-1.1,0.3-2.3,0.7-3.4,1.1c0-0.8-0.1-1.5-0.3-2.2l-0.3-1l-0.4-1.1c2-0.2,3.9-0.5,5.8-1
			c1.9-0.4,3.8-0.8,5.7-1.3c1.8-0.4,3.7-0.8,5.6-1.3c1.9-0.5,3.8-1,5.8-1.7l0.1,1.1c0,0.4,0.1,0.8,0.2,1.3l0.3,1.1l0.4,0.9
			c-1.2,0.2-2.4,0.3-3.6,0.5c-1.2,0.2-2.4,0.4-3.6,0.7c0.2,0.8,0.3,1.8,0.6,2.9c0.2,1.1,0.5,2.2,0.7,3.3l0.5,2.1
			c0.3,1.5,0.7,2.8,1,4.1c0.3,1.3,0.6,2.6,0.9,3.8c0.3,1.2,0.6,2.4,0.9,3.6c0.3,1.2,0.6,2.4,1,3.6c-1.3,0.2-2.4,0.3-3.2,0.5
			c-0.8,0.1-1.3,0.2-1.7,0.3c-1.1,0.2-2,0.5-2.6,0.7c-0.7,0.3-1.3,0.5-1.7,0.6c-0.1-0.7-0.2-1.5-0.3-2.4c-0.2-0.9-0.3-1.9-0.5-2.9
			c-0.2-1-0.4-2-0.6-3c-0.2-1-0.4-2-0.7-2.9l-0.8-3.4l-0.4-1.6c-0.2-1-0.5-2.1-0.8-3.3c-0.3-1.2-0.6-2.5-1-3.8
			C242.5,112.6,241.3,112.9,240.1,113.2"/>
		<path fill="#FFFFFF" d="M292.9,132.7l-1.2-0.5l-1.3-0.4l-1.3-0.2h-1.2l3.3-4.6c0.5-0.7,1.1-1.5,1.7-2.4c0.7-0.9,1.3-1.9,2-2.9
			c0.7-1.1,1.5-2.2,2.2-3.3c0.8-1.1,1.6-2.3,2.3-3.4c0.4-0.7,0.9-1.4,1.5-2.3c0.5-0.8,1.1-1.7,1.6-2.5c0.5-0.8,1-1.6,1.4-2.3
			c0.5-0.7,0.8-1.2,0.9-1.4l1.3,0.5l1.3,0.4l1.4,0.2c0.5,0.1,0.9,0.1,1.4,0.1c0.1,1,0.2,2.1,0.4,3.4c0.2,1.4,0.4,2.7,0.6,4.2
			c0.2,1.5,0.4,3,0.7,4.4c0.3,1.5,0.5,2.9,0.7,4.1c0.2,1.5,0.5,2.7,0.7,3.9c0.2,1.1,0.4,2.2,0.6,3.2c0.2,1,0.4,2,0.6,3.1
			c0.2,1,0.5,2.2,0.8,3.4c-0.7-0.3-1.5-0.6-2.4-0.8c-0.9-0.2-1.7-0.4-2.5-0.6c-0.8-0.2-1.6-0.3-2.5-0.4c-0.8-0.1-1.7-0.2-2.5-0.3
			c-0.1-1-0.1-2-0.2-3c-0.1-1-0.2-1.9-0.3-2.9c-0.8-0.2-1.7-0.4-2.5-0.5c-0.8-0.2-1.7-0.4-2.5-0.5c-0.7-0.1-1.3-0.3-2-0.4
			c-0.7-0.1-1.3-0.3-2-0.4c-0.5,0.8-1,1.7-1.5,2.5C293.8,130.9,293.4,131.8,292.9,132.7 M297.6,124.3l0.8,0.2l0.8,0.2l1.7,0.3
			l1.7,0.4l0.8,0.2l0.8,0.2l-1.4-9.6L297.6,124.3z"/>
		<path fill="#FFFFFF" d="M337.7,130.3c0.4-0.7,0.8-1.5,1.3-2.3c0.5-0.8,0.9-1.5,1.3-2.3s0.7-1.2,0.8-1.5c0.4-0.8,0.9-1.6,1.4-2.6
			c0.5-0.9,1-2,1.5-3.2c0.6,0.4,1.2,0.8,2,1.4c0.7,0.5,1.4,0.9,2.1,1.3c0.6,0.3,1.4,0.7,2.2,1.1c0.8,0.4,1.5,0.7,2.2,0.9
			c-0.5,0.8-1.1,1.6-1.6,2.4c-0.5,0.8-1.1,1.7-1.6,2.5c-0.5,0.8-1,1.6-1.5,2.4c-0.4,0.8-0.9,1.5-1.2,2.1c0.5,0.3,1.1,0.7,1.7,1.1
			c0.6,0.4,1.3,0.7,2,1.2c0.6,0.3,1.2,0.7,1.9,1c0.7,0.4,1.3,0.7,2,1.1c0.4-0.7,0.8-1.5,1.3-2.3c0.4-0.8,0.9-1.6,1.3-2.5
			c0.5-0.9,0.9-1.7,1.3-2.6c0.4-0.9,0.8-1.7,1.2-2.5c0.6,0.4,1.2,0.9,2,1.4c0.7,0.5,1.4,0.9,2.1,1.3c0.6,0.3,1.4,0.8,2.2,1.1
			c0.8,0.4,1.5,0.7,2.2,0.9c-1,1.3-1.9,2.8-2.8,4.3c-0.9,1.5-2,3.2-3.1,5.3c-0.9,1.5-1.7,2.9-2.3,4.2c-0.7,1.3-1.4,2.5-2,3.6
			c-0.6,1.2-1.2,2.3-1.8,3.4c-0.6,1.1-1.2,2.3-1.9,3.5c-1.3-1-2.8-2-4.3-2.8c-0.7-0.4-1.3-0.7-2-1.1c-0.7-0.3-1.4-0.6-2.1-0.9
			c0.5-0.7,1.1-1.5,1.7-2.6c0.7-1.1,1.3-2.1,2-3.1c0.6-1.1,1.2-2.1,1.8-3c0.5-1,1-1.8,1.3-2.3c-0.6-0.3-1.2-0.7-1.8-1.1
			c-0.6-0.4-1.2-0.8-1.9-1.1c-0.6-0.3-1.2-0.7-1.9-1.1c-0.7-0.4-1.3-0.7-1.9-1c-0.3,0.6-0.8,1.4-1.3,2.4c-0.5,1-1.1,2-1.7,3.1
			c-0.6,1.1-1.2,2.2-1.7,3.2c-0.5,1.1-1,2-1.4,2.8c-0.6-0.5-1.3-1-2-1.5c-0.7-0.4-1.4-0.8-2.1-1.3c-0.9-0.5-1.6-0.9-2.3-1.2
			c-0.7-0.3-1.3-0.6-2-0.8l1.1-1.6c0.3-0.5,0.8-1.1,1.2-1.8c0.5-0.7,1-1.5,1.5-2.4c0.5-0.9,1-1.7,1.6-2.7c0.5-0.9,1-1.7,1.5-2.5
			C337,131.5,337.3,131,337.7,130.3"/>
	</g>
</g>
</svg>
