<?xml version="1.0" encoding="utf-8"?>
<!-- Generator: Adobe Illustrator 18.0.0, SVG Export Plug-In . SVG Version: 6.00 Build 0)  -->
<!DOCTYPE svg PUBLIC "-//W3C//DTD SVG 1.1//EN" "http://www.w3.org/Graphics/SVG/1.1/DTD/svg11.dtd">
<svg version="1.1" xmlns="http://www.w3.org/2000/svg" xmlns:xlink="http://www.w3.org/1999/xlink" x="0px" y="0px" width="512px"
	 height="512px" viewBox="0 0 512 512" enable-background="new 0 0 512 512" xml:space="preserve">
<g id="white_block">
	<rect opacity="0" fill="#FFFFFF" width="512" height="512"/>
</g>
<g id="Logos">
	<g>
		<path fill="#C4CED4" d="M256,48.5C141.4,48.5,48.5,141.4,48.5,256c0,114.6,92.9,207.5,207.5,207.5c114.6,0,207.5-92.9,207.5-207.5
			C463.5,141.4,370.6,48.5,256,48.5"/>
		<path fill="#E31837" d="M455.8,255.3c0-107.4-91.8-199.7-199.2-199.7c-107.3,0-200.4,92.9-200.4,200.2
			c0,98.6,78.4,185.6,174.2,199.2c8.1,1,16.3,1.5,24.7,1.5h0.1h0.1h0c18.2,0,35.8-2.4,52.5-7C391.7,425.5,455.8,345,455.8,255.3"/>
		<path fill="#FFFFFF" d="M455.5,245.6l-399,0c-0.2,3.4-0.3,6.8-0.3,10.3c0,18.2,2.7,36,7.6,53c47,0,336.5,0,384.3-0.1
			c5-17.2,7.7-35.1,7.7-53.5C455.8,252.1,455.7,248.8,455.5,245.6"/>
		<path fill="#002B5C" d="M230.4,455c8.1,1,16.3,1.5,24.7,1.5h0.1h0.1h0c18.2,0,35.8-2.4,52.5-7c52.4-15.1,97.2-52.2,123.3-99.9
			H80.8C111.3,404.9,167,446,230.4,455"/>
		<path fill="#FFFFFF" d="M255.1,100.2c0,0-1.6-28.2-1.6-29.5c0-1.3,1.5-2.6,1.5-2.6c-1,0-4.9,0.3-9,0.4c-1,0.2-2.8,0.3-2.4,4.4
			l1.7,31.1l10-0.5l0.7-0.2C256,103.2,255.3,102.1,255.1,100.2"/>
		<path fill="#FFFFFF" d="M355.8,105.7l3.6-6.3l-14.8-8.6c0,0-0.1,0-0.1-0.1l-8.4-4.9c-1.2-0.7-2.1,0.2-2.4,0.7
			c-0.3,0.5-3.4,5.9-3.4,5.9l0,0l-1.4,2.4c0,0,2-2,4.4-0.6l5.2,3l-13.4,23.2l9.4,5.5c0,0,0-1.5,0.9-3.3c0,0,7.4-12.9,11.7-20.4
			l4,2.3c2.3,1.3,2.3,5,2.3,5L355.8,105.7z"/>
		<path fill="#FFFFFF" d="M327,81.7L313.2,77c-4.4-1.5-7.6-1.9-9.5-1.2c-1.9,0.7-3.5,3-4.8,6.9l-5,14.6c-0.6,1.7-1,3.1-1.1,4.3
			c-0.3,2.3,0.2,4,1.5,5.3c1.3,1.2,3.7,2.5,7.3,3.7l6.2,2.2c4.5,1.6,7.7,2,9.5,1.3c1.9-0.7,3.5-3,4.8-6.9c0,0,2.4-6.8,2.8-7.9
			c0.6-1.9-0.8-3.1-1.6-3.4l-11.7-4.1c-1.4-0.5-2.2,0.6-2.7,1.4c-0.5,0.9-2.2,5.9-2.2,5.9l-0.6,1.6c0,0,1.3-1.3,3.1-0.7l4.3,1.5
			c-0.7,1.6-1.4,2.5-2.1,2.7c-0.7,0.2-2.1,0-4.3-0.8c0,0-1.5-0.6-1.9-0.8c-1-0.7-1.5-1.5-1.4-2.6c0.1-0.6,0.3-1.5,0.7-2.6l2.8-8.1
			c0.8-2.2,1.5-3.4,2.3-3.6c0.8-0.2,2.3,0,4.4,0.8l10.6,3.7c1.9,0.7,2.3,3.2,2.3,3.2l0.7-2.1l1.9-5.4
			C330.1,83.5,328.8,82.4,327,81.7"/>
		<path fill="#FFFFFF" d="M221.2,71.6c0,0,3.2,1,3.7,3.5l0,0.1l1.8,8.8l-7,1.5c-2.1,0.4-2.5,2.5-2.5,2.5l-3-14.9l-12,2.5
			c0,0,2.5,1.2,3,3.6l0,0.1l6.3,30.5l7-1.4c1.4-0.3,2.4-0.6,2.6-1.7l-2.6-12.2l9.7-2l2.8,13.3l7-1.4c1.4-0.3,2.4-0.6,2.6-1.7
			l-7-33.6L221.2,71.6z"/>
		<path fill="#FFFFFF" d="M383.8,125.8c1-2.1,1.1-3.9,0.2-5.6c-0.7-1.5-2.6-3.4-5.6-5.8l-5.2-4.1c-3.7-2.9-6.6-4.3-8.5-4.3
			c-2,0.1-4.3,1.7-6.8,4.9l-9.5,12.1c-1.1,1.4-1.9,2.7-2.4,3.7c-1,2.1-1.1,3.9-0.3,5.5c0.8,1.6,2.7,3.6,5.7,5.9l5.2,4.1
			c3.7,2.9,6.6,4.4,8.6,4.3c2-0.1,4.3-1.7,6.8-4.9l9.5-12.1C382.5,128.1,383.3,126.9,383.8,125.8 M371.3,126l-5.3,6.7
			c-1.4,1.8-2.6,2.7-3.5,2.7c-0.7,0-2-0.7-3.8-2.1l0.8,0.6c-1.3-1-2-1.7-2.3-2c-0.8-1-0.9-1.9-0.4-2.9c0.3-0.6,0.8-1.3,1.5-2.3
			l5.3-6.7c1.4-1.8,2.5-2.7,3.4-2.7c0.8,0,2.1,0.8,4,2.2l-0.7-0.6c1.2,1,2,1.7,2.3,2.1c0.8,0.9,0.9,1.9,0.4,2.9
			C372.6,124.4,372.1,125.1,371.3,126"/>
		<path fill="#FFFFFF" d="M204.9,96.7c-2.3-4.4-7-5.9-11.9-3.9l-5.5,2.3c-2,0.8-3.3,0.7-4.1-0.5c0,0-0.2-0.5-0.3-0.6
			c-0.2-0.8-0.9-2.2,2.1-3.4l9.8-4.1c2.1-0.9,5.3,1.2,5.3,1.2s-1.9-4.6-3.1-7.5c-0.7-1.7-2.8-2.7-4.5-2l-12.1,5
			c-4.3,1.8-7,3.6-7.9,5.4c-0.9,1.8-0.6,4.6,1,8.4l1.4,3.2c0.2,0.5,0.5,0.9,0.8,1.4c1.1,1.6,2.6,2.7,4.6,3.2c2.4,0.6,5.1,0.3,8.2-1
			l4.7-2c1.8-0.8,3.1-0.6,3.9,0.6c0.2,0.3,0.3,0.6,0.3,1c0,0,0.5,1.6-3.2,3.2l-9.5,3.9c-2.1,0.7-5.2-1.3-5.2-1.3s1.9,4.6,3.1,7.5
			c0.7,1.7,2.8,2.7,4.5,2l0.9-0.4l6.5-2.7l4.7-2c4.4-1.8,7-3.6,7.9-5.4c0.9-1.8,0.5-4.4-1-8.1C206.6,100.2,205.4,97.4,204.9,96.7"/>
		<path fill="#FFFFFF" d="M406.3,145.6l-1.7-2.1c0,0,0.5,3.1-1.5,4.6l0.1,0l-10.5,8.2l6.8-18.5c0.2-0.5,0.1-0.9-0.3-1.4
			c-0.8-1-5.2-6.7-5.2-6.7l-1.8-2.3c0,0,0.5,3.3-1.5,4.9l-24.6,19.3l4.4,5.6c0.9,1.1,1.6,1.9,2.7,1.6c0,0,6.2-4.9,13.1-10.3
			l-6.3,16.2c-1.1,2.6-2.9,1-2.9,1l1.2,1.7l0,0l4.4,5.6c0.9,1.1,1.6,1.8,2.7,1.6l27-21.1L406.3,145.6z"/>
		<path fill="#FFFFFF" d="M283.1,70.3l-2.7-0.3c0,0,2.5,1.8,2.3,4.3l0-0.1l-1.5,13.3l-8.5-17.8c-0.2-0.4-0.6-0.7-1.2-0.8
			c-1.2-0.1-8.4-1-8.4-1l-2.9-0.3c0,0,2.7,2,2.4,4.5l-3.5,31l7.1,0.8c1.4,0.2,2.4,0.2,3-0.8c0,0,0.9-7.8,1.8-16.6l7.2,15.8
			c1.1,2.6-1.3,2.8-1.3,2.8l2.1,0.3l0,0l7.1,0.8c1.4,0.2,2.4,0.2,3-0.8l3.8-34.1L283.1,70.3z"/>
		<path fill="#FFFFFF" d="M133.8,110.3l-1,1.3l-5.6,6.3c0,0,0,0.1-0.1,0.1c-0.8,0.9-1.3,1.6-1.2,2.4l14.2,21.9l-20-10.8
			c-2.5-1-1.5-3.8-1.5-3.8l-2,2.3l-4.1,4.7c0,0,0,0.1-0.1,0.1c-1,1.2-1.6,2.4-1,3.6l14.3,20.1l-20-10.3c-2.6-1.3-1.5-4.2-1.5-4.2
			l-2.1,2.4l-4.7,5.3c0,0,0,0.1-0.1,0.1c-1.1,1.2-1.4,3-0.3,3.8c0.1,0.1,0.1,0.1,0.1,0.1l31.1,14.6l7.3-8.3c1-1.1,1.3-1.7,0.8-2.9
			l-5.9-10.9l12,5.9l7.8-8.8c1-1.1,1.1-2.6,0.7-3.8l-16.5-27.6C133.3,111.9,133.8,110.3,133.8,110.3"/>
		<path fill="#FFFFFF" d="M151,100.1l-5.9,4.1c-1.2,0.8-1.7,1.6-1.6,2.9l10,30.3c0.6,1.9-1.7,5.3-1.7,5.3l10.4-7.3
			c0.9-0.7,1.2-1.8,0.8-2.8l-1.5-4.3l7.9-5.5l3.1,1.9c1.8,1.5,0.5,3.1,0.5,3.1l11.4-8L151,100.1z M158.3,120l-1.9-5.2l4.8,3.1
			L158.3,120z"/>
		<polygon fill="#FFFFFF" points="93.8,182.6 98.5,197 113.6,197 101.3,205.9 106,220.3 93.8,211.4 81.5,220.3 86.2,205.9 73.9,197 
			89.1,197 		"/>
		<polygon fill="#FFFFFF" points="418.2,184.5 413.5,198.9 398.4,198.9 410.7,207.8 406,222.2 418.2,213.3 430.5,222.2 425.8,207.8 
			438.1,198.9 422.9,198.9 		"/>
		<path fill="#FFFFFF" d="M257,407.8h-7.2c-1.5,0-2.3,0.4-2.9,1.4l-9.2,30.6c-0.6,1.9-4.4,3.4-4.4,3.4h12.7c1.1,0,2-0.8,2.3-1.8
			l1.3-4.4h9.7l1.4,3.4c0.6,2.2-1.4,2.8-1.4,2.8H273L257,407.8z M251.9,428.5l1.5-5.4l2,5.4H251.9z"/>
		<path fill="#FFFFFF" d="M307.6,433.8l-7.6-8.4c1.8-0.4,3.2-1.4,3.7-2.3c0.9-1.4,0.9-4.2,0.2-8.2c0,0-1.4-7-1.7-8.1
			c-0.5-2.1-1.7-3.4-3-3.9c-1.3-0.5-3.3-0.5-6,0l-25.1,4.7c0,0,3.2,1.2,3.7,3.6l5.6,30.6l7-1.3c1.4-0.3,2.4-0.5,2.7-1.6l-1.9-10.4
			l4.9-1l8.4,10.3l12.5-2.3C311,435.5,308.8,434.9,307.6,433.8 M294,413.3c0.3,0.7,0.6,3.3,0.4,4c-0.2,0.7-0.7,1.1-1.4,1.2l-5.8,1.1
			c-1.3,0.2-2.3,1.6-3.1,3.3l-1.7-9.2l9.4-1.8C292.8,411.6,293.6,412.1,294,413.3"/>
		<path fill="#FFFFFF" d="M335.8,391.7c-1-2-2.5-2.9-3.8-3.1c-1.4-0.2-3.3,0.2-5.8,1.3l-23.6,10.2c0,0,3.3,0.6,4.4,2.7l10.9,25.3
			c0.5,1.8-0.2,3.7-0.5,4.1l23-9.9c3.1-1.4,4.9-2.8,5.5-4.4c0.5-1.6,0-4.3-1.7-8l-6.8-14.9C336.6,393.3,336.3,392.7,335.8,391.7
			 M329.2,399.8c0.4,0.7,6.3,13.7,6.2,14.4c-0.1,0.7-0.4,1.2-1.1,1.5l-9.1,3.9l-5.3-12.2c-0.3-0.8-1.1-2.7-2.1-4.7l8.9-3.8
			C327.7,398.5,328.5,398.8,329.2,399.8"/>
		<path fill="#FFFFFF" d="M237.4,414.8l1.5-6.7c0,0-26.2-5.7-26.6-5.8c-2.2-0.2-3,1.2-3.5,2.9l-1,4.7l0,0l-0.5,1.9
			c0,0,1.9-1.5,4.1-1.1l12.1,2.7l-20.2,17L202,436l26.3,5.8c1.7,0.4,2.9,0.4,3.4-1.3l1.9-8.7c0,0-2,1.9-4.1,1.5l-12.7-2.8
			L237.4,414.8z"/>
		<path fill="#FFFFFF" d="M194.5,430.2c0,0,9.2-26.7,9.7-27.9c0.5-1.2,2.3-1.8,2.3-1.8c-0.9-0.4-4.6-1.6-8.5-3
			c-1-0.2-2.7-0.8-3.9,3.1L183.9,430l9.5,3.3l0.8,0.1C194.2,433.4,194,432.1,194.5,430.2"/>
		<path fill="#FFFFFF" d="M192.8,396.6l-1.4-0.8l-7.1-4.5c0,0-0.1,0-0.1-0.1c-1-0.6-1.8-1-2.5-0.8L166,405.7l5.7-18.4
			c0.4-1.8,3.2-1.8,3.2-1.8l-2.5-1.6l-5.2-3.3c0,0-0.1,0-0.1-0.1c-1.3-0.8-2.6-1.2-3.7-0.4l-16.1,14.9l7.1-17.9
			c0.9-2.8,3.9-2.1,3.9-2.1l-2.7-1.7l-6-3.8c0,0-0.1,0-0.1-0.1c-1.4-0.9-3.2-0.9-3.8,0.3c-0.1,0.2-0.1,0.1-0.1,0.1l-11.1,32l9.3,5.9
			c1.3,0.8,1.9,1,3,0.3l9.9-7.5l-4,12.8l9.9,6.3c1.2,0.8,2.8,0.7,3.9,0.1l23-21.7C191.2,396.4,192.8,396.6,192.8,396.6"/>
		<path fill="#FFFFFF" d="M372.4,384.1c-3.1-3.8-8.1-4.3-12.4-1.3l-4.9,3.4c-1.8,1.2-3.1,1.3-4.1,0.4c0,0-0.3-0.4-0.4-0.5
			c-0.4-0.7-1.3-2,1.3-3.8l8.8-6.1c1.9-1.3,5.5,0.1,5.5,0.1s-2.9-4.1-4.6-6.7c-1-1.5-3.3-2.1-4.9-1L346,376c-3.9,2.7-6.1,5-6.6,6.9
			c-0.5,1.9,0.4,4.6,2.7,8l2,2.9c0.3,0.4,0.7,0.8,1,1.2c1.4,1.3,3.1,2.1,5.2,2.2c2.4,0.1,5-0.8,7.8-2.7l4.2-2.9
			c1.6-1.1,2.9-1.2,4-0.2c0.3,0.3,0.4,0.6,0.5,0.9c0,0,0.9,1.5-2.5,3.8l-8.4,5.8c-1.9,1.1-5.3-0.2-5.3-0.2s2.9,4.1,4.6,6.7
			c1,1.5,3.3,2.1,4.9,1l0.8-0.6l5.8-4l4.2-2.9c3.9-2.7,6.1-5,6.6-6.9c0.5-1.9-0.4-4.4-2.7-7.7C374.8,387.2,373,384.7,372.4,384.1"/>
		<path fill="#C4CED4" d="M378.4,189.7c-8.6-15.8-20.1-29.7-33.8-41c-2.6-2.1-5.2-4.1-8-6.1c-22.7-16.2-50.4-25.7-80.4-25.8H256
			c-74.4,0-135.1,58.4-139,131.8c-0.1,2.4-0.2,4.8-0.2,7.2v0.2c0,19.2,3.9,37.5,10.9,54.1c0.9,2.1,1.8,4.1,2.8,6.2
			c7.8,16.2,18.7,30.7,31.8,42.7c3.3,3,6.7,5.8,10.3,8.5c23.2,17.4,52,27.7,83.2,27.7h0.1h0.1h0c16.8,0,32.9-3,47.8-8.4
			c53.2-19.5,91.3-70.6,91.3-130.6v-0.1v0V256c0-19.2-3.9-37.5-10.9-54.1C382.5,197.7,380.5,193.7,378.4,189.7"/>
		<path fill="#FFFFFF" d="M380.8,203.3c-1.7-4-3.6-8-5.7-11.8c-8.3-15.3-19.5-28.9-32.9-39.9c-2.5-2.1-5.1-4-7.8-5.9
			c-22.1-15.7-49.1-25.1-78.3-25.1H256c-72.4,0-131.5,56.8-135.3,128.3c-0.1,2.3-0.2,4.6-0.2,7v0.2c0,18.7,3.8,36.5,10.6,52.7
			c0.9,2,1.8,4,2.7,6c7.6,15.8,18.2,29.9,31,41.5c3.2,2.9,6.5,5.7,10,8.3c22.6,16.9,50.6,26.9,81,27h0.1h0.1h0
			c16.3,0,32-2.9,46.5-8.2c51.8-19,88.8-68.7,88.9-127.1v-0.1v0V256C391.4,237.3,387.7,219.5,380.8,203.3"/>
		<path fill="#002B5C" d="M230.7,193.9l3.1-11.4l0.7-2.7l-14.4-8.1c0,0-8.4-5.8-27.2,5.1c-22,13-39.9,29.8-49.2,47.6
			c-5.1,9.9-9.2,21.2-11.3,34.1c0.7,24.4,8.4,47.1,21.2,66c-3.7-35.2,30.4-73.8,57-100.2C224.8,210.4,230.7,193.9,230.7,193.9"/>
		<path fill="#002B5C" d="M319.2,176.8c-18.8-10.9-27.2-5.1-27.2-5.1l-14.4,8.1l0.7,2.7l3.1,11.4c0,0,5.9,16.4,20,30.5
			c26.6,26.3,60.5,64.7,57.1,99.8c12.9-19.1,20.6-42.1,21-66.8c-2.2-12.5-6.2-23.5-11.1-33C359.1,206.6,341.2,189.8,319.2,176.8"/>
		<path fill="#E31837" d="M274,155.7c49.4,5.6,81.9,33.6,98.6,58.5c-12.6-35.9-41.3-64.2-77.5-76.3
			C287.2,140.3,278.3,145.3,274,155.7"/>
		<path fill="#E31837" d="M238.2,155.7c-4.4-10.5-13.3-15.5-21.3-17.8c-36.4,12.1-65.2,40.7-77.7,76.9
			C155.8,189.8,188.4,161.3,238.2,155.7"/>
		<path fill="#E31837" d="M246.3,154.3l9.8-14.4l9.8,14.4c3.9-10.8,10.1-16.7,16.4-19.9c-8.4-1.8-17.2-2.8-26.2-2.8
			c-9,0-17.8,1-26.3,2.8C236.1,137.6,242.3,143.5,246.3,154.3"/>
		<path fill="#002B5C" d="M256.1,196.3c-1.4,1-47,33.8-67.1,66.4c-27.1,43.9-23.6,69.2-16.6,83.6c17.5,16.1,39.6,27.2,64.1,31.1
			L247,227.4l8.8-8.8l0.1-0.1v0l0,0l0.1,0.1l8.8,8.8l10.6,149.7l-0.1,0.1c24.7-3.9,47-15.1,64.5-31.4c6.9-14.5,10.2-39.7-16.7-83.3
			C303.1,230.1,257.5,197.3,256.1,196.3"/>
		<polygon fill="#C4CED4" points="264.9,227.4 256.1,218.6 256.2,388.2 275.4,377.2 275.4,377.2 275.6,377.2 		"/>
		<path fill="#C4CED4" d="M282.4,164.5c-5.4-0.9-10.8-1.7-16.2-2l-3.9-0.2l-0.1-0.2l-0.1-0.2l-1.6-3.2l-0.1-0.2v0l-4.5-9.1l-1.4,2.9
			l-2.9,5.9l0,0l-0.1,0.2l-0.1,0.2l-1.5,3.2l-0.1,0.3l0,0.1l-3.9,0.2c-5.5,0.3-10.9,1.1-16.2,2c-2.4,0.4-4.8,0.8-7.1,1.3h0h0
			l7.6,4.1l7.6,4.1l2.3,1.3l2.3,1.3l-1.4,5.1l-0.1,0.3l-0.7,2.4l-4.2,15.3l0,0v0l9.6-7.1l6.5-4.8l1.9-1.4l1.9-1.4v0v-0.1l0.1,0
			l0.1,0v0.1v0l1.9,1.4l1.9,1.4l16.1,11.9l-4.2-15.3l-0.4-1.3l-0.4-1.3l-1.4-5.1l1.5-0.8l3.2-1.7l10.2-5.5l4.9-2.7h0h0
			C287.2,165.3,284.8,164.9,282.4,164.5"/>
	</g>
</g>
</svg>
